<?xml version="1.0" encoding="utf-8"?>
<!-- Generator: Adobe Illustrator 25.4.1, SVG Export Plug-In . SVG Version: 6.00 Build 0)  -->
<svg version="1.1" id="_x2018_ÎÓÈ_x5F_1" xmlns="http://www.w3.org/2000/svg" xmlns:xlink="http://www.w3.org/1999/xlink"
	 x="0px" y="0px" viewBox="0 0 615 320" enable-background="new 0 0 615 320" xml:space="preserve">
<g>
	<rect x="-1" y="0" fill="#90B4DF" width="615" height="272"/>
	<path opacity="0.54" fill="#6B72A2" d="M542.2,104.5h-9.4v14.6h-5.2v-15.9H426.8v15.9h-10V99.6h-26.3v19.6h-6.4v-10.5h-46.3v10.5
		h-10.5V97.4h-55.7v21.7h-50.7v156.6H535V272h7.2V104.5z M230.2,123.5h302.6V153H511v-20H497v20h-7.9v-13.6h-50.4V153h-6.5v-23.9
		H331.4V153h-8.1v-8.2h-60.6v8.2h-32.4V123.5z M230.2,157.9h302.6v29H511v-25.4H364.2v25.4h-13.6v-11.1h-23.4v11.1h-6.5V164h-55.9
		v22.9h-34.5V157.9z M230.2,191.8h302.6v29H230.2V191.8z M230.2,225.7h302.6v29.8H230.2V225.7z"/>
	<rect x="21.8" y="85.1" fill="#BFBFD8" width="52.3" height="6.3"/>
	<path fill="#262F6D" d="M74.4,114.5H21.5c-2.2,0-3.9-1.8-3.9-3.9V93.5c0-2.2,1.8-3.9,3.9-3.9h52.9c2.2,0,3.9,1.8,3.9,3.9v17.1
		C78.3,112.8,76.6,114.5,74.4,114.5z"/>
	<path fill="#262F6D" d="M74.5,87.7H21.4c-2.1,0-3.8-1.7-3.8-3.8V66.6c0-2.1,1.7-3.8,3.8-3.8h53.1c2.1,0,3.8,1.7,3.8,3.8v17.3
		C78.3,86,76.6,87.7,74.5,87.7z"/>
	<polygon opacity="0.51" fill="#6B72A2" points="185.5,118.9 185.5,114.5 8,114.5 8,272.3 185.5,272.3 185.5,251.9 40.4,251.9 
		40.4,231.4 17.8,231.4 17.8,251.9 13.2,251.9 13.2,221.9 185.5,221.9 185.5,217 178,217 178,199.9 142,199.9 142,217 61.9,217 
		61.9,198 17.4,198 17.4,217 13.2,217 13.2,187.8 185.5,187.8 185.5,182.8 180.5,182.8 180.5,157.6 160.3,157.6 160.3,182.8 
		152.9,182.8 152.9,166.9 139,166.9 139,182.8 60.6,182.8 60.6,157.6 16.1,157.6 16.1,182.8 13.2,182.8 13.2,153.6 185.5,153.6 
		185.5,148.6 171.2,148.6 171.2,126.2 88.6,126.2 88.6,148.6 61.3,148.6 61.3,126.8 30.6,126.8 30.6,148.6 13.2,148.6 13.2,118.9 	
		"/>
	<g>
		<path fill="#46547F" d="M116.7,272H54c-2.6,0-4.8-2.1-4.8-4.8V111.1c0-2.6,2.1-4.8,4.8-4.8h62.7c2.6,0,4.8,2.1,4.8,4.8v156.1
			C121.5,269.8,119.4,272,116.7,272z"/>
		<rect x="86" y="106.3" fill="#6672A2" width="1" height="108.3"/>
		<rect x="49.1" y="214.1" fill="#6672A2" width="72.4" height="1"/>
		<rect x="49.1" y="240.4" fill="#6672A2" width="72.4" height="1"/>
	</g>
	<g opacity="0.57">
		<path fill="#6B72A2" d="M253.8,89.6H99.3c-3.8,0-6.9-3.1-6.9-7V40c0-3.9,3.1-7,6.9-7h154.5c3.8,0,6.9,3.1,6.9,7v42.6
			C260.7,86.4,257.6,89.6,253.8,89.6z M99.3,34c-3.3,0-5.9,2.7-5.9,6v42.6c0,3.3,2.6,6,5.9,6h154.5c3.3,0,5.9-2.7,5.9-6V40
			c0-3.3-2.6-6-5.9-6H99.3z"/>
	</g>
	<g>
		<g>
			<path fill="#FFFFFF" d="M419.1,17c0,0.1,0,0.1,0,0.2c0,2.7,2.1,4.9,4.8,4.9h159c2.6,0,4.8-2.2,4.8-4.9c0-0.1,0-0.1,0-0.2H419.1z"
				/>
			<path fill="#000544" d="M588.1,18.3H418.9c-1.3,0-2.3-1.1-2.3-2.4c0-1.3,1.1-2.4,2.3-2.4h169.2c1.3,0,2.3,1.1,2.3,2.4
				C590.5,17.2,589.4,18.3,588.1,18.3z"/>
			<rect x="422.3" y="0" fill="#000544" width="0.7" height="15"/>
			<rect x="584.3" y="0" fill="#000544" width="0.7" height="15"/>
		</g>
		<g>
			<path fill="#FFFFFF" d="M33.9,17c0,0.1,0,0.1,0,0.2c0,2.7,2.1,4.9,4.8,4.9h159c2.6,0,4.8-2.2,4.8-4.9c0-0.1,0-0.1,0-0.2H33.9z"/>
			<path fill="#000544" d="M202.9,18.3H33.7c-1.3,0-2.3-1.1-2.3-2.4c0-1.3,1.1-2.4,2.3-2.4h169.2c1.3,0,2.3,1.1,2.3,2.4
				C205.2,17.2,204.2,18.3,202.9,18.3z"/>
			<rect x="37" y="0" fill="#000544" width="0.7" height="15"/>
			<rect x="199" y="0" fill="#000544" width="0.7" height="15"/>
		</g>
	</g>
	<rect x="-1" y="271.9" fill="#6672A2" width="615" height="48.1"/>
	<g>
		<g opacity="0.51">
			<g>
				<path fill="#46547F" d="M1.7,297.2c-0.3-0.1-0.8-0.1-1.1,0l-1.7,1v1.1l2.8-1.6C2.1,297.5,2,297.3,1.7,297.2z"/>
				<path fill="#46547F" d="M16,302.1c-0.2,0-0.3,0-0.5-0.1c-0.3-0.1-0.4-0.3-0.1-0.5l7.6-4.3c0.3-0.2,0.7-0.2,1.1,0
					c0.3,0.1,0.4,0.3,0.1,0.5l-7.6,4.3C16.5,302.1,16.2,302.1,16,302.1z"/>
				<path fill="#46547F" d="M38.4,302.1c-0.2,0-0.3,0-0.5-0.1c-0.3-0.1-0.4-0.3-0.1-0.5l7.6-4.3c0.3-0.2,0.7-0.2,1.1,0
					c0.3,0.1,0.4,0.3,0.1,0.5L39,302C38.8,302.1,38.6,302.1,38.4,302.1z"/>
				<path fill="#46547F" d="M60.7,302.1c-0.2,0-0.3,0-0.5-0.1c-0.3-0.1-0.4-0.3-0.1-0.5l7.6-4.3c0.3-0.2,0.7-0.2,1.1,0
					c0.3,0.1,0.4,0.3,0.1,0.5l-7.6,4.3C61.2,302.1,60.9,302.1,60.7,302.1z"/>
				<path fill="#46547F" d="M83.1,302.1c-0.2,0-0.3,0-0.5-0.1c-0.3-0.1-0.4-0.3-0.1-0.5l7.6-4.3c0.3-0.2,0.7-0.2,1.1,0
					c0.3,0.1,0.4,0.3,0.1,0.5l-7.6,4.3C83.5,302.1,83.3,302.1,83.1,302.1z"/>
				<path fill="#46547F" d="M105.4,302.1c-0.2,0-0.3,0-0.5-0.1c-0.3-0.1-0.4-0.3-0.1-0.5l7.6-4.3c0.3-0.2,0.7-0.2,1.1,0
					c0.3,0.1,0.4,0.3,0.1,0.5L106,302C105.9,302.1,105.6,302.1,105.4,302.1z"/>
				<path fill="#46547F" d="M127.8,302.1c-0.2,0-0.3,0-0.5-0.1c-0.3-0.1-0.4-0.3-0.1-0.5l7.6-4.3c0.3-0.2,0.7-0.2,1.1,0
					c0.3,0.1,0.4,0.3,0.1,0.5l-7.6,4.3C128.2,302.1,128,302.1,127.8,302.1z"/>
				<path fill="#46547F" d="M150.1,302.1c-0.2,0-0.3,0-0.5-0.1c-0.3-0.1-0.4-0.3-0.1-0.5l7.6-4.3c0.3-0.2,0.7-0.2,1.1,0
					c0.3,0.1,0.4,0.3,0.1,0.5l-7.6,4.3C150.6,302.1,150.4,302.1,150.1,302.1z"/>
				<path fill="#46547F" d="M172.5,302.1c-0.2,0-0.3,0-0.5-0.1c-0.3-0.1-0.4-0.3-0.1-0.5l7.6-4.3c0.3-0.2,0.7-0.2,1.1,0
					c0.3,0.1,0.4,0.3,0.1,0.5l-7.6,4.3C172.9,302.1,172.7,302.1,172.5,302.1z"/>
				<path fill="#46547F" d="M194.8,302.1c-0.2,0-0.3,0-0.5-0.1c-0.3-0.1-0.4-0.3-0.1-0.5l7.6-4.3c0.3-0.2,0.7-0.2,1.1,0
					c0.3,0.1,0.4,0.3,0.1,0.5l-7.6,4.3C195.3,302.1,195.1,302.1,194.8,302.1z"/>
				<path fill="#46547F" d="M217.2,302.1c-0.2,0-0.3,0-0.5-0.1c-0.3-0.1-0.4-0.3-0.1-0.5l7.6-4.3c0.3-0.2,0.7-0.2,1.1,0
					c0.3,0.1,0.4,0.3,0.1,0.5l-7.6,4.3C217.6,302.1,217.4,302.1,217.2,302.1z"/>
				<path fill="#46547F" d="M239.5,302.1c-0.2,0-0.3,0-0.5-0.1c-0.3-0.1-0.4-0.3-0.1-0.5l7.6-4.3c0.3-0.2,0.7-0.2,1.1,0
					c0.3,0.1,0.4,0.3,0.1,0.5l-7.6,4.3C240,302.1,239.8,302.1,239.5,302.1z"/>
				<path fill="#46547F" d="M261.9,302.1c-0.2,0-0.3,0-0.5-0.1c-0.3-0.1-0.4-0.3-0.1-0.5l7.6-4.3c0.3-0.2,0.7-0.2,1.1,0
					c0.3,0.1,0.4,0.3,0.1,0.5l-7.6,4.3C262.3,302.1,262.1,302.1,261.9,302.1z"/>
				<path fill="#46547F" d="M284.2,302.1c-0.2,0-0.3,0-0.5-0.1c-0.3-0.1-0.4-0.3-0.1-0.5l7.6-4.3c0.3-0.2,0.7-0.2,1.1,0
					c0.3,0.1,0.4,0.3,0.1,0.5l-7.6,4.3C284.7,302.1,284.5,302.1,284.2,302.1z"/>
				<path fill="#46547F" d="M306.6,302.1c-0.2,0-0.3,0-0.5-0.1c-0.3-0.1-0.4-0.3-0.1-0.5l7.6-4.3c0.3-0.2,0.7-0.2,1.1,0
					c0.3,0.1,0.4,0.3,0.1,0.5l-7.6,4.3C307,302.1,306.8,302.1,306.6,302.1z"/>
				<path fill="#46547F" d="M328.9,302.1c-0.2,0-0.3,0-0.5-0.1c-0.3-0.1-0.4-0.3-0.1-0.5l7.6-4.3c0.3-0.2,0.7-0.2,1.1,0
					c0.3,0.1,0.4,0.3,0.1,0.5l-7.6,4.3C329.4,302.1,329.2,302.1,328.9,302.1z"/>
				<path fill="#46547F" d="M351.3,302.1c-0.2,0-0.3,0-0.5-0.1c-0.3-0.1-0.4-0.3-0.1-0.5l7.6-4.3c0.3-0.2,0.7-0.2,1.1,0
					c0.3,0.1,0.4,0.3,0.1,0.5l-7.6,4.3C351.7,302.1,351.5,302.1,351.3,302.1z"/>
				<path fill="#46547F" d="M373.7,302.1c-0.2,0-0.3,0-0.5-0.1c-0.3-0.1-0.4-0.3-0.1-0.5l7.6-4.3c0.3-0.2,0.7-0.2,1.1,0
					c0.3,0.1,0.4,0.3,0.1,0.5l-7.6,4.3C374.1,302.1,373.9,302.1,373.7,302.1z"/>
				<path fill="#46547F" d="M396,302.1c-0.2,0-0.3,0-0.5-0.1c-0.3-0.1-0.4-0.3-0.1-0.5l7.6-4.3c0.3-0.2,0.7-0.2,1.1,0
					c0.3,0.1,0.4,0.3,0.1,0.5l-7.6,4.3C396.4,302.1,396.2,302.1,396,302.1z"/>
				<path fill="#46547F" d="M418.4,302.1c-0.2,0-0.3,0-0.5-0.1c-0.3-0.1-0.4-0.3-0.1-0.5l7.6-4.3c0.3-0.2,0.7-0.2,1.1,0
					c0.3,0.1,0.4,0.3,0.1,0.5l-7.6,4.3C418.8,302.1,418.6,302.1,418.4,302.1z"/>
				<path fill="#46547F" d="M440.7,302.1c-0.2,0-0.3,0-0.5-0.1c-0.3-0.1-0.4-0.3-0.1-0.5l7.6-4.3c0.3-0.2,0.7-0.2,1.1,0
					c0.3,0.1,0.4,0.3,0.1,0.5l-7.6,4.3C441.1,302.1,440.9,302.1,440.7,302.1z"/>
				<path fill="#46547F" d="M463.1,302.1c-0.2,0-0.3,0-0.5-0.1c-0.3-0.1-0.4-0.3-0.1-0.5l7.6-4.3c0.3-0.2,0.7-0.2,1.1,0
					c0.3,0.1,0.4,0.3,0.1,0.5l-7.6,4.3C463.5,302.1,463.3,302.1,463.1,302.1z"/>
				<path fill="#46547F" d="M485.4,302.1c-0.2,0-0.3,0-0.5-0.1c-0.3-0.1-0.4-0.3-0.1-0.5l7.6-4.3c0.3-0.2,0.7-0.2,1.1,0
					c0.3,0.1,0.4,0.3,0.1,0.5L486,302C485.8,302.1,485.6,302.1,485.4,302.1z"/>
				<path fill="#46547F" d="M507.8,302.1c-0.2,0-0.3,0-0.5-0.1c-0.3-0.1-0.4-0.3-0.1-0.5l7.6-4.3c0.3-0.2,0.7-0.2,1.1,0
					c0.3,0.1,0.4,0.3,0.1,0.5l-7.6,4.3C508.2,302.1,508,302.1,507.8,302.1z"/>
				<path fill="#46547F" d="M530.1,302.1c-0.2,0-0.3,0-0.5-0.1c-0.3-0.1-0.4-0.3-0.1-0.5l7.6-4.3c0.3-0.2,0.7-0.2,1.1,0
					c0.3,0.1,0.4,0.3,0.1,0.5l-7.6,4.3C530.5,302.1,530.3,302.1,530.1,302.1z"/>
				<path fill="#46547F" d="M552.5,302.1c-0.2,0-0.3,0-0.5-0.1c-0.3-0.1-0.4-0.3-0.1-0.5l7.6-4.3c0.3-0.2,0.7-0.2,1.1,0
					c0.3,0.1,0.4,0.3,0.1,0.5L553,302C552.9,302.1,552.7,302.1,552.5,302.1z"/>
				<path fill="#46547F" d="M574.8,302.1c-0.2,0-0.3,0-0.5-0.1c-0.3-0.1-0.4-0.3-0.1-0.5l7.6-4.3c0.3-0.2,0.7-0.2,1.1,0
					c0.3,0.1,0.4,0.3,0.1,0.5l-7.6,4.3C575.2,302.1,575,302.1,574.8,302.1z"/>
				<path fill="#46547F" d="M597.2,302.1c-0.2,0-0.3,0-0.5-0.1c-0.3-0.1-0.4-0.3-0.1-0.5l7.6-4.3c0.3-0.2,0.7-0.2,1.1,0
					c0.3,0.1,0.4,0.3,0.1,0.5l-7.6,4.3C597.6,302.1,597.4,302.1,597.2,302.1z"/>
			</g>
		</g>
		<g opacity="0.51">
			<g>
				<path fill="#46547F" d="M614,306.4l-5.7-3.2c-0.3-0.2-0.7-0.2-1.1,0c-0.3,0.1-0.4,0.3-0.1,0.5l6.8,3.9V306.4z"/>
				<path fill="#46547F" d="M593,308c-0.2,0-0.4,0-0.6-0.1l-7.6-4.3c-0.3-0.1-0.2-0.4,0.1-0.5c0.3-0.1,0.8-0.1,1.1,0l7.6,4.3
					c0.3,0.1,0.2,0.4-0.1,0.5C593.3,308,593.1,308,593,308z"/>
				<path fill="#46547F" d="M570.6,308c-0.2,0-0.4,0-0.6-0.1l-7.6-4.3c-0.3-0.1-0.2-0.4,0.1-0.5c0.3-0.1,0.8-0.1,1.1,0l7.6,4.3
					c0.3,0.1,0.2,0.4-0.1,0.5C571,308,570.8,308,570.6,308z"/>
				<path fill="#46547F" d="M548.3,308c-0.2,0-0.4,0-0.6-0.1l-7.6-4.3c-0.3-0.1-0.2-0.4,0.1-0.5c0.3-0.1,0.8-0.1,1.1,0l7.6,4.3
					c0.3,0.1,0.2,0.4-0.1,0.5C548.6,308,548.4,308,548.3,308z"/>
				<path fill="#46547F" d="M525.9,308c-0.2,0-0.4,0-0.6-0.1l-7.6-4.3c-0.3-0.1-0.2-0.4,0.1-0.5c0.3-0.1,0.8-0.1,1.1,0l7.6,4.3
					c0.3,0.1,0.2,0.4-0.1,0.5C526.3,308,526.1,308,525.9,308z"/>
				<path fill="#46547F" d="M503.6,308c-0.2,0-0.4,0-0.6-0.1l-7.6-4.3c-0.3-0.1-0.2-0.4,0.1-0.5c0.3-0.1,0.8-0.1,1.1,0l7.6,4.3
					c0.3,0.1,0.2,0.4-0.1,0.5C503.9,308,503.7,308,503.6,308z"/>
				<path fill="#46547F" d="M481.2,308c-0.2,0-0.4,0-0.6-0.1l-7.6-4.3c-0.3-0.1-0.2-0.4,0.1-0.5c0.3-0.1,0.8-0.1,1.1,0l7.6,4.3
					c0.3,0.1,0.2,0.4-0.1,0.5C481.6,308,481.4,308,481.2,308z"/>
				<path fill="#46547F" d="M458.9,308c-0.2,0-0.4,0-0.6-0.1l-7.6-4.3c-0.3-0.1-0.2-0.4,0.1-0.5c0.3-0.1,0.8-0.1,1.1,0l7.6,4.3
					c0.3,0.1,0.2,0.4-0.1,0.5C459.2,308,459,308,458.9,308z"/>
				<path fill="#46547F" d="M436.5,308c-0.2,0-0.4,0-0.6-0.1l-7.6-4.3c-0.3-0.1-0.2-0.4,0.1-0.5c0.3-0.1,0.8-0.1,1.1,0l7.6,4.3
					c0.3,0.1,0.2,0.4-0.1,0.5C436.8,308,436.7,308,436.5,308z"/>
				<path fill="#46547F" d="M414.2,308c-0.2,0-0.4,0-0.6-0.1l-7.6-4.3c-0.3-0.1-0.2-0.4,0.1-0.5c0.3-0.1,0.8-0.1,1.1,0l7.6,4.3
					c0.3,0.1,0.2,0.4-0.1,0.5C414.5,308,414.3,308,414.2,308z"/>
				<path fill="#46547F" d="M391.8,308c-0.2,0-0.4,0-0.6-0.1l-7.6-4.3c-0.3-0.1-0.2-0.4,0.1-0.5c0.3-0.1,0.8-0.1,1.1,0l7.6,4.3
					c0.3,0.1,0.2,0.4-0.1,0.5C392.1,308,392,308,391.8,308z"/>
				<path fill="#46547F" d="M369.5,308c-0.2,0-0.4,0-0.6-0.1l-7.6-4.3c-0.3-0.1-0.2-0.4,0.1-0.5c0.3-0.1,0.8-0.1,1.1,0l7.6,4.3
					c0.3,0.1,0.2,0.4-0.1,0.5C369.8,308,369.6,308,369.5,308z"/>
				<path fill="#46547F" d="M347.1,308c-0.2,0-0.4,0-0.6-0.1l-7.6-4.3c-0.3-0.1-0.2-0.4,0.1-0.5c0.3-0.1,0.8-0.1,1.1,0l7.6,4.3
					c0.3,0.1,0.2,0.4-0.1,0.5C347.4,308,347.3,308,347.1,308z"/>
				<path fill="#46547F" d="M324.8,308c-0.2,0-0.4,0-0.6-0.1l-7.6-4.3c-0.3-0.1-0.2-0.4,0.1-0.5c0.3-0.1,0.8-0.1,1.1,0l7.6,4.3
					c0.3,0.1,0.2,0.4-0.1,0.5C325.1,308,324.9,308,324.8,308z"/>
				<path fill="#46547F" d="M302.4,308c-0.2,0-0.4,0-0.6-0.1l-7.6-4.3c-0.3-0.1-0.2-0.4,0.1-0.5c0.3-0.1,0.8-0.1,1.1,0l7.6,4.3
					c0.3,0.1,0.2,0.4-0.1,0.5C302.7,308,302.6,308,302.4,308z"/>
				<path fill="#46547F" d="M280.1,308c-0.2,0-0.4,0-0.6-0.1l-7.6-4.3c-0.3-0.1-0.2-0.4,0.1-0.5c0.3-0.1,0.8-0.1,1.1,0l7.6,4.3
					c0.3,0.1,0.2,0.4-0.1,0.5C280.4,308,280.2,308,280.1,308z"/>
				<path fill="#46547F" d="M257.7,308c-0.2,0-0.4,0-0.6-0.1l-7.6-4.3c-0.3-0.1-0.2-0.4,0.1-0.5c0.3-0.1,0.8-0.1,1.1,0l7.6,4.3
					c0.3,0.1,0.2,0.4-0.1,0.5C258,308,257.9,308,257.7,308z"/>
				<path fill="#46547F" d="M235.3,308c-0.2,0-0.4,0-0.6-0.1l-7.6-4.3c-0.3-0.1-0.2-0.4,0.1-0.5c0.3-0.1,0.8-0.1,1.1,0l7.6,4.3
					c0.3,0.1,0.2,0.4-0.1,0.5C235.7,308,235.5,308,235.3,308z"/>
				<path fill="#46547F" d="M213,308c-0.2,0-0.4,0-0.6-0.1l-7.6-4.3c-0.3-0.1-0.2-0.4,0.1-0.5c0.3-0.1,0.8-0.1,1.1,0l7.6,4.3
					c0.3,0.1,0.2,0.4-0.1,0.5C213.3,308,213.2,308,213,308z"/>
				<path fill="#46547F" d="M190.6,308c-0.2,0-0.4,0-0.6-0.1l-7.6-4.3c-0.3-0.1-0.2-0.4,0.1-0.5c0.3-0.1,0.8-0.1,1.1,0l7.6,4.3
					c0.3,0.1,0.2,0.4-0.1,0.5C191,308,190.8,308,190.6,308z"/>
				<path fill="#46547F" d="M168.3,308c-0.2,0-0.4,0-0.6-0.1l-7.6-4.3c-0.3-0.1-0.2-0.4,0.1-0.5c0.3-0.1,0.8-0.1,1.1,0l7.6,4.3
					c0.3,0.1,0.2,0.4-0.1,0.5C168.6,308,168.5,308,168.3,308z"/>
				<path fill="#46547F" d="M145.9,308c-0.2,0-0.4,0-0.6-0.1l-7.6-4.3c-0.3-0.1-0.2-0.4,0.1-0.5c0.3-0.1,0.8-0.1,1.1,0l7.6,4.3
					c0.3,0.1,0.2,0.4-0.1,0.5C146.3,308,146.1,308,145.9,308z"/>
				<path fill="#46547F" d="M123.6,308c-0.2,0-0.4,0-0.6-0.1l-7.6-4.3c-0.3-0.1-0.2-0.4,0.1-0.5c0.3-0.1,0.8-0.1,1.1,0l7.6,4.3
					c0.3,0.1,0.2,0.4-0.1,0.5C123.9,308,123.8,308,123.6,308z"/>
				<path fill="#46547F" d="M101.2,308c-0.2,0-0.4,0-0.6-0.1l-7.6-4.3c-0.3-0.1-0.2-0.4,0.1-0.5c0.3-0.1,0.8-0.1,1.1,0l7.6,4.3
					c0.3,0.1,0.2,0.4-0.1,0.5C101.6,308,101.4,308,101.2,308z"/>
				<path fill="#46547F" d="M78.9,308c-0.2,0-0.4,0-0.6-0.1l-7.6-4.3c-0.3-0.1-0.2-0.4,0.1-0.5c0.3-0.1,0.8-0.1,1.1,0l7.6,4.3
					c0.3,0.1,0.2,0.4-0.1,0.5C79.2,308,79.1,308,78.9,308z"/>
				<path fill="#46547F" d="M56.5,308c-0.2,0-0.4,0-0.6-0.1l-7.6-4.3c-0.3-0.1-0.2-0.4,0.1-0.5c0.3-0.1,0.8-0.1,1.1,0l7.6,4.3
					c0.3,0.1,0.2,0.4-0.1,0.5C56.9,308,56.7,308,56.5,308z"/>
				<path fill="#46547F" d="M34.2,308c-0.2,0-0.4,0-0.6-0.1l-7.6-4.3c-0.3-0.1-0.2-0.4,0.1-0.5c0.3-0.1,0.8-0.1,1.1,0l7.6,4.3
					c0.3,0.1,0.2,0.4-0.1,0.5C34.5,308,34.4,308,34.2,308z"/>
				<path fill="#46547F" d="M11.8,308c-0.2,0-0.4,0-0.6-0.1l-7.6-4.3c-0.3-0.1-0.2-0.4,0.1-0.5c0.3-0.1,0.8-0.1,1.1,0l7.6,4.3
					c0.3,0.1,0.2,0.4-0.1,0.5C12.2,308,12,308,11.8,308z"/>
			</g>
		</g>
		<g opacity="0.51">
			<g>
				<path fill="#46547F" d="M3.7,307.9c-0.3-0.1-0.8-0.1-1.1,0l-3.7,2.1v1.1l4.8-2.7C4.1,308.3,4,308.1,3.7,307.9z"/>
				<path fill="#46547F" d="M18,312.9c-0.2,0-0.3,0-0.5-0.1c-0.3-0.1-0.4-0.3-0.1-0.5L25,308c0.3-0.2,0.7-0.2,1.1,0
					c0.3,0.1,0.4,0.3,0.1,0.5l-7.6,4.3C18.4,312.8,18.2,312.9,18,312.9z"/>
				<path fill="#46547F" d="M40.4,312.9c-0.2,0-0.3,0-0.5-0.1c-0.3-0.1-0.4-0.3-0.1-0.5l7.6-4.3c0.3-0.2,0.7-0.2,1.1,0
					c0.3,0.1,0.4,0.3,0.1,0.5l-7.6,4.3C40.8,312.8,40.6,312.9,40.4,312.9z"/>
				<path fill="#46547F" d="M62.7,312.9c-0.2,0-0.3,0-0.5-0.1c-0.3-0.1-0.4-0.3-0.1-0.5l7.6-4.3c0.3-0.2,0.7-0.2,1.1,0
					c0.3,0.1,0.4,0.3,0.1,0.5l-7.6,4.3C63.1,312.8,62.9,312.9,62.7,312.9z"/>
				<path fill="#46547F" d="M85.1,312.9c-0.2,0-0.3,0-0.5-0.1c-0.3-0.1-0.4-0.3-0.1-0.5l7.6-4.3c0.3-0.2,0.7-0.2,1.1,0
					c0.3,0.1,0.4,0.3,0.1,0.5l-7.6,4.3C85.5,312.8,85.3,312.9,85.1,312.9z"/>
				<path fill="#46547F" d="M107.4,312.9c-0.2,0-0.3,0-0.5-0.1c-0.3-0.1-0.4-0.3-0.1-0.5l7.6-4.3c0.3-0.2,0.7-0.2,1.1,0
					c0.3,0.1,0.4,0.3,0.1,0.5l-7.6,4.3C107.9,312.8,107.6,312.9,107.4,312.9z"/>
				<path fill="#46547F" d="M129.8,312.9c-0.2,0-0.3,0-0.5-0.1c-0.3-0.1-0.4-0.3-0.1-0.5l7.6-4.3c0.3-0.2,0.7-0.2,1.1,0
					c0.3,0.1,0.4,0.3,0.1,0.5l-7.6,4.3C130.2,312.8,130,312.9,129.8,312.9z"/>
				<path fill="#46547F" d="M152.1,312.9c-0.2,0-0.3,0-0.5-0.1c-0.3-0.1-0.4-0.3-0.1-0.5l7.6-4.3c0.3-0.2,0.7-0.2,1.1,0
					c0.3,0.1,0.4,0.3,0.1,0.5l-7.6,4.3C152.6,312.8,152.3,312.9,152.1,312.9z"/>
				<path fill="#46547F" d="M174.5,312.9c-0.2,0-0.3,0-0.5-0.1c-0.3-0.1-0.4-0.3-0.1-0.5l7.6-4.3c0.3-0.2,0.7-0.2,1.1,0
					c0.3,0.1,0.4,0.3,0.1,0.5l-7.6,4.3C174.9,312.8,174.7,312.9,174.5,312.9z"/>
				<path fill="#46547F" d="M196.8,312.9c-0.2,0-0.3,0-0.5-0.1c-0.3-0.1-0.4-0.3-0.1-0.5l7.6-4.3c0.3-0.2,0.7-0.2,1.1,0
					c0.3,0.1,0.4,0.3,0.1,0.5l-7.6,4.3C197.3,312.8,197,312.9,196.8,312.9z"/>
				<path fill="#46547F" d="M219.2,312.9c-0.2,0-0.3,0-0.5-0.1c-0.3-0.1-0.4-0.3-0.1-0.5l7.6-4.3c0.3-0.2,0.7-0.2,1.1,0
					c0.3,0.1,0.4,0.3,0.1,0.5l-7.6,4.3C219.6,312.8,219.4,312.9,219.2,312.9z"/>
				<path fill="#46547F" d="M241.5,312.9c-0.2,0-0.3,0-0.5-0.1c-0.3-0.1-0.4-0.3-0.1-0.5l7.6-4.3c0.3-0.2,0.7-0.2,1.1,0
					c0.3,0.1,0.4,0.3,0.1,0.5l-7.6,4.3C242,312.8,241.7,312.9,241.5,312.9z"/>
				<path fill="#46547F" d="M263.9,312.9c-0.2,0-0.3,0-0.5-0.1c-0.3-0.1-0.4-0.3-0.1-0.5l7.6-4.3c0.3-0.2,0.7-0.2,1.1,0
					c0.3,0.1,0.4,0.3,0.1,0.5l-7.6,4.3C264.3,312.8,264.1,312.9,263.9,312.9z"/>
				<path fill="#46547F" d="M286.2,312.9c-0.2,0-0.3,0-0.5-0.1c-0.3-0.1-0.4-0.3-0.1-0.5l7.6-4.3c0.3-0.2,0.7-0.2,1.1,0
					c0.3,0.1,0.4,0.3,0.1,0.5l-7.6,4.3C286.7,312.8,286.5,312.9,286.2,312.9z"/>
				<path fill="#46547F" d="M308.6,312.9c-0.2,0-0.3,0-0.5-0.1c-0.3-0.1-0.4-0.3-0.1-0.5l7.6-4.3c0.3-0.1,0.7-0.2,1.1,0
					c0.3,0.1,0.4,0.3,0.1,0.5l-7.6,4.3C309,312.8,308.8,312.9,308.6,312.9z"/>
				<path fill="#46547F" d="M330.9,312.9c-0.2,0-0.3,0-0.5-0.1c-0.3-0.1-0.4-0.3-0.1-0.5l7.6-4.3c0.3-0.1,0.7-0.2,1.1,0
					c0.3,0.1,0.4,0.3,0.1,0.5l-7.6,4.3C331.4,312.8,331.2,312.9,330.9,312.9z"/>
				<path fill="#46547F" d="M353.3,312.9c-0.2,0-0.3,0-0.5-0.1c-0.3-0.1-0.4-0.3-0.1-0.5l7.6-4.3c0.3-0.1,0.7-0.2,1.1,0
					c0.3,0.1,0.4,0.3,0.1,0.5l-7.6,4.3C353.7,312.8,353.5,312.9,353.3,312.9z"/>
				<path fill="#46547F" d="M375.6,312.9c-0.2,0-0.3,0-0.5-0.1c-0.3-0.1-0.4-0.3-0.1-0.5l7.6-4.3c0.3-0.1,0.7-0.2,1.1,0
					c0.3,0.1,0.4,0.3,0.1,0.5l-7.6,4.3C376.1,312.8,375.9,312.9,375.6,312.9z"/>
				<path fill="#46547F" d="M398,312.9c-0.2,0-0.3,0-0.5-0.1c-0.3-0.1-0.4-0.3-0.1-0.5l7.6-4.3c0.3-0.1,0.7-0.2,1.1,0
					c0.3,0.1,0.4,0.3,0.1,0.5l-7.6,4.3C398.4,312.8,398.2,312.9,398,312.9z"/>
				<path fill="#46547F" d="M420.3,312.9c-0.2,0-0.3,0-0.5-0.1c-0.3-0.1-0.4-0.3-0.1-0.5l7.6-4.3c0.3-0.1,0.7-0.2,1.1,0
					c0.3,0.1,0.4,0.3,0.1,0.5l-7.6,4.3C420.8,312.8,420.6,312.9,420.3,312.9z"/>
				<path fill="#46547F" d="M442.7,312.9c-0.2,0-0.3,0-0.5-0.1c-0.3-0.1-0.4-0.3-0.1-0.5l7.6-4.3c0.3-0.1,0.7-0.2,1.1,0
					c0.3,0.1,0.4,0.3,0.1,0.5l-7.6,4.3C443.1,312.8,442.9,312.9,442.7,312.9z"/>
				<path fill="#46547F" d="M465,312.9c-0.2,0-0.3,0-0.5-0.1c-0.3-0.1-0.4-0.3-0.1-0.5l7.6-4.3c0.3-0.1,0.7-0.2,1.1,0
					c0.3,0.1,0.4,0.3,0.1,0.5l-7.6,4.3C465.5,312.8,465.3,312.9,465,312.9z"/>
				<path fill="#46547F" d="M487.4,312.9c-0.2,0-0.3,0-0.5-0.1c-0.3-0.1-0.4-0.3-0.1-0.5l7.6-4.3c0.3-0.1,0.7-0.2,1.1,0
					c0.3,0.1,0.4,0.3,0.1,0.5l-7.6,4.3C487.8,312.8,487.6,312.9,487.4,312.9z"/>
				<path fill="#46547F" d="M509.8,312.9c-0.2,0-0.3,0-0.5-0.1c-0.3-0.1-0.4-0.3-0.1-0.5l7.6-4.3c0.3-0.1,0.7-0.2,1.1,0
					c0.3,0.1,0.4,0.3,0.1,0.5l-7.6,4.3C510.2,312.8,510,312.9,509.8,312.9z"/>
				<path fill="#46547F" d="M532.1,312.9c-0.2,0-0.3,0-0.5-0.1c-0.3-0.1-0.4-0.3-0.1-0.5l7.6-4.3c0.3-0.1,0.7-0.2,1.1,0
					c0.3,0.1,0.4,0.3,0.1,0.5l-7.6,4.3C532.5,312.8,532.3,312.9,532.1,312.9z"/>
				<path fill="#46547F" d="M554.5,312.9c-0.2,0-0.3,0-0.5-0.1c-0.3-0.1-0.4-0.3-0.1-0.5l7.6-4.3c0.3-0.1,0.7-0.2,1.1,0
					c0.3,0.1,0.4,0.3,0.1,0.5l-7.6,4.3C554.9,312.8,554.7,312.9,554.5,312.9z"/>
				<path fill="#46547F" d="M576.8,312.9c-0.2,0-0.3,0-0.5-0.1c-0.3-0.1-0.4-0.3-0.1-0.5l7.6-4.3c0.3-0.1,0.7-0.2,1.1,0
					c0.3,0.1,0.4,0.3,0.1,0.5l-7.6,4.3C577.2,312.8,577,312.9,576.8,312.9z"/>
				<path fill="#46547F" d="M599.2,312.9c-0.2,0-0.3,0-0.5-0.1c-0.3-0.1-0.4-0.3-0.1-0.5l7.6-4.3c0.3-0.1,0.7-0.2,1.1,0
					c0.3,0.1,0.4,0.3,0.1,0.5l-7.6,4.3C599.6,312.8,599.4,312.9,599.2,312.9z"/>
			</g>
		</g>
		<g opacity="0.51">
			<g>
				<path fill="#46547F" d="M614,314.9l-3.7-2.1c-0.3-0.2-0.7-0.2-1.1,0c-0.3,0.1-0.4,0.3-0.1,0.5l4.8,2.8V314.9z"/>
				<path fill="#46547F" d="M595,317.7c-0.2,0-0.4,0-0.6-0.1l-7.6-4.3c-0.3-0.1-0.2-0.4,0.1-0.5c0.3-0.1,0.8-0.1,1.1,0l7.6,4.3
					c0.3,0.1,0.2,0.4-0.1,0.5C595.3,317.7,595.1,317.7,595,317.7z"/>
				<path fill="#46547F" d="M572.6,317.7c-0.2,0-0.4,0-0.6-0.1l-7.6-4.3c-0.3-0.1-0.2-0.4,0.1-0.5c0.3-0.1,0.8-0.1,1.1,0l7.6,4.3
					c0.3,0.1,0.2,0.4-0.1,0.5C572.9,317.7,572.8,317.7,572.6,317.7z"/>
				<path fill="#46547F" d="M550.3,317.7c-0.2,0-0.4,0-0.6-0.1l-7.6-4.3c-0.3-0.1-0.2-0.4,0.1-0.5c0.3-0.1,0.8-0.1,1.1,0l7.6,4.3
					c0.3,0.1,0.2,0.4-0.1,0.5C550.6,317.7,550.4,317.7,550.3,317.7z"/>
				<path fill="#46547F" d="M527.9,317.7c-0.2,0-0.4,0-0.6-0.1l-7.6-4.3c-0.3-0.1-0.2-0.4,0.1-0.5c0.3-0.1,0.8-0.1,1.1,0l7.6,4.3
					c0.3,0.1,0.2,0.4-0.1,0.5C528.2,317.7,528.1,317.7,527.9,317.7z"/>
				<path fill="#46547F" d="M505.6,317.7c-0.2,0-0.4,0-0.6-0.1l-7.6-4.3c-0.3-0.1-0.2-0.4,0.1-0.5c0.3-0.1,0.8-0.1,1.1,0l7.6,4.3
					c0.3,0.1,0.2,0.4-0.1,0.5C505.9,317.7,505.7,317.7,505.6,317.7z"/>
				<path fill="#46547F" d="M483.2,317.7c-0.2,0-0.4,0-0.6-0.1l-7.6-4.3c-0.3-0.1-0.2-0.4,0.1-0.5c0.3-0.1,0.8-0.1,1.1,0l7.6,4.3
					c0.3,0.1,0.2,0.4-0.1,0.5C483.5,317.7,483.4,317.7,483.2,317.7z"/>
				<path fill="#46547F" d="M460.9,317.7c-0.2,0-0.4,0-0.6-0.1l-7.6-4.3c-0.3-0.1-0.2-0.4,0.1-0.5c0.3-0.1,0.8-0.1,1.1,0l7.6,4.3
					c0.3,0.1,0.2,0.4-0.1,0.5C461.2,317.7,461,317.7,460.9,317.7z"/>
				<path fill="#46547F" d="M438.5,317.7c-0.2,0-0.4,0-0.6-0.1l-7.6-4.3c-0.3-0.1-0.2-0.4,0.1-0.5c0.3-0.1,0.8-0.1,1.1,0l7.6,4.3
					c0.3,0.1,0.2,0.4-0.1,0.5C438.8,317.7,438.7,317.7,438.5,317.7z"/>
				<path fill="#46547F" d="M416.2,317.7c-0.2,0-0.4,0-0.6-0.1l-7.6-4.3c-0.3-0.1-0.2-0.4,0.1-0.5c0.3-0.1,0.8-0.1,1.1,0l7.6,4.3
					c0.3,0.1,0.2,0.4-0.1,0.5C416.5,317.7,416.3,317.7,416.2,317.7z"/>
				<path fill="#46547F" d="M393.8,317.7c-0.2,0-0.4,0-0.6-0.1l-7.6-4.3c-0.3-0.1-0.2-0.4,0.1-0.5c0.3-0.1,0.8-0.1,1.1,0l7.6,4.3
					c0.3,0.1,0.2,0.4-0.1,0.5C394.1,317.7,394,317.7,393.8,317.7z"/>
				<path fill="#46547F" d="M371.4,317.7c-0.2,0-0.4,0-0.6-0.1l-7.6-4.3c-0.3-0.1-0.2-0.4,0.1-0.5c0.3-0.1,0.8-0.1,1.1,0l7.6,4.3
					c0.3,0.1,0.2,0.4-0.1,0.5C371.8,317.7,371.6,317.7,371.4,317.7z"/>
				<path fill="#46547F" d="M349.1,317.7c-0.2,0-0.4,0-0.6-0.1l-7.6-4.3c-0.3-0.1-0.2-0.4,0.1-0.5c0.3-0.1,0.8-0.1,1.1,0l7.6,4.3
					c0.3,0.1,0.2,0.4-0.1,0.5C349.4,317.7,349.3,317.7,349.1,317.7z"/>
				<path fill="#46547F" d="M326.7,317.7c-0.2,0-0.4,0-0.6-0.1l-7.6-4.3c-0.3-0.1-0.2-0.4,0.1-0.5c0.3-0.1,0.8-0.1,1.1,0l7.6,4.3
					c0.3,0.1,0.2,0.4-0.1,0.5C327.1,317.7,326.9,317.7,326.7,317.7z"/>
				<path fill="#46547F" d="M304.4,317.7c-0.2,0-0.4,0-0.6-0.1l-7.6-4.3c-0.3-0.1-0.2-0.4,0.1-0.5c0.3-0.1,0.8-0.1,1.1,0l7.6,4.3
					c0.3,0.1,0.2,0.4-0.1,0.5C304.7,317.7,304.6,317.7,304.4,317.7z"/>
				<path fill="#46547F" d="M282,317.7c-0.2,0-0.4,0-0.6-0.1l-7.6-4.3c-0.3-0.1-0.2-0.4,0.1-0.5c0.3-0.1,0.8-0.1,1.1,0l7.6,4.3
					c0.3,0.1,0.2,0.4-0.1,0.5C282.4,317.7,282.2,317.7,282,317.7z"/>
				<path fill="#46547F" d="M259.7,317.7c-0.2,0-0.4,0-0.6-0.1l-7.6-4.3c-0.3-0.1-0.2-0.4,0.1-0.5c0.3-0.1,0.8-0.1,1.1,0l7.6,4.3
					c0.3,0.1,0.2,0.4-0.1,0.5C260,317.7,259.9,317.7,259.7,317.7z"/>
				<path fill="#46547F" d="M237.3,317.7c-0.2,0-0.4,0-0.6-0.1l-7.6-4.3c-0.3-0.1-0.2-0.4,0.1-0.5c0.3-0.1,0.8-0.1,1.1,0l7.6,4.3
					c0.3,0.1,0.2,0.4-0.1,0.5C237.7,317.7,237.5,317.7,237.3,317.7z"/>
				<path fill="#46547F" d="M215,317.7c-0.2,0-0.4,0-0.6-0.1l-7.6-4.3c-0.3-0.1-0.2-0.4,0.1-0.5c0.3-0.1,0.8-0.1,1.1,0l7.6,4.3
					c0.3,0.1,0.2,0.4-0.1,0.5C215.3,317.7,215.2,317.7,215,317.7z"/>
				<path fill="#46547F" d="M192.6,317.7c-0.2,0-0.4,0-0.6-0.1l-7.6-4.3c-0.3-0.1-0.2-0.4,0.1-0.5c0.3-0.1,0.8-0.1,1.1,0l7.6,4.3
					c0.3,0.1,0.2,0.4-0.1,0.5C193,317.7,192.8,317.7,192.6,317.7z"/>
				<path fill="#46547F" d="M170.3,317.7c-0.2,0-0.4,0-0.6-0.1l-7.6-4.3c-0.3-0.1-0.2-0.4,0.1-0.5c0.3-0.1,0.8-0.1,1.1,0l7.6,4.3
					c0.3,0.1,0.2,0.4-0.1,0.5C170.6,317.7,170.5,317.7,170.3,317.7z"/>
				<path fill="#46547F" d="M147.9,317.7c-0.2,0-0.4,0-0.6-0.1l-7.6-4.3c-0.3-0.1-0.2-0.4,0.1-0.5c0.3-0.1,0.8-0.1,1.1,0l7.6,4.3
					c0.3,0.1,0.2,0.4-0.1,0.5C148.3,317.7,148.1,317.7,147.9,317.7z"/>
				<path fill="#46547F" d="M125.6,317.7c-0.2,0-0.4,0-0.6-0.1l-7.6-4.3c-0.3-0.1-0.2-0.4,0.1-0.5c0.3-0.1,0.8-0.1,1.1,0l7.6,4.3
					c0.3,0.1,0.2,0.4-0.1,0.5C125.9,317.7,125.7,317.7,125.6,317.7z"/>
				<path fill="#46547F" d="M103.2,317.7c-0.2,0-0.4,0-0.6-0.1l-7.6-4.3c-0.3-0.1-0.2-0.4,0.1-0.5c0.3-0.1,0.8-0.1,1.1,0l7.6,4.3
					c0.3,0.1,0.2,0.4-0.1,0.5C103.6,317.7,103.4,317.7,103.2,317.7z"/>
				<path fill="#46547F" d="M80.9,317.7c-0.2,0-0.4,0-0.6-0.1l-7.6-4.3c-0.3-0.1-0.2-0.4,0.1-0.5c0.3-0.1,0.8-0.1,1.1,0l7.6,4.3
					c0.3,0.1,0.2,0.4-0.1,0.5C81.2,317.7,81,317.7,80.9,317.7z"/>
				<path fill="#46547F" d="M58.5,317.7c-0.2,0-0.4,0-0.6-0.1l-7.6-4.3c-0.3-0.1-0.2-0.4,0.1-0.5c0.3-0.1,0.8-0.1,1.1,0l7.6,4.3
					c0.3,0.1,0.2,0.4-0.1,0.5C58.9,317.7,58.7,317.7,58.5,317.7z"/>
				<path fill="#46547F" d="M36.2,317.7c-0.2,0-0.4,0-0.6-0.1l-7.6-4.3c-0.3-0.1-0.2-0.4,0.1-0.5c0.3-0.1,0.8-0.1,1.1,0l7.6,4.3
					c0.3,0.1,0.2,0.4-0.1,0.5C36.5,317.7,36.3,317.7,36.2,317.7z"/>
				<path fill="#46547F" d="M13.8,317.7c-0.2,0-0.4,0-0.6-0.1l-7.6-4.3c-0.3-0.1-0.2-0.4,0.1-0.5c0.3-0.1,0.8-0.1,1.1,0l7.6,4.3
					c0.3,0.1,0.2,0.4-0.1,0.5C14.2,317.7,14,317.7,13.8,317.7z"/>
			</g>
		</g>
	</g>
	<g>
		<g opacity="0.51">
			<g>
				<path fill="#46547F" d="M3.9,276.1c-0.2,0-0.3,0-0.5-0.1c-0.3-0.1-0.4-0.3-0.1-0.4l7.6-3.6c0.3-0.1,0.7-0.1,1.1,0
					c0.3,0.1,0.4,0.3,0.1,0.4L4.5,276C4.3,276,4.1,276.1,3.9,276.1z"/>
				<path fill="#46547F" d="M26.2,276.1c-0.2,0-0.3,0-0.5-0.1c-0.3-0.1-0.4-0.3-0.1-0.4l7.6-3.6c0.3-0.1,0.7-0.1,1.1,0
					c0.3,0.1,0.4,0.3,0.1,0.4l-7.6,3.6C26.7,276,26.5,276.1,26.2,276.1z"/>
				<path fill="#46547F" d="M48.6,276.1c-0.2,0-0.3,0-0.5-0.1c-0.3-0.1-0.4-0.3-0.1-0.4l7.6-3.6c0.3-0.1,0.7-0.1,1.1,0
					c0.3,0.1,0.4,0.3,0.1,0.4l-7.6,3.6C49,276,48.8,276.1,48.6,276.1z"/>
				<path fill="#46547F" d="M70.9,276.1c-0.2,0-0.3,0-0.5-0.1c-0.3-0.1-0.4-0.3-0.1-0.4l7.6-3.6c0.3-0.1,0.7-0.1,1.1,0
					c0.3,0.1,0.4,0.3,0.1,0.4l-7.6,3.6C71.4,276,71.2,276.1,70.9,276.1z"/>
				<path fill="#46547F" d="M93.3,276.1c-0.2,0-0.3,0-0.5-0.1c-0.3-0.1-0.4-0.3-0.1-0.4l7.6-3.6c0.3-0.1,0.7-0.1,1.1,0
					c0.3,0.1,0.4,0.3,0.1,0.4l-7.6,3.6C93.7,276,93.5,276.1,93.3,276.1z"/>
				<path fill="#46547F" d="M115.6,276.1c-0.2,0-0.3,0-0.5-0.1c-0.3-0.1-0.4-0.3-0.1-0.4l7.6-3.6c0.3-0.1,0.7-0.1,1.1,0
					c0.3,0.1,0.4,0.3,0.1,0.4l-7.6,3.6C116.1,276,115.9,276.1,115.6,276.1z"/>
				<path fill="#46547F" d="M138,276.1c-0.2,0-0.3,0-0.5-0.1c-0.3-0.1-0.4-0.3-0.1-0.4l7.6-3.6c0.3-0.1,0.7-0.1,1.1,0
					c0.3,0.1,0.4,0.3,0.1,0.4l-7.6,3.6C138.4,276,138.2,276.1,138,276.1z"/>
				<path fill="#46547F" d="M160.3,276.1c-0.2,0-0.3,0-0.5-0.1c-0.3-0.1-0.4-0.3-0.1-0.4l7.6-3.6c0.3-0.1,0.7-0.1,1.1,0
					c0.3,0.1,0.4,0.3,0.1,0.4l-7.6,3.6C160.8,276,160.6,276.1,160.3,276.1z"/>
				<path fill="#46547F" d="M182.7,276.1c-0.2,0-0.3,0-0.5-0.1c-0.3-0.1-0.4-0.3-0.1-0.4l7.6-3.6c0.3-0.1,0.7-0.1,1.1,0
					c0.3,0.1,0.4,0.3,0.1,0.4l-7.6,3.6C183.1,276,182.9,276.1,182.7,276.1z"/>
				<path fill="#46547F" d="M205,276.1c-0.2,0-0.3,0-0.5-0.1c-0.3-0.1-0.4-0.3-0.1-0.4l7.6-3.6c0.3-0.1,0.7-0.1,1.1,0
					c0.3,0.1,0.4,0.3,0.1,0.4l-7.6,3.6C205.5,276,205.3,276.1,205,276.1z"/>
				<path fill="#46547F" d="M227.4,276.1c-0.2,0-0.3,0-0.5-0.1c-0.3-0.1-0.4-0.3-0.1-0.4l7.6-3.6c0.3-0.1,0.7-0.1,1.1,0
					c0.3,0.1,0.4,0.3,0.1,0.4L228,276C227.8,276,227.6,276.1,227.4,276.1z"/>
				<path fill="#46547F" d="M249.8,276.1c-0.2,0-0.3,0-0.5-0.1c-0.3-0.1-0.4-0.3-0.1-0.4l7.6-3.6c0.3-0.1,0.7-0.1,1.1,0
					c0.3,0.1,0.4,0.3,0.1,0.4l-7.6,3.6C250.2,276,250,276.1,249.8,276.1z"/>
				<path fill="#46547F" d="M272.1,276.1c-0.2,0-0.3,0-0.5-0.1c-0.3-0.1-0.4-0.3-0.1-0.4l7.6-3.6c0.3-0.1,0.7-0.1,1.1,0
					c0.3,0.1,0.4,0.3,0.1,0.4l-7.6,3.6C272.5,276,272.3,276.1,272.1,276.1z"/>
				<path fill="#46547F" d="M294.5,276.1c-0.2,0-0.3,0-0.5-0.1c-0.3-0.1-0.4-0.3-0.1-0.4l7.6-3.6c0.3-0.1,0.7-0.1,1.1,0
					c0.3,0.1,0.4,0.3,0.1,0.4L295,276C294.9,276,294.7,276.1,294.5,276.1z"/>
				<path fill="#46547F" d="M316.8,276.1c-0.2,0-0.3,0-0.5-0.1c-0.3-0.1-0.4-0.3-0.1-0.4l7.6-3.6c0.3-0.1,0.7-0.1,1.1,0
					c0.3,0.1,0.4,0.3,0.1,0.4l-7.6,3.6C317.2,276,317,276.1,316.8,276.1z"/>
				<path fill="#46547F" d="M339.2,276.1c-0.2,0-0.3,0-0.5-0.1c-0.3-0.1-0.4-0.3-0.1-0.4l7.6-3.6c0.3-0.1,0.7-0.1,1.1,0
					c0.3,0.1,0.4,0.3,0.1,0.4l-7.6,3.6C339.6,276,339.4,276.1,339.2,276.1z"/>
				<path fill="#46547F" d="M361.5,276.1c-0.2,0-0.3,0-0.5-0.1c-0.3-0.1-0.4-0.3-0.1-0.4l7.6-3.6c0.3-0.1,0.7-0.1,1.1,0
					c0.3,0.1,0.4,0.3,0.1,0.4l-7.6,3.6C361.9,276,361.7,276.1,361.5,276.1z"/>
				<path fill="#46547F" d="M383.9,276.1c-0.2,0-0.3,0-0.5-0.1c-0.3-0.1-0.4-0.3-0.1-0.4l7.6-3.6c0.3-0.1,0.7-0.1,1.1,0
					c0.3,0.1,0.4,0.3,0.1,0.4l-7.6,3.6C384.3,276,384.1,276.1,383.9,276.1z"/>
				<path fill="#46547F" d="M406.2,276.1c-0.2,0-0.3,0-0.5-0.1c-0.3-0.1-0.4-0.3-0.1-0.4l7.6-3.6c0.3-0.1,0.7-0.1,1.1,0
					c0.3,0.1,0.4,0.3,0.1,0.4l-7.6,3.6C406.6,276,406.4,276.1,406.2,276.1z"/>
				<path fill="#46547F" d="M428.6,276.1c-0.2,0-0.3,0-0.5-0.1c-0.3-0.1-0.4-0.3-0.1-0.4l7.6-3.6c0.3-0.1,0.7-0.1,1.1,0
					c0.3,0.1,0.4,0.3,0.1,0.4l-7.6,3.6C429,276,428.8,276.1,428.6,276.1z"/>
				<path fill="#46547F" d="M450.9,276.1c-0.2,0-0.3,0-0.5-0.1c-0.3-0.1-0.4-0.3-0.1-0.4l7.6-3.6c0.3-0.1,0.7-0.1,1.1,0
					c0.3,0.1,0.4,0.3,0.1,0.4l-7.6,3.6C451.3,276,451.1,276.1,450.9,276.1z"/>
				<path fill="#46547F" d="M473.3,276.1c-0.2,0-0.3,0-0.5-0.1c-0.3-0.1-0.4-0.3-0.1-0.4l7.6-3.6c0.3-0.1,0.7-0.1,1.1,0
					c0.3,0.1,0.4,0.3,0.1,0.4l-7.6,3.6C473.7,276,473.5,276.1,473.3,276.1z"/>
				<path fill="#46547F" d="M495.6,276.1c-0.2,0-0.3,0-0.5-0.1c-0.3-0.1-0.4-0.3-0.1-0.4l7.6-3.6c0.3-0.1,0.7-0.1,1.1,0
					c0.3,0.1,0.4,0.3,0.1,0.4l-7.6,3.6C496,276,495.8,276.1,495.6,276.1z"/>
				<path fill="#46547F" d="M518,276.1c-0.2,0-0.3,0-0.5-0.1c-0.3-0.1-0.4-0.3-0.1-0.4l7.6-3.6c0.3-0.1,0.7-0.1,1.1,0
					c0.3,0.1,0.4,0.3,0.1,0.4l-7.6,3.6C518.4,276,518.2,276.1,518,276.1z"/>
				<path fill="#46547F" d="M540.3,276.1c-0.2,0-0.3,0-0.5-0.1c-0.3-0.1-0.4-0.3-0.1-0.4l7.6-3.6c0.3-0.1,0.7-0.1,1.1,0
					c0.3,0.1,0.4,0.3,0.1,0.4l-7.6,3.6C540.7,276,540.5,276.1,540.3,276.1z"/>
				<path fill="#46547F" d="M562.7,276.1c-0.2,0-0.3,0-0.5-0.1c-0.3-0.1-0.4-0.3-0.1-0.4l7.6-3.6c0.3-0.1,0.7-0.1,1.1,0
					c0.3,0.1,0.4,0.3,0.1,0.4l-7.6,3.6C563.1,276,562.9,276.1,562.7,276.1z"/>
				<path fill="#46547F" d="M585,276.1c-0.2,0-0.3,0-0.5-0.1c-0.3-0.1-0.4-0.3-0.1-0.4l7.6-3.6c0.3-0.1,0.7-0.1,1.1,0
					c0.3,0.1,0.4,0.3,0.1,0.4l-7.6,3.6C585.5,276,585.2,276.1,585,276.1z"/>
				<path fill="#46547F" d="M614,272.1l-7.2,3.4c-0.3,0.1-0.2,0.3,0.1,0.4c0.1,0,0.3,0.1,0.5,0.1c0.2,0,0.4,0,0.6-0.1l6.1-2.9V272.1
					z"/>
			</g>
		</g>
		<g opacity="0.51">
			<g>
				<path fill="#46547F" d="M603.2,281c-0.2,0-0.4,0-0.6-0.1l-7.6-3.6c-0.3-0.1-0.2-0.3,0.1-0.4c0.3-0.1,0.8-0.1,1.1,0l7.6,3.6
					c0.3,0.1,0.2,0.3-0.1,0.4C603.5,281,603.3,281,603.2,281z"/>
				<path fill="#46547F" d="M580.8,281c-0.2,0-0.4,0-0.6-0.1l-7.6-3.6c-0.3-0.1-0.2-0.3,0.1-0.4c0.3-0.1,0.8-0.1,1.1,0l7.6,3.6
					c0.3,0.1,0.2,0.3-0.1,0.4C581.2,281,581,281,580.8,281z"/>
				<path fill="#46547F" d="M558.5,281c-0.2,0-0.4,0-0.6-0.1l-7.6-3.6c-0.3-0.1-0.2-0.3,0.1-0.4c0.3-0.1,0.8-0.1,1.1,0l7.6,3.6
					c0.3,0.1,0.2,0.3-0.1,0.4C558.8,281,558.6,281,558.5,281z"/>
				<path fill="#46547F" d="M536.1,281c-0.2,0-0.4,0-0.6-0.1l-7.6-3.6c-0.3-0.1-0.2-0.3,0.1-0.4c0.3-0.1,0.8-0.1,1.1,0l7.6,3.6
					c0.3,0.1,0.2,0.3-0.1,0.4C536.5,281,536.3,281,536.1,281z"/>
				<path fill="#46547F" d="M513.8,281c-0.2,0-0.4,0-0.6-0.1l-7.6-3.6c-0.3-0.1-0.2-0.3,0.1-0.4c0.3-0.1,0.8-0.1,1.1,0l7.6,3.6
					c0.3,0.1,0.2,0.3-0.1,0.4C514.1,281,513.9,281,513.8,281z"/>
				<path fill="#46547F" d="M491.4,281c-0.2,0-0.4,0-0.6-0.1l-7.6-3.6c-0.3-0.1-0.2-0.3,0.1-0.4c0.3-0.1,0.8-0.1,1.1,0l7.6,3.6
					c0.3,0.1,0.2,0.3-0.1,0.4C491.8,281,491.6,281,491.4,281z"/>
				<path fill="#46547F" d="M469.1,281c-0.2,0-0.4,0-0.6-0.1l-7.6-3.6c-0.3-0.1-0.2-0.3,0.1-0.4c0.3-0.1,0.8-0.1,1.1,0l7.6,3.6
					c0.3,0.1,0.2,0.3-0.1,0.4C469.4,281,469.2,281,469.1,281z"/>
				<path fill="#46547F" d="M446.7,281c-0.2,0-0.4,0-0.6-0.1l-7.6-3.6c-0.3-0.1-0.2-0.3,0.1-0.4c0.3-0.1,0.8-0.1,1.1,0l7.6,3.6
					c0.3,0.1,0.2,0.3-0.1,0.4C447.1,281,446.9,281,446.7,281z"/>
				<path fill="#46547F" d="M424.4,281c-0.2,0-0.4,0-0.6-0.1l-7.6-3.6c-0.3-0.1-0.2-0.3,0.1-0.4c0.3-0.1,0.8-0.1,1.1,0l7.6,3.6
					c0.3,0.1,0.2,0.3-0.1,0.4C424.7,281,424.5,281,424.4,281z"/>
				<path fill="#46547F" d="M402,281c-0.2,0-0.4,0-0.6-0.1l-7.6-3.6c-0.3-0.1-0.2-0.3,0.1-0.4c0.3-0.1,0.8-0.1,1.1,0l7.6,3.6
					c0.3,0.1,0.2,0.3-0.1,0.4C402.4,281,402.2,281,402,281z"/>
				<path fill="#46547F" d="M379.7,281c-0.2,0-0.4,0-0.6-0.1l-7.6-3.6c-0.3-0.1-0.2-0.3,0.1-0.4c0.3-0.1,0.8-0.1,1.1,0l7.6,3.6
					c0.3,0.1,0.2,0.3-0.1,0.4C380,281,379.8,281,379.7,281z"/>
				<path fill="#46547F" d="M357.3,281c-0.2,0-0.4,0-0.6-0.1l-7.6-3.6c-0.3-0.1-0.2-0.3,0.1-0.4c0.3-0.1,0.8-0.1,1.1,0l7.6,3.6
					c0.3,0.1,0.2,0.3-0.1,0.4C357.7,281,357.5,281,357.3,281z"/>
				<path fill="#46547F" d="M335,281c-0.2,0-0.4,0-0.6-0.1l-7.6-3.6c-0.3-0.1-0.2-0.3,0.1-0.4c0.3-0.1,0.8-0.1,1.1,0l7.6,3.6
					c0.3,0.1,0.2,0.3-0.1,0.4C335.3,281,335.1,281,335,281z"/>
				<path fill="#46547F" d="M312.6,281c-0.2,0-0.4,0-0.6-0.1l-7.6-3.6c-0.3-0.1-0.2-0.3,0.1-0.4c0.3-0.1,0.8-0.1,1.1,0l7.6,3.6
					c0.3,0.1,0.2,0.3-0.1,0.4C312.9,281,312.8,281,312.6,281z"/>
				<path fill="#46547F" d="M290.3,281c-0.2,0-0.4,0-0.6-0.1l-7.6-3.6c-0.3-0.1-0.2-0.3,0.1-0.4c0.3-0.1,0.8-0.1,1.1,0l7.6,3.6
					c0.3,0.1,0.2,0.3-0.1,0.4C290.6,281,290.4,281,290.3,281z"/>
				<path fill="#46547F" d="M267.9,281c-0.2,0-0.4,0-0.6-0.1l-7.6-3.6c-0.3-0.1-0.2-0.3,0.1-0.4c0.3-0.1,0.8-0.1,1.1,0l7.6,3.6
					c0.3,0.1,0.2,0.3-0.1,0.4C268.2,281,268.1,281,267.9,281z"/>
				<path fill="#46547F" d="M245.6,281c-0.2,0-0.4,0-0.6-0.1l-7.6-3.6c-0.3-0.1-0.2-0.3,0.1-0.4c0.3-0.1,0.8-0.1,1.1,0l7.6,3.6
					c0.3,0.1,0.2,0.3-0.1,0.4C245.9,281,245.7,281,245.6,281z"/>
				<path fill="#46547F" d="M223.2,281c-0.2,0-0.4,0-0.6-0.1l-7.6-3.6c-0.3-0.1-0.2-0.3,0.1-0.4c0.3-0.1,0.8-0.1,1.1,0l7.6,3.6
					c0.3,0.1,0.2,0.3-0.1,0.4C223.5,281,223.4,281,223.2,281z"/>
				<path fill="#46547F" d="M200.9,281c-0.2,0-0.4,0-0.6-0.1l-7.6-3.6c-0.3-0.1-0.2-0.3,0.1-0.4c0.3-0.1,0.8-0.1,1.1,0l7.6,3.6
					c0.3,0.1,0.2,0.3-0.1,0.4C201.2,281,201,281,200.9,281z"/>
				<path fill="#46547F" d="M178.5,281c-0.2,0-0.4,0-0.6-0.1l-7.6-3.6c-0.3-0.1-0.2-0.3,0.1-0.4c0.3-0.1,0.8-0.1,1.1,0l7.6,3.6
					c0.3,0.1,0.2,0.3-0.1,0.4C178.8,281,178.7,281,178.5,281z"/>
				<path fill="#46547F" d="M156.2,281c-0.2,0-0.4,0-0.6-0.1l-7.6-3.6c-0.3-0.1-0.2-0.3,0.1-0.4c0.3-0.1,0.8-0.1,1.1,0l7.6,3.6
					c0.3,0.1,0.2,0.3-0.1,0.4C156.5,281,156.3,281,156.2,281z"/>
				<path fill="#46547F" d="M133.8,281c-0.2,0-0.4,0-0.6-0.1l-7.6-3.6c-0.3-0.1-0.2-0.3,0.1-0.4c0.3-0.1,0.8-0.1,1.1,0l7.6,3.6
					c0.3,0.1,0.2,0.3-0.1,0.4C134.1,281,134,281,133.8,281z"/>
				<path fill="#46547F" d="M111.4,281c-0.2,0-0.4,0-0.6-0.1l-7.6-3.6c-0.3-0.1-0.2-0.3,0.1-0.4c0.3-0.1,0.8-0.1,1.1,0l7.6,3.6
					c0.3,0.1,0.2,0.3-0.1,0.4C111.8,281,111.6,281,111.4,281z"/>
				<path fill="#46547F" d="M89.1,281c-0.2,0-0.4,0-0.6-0.1l-7.6-3.6c-0.3-0.1-0.2-0.3,0.1-0.4c0.3-0.1,0.8-0.1,1.1,0l7.6,3.6
					c0.3,0.1,0.2,0.3-0.1,0.4C89.4,281,89.3,281,89.1,281z"/>
				<path fill="#46547F" d="M66.7,281c-0.2,0-0.4,0-0.6-0.1l-7.6-3.6c-0.3-0.1-0.2-0.3,0.1-0.4c0.3-0.1,0.8-0.1,1.1,0l7.6,3.6
					c0.3,0.1,0.2,0.3-0.1,0.4C67.1,281,66.9,281,66.7,281z"/>
				<path fill="#46547F" d="M44.4,281c-0.2,0-0.4,0-0.6-0.1l-7.6-3.6c-0.3-0.1-0.2-0.3,0.1-0.4c0.3-0.1,0.8-0.1,1.1,0l7.6,3.6
					c0.3,0.1,0.2,0.3-0.1,0.4C44.7,281,44.6,281,44.4,281z"/>
				<path fill="#46547F" d="M22,281c-0.2,0-0.4,0-0.6-0.1l-7.6-3.6c-0.3-0.1-0.2-0.3,0.1-0.4c0.3-0.1,0.8-0.1,1.1,0l7.6,3.6
					c0.3,0.1,0.2,0.3-0.1,0.4C22.4,281,22.2,281,22,281z"/>
			</g>
		</g>
		<g opacity="0.51">
			<g>
				<path fill="#46547F" d="M5.9,285.1c-0.2,0-0.3,0-0.5-0.1c-0.3-0.1-0.4-0.3-0.1-0.4l7.6-3.6c0.3-0.1,0.7-0.1,1.1,0
					c0.3,0.1,0.4,0.3,0.1,0.4L6.5,285C6.3,285,6.1,285.1,5.9,285.1z"/>
				<path fill="#46547F" d="M28.2,285.1c-0.2,0-0.3,0-0.5-0.1c-0.3-0.1-0.4-0.3-0.1-0.4l7.6-3.6c0.3-0.1,0.7-0.1,1.1,0
					c0.3,0.1,0.4,0.3,0.1,0.4l-7.6,3.6C28.7,285,28.4,285.1,28.2,285.1z"/>
				<path fill="#46547F" d="M50.6,285.1c-0.2,0-0.3,0-0.5-0.1c-0.3-0.1-0.4-0.3-0.1-0.4l7.6-3.6c0.3-0.1,0.7-0.1,1.1,0
					c0.3,0.1,0.4,0.3,0.1,0.4l-7.6,3.6C51,285,50.8,285.1,50.6,285.1z"/>
				<path fill="#46547F" d="M72.9,285.1c-0.2,0-0.3,0-0.5-0.1c-0.3-0.1-0.4-0.3-0.1-0.4l7.6-3.6c0.3-0.1,0.7-0.1,1.1,0
					c0.3,0.1,0.4,0.3,0.1,0.4l-7.6,3.6C73.4,285,73.1,285.1,72.9,285.1z"/>
				<path fill="#46547F" d="M95.3,285.1c-0.2,0-0.3,0-0.5-0.1c-0.3-0.1-0.4-0.3-0.1-0.4l7.6-3.6c0.3-0.1,0.7-0.1,1.1,0
					c0.3,0.1,0.4,0.3,0.1,0.4l-7.6,3.6C95.7,285,95.5,285.1,95.3,285.1z"/>
				<path fill="#46547F" d="M117.6,285.1c-0.2,0-0.3,0-0.5-0.1c-0.3-0.1-0.4-0.3-0.1-0.4l7.6-3.6c0.3-0.1,0.7-0.1,1.1,0
					c0.3,0.1,0.4,0.3,0.1,0.4l-7.6,3.6C118.1,285,117.8,285.1,117.6,285.1z"/>
				<path fill="#46547F" d="M140,285.1c-0.2,0-0.3,0-0.5-0.1c-0.3-0.1-0.4-0.3-0.1-0.4l7.6-3.6c0.3-0.1,0.7-0.1,1.1,0
					c0.3,0.1,0.4,0.3,0.1,0.4l-7.6,3.6C140.4,285,140.2,285.1,140,285.1z"/>
				<path fill="#46547F" d="M162.3,285.1c-0.2,0-0.3,0-0.5-0.1c-0.3-0.1-0.4-0.3-0.1-0.4l7.6-3.6c0.3-0.1,0.7-0.1,1.1,0
					c0.3,0.1,0.4,0.3,0.1,0.4l-7.6,3.6C162.8,285,162.5,285.1,162.3,285.1z"/>
				<path fill="#46547F" d="M184.7,285.1c-0.2,0-0.3,0-0.5-0.1c-0.3-0.1-0.4-0.3-0.1-0.4l7.6-3.6c0.3-0.1,0.7-0.1,1.1,0
					c0.3,0.1,0.4,0.3,0.1,0.4l-7.6,3.6C185.1,285,184.9,285.1,184.7,285.1z"/>
				<path fill="#46547F" d="M207,285.1c-0.2,0-0.3,0-0.5-0.1c-0.3-0.1-0.4-0.3-0.1-0.4l7.6-3.6c0.3-0.1,0.7-0.1,1.1,0
					c0.3,0.1,0.4,0.3,0.1,0.4l-7.6,3.6C207.5,285,207.3,285.1,207,285.1z"/>
				<path fill="#46547F" d="M229.4,285.1c-0.2,0-0.3,0-0.5-0.1c-0.3-0.1-0.4-0.3-0.1-0.4l7.6-3.6c0.3-0.1,0.7-0.1,1.1,0
					c0.3,0.1,0.4,0.3,0.1,0.4L230,285C229.8,285,229.6,285.1,229.4,285.1z"/>
				<path fill="#46547F" d="M251.7,285.1c-0.2,0-0.3,0-0.5-0.1c-0.3-0.1-0.4-0.3-0.1-0.4l7.6-3.6c0.3-0.1,0.7-0.1,1.1,0
					c0.3,0.1,0.4,0.3,0.1,0.4l-7.6,3.6C252.2,285,252,285.1,251.7,285.1z"/>
				<path fill="#46547F" d="M274.1,285.1c-0.2,0-0.3,0-0.5-0.1c-0.3-0.1-0.4-0.3-0.1-0.4l7.6-3.6c0.3-0.1,0.7-0.1,1.1,0
					c0.3,0.1,0.4,0.3,0.1,0.4l-7.6,3.6C274.5,285,274.3,285.1,274.1,285.1z"/>
				<path fill="#46547F" d="M296.4,285.1c-0.2,0-0.3,0-0.5-0.1c-0.3-0.1-0.4-0.3-0.1-0.4l7.6-3.6c0.3-0.1,0.7-0.1,1.1,0
					c0.3,0.1,0.4,0.3,0.1,0.4L297,285C296.9,285,296.7,285.1,296.4,285.1z"/>
				<path fill="#46547F" d="M318.8,285.1c-0.2,0-0.3,0-0.5-0.1c-0.3-0.1-0.4-0.3-0.1-0.4l7.6-3.6c0.3-0.1,0.7-0.1,1.1,0
					c0.3,0.1,0.4,0.3,0.1,0.4l-7.6,3.6C319.2,285,319,285.1,318.8,285.1z"/>
				<path fill="#46547F" d="M341.1,285.1c-0.2,0-0.3,0-0.5-0.1c-0.3-0.1-0.4-0.3-0.1-0.4l7.6-3.6c0.3-0.1,0.7-0.1,1.1,0
					c0.3,0.1,0.4,0.3,0.1,0.4l-7.6,3.6C341.6,285,341.4,285.1,341.1,285.1z"/>
				<path fill="#46547F" d="M363.5,285.1c-0.2,0-0.3,0-0.5-0.1c-0.3-0.1-0.4-0.3-0.1-0.4l7.6-3.6c0.3-0.1,0.7-0.1,1.1,0
					c0.3,0.1,0.4,0.3,0.1,0.4l-7.6,3.6C363.9,285,363.7,285.1,363.5,285.1z"/>
				<path fill="#46547F" d="M385.8,285.1c-0.2,0-0.3,0-0.5-0.1c-0.3-0.1-0.4-0.3-0.1-0.4l7.6-3.6c0.3-0.1,0.7-0.1,1.1,0
					c0.3,0.1,0.4,0.3,0.1,0.4l-7.6,3.6C386.3,285,386.1,285.1,385.8,285.1z"/>
				<path fill="#46547F" d="M408.2,285.1c-0.2,0-0.3,0-0.5-0.1c-0.3-0.1-0.4-0.3-0.1-0.4l7.6-3.6c0.3-0.1,0.7-0.1,1.1,0
					c0.3,0.1,0.4,0.3,0.1,0.4l-7.6,3.6C408.6,285,408.4,285.1,408.2,285.1z"/>
				<path fill="#46547F" d="M430.6,285.1c-0.2,0-0.3,0-0.5-0.1c-0.3-0.1-0.4-0.3-0.1-0.4l7.6-3.6c0.3-0.1,0.7-0.1,1.1,0
					c0.3,0.1,0.4,0.3,0.1,0.4l-7.6,3.6C431,285,430.8,285.1,430.6,285.1z"/>
				<path fill="#46547F" d="M452.9,285.1c-0.2,0-0.3,0-0.5-0.1c-0.3-0.1-0.4-0.3-0.1-0.4l7.6-3.6c0.3-0.1,0.7-0.1,1.1,0
					c0.3,0.1,0.4,0.3,0.1,0.4l-7.6,3.6C453.3,285,453.1,285.1,452.9,285.1z"/>
				<path fill="#46547F" d="M475.3,285.1c-0.2,0-0.3,0-0.5-0.1c-0.3-0.1-0.4-0.3-0.1-0.4l7.6-3.6c0.3-0.1,0.7-0.1,1.1,0
					c0.3,0.1,0.4,0.3,0.1,0.4l-7.6,3.6C475.7,285,475.5,285.1,475.3,285.1z"/>
				<path fill="#46547F" d="M497.6,285.1c-0.2,0-0.3,0-0.5-0.1c-0.3-0.1-0.4-0.3-0.1-0.4l7.6-3.6c0.3-0.1,0.7-0.1,1.1,0
					c0.3,0.1,0.4,0.3,0.1,0.4l-7.6,3.6C498,285,497.8,285.1,497.6,285.1z"/>
				<path fill="#46547F" d="M520,285.1c-0.2,0-0.3,0-0.5-0.1c-0.3-0.1-0.4-0.3-0.1-0.4l7.6-3.6c0.3-0.1,0.7-0.1,1.1,0
					c0.3,0.1,0.4,0.3,0.1,0.4l-7.6,3.6C520.4,285,520.2,285.1,520,285.1z"/>
				<path fill="#46547F" d="M542.3,285.1c-0.2,0-0.3,0-0.5-0.1c-0.3-0.1-0.4-0.3-0.1-0.4l7.6-3.6c0.3-0.1,0.7-0.1,1.1,0
					c0.3,0.1,0.4,0.3,0.1,0.4l-7.6,3.6C542.7,285,542.5,285.1,542.3,285.1z"/>
				<path fill="#46547F" d="M564.7,285.1c-0.2,0-0.3,0-0.5-0.1c-0.3-0.1-0.4-0.3-0.1-0.4l7.6-3.6c0.3-0.1,0.7-0.1,1.1,0
					c0.3,0.1,0.4,0.3,0.1,0.4l-7.6,3.6C565.1,285,564.9,285.1,564.7,285.1z"/>
				<path fill="#46547F" d="M587,285.1c-0.2,0-0.3,0-0.5-0.1c-0.3-0.1-0.4-0.3-0.1-0.4l7.6-3.6c0.3-0.1,0.7-0.1,1.1,0
					c0.3,0.1,0.4,0.3,0.1,0.4l-7.6,3.6C587.4,285,587.2,285.1,587,285.1z"/>
				<path fill="#46547F" d="M614,282.1l-5.2,2.5c-0.3,0.1-0.2,0.3,0.1,0.4c0.1,0,0.3,0.1,0.5,0.1c0.2,0,0.4,0,0.6-0.1l4.1-1.9V282.1
					z"/>
			</g>
		</g>
		<g opacity="0.51">
			<g>
				<path fill="#46547F" d="M6.1,294.1c-0.2,0-0.3,0-0.5-0.1c-0.3-0.1-0.4-0.3-0.1-0.4l7.6-3.6c0.3-0.1,0.7-0.1,1.1,0
					c0.3,0.1,0.4,0.3,0.1,0.4L6.7,294C6.6,294,6.3,294.1,6.1,294.1z"/>
				<path fill="#46547F" d="M28.5,294.1c-0.2,0-0.3,0-0.5-0.1c-0.3-0.1-0.4-0.3-0.1-0.4l7.6-3.6c0.3-0.1,0.7-0.1,1.1,0
					c0.3,0.1,0.4,0.3,0.1,0.4l-7.6,3.6C28.9,294,28.7,294.1,28.5,294.1z"/>
				<path fill="#46547F" d="M50.8,294.1c-0.2,0-0.3,0-0.5-0.1c-0.3-0.1-0.4-0.3-0.1-0.4l7.6-3.6c0.3-0.1,0.7-0.1,1.1,0
					c0.3,0.1,0.4,0.3,0.1,0.4l-7.6,3.6C51.3,294,51,294.1,50.8,294.1z"/>
				<path fill="#46547F" d="M73.2,294.1c-0.2,0-0.3,0-0.5-0.1c-0.3-0.1-0.4-0.3-0.1-0.4l7.6-3.6c0.3-0.1,0.7-0.1,1.1,0
					c0.3,0.1,0.4,0.3,0.1,0.4l-7.6,3.6C73.6,294,73.4,294.1,73.2,294.1z"/>
				<path fill="#46547F" d="M95.5,294.1c-0.2,0-0.3,0-0.5-0.1c-0.3-0.1-0.4-0.3-0.1-0.4l7.6-3.6c0.3-0.1,0.7-0.1,1.1,0
					c0.3,0.1,0.4,0.3,0.1,0.4l-7.6,3.6C96,294,95.7,294.1,95.5,294.1z"/>
				<path fill="#46547F" d="M117.9,294.1c-0.2,0-0.3,0-0.5-0.1c-0.3-0.1-0.4-0.3-0.1-0.4l7.6-3.6c0.3-0.1,0.7-0.1,1.1,0
					c0.3,0.1,0.4,0.3,0.1,0.4l-7.6,3.6C118.3,294,118.1,294.1,117.9,294.1z"/>
				<path fill="#46547F" d="M140.2,294.1c-0.2,0-0.3,0-0.5-0.1c-0.3-0.1-0.4-0.3-0.1-0.4l7.6-3.6c0.3-0.1,0.7-0.1,1.1,0
					c0.3,0.1,0.4,0.3,0.1,0.4l-7.6,3.6C140.7,294,140.4,294.1,140.2,294.1z"/>
				<path fill="#46547F" d="M162.6,294.1c-0.2,0-0.3,0-0.5-0.1c-0.3-0.1-0.4-0.3-0.1-0.4l7.6-3.6c0.3-0.1,0.7-0.1,1.1,0
					c0.3,0.1,0.4,0.3,0.1,0.4l-7.6,3.6C163,294,162.8,294.1,162.6,294.1z"/>
				<path fill="#46547F" d="M184.9,294.1c-0.2,0-0.3,0-0.5-0.1c-0.3-0.1-0.4-0.3-0.1-0.4l7.6-3.6c0.3-0.1,0.7-0.1,1.1,0
					c0.3,0.1,0.4,0.3,0.1,0.4l-7.6,3.6C185.4,294,185.2,294.1,184.9,294.1z"/>
				<path fill="#46547F" d="M207.3,294.1c-0.2,0-0.3,0-0.5-0.1c-0.3-0.1-0.4-0.3-0.1-0.4l7.6-3.6c0.3-0.1,0.7-0.1,1.1,0
					c0.3,0.1,0.4,0.3,0.1,0.4l-7.6,3.6C207.7,294,207.5,294.1,207.3,294.1z"/>
				<path fill="#46547F" d="M229.6,294.1c-0.2,0-0.3,0-0.5-0.1c-0.3-0.1-0.4-0.3-0.1-0.4l7.6-3.6c0.3-0.1,0.7-0.1,1.1,0
					c0.3,0.1,0.4,0.3,0.1,0.4l-7.6,3.6C230.1,294,229.9,294.1,229.6,294.1z"/>
				<path fill="#46547F" d="M252,294.1c-0.2,0-0.3,0-0.5-0.1c-0.3-0.1-0.4-0.3-0.1-0.4l7.6-3.6c0.3-0.1,0.7-0.1,1.1,0
					c0.3,0.1,0.4,0.3,0.1,0.4l-7.6,3.6C252.4,294,252.2,294.1,252,294.1z"/>
				<path fill="#46547F" d="M274.3,294.1c-0.2,0-0.3,0-0.5-0.1c-0.3-0.1-0.4-0.3-0.1-0.4l7.6-3.6c0.3-0.1,0.7-0.1,1.1,0
					c0.3,0.1,0.4,0.3,0.1,0.4l-7.6,3.6C274.8,294,274.6,294.1,274.3,294.1z"/>
				<path fill="#46547F" d="M296.7,294.1c-0.2,0-0.3,0-0.5-0.1c-0.3-0.1-0.4-0.3-0.1-0.4l7.6-3.6c0.3-0.1,0.7-0.1,1.1,0
					c0.3,0.1,0.4,0.3,0.1,0.4l-7.6,3.6C297.1,294,296.9,294.1,296.7,294.1z"/>
				<path fill="#46547F" d="M319,294.1c-0.2,0-0.3,0-0.5-0.1c-0.3-0.1-0.4-0.3-0.1-0.4l7.6-3.6c0.3-0.1,0.7-0.1,1.1,0
					c0.3,0.1,0.4,0.3,0.1,0.4l-7.6,3.6C319.5,294,319.3,294.1,319,294.1z"/>
				<path fill="#46547F" d="M341.4,294.1c-0.2,0-0.3,0-0.5-0.1c-0.3-0.1-0.4-0.3-0.1-0.4l7.6-3.6c0.3-0.1,0.7-0.1,1.1,0
					c0.3,0.1,0.4,0.3,0.1,0.4L342,294C341.8,294,341.6,294.1,341.4,294.1z"/>
				<path fill="#46547F" d="M363.7,294.1c-0.2,0-0.3,0-0.5-0.1c-0.3-0.1-0.4-0.3-0.1-0.4l7.6-3.6c0.3-0.1,0.7-0.1,1.1,0
					c0.3,0.1,0.4,0.3,0.1,0.4l-7.6,3.6C364.2,294,364,294.1,363.7,294.1z"/>
				<path fill="#46547F" d="M386.1,294.1c-0.2,0-0.3,0-0.5-0.1c-0.3-0.1-0.4-0.3-0.1-0.4l7.6-3.6c0.3-0.1,0.7-0.1,1.1,0
					c0.3,0.1,0.4,0.3,0.1,0.4l-7.6,3.6C386.5,294,386.3,294.1,386.1,294.1z"/>
				<path fill="#46547F" d="M408.5,294.1c-0.2,0-0.3,0-0.5-0.1c-0.3-0.1-0.4-0.3-0.1-0.4l7.6-3.6c0.3-0.1,0.7-0.1,1.1,0
					c0.3,0.1,0.4,0.3,0.1,0.4L409,294C408.9,294,408.7,294.1,408.5,294.1z"/>
				<path fill="#46547F" d="M430.8,294.1c-0.2,0-0.3,0-0.5-0.1c-0.3-0.1-0.4-0.3-0.1-0.4l7.6-3.6c0.3-0.1,0.7-0.1,1.1,0
					c0.3,0.1,0.4,0.3,0.1,0.4l-7.6,3.6C431.2,294,431,294.1,430.8,294.1z"/>
				<path fill="#46547F" d="M453.2,294.1c-0.2,0-0.3,0-0.5-0.1c-0.3-0.1-0.4-0.3-0.1-0.4l7.6-3.6c0.3-0.1,0.7-0.1,1.1,0
					c0.3,0.1,0.4,0.3,0.1,0.4l-7.6,3.6C453.6,294,453.4,294.1,453.2,294.1z"/>
				<path fill="#46547F" d="M475.5,294.1c-0.2,0-0.3,0-0.5-0.1c-0.3-0.1-0.4-0.3-0.1-0.4l7.6-3.6c0.3-0.1,0.7-0.1,1.1,0
					c0.3,0.1,0.4,0.3,0.1,0.4l-7.6,3.6C475.9,294,475.7,294.1,475.5,294.1z"/>
				<path fill="#46547F" d="M497.9,294.1c-0.2,0-0.3,0-0.5-0.1c-0.3-0.1-0.4-0.3-0.1-0.4l7.6-3.6c0.3-0.1,0.7-0.1,1.1,0
					c0.3,0.1,0.4,0.3,0.1,0.4l-7.6,3.6C498.3,294,498.1,294.1,497.9,294.1z"/>
				<path fill="#46547F" d="M520.2,294.1c-0.2,0-0.3,0-0.5-0.1c-0.3-0.1-0.4-0.3-0.1-0.4l7.6-3.6c0.3-0.1,0.7-0.1,1.1,0
					c0.3,0.1,0.4,0.3,0.1,0.4l-7.6,3.6C520.6,294,520.4,294.1,520.2,294.1z"/>
				<path fill="#46547F" d="M542.6,294.1c-0.2,0-0.3,0-0.5-0.1c-0.3-0.1-0.4-0.3-0.1-0.4l7.6-3.6c0.3-0.1,0.7-0.1,1.1,0
					c0.3,0.1,0.4,0.3,0.1,0.4l-7.6,3.6C543,294,542.8,294.1,542.6,294.1z"/>
				<path fill="#46547F" d="M564.9,294.1c-0.2,0-0.3,0-0.5-0.1c-0.3-0.1-0.4-0.3-0.1-0.4l7.6-3.6c0.3-0.1,0.7-0.1,1.1,0
					c0.3,0.1,0.4,0.3,0.1,0.4l-7.6,3.6C565.3,294,565.1,294.1,564.9,294.1z"/>
				<path fill="#46547F" d="M587.3,294.1c-0.2,0-0.3,0-0.5-0.1c-0.3-0.1-0.4-0.3-0.1-0.4l7.6-3.6c0.3-0.1,0.7-0.1,1.1,0
					c0.3,0.1,0.4,0.3,0.1,0.4l-7.6,3.6C587.7,294,587.5,294.1,587.3,294.1z"/>
				<path fill="#46547F" d="M614,291.2l-5,2.4c-0.3,0.1-0.2,0.3,0.1,0.4c0.1,0,0.3,0.1,0.5,0.1c0.2,0,0.4,0,0.6-0.1l3.8-1.8V291.2z"
					/>
			</g>
		</g>
		<g opacity="0.51">
			<g>
				<path fill="#46547F" d="M605.2,289.1c-0.2,0-0.4,0-0.6-0.1l-7.6-3.6c-0.3-0.1-0.2-0.3,0.1-0.4c0.3-0.1,0.8-0.1,1.1,0l7.6,3.6
					c0.3,0.1,0.2,0.3-0.1,0.4C605.5,289.1,605.3,289.1,605.2,289.1z"/>
				<path fill="#46547F" d="M582.8,289.1c-0.2,0-0.4,0-0.6-0.1l-7.6-3.6c-0.3-0.1-0.2-0.3,0.1-0.4c0.3-0.1,0.8-0.1,1.1,0l7.6,3.6
					c0.3,0.1,0.2,0.3-0.1,0.4C583.2,289.1,583,289.1,582.8,289.1z"/>
				<path fill="#46547F" d="M560.5,289.1c-0.2,0-0.4,0-0.6-0.1l-7.6-3.6c-0.3-0.1-0.2-0.3,0.1-0.4c0.3-0.1,0.8-0.1,1.1,0l7.6,3.6
					c0.3,0.1,0.2,0.3-0.1,0.4C560.8,289.1,560.6,289.1,560.5,289.1z"/>
				<path fill="#46547F" d="M538.1,289.1c-0.2,0-0.4,0-0.6-0.1l-7.6-3.6c-0.3-0.1-0.2-0.3,0.1-0.4c0.3-0.1,0.8-0.1,1.1,0l7.6,3.6
					c0.3,0.1,0.2,0.3-0.1,0.4C538.5,289.1,538.3,289.1,538.1,289.1z"/>
				<path fill="#46547F" d="M515.8,289.1c-0.2,0-0.4,0-0.6-0.1l-7.6-3.6c-0.3-0.1-0.2-0.3,0.1-0.4c0.3-0.1,0.8-0.1,1.1,0l7.6,3.6
					c0.3,0.1,0.2,0.3-0.1,0.4C516.1,289.1,515.9,289.1,515.8,289.1z"/>
				<path fill="#46547F" d="M493.4,289.1c-0.2,0-0.4,0-0.6-0.1l-7.6-3.6c-0.3-0.1-0.2-0.3,0.1-0.4c0.3-0.1,0.8-0.1,1.1,0l7.6,3.6
					c0.3,0.1,0.2,0.3-0.1,0.4C493.7,289.1,493.6,289.1,493.4,289.1z"/>
				<path fill="#46547F" d="M471.1,289.1c-0.2,0-0.4,0-0.6-0.1l-7.6-3.6c-0.3-0.1-0.2-0.3,0.1-0.4c0.3-0.1,0.8-0.1,1.1,0l7.6,3.6
					c0.3,0.1,0.2,0.3-0.1,0.4C471.4,289.1,471.2,289.1,471.1,289.1z"/>
				<path fill="#46547F" d="M448.7,289.1c-0.2,0-0.4,0-0.6-0.1l-7.6-3.6c-0.3-0.1-0.2-0.3,0.1-0.4c0.3-0.1,0.8-0.1,1.1,0l7.6,3.6
					c0.3,0.1,0.2,0.3-0.1,0.4C449,289.1,448.9,289.1,448.7,289.1z"/>
				<path fill="#46547F" d="M426.4,289.1c-0.2,0-0.4,0-0.6-0.1l-7.6-3.6c-0.3-0.1-0.2-0.3,0.1-0.4c0.3-0.1,0.8-0.1,1.1,0l7.6,3.6
					c0.3,0.1,0.2,0.3-0.1,0.4C426.7,289.1,426.5,289.1,426.4,289.1z"/>
				<path fill="#46547F" d="M404,289.1c-0.2,0-0.4,0-0.6-0.1l-7.6-3.6c-0.3-0.1-0.2-0.3,0.1-0.4c0.3-0.1,0.8-0.1,1.1,0l7.6,3.6
					c0.3,0.1,0.2,0.3-0.1,0.4C404.3,289.1,404.2,289.1,404,289.1z"/>
				<path fill="#46547F" d="M381.7,289.1c-0.2,0-0.4,0-0.6-0.1l-7.6-3.6c-0.3-0.1-0.2-0.3,0.1-0.4c0.3-0.1,0.8-0.1,1.1,0l7.6,3.6
					c0.3,0.1,0.2,0.3-0.1,0.4C382,289.1,381.8,289.1,381.7,289.1z"/>
				<path fill="#46547F" d="M359.3,289.1c-0.2,0-0.4,0-0.6-0.1l-7.6-3.6c-0.3-0.1-0.2-0.3,0.1-0.4c0.3-0.1,0.8-0.1,1.1,0l7.6,3.6
					c0.3,0.1,0.2,0.3-0.1,0.4C359.6,289.1,359.5,289.1,359.3,289.1z"/>
				<path fill="#46547F" d="M337,289.1c-0.2,0-0.4,0-0.6-0.1l-7.6-3.6c-0.3-0.1-0.2-0.3,0.1-0.4c0.3-0.1,0.8-0.1,1.1,0l7.6,3.6
					c0.3,0.1,0.2,0.3-0.1,0.4C337.3,289.1,337.1,289.1,337,289.1z"/>
				<path fill="#46547F" d="M314.6,289.1c-0.2,0-0.4,0-0.6-0.1l-7.6-3.6c-0.3-0.1-0.2-0.3,0.1-0.4c0.3-0.1,0.8-0.1,1.1,0l7.6,3.6
					c0.3,0.1,0.2,0.3-0.1,0.4C314.9,289.1,314.8,289.1,314.6,289.1z"/>
				<path fill="#46547F" d="M292.2,289.1c-0.2,0-0.4,0-0.6-0.1l-7.6-3.6c-0.3-0.1-0.2-0.3,0.1-0.4c0.3-0.1,0.8-0.1,1.1,0l7.6,3.6
					c0.3,0.1,0.2,0.3-0.1,0.4C292.6,289.1,292.4,289.1,292.2,289.1z"/>
				<path fill="#46547F" d="M269.9,289.1c-0.2,0-0.4,0-0.6-0.1l-7.6-3.6c-0.3-0.1-0.2-0.3,0.1-0.4c0.3-0.1,0.8-0.1,1.1,0l7.6,3.6
					c0.3,0.1,0.2,0.3-0.1,0.4C270.2,289.1,270.1,289.1,269.9,289.1z"/>
				<path fill="#46547F" d="M247.5,289.1c-0.2,0-0.4,0-0.6-0.1l-7.6-3.6c-0.3-0.1-0.2-0.3,0.1-0.4c0.3-0.1,0.8-0.1,1.1,0l7.6,3.6
					c0.3,0.1,0.2,0.3-0.1,0.4C247.9,289.1,247.7,289.1,247.5,289.1z"/>
				<path fill="#46547F" d="M225.2,289.1c-0.2,0-0.4,0-0.6-0.1l-7.6-3.6c-0.3-0.1-0.2-0.3,0.1-0.4c0.3-0.1,0.8-0.1,1.1,0l7.6,3.6
					c0.3,0.1,0.2,0.3-0.1,0.4C225.5,289.1,225.4,289.1,225.2,289.1z"/>
				<path fill="#46547F" d="M202.8,289.1c-0.2,0-0.4,0-0.6-0.1l-7.6-3.6c-0.3-0.1-0.2-0.3,0.1-0.4c0.3-0.1,0.8-0.1,1.1,0l7.6,3.6
					c0.3,0.1,0.2,0.3-0.1,0.4C203.2,289.1,203,289.1,202.8,289.1z"/>
				<path fill="#46547F" d="M180.5,289.1c-0.2,0-0.4,0-0.6-0.1l-7.6-3.6c-0.3-0.1-0.2-0.3,0.1-0.4c0.3-0.1,0.8-0.1,1.1,0l7.6,3.6
					c0.3,0.1,0.2,0.3-0.1,0.4C180.8,289.1,180.7,289.1,180.5,289.1z"/>
				<path fill="#46547F" d="M158.1,289.1c-0.2,0-0.4,0-0.6-0.1l-7.6-3.6c-0.3-0.1-0.2-0.3,0.1-0.4c0.3-0.1,0.8-0.1,1.1,0l7.6,3.6
					c0.3,0.1,0.2,0.3-0.1,0.4C158.5,289.1,158.3,289.1,158.1,289.1z"/>
				<path fill="#46547F" d="M135.8,289.1c-0.2,0-0.4,0-0.6-0.1l-7.6-3.6c-0.3-0.1-0.2-0.3,0.1-0.4c0.3-0.1,0.8-0.1,1.1,0l7.6,3.6
					c0.3,0.1,0.2,0.3-0.1,0.4C136.1,289.1,136,289.1,135.8,289.1z"/>
				<path fill="#46547F" d="M113.4,289.1c-0.2,0-0.4,0-0.6-0.1l-7.6-3.6c-0.3-0.1-0.2-0.3,0.1-0.4c0.3-0.1,0.8-0.1,1.1,0l7.6,3.6
					c0.3,0.1,0.2,0.3-0.1,0.4C113.8,289.1,113.6,289.1,113.4,289.1z"/>
				<path fill="#46547F" d="M91.1,289.1c-0.2,0-0.4,0-0.6-0.1l-7.6-3.6c-0.3-0.1-0.2-0.3,0.1-0.4c0.3-0.1,0.8-0.1,1.1,0l7.6,3.6
					c0.3,0.1,0.2,0.3-0.1,0.4C91.4,289.1,91.3,289.1,91.1,289.1z"/>
				<path fill="#46547F" d="M68.7,289.1c-0.2,0-0.4,0-0.6-0.1l-7.6-3.6c-0.3-0.1-0.2-0.3,0.1-0.4c0.3-0.1,0.8-0.1,1.1,0l7.6,3.6
					c0.3,0.1,0.2,0.3-0.1,0.4C69.1,289.1,68.9,289.1,68.7,289.1z"/>
				<path fill="#46547F" d="M46.4,289.1c-0.2,0-0.4,0-0.6-0.1l-7.6-3.6c-0.3-0.1-0.2-0.3,0.1-0.4c0.3-0.1,0.8-0.1,1.1,0l7.6,3.6
					c0.3,0.1,0.2,0.3-0.1,0.4C46.7,289.1,46.6,289.1,46.4,289.1z"/>
				<path fill="#46547F" d="M24,289.1c-0.2,0-0.4,0-0.6-0.1l-7.6-3.6c-0.3-0.1-0.2-0.3,0.1-0.4c0.3-0.1,0.8-0.1,1.1,0l7.6,3.6
					c0.3,0.1,0.2,0.3-0.1,0.4C24.4,289.1,24.2,289.1,24,289.1z"/>
				<path fill="#46547F" d="M2.3,288.6l-3.3-1.6v0.9l2.1,1c0.1,0.1,0.4,0.1,0.6,0.1c0.2,0,0.3,0,0.5-0.1
					C2.5,288.9,2.5,288.8,2.3,288.6z"/>
			</g>
		</g>
	</g>
	<defs>
		<filter id="Adobe_OpacityMaskFilter" filterUnits="userSpaceOnUse" x="-205.5" y="-96" width="1024" height="512">
			<feFlood  style="flood-color:white;flood-opacity:1" result="back"/>
			<feBlend  in="SourceGraphic" in2="back" mode="normal"/>
		</filter>
	</defs>
	<mask maskUnits="userSpaceOnUse" x="-205.5" y="-96" width="1024" height="512" id="SVGID_1_">
		<g filter="url(#Adobe_OpacityMaskFilter)">
			<defs>
				
					<filter id="Adobe_OpacityMaskFilter_00000050645330148443166410000001282690318573742511_" filterUnits="userSpaceOnUse" x="-806.9" y="-133.9" width="2332.3" height="561.3">
					<feFlood  style="flood-color:white;flood-opacity:1" result="back"/>
					<feBlend  in="SourceGraphic" in2="back" mode="normal"/>
				</filter>
			</defs>
			<mask maskUnits="userSpaceOnUse" x="-806.9" y="-133.9" width="2332.3" height="561.3" id="SVGID_1_">
				<g filter="url(#Adobe_OpacityMaskFilter_00000050645330148443166410000001282690318573742511_)">
				</g>
			</mask>
			
				<linearGradient id="SVGID_00000115473925319060068020000002277162729493266349_" gradientUnits="userSpaceOnUse" x1="-3806.5044" y1="-2604.509" x2="-3806.5044" y2="-2043.2054" gradientTransform="matrix(-1 0 0 1 -3447.238 2470.5884)">
				<stop  offset="0.3568" style="stop-color:#FFFFFF"/>
				<stop  offset="1" style="stop-color:#000000"/>
			</linearGradient>
			
				<rect x="-806.9" y="-133.9" mask="url(#SVGID_1_)" fill="url(#SVGID_00000115473925319060068020000002277162729493266349_)" width="2332.3" height="561.3"/>
		</g>
	</mask>
	<g opacity="0.45">
		
			<linearGradient id="SVGID_00000004509709114722215630000005600236063412566154_" gradientUnits="userSpaceOnUse" x1="-3753.738" y1="-2604.509" x2="-3753.738" y2="-2043.2035" gradientTransform="matrix(-1 0 0 1 -3447.238 2470.5884)">
			<stop  offset="0.3568" style="stop-color:#FF610D"/>
			<stop  offset="1" style="stop-color:#691823"/>
		</linearGradient>
		<rect x="-205.5" y="-96" fill="url(#SVGID_00000004509709114722215630000005600236063412566154_)" width="1024" height="512"/>
	</g>
	<g>
		<path fill="#4D4E6E" d="M402.9,144.5h-9.7c-0.9,0-1.6-0.7-1.6-1.6c0-0.9,0.7-1.6,1.6-1.6h9.7c0.9,0,1.6,0.7,1.6,1.6
			C404.5,143.8,403.8,144.5,402.9,144.5z"/>
		<g>
			<path fill="#FFEB9C" d="M399.8,147.8h-61.2c-1.2,0-2.2,1-2.2,2.2v2c0,1.2,1,2.2,2.2,2.2h61.2c1.2,0,2.2-1,2.2-2.2v-2
				C401.9,148.8,401,147.8,399.8,147.8z"/>
			<rect x="397.5" y="144.5" fill="#242542" width="2.1" height="3.3"/>
		</g>
	</g>
	<g>
		<path fill="#4D4E6E" d="M220.5,144.6h9.7c0.9,0,1.6-0.7,1.6-1.6c0-0.9-0.7-1.6-1.6-1.6h-9.7c-0.9,0-1.6,0.7-1.6,1.6
			C218.9,143.9,219.6,144.6,220.5,144.6z"/>
		<g>
			<path fill="#FFEB9C" d="M223.6,147.9h61.2c1.2,0,2.2,1,2.2,2.2v2c0,1.2-1,2.2-2.2,2.2h-61.2c-1.2,0-2.2-1-2.2-2.2v-2
				C221.5,148.8,222.4,147.9,223.6,147.9z"/>
			
				<rect x="223.8" y="144.6" transform="matrix(-1 -1.224647e-16 1.224647e-16 -1 449.7492 292.452)" fill="#242542" width="2.1" height="3.3"/>
		</g>
	</g>
	<rect x="291" y="147.7" fill="#FFEB9C" width="41.4" height="148.7"/>
	<path fill="#FFC973" d="M275.1,143.3c0.3,6.3,5.5,11.4,11.9,11.4h49.6c6.3,0,11.5-5.1,11.9-11.4H275.1z"/>
	<path fill="#F99943" d="M319.6,283.8h-16.9V173.9c0-2.9,2.4-5.3,5.3-5.3h6.3c2.9,0,5.3,2.4,5.3,5.3V283.8z"/>
	<rect x="308" y="168.6" fill="#000543" width="6.1" height="57.1"/>
	<path fill="#262F6D" d="M317.3,283.8h-12V222c0-1.8,1.5-3.3,3.3-3.3h5.3c1.8,0,3.3,1.5,3.3,3.3V283.8z"/>
	<g>
		<path fill="#D3442D" d="M415.1,283.9h-54.7v-80.4h55.2c1.1,0,2,0.9,2,2.1v75.7C417.6,282.7,416.5,283.9,415.1,283.9z"/>
		<path fill="#EA5C3C" d="M396.4,283.9h-52.8c-1.2,0-2.2-1-2.2-2.3v-75.8c0-1.3,1-2.3,2.2-2.3h52.8c1.2,0,2.2,1,2.2,2.3v75.8
			C398.7,282.9,397.7,283.9,396.4,283.9z"/>
		<path fill="#262F6D" d="M346.4,283.9C346.4,283.9,346.4,283.9,346.4,283.9c0,3.3,2,6,4.5,6c2.5,0,4.5-2.6,4.5-5.9c0,0,0,0,0-0.1
			H346.4z"/>
		<path fill="#262F6D" d="M365.3,283.9C365.3,283.9,365.3,283.9,365.3,283.9c0,3.3,2,6,4.5,6c2.5,0,4.5-2.6,4.5-5.9c0,0,0,0,0-0.1
			H365.3z"/>
		<path fill="#262F6D" d="M388.1,283.9C388.1,283.9,388.1,283.9,388.1,283.9c0,3.3,2,6,4.5,6c2.5,0,4.5-2.6,4.5-5.9c0,0,0,0,0-0.1
			H388.1z"/>
		<path fill="#262F6D" d="M405.9,283.9C405.9,283.9,405.9,283.9,405.9,283.9c0,3.3,2,6,4.5,6c2.5,0,4.5-2.6,4.5-5.9c0,0,0,0,0-0.1
			H405.9z"/>
		<g>
			<rect x="341.6" y="211.7" fill="#D3442D" width="63.5" height="1"/>
			<rect x="341.5" y="220.6" fill="#D3442D" width="63.5" height="1"/>
			<rect x="341.5" y="229.5" fill="#D3442D" width="63.5" height="1"/>
			<rect x="341.4" y="238.4" fill="#D3442D" width="63.5" height="1"/>
			<rect x="341.4" y="247.3" fill="#D3442D" width="63.5" height="1"/>
			<rect x="341.3" y="256.2" fill="#D3442D" width="63.5" height="1"/>
			<rect x="341.3" y="265.1" fill="#D3442D" width="63.5" height="1"/>
			<rect x="341.2" y="274" fill="#D3442D" width="63.5" height="1"/>
		</g>
	</g>
	<g>
		<g>
			<path fill="#FFEB9C" d="M449.8,271.9h-23.3c-0.7,0-1.3-0.6-1.3-1.3v-32.1c0-0.7,0.6-1.3,1.3-1.3h23.3c0.7,0,1.3,0.6,1.3,1.3v32.1
				C451.2,271.3,450.6,271.9,449.8,271.9z"/>
			<path fill="#FFC973" d="M449.9,270.6c-0.2,0-0.3-0.1-0.4-0.2l-22.7-30.9c-0.2-0.2-0.1-0.5,0.1-0.7c0.2-0.2,0.5-0.1,0.7,0.1
				l22.7,30.9c0.2,0.2,0.1,0.5-0.1,0.7C450.1,270.5,450,270.6,449.9,270.6z"/>
			<path fill="#FFC973" d="M427.2,270.6c-0.1,0-0.2,0-0.3-0.1c-0.2-0.2-0.3-0.5-0.1-0.7l22.7-30.9c0.2-0.2,0.5-0.3,0.7-0.1
				c0.2,0.2,0.3,0.5,0.1,0.7l-22.7,30.9C427.5,270.5,427.4,270.6,427.2,270.6z"/>
		</g>
		<rect x="427.2" y="236" fill="#6C6E8C" width="4.1" height="1.1"/>
	</g>
	<g>
		<ellipse fill="#242542" cx="482" cy="245.2" rx="26.5" ry="26.9"/>
		<ellipse fill="#9897B6" cx="482" cy="245.2" rx="20.5" ry="20.8"/>
		<g>
			<path fill="#242542" d="M481.6,241.2c0,0.3,0.3,0.6,0.6,0.6c0.3,0,0.6-0.3,0.6-0.6c0-0.3-0.3-0.6-0.6-0.6
				C481.8,240.6,481.6,240.9,481.6,241.2z"/>
			<path fill="#242542" d="M483.6,241.5c-0.2,0.3-0.1,0.7,0.2,0.8c0.3,0.2,0.6,0.1,0.8-0.2c0.2-0.3,0.1-0.7-0.2-0.8
				C484.1,241.2,483.8,241.2,483.6,241.5z"/>
			<path fill="#242542" d="M485.2,242.9c-0.3,0.2-0.4,0.5-0.2,0.8c0.2,0.3,0.5,0.4,0.8,0.2c0.3-0.2,0.4-0.5,0.2-0.8
				C485.9,242.8,485.5,242.7,485.2,242.9z"/>
			<path fill="#242542" d="M486,244.9c-0.3,0-0.6,0.3-0.6,0.6c0,0.3,0.3,0.6,0.6,0.6c0.3,0,0.6-0.3,0.6-0.6
				C486.6,245.2,486.3,244.9,486,244.9z"/>
			<path fill="#242542" d="M485.7,247c-0.3-0.2-0.6-0.1-0.8,0.2c-0.2,0.3-0.1,0.7,0.2,0.8c0.3,0.2,0.6,0.1,0.8-0.2
				C486,247.6,485.9,247.2,485.7,247z"/>
			<path fill="#242542" d="M484.3,248.7c-0.2-0.3-0.5-0.4-0.8-0.2c-0.3,0.2-0.4,0.5-0.2,0.8c0.2,0.3,0.5,0.4,0.8,0.2
				C484.4,249.4,484.5,249,484.3,248.7z"/>
			<path fill="#242542" d="M482.4,249.5c0-0.3-0.3-0.6-0.6-0.6c-0.3,0-0.6,0.3-0.6,0.6c0,0.3,0.3,0.6,0.6,0.6
				C482.1,250.1,482.4,249.8,482.4,249.5z"/>
			<path fill="#242542" d="M480.3,249.1c0.2-0.3,0.1-0.7-0.2-0.8c-0.3-0.2-0.6-0.1-0.8,0.2c-0.2,0.3-0.1,0.7,0.2,0.8
				C479.8,249.5,480.2,249.4,480.3,249.1z"/>
			<path fill="#242542" d="M478.7,247.8c0.3-0.2,0.4-0.5,0.2-0.8c-0.2-0.3-0.5-0.4-0.8-0.2c-0.3,0.2-0.4,0.5-0.2,0.8
				C478.1,247.8,478.4,247.9,478.7,247.8z"/>
			<path fill="#242542" d="M478,245.8c0.3,0,0.6-0.3,0.6-0.6c0-0.3-0.3-0.6-0.6-0.6c-0.3,0-0.6,0.3-0.6,0.6
				C477.4,245.5,477.7,245.8,478,245.8z"/>
			<path fill="#242542" d="M478.3,243.6c0.3,0.2,0.6,0.1,0.8-0.2c0.2-0.3,0.1-0.7-0.2-0.8c-0.3-0.2-0.6-0.1-0.8,0.2
				C477.9,243.1,478,243.5,478.3,243.6z"/>
			<path fill="#242542" d="M479.6,242c0.2,0.3,0.5,0.4,0.8,0.2c0.3-0.2,0.4-0.5,0.2-0.8c-0.2-0.3-0.5-0.4-0.8-0.2
				C479.6,241.3,479.5,241.7,479.6,242z"/>
		</g>
		<g>
			<path fill="#242542" d="M480.5,234.5v-4.4c0-0.9,0.7-1.6,1.6-1.6c0.9,0,1.6,0.7,1.6,1.6v4.5c-0.6-0.1-1.3-0.2-1.9-0.2
				C481.4,234.4,480.9,234.4,480.5,234.5z"/>
			<path fill="#242542" d="M473.1,232.8c-0.4-0.8-0.2-1.7,0.6-2.2c0.8-0.4,1.7-0.2,2.2,0.6l2.3,3.9c-1,0.4-1.9,0.9-2.8,1.6
				L473.1,232.8z"/>
			<path fill="#242542" d="M468,238.9c-0.8-0.4-1-1.4-0.6-2.2c0.4-0.8,1.4-1,2.2-0.6l4,2.3c-0.6,0.8-1.2,1.8-1.6,2.8L468,238.9z"/>
			<path fill="#242542" d="M466.7,243.5h4.7c-0.1,0.5-0.1,1-0.1,1.5c0,0.6,0.1,1.1,0.1,1.6h-4.8c-0.9,0-1.6-0.7-1.6-1.6
				C465.1,244.2,465.8,243.5,466.7,243.5z"/>
			<path fill="#242542" d="M469.5,254.1c-0.8,0.4-1.7,0.2-2.2-0.6c-0.4-0.8-0.2-1.7,0.6-2.2l4.2-2.4c0.4,1,0.9,1.9,1.6,2.8
				L469.5,254.1z"/>
			<path fill="#242542" d="M475.6,259.1c-0.4,0.8-1.4,1-2.2,0.6c-0.8-0.4-1-1.4-0.6-2.2l2.4-4.2c0.8,0.7,1.8,1.2,2.8,1.6
				L475.6,259.1z"/>
			<path fill="#242542" d="M483.5,255.5v4.8c0,0.9-0.7,1.6-1.6,1.6c-0.9,0-1.6-0.7-1.6-1.6v-4.8c0.5,0.1,1,0.1,1.5,0.1
				C482.4,255.7,482.9,255.6,483.5,255.5z"/>
			<path fill="#242542" d="M490.9,257.6c0.4,0.8,0.2,1.7-0.6,2.2c-0.8,0.4-1.7,0.2-2.2-0.6l-2.5-4.3c1-0.4,1.9-0.9,2.7-1.6
				L490.9,257.6z"/>
			<path fill="#242542" d="M496,251.5c0.8,0.4,1,1.4,0.6,2.2c-0.4,0.8-1.4,1-2.2,0.6l-4.5-2.5c0.7-0.8,1.2-1.7,1.6-2.7L496,251.5z"
				/>
			<path fill="#242542" d="M492.2,243.8h5.1c0.9,0,1.6,0.7,1.6,1.6c0,0.9-0.7,1.6-1.6,1.6h-5.2c0.1-0.6,0.2-1.2,0.2-1.9
				C492.3,244.6,492.3,244.2,492.2,243.8z"/>
			<path fill="#242542" d="M494.5,236.4c0.8-0.4,1.7-0.2,2.2,0.6c0.4,0.8,0.2,1.7-0.6,2.2l-4.4,2.5c-0.3-1-0.8-2-1.4-2.8
				L494.5,236.4z"/>
			<path fill="#242542" d="M488.4,231.3c0.4-0.8,1.4-1,2.2-0.6c0.8,0.4,1,1.4,0.6,2.2l-2.4,4.1c-0.8-0.7-1.7-1.3-2.7-1.7
				L488.4,231.3z"/>
		</g>
	</g>
	<path fill="#EA5C3C" d="M472.9,272h-11.6c-1.5,0-2.8-1.3-2.8-2.8v-23.3c0-1.6,1.3-2.8,2.8-2.8h11.6c1.5,0,2.8,1.3,2.8,2.8v23.3
		C475.7,270.7,474.4,272,472.9,272z"/>
	<g>
		<path fill="#FFC973" d="M193,277.1c-0.5,0-1-0.5-1-1v-60.4h-75.7v60.4c0,0.6-0.4,1-1,1c-0.5,0-1-0.5-1-1v-62.4H194v62.4
			C194,276.6,193.6,277.1,193,277.1z"/>
		<path fill="#6C6E8C" d="M178.2,223.2h-49.4c-1,0-1.9-0.8-1.9-1.9v-13.6c0-1,0.8-1.9,1.9-1.9h49.4c1,0,1.9,0.8,1.9,1.9v13.6
			C180.1,222.4,179.2,223.2,178.2,223.2z"/>
		<rect x="129.5" y="203.8" fill="#4D4E6E" width="47.6" height="2.1"/>
		<path fill="#4D4E6E" d="M137.7,223.3h-6.6c-0.1,0-0.1-0.1-0.1-0.1v-11.5c0-1.9,1.5-3.5,3.4-3.5c1.9,0,3.4,1.6,3.4,3.5v11.5
			C137.8,223.2,137.8,223.3,137.7,223.3z M131.2,223h6.4v-11.4c0-1.8-1.4-3.2-3.2-3.2c-1.8,0-3.2,1.5-3.2,3.2V223z"/>
		<path fill="#4D4E6E" d="M176.2,223.3h-6.6c-0.1,0-0.1-0.1-0.1-0.1v-11.5c0-1.9,1.5-3.5,3.4-3.5c1.9,0,3.4,1.6,3.4,3.5v11.5
			C176.3,223.2,176.2,223.3,176.2,223.3z M169.7,223h6.4v-11.4c0-1.8-1.4-3.2-3.2-3.2c-1.8,0-3.2,1.5-3.2,3.2V223z"/>
		<path fill="#4D4E6E" d="M166.8,223.3h-6.6c-0.1,0-0.1-0.1-0.1-0.1v-11.5c0-1.9,1.5-3.5,3.4-3.5c1.9,0,3.4,1.6,3.4,3.5v11.5
			C166.9,223.2,166.9,223.3,166.8,223.3z M160.3,223h6.4v-11.4c0-1.8-1.4-3.2-3.2-3.2c-1.8,0-3.2,1.5-3.2,3.2V223z"/>
		<path fill="#4D4E6E" d="M157.5,223.3h-6.6c-0.1,0-0.1-0.1-0.1-0.1v-11.5c0-1.9,1.5-3.5,3.4-3.5c1.9,0,3.4,1.6,3.4,3.5v11.5
			C157.6,223.2,157.6,223.3,157.5,223.3z M151,223h6.4v-11.4c0-1.8-1.4-3.2-3.2-3.2c-1.8,0-3.2,1.5-3.2,3.2V223z"/>
		<path fill="#4D4E6E" d="M148,223.3h-6.6c-0.1,0-0.1-0.1-0.1-0.1v-11.5c0-1.9,1.5-3.5,3.4-3.5c1.9,0,3.4,1.6,3.4,3.5v11.5
			C148.1,223.2,148.1,223.3,148,223.3z M141.5,223h6.4v-11.4c0-1.8-1.4-3.2-3.2-3.2c-1.8,0-3.2,1.5-3.2,3.2V223z"/>
		<path fill="#FFC973" d="M121.7,277.9h-12c-0.5,0-1-0.5-1-1c0-0.6,0.4-1,1-1h12c0.5,0,1,0.5,1,1
			C122.6,277.5,122.2,277.9,121.7,277.9z"/>
		<path fill="#FFC973" d="M199,277.9h-12c-0.5,0-1-0.5-1-1c0-0.6,0.4-1,1-1h12c0.5,0,1,0.5,1,1C200,277.5,199.6,277.9,199,277.9z"/>
	</g>
	<g>
		<polygon fill="#FFEB9A" points="276.7,203.4 247.7,189 248,188.3 277,202.7 		"/>
		<path fill="#4D4E6E" d="M223.9,204H217c-0.5,0-0.9-0.4-0.9-0.9V201c0-0.5,0.4-0.9,0.9-0.9h6.8c0.5,0,0.9,0.4,0.9,0.9v2.1
			C224.7,203.6,224.4,204,223.9,204z"/>
		<path fill="#4D4E6E" d="M265.4,204h-6.8c-0.5,0-0.9-0.4-0.9-0.9V201c0-0.5,0.4-0.9,0.9-0.9h6.8c0.5,0,0.9,0.4,0.9,0.9v2.1
			C266.3,203.6,265.9,204,265.4,204z"/>
		<path fill="#4D4E6E" d="M276,204h-6.8c-0.5,0-0.9-0.4-0.9-0.9V201c0-0.5,0.4-0.9,0.9-0.9h6.8c0.5,0,0.9,0.4,0.9,0.9v2.1
			C276.9,203.6,276.5,204,276,204z"/>
		<path fill="#4D4E6E" d="M234.6,204h-6.8c-0.5,0-0.9-0.4-0.9-0.9V201c0-0.5,0.4-0.9,0.9-0.9h6.8c0.5,0,0.9,0.4,0.9,0.9v2.1
			C235.4,203.6,235,204,234.6,204z"/>
		<path fill="#4D4E6E" d="M244.8,204H238c-0.5,0-0.9-0.4-0.9-0.9V201c0-0.5,0.4-0.9,0.9-0.9h6.8c0.5,0,0.9,0.4,0.9,0.9v2.1
			C245.7,203.6,245.3,204,244.8,204z"/>
		<path fill="#4D4E6E" d="M255.4,204h-6.8c-0.5,0-0.9-0.4-0.9-0.9V201c0-0.5,0.4-0.9,0.9-0.9h6.8c0.5,0,0.9,0.4,0.9,0.9v2.1
			C256.3,203.6,255.9,204,255.4,204z"/>
		<path fill="#4D4E6E" d="M286.9,227h-6.1v-14.8h6.1c0.6,0,1.1,0.5,1.1,1.1v12.5C288,226.5,287.5,227,286.9,227z"/>
		<path fill="#4D4E6E" d="M187.6,252.9c-0.2,0-0.4-0.1-0.4-0.3l-8-15.3c-0.5-1-0.6-2-0.3-3.1l2.9-10.6c0.3-1.1,1-2,2-2.5l10.7-5.8
			c0.2-0.1,0.5,0,0.7,0.2c0.1,0.2,0,0.6-0.2,0.7l-10.7,5.8c-0.7,0.4-1.3,1.1-1.5,1.9l-2.9,10.6c-0.2,0.8-0.1,1.6,0.3,2.3l8,15.3
			c0.1,0.2,0,0.6-0.2,0.7C187.8,252.9,187.7,252.9,187.6,252.9z"/>
		<path fill="#4D4E6E" d="M177.3,301.3c-0.1,0-0.1,0-0.2,0c-0.5-0.1-0.9-0.7-0.8-1.2l23.8-110.3c0.1-0.5,0.5-0.8,1-0.8h48.2
			c0.5,0,1,0.5,1,1c0,0.6-0.4,1-1,1h-47.4l-23.7,109.5C178.1,301,177.7,301.3,177.3,301.3z"/>
		<g>
			<rect x="210.6" y="206.1" fill="#4D4E6E" width="72.1" height="3.3"/>
			<path fill="#46547F" d="M231.7,247.6h-26.3c-0.6,0-1.1-0.5-1.1-1.1v-36c0-0.6,0.5-1.1,1.1-1.1h26.3c0.6,0,1.1,0.5,1.1,1.1v36
				C232.8,247.1,232.3,247.6,231.7,247.6z"/>
			<path fill="#6C6E8C" d="M209.1,208.4v23.1c0,1.8,1.4,3.2,3,3.2h69.3c1.7,0,3-1.4,3-3.2v-23.1H209.1z"/>
			<path fill="#6C6E8C" d="M284.4,207.4v-1.8c0-1.8-1.4-3.2-3-3.2h-69.3c-1.7,0-3,1.4-3,3.2v1.8H284.4z"/>
			<g>
				<path fill="#46547F" d="M213.8,213.3h-5.3c-0.5,0-0.9-0.4-0.9-1c0-0.5,0.4-1,0.9-1h5.3c0.5,0,0.9,0.4,0.9,1
					C214.8,212.8,214.4,213.3,213.8,213.3z"/>
				<path fill="#46547F" d="M213.8,217h-5.3c-0.5,0-0.9-0.4-0.9-1c0-0.5,0.4-1,0.9-1h5.3c0.5,0,0.9,0.4,0.9,1
					C214.8,216.5,214.4,217,213.8,217z"/>
				<path fill="#46547F" d="M213.8,220.7h-5.3c-0.5,0-0.9-0.4-0.9-1c0-0.5,0.4-1,0.9-1h5.3c0.5,0,0.9,0.4,0.9,1
					C214.8,220.2,214.4,220.7,213.8,220.7z"/>
				<path fill="#46547F" d="M213.8,224.3h-5.3c-0.5,0-0.9-0.4-0.9-1c0-0.5,0.4-1,0.9-1h5.3c0.5,0,0.9,0.4,0.9,1
					C214.8,223.9,214.4,224.3,213.8,224.3z"/>
				<path fill="#46547F" d="M213.8,228h-5.3c-0.5,0-0.9-0.4-0.9-1c0-0.5,0.4-1,0.9-1h5.3c0.5,0,0.9,0.4,0.9,1
					C214.8,227.6,214.4,228,213.8,228z"/>
				<path fill="#46547F" d="M213.8,231.7h-5.3c-0.5,0-0.9-0.4-0.9-1s0.4-1,0.9-1h5.3c0.5,0,0.9,0.4,0.9,1S214.4,231.7,213.8,231.7z"
					/>
			</g>
		</g>
		<path fill="#FFEB9A" d="M220.7,235.1c-0.2,0-0.4-0.2-0.4-0.4v-32.4c0-0.1,0.1-0.3,0.2-0.3l27.1-13.7c0.2-0.1,0.4,0,0.5,0.2
			c0.1,0.2,0,0.4-0.2,0.5l-26.9,13.6v32.1C221.1,234.9,220.9,235.1,220.7,235.1z"/>
		<path fill="#4D4E6E" d="M280,230.9h-29.1c-0.5,0-1-0.4-1-1V213c0-0.5,0.4-1,1-1H280c0.5,0,1,0.4,1,1v16.9
			C280.9,230.4,280.5,230.9,280,230.9z M250.9,212.3c-0.4,0-0.7,0.3-0.7,0.7v16.9c0,0.4,0.3,0.7,0.7,0.7H280c0.4,0,0.7-0.3,0.7-0.7
			V213c0-0.4-0.3-0.7-0.7-0.7H250.9z"/>
		<path fill="#4D4E6E" d="M253,216.1c-0.7,0-1.2-0.6-1.2-1.3c0-0.7,0.5-1.3,1.2-1.3c0.7,0,1.2,0.6,1.2,1.3
			C254.2,215.5,253.7,216.1,253,216.1z M253,213.8c-0.5,0-0.9,0.5-0.9,1c0,0.6,0.4,1,0.9,1c0.5,0,0.9-0.5,0.9-1
			C254,214.3,253.5,213.8,253,213.8z"/>
		<path fill="#4D4E6E" d="M266.6,229.9c-0.7,0-1.3-0.6-1.3-1.3c0-0.7,0.6-1.3,1.3-1.3c0.7,0,1.3,0.6,1.3,1.3
			C267.9,229.3,267.3,229.9,266.6,229.9z M266.6,227.4c-0.6,0-1,0.5-1,1.1c0,0.6,0.5,1.1,1,1.1s1-0.5,1-1.1
			C267.6,227.9,267.1,227.4,266.6,227.4z"/>
		<path fill="#4D4E6E" d="M278.3,216.2c-0.6,0-1.1-0.5-1.1-1.2c0-0.7,0.5-1.2,1.1-1.2c0.6,0,1.1,0.5,1.1,1.2
			C279.4,215.6,278.9,216.2,278.3,216.2z M278.3,214c-0.5,0-0.9,0.4-0.9,0.9c0,0.5,0.4,0.9,0.9,0.9c0.5,0,0.9-0.4,0.9-0.9
			C279.2,214.5,278.8,214,278.3,214z"/>
		<path fill="#4D4E6E" d="M219.4,312.1c-0.5,0-1-0.5-1-1v-8.3h-77.2v7c0,0.6-0.4,1-1,1c-0.5,0-1-0.5-1-1v-8c0-0.6,0.4-1,1-1h79.2
			c0.5,0,1,0.5,1,1v9.3C220.4,311.7,219.9,312.1,219.4,312.1z"/>
		<path fill="#4D4E6E" d="M196.9,302.8c-0.4,0-0.8-0.3-0.9-0.7l-11.8-37.9c-0.2-0.5,0.1-1.1,0.6-1.3c0.5-0.2,1.1,0.1,1.2,0.7
			l11.8,37.9c0.2,0.5-0.1,1.1-0.6,1.3C197.1,302.8,197,302.8,196.9,302.8z"/>
		<path fill="#242542" d="M145.6,308.3c0,3-2.4,5.5-5.4,5.5c-3,0-5.4-2.5-5.4-5.5c0-3,2.4-5.5,5.4-5.5
			C143.2,302.8,145.6,305.3,145.6,308.3z"/>
		<path fill="#242542" d="M224.8,308.3c0,3-2.4,5.5-5.4,5.5c-3,0-5.4-2.5-5.4-5.5c0-3,2.4-5.5,5.4-5.5
			C222.3,302.8,224.8,305.3,224.8,308.3z"/>
	</g>
	<path fill="#FFC973" d="M370.3,297.1h-119V297c0-7.3,5.9-13.2,13.2-13.2H357C364.3,283.8,370.3,289.7,370.3,297.1L370.3,297.1z"/>
	<g>
		<g>
			<g>
				<path fill="#4D4E6E" d="M605.3,274.1c-1.1,0-2-0.9-2-2v-167c0-1.9-1.6-3.5-3.5-3.5h-91.9v170.6c0,1.1-0.9,2-2,2
					c-1.1,0-2-0.9-2-2V99.5c0-1.1,0.9-2,2-2h93.9c4.1,0,7.5,3.4,7.5,7.6v167C607.2,273.2,606.4,274.1,605.3,274.1z"/>
				<path fill="#4D4E6E" d="M605.3,139.4h-97.6c-1.1,0-2-0.9-2-2c0-1.1,0.9-2,2-2h97.6c1.1,0,2,0.9,2,2
					C607.2,138.5,606.4,139.4,605.3,139.4z"/>
				<path fill="#4D4E6E" d="M605.3,224.3h-97.9c-1.1,0-2-0.9-2-2c0-1.1,0.9-2,2-2h97.9c1.1,0,2,0.9,2,2
					C607.2,223.4,606.4,224.3,605.3,224.3z"/>
				<path fill="#4D4E6E" d="M603.4,181.4h-97.5c-1.1,0-2-0.9-2-2c0-1.1,0.9-2,2-2h97.5c1.1,0,2,0.9,2,2
					C605.4,180.5,604.5,181.4,603.4,181.4z"/>
			</g>
			<g>
				<g>
					<path fill="#6B72A2" d="M519.4,190.1h-0.3v2c0,0.4-0.4,0.8-0.8,0.8c-0.5,0-0.9-0.3-0.9-0.8v-2h-0.4l-0.9,1.4
						c-0.2,0.3-0.2,0.6,0,0.9l0.6,0.9c0.2,0.3,0.5,0.5,0.9,0.5h1.2c0.4,0,0.7-0.2,0.9-0.5l0.6-0.9c0.2-0.3,0.2-0.6,0-0.9
						L519.4,190.1z"/>
					<path fill="#6B72A2" d="M516.9,209h0.3v-2c0-0.4,0.4-0.8,0.8-0.8c0.5,0,0.9,0.3,0.9,0.8v2h0.4l0.9-1.4c0.2-0.3,0.2-0.6,0-0.9
						l-0.6-0.9c-0.2-0.3-0.5-0.5-0.9-0.5h-1.2c-0.4,0-0.7,0.2-0.9,0.5l-0.6,0.9c-0.2,0.3-0.2,0.6,0,0.9L516.9,209z"/>
					<path fill="#6B72A2" d="M517.3,193.4v12.1c0,0.4,0.4,0.8,0.8,0.8c0.5,0,0.8-0.3,0.8-0.8v-12.1H517.3z"/>
				</g>
				<g>
					<path fill="#6B72A2" d="M531.5,190.1h-0.4v2.1c0,0.5-0.4,0.8-0.9,0.8c-0.5,0-0.9-0.4-0.9-0.8v-2.1h-0.5l-1,1.5
						c-0.2,0.3-0.2,0.7,0,1l0.7,1c0.2,0.3,0.6,0.5,1,0.5h1.3c0.4,0,0.8-0.2,1-0.5l0.7-1c0.2-0.3,0.2-0.7,0-1L531.5,190.1z"/>
					<path fill="#6B72A2" d="M528.9,210.6h0.4v-2.1c0-0.5,0.4-0.8,0.9-0.8c0.5,0,0.9,0.4,0.9,0.8v2.1h0.5l1-1.5c0.2-0.3,0.2-0.7,0-1
						l-0.7-1c-0.2-0.3-0.6-0.5-1-0.5h-1.3c-0.4,0-0.8,0.2-1,0.5l-0.7,1c-0.2,0.3-0.2,0.7,0,1L528.9,210.6z"/>
					<path fill="#6B72A2" d="M529.3,193.7v13.2c0,0.4,0.4,0.8,0.9,0.8c0.5,0,0.9-0.4,0.9-0.8v-13.2H529.3z"/>
				</g>
				<g>
					<path fill="#6B72A2" d="M543.7,190.1h-0.4v2.3c0,0.5-0.4,0.9-1,0.9c-0.6,0-1-0.4-1-0.9v-2.3h-0.5l-1.1,1.7
						c-0.2,0.3-0.2,0.8,0,1.1l0.7,1.1c0.2,0.3,0.6,0.5,1.1,0.5h1.5c0.4,0,0.9-0.2,1.1-0.6l0.7-1.1c0.2-0.3,0.2-0.8,0-1.1
						L543.7,190.1z"/>
					<path fill="#6B72A2" d="M540.8,212.3h0.4V210c0-0.5,0.4-0.9,1-0.9c0.6,0,1,0.4,1,0.9v2.3h0.5l1.1-1.7c0.2-0.3,0.2-0.8,0-1.1
						l-0.7-1.1c-0.2-0.3-0.6-0.5-1.1-0.5h-1.5c-0.4,0-0.9,0.2-1.1,0.6l-0.7,1.1c-0.2,0.3-0.2,0.8,0,1.1L540.8,212.3z"/>
					<path fill="#6B72A2" d="M541.3,194v14.3c0,0.5,0.4,0.9,1,0.9s1-0.4,1-0.9V194H541.3z"/>
				</g>
				<g>
					<path fill="#6B72A2" d="M555.9,190.1h-0.4v2.5c0,0.5-0.5,1-1.1,1c-0.6,0-1.1-0.4-1.1-1v-2.5h-0.5l-1.2,1.8
						c-0.2,0.4-0.2,0.8,0,1.2l0.8,1.2c0.2,0.4,0.7,0.6,1.2,0.6h1.6c0.5,0,0.9-0.2,1.2-0.6l0.8-1.2c0.2-0.4,0.2-0.8,0-1.2
						L555.9,190.1z"/>
					<path fill="#6B72A2" d="M552.8,214h0.4v-2.5c0-0.5,0.5-1,1.1-1c0.6,0,1.1,0.4,1.1,1v2.5h0.5l1.2-1.8c0.2-0.4,0.2-0.8,0-1.2
						l-0.8-1.2c-0.2-0.4-0.7-0.6-1.2-0.6h-1.6c-0.5,0-0.9,0.2-1.2,0.6l-0.8,1.2c-0.2,0.4-0.2,0.8,0,1.2L552.8,214z"/>
					<path fill="#6B72A2" d="M553.3,194.2v15.3c0,0.5,0.5,1,1.1,1s1.1-0.4,1.1-1v-15.3H553.3z"/>
				</g>
				<g>
					<path fill="#6B72A2" d="M568,190.1h-0.4v2.7c0,0.6-0.5,1-1.1,1c-0.6,0-1.2-0.5-1.2-1v-2.7h-0.6l-1.2,1.9
						c-0.3,0.4-0.3,0.9,0,1.3l0.8,1.3c0.3,0.4,0.7,0.6,1.2,0.6h1.7c0.5,0,1-0.2,1.2-0.6l0.8-1.3c0.3-0.4,0.3-0.9,0-1.3L568,190.1z"
						/>
					<path fill="#6B72A2" d="M564.7,215.6h0.4V213c0-0.6,0.5-1,1.1-1c0.6,0,1.2,0.5,1.2,1v2.7h0.6l1.2-1.9c0.3-0.4,0.3-0.9,0-1.3
						l-0.8-1.3c-0.3-0.4-0.7-0.6-1.2-0.6h-1.7c-0.5,0-1,0.2-1.2,0.6l-0.8,1.3c-0.3,0.4-0.3,0.9,0,1.3L564.7,215.6z"/>
					<path fill="#6B72A2" d="M565.2,194.5v16.4c0,0.6,0.5,1,1.1,1c0.6,0,1.1-0.5,1.1-1v-16.4H565.2z"/>
				</g>
				<g>
					<path fill="#6B72A2" d="M580.2,190.1h-0.5v2.8c0,0.6-0.5,1.1-1.2,1.1c-0.7,0-1.2-0.5-1.2-1.1v-2.8h-0.6l-1.3,2
						c-0.3,0.4-0.3,0.9,0,1.4l0.9,1.4c0.3,0.4,0.8,0.7,1.3,0.7h1.8c0.5,0,1-0.3,1.3-0.7l0.9-1.4c0.3-0.4,0.3-0.9,0-1.4L580.2,190.1z
						"/>
					<path fill="#6B72A2" d="M576.7,217.3h0.5v-2.8c0-0.6,0.5-1.1,1.2-1.1c0.7,0,1.2,0.5,1.2,1.1v2.8h0.6l1.3-2
						c0.3-0.4,0.3-0.9,0-1.4l-0.9-1.4c-0.3-0.4-0.8-0.7-1.3-0.7h-1.8c-0.5,0-1,0.3-1.3,0.7l-0.9,1.4c-0.3,0.4-0.3,0.9,0,1.4
						L576.7,217.3z"/>
					<path fill="#6B72A2" d="M577.2,194.8v17.5c0,0.6,0.5,1.1,1.2,1.1s1.2-0.5,1.2-1.1v-17.5H577.2z"/>
				</g>
				<g>
					<path fill="#6B72A2" d="M592.4,190.1h-0.5v3c0,0.6-0.6,1.2-1.3,1.2c-0.7,0-1.3-0.5-1.3-1.2v-3h-0.6l-1.4,2.2
						c-0.3,0.4-0.3,1,0,1.4l0.9,1.5c0.3,0.4,0.8,0.7,1.4,0.7h1.9c0.6,0,1.1-0.3,1.4-0.7l0.9-1.5c0.3-0.4,0.3-1,0-1.4L592.4,190.1z"
						/>
					<path fill="#6B72A2" d="M588.6,219h0.5v-3c0-0.6,0.6-1.2,1.3-1.2c0.7,0,1.3,0.5,1.3,1.2v3h0.6l1.4-2.2c0.3-0.4,0.3-1,0-1.4
						l-0.9-1.5c-0.3-0.4-0.8-0.7-1.4-0.7h-1.9c-0.6,0-1.1,0.3-1.4,0.7l-0.9,1.5c-0.3,0.4-0.3,1,0,1.4L588.6,219z"/>
					<path fill="#6B72A2" d="M589.2,195.1v18.6c0,0.6,0.6,1.2,1.3,1.2c0.7,0,1.3-0.5,1.3-1.2v-18.6H589.2z"/>
				</g>
			</g>
			<polygon fill="#FFEB9C" points="597.1,220.4 596.1,220.4 596.1,200.1 513.8,200.1 513.8,220.2 512.8,220.2 512.8,199.1 
				597.1,199.1 			"/>
			<g>
				<path fill="#FFC974" d="M555.4,220.3l-30.4-3.6c-0.6-0.1-1-0.6-0.9-1.2c0.1-0.6,0.6-1,1.2-0.9l30.4,3.6L555.4,220.3z"/>
				<path fill="#6B72A2" d="M524.6,219.9l1.2-10.6c0.1-0.5-0.4-0.8-0.9-0.6l-2.9,1.6c-0.2,0.1-0.3,0.3-0.3,0.4l-1,8.7
					c0,0.3,0.2,0.6,0.5,0.6l2.7,0.3C524.3,220.5,524.5,220.2,524.6,219.9z"/>
			</g>
			<g>
				<g>
					<path fill="#6B72A2" d="M517.2,161.9c0-0.2-0.2-0.4-0.4-0.4c-0.2,0-0.3,0.2-0.3,0.4v11c0,0.2,0.2,0.4,0.4,0.4
						c0.2,0,0.3-0.2,0.3-0.4V161.9z"/>
					<path fill="#6B72A2" d="M516,173.8v-2.1c0-0.5,0.4-0.8,0.8-0.8c0.5,0,0.8,0.4,0.8,0.8v2.1L516,173.8z"/>
					<path fill="#FFC974" d="M515.3,162.2v-11.5c0-0.8,0.6-1.5,1.4-1.5c0.8,0,1.5,0.7,1.5,1.5v11.5L515.3,162.2z"/>
				</g>
				<g>
					<path fill="#6B72A2" d="M524.7,161.3c0-0.2-0.2-0.4-0.4-0.4c-0.2,0-0.3,0.2-0.3,0.4v10.5c0,0.2,0.2,0.4,0.4,0.4
						c0.2,0,0.3-0.2,0.3-0.4V161.3z"/>
					<path fill="#6B72A2" d="M523.6,172.6v-2c0-0.4,0.3-0.8,0.8-0.8c0.4,0,0.8,0.4,0.8,0.8v2H523.6z"/>
					<path fill="#FFC974" d="M522.9,161.6v-10.9c0-0.8,0.6-1.4,1.3-1.4c0.8,0,1.4,0.6,1.5,1.4v10.9H522.9z"/>
				</g>
				<g>
					<path fill="#6B72A2" d="M532.2,160.6c0-0.2-0.2-0.3-0.4-0.3c-0.2,0-0.3,0.2-0.3,0.3v9.9c0,0.2,0.2,0.3,0.4,0.3
						c0.2,0,0.3-0.2,0.3-0.3V160.6z"/>
					<path fill="#6B72A2" d="M531.1,171.4v-1.9c0-0.4,0.3-0.8,0.7-0.8c0.4,0,0.8,0.3,0.8,0.8v1.9H531.1z"/>
					<path fill="#FFC974" d="M530.5,161v-10.3c0-0.7,0.5-1.4,1.3-1.4c0.7,0,1.4,0.6,1.4,1.3V161H530.5z"/>
				</g>
				<g>
					<path fill="#6B72A2" d="M539.6,160c0-0.2-0.2-0.3-0.4-0.3c-0.2,0-0.3,0.1-0.3,0.3v9.4c0,0.2,0.2,0.3,0.4,0.3
						c0.2,0,0.3-0.1,0.3-0.3V160z"/>
					<path fill="#6B72A2" d="M538.7,170.2v-1.8c0-0.4,0.3-0.7,0.7-0.7c0.4,0,0.7,0.3,0.7,0.7v1.8H538.7z"/>
					<path fill="#FFC974" d="M538,160.3v-9.8c0-0.7,0.5-1.3,1.2-1.3c0.7,0,1.3,0.6,1.3,1.3v9.8H538z"/>
				</g>
				<g>
					<path fill="#6B72A2" d="M547.1,159.4c0-0.2-0.2-0.3-0.3-0.3c-0.2,0-0.3,0.1-0.3,0.3v8.9c0,0.2,0.2,0.3,0.3,0.3s0.3-0.1,0.3-0.3
						V159.4z"/>
					<path fill="#6B72A2" d="M546.2,169v-1.7c0-0.4,0.3-0.7,0.7-0.7c0.4,0,0.7,0.3,0.7,0.7v1.7H546.2z"/>
					<path fill="#FFC974" d="M545.6,159.7v-9.2c0-0.7,0.5-1.2,1.2-1.2c0.7,0,1.2,0.5,1.2,1.2v9.2H545.6z"/>
				</g>
			</g>
			<polygon fill="#FFEB9C" points="551.9,177.2 550.9,177.2 550.9,155.3 513.1,155.3 513.1,177.2 512.1,177.2 512.1,154.3 
				551.9,154.3 			"/>
			<g>
				
					<rect x="581.9" y="153.7" transform="matrix(1.327030e-02 -0.9999 0.9999 1.327030e-02 417.3642 737.267)" fill="#B9C9EE" width="0.7" height="7"/>
				
					<rect x="578.1" y="156.6" transform="matrix(1.327632e-02 -0.9999 0.9999 1.327632e-02 414.6976 734.5681)" fill="#B9C9EE" width="3" height="1.1"/>
				
					<rect x="576.4" y="156.2" transform="matrix(1.321401e-02 -0.9999 0.9999 1.321401e-02 413.4448 733.2354)" fill="#6B72A2" width="3.5" height="1.9"/>
				<path fill="#6B72A2" d="M581.1,155.4l-1.2,0l0,3.5l1.2,0c0.3,0,0.5-0.2,0.5-0.5l0-2.5C581.6,155.7,581.4,155.4,581.1,155.4z"/>
				<path fill="#FFEB9C" d="M578.1,154.1l-16.2-0.2c-0.5,0-1,0.4-1,1l-0.1,4.8c0,0.1,0.1,0.2,0.2,0.2l2.4,0l-3.8,10.4
					c-0.4,1.1,0,2.3,1.1,2.8c1.2,0.6,2.6,0,3-1.2c0,0,2.3-6.2,3.6-9.7c0.5-1.4,1.8-2.3,3.3-2.3l7.5,0.1c0.1,0,0.2-0.1,0.2-0.2
					l0.1-5.6C578.3,154.2,578.2,154.1,578.1,154.1z"/>
				<path fill="#FFC974" d="M566.8,168l-8.6-0.1c-0.7,0-1.3,0.6-1.3,1.3l-0.1,6.7c0,0.7,0.6,1.3,1.3,1.3l8.6,0.1
					c0.7,0,1.3-0.6,1.3-1.3l0.1-6.7C568.1,168.6,567.6,168,566.8,168z"/>
				<path fill="#FFC974" d="M569,154.9l-7.9-0.1c-0.3,0-0.6,0.3-0.6,0.6l0,1.4c0,0.4,0.3,0.6,0.6,0.6l7.9,0.1c0.3,0,0.6-0.3,0.6-0.6
					l0-1.4C569.6,155.2,569.3,154.9,569,154.9z"/>
			</g>
			<path fill="#FFEB9C" d="M593.2,177.2h-12.5c-1.9,0-3.4-1.5-3.4-3.4v-3c0-1.9,1.5-3.4,3.4-3.4h12.5c1.9,0,3.4,1.5,3.4,3.4v3
				C596.6,175.7,595.1,177.2,593.2,177.2z"/>
			<path fill="#6B72A2" d="M591.9,173.3c-0.3,0-0.6,0-0.7,0c-0.5-0.1-0.9-0.6-0.8-1.2c0.1-0.5,0.6-0.9,1.1-0.8
				c0.5,0.1,2.9,0.1,4.6-1.6c1.4-1.3,2-3.4,1.7-6.2c-0.1-0.6,0.4-1,0.9-1.1c0.5,0,1,0.4,1.1,0.9c0.3,3.4-0.5,6.1-2.3,7.8
				C595.7,172.9,593.3,173.3,591.9,173.3z"/>
			<path fill="#6B72A2" d="M590.9,167.4h-0.7v-3.1c0-1.7-1.3-3-3-3c-1.6,0-3,1.3-3,3v3.1h-0.7v-3.1c0-2.1,1.7-3.8,3.7-3.8
				c2.1,0,3.7,1.7,3.7,3.8V167.4z"/>
			<path fill="#FFEB9C" d="M586.5,135.4h-14.7c-1.9,0-3.4-1.5-3.4-3.4v-19.4c0-1.9,1.5-3.4,3.4-3.4h14.7c1.9,0,3.4,1.5,3.4,3.4V132
				C589.9,133.9,588.4,135.4,586.5,135.4z"/>
			<rect x="571.5" y="107.3" fill="#6B72A2" width="4.3" height="2"/>
		</g>
		<path fill="#FFC974" d="M583.8,133.2h-9.2c-2,0-3.6-1.6-3.6-3.7v-14.4c0-2,1.6-3.7,3.6-3.7h9.2c2,0,3.6,1.6,3.6,3.7v14.4
			C587.4,131.6,585.8,133.2,583.8,133.2z M574.6,112.5c-1.5,0-2.6,1.2-2.6,2.7v14.4c0,1.5,1.2,2.7,2.6,2.7h9.2
			c1.5,0,2.6-1.2,2.6-2.7v-14.4c0-1.5-1.2-2.7-2.6-2.7H574.6z"/>
	</g>
	<path opacity="0.76" fill="#6672A2" d="M582.7,271.9h-32.4c-1.4,0-2.4-1.1-2.4-2.4v-32.9c0-1.4,1.1-2.4,2.4-2.4h32.4
		c1.4,0,2.4,1.1,2.4,2.4v32.9C585.1,270.8,584,271.9,582.7,271.9z"/>
	<g>
		<path fill="#EA5C3C" d="M84.5,134.4h24.6v-20.2H84.2c-1.4,0-2.6,1.2-2.6,2.6v14.7C81.7,133.1,82.9,134.4,84.5,134.4z"/>
		<path fill="#242542" d="M97.3,125.8h223.2v15.5H97.3c-4.2,0-7.7-3.5-7.7-7.8C89.6,129.3,93.1,125.8,97.3,125.8z"/>
		<path fill="#242542" d="M317.6,125.8h208c4.2,0,7.7,3.5,7.7,7.8c0,4.3-3.4,7.8-7.7,7.8h-208V125.8z"/>
		<path fill="#EA5C3C" d="M83.5,124.2l5.3-15.3c4.3-12.2,14.8-20.9,27.4-22.8l76.1-11.3c7.1-1.1,13.9-3.5,20.1-7.1l48.9-25.3
			c14.1-8.3,30.1-12.6,46.5-12.6h57c27.4,0,55.6,23,72.7,32.9c5.1,3,10.9,4.8,16.8,5.5l55.8,5.9c8.2,0.7,15.1,6.6,17.1,14.7
			l9.5,38.1c0.7,2.8-1.4,6-4.2,6H320.5v1.1H90.6C85.4,133.9,81.7,129.2,83.5,124.2z"/>
		<path fill="#000543" d="M410.9,73.7H223.6c-3.8,0-5-5.2-1.6-6.9l38-19.3C276.7,37.9,290,34,306.1,34h56.6
			c16.7,0,33.7,9.2,48.2,18.8V73.7z"/>
		<path fill="#000543" d="M413.9,54.8c4.3,2.9,8.4,5.8,12.2,8.4c1.5,1.1,2.5,2.8,2.5,4.7c0,3.2-2.5,5.7-5.7,5.7h-9V54.8z"/>
		<rect x="325.6" y="34" fill="#3D4D9B" width="1" height="39.7"/>
		<rect x="166.2" y="79.2" fill="#D3442D" width="355.3" height="1"/>
		<path fill="#EA5C3C" d="M535.2,132.4h-24.6v-20.2h24.8c1.4,0,2.6,1.2,2.6,2.6v14.7C538,131.2,536.8,132.4,535.2,132.4z"/>
		<path fill="#D3442D" d="M219.3,67.1h10.5c2.4,0,4.3,2,4.3,4.4v8c0,2.4-1.9,4.4-4.3,4.4h-10.9c-4.8,0-8.7-4.2-8.2-9.2
			C211.1,70.3,215,67.1,219.3,67.1z"/>
		<path fill="#D3442D" d="M379.3,130.5H223.1c-6.5,0-11.9-5.8-11.9-13V73.7h1v43.8c0,6.6,4.9,12,10.9,12h156.1
			c4.9,0,9.3-3.6,10.8-8.9c3.3-11.4,11.7-18.5,16.4-21.7c1.9-1.3,3.1-3.7,3.1-6.2v-19h1v19c0,2.9-1.3,5.5-3.5,7.1
			c-4.6,3.2-12.8,10.1-16,21.2C389.4,126.7,384.6,130.5,379.3,130.5z"/>
		<rect x="325.6" y="73.7" fill="#D3442D" width="1" height="56.3"/>
		<path fill="#D3442D" d="M478.3,96.4h-21.6c-0.8,0-1.4-0.6-1.4-1.4v-8.9c0-0.8,0.6-1.4,1.4-1.4h21.6c0.8,0,1.4,0.6,1.4,1.4V95
			C479.7,95.8,479.1,96.4,478.3,96.4z M456.7,85.7c-0.2,0-0.4,0.2-0.4,0.4V95c0,0.2,0.2,0.4,0.4,0.4h21.6c0.2,0,0.4-0.2,0.4-0.4
			v-8.9c0-0.2-0.2-0.4-0.4-0.4H456.7z"/>
		<rect x="466.6" y="111.7" fill="#D3442D" width="66.4" height="1"/>
		<g>
			<path fill="#4D4E6E" d="M198.7,134.3c0.3-1.8,0.5-3.7,0.5-5.6c0-17-13.6-30.8-30.4-30.8c-16.8,0-30.4,13.8-30.4,30.8
				c0,1.9,0.2,3.8,0.5,5.6H198.7z"/>
			<g>
				<ellipse fill="#242542" cx="168.8" cy="129.3" rx="27.5" ry="27.8"/>
				<ellipse fill="#9897B6" cx="168.8" cy="129.3" rx="21.2" ry="21.5"/>
				<g>
					<path fill="#242542" d="M168.4,125.1c0,0.3,0.3,0.6,0.6,0.6c0.3,0,0.6-0.3,0.6-0.6c0-0.3-0.3-0.6-0.6-0.6
						C168.7,124.5,168.4,124.7,168.4,125.1z"/>
					<path fill="#242542" d="M170.5,125.5c-0.2,0.3-0.1,0.7,0.2,0.9c0.3,0.2,0.7,0.1,0.8-0.2c0.2-0.3,0.1-0.7-0.2-0.9
						C171.1,125.1,170.7,125.2,170.5,125.5z"/>
					<path fill="#242542" d="M172.2,126.9c-0.3,0.2-0.4,0.6-0.2,0.9c0.2,0.3,0.5,0.4,0.8,0.2c0.3-0.2,0.4-0.6,0.2-0.9
						C172.9,126.8,172.5,126.7,172.2,126.9z"/>
					<path fill="#242542" d="M173,129c-0.3,0-0.6,0.3-0.6,0.6c0,0.3,0.3,0.6,0.6,0.6c0.3,0,0.6-0.3,0.6-0.6
						C173.6,129.2,173.3,129,173,129z"/>
					<path fill="#242542" d="M172.6,131.2c-0.3-0.2-0.7-0.1-0.8,0.2c-0.2,0.3-0.1,0.7,0.2,0.8c0.3,0.2,0.7,0.1,0.8-0.2
						C173,131.7,172.9,131.3,172.6,131.2z"/>
					<path fill="#242542" d="M171.2,132.9c-0.2-0.3-0.5-0.4-0.8-0.2c-0.3,0.2-0.4,0.6-0.2,0.9c0.2,0.3,0.5,0.4,0.8,0.2
						C171.3,133.6,171.4,133.2,171.2,132.9z"/>
					<path fill="#242542" d="M169.2,133.7c0-0.3-0.3-0.6-0.6-0.6c-0.3,0-0.6,0.3-0.6,0.6c0,0.3,0.3,0.6,0.6,0.6
						C169,134.3,169.2,134,169.2,133.7z"/>
					<path fill="#242542" d="M167.1,133.3c0.2-0.3,0.1-0.7-0.2-0.9c-0.3-0.2-0.7-0.1-0.8,0.2c-0.2,0.3-0.1,0.7,0.2,0.9
						C166.6,133.7,166.9,133.6,167.1,133.3z"/>
					<path fill="#242542" d="M165.4,131.9c0.3-0.2,0.4-0.6,0.2-0.9c-0.2-0.3-0.5-0.4-0.8-0.2c-0.3,0.2-0.4,0.6-0.2,0.9
						C164.8,132,165.1,132.1,165.4,131.9z"/>
					<path fill="#242542" d="M164.7,129.8c0.3,0,0.6-0.3,0.6-0.6s-0.3-0.6-0.6-0.6c-0.3,0-0.6,0.3-0.6,0.6S164.3,129.8,164.7,129.8z
						"/>
					<path fill="#242542" d="M165,127.6c0.3,0.2,0.7,0.1,0.8-0.2c0.2-0.3,0.1-0.7-0.2-0.8c-0.3-0.2-0.7-0.1-0.8,0.2
						C164.6,127.1,164.7,127.4,165,127.6z"/>
					<path fill="#242542" d="M166.4,125.9c0.2,0.3,0.5,0.4,0.8,0.2c0.3-0.2,0.4-0.5,0.2-0.9c-0.2-0.3-0.5-0.4-0.8-0.2
						C166.3,125.2,166.2,125.6,166.4,125.9z"/>
				</g>
			</g>
		</g>
		<path fill="#4D4E6E" d="M479,135.9c0,1.9-0.2,3.8-0.5,5.6h-59.7c-0.3-1.8-0.5-3.7-0.5-5.6c0-15.5,11.3-28.3,25.9-30.4
			c1.4-0.2,2.9-0.3,4.4-0.3c1.2,0,2.5,0.1,3.7,0.2C467.3,107.2,479,120.1,479,135.9z"/>
		<path fill="#FFFFFF" d="M95.1,97.9c7.3,1.1,12.5,4.4,12.5,8.2c0,4.8-8.2,8.6-18.4,8.6c-0.9,0-1.8,0-2.7-0.1l1.8-5.2
			C89.9,105.1,92.2,101.2,95.1,97.9z"/>
		<path fill="#FFFFFF" d="M81.6,119.3C81.6,119.3,81.6,119.3,81.6,119.3c2.9,0,5.2,2.3,5.2,5.2c0,2.9-2.3,5.2-5.2,5.2c0,0,0,0-0.1,0
			V119.3z"/>
		<path fill="#D3442D" d="M141.8,114.7H84.2c-0.3,0-0.5-0.2-0.5-0.5c0-0.3,0.2-0.5,0.5-0.5h57.5c0.3,0,0.5,0.2,0.5,0.5
			C142.2,114.5,142,114.7,141.8,114.7z"/>
		
			<rect x="446.3" y="124" transform="matrix(-1 -1.224647e-16 1.224647e-16 -1 896.1899 259.7664)" fill="#242542" width="3.6" height="11.7"/>
		<path fill="#9897B6" d="M452.3,105.3v18.9c0,1.6-1.3,2.8-2.8,2.8H447c-1.6,0-2.8-1.3-2.8-2.8v-18.8c1.4-0.2,2.9-0.3,4.4-0.3
			C449.9,105.1,451.1,105.2,452.3,105.3z"/>
		
			<ellipse transform="matrix(0.7071 -0.7071 0.7071 0.7071 31.8365 358.0269)" fill="#BEBED3" cx="448.1" cy="140.6" rx="12.3" ry="12.3"/>
		<path fill="#9897B6" d="M442.9,140.6c0,2.8,2.3,5,5,5c2.8,0,5-2.3,5-5c0-2.8-2.3-5-5-5C445.1,135.5,442.9,137.8,442.9,140.6z"/>
		<g>
			<path fill="#9897B6" d="M454.4,127.8c4.8,1.8,8,6.4,8,11.6c0,1-0.9,1.7-1.9,1.5l-2.5-0.4c-0.7-0.1-1.3-0.8-1.3-1.5
				c-0.1-2.5-1.7-4.7-3.9-5.7c-0.7-0.3-1.1-1-0.9-1.7l0.4-2.5C452.5,128,453.5,127.4,454.4,127.8z"/>
			<circle fill="#BEBED3" cx="459.6" cy="138" r="1.1"/>
			<path fill="#BEBED3" d="M453.4,130.9c0,0.6,0.5,1.1,1.1,1.1s1.1-0.5,1.1-1.1s-0.5-1.1-1.1-1.1S453.4,130.4,453.4,130.9z"/>
		</g>
	</g>
</g>
</svg>
