<?xml version="1.0" encoding="utf-8"?>
<!-- Generator: Adobe Illustrator 25.4.1, SVG Export Plug-In . SVG Version: 6.00 Build 0)  -->
<svg version="1.1" id="Layer_1" xmlns="http://www.w3.org/2000/svg" xmlns:xlink="http://www.w3.org/1999/xlink" x="0px" y="0px"
	 viewBox="0 0 308 87" style="enable-background:new 0 0 308 87;" xml:space="preserve">
<style type="text/css">
	.st0{fill-rule:evenodd;clip-rule:evenodd;fill:#CC2229;}
	.st1{fill-rule:evenodd;clip-rule:evenodd;fill:#FFFFFF;}
	.st2{fill-rule:evenodd;clip-rule:evenodd;fill:#D0D1D3;}
</style>
<g>
	<path class="st0" d="M225.8,55.2v8.9h-11.1v-8.9H225.8z M190.1,57.1c6,0,10.9,1.1,10.9,2.4s-4.9,2.4-10.9,2.4s-10.9-1.1-10.9-2.4
		S184.1,57.1,190.1,57.1z M193.1,55.2l-9.1-3h13.6l12.5,5c1.2,0.5,2.1,1.4,2.3,2.3c0.5,2.7-10,4.9-22.2,4.9
		c-12.2,0-22.2-2.2-22.2-4.9C168,56.7,176.9,54.5,193.1,55.2L193.1,55.2z M141,60.2c0,1.2,3.8,1.8,6.9,1.8c3.1,0,7.3-0.7,7.3-1.8v-5
		h10.5v5c0,3.4-10.4,4.1-17.8,4.1c-7.4,0-18-0.7-18-4.1v-5H141V60.2L141,60.2z M107.6,52.1l25.4,11.9h-12.6L116,62H91.3l-4.7,2.1
		h-13l23.7-10.8L93.8,52L107.6,52.1L107.6,52.1z M111.4,59.9H96l7.8-3.6L111.4,59.9L111.4,59.9z"/>
	<path class="st1" d="M224.4,42.9c3.1,0.1,6,0,9.1-0.2c1.7-0.2,3.4-0.3,5.1-0.5c1.6-0.2,3.1-0.5,4.5-0.8c1.4-0.3,2.7-0.7,3.9-1.1
		c1.2-0.4,2.2-0.8,3.2-1.2c1.2-0.5,2-1.2,2.7-1.8c0.5-0.5,0.9-1,1.1-1.6c0.1-0.4,0.2-0.9,0.1-1.2c-0.2-0.7-0.5-1.3-1.2-2
		c-0.5-0.4-0.9-0.8-1.5-1.1c-1.2-0.7-2.7-1.3-4.4-2c-1.2-0.4-2.5-0.7-3.9-1c-1.8-0.4-3.7-0.7-5.8-1c-1.6-0.2-3.4-0.4-5.2-0.5
		c-2.5-0.2-5-0.2-7.6-0.2c-4.2,0.1-8.5,0.5-12.1,1.2c-0.2,0.1-0.5,0.2-0.8,0.2c2.8,1.2,4.7,2.7,5.9,4.2c0.3,0.5,0.6,0.9,0.8,1.4
		c0.5,1.5,0,3-1.4,4.5c-1.2,1.2-3,2.4-5.5,3.4C215.3,42.4,219.9,42.8,224.4,42.9L224.4,42.9z M204.1,32.1c-0.5-0.4-1-0.8-1.6-1.1
		c-1.5,0.9-2.6,1.7-3,2.7c-0.2,0.5-0.4,1.1-0.2,1.6c0.2,1.2,1.5,2.3,3.4,3.4c1.2-0.7,2.1-1.4,2.6-2.2c0.9-1.3,0.6-2.7-0.7-4.1
		L204.1,32.1z M182.5,42.8c3.4-0.2,6.6-0.5,9.7-1l1.2-0.2c-0.6-0.2-1.2-0.5-1.8-0.9c-1.9-0.9-3.3-2-4.1-3.1c-0.5-0.6-0.9-1.2-1.1-2
		c-0.2-0.9-0.2-2,0.4-2.9c1-1.7,3.2-3.4,6.6-4.8c-1.4-0.3-2.9-0.5-4.4-0.7c-2.7-0.3-5.5-0.5-8.4-0.6c-6-0.2-11.9,0.3-17.1,1.2
		c3.6,1.6,5.9,3.5,6.8,5.4c0.2,0.5,0.3,1.1,0.3,1.7c-0.1,1.2-0.8,2.3-1.9,3.4c-1.2,1.2-3,2.3-5.3,3.3
		C168.8,42.8,175.8,43.1,182.5,42.8L182.5,42.8z M155.9,32c-0.5-0.4-1.1-0.8-1.8-1.1c-1,0.6-2,1.2-2.6,1.9c-0.5,0.7-0.9,1.3-0.9,2
		c0,0.5,0.2,0.9,0.4,1.3c0.6,0.9,1.6,1.7,3.1,2.6c0.9-0.5,1.7-1.1,2.3-1.6c0.5-0.5,0.9-1.2,0.9-1.7c0.1-0.8-0.1-1.6-0.7-2.4
		C156.5,32.5,156.2,32.3,155.9,32L155.9,32z M138.8,31.8c1.1-1.2,2.8-2.4,5.1-3.5l0.9-0.4l0.2-0.1c-3.1-0.5-6.5-0.9-10.1-1.2
		c-2.7-0.2-5.5-0.2-8.1-0.1c-3.7,0.2-7.3,0.5-10.5,1.1c-0.4,0.1-0.8,0.2-1.2,0.2c2.8,1.2,4.7,2.7,5.9,4.2c0.5,0.8,0.9,1.6,0.9,2.3
		c0,0.7-0.2,1.5-0.5,2.2c-0.3,0.5-0.6,0.9-1.1,1.4c-1.2,1.2-3,2.4-5.5,3.4c8.7,1.9,21.3,1.9,30,0.1c-3.4-1.5-5.6-3.1-6.6-4.9
		c-0.6-1.2-0.7-2.4-0.1-3.7C138.3,32.6,138.5,32.2,138.8,31.8L138.8,31.8z M107.2,31.9c-0.4-0.3-0.9-0.6-1.5-0.9
		c-1.5,0.9-2.5,1.7-3,2.7c-0.2,0.5-0.4,1.1-0.2,1.6c0.2,1.2,1.5,2.3,3.4,3.4c0.9-0.5,1.6-1,2.2-1.6
		C109.5,35.3,109.2,33.5,107.2,31.9z M90.1,37c-0.6-0.9-0.8-2-0.6-3c0.5-2.2,2.9-4.3,7-6.1c-1.4-0.3-2.9-0.5-4.4-0.7
		c-2.7-0.3-5.5-0.5-8.4-0.6c-2.2-0.1-4.3,0-6.4,0.1c-1.3,0.1-2.7,0.2-4,0.3c-2.1,0.2-4.1,0.5-6.1,0.8c-1.5,0.3-2.9,0.6-4.2,0.9
		c-1.3,0.4-2.5,0.8-3.6,1.2c-1.3,0.5-2.4,1.1-3.3,1.7c-0.7,0.5-1.2,1-1.6,1.6l-0.2,0.4c-0.2,0.5-0.3,1.1-0.3,1.6
		c0.1,0.4,0.3,0.8,0.5,1.2c0.6,0.8,1.5,1.5,2.8,2.3c0.7,0.3,1.4,0.7,2.2,1c1.4,0.5,2.9,1,4.5,1.4c1.4,0.3,2.9,0.6,4.4,0.9
		c2,0.3,4.1,0.5,6.2,0.7c1.3,0.1,2.7,0.2,4.1,0.2c1.5,0,3,0.1,4.4,0c4-0.1,7.9-0.4,11.5-0.9l0.9-0.2l1.2-0.2c-1.1-0.5-2-0.9-2.9-1.5
		C92,39.2,90.8,38.1,90.1,37z M250.8,44.4c-1.6,0.3-3.2,0.6-4.9,0.9c-1.8,0.2-3.6,0.5-5.4,0.7c-1.9,0.2-3.8,0.4-5.8,0.5l-2,0.1
		c-3.5,0.2-6.9,0.2-10.5,0.1c-4.2-0.2-8.3-0.5-12.1-0.9c-2.7-0.4-5.3-0.8-7.7-1.3c-2.7,0.5-5.5,1-8.6,1.4c-4.2,0.5-8.7,0.9-13.2,0.9
		c-3.1,0.1-6.3,0-9.4-0.2c-6.2-0.3-12.2-1.1-17.3-2.2c-2.2,0.5-4.5,0.9-7,1.2c-5.2,0.7-10.5,1.1-16.2,1.1c-3.7,0-7.4-0.1-11-0.4
		c-5.1-0.4-9.8-1.1-14-2c-2.3,0.5-4.5,0.9-7,1.2c-5.2,0.7-10.8,1.1-16.5,1.2c-2.3,0-4.7-0.1-7-0.2c-2-0.1-4-0.2-5.9-0.4
		c-1.9-0.2-3.7-0.4-5.5-0.6c-1.7-0.2-3.4-0.5-5.1-0.9c-2.1-0.5-4.1-0.9-6-1.5c-1.3-0.4-2.7-0.9-3.8-1.3c-1.1-0.5-2.2-0.9-3.1-1.5
		c-0.9-0.5-1.7-1.1-2.4-1.6c-0.6-0.5-1.2-1.1-1.6-1.7c-0.3-0.6-0.6-1.2-0.8-1.8l-0.2-0.6l0.1-0.6l0.2-0.6l0.2-0.6l0.3-0.6l0.5-0.5
		l0.5-0.5l0.6-0.5l0.7-0.5l0.9-0.5l0.9-0.5l1-0.5l1-0.5l1.2-0.5l1.2-0.5c1.2-0.5,2.7-0.9,4.1-1.2c1.5-0.4,3-0.7,4.6-1.1
		c1.6-0.3,3.4-0.6,5.1-0.9c1.8-0.2,3.7-0.5,5.5-0.6c2-0.2,3.9-0.3,5.9-0.4c2.9-0.1,5.9-0.2,8.7-0.1c3.7,0.1,7.3,0.3,10.8,0.6
		c3.4,0.4,6.6,0.9,9.6,1.5l0.7,0.2l0.5,0.1c5.8-1.2,12.7-2.1,20-2.3c4.3-0.2,8.7-0.1,12.9,0.2c3.8,0.2,7.4,0.6,10.8,1.2
		c1.6,0.2,3.2,0.5,4.8,0.9c2.6-0.5,5.5-1,8.4-1.4c5.7-0.7,12.1-1,18.3-0.9c2,0.1,4,0.2,5.9,0.2c4.6,0.3,9.1,0.9,13.1,1.6
		c0.9,0.2,1.8,0.3,2.6,0.5c4-0.9,8.5-1.6,13.3-2c3.6-0.3,7.3-0.5,11-0.5h2.1l2.1,0.1l2.1,0.1c2,0.1,4,0.2,6,0.4
		c1.9,0.2,3.7,0.4,5.5,0.6c1.7,0.2,3.4,0.5,5.1,0.9c1.6,0.3,3.1,0.7,4.5,1.1c1.4,0.4,2.7,0.8,4,1.2c1.2,0.5,2.3,0.9,3.4,1.4l0.9,0.5
		l0.9,0.5L264,30l0.8,0.6l0.6,0.5l0.5,0.5c0.5,0.6,0.8,1.2,1,1.8c0.2,0.6,0.2,1.2,0.2,1.9c-0.2,0.6-0.4,1.2-0.8,1.8l-0.5,0.5
		l-0.5,0.5l-0.6,0.5c-0.7,0.5-1.6,1.1-2.4,1.6c-1.3,0.7-2.7,1.3-4.4,1.9c-1.2,0.5-2.6,0.9-4.1,1.2l-1.5,0.4L250.8,44.4L250.8,44.4z"
		/>
	<path class="st2" d="M106.3,41.5c-6-1.8-9.4-4.1-9.4-6.7c0-2.6,3.2-4.8,8.7-6.6c5.4,1.7,8.7,4.1,8.7,6.6c0,1.8-1.2,3.3-4,4.7
		c4.1-3.9,3-6.6-2.1-8.9c0.9,0.4,3.4,2.6,3,4.2c0,1.8-1.9,3.5-5.1,4.9L106.3,41.5L106.3,41.5z M265.9,34.8
		c0,6.4-17.6,11.6-39.3,11.6c-9.1,0-17.4-0.9-24.2-2.5c-6.9,1.6-15.2,2.5-24.4,2.5c-9,0-17.3-0.9-24.2-2.4c-6.9,1.5-15.1,2.4-24,2.4
		c-9.1,0-17.4-0.9-24.2-2.5c-6.8,1.6-15.2,2.5-24.4,2.5c-21.6,0-39.3-5.2-39.3-11.6s17.7-11.6,39.3-11.6c9.1,0,17.5,0.9,24.3,2.5
		c6.8-1.6,15.2-2.5,24.3-2.5c9.1,0,17.4,0.9,24.1,2.4c6.9-1.6,15.4-2.4,24-2.4c9.1,0,17.5,0.9,24.3,2.5c6.8-1.6,15.2-2.5,24.3-2.5
		C249.1,23.2,265.9,28.4,265.9,34.8L265.9,34.8z M226.7,24.3c-6.6,0-12.7,0.5-18,1.6c8.7-2,22.5-2.5,38.4-0.9
		c-5.7-1-13.1-1.7-20.4-1.7c-9.2,0-17.7,1-24.4,2.6l0.1,1.3c-6.3-1.8-14.9-2.9-24.4-2.9c-6.4,0-12.6,0.5-18,1.6
		c8.6-2,22.5-2.5,38.3-0.9c-5.7-1-13.1-1.7-20.4-1.7c-9.1,0-17.4,0.9-24,2.5v1.4c-6.3-1.8-14.8-2.9-24.1-2.9c-6.4,0-12.6,0.5-18,1.6
		c8.6-2,22.5-2.5,38.4-0.9c-5.7-1-13.1-1.7-20.4-1.7c-9.1,0-17.7,1-24.4,2.6l0.1,1.3c-6.2-1.7-14.8-2.9-24.2-2.9
		c-6.4,0-12.6,0.5-18,1.6c8.7-2,22.5-2.5,38.4-0.9c-5.7-1-13.1-1.7-20.4-1.7c-21.2,0-38.5,5.2-38.5,11.4c0,2.2,2.6,4.6,6.9,6.5
		c-8.8-5.1-4.4-9,1.2-11.4c-2.2,1.4-5,3.4-4.8,5c0.5,5.7,15.8,10.4,35.1,10.4c9.8,0,18.1-1,24.6-3c6.5,2,14,3,24,3
		c9.1,0,17.9-1.1,24.3-3c6.2,1.9,14.4,3,24,3c9.8,0,18.1-1,24.6-3c6.5,2,14,3,24,3c19.4,0,35.1-4.7,35.1-10.4S245.9,24.3,226.7,24.3
		L226.7,24.3z M149.5,41.5c-5.4,1.4-12.3,2.2-19.5,2.2c-7,0-10.2-0.4-13.2-0.9c8.6,2,27.7,1.2,32.6,0c-5.3,1.2-12,1.8-19.4,1.8
		c-9.1,0-16.7-1-22.7-2.7c6.2-1.9,9.3-4.2,9.3-7c0-2.7-3.7-5.2-9.5-7.1c4.5-1.3,13.4-2.7,22.9-2.7c8.7,0,16.8,1.2,22.7,2.8h-4.4
		c-5.5,2-8.6,4.2-8.6,6.9c0,2.2,2.6,4.6,6.9,6.5c-8.8-5.2-4.4-9.1,1.2-11.5c-2.2,1.4-4.9,3.4-4.8,5c0.2,2.6,4.1,4.9,9.4,6.7
		L149.5,41.5L149.5,41.5z M154.1,41.3c-5.5-1.7-8.8-4-8.8-6.6s3.4-4.9,8.9-6.6c5.6,1.7,8.8,4.1,8.8,6.6c0,1.8-1.2,3.3-4,4.7
		c4.1-3.9,3-6.6-2.1-8.9c0.9,0.4,3.4,2.6,3,4.2c0,1.9-2,3.6-5.4,5.1L154.1,41.3L154.1,41.3z M155.8,41.8c5.9-1.9,9.3-4.3,9.3-7
		c0-2.7-3.4-5.1-9.3-6.9c5.9-1.7,13.5-2.8,22.4-2.8c8.6,0,16.6,0.9,22.5,2.6h-3.7c-5.6,2-8.7,4.6-8.7,7.2c0,2.2,2.6,4.6,6.9,6.5
		c-8.8-5.2-4.4-9.1,1.2-11.5c-2.2,1.4-4.9,3.4-4.8,5c0.2,2.7,3.3,5,9.2,6.9l-3.4-0.1c-5.2,1.3-11.9,2.1-19.3,2.1
		c-7,0-9.9-0.5-13.2-0.9c8.6,2,27.7,1.2,32.6,0c-5.3,1.2-12,1.8-19.4,1.8C168.7,44.6,161.9,43.5,155.8,41.8L155.8,41.8z M161.4,41.7
		c4.7,1,10.5,1.6,16.7,1.6s12.3-0.6,17-1.6c-4.7-2-7.7-4.4-7.7-6.9c0-2.6,2.8-4.9,7.6-6.9c-4.8-1.1-10.8-1.6-16.9-1.6
		c-6.2,0-11.9,0.5-16.6,1.6c4.5,1.9,7.6,4.4,7.6,6.9C169.1,37.3,166.1,39.8,161.4,41.7L161.4,41.7z M154.1,39.4c3-1.4,4.5-3,4.5-4.6
		c0-1.7-1.6-3.4-4.7-4.6c-2.9,1.4-4.8,3-4.8,4.6C149.3,36.4,151.4,38.1,154.1,39.4z M146.6,41.7c-4.8-2-7.7-4.4-7.7-6.9
		c0-2.5,2.7-4.9,7.8-6.9c-4.7-0.9-10.7-1.6-16.8-1.6c-7.3-0.2-15.3,1.1-16.5,1.7c4.4,1.9,7.1,4.4,7.1,6.9c0,2.6-2.8,4.9-7.6,6.9
		c4.7,1.1,10.5,1.7,16.9,1.7C136.1,43.3,141.9,42.8,146.6,41.7L146.6,41.7z M104,41.7l-3.4-0.1c-5.2,1.2-11.9,2-19.2,2
		c-7,0-9.1-0.5-13.2-0.9c8.6,2,27.7,1.2,32.6,0c-5.4,1.2-12.1,1.8-19.4,1.8c-18.1,0-32.9-4.4-32.9-9.8S63.3,25,81.4,25
		C90,25,98,26,103.9,27.6h-3.8c-5.4,2-8.7,4.4-8.7,7.2c0,2.2,2.6,4.6,6.9,6.5c-8.8-5.2-4.4-9.1,1.2-11.5c-2.2,1.4-4.9,3.4-4.8,5
		C95,37.5,98,39.8,104,41.7L104,41.7z M105.8,39.3c2.9-1.3,4.4-2.9,4.4-4.5s-1.6-3.2-4.4-4.5c-2.8,1.3-4.6,2.9-4.6,4.5
		C101.1,36.4,103,38,105.8,39.3L105.8,39.3z M98.4,41.7c-4.7-2-7.7-4.4-7.7-6.9c0-2.6,2.8-4.9,7.6-6.9c-4.8-1.1-10.8-1.6-16.9-1.6
		c-15.8,0-28.8,3.8-28.8,8.5s13,8.5,28.8,8.5C87.6,43.3,93.7,42.7,98.4,41.7L98.4,41.7z M203.1,41.5c-6-1.8-9.4-4.1-9.4-6.7
		c0-2.6,3.2-4.8,8.7-6.6c5.4,1.7,8.7,4.1,8.7,6.6c0,1.8-1.2,3.3-4,4.7c4.1-3.9,3-6.6-2.1-8.9c0.9,0.4,3.4,2.6,3,4.2
		c0,1.8-1.9,3.5-5.1,4.9L203.1,41.5L203.1,41.5z M203.9,41.8c6.2-1.9,9.3-4.2,9.3-7c0-2.7-3.7-5.2-9.5-7.1
		c4.5-1.3,13.4-2.7,22.9-2.7c18.1,0,32.9,4.4,32.9,9.8c0,1.8-1.2,3.3-3.9,4.7c4.1-3.9,3-6.6-2.1-8.9c0.9,0.4,3.4,2.6,3,4.2
		c0,4.8-13.4,8.8-29.8,8.8c-7,0-10.2-0.4-13.2-0.9c8.6,2,27.7,1.2,32.6,0c-5.3,1.2-12,1.8-19.4,1.8
		C217.6,44.6,209.9,43.5,203.9,41.8z M209.8,41.7c4.7,1.1,10.6,1.7,16.9,1.7c15.8,0,28.8-3.8,28.8-8.5c0-4.7-13-8.5-28.8-8.5
		c-7.3-0.2-15.3,1.1-16.5,1.7c4.4,1.9,7.1,4.4,7.1,6.9C217.4,37.3,214.6,39.7,209.8,41.7L209.8,41.7z M202.5,39.3
		c2.8-1.3,4.4-2.9,4.4-4.5s-1.6-3.2-4.4-4.5c-2.8,1.3-4.6,2.9-4.6,4.5C197.8,36.4,199.8,38,202.5,39.3z"/>
</g>
</svg>
