<?xml version="1.0" encoding="utf-8"?>
<!-- Generator: Adobe Illustrator 25.4.1, SVG Export Plug-In . SVG Version: 6.00 Build 0)  -->
<svg version="1.1" id="Layer_1" xmlns="http://www.w3.org/2000/svg" xmlns:xlink="http://www.w3.org/1999/xlink" x="0px" y="0px"
	 width="308" height="87" viewBox="0 0 308 87" style="enable-background:new 0 0 308 87;" xml:space="preserve">
<style type="text/css">
	.st0{fill:url(#SVGID_1_);}
	.st1{fill:#333333;}
	.st2{fill:url(#SVGID_00000149382220564002307270000014286668946811732136_);}
	.st3{fill:url(#SVGID_00000127741041023622599270000006312572205305981368_);}
	.st4{fill:url(#SVGID_00000181787714473059333510000007650720667432829312_);}
	.st5{fill:url(#SVGID_00000069356496885245633270000001042338693273421748_);}
	.st6{fill:url(#SVGID_00000134945294986066448940000001040367162012082342_);}
	.st7{fill:url(#SVGID_00000128452031924951595310000001485809750862983046_);}
	.st8{fill:url(#SVGID_00000018917135704531428780000016772753402494800570_);}
	.st9{fill:url(#SVGID_00000067204403820020005040000017743845358133089707_);}
	.st10{fill:url(#SVGID_00000167385043500877446310000001223378526941804680_);}
	.st11{fill:url(#SVGID_00000009592326497838582460000014545464276632925367_);}
	.st12{fill:url(#SVGID_00000011711624058696396980000000427998226705205393_);}
	.st13{fill:#C2D7E8;}
	.st14{fill:url(#SVGID_00000058588279152510298590000002432947830801420695_);}
	.st15{fill:#12404F;}
	.st16{fill:url(#SVGID_00000082361255602030539950000003747873291169264059_);}
	.st17{fill:url(#SVGID_00000167390317074376043260000010582141279006419347_);}
	.st18{fill:url(#SVGID_00000111165558960599986650000001446436906963711637_);}
	.st19{fill:url(#SVGID_00000013189215262053207790000015240467495652821161_);}
</style>
<g>
	
		<linearGradient id="SVGID_1_" gradientUnits="userSpaceOnUse" x1="-896.6885" y1="-1948.3004" x2="-856.9534" y2="-1909.9033" gradientTransform="matrix(2.4662 0 0 2.4662 2312.4404 4797.1758)">
		<stop  offset="0" style="stop-color:#DFF4FF"/>
		<stop  offset="9.800000e-02" style="stop-color:#D6EAF5"/>
		<stop  offset="0.268" style="stop-color:#BFD0D9"/>
		<stop  offset="0.488" style="stop-color:#98A5AC"/>
		<stop  offset="0.747" style="stop-color:#646B6E"/>
		<stop  offset="1" style="stop-color:#2B2B2B"/>
	</linearGradient>
	<path class="st0" d="M154,10.3c-30.7,0-55.6,14.9-55.6,33.2c0,18.4,24.9,33.2,55.6,33.2c30.7,0,55.6-14.9,55.6-33.2
		C209.6,25.1,184.7,10.3,154,10.3z M154,75.1c-29.2,0-52.8-14.1-52.8-31.6c0-17.4,23.6-31.6,52.8-31.6c29.2,0,52.8,14.1,52.8,31.6
		C206.8,60.9,183.2,75.1,154,75.1z"/>
	<path class="st1" d="M207.2,43.5c0,17.6-23.8,31.8-53.2,31.8c-29.4,0-53.2-14.2-53.2-31.8c0-17.6,23.8-31.8,53.2-31.8
		C183.4,11.7,207.2,25.9,207.2,43.5z"/>
	
		<radialGradient id="SVGID_00000131336258901468977670000001547699113654007726_" cx="-8010.7441" cy="-11892.04" r="449.8516" gradientTransform="matrix(0.1756 0 0 0.105 1504.4602 1260.7682)" gradientUnits="userSpaceOnUse">
		<stop  offset="0" style="stop-color:#FFFFFF"/>
		<stop  offset="0.306" style="stop-color:#A8A8A8"/>
		<stop  offset="0.646" style="stop-color:#4F4F4F"/>
		<stop  offset="0.885" style="stop-color:#161616"/>
		<stop  offset="1" style="stop-color:#000000"/>
	</radialGradient>
	<path style="fill:url(#SVGID_00000131336258901468977670000001547699113654007726_);" d="M206.8,43.5c0,17.4-23.6,31.6-52.8,31.6
		c-29.2,0-52.8-14.1-52.8-31.6c0-17.4,23.6-31.6,52.8-31.6C183.2,11.9,206.8,26.1,206.8,43.5z"/>
	
		<linearGradient id="SVGID_00000055704915040188762590000014346460655713748610_" gradientUnits="userSpaceOnUse" x1="-125.4775" y1="-592.3543" x2="-100.1704" y2="-567.8993" gradientTransform="matrix(-2.4662 0 0 -2.4662 -121.7278 -1384.7609)">
		<stop  offset="0" style="stop-color:#DFF4FF"/>
		<stop  offset="8.600000e-02" style="stop-color:#D6EAF5"/>
		<stop  offset="0.233" style="stop-color:#BED0D9"/>
		<stop  offset="0.424" style="stop-color:#96A4AC"/>
		<stop  offset="0.652" style="stop-color:#5F686D"/>
		<stop  offset="0.907" style="stop-color:#1A1D1E"/>
		<stop  offset="1" style="stop-color:#000000"/>
	</linearGradient>
	<path style="fill:url(#SVGID_00000055704915040188762590000014346460655713748610_);" d="M189.4,43.5c0,11.7-15.9,21.2-35.4,21.2
		c-19.6,0-35.4-9.5-35.4-21.2c0-11.7,15.9-21.2,35.4-21.2C173.6,22.3,189.4,31.8,189.4,43.5z"/>
	<path d="M155.4,21.8l3.7-5.8v5.8h2.8v-8.3h-4.2l-3.8,6h0l-3.8-6h-4.2v8.3h2.8v-5.8l3.7,5.8H155.4z M193.8,25.5l-4.8,4.2l7.5-2.2
		l2,1.5l-11.8,3.5l-2.4-1.7l4.6-4.1l0,0l-7.6,1.9l-2.4-1.7l8-6.3l2,1.5l-5,4l7.7-2.1L193.8,25.5z"/>
	<path class="st1" d="M129.3,23.9c-1.1-0.7-2.9-0.8-4.5-0.2c0.3-0.5,0.2-1,0-1.2c-0.7-0.8-1-0.9-1.5-1.2c-1.9-0.9-3.8-0.1-5.3,0.9
		l-6.8,4.9l10.7,5.4l7.2-5.1C130.7,26.1,131,24.9,129.3,23.9L129.3,23.9z M115.4,26.2l4.1-2.9c0.5-0.3,1.5-0.3,2.2,0
		c0.8,0.4,0.8,0.9,0.3,1.3l-4,2.9L115.4,26.2L115.4,26.2z M126.7,26.7l-4.3,3l-2.7-1.3l4.3-3.1c0.5-0.3,1.6-0.4,2.3-0.1
		C127.2,25.7,127.3,26.3,126.7,26.7L126.7,26.7z"/>
	
		<radialGradient id="SVGID_00000015319142668490657370000009552694785020974990_" cx="-8091.5356" cy="-11937.8516" r="1080.9269" gradientTransform="matrix(0.1756 0 0 0.105 1504.4602 1260.7682)" gradientUnits="userSpaceOnUse">
		<stop  offset="0" style="stop-color:#FFFFFF"/>
		<stop  offset="0.31" style="stop-color:#FDFDFD"/>
		<stop  offset="0.451" style="stop-color:#F6F6F6"/>
		<stop  offset="0.557" style="stop-color:#E9E9E9"/>
		<stop  offset="0.646" style="stop-color:#D7D7D7"/>
		<stop  offset="0.724" style="stop-color:#BFBFBF"/>
		<stop  offset="0.794" style="stop-color:#A2A2A2"/>
		<stop  offset="0.859" style="stop-color:#808080"/>
		<stop  offset="0.92" style="stop-color:#575757"/>
		<stop  offset="0.975" style="stop-color:#2B2B2B"/>
		<stop  offset="1" style="stop-color:#141414"/>
	</radialGradient>
	<path style="fill:url(#SVGID_00000015319142668490657370000009552694785020974990_);" d="M155.4,21.4l3.7-5.8v5.8h2.8v-8.3h-4.2
		l-3.8,6h0l-3.8-6h-4.2v8.3h2.8v-5.8l3.7,5.8H155.4z"/>
	
		<radialGradient id="SVGID_00000026882716471250753510000016119501485617651840_" cx="-8091.584" cy="-11937.8516" r="1081.0194" gradientTransform="matrix(0.1756 0 0 0.105 1504.4602 1260.7682)" gradientUnits="userSpaceOnUse">
		<stop  offset="0" style="stop-color:#FFFFFF"/>
		<stop  offset="0.31" style="stop-color:#FDFDFD"/>
		<stop  offset="0.451" style="stop-color:#F6F6F6"/>
		<stop  offset="0.557" style="stop-color:#E9E9E9"/>
		<stop  offset="0.646" style="stop-color:#D7D7D7"/>
		<stop  offset="0.724" style="stop-color:#BFBFBF"/>
		<stop  offset="0.794" style="stop-color:#A2A2A2"/>
		<stop  offset="0.859" style="stop-color:#808080"/>
		<stop  offset="0.92" style="stop-color:#575757"/>
		<stop  offset="0.975" style="stop-color:#2B2B2B"/>
		<stop  offset="1" style="stop-color:#141414"/>
	</radialGradient>
	<path style="fill:url(#SVGID_00000026882716471250753510000016119501485617651840_);" d="M193.8,24.9l-4.8,4.2l7.5-2.2l2,1.5
		l-11.8,3.5l-2.4-1.7l4.6-4.1l0,0l-7.6,1.9l-2.4-1.7l8-6.3l2,1.5l-5,4l7.7-2.1L193.8,24.9z"/>
	
		<radialGradient id="SVGID_00000137120351159352329160000017276074290721611957_" cx="-17642.9199" cy="-24644.3672" r="2668.0164" gradientTransform="matrix(7.120711e-02 0 0 4.256395e-02 1339.798 1056.5814)" gradientUnits="userSpaceOnUse">
		<stop  offset="0" style="stop-color:#FFFFFF"/>
		<stop  offset="0.31" style="stop-color:#FDFDFD"/>
		<stop  offset="0.451" style="stop-color:#F6F6F6"/>
		<stop  offset="0.557" style="stop-color:#E9E9E9"/>
		<stop  offset="0.646" style="stop-color:#D7D7D7"/>
		<stop  offset="0.724" style="stop-color:#BFBFBF"/>
		<stop  offset="0.794" style="stop-color:#A2A2A2"/>
		<stop  offset="0.859" style="stop-color:#808080"/>
		<stop  offset="0.92" style="stop-color:#575757"/>
		<stop  offset="0.975" style="stop-color:#2B2B2B"/>
		<stop  offset="1" style="stop-color:#141414"/>
	</radialGradient>
	<path style="fill:url(#SVGID_00000137120351159352329160000017276074290721611957_);" d="M128.8,23.7c-1.1-0.7-2.9-0.8-4.5-0.2
		c0.3-0.5,0.2-1,0-1.2c-0.7-0.8-0.9-0.9-1.5-1.2c-1.9-0.9-3.8-0.1-5.3,0.9l-6.8,4.9l10.7,5.4l7.2-5.1
		C130.2,25.9,130.5,24.7,128.8,23.7L128.8,23.7z M114.9,26.1l4.1-2.9c0.5-0.3,1.5-0.3,2.2,0c0.8,0.4,0.8,0.9,0.2,1.3l-4,2.9
		L114.9,26.1L114.9,26.1z M126.2,26.6l-4.3,3l-2.7-1.3l4.3-3.1c0.5-0.3,1.6-0.4,2.3-0.1C126.7,25.5,126.8,26.2,126.2,26.6
		L126.2,26.6z"/>
	
		<radialGradient id="SVGID_00000145760297448265796710000002454875277592449209_" cx="-7897.9419" cy="-11787.9961" r="291.5588" gradientTransform="matrix(0.1756 0 0 0.105 1504.4602 1260.7682)" gradientUnits="userSpaceOnUse">
		<stop  offset="0" style="stop-color:#E6E6E6"/>
		<stop  offset="0.104" style="stop-color:#D6D6D6"/>
		<stop  offset="0.307" style="stop-color:#ADADAD"/>
		<stop  offset="0.588" style="stop-color:#6C6C6C"/>
		<stop  offset="0.933" style="stop-color:#121212"/>
		<stop  offset="1" style="stop-color:#000000"/>
	</radialGradient>
	<path style="fill:url(#SVGID_00000145760297448265796710000002454875277592449209_);" d="M119.8,43.5c0-11.3,15.3-20.5,34.2-20.5
		c18.9,0,34.2,9.2,34.2,20.5c0,11.3-15.3,20.5-34.2,20.5C135.1,64,119.8,54.8,119.8,43.5L119.8,43.5z"/>
	
		<radialGradient id="SVGID_00000060007716417096419920000000713483673160047282_" cx="-7818.1968" cy="-11748.7812" r="424.0103" gradientTransform="matrix(0.1756 0 0 0.105 1504.4602 1260.7682)" gradientUnits="userSpaceOnUse">
		<stop  offset="0" style="stop-color:#FFFFFF"/>
		<stop  offset="0.344" style="stop-color:#FDFDFD"/>
		<stop  offset="0.481" style="stop-color:#F6F6F6"/>
		<stop  offset="0.582" style="stop-color:#EAEAEA"/>
		<stop  offset="0.665" style="stop-color:#D8D8D8"/>
		<stop  offset="0.737" style="stop-color:#C2C2C2"/>
		<stop  offset="0.802" style="stop-color:#A6A6A6"/>
		<stop  offset="0.86" style="stop-color:#848484"/>
		<stop  offset="0.913" style="stop-color:#5F5F5F"/>
		<stop  offset="0.949" style="stop-color:#404040"/>
		<stop  offset="0.957" style="stop-color:#404040"/>
		<stop  offset="1" style="stop-color:#404040"/>
		<stop  offset="1" style="stop-color:#000000"/>
	</radialGradient>
	<path style="fill:url(#SVGID_00000060007716417096419920000000713483673160047282_);" d="M120.7,43.5c0-11,14.9-19.9,33.3-19.9
		s33.3,8.9,33.3,19.9S172.4,63.4,154,63.4S120.7,54.5,120.7,43.5z"/>
	
		<radialGradient id="SVGID_00000136405176516660582000000014013126883783543939_" cx="-7942.6924" cy="-11909.5078" r="750.9272" gradientTransform="matrix(0.1756 0 0 0.105 1504.4602 1260.7682)" gradientUnits="userSpaceOnUse">
		<stop  offset="0.169" style="stop-color:#FFFFFF"/>
		<stop  offset="0.196" style="stop-color:#E0EFF7"/>
		<stop  offset="0.241" style="stop-color:#B2D9EC"/>
		<stop  offset="0.287" style="stop-color:#8BC5E2"/>
		<stop  offset="0.335" style="stop-color:#6BB5DA"/>
		<stop  offset="0.384" style="stop-color:#52A9D4"/>
		<stop  offset="0.436" style="stop-color:#41A0CF"/>
		<stop  offset="0.491" style="stop-color:#369BCD"/>
		<stop  offset="0.556" style="stop-color:#3399CC"/>
		<stop  offset="0.606" style="stop-color:#3396C8"/>
		<stop  offset="0.655" style="stop-color:#328EBC"/>
		<stop  offset="0.705" style="stop-color:#3180A8"/>
		<stop  offset="0.754" style="stop-color:#2F6D8C"/>
		<stop  offset="0.803" style="stop-color:#2D5468"/>
		<stop  offset="0.851" style="stop-color:#2A373D"/>
		<stop  offset="0.871" style="stop-color:#292929"/>
	</radialGradient>
	<path style="fill:url(#SVGID_00000136405176516660582000000014013126883783543939_);" d="M120.7,43.5H154V23.6
		C135.6,23.6,120.7,32.5,120.7,43.5L120.7,43.5z"/>
	
		<radialGradient id="SVGID_00000124119958799607315240000009334499849969122438_" cx="-7942.6924" cy="-11909.5137" r="750.9127" gradientTransform="matrix(0.1756 0 0 0.105 1504.4602 1260.7682)" gradientUnits="userSpaceOnUse">
		<stop  offset="0.169" style="stop-color:#FFFFFF"/>
		<stop  offset="0.196" style="stop-color:#E0EFF7"/>
		<stop  offset="0.241" style="stop-color:#B2D9EC"/>
		<stop  offset="0.287" style="stop-color:#8BC5E2"/>
		<stop  offset="0.335" style="stop-color:#6BB5DA"/>
		<stop  offset="0.384" style="stop-color:#52A9D4"/>
		<stop  offset="0.436" style="stop-color:#41A0CF"/>
		<stop  offset="0.491" style="stop-color:#369BCD"/>
		<stop  offset="0.556" style="stop-color:#3399CC"/>
		<stop  offset="0.606" style="stop-color:#3396C8"/>
		<stop  offset="0.655" style="stop-color:#328EBC"/>
		<stop  offset="0.705" style="stop-color:#3180A8"/>
		<stop  offset="0.754" style="stop-color:#2F6D8C"/>
		<stop  offset="0.803" style="stop-color:#2D5468"/>
		<stop  offset="0.851" style="stop-color:#2A373D"/>
		<stop  offset="0.871" style="stop-color:#292929"/>
	</radialGradient>
	<path style="fill:url(#SVGID_00000124119958799607315240000009334499849969122438_);" d="M154,43.5v19.9c18.4,0,33.3-8.9,33.3-19.9
		L154,43.5L154,43.5z"/>
	
		<radialGradient id="SVGID_00000107579438107145224480000008703293792958958752_" cx="-7893.96" cy="-11784.3232" r="285.9709" gradientTransform="matrix(0.1756 0 0 0.105 1504.4602 1260.7682)" gradientUnits="userSpaceOnUse">
		<stop  offset="0" style="stop-color:#E6E6E6"/>
		<stop  offset="0.104" style="stop-color:#D6D6D6"/>
		<stop  offset="0.307" style="stop-color:#ADADAD"/>
		<stop  offset="0.588" style="stop-color:#6C6C6C"/>
		<stop  offset="0.933" style="stop-color:#121212"/>
		<stop  offset="1" style="stop-color:#000000"/>
	</radialGradient>
	<path style="fill:url(#SVGID_00000107579438107145224480000008703293792958958752_);" d="M187.6,43.1h-33V23.4h-1.2v19.7h-33v0.7
		h33v19.7h1.2V43.9h33V43.1z"/>
	
		<linearGradient id="SVGID_00000144335785825269540680000016843151386792707726_" gradientUnits="userSpaceOnUse" x1="-876.4681" y1="-1940.4919" x2="-860.5355" y2="-1925.0958" gradientTransform="matrix(2.4662 0 0 2.4662 2312.4404 4797.1758)">
		<stop  offset="0" style="stop-color:#F0F4FF"/>
		<stop  offset="0.109" style="stop-color:#EBEFF9"/>
		<stop  offset="0.247" style="stop-color:#DCE0EA"/>
		<stop  offset="0.403" style="stop-color:#C4C7CF"/>
		<stop  offset="0.57" style="stop-color:#A2A4AB"/>
		<stop  offset="0.747" style="stop-color:#76777C"/>
		<stop  offset="0.929" style="stop-color:#414243"/>
		<stop  offset="1" style="stop-color:#2B2B2B"/>
	</linearGradient>
	<path style="fill:url(#SVGID_00000144335785825269540680000016843151386792707726_);" d="M154.6,24c17.6,0.2,31.7,8.7,32.1,19.2
		h0.6c-0.3-10.7-14.8-19.3-32.6-19.5L154.6,24z"/>
	<path class="st13" d="M121.3,43.1c0.3-10.5,14.5-19,32.1-19.2v-0.4c-17.9,0.2-32.4,8.8-32.7,19.5L121.3,43.1z"/>
	
		<linearGradient id="SVGID_00000176725288114514108240000002634231833682718367_" gradientUnits="userSpaceOnUse" x1="-891.1885" y1="-1931.2544" x2="-875.2558" y2="-1915.858" gradientTransform="matrix(2.4662 0 0 2.4662 2312.4404 4797.1758)">
		<stop  offset="0" style="stop-color:#F0F4FF"/>
		<stop  offset="0.109" style="stop-color:#EBEFF9"/>
		<stop  offset="0.247" style="stop-color:#DCE0EA"/>
		<stop  offset="0.403" style="stop-color:#C4C7CF"/>
		<stop  offset="0.57" style="stop-color:#A2A4AB"/>
		<stop  offset="0.747" style="stop-color:#76777C"/>
		<stop  offset="0.929" style="stop-color:#414243"/>
		<stop  offset="1" style="stop-color:#2B2B2B"/>
	</linearGradient>
	<path style="fill:url(#SVGID_00000176725288114514108240000002634231833682718367_);" d="M153.4,63c-17.6-0.2-31.7-8.7-32.1-19.2
		h-0.6c0.3,10.7,14.8,19.3,32.6,19.5L153.4,63L153.4,63z"/>
	<path class="st15" d="M186.6,43.9c-0.3,10.5-14.5,19-32.1,19.2v0.4c17.9-0.2,32.3-8.8,32.6-19.5H186.6L186.6,43.9z"/>
	
		<linearGradient id="SVGID_00000118364918716111350380000016515721974792500101_" gradientUnits="userSpaceOnUse" x1="-885.6661" y1="-1935.1233" x2="-875.4448" y2="-1925.2461" gradientTransform="matrix(2.4662 0 0 2.4662 2312.4404 4797.1758)">
		<stop  offset="0" style="stop-color:#C2D7E8"/>
		<stop  offset="0.134" style="stop-color:#BACFE1"/>
		<stop  offset="0.343" style="stop-color:#A4BACD"/>
		<stop  offset="0.6" style="stop-color:#8098AC"/>
		<stop  offset="0.894" style="stop-color:#4E697F"/>
		<stop  offset="1" style="stop-color:#3A566D"/>
	</linearGradient>
	<path style="fill:url(#SVGID_00000118364918716111350380000016515721974792500101_);" d="M152.8,23.6v19.2h-32v0.4h32.7V23.6H152.8
		z"/>
	
		<linearGradient id="SVGID_00000176004792810755082780000003716128347597718656_" gradientUnits="userSpaceOnUse" x1="-888.6495" y1="-1933.7074" x2="-872.8731" y2="-1918.4623" gradientTransform="matrix(2.4662 0 0 2.4662 2312.4404 4797.1758)">
		<stop  offset="0" style="stop-color:#F0F4FF"/>
		<stop  offset="9.700001e-02" style="stop-color:#E8EBF6"/>
		<stop  offset="0.257" style="stop-color:#D1D4DD"/>
		<stop  offset="0.459" style="stop-color:#ABAEB5"/>
		<stop  offset="0.695" style="stop-color:#78797D"/>
		<stop  offset="0.958" style="stop-color:#363637"/>
		<stop  offset="1" style="stop-color:#2B2B2B"/>
	</linearGradient>
	<path style="fill:url(#SVGID_00000176004792810755082780000003716128347597718656_);" d="M152.7,63.2V44.3H121v-0.4h32.4v19.3
		H152.7z"/>
	
		<linearGradient id="SVGID_00000049212815075200537940000004885244147743872947_" gradientUnits="userSpaceOnUse" x1="-873.7531" y1="-1928.6464" x2="-866.9083" y2="-1922.032" gradientTransform="matrix(2.4662 0 0 2.4662 2312.4404 4797.1758)">
		<stop  offset="0" style="stop-color:#D9DEF0"/>
		<stop  offset="0.123" style="stop-color:#D4DAEC"/>
		<stop  offset="0.263" style="stop-color:#C7CFE2"/>
		<stop  offset="0.411" style="stop-color:#B0BCD1"/>
		<stop  offset="0.566" style="stop-color:#90A1B8"/>
		<stop  offset="0.725" style="stop-color:#677F99"/>
		<stop  offset="0.885" style="stop-color:#355674"/>
		<stop  offset="0.972" style="stop-color:#173D5D"/>
	</linearGradient>
	<path style="fill:url(#SVGID_00000049212815075200537940000004885244147743872947_);" d="M155.3,63.2V44.3h31.7v-0.4h-32.3v19.3
		H155.3z"/>
	
		<linearGradient id="SVGID_00000042009922005078765380000012808875294296344194_" gradientUnits="userSpaceOnUse" x1="-878.8431" y1="-1937.8829" x2="-863.0879" y2="-1922.6582" gradientTransform="matrix(2.4662 0 0 2.4662 2312.4404 4797.1758)">
		<stop  offset="0" style="stop-color:#F0F4FF"/>
		<stop  offset="0.109" style="stop-color:#EBEFF9"/>
		<stop  offset="0.247" style="stop-color:#DCE0EA"/>
		<stop  offset="0.403" style="stop-color:#C4C7CF"/>
		<stop  offset="0.57" style="stop-color:#A2A4AB"/>
		<stop  offset="0.747" style="stop-color:#76777C"/>
		<stop  offset="0.929" style="stop-color:#414243"/>
		<stop  offset="1" style="stop-color:#2B2B2B"/>
	</linearGradient>
	<path style="fill:url(#SVGID_00000042009922005078765380000012808875294296344194_);" d="M155.3,23.8v18.9h31.7v0.4h-32.3V23.8
		H155.3z"/>
</g>
</svg>
