<?xml version="1.0" encoding="utf-8"?>
<!-- Generator: Adobe Illustrator 25.4.1, SVG Export Plug-In . SVG Version: 6.00 Build 0)  -->
<svg version="1.1" id="Layer_1" xmlns="http://www.w3.org/2000/svg" xmlns:xlink="http://www.w3.org/1999/xlink" x="0px" y="0px"
	 viewBox="0 0 308 87" style="enable-background:new 0 0 308 87;" xml:space="preserve">
<style type="text/css">
	.st0{fill:#C9C9CA;}
	.st1{fill:url(#SVGID_1_);}
	.st2{fill:url(#SVGID_00000164485400319150019960000002372181112214536085_);}
	.st3{fill:url(#SVGID_00000116230608873800805120000012263001657992989062_);}
	.st4{fill:url(#SVGID_00000024724387558218207350000005540979596917996174_);}
	.st5{fill:url(#SVGID_00000041274031327418670560000005383026581637502884_);}
	.st6{fill:url(#SVGID_00000111905658100165141770000003288168856095535018_);}
	.st7{fill:url(#SVGID_00000073701547766342422350000016653561900467543947_);}
	.st8{fill:url(#SVGID_00000145755984848662587930000000217556659439675820_);}
	.st9{fill:url(#SVGID_00000019647796804544381740000004341369710663022513_);}
	.st10{fill:url(#SVGID_00000085964837726884622660000001768571683209540011_);}
	.st11{fill:url(#SVGID_00000147198841249459588520000005436271144415687814_);}
	.st12{fill:url(#SVGID_00000159453300176131331770000013666256229083342490_);}
	.st13{fill:url(#SVGID_00000003786058618193914380000004828510885699006603_);}
	.st14{fill:url(#SVGID_00000088845970354819243570000003194801419511624103_);}
	.st15{fill:url(#SVGID_00000166636613420845305220000001440341582998725803_);}
	.st16{fill:url(#SVGID_00000095313350323786625950000000795377778273802624_);}
	.st17{fill:url(#SVGID_00000154391827536834497800000003016107802247915433_);}
	.st18{fill:url(#SVGID_00000010311991883202749690000017792149690278957971_);}
	.st19{fill:url(#SVGID_00000029014441667164262720000013074401717311109563_);}
	.st20{fill:url(#SVGID_00000067930606144414086930000001135241988811621803_);}
	.st21{fill:url(#SVGID_00000059285066047871011010000018100480929465310359_);}
	.st22{fill:url(#SVGID_00000051377695900274493580000013258856477757967007_);}
	.st23{fill:url(#SVGID_00000096036965400247347250000012414435443343975590_);}
	.st24{fill:#4B4B4B;}
	.st25{fill:url(#SVGID_00000069367210243170997020000004709518583516431015_);}
	.st26{fill:url(#SVGID_00000049931804878845638440000003910824690722856372_);}
	.st27{fill:#FFFFFF;}
</style>
<g>
	<path class="st0" d="M154,18.4c-54.9,0-98.9,11.2-98.9,25.1c0,13.9,44.3,25.1,98.9,25.1s98.9-11.3,98.9-25.1S208.5,18.4,154,18.4
		 M252.3,41.5c0,0.1,0.1,0.2,0.1,0.4C252.3,41.8,252.3,41.7,252.3,41.5"/>
	
		<radialGradient id="SVGID_1_" cx="-5238.834" cy="1817.3768" r="209.7378" gradientTransform="matrix(2.0313 0 0 0.6995 10795.0117 -1169.9391)" gradientUnits="userSpaceOnUse">
		<stop  offset="0" style="stop-color:#00082E"/>
		<stop  offset="0.155" style="stop-color:#000A30"/>
		<stop  offset="0.242" style="stop-color:#010F39"/>
		<stop  offset="0.312" style="stop-color:#011946"/>
		<stop  offset="0.373" style="stop-color:#02275A"/>
		<stop  offset="0.414" style="stop-color:#03346C"/>
		<stop  offset="0.439" style="stop-color:#0B4F87"/>
		<stop  offset="0.48" style="stop-color:#1676AF"/>
		<stop  offset="0.513" style="stop-color:#1C8EC7"/>
		<stop  offset="0.533" style="stop-color:#1F97D0"/>
		<stop  offset="1" style="stop-color:#1F97D0"/>
	</radialGradient>
	<path class="st1" d="M154,19.4c-53.8,0-97.4,10.8-97.4,24.1c0,13.3,43.6,24.1,97.4,24.1s97.3-10.8,97.3-24.1S207.8,19.4,154,19.4"
		/>
	
		<linearGradient id="SVGID_00000139272559833175849930000004174372346605052292_" gradientUnits="userSpaceOnUse" x1="-6082.2412" y1="884.7601" x2="-6082.0659" y2="884.7601" gradientTransform="matrix(0 -291.4034 -291.4034 0 257975.9375 -1772316.625)">
		<stop  offset="0" style="stop-color:#00082E"/>
		<stop  offset="0.321" style="stop-color:#010A30"/>
		<stop  offset="0.501" style="stop-color:#030F39"/>
		<stop  offset="0.647" style="stop-color:#071846"/>
		<stop  offset="0.773" style="stop-color:#0D245A"/>
		<stop  offset="0.809" style="stop-color:#0F2961"/>
		<stop  offset="0.839" style="stop-color:#0B386E"/>
		<stop  offset="0.896" style="stop-color:#054E83"/>
		<stop  offset="0.951" style="stop-color:#015B90"/>
		<stop  offset="1" style="stop-color:#006094"/>
	</linearGradient>
	<path style="fill:url(#SVGID_00000139272559833175849930000004174372346605052292_);" d="M154.4,24.5c45.7,0,83.5,7.6,89.3,17.4
		l0,0c-3.9-10.3-42.5-18.5-89.7-18.5c-49.7,0-90.1,9-90.1,20.1c0,0.9,0.3,1.8,0.8,2.7c-0.2-0.6-0.4-1.2-0.4-1.7
		C64.5,33.4,104.7,24.5,154.4,24.5L154.4,24.5z"/>
	
		<linearGradient id="SVGID_00000178198842035184965580000007816697336779699891_" gradientUnits="userSpaceOnUse" x1="-6082.2427" y1="109.2291" x2="-6082.0674" y2="109.2291" gradientTransform="matrix(1.784331e-14 -291.4034 291.4034 1.784331e-14 -31674.6387 -1772317.25)">
		<stop  offset="0" style="stop-color:#00082E"/>
		<stop  offset="0.321" style="stop-color:#010A30"/>
		<stop  offset="0.501" style="stop-color:#030F39"/>
		<stop  offset="0.647" style="stop-color:#071846"/>
		<stop  offset="0.773" style="stop-color:#0D245A"/>
		<stop  offset="0.809" style="stop-color:#0F2961"/>
		<stop  offset="0.839" style="stop-color:#0B386E"/>
		<stop  offset="0.896" style="stop-color:#054E83"/>
		<stop  offset="0.951" style="stop-color:#015B90"/>
		<stop  offset="1" style="stop-color:#006094"/>
	</linearGradient>
	<path style="fill:url(#SVGID_00000178198842035184965580000007816697336779699891_);" d="M246.7,41c0.4,0.8,0.6,1.7,0.6,2.5
		c0,12.1-41.8,22-93.3,22c-45.8,0-84-7.8-91.7-18.1c5.9,10.7,44.9,19,92.2,19h0.6c51.4,0,93-9.8,93-21.8
		C248,43.4,247.5,42.1,246.7,41L246.7,41z"/>
	
		<linearGradient id="SVGID_00000142881406850402163130000008351952310816387514_" gradientUnits="userSpaceOnUse" x1="-6091.52" y1="881.827" x2="-6091.3447" y2="881.827" gradientTransform="matrix(0 -204.871 -204.871 0 180831.6719 -1247915.25)">
		<stop  offset="0" style="stop-color:#00082E"/>
		<stop  offset="0.321" style="stop-color:#010A30"/>
		<stop  offset="0.501" style="stop-color:#030F39"/>
		<stop  offset="0.647" style="stop-color:#071846"/>
		<stop  offset="0.773" style="stop-color:#0D245A"/>
		<stop  offset="0.809" style="stop-color:#0F2961"/>
		<stop  offset="0.839" style="stop-color:#0B386E"/>
		<stop  offset="0.896" style="stop-color:#054E83"/>
		<stop  offset="0.951" style="stop-color:#015B90"/>
		<stop  offset="1" style="stop-color:#006094"/>
	</linearGradient>
	<path style="fill:url(#SVGID_00000142881406850402163130000008351952310816387514_);" d="M172,46.9c-0.2-0.4-0.2-0.7-0.1-1.2
		c0.1-0.1-0.2-0.3-0.4-0.1c-2.1,1.5-2.3,3.4-0.9,4.2c0.5,0.3,1,0.4,1.7,0.5C171.2,49.6,170.9,48.1,172,46.9z"/>
	
		<linearGradient id="SVGID_00000121984093449536457060000016813520136406145172_" gradientUnits="userSpaceOnUse" x1="-6091.5903" y1="882.116" x2="-6091.4155" y2="882.116" gradientTransform="matrix(0 -204.404 -204.404 0 180501.2969 -1245085.125)">
		<stop  offset="0" style="stop-color:#00082E"/>
		<stop  offset="0.321" style="stop-color:#010A30"/>
		<stop  offset="0.501" style="stop-color:#030F39"/>
		<stop  offset="0.647" style="stop-color:#071846"/>
		<stop  offset="0.773" style="stop-color:#0D245A"/>
		<stop  offset="0.809" style="stop-color:#0F2961"/>
		<stop  offset="0.839" style="stop-color:#0B386E"/>
		<stop  offset="0.896" style="stop-color:#054E83"/>
		<stop  offset="0.951" style="stop-color:#015B90"/>
		<stop  offset="1" style="stop-color:#006094"/>
	</linearGradient>
	<path style="fill:url(#SVGID_00000121984093449536457060000016813520136406145172_);" d="M193.1,49.8L193.1,49.8
		c0.1-0.1,0.2-0.3,0.4-0.4c0.1-0.1,0.1-0.1,0-0.1c-0.2-0.1-0.4-0.1-0.4-0.3v-0.1l0,0C193,49,193,49.4,193.1,49.8L193.1,49.8z"/>
	
		<linearGradient id="SVGID_00000000902124636477313930000013307598336257260458_" gradientUnits="userSpaceOnUse" x1="-6091.5898" y1="882.1614" x2="-6091.4165" y2="882.1614" gradientTransform="matrix(0 -204.4023 -204.4023 0 180512.2969 -1245074.75)">
		<stop  offset="0" style="stop-color:#00082E"/>
		<stop  offset="0.321" style="stop-color:#010A30"/>
		<stop  offset="0.501" style="stop-color:#030F39"/>
		<stop  offset="0.647" style="stop-color:#071846"/>
		<stop  offset="0.773" style="stop-color:#0D245A"/>
		<stop  offset="0.809" style="stop-color:#0F2961"/>
		<stop  offset="0.839" style="stop-color:#0B386E"/>
		<stop  offset="0.896" style="stop-color:#054E83"/>
		<stop  offset="0.951" style="stop-color:#015B90"/>
		<stop  offset="1" style="stop-color:#006094"/>
	</linearGradient>
	<path style="fill:url(#SVGID_00000000902124636477313930000013307598336257260458_);" d="M195.5,43.9c0.7,0.4,1.1,1,1.2,1.5
		c0,0.2,0.3,0.3,0.5,0.1c0.1-0.1,0.1-0.1,0.2-0.2c-0.1-0.1-0.1-0.1-0.2-0.1C196.7,44.7,196.1,44.3,195.5,43.9L195.5,43.9z"/>
	
		<linearGradient id="SVGID_00000101818987522332013340000016087407792713642914_" gradientUnits="userSpaceOnUse" x1="-6091.5708" y1="881.7596" x2="-6091.395" y2="881.7596" gradientTransform="matrix(0 -204.5335 -204.5335 0 180516.7031 -1245869.75)">
		<stop  offset="0" style="stop-color:#00082E"/>
		<stop  offset="0.321" style="stop-color:#010A30"/>
		<stop  offset="0.501" style="stop-color:#030F39"/>
		<stop  offset="0.647" style="stop-color:#071846"/>
		<stop  offset="0.773" style="stop-color:#0D245A"/>
		<stop  offset="0.809" style="stop-color:#0F2961"/>
		<stop  offset="0.839" style="stop-color:#0B386E"/>
		<stop  offset="0.896" style="stop-color:#054E83"/>
		<stop  offset="0.951" style="stop-color:#015B90"/>
		<stop  offset="1" style="stop-color:#006094"/>
	</linearGradient>
	<path style="fill:url(#SVGID_00000101818987522332013340000016087407792713642914_);" d="M166.6,43c0.6,0.5,0.8,1.2,0.8,2.2
		c0,0.2,0.3,0.2,0.4,0.1c0.1-0.1,0.2-0.1,0.3-0.3l0,0C167.6,44.2,167,43.4,166.6,43L166.6,43z"/>
	
		<linearGradient id="SVGID_00000043416253882253171150000004211196846331496893_" gradientUnits="userSpaceOnUse" x1="-6091.5498" y1="882.0605" x2="-6091.375" y2="882.0605" gradientTransform="matrix(0 -204.6733 -204.6733 0 180722.4375 -1246717.25)">
		<stop  offset="0" style="stop-color:#00082E"/>
		<stop  offset="0.321" style="stop-color:#010A30"/>
		<stop  offset="0.501" style="stop-color:#030F39"/>
		<stop  offset="0.647" style="stop-color:#071846"/>
		<stop  offset="0.773" style="stop-color:#0D245A"/>
		<stop  offset="0.809" style="stop-color:#0F2961"/>
		<stop  offset="0.839" style="stop-color:#0B386E"/>
		<stop  offset="0.896" style="stop-color:#054E83"/>
		<stop  offset="0.951" style="stop-color:#015B90"/>
		<stop  offset="1" style="stop-color:#006094"/>
	</linearGradient>
	<path style="fill:url(#SVGID_00000043416253882253171150000004211196846331496893_);" d="M192.6,45.5c-1.7-0.6-4.4,0.4-6.8,2.5
		c-2,1.6-3,3.3-3.1,4.9c0,0.6,0.3,1.3,1,1.5c0.2,0.1,0.5,0.1,0.7,0.1c-0.1-0.2-0.1-0.4-0.1-0.7c0-1.7,0.7-3.3,2.7-4.9
		c2.3-2,4.9-3,6.5-2.4C193.6,46.1,193.3,45.8,192.6,45.5L192.6,45.5z"/>
	
		<linearGradient id="SVGID_00000015339434331185518910000009079856080581342891_" gradientUnits="userSpaceOnUse" x1="-6091.6196" y1="881.3949" x2="-6091.4448" y2="881.3949" gradientTransform="matrix(0 -204.2081 -204.2081 0 180130.5625 -1243897.625)">
		<stop  offset="0" style="stop-color:#00082E"/>
		<stop  offset="0.321" style="stop-color:#010A30"/>
		<stop  offset="0.501" style="stop-color:#030F39"/>
		<stop  offset="0.647" style="stop-color:#071846"/>
		<stop  offset="0.773" style="stop-color:#0D245A"/>
		<stop  offset="0.809" style="stop-color:#0F2961"/>
		<stop  offset="0.839" style="stop-color:#0B386E"/>
		<stop  offset="0.896" style="stop-color:#054E83"/>
		<stop  offset="0.951" style="stop-color:#015B90"/>
		<stop  offset="1" style="stop-color:#006094"/>
	</linearGradient>
	<path style="fill:url(#SVGID_00000015339434331185518910000009079856080581342891_);" d="M141.1,48.8c1.8-1.7,3.9-2.3,6.2-3
		c0.3-0.1,0.4-0.2,0.3-0.4c-0.1-0.3-0.4-1.1-0.5-1.3c0.1,0.1,0,0.3-0.3,0.4c-2.6,0.7-5.3,1.7-7.1,3.4c-2.1,1.9-2.6,4.1-1.2,5.5
		c0.4,0.3,0.7,0.5,1.2,0.7C138.7,52.5,139.2,50.4,141.1,48.8L141.1,48.8z"/>
	
		<linearGradient id="SVGID_00000042727431102433991650000007228508292069202602_" gradientUnits="userSpaceOnUse" x1="-6091.584" y1="881.7285" x2="-6091.4087" y2="881.7285" gradientTransform="matrix(0 -204.4506 -204.4506 0 180435.3438 -1245367.625)">
		<stop  offset="0" style="stop-color:#00082E"/>
		<stop  offset="0.321" style="stop-color:#010A30"/>
		<stop  offset="0.501" style="stop-color:#030F39"/>
		<stop  offset="0.647" style="stop-color:#071846"/>
		<stop  offset="0.773" style="stop-color:#0D245A"/>
		<stop  offset="0.809" style="stop-color:#0F2961"/>
		<stop  offset="0.839" style="stop-color:#0B386E"/>
		<stop  offset="0.896" style="stop-color:#054E83"/>
		<stop  offset="0.951" style="stop-color:#015B90"/>
		<stop  offset="1" style="stop-color:#006094"/>
	</linearGradient>
	<path style="fill:url(#SVGID_00000042727431102433991650000007228508292069202602_);" d="M154.4,58.7c1.8,0,4,0,5.5,0
		c0.2,0,0.4-0.1,0.5-0.2c2.3-2.3,4.6-4.9,6.9-7.3c0.5,1.2,0.7,1.7,1.7,2.3s1.8,0.7,3.1,0.7c1.2,0,2.3-0.3,3.7-0.7
		c0.4-0.1,0.9-0.3,1.3-0.5c0-0.4,0.1-0.9,0.1-1.3c0-0.1-0.1-0.4-0.4-0.1c-0.7,0.4-1.6,0.7-2.5,0.9c-1.2,0.3-1.8,0.4-3,0.4
		c-1.5,0-2.8-0.4-3.7-1.4c-0.5-0.5-0.7-1.3-0.8-2c0-0.1-0.1-0.1-0.3,0c-2.5,2.5-4.8,5-7.2,7.6c-0.1,0.1-0.2,0.2-0.5,0.2
		c-1.5,0-3.2,0-4.8,0c-0.1,0-0.3-0.1-0.4-0.1c0.1,0.4,0.4,1.1,0.4,1.3C154.1,58.6,154.1,58.7,154.4,58.7L154.4,58.7z"/>
	
		<linearGradient id="SVGID_00000001649260034005605740000017751672903196807342_" gradientUnits="userSpaceOnUse" x1="-6091.3223" y1="882.2046" x2="-6091.147" y2="882.2046" gradientTransform="matrix(0 -206.183 -206.183 0 182088.8594 -1255866.5)">
		<stop  offset="0" style="stop-color:#00082E"/>
		<stop  offset="0.321" style="stop-color:#010A30"/>
		<stop  offset="0.501" style="stop-color:#030F39"/>
		<stop  offset="0.647" style="stop-color:#071846"/>
		<stop  offset="0.773" style="stop-color:#0D245A"/>
		<stop  offset="0.809" style="stop-color:#0F2961"/>
		<stop  offset="0.839" style="stop-color:#0B386E"/>
		<stop  offset="0.896" style="stop-color:#054E83"/>
		<stop  offset="0.951" style="stop-color:#015B90"/>
		<stop  offset="1" style="stop-color:#006094"/>
	</linearGradient>
	<path style="fill:url(#SVGID_00000001649260034005605740000017751672903196807342_);" d="M178.3,57.3c0.4,0.5,1.3,1.2,1.9,1.3
		c3.2,1.1,7.8-0.1,10.8-2c0,0,0,0,0.1-0.1c0.1,0.4,0.3,0.7,0.3,0.8c0.2,0.4,0.5,0.9,0.8,1.1c2,1.5,6.3,0.9,10.8-1.5
		c2.5-1.3,4.4-2.6,6.6-4.4c0.1-0.1,0.1-0.2,0-0.4c-0.1-0.4-0.4-1.1-0.4-1.5c0,0.1,0,0.1-0.1,0.1c-2.3,2-4.9,3.8-7.5,5.1
		c-3.9,2-7.7,2.5-9.7,1.2c-0.7-0.5-1.1-1.2-1.2-1.7c0-0.3-0.3-0.4-0.5-0.2c-2.3,1.5-6.3,3.2-9.9,2c-1.9-0.7-2.8-1.8-3.2-3.1
		c0,0,0,0,0,0.1C177.3,55.1,177.6,56.5,178.3,57.3L178.3,57.3z"/>
	
		<linearGradient id="SVGID_00000090252782307881048810000005001455081910789044_" gradientUnits="userSpaceOnUse" x1="-6091.3979" y1="881.9292" x2="-6091.2231" y2="881.9292" gradientTransform="matrix(0 -205.6651 -205.6651 0 181557.4375 -1252727.25)">
		<stop  offset="0" style="stop-color:#00082E"/>
		<stop  offset="0.321" style="stop-color:#010A30"/>
		<stop  offset="0.501" style="stop-color:#030F39"/>
		<stop  offset="0.647" style="stop-color:#071846"/>
		<stop  offset="0.773" style="stop-color:#0D245A"/>
		<stop  offset="0.809" style="stop-color:#0F2961"/>
		<stop  offset="0.839" style="stop-color:#0B386E"/>
		<stop  offset="0.896" style="stop-color:#054E83"/>
		<stop  offset="0.951" style="stop-color:#015B90"/>
		<stop  offset="1" style="stop-color:#006094"/>
	</linearGradient>
	<path style="fill:url(#SVGID_00000090252782307881048810000005001455081910789044_);" d="M176.7,49c1.2-0.4,2.3-1.4,2.1-2.8
		c-0.1-0.7-0.4-1.5-0.9-2.1c0.4,0.4,0.5,1,0.4,1.5c-0.2,0.9-1,1.8-2.3,2.3c-1.1,0.4-2.4,0.3-3.3-0.2c-0.3-0.1-0.5-0.4-0.7-0.6
		c0.2,0.7,0.4,1.2,0.7,1.5C173.6,49.4,175.1,49.6,176.7,49z"/>
	
		<linearGradient id="SVGID_00000034049675194441961210000017266784774176075175_" gradientUnits="userSpaceOnUse" x1="-6091.6113" y1="882.262" x2="-6091.436" y2="882.262" gradientTransform="matrix(0 -204.2608 -204.2608 0 180415.7656 -1244216.75)">
		<stop  offset="0" style="stop-color:#00082E"/>
		<stop  offset="0.321" style="stop-color:#010A30"/>
		<stop  offset="0.501" style="stop-color:#030F39"/>
		<stop  offset="0.647" style="stop-color:#071846"/>
		<stop  offset="0.773" style="stop-color:#0D245A"/>
		<stop  offset="0.809" style="stop-color:#0F2961"/>
		<stop  offset="0.839" style="stop-color:#0B386E"/>
		<stop  offset="0.896" style="stop-color:#054E83"/>
		<stop  offset="0.951" style="stop-color:#015B90"/>
		<stop  offset="1" style="stop-color:#006094"/>
	</linearGradient>
	<path style="fill:url(#SVGID_00000034049675194441961210000017266784774176075175_);" d="M212.1,36.3c-0.7,0.9-15.3,15.8-16.1,17.4
		c-0.3,0.5-0.3,0.9,0,1.2c0.3,0.3,0.7,0.4,1.2,0.4c0.1-0.2,0.1-0.4,0.3-0.7c0.9-1.5,14.5-15.6,15.2-16.4c0.1-0.1,0.1-0.1,0-0.2
		c-0.1-0.1-0.5-1.6-0.5-1.7C212.1,36.2,212.1,36.2,212.1,36.3L212.1,36.3z"/>
	
		<linearGradient id="SVGID_00000026163098501888363860000007240163354568647310_" gradientUnits="userSpaceOnUse" x1="-6091.5776" y1="881.5598" x2="-6091.4023" y2="881.5598" gradientTransform="matrix(0 -204.4895 -204.4895 0 180422.9219 -1245603)">
		<stop  offset="0" style="stop-color:#00082E"/>
		<stop  offset="0.321" style="stop-color:#010A30"/>
		<stop  offset="0.501" style="stop-color:#030F39"/>
		<stop  offset="0.647" style="stop-color:#071846"/>
		<stop  offset="0.773" style="stop-color:#0D245A"/>
		<stop  offset="0.809" style="stop-color:#0F2961"/>
		<stop  offset="0.839" style="stop-color:#0B386E"/>
		<stop  offset="0.896" style="stop-color:#054E83"/>
		<stop  offset="0.951" style="stop-color:#015B90"/>
		<stop  offset="1" style="stop-color:#006094"/>
	</linearGradient>
	<path style="fill:url(#SVGID_00000026163098501888363860000007240163354568647310_);" d="M152,43.3c0.1,0,0.1,0.1,0.1,0.1
		c0.9,0.9,1.4,2.1,1.4,3.4c0.1,0.3,0.2,0.3,0.4,0.1c0.1-0.1,0.4-0.2,0.5-0.4c-0.3-0.7-0.7-1.3-1.1-1.9
		C153.2,44.4,152.5,43.6,152,43.3L152,43.3z"/>
	
		<linearGradient id="SVGID_00000106143803526025955610000002553845867244488067_" gradientUnits="userSpaceOnUse" x1="-6091.5894" y1="881.4396" x2="-6091.4146" y2="881.4396" gradientTransform="matrix(0 -204.4135 -204.4135 0 180323.125 -1245142.75)">
		<stop  offset="0" style="stop-color:#00082E"/>
		<stop  offset="0.321" style="stop-color:#010A30"/>
		<stop  offset="0.501" style="stop-color:#030F39"/>
		<stop  offset="0.647" style="stop-color:#071846"/>
		<stop  offset="0.773" style="stop-color:#0D245A"/>
		<stop  offset="0.809" style="stop-color:#0F2961"/>
		<stop  offset="0.839" style="stop-color:#0B386E"/>
		<stop  offset="0.896" style="stop-color:#054E83"/>
		<stop  offset="0.951" style="stop-color:#015B90"/>
		<stop  offset="1" style="stop-color:#006094"/>
	</linearGradient>
	<path style="fill:url(#SVGID_00000106143803526025955610000002553845867244488067_);" d="M128.6,57.2c0.3,0.1,0.5,0,0.7-0.1
		c0.9-0.3,2.6-1.2,3.3-1.8c0.2-0.1,0.4-0.1,0.5,0.1c0.3,0.7,0.7,1.2,1.2,1.7c0.6,0.6,1.7,1.2,3.1,1.5c1.9,0.4,3.9,0.4,6.5-0.3
		c2.1-0.6,4.4-1.7,6-2.9c2-1.5,2.8-2.5,3.6-3.1c1.3-1.1,3.4-3.1,6.3-4.8c1-0.6,2.1-0.9,2.8-0.8c0.4-0.7,0.2-1.2-0.2-1.3
		c-0.7-0.3-2,0.1-3.2,0.7c-3.1,1.6-5.7,4.1-7.1,5.2c-0.8,0.7-1.5,1.6-3.6,3.1c-3.2,2.4-7.5,3.7-11.6,2.8c-2.3-0.5-3.9-1.7-4.5-3.3
		c-0.1-0.3-0.4-0.4-0.6-0.1c-0.7,0.6-2,1.4-3.1,1.9c-0.1,0.1-0.4,0.2-0.7,0.1c-0.2-0.1-1.1-0.9-1.2-1.1c0,0,0-0.1-0.1-0.1l0,0
		c0.3,1,0.4,1.1,0.7,1.6C128.1,56.8,128.5,57.2,128.6,57.2z"/>
	
		<linearGradient id="SVGID_00000003798136673447620210000017782793899101513600_" gradientUnits="userSpaceOnUse" x1="-6091.6143" y1="880.871" x2="-6091.4385" y2="880.871" gradientTransform="matrix(0 -204.2444 -204.2444 0 180018.0156 -1244117.375)">
		<stop  offset="0" style="stop-color:#00082E"/>
		<stop  offset="0.321" style="stop-color:#010A30"/>
		<stop  offset="0.501" style="stop-color:#030F39"/>
		<stop  offset="0.647" style="stop-color:#071846"/>
		<stop  offset="0.773" style="stop-color:#0D245A"/>
		<stop  offset="0.809" style="stop-color:#0F2961"/>
		<stop  offset="0.839" style="stop-color:#0B386E"/>
		<stop  offset="0.896" style="stop-color:#054E83"/>
		<stop  offset="0.951" style="stop-color:#015B90"/>
		<stop  offset="1" style="stop-color:#006094"/>
	</linearGradient>
	<path style="fill:url(#SVGID_00000003798136673447620210000017782793899101513600_);" d="M103.8,48.3c1-1.5,2.5-2.1,3.9-2.7
		c0.7-0.3,0.9-0.5,0.5-1.2c-0.1-0.2-0.1-0.6-0.3-0.9c0.1,0.3-0.2,0.6-0.6,0.7c-1.7,0.6-3.9,1.7-4.9,3.1c-0.9,1.2-1,2.5,0.3,3.9
		c0.1,0.1,0.2,0.2,0.4,0.3l0,0C102.7,50.4,103.1,49.2,103.8,48.3L103.8,48.3z"/>
	
		<linearGradient id="SVGID_00000136390956011986796070000014134759144383631488_" gradientUnits="userSpaceOnUse" x1="-6091.3193" y1="881.307" x2="-6091.144" y2="881.307" gradientTransform="matrix(0 -206.1787 -206.1787 0 181835.4531 -1255839.5)">
		<stop  offset="0" style="stop-color:#00082E"/>
		<stop  offset="0.321" style="stop-color:#010A30"/>
		<stop  offset="0.501" style="stop-color:#030F39"/>
		<stop  offset="0.647" style="stop-color:#071846"/>
		<stop  offset="0.773" style="stop-color:#0D245A"/>
		<stop  offset="0.809" style="stop-color:#0F2961"/>
		<stop  offset="0.839" style="stop-color:#0B386E"/>
		<stop  offset="0.896" style="stop-color:#054E83"/>
		<stop  offset="0.951" style="stop-color:#015B90"/>
		<stop  offset="1" style="stop-color:#006094"/>
	</linearGradient>
	<path style="fill:url(#SVGID_00000136390956011986796070000014134759144383631488_);" d="M121.7,31c6.4-1.5,13.5-0.5,19.3,0.3
		c0.8-0.4,1.5-0.6,2.2-0.8c0.4-0.1-0.1-0.3-0.1-0.3c-7.4-0.9-15-2.2-22.4-0.3c-5.1,1.3-7.3,4-6.3,5.8c0.2,0.4,0.5,0.7,0.9,0.8
		C115,34.9,116.9,32.2,121.7,31L121.7,31z"/>
	
		<linearGradient id="SVGID_00000059282921024699502110000015344058493919102878_" gradientUnits="userSpaceOnUse" x1="-6091.5967" y1="881.1116" x2="-6091.4214" y2="881.1116" gradientTransform="matrix(0 -204.3566 -204.3566 0 180182.8281 -1244797.25)">
		<stop  offset="0" style="stop-color:#00082E"/>
		<stop  offset="0.321" style="stop-color:#010A30"/>
		<stop  offset="0.501" style="stop-color:#030F39"/>
		<stop  offset="0.647" style="stop-color:#071846"/>
		<stop  offset="0.773" style="stop-color:#0D245A"/>
		<stop  offset="0.809" style="stop-color:#0F2961"/>
		<stop  offset="0.839" style="stop-color:#0B386E"/>
		<stop  offset="0.896" style="stop-color:#054E83"/>
		<stop  offset="0.951" style="stop-color:#015B90"/>
		<stop  offset="1" style="stop-color:#006094"/>
	</linearGradient>
	<path style="fill:url(#SVGID_00000059282921024699502110000015344058493919102878_);" d="M101,57.2c2.1,1,4.1,1.3,6.5,1.4
		c4.9,0.1,9.4-1.3,14.1-4.6c4.6-3.1,8.5-7.5,12.4-11.8c0.1-0.1,0.3-0.2,0.9-0.3c2.4-0.2,4.6-0.3,6.8-0.4c0.7-0.1,1.2-0.1,1.4,0.1
		c0.8,0.5,1.7,1,2.3,1.2c0.4,0,0.7,0.1,0.9,0.2c0.2,0,0.5-0.1,0.7-0.2c0.3-0.2,0.3-0.4,0.2-0.6c-0.1-0.4-0.2-1.1-0.4-1.3
		c0.1,0.1,0.1,0.4-0.2,0.6c-0.1,0.1-0.4,0.3-0.8,0.2c-0.3,0-0.4-0.1-0.8-0.2c-0.7-0.3-1.6-0.7-2.3-1.2c-0.2-0.1-0.3-0.1-0.8-0.1
		c-2.3,0.1-5.9,0.3-8.3,0.5c-0.6,0.1-0.7,0.1-0.8,0.3c-3.9,4.4-8,9-12.6,12.1c-4.9,3.3-8.9,4.2-13.2,4.3c-4.9,0-9.4-1.9-10.5-5.2
		l0,0C97.2,54,98.9,56.2,101,57.2L101,57.2z"/>
	
		<linearGradient id="SVGID_00000098185071874509508320000003499990566365827714_" gradientUnits="userSpaceOnUse" x1="-6091.478" y1="881.1716" x2="-6091.3027" y2="881.1716" gradientTransform="matrix(0 -205.1317 -205.1317 0 180879.3906 -1249494.5)">
		<stop  offset="0" style="stop-color:#00082E"/>
		<stop  offset="0.321" style="stop-color:#010A30"/>
		<stop  offset="0.501" style="stop-color:#030F39"/>
		<stop  offset="0.647" style="stop-color:#071846"/>
		<stop  offset="0.773" style="stop-color:#0D245A"/>
		<stop  offset="0.809" style="stop-color:#0F2961"/>
		<stop  offset="0.839" style="stop-color:#0B386E"/>
		<stop  offset="0.896" style="stop-color:#054E83"/>
		<stop  offset="0.951" style="stop-color:#015B90"/>
		<stop  offset="1" style="stop-color:#006094"/>
	</linearGradient>
	<path style="fill:url(#SVGID_00000098185071874509508320000003499990566365827714_);" d="M119.3,42.6c-0.1-0.1-0.1-0.2-0.1-0.4
		c-0.1,0.6,0.3,1.4,0.6,1.7c0.3,0.3,1.1,0.4,1.7,0.1c1.5-0.7,2.8-1.2,4.3-1.4c0.4-0.4,0.8-0.7,1.3-1.2c0.1,0,0.1-0.1,0-0.1
		c0-0.1-0.1-0.1-0.1-0.1c-2.2,0.1-4.1,0.5-6,1.5C120.4,43.1,119.6,43,119.3,42.6z"/>
	
		<linearGradient id="SVGID_00000122695223372292410450000010926650511319677860_" gradientUnits="userSpaceOnUse" x1="-6091.6138" y1="881.6281" x2="-6091.438" y2="881.6281" gradientTransform="matrix(0 -204.2487 -204.2487 0 180230.4219 -1244143.5)">
		<stop  offset="0" style="stop-color:#00082E"/>
		<stop  offset="0.321" style="stop-color:#010A30"/>
		<stop  offset="0.501" style="stop-color:#030F39"/>
		<stop  offset="0.647" style="stop-color:#071846"/>
		<stop  offset="0.773" style="stop-color:#0D245A"/>
		<stop  offset="0.809" style="stop-color:#0F2961"/>
		<stop  offset="0.839" style="stop-color:#0B386E"/>
		<stop  offset="0.896" style="stop-color:#054E83"/>
		<stop  offset="0.951" style="stop-color:#015B90"/>
		<stop  offset="1" style="stop-color:#006094"/>
	</linearGradient>
	<path style="fill:url(#SVGID_00000122695223372292410450000010926650511319677860_);" d="M179.1,32.5c-3.1,1.2-6.3,1.5-9.7,1.5
		c-8.1,0.1-15.7-2.1-23.5-3.3c0,0.2,0.1,0.5-0.2,0.7c-4.4,2.2-8.2,4.4-10.9,7.5c-0.1,0.1-0.1,0.1,0.1,0.1c0.7,0,1.4-0.1,2-0.1
		c2.4-2.5,4.9-4,8.9-6c0.3-0.1,0.6-0.2,0.5-0.8c7.8,1.2,13.8,3.1,23.9,3.1c3.1,0,7.3-0.7,9.6-1.6c2.6-1.1,3.3-1.9,3.4-2.7
		c0-0.3-0.1-0.7-0.1-0.9c-0.1-0.3-0.1-0.7-0.3-0.9c0.1,0.1,0.1,0.2,0.1,0.4C182.9,30.6,181.8,31.5,179.1,32.5L179.1,32.5z"/>
	
		<linearGradient id="SVGID_00000117663816463992191430000005131702724830500994_" gradientUnits="userSpaceOnUse" x1="-6091.5435" y1="881.4611" x2="-6091.3682" y2="881.4611" gradientTransform="matrix(0 -204.7104 -204.7104 0 180589.6094 -1246941.875)">
		<stop  offset="0" style="stop-color:#00082E"/>
		<stop  offset="0.321" style="stop-color:#010A30"/>
		<stop  offset="0.501" style="stop-color:#030F39"/>
		<stop  offset="0.647" style="stop-color:#071846"/>
		<stop  offset="0.773" style="stop-color:#0D245A"/>
		<stop  offset="0.809" style="stop-color:#0F2961"/>
		<stop  offset="0.839" style="stop-color:#0B386E"/>
		<stop  offset="0.896" style="stop-color:#054E83"/>
		<stop  offset="0.951" style="stop-color:#015B90"/>
		<stop  offset="1" style="stop-color:#006094"/>
	</linearGradient>
	<path style="fill:url(#SVGID_00000117663816463992191430000005131702724830500994_);" d="M145.1,36.1c-0.1,0.1-0.2,0.1-0.3,0.2
		c-0.8,0.5-1,1.2-0.9,1.8c0.1,0.2,0.2,0.3,0.4,0.2c0.1,0,0.3-0.1,0.4-0.1c0.1-0.3,0.2-0.6,0.7-0.9c0.3-0.2,0.7-0.3,1.1-0.2
		c0.3-0.4,0.4-0.9,0-1.1S145.6,35.9,145.1,36.1L145.1,36.1z"/>
	
		<linearGradient id="SVGID_00000181065705286635921770000005793738861754018698_" gradientUnits="userSpaceOnUse" x1="-6091.6099" y1="881.4605" x2="-6091.4346" y2="881.4605" gradientTransform="matrix(0 -204.2728 -204.2728 0 180205.4531 -1244289.875)">
		<stop  offset="0" style="stop-color:#00082E"/>
		<stop  offset="0.321" style="stop-color:#010A30"/>
		<stop  offset="0.501" style="stop-color:#030F39"/>
		<stop  offset="0.647" style="stop-color:#071846"/>
		<stop  offset="0.773" style="stop-color:#0D245A"/>
		<stop  offset="0.809" style="stop-color:#0F2961"/>
		<stop  offset="0.839" style="stop-color:#0B386E"/>
		<stop  offset="0.896" style="stop-color:#054E83"/>
		<stop  offset="0.951" style="stop-color:#015B90"/>
		<stop  offset="1" style="stop-color:#006094"/>
	</linearGradient>
	<path style="fill:url(#SVGID_00000181065705286635921770000005793738861754018698_);" d="M148.3,38c-0.7,0.9-2,1.5-3.1,1.7
		c0,0-0.2,0.1-0.2,0.2c0,0.1,0.9,0.5,1.4,0.8c0.1,0,0.2-0.1,0.2-0.1c0.6-0.1,1.6-0.6,2.2-1.5c0.4-0.6,0.6-1,0.4-2
		c-0.1-0.7-0.3-1.2-0.6-1.6C149.1,36.4,148.8,37.2,148.3,38L148.3,38z"/>
	
		<linearGradient id="SVGID_00000068661533301042310790000012499587713713654659_" gradientUnits="userSpaceOnUse" x1="-6091.6025" y1="881.0562" x2="-6091.4268" y2="881.0562" gradientTransform="matrix(0 -204.3203 -204.3203 0 180135.8281 -1244577.5)">
		<stop  offset="0" style="stop-color:#00082E"/>
		<stop  offset="0.321" style="stop-color:#010A30"/>
		<stop  offset="0.501" style="stop-color:#030F39"/>
		<stop  offset="0.647" style="stop-color:#071846"/>
		<stop  offset="0.773" style="stop-color:#0D245A"/>
		<stop  offset="0.809" style="stop-color:#0F2961"/>
		<stop  offset="0.839" style="stop-color:#0B386E"/>
		<stop  offset="0.896" style="stop-color:#054E83"/>
		<stop  offset="0.951" style="stop-color:#015B90"/>
		<stop  offset="1" style="stop-color:#006094"/>
	</linearGradient>
	<path style="fill:url(#SVGID_00000068661533301042310790000012499587713713654659_);" d="M126.5,34.6c-2.2,3.4-6.3,6.1-11.3,6.3
		c-2.8,0.1-4.9-0.8-6-2.2c0.8,1,2.3,1.9,3.5,2.5c1.1,0.4,2.4,0.7,3.9,0.7c5.2-0.1,9.2-3.1,10.5-5.5c0.4-0.7,0.1-1.4-0.1-1.8
		c-0.1-0.2-0.1-0.6-0.4-0.9l0,0C126.7,33.7,126.7,34.1,126.5,34.6L126.5,34.6z"/>
	<path class="st24" d="M154,18.4c-54.9,0-98.9,11.2-98.9,25.1c0,13.9,44.3,25.1,98.9,25.1s98.9-11.3,98.9-25.1S208.5,18.4,154,18.4
		 M55.8,43.8c0-2.9,1.9-5.9,5.9-8.6c14.2-9.7,51.2-16.2,92.2-16.3c54.1-0.2,98.3,10.8,98.3,24.3c0,2.9-2,5.8-6,8.6
		c-14.2,9.7-51.1,16.3-92,16.4C100,68.4,55.9,57.4,55.8,43.8 M252.3,41.5c0,0.1,0.1,0.2,0.1,0.4C252.3,41.8,252.3,41.7,252.3,41.5"
		/>
	
		<linearGradient id="SVGID_00000049199683427463279110000018330008162425185955_" gradientUnits="userSpaceOnUse" x1="-6080.0137" y1="890.6308" x2="-6079.8218" y2="890.6308" gradientTransform="matrix(-88.4134 -329.9634 -329.9634 88.4134 -243552.0625 -2084841.625)">
		<stop  offset="0" style="stop-color:#A5A5A6"/>
		<stop  offset="0.35" style="stop-color:#D7D7D7"/>
		<stop  offset="0.65" style="stop-color:#D7D7D7"/>
		<stop  offset="1" style="stop-color:#A5A5A6"/>
	</linearGradient>
	<path style="fill:url(#SVGID_00000049199683427463279110000018330008162425185955_);" d="M55.4,43.5c0,0.7,0.1,1.3,0.3,2
		c-0.1-0.6-0.2-1.1-0.2-1.7c0-3,2-6,6-8.8c14.2-9.7,51.4-16.3,92.3-16.4c5.7,0,11.3,0.1,16.6,0.3c-5.5-0.2-11-0.4-16.5-0.4
		C99.3,18.6,55.4,29.7,55.4,43.5z"/>
	
		<linearGradient id="SVGID_00000079451075980218969980000000345670963031008431_" gradientUnits="userSpaceOnUse" x1="-5111.2246" y1="1070.241" x2="-5113.249" y2="1062.6865" gradientTransform="matrix(8.6315 0 0 8.6315 44310.4727 -9189.3672)">
		<stop  offset="0" style="stop-color:#A5A5A6"/>
		<stop  offset="0.35" style="stop-color:#D7D7D7"/>
		<stop  offset="0.65" style="stop-color:#D7D7D7"/>
		<stop  offset="1" style="stop-color:#A5A5A6"/>
	</linearGradient>
	<path style="fill:url(#SVGID_00000079451075980218969980000000345670963031008431_);" d="M246.4,51.9
		c-14.2,9.7-51.3,16.3-92.2,16.4c-5.7,0-11.3-0.1-17-0.3c5.5,0.2,11,0.4,16.8,0.4c54.4,0,98.6-11.3,98.6-24.9c0-0.5-0.1-1-0.2-1.5
		c0.1,0.4,0.1,0.9,0.1,1.3C252.6,46.2,250.5,49.2,246.4,51.9"/>
	<path class="st27" d="M154,21.5c-51.5,0-93.3,9.9-93.3,22s41.8,22,93.3,22s93.3-9.9,93.3-22C247.3,31.4,205.5,21.5,154,21.5
		L154,21.5z M154,63.6c-49.7,0-90.1-9-90.1-20.1s40.3-20.1,90.1-20.1c49.7,0,90.1,9,90.1,20.1C244,54.6,203.7,63.6,154,63.6
		L154,63.6z"/>
	<path class="st27" d="M212.1,36.3c0.1-0.1,0-0.3-0.3-0.3c-1.5,0-3.4,0-5,0c-0.4,0-0.6,0-0.7,0.3c-0.6,0.7-7.6,7.8-8.9,9.2
		c-0.2,0.2-0.5,0.2-0.5-0.1c-0.1-0.8-1.2-1.7-2.8-2.2c-1.2-0.4-2.5-0.4-3.8-0.3c-2.3,0.2-4.4,1-6.2,2c-2.7,1.4-5.1,3.2-8.1,4.6
		c-1.7,0.7-3.9,1.4-5.5,0.4c-1.4-0.9-1.2-2.8,0.9-4.2c0.2-0.1,0.5,0,0.4,0.1c-0.2,0.7,0.1,1.3,0.8,1.8c0.9,0.6,2.3,0.7,3.3,0.2
		c1.3-0.4,2.1-1.3,2.3-2.3c0.4-1.5-1.4-2.8-3.5-2.9c-1.7-0.1-3.4,0.3-5,1.2c-0.8,0.4-1.3,0.8-2,1.5c-0.1,0.1-0.4,0.2-0.4-0.1
		c0.1-2-1.1-3-3.4-3.1c-1.8,0-3.8,0.7-5.3,1.5c-1.7,0.9-3.1,2.1-4.7,3.3c-0.2,0.1-0.4,0.1-0.4-0.1c-0.1-1.3-0.5-2.5-1.4-3.4
		c-0.3-0.3-0.9-0.4-1.5-0.2c-0.2,0.1-1.2,0.4-1.7,0.7c-0.3,0.1-0.4,0.4-0.3,0.7c0.9,1.9,0.7,4.1-0.5,5.9c-1,1.7-3.1,3.2-5.5,3.7
		c-1.6,0.4-3.2,0.1-4.2-0.8c-1.4-1.3-0.8-3.6,1.2-5.5c1.8-1.7,4.5-2.7,7.1-3.4c0.3-0.1,0.4-0.2,0.3-0.4c-0.1-0.3-0.4-0.7-0.4-0.9
		c-0.2-0.4-0.9-0.5-1.7-0.4c-1.9,0.1-3.6,0.6-5.4,1.2c-4.5,1.6-6.8,4.8-7.7,6.5c-0.5,0.8-0.9,1.3-1.4,1.7c-0.7,0.6-1.6,1.2-3.2,2.1
		c-0.1,0.1-0.2,0.3-0.1,0.4c0.1,0.2,1,1,1.2,1.1c0.3,0.1,0.6,0,0.7-0.1c1.2-0.5,2.5-1.4,3.1-1.9c0.2-0.2,0.5-0.1,0.6,0.1
		c0.7,1.5,2.3,2.8,4.5,3.3c4.1,0.9,8.4-0.4,11.6-2.8c2-1.5,2.8-2.5,3.6-3.1c1.3-1.1,3.9-3.6,7.1-5.2c1.2-0.6,2.5-1,3.2-0.7
		c0.6,0.2,0.7,0.8-0.1,1.9c-3.2,3.9-7.8,8.6-8.7,9.7c-0.1,0.2,0,0.4,0.3,0.4c1.7,0,3.3,0,4.8,0c0.2,0,0.4-0.1,0.5-0.2
		c2.5-2.6,4.7-5.1,7.2-7.6c0.1-0.1,0.3,0,0.3,0c0.1,0.6,0.3,1.4,0.8,2c0.9,1,2.3,1.4,3.7,1.4c1.2,0,1.7-0.1,3-0.4
		c0.9-0.2,1.7-0.5,2.5-0.9c0.4-0.1,0.4,0.1,0.4,0.1c-0.6,2,0.1,4.5,3.1,5.5c3.6,1.2,7.6-0.5,9.9-2c0.2-0.1,0.4-0.1,0.5,0.2
		c0.1,0.6,0.4,1.3,1.2,1.7c1.9,1.3,5.7,0.8,9.7-1.2c2.5-1.3,5.1-3.1,7.5-5.1c0.1-0.1,0.1-0.2,0-0.3c-0.4-0.2-0.9-0.5-1.2-0.8
		c-0.1-0.1-0.4-0.1-0.5,0c-2.4,1.5-4.6,3.3-7.7,4.8c-1.1,0.5-2.8,0.9-3.5,0.2c-0.3-0.3-0.3-0.7,0-1.2
		C196.9,52.1,211.3,37.2,212.1,36.3 M193,48.8c0,0.1,0.2,0.2,0.4,0.3c0.1,0,0.1,0.1,0,0.1c-0.6,0.9-1.2,1.4-2,2.2
		c-0.7,0.7-1.5,1.3-2.5,1.8c-1.5,0.8-3.5,1.7-5.2,1.1c-0.7-0.3-1.1-0.9-1-1.5c0.1-1.6,1.1-3.3,3.1-4.9c2.4-2,5-3,6.8-2.5
		c1.8,0.6,1.2,2,0.4,3.1C192.9,48.7,192.9,48.7,193,48.8"/>
	<path class="st27" d="M107,57.3c-5.4,0-10.2-2.3-10.7-6.2c-0.3-2.2,0.6-4.1,2.4-5.7c1.6-1.5,4.4-2.6,6.6-2.9c0.7-0.1,1.7,0,2.2,0.3
		c0.7,0.5,0.4,1.1-0.2,1.3c-1.7,0.6-3.9,1.7-4.9,3.1c-0.9,1.2-1,2.5,0.3,3.9c2.2,2.3,8.2,2.3,13.8-1.2c1.4-0.9,2.6-1.7,3.9-2.7
		c2.5-1.9,3.3-2.6,6.6-5.7c0.1,0,0.1-0.1,0-0.1c0-0.1-0.1-0.1-0.1-0.1c-2.2,0.1-4.1,0.5-6,1.5c-0.5,0.3-1.3,0.2-1.7-0.1
		c-0.4-0.4-0.1-0.9,0.5-1.2c3-1.4,6.3-1.7,9.6-2c0,0,0.2,0,0.4-0.1c1.4-1.2,2.4-2.3,3.9-3.5s3.3-2.3,4.8-3.2c2-1.2,3.3-1.6,4.7-2
		c0.4-0.1-0.1-0.3-0.1-0.3c-7.4-0.9-15-2.2-22.4-0.3c-5.1,1.3-7.3,4-6.3,5.8c0.7,1.3,3.3,1.5,5.6,0.7c2-0.7,3.8-1.7,5-3.1
		c0.7-0.7,2.3-0.2,1.4,1.1c-2.2,3.4-6.3,6.1-11.3,6.3c-4.2,0.1-7-2-7-4.7c0-5.2,8.5-8.6,17.4-9.1c10.7-0.6,20.9,1.3,31.5,2.2
		c8.1,0.7,16,0.7,24.1-0.6c0.9-0.1,1.7,0.3,1.6,0.9c-0.1,0.9-1.2,1.9-3.9,2.9c-3.1,1.2-6.3,1.5-9.7,1.5c-8.1,0.1-15.7-2.1-23.5-3.3
		c0,0.2,0.1,0.5-0.2,0.7c-4.4,2.2-8.2,4.4-10.9,7.5c-0.1,0.1-0.1,0.1,0.1,0.1c2.3-0.1,4.4-0.1,6.5-0.2c0.4,0,0.4-0.1,0.4-0.3
		c-0.2-1.1,0.3-2.3,1.7-3.1c1.4-0.9,3.2-0.9,4.4-0.4c1.3,0.7,1.2,2,0.5,2.9c-0.7,0.9-2,1.5-3.1,1.7c0,0-0.2,0.1-0.2,0.2
		c0.1,0.2,1.7,0.9,1.8,1s0.1,0.4-0.1,0.6c-0.1,0.1-0.4,0.3-0.8,0.2c-0.3,0-0.4-0.1-0.8-0.2c-0.7-0.3-1.6-0.7-2.3-1.2
		c-0.2-0.1-0.3-0.1-0.8-0.1c-2.3,0.1-5.9,0.3-8.3,0.5c-0.6,0.1-0.7,0.1-0.8,0.3c-3.9,4.4-8,9-12.6,12.1
		C115.4,56.4,111.3,57.3,107,57.3 M144,38.1c0.1,0.2,0.2,0.3,0.4,0.2c0.7-0.1,1.5-0.5,2-1c0.4-0.4,0.7-1.1,0.2-1.3
		c-0.4-0.2-1-0.1-1.5,0.1C144.1,36.7,143.8,37.5,144,38.1"/>
</g>
</svg>
