<?xml version="1.0" encoding="utf-8"?>
<!-- Generator: Adobe Illustrator 25.4.1, SVG Export Plug-In . SVG Version: 6.00 Build 0)  -->
<svg version="1.1" id="Layer_1" xmlns="http://www.w3.org/2000/svg" xmlns:xlink="http://www.w3.org/1999/xlink" x="0px" y="0px"
	 viewBox="0 0 308 87" style="enable-background:new 0 0 308 87;" xml:space="preserve">
<style type="text/css">
	.st0{display:none;}
	.st1{display:inline;fill:url(#outer_00000181078941847559731550000009532601047680532096_);}
	.st2{display:inline;fill:url(#SVGID_1_);}
	
		.st3{display:inline;opacity:0.4;fill:url(#SVGID_00000083773521807886733140000001709326705348456107_);enable-background:new    ;}
	.st4{display:inline;fill:#FFFFFF;}
	
		.st5{display:inline;opacity:0.4;fill:url(#SVGID_00000157272856328447732920000005428634731056626067_);enable-background:new    ;}
	.st6{display:inline;fill:#565F64;}
	.st7{display:inline;fill:url(#SVGID_00000068638076111789343830000005710908917350080187_);}
	.st8{display:inline;fill:#A4AAAE;fill-opacity:0.6;}
	.st9{display:inline;fill:#333E46;}
	.st10{display:inline;fill:url(#SVGID_00000059290802463217654860000013449074545624405936_);}
	.st11{display:inline;fill:url(#SVGID_00000137124213374978665950000007549248291549031077_);fill-opacity:0.8;}
	
		.st12{display:inline;opacity:0.8;fill:url(#SVGID_00000181767537193844180470000010136565686883728558_);enable-background:new    ;}
	.st13{display:inline;fill:url(#SVGID_00000156584539462402433600000007685585698261316789_);}
	.st14{display:inline;fill:url(#SVGID_00000001636002247300567980000002451697520984833191_);}
	.st15{display:inline;fill:url(#SVGID_00000023993748789657439920000007231157580210001536_);}
	.st16{display:inline;fill:url(#SVGID_00000133515382093026818630000004850838765029890443_);}
	.st17{display:inline;fill:url(#SVGID_00000118381472949169345100000016944475783559698611_);}
	.st18{display:inline;fill:url(#SVGID_00000177466288745887754750000010948896482822750892_);}
	.st19{display:inline;fill:url(#SVGID_00000008112638912463512320000018082965835365406390_);}
	.st20{display:inline;fill:#FBFBFB;}
	.st21{display:inline;fill:#333F47;}
	.st22{fill:#397DB7;}
	.st23{fill:#01422D;}
	.st24{fill:none;stroke:#01422D;stroke-width:0.5753;stroke-miterlimit:12.4398;}
	.st25{fill:#241F20;}
</style>
<g class="st0">
	
		<linearGradient id="outer_00000170965881425602138420000004943741679366854051_" gradientUnits="userSpaceOnUse" x1="-805.8504" y1="1342.0612" x2="-726.8257" y2="1408.2452" gradientTransform="matrix(-0.8829 0 0 -0.8972 -522.5208 1277.3547)">
		<stop  offset="0" style="stop-color:#FFFFFF"/>
		<stop  offset="0.1" style="stop-color:#E7E8E6"/>
		<stop  offset="0.1" style="stop-color:#CDD0D0"/>
		<stop  offset="0.2" style="stop-color:#B5BBBD"/>
		<stop  offset="0.2" style="stop-color:#A5ACAF"/>
		<stop  offset="0.3" style="stop-color:#9BA3A7"/>
		<stop  offset="0.3" style="stop-color:#98A0A4"/>
		<stop  offset="0.4" style="stop-color:#828A8F"/>
		<stop  offset="0.5" style="stop-color:#667075"/>
		<stop  offset="0.6" style="stop-color:#535C63"/>
		<stop  offset="0.7" style="stop-color:#475158"/>
		<stop  offset="0.8" style="stop-color:#434D54"/>
		<stop  offset="1" style="stop-color:#475157"/>
	</linearGradient>
	
		<path id="outer_00000097475054197506639810000004203592696774986932_" style="display:inline;fill:url(#outer_00000170965881425602138420000004943741679366854051_);" d="
		M102.8,43.5c0-20.1,22.9-36.4,51.2-36.4s51.2,16.3,51.2,36.4S182.3,79.9,154,79.9S102.8,63.6,102.8,43.5z M154,77.6
		c26.7,0,48.1-15.2,48.1-34.1S180.5,9.4,154,9.4c-26.7,0-48.1,15.3-48.1,34.1C105.9,62.4,127.3,77.6,154,77.6z"/>
	
		<linearGradient id="SVGID_1_" gradientUnits="userSpaceOnUse" x1="-803.3998" y1="1343.9901" x2="-729.2953" y2="1406.238" gradientTransform="matrix(-0.8829 0 0 -0.8972 -522.5208 1277.3547)">
		<stop  offset="0" style="stop-color:#0B1F2A"/>
		<stop  offset="0.2" style="stop-color:#333F47"/>
		<stop  offset="0.5" style="stop-color:#777F84"/>
		<stop  offset="0.5" style="stop-color:#81898D"/>
		<stop  offset="0.7" style="stop-color:#B3B8B8"/>
		<stop  offset="0.8" style="stop-color:#D2D5D3"/>
		<stop  offset="0.8" style="stop-color:#DEE0DD"/>
		<stop  offset="1" style="stop-color:#FBFBFB"/>
	</linearGradient>
	<path class="st2" d="M154,77.6c26.7,0,48.1-15.2,48.1-34.1S180.5,9.4,154,9.4c-26.7,0-48.1,15.3-48.1,34.1
		C105.9,62.4,127.3,77.6,154,77.6z M154,11.6c24.9,0,45,14.3,45,31.9s-20.1,31.9-45,31.9s-45-14.3-45-31.9S129.1,11.6,154,11.6z"/>
	
		<linearGradient id="SVGID_00000178177286759338020560000017170276687324796801_" gradientUnits="userSpaceOnUse" x1="-781.2592" y1="1333.967" x2="-751.2379" y2="1416.4893" gradientTransform="matrix(-0.8829 0 0 -0.8972 -522.5208 1277.3547)">
		<stop  offset="0" style="stop-color:#E1E3E1"/>
		<stop  offset="0.1" style="stop-color:#C1C5C4"/>
		<stop  offset="0.3" style="stop-color:#9BA1A2"/>
		<stop  offset="0.5" style="stop-color:#7D8487"/>
		<stop  offset="0.7" style="stop-color:#687074;stop-opacity:0"/>
		<stop  offset="0.8" style="stop-color:#5B6469;stop-opacity:0"/>
		<stop  offset="1" style="stop-color:#576065;stop-opacity:0"/>
	</linearGradient>
	
		<path style="display:inline;opacity:0.4;fill:url(#SVGID_00000178177286759338020560000017170276687324796801_);enable-background:new    ;" d="
		M154,7.1c-28.3,0-51.2,16.3-51.2,36.4s22.9,36.4,51.2,36.4s51.2-16.3,51.2-36.4S182.3,7.1,154,7.1z M154,80.7
		c-28.8,0-52.4-16.7-52.4-37.2S125.2,6.3,154,6.3s52.4,16.7,52.4,37.2S182.8,80.7,154,80.7z"/>
	<path class="st4" d="M202.8,43.4c0,19-21.8,34.7-48.8,34.7s-48.8-15.6-48.8-34.7c0-19,21.8-34.5,48.8-34.5S202.8,24.3,202.8,43.4z
		 M187.5,67.3c8.7-6.2,14.1-14.6,14.1-23.9s-5.4-17.8-13.9-23.8c-8.7-6-20.6-9.9-33.7-9.9s-25,3.7-33.5,9.9
		c-8.7,6-13.9,14.5-13.9,23.8s5.4,17.8,13.9,23.9c8.5,6.2,20.5,10,33.5,10S179,73.5,187.5,67.3L187.5,67.3z"/>
	
		<linearGradient id="SVGID_00000065042832817627491130000009116377499522501817_" gradientUnits="userSpaceOnUse" x1="-786.4156" y1="1340.4115" x2="-746.2955" y2="1409.8969" gradientTransform="matrix(-0.8829 0 0 -0.8972 -522.5208 1277.3547)">
		<stop  offset="0" style="stop-color:#E1E3E1"/>
		<stop  offset="0.1" style="stop-color:#C1C5C4"/>
		<stop  offset="0.3" style="stop-color:#9BA1A2"/>
		<stop  offset="0.5" style="stop-color:#7D8487"/>
		<stop  offset="0.7" style="stop-color:#687074;stop-opacity:0"/>
		<stop  offset="0.8" style="stop-color:#5B6469;stop-opacity:0"/>
		<stop  offset="1" style="stop-color:#576065;stop-opacity:0"/>
	</linearGradient>
	
		<path style="display:inline;opacity:0.4;fill:url(#SVGID_00000065042832817627491130000009116377499522501817_);enable-background:new    ;" d="
		M154,11.4c12.1,0,23.4,3.4,31.9,9.4s13.3,14.1,13.3,22.6S194.5,60,185.9,66c-8.5,6-19.8,9.4-31.9,9.4c-12.1,0-23.4-3.4-31.9-9.4
		s-13.3-14.1-13.3-22.6s4.7-16.6,13.3-22.6S141.9,11.4,154,11.4z M154,12.4c-11.6,0-22.7,3.3-30.9,9.1c-8.3,5.9-12.8,13.7-12.8,22
		s4.6,16.1,12.8,22c8.3,5.9,19.3,9.1,30.9,9.1s22.7-3.3,30.9-9.1c8.3-5.7,12.9-13.6,12.9-21.8s-4.6-16.1-12.8-22
		C176.7,15.6,165.6,12.4,154,12.4L154,12.4z"/>
	<path class="st4" d="M114.2,28.4c0.8,0.5,32.4,18.2,32.4,18.2l7.4,29.8c0.5-0.1,1.1-0.5,1.5-0.9l5.2-29l32.6-17.8
		c0,0,0.7-0.6,1-0.9c0.2-0.2,0.2-0.6,0.2-0.9l-40.3,11.7l-40.3-11.7C113.6,27.5,113.9,28.1,114.2,28.4L114.2,28.4z"/>
	<path class="st6" d="M153.7,42.6l0.3-5.3l-37-10.6c-1.3-0.5-2.3-0.2-3.3,0.2l39.4,15.8C153.3,42.8,153.7,42.7,153.7,42.6z"/>
	
		<linearGradient id="SVGID_00000178181896634677011900000000595573378040455591_" gradientUnits="userSpaceOnUse" x1="-1580.9341" y1="62.8862" x2="-1581.0524" y2="63.0809" gradientTransform="matrix(-34.4891 0 0 -35.0483 -54392.7656 2241.2668)">
		<stop  offset="0" style="stop-color:#27343C"/>
		<stop  offset="1" style="stop-color:#00111E;stop-opacity:0"/>
	</linearGradient>
	<path style="display:inline;fill:url(#SVGID_00000178181896634677011900000000595573378040455591_);" d="M153.7,42.6
		c0,0-2.1-2.7-4.6-4.5c-3.4-2.7-8-4.5-8-4.5L117,26.7c-1.3-0.5-2.3-0.2-3.3,0.2l39.4,15.8C153.3,42.8,153.7,42.7,153.7,42.6z"/>
	<path class="st8" d="M113.9,27.9c0,0.1,0.2,0.2,0.3,0.5l33.7,17.5l4.6-2.1c0,0-0.3-0.1-0.5,0c-0.5,0.1-1.5,0.2-2.5,0
		C148.8,43.6,113.9,27.8,113.9,27.9C113.9,27.8,113.9,27.8,113.9,27.9L113.9,27.9z"/>
	<path class="st9" d="M115,29l31.4,17.7l1.5-0.7l-33.7-17.7C114.4,28.5,114.7,28.7,115,29L115,29z"/>
	<path class="st6" d="M153.2,44.3l0.2-0.1c0,0,0-0.2-0.3-0.1c-0.2,0.1-4.9,1.9-6.5,2.6l5.7,27.9c0.2,1,0.8,1.5,2,1.9l-0.7-32.3
		L153.2,44.3L153.2,44.3z"/>
	<path class="st8" d="M156,74.5V73l3.6-25.7c0-0.3-0.2-0.7-0.7-0.9l-2.1-1.2l-1.5,28.3l-0.2,2.2C155.6,75.6,155.8,75.1,156,74.5
		L156,74.5z M157.9,44.8l2,1.2l33.2-17.1c0,0,1-0.5,1.1-0.9l-1.1,0.5L158.3,44C157.6,44.2,157.4,44.4,157.9,44.8L157.9,44.8z"/>
	<path class="st6" d="M154.5,42.6c0,0.1,0.2,0.2,0.3,0.1l39.6-15.9c-1-0.5-2-0.6-3.3-0.2l-37,10.6L154.5,42.6z"/>
	
		<linearGradient id="SVGID_00000114052538071476871500000017069370839901365416_" gradientUnits="userSpaceOnUse" x1="-1581.2878" y1="62.6378" x2="-1581.384" y2="62.4832" gradientTransform="matrix(-34.4891 0 0 -35.0483 -54392.7656 2241.2668)">
		<stop  offset="0.1" style="stop-color:#02131F"/>
		<stop  offset="0.9" style="stop-color:#02131F;stop-opacity:0"/>
	</linearGradient>
	<path style="display:inline;fill:url(#SVGID_00000114052538071476871500000017069370839901365416_);" d="M153.3,44.2l-0.2,0.1
		L153.3,44.2c0,0,0-0.1-0.2-0.1H153c-0.2,0.1-4.9,1.9-6.5,2.6l0.7,3.4l5.1,24.5c0,0.5,0.2,0.8,0.5,1c0,0-2.5-23.5-2.5-26
		C150.2,46.2,153.3,44.2,153.3,44.2L153.3,44.2z"/>
	
		<linearGradient id="SVGID_00000082353706970664894830000009663080780221396145_" gradientUnits="userSpaceOnUse" x1="-1581.5905" y1="62.8113" x2="-1581.7814" y2="62.8658" gradientTransform="matrix(-34.4891 0 0 -35.0483 -54392.7656 2241.2668)">
		<stop  offset="0.2" style="stop-color:#02131F"/>
		<stop  offset="0.9" style="stop-color:#02131F;stop-opacity:0"/>
	</linearGradient>
	<path style="display:inline;fill:url(#SVGID_00000082353706970664894830000009663080780221396145_);fill-opacity:0.8;" d="
		M154.5,42.6c0,0.1,0.2,0.2,0.3,0.1l39.6-15.9c-1-0.5-2-0.6-3.3-0.2l-37,10.6L154.5,42.6z"/>
	
		<linearGradient id="SVGID_00000006692589757403634720000011876728839097964947_" gradientUnits="userSpaceOnUse" x1="-1582.0869" y1="63.0921" x2="-1582.1067" y2="63.0428" gradientTransform="matrix(-34.4891 0 0 -35.0483 -54392.7656 2241.2668)">
		<stop  offset="0" style="stop-color:#02131F"/>
		<stop  offset="0.1" style="stop-color:#02131F"/>
		<stop  offset="1" style="stop-color:#02131F;stop-opacity:0"/>
	</linearGradient>
	
		<path style="display:inline;opacity:0.8;fill:url(#SVGID_00000006692589757403634720000011876728839097964947_);enable-background:new    ;" d="
		M191.2,26.7l-37,10.6l0.3,5.1c0.7-1.4,1.8-2.9,4.9-4.1c2.3-0.9,24.2-8.6,32.1-11.3c0.5-0.2,1.1-0.3,1.5-0.5
		C192.3,26.3,191.8,26.4,191.2,26.7L191.2,26.7z"/>
	
		<linearGradient id="SVGID_00000169550619247006400710000016252813015724008077_" gradientUnits="userSpaceOnUse" x1="-1581.3755" y1="62.2064" x2="-1581.5342" y2="62.225" gradientTransform="matrix(-34.4891 0 0 -35.0483 -54392.7656 2241.2668)">
		<stop  offset="0.3" style="stop-color:#02131F"/>
		<stop  offset="0.3" style="stop-color:#02131F"/>
		<stop  offset="0.8" style="stop-color:#02131F;stop-opacity:0"/>
	</linearGradient>
	<path style="display:inline;fill:url(#SVGID_00000169550619247006400710000016252813015724008077_);" d="M153.2,44.3l0.2-0.1
		c0,0,0-0.2-0.3-0.1c-0.2,0.1-4.9,1.9-6.5,2.6l5.7,27.9c0.2,1,0.8,1.5,2,1.9l-0.7-32.3L153.2,44.3L153.2,44.3z"/>
	
		<linearGradient id="SVGID_00000142867019456173717930000009989143477221119920_" gradientUnits="userSpaceOnUse" x1="-1581.3688" y1="62.2031" x2="-1581.4758" y2="62.2171" gradientTransform="matrix(-34.4891 0 0 -35.0483 -54392.7656 2241.2668)">
		<stop  offset="0.4" style="stop-color:#27343C"/>
		<stop  offset="1" style="stop-color:#3B474E;stop-opacity:0"/>
	</linearGradient>
	<path style="display:inline;fill:url(#SVGID_00000142867019456173717930000009989143477221119920_);" d="M153.2,44.3l0.2-0.1
		c0,0,0-0.2-0.3-0.1c-0.2,0.1-4.9,1.9-6.5,2.6l5.7,27.9c0.2,1,0.8,1.5,2,1.9l-0.7-32.3L153.2,44.3L153.2,44.3z"/>
	
		<linearGradient id="SVGID_00000109727039295912317690000003664202054380440205_" gradientUnits="userSpaceOnUse" x1="-1583.0127" y1="62.7128" x2="-1581.9041" y2="63.3526" gradientTransform="matrix(-34.4891 0 0 -35.0483 -54392.7656 2241.2668)">
		<stop  offset="0" style="stop-color:#24303A;stop-opacity:0"/>
		<stop  offset="0" style="stop-color:#25323B;stop-opacity:0"/>
		<stop  offset="0.1" style="stop-color:#27343C"/>
	</linearGradient>
	<path style="display:inline;fill:url(#SVGID_00000109727039295912317690000003664202054380440205_);" d="M198,29.1
		c1.1,1.9,7.7,10.9,0.5,28.3h2.8c1.5-3.5,2.6-5.6,3.3-8.7c0,0,0.3-1.2,0.5-2.4c0.2-1.3,0.2-2,0.2-2.8c0-7-2.5-11-2.5-11
		c-2.6-5.8-7.2-11-13.4-15c-5.4-3.4-13.7-5.9-20.6-6.9C169.9,10.7,189.5,16.7,198,29.1L198,29.1z"/>
	
		<linearGradient id="SVGID_00000077299218953613228590000012391493113076249008_" gradientUnits="userSpaceOnUse" x1="-1581.5668" y1="62.8858" x2="-1581.5668" y2="62.7267" gradientTransform="matrix(-34.4891 0 0 -35.0483 -54392.7656 2241.2668)">
		<stop  offset="0.3" style="stop-color:#A5ABAF"/>
		<stop  offset="1" style="stop-color:#A5ABAF;stop-opacity:0"/>
	</linearGradient>
	<path style="display:inline;fill:url(#SVGID_00000077299218953613228590000012391493113076249008_);" d="M153.3,42.8h1.5
		c-0.2,0-0.3,0-0.3-0.1l-0.3-5.3H154l-0.3,5.3C153.7,42.8,153.5,42.9,153.3,42.8L153.3,42.8z"/>
	
		<linearGradient id="SVGID_00000150092237098036045060000016137852373854109825_" gradientUnits="userSpaceOnUse" x1="-1580.823" y1="61.7224" x2="-1580.823" y2="63.7454" gradientTransform="matrix(-34.4891 0 0 -35.0483 -54392.7656 2241.2668)">
		<stop  offset="0" style="stop-color:#DEE0DD"/>
		<stop  offset="0" style="stop-color:#C5C9C7"/>
		<stop  offset="0" style="stop-color:#9EA4A5"/>
		<stop  offset="0" style="stop-color:#82898C"/>
		<stop  offset="0" style="stop-color:#71797D"/>
		<stop  offset="0" style="stop-color:#6B7378"/>
		<stop  offset="0.2" style="stop-color:#333F47"/>
		<stop  offset="0.5" style="stop-color:#27343C"/>
		<stop  offset="0.8" style="stop-color:#333F47"/>
		<stop  offset="1" style="stop-color:#434D54"/>
	</linearGradient>
	<path style="display:inline;fill:url(#SVGID_00000150092237098036045060000016137852373854109825_);" d="M137.6,78
		c-17.2-4.6-33.4-17.4-33.4-33.6c0-19.5,22-35.4,49.8-35.4V7.1c-27.8,0-51.2,16.3-51.2,36.4C102.8,59.5,117.2,73,137.6,78L137.6,78z
		"/>
	
		<linearGradient id="SVGID_00000141442137305055338480000006496032459632154497_" gradientUnits="userSpaceOnUse" x1="-1581.5652" y1="61.6682" x2="-1581.5509" y2="61.6682" gradientTransform="matrix(-34.4891 0 0 -35.0483 -54392.7656 2241.2668)">
		<stop  offset="0" style="stop-color:#DEE0DD"/>
		<stop  offset="0" style="stop-color:#C5C9C7"/>
		<stop  offset="0" style="stop-color:#9EA4A5"/>
		<stop  offset="0" style="stop-color:#82898C"/>
		<stop  offset="0" style="stop-color:#71797D"/>
		<stop  offset="0" style="stop-color:#6B7378"/>
		<stop  offset="0.2" style="stop-color:#333F47"/>
		<stop  offset="0.5" style="stop-color:#27343C"/>
		<stop  offset="0.8" style="stop-color:#333F47"/>
		<stop  offset="1" style="stop-color:#434D54"/>
	</linearGradient>
	<path style="display:inline;fill:url(#SVGID_00000141442137305055338480000006496032459632154497_);" d="M153.5,79.9h0.5H153.5z"/>
	
		<linearGradient id="SVGID_00000137108676441439770030000001238809382430242704_" gradientUnits="userSpaceOnUse" x1="-1580.5026" y1="61.8946" x2="-1580.924" y2="62.5125" gradientTransform="matrix(-34.4891 0 0 -35.0483 -54392.7656 2241.2668)">
		<stop  offset="0.7" style="stop-color:#27343C"/>
		<stop  offset="0.7" style="stop-color:#2B373F"/>
		<stop  offset="0.7" style="stop-color:#36424A"/>
		<stop  offset="0.7" style="stop-color:#49545B"/>
		<stop  offset="0.8" style="stop-color:#646D73;stop-opacity:0"/>
		<stop  offset="0.8" style="stop-color:#868D92;stop-opacity:0"/>
		<stop  offset="0.8" style="stop-color:#B0B5B8;stop-opacity:0"/>
		<stop  offset="0.8" style="stop-color:#E1E3E4;stop-opacity:0"/>
		<stop  offset="0.8" style="stop-color:#FFFFFF;stop-opacity:0"/>
	</linearGradient>
	<path style="display:inline;fill:url(#SVGID_00000137108676441439770030000001238809382430242704_);" d="M110.1,57.2
		c11.5,18.7,37.3,19.7,38.8,19.9h0.2c-19.8-2.6-32.4-11.7-36.8-21.4v-0.1c-2-3.7-2.9-7.7-3.1-12c-0.2-4.1,1.1-8.6,3.6-12.8
		c0.2-0.6,0.3-1.3,0.5-1.3h-2.6C102.8,40,106.2,50.6,110.1,57.2z"/>
	<path class="st20" d="M202.8,43.4c0,19-21.8,34.7-48.8,34.7s-48.8-15.6-48.8-34.7c0-19,21.8-34.5,48.8-34.5S202.8,24.3,202.8,43.4z
		 M187.5,67.3c8.7-6.2,14.1-14.6,14.1-23.9s-5.4-17.8-13.9-23.8c-8.7-6-20.6-9.9-33.7-9.9s-25,3.7-33.5,9.9
		c-8.7,6-13.9,14.5-13.9,23.8s5.4,17.8,13.9,23.9c8.5,6.2,20.5,10,33.5,10S179,73.5,187.5,67.3L187.5,67.3z"/>
	<path class="st21" d="M193.4,28.6L160,45.7c-1.8-0.7-4.7-1.6-5.1-1.6c-0.3-0.1-0.3,0.1-0.3,0.1l4.1,2.4c0.5,0.2,0.7,0.6,0.7,0.9
		l-3.9,28c0.2-0.1,0.2-0.3,0.3-0.5c0.2-0.2,0.2-0.3,0.2-0.6l5.7-28L193.1,29C193.3,28.9,193.4,28.7,193.4,28.6L193.4,28.6z"/>
</g>
<path class="st22" d="M158,12.8h1.1c0.3,0,0.6,0.1,0.6,0.4c0,0.4-0.3,0.5-0.6,0.5H158v-0.2h0.2V13H158V12.8z M158.7,13.5h0.3
	c0.2,0,0.3-0.1,0.3-0.3c0-0.1-0.1-0.3-0.3-0.3h-0.3L158.7,13.5 M155.1,12.8c0.2,0,0.8,0,0.8,0.5c0,0.5-0.6,0.5-0.8,0.5
	c-0.2,0-0.8,0-0.8-0.5C154.3,12.8,154.9,12.8,155.1,12.8L155.1,12.8z M154.7,13.3c0,0.2,0.2,0.3,0.4,0.3c0.2,0,0.4-0.1,0.4-0.3
	c0-0.2-0.2-0.3-0.4-0.3C154.9,13,154.7,13.1,154.7,13.3 M152.3,13.5h0.2V13h-0.2v-0.2h0.8V13h-0.2v0.2h0.6V13h-0.2v-0.2h0.8V13H154
	v0.5h0.2v0.2h-0.8v-0.2h0.2v-0.2h-0.6v0.2h0.2v0.2h-0.8V13.5 M156.7,13.7H156v-0.2h0.2l0-0.5H156v-0.2h0.8l0.6,0.7V13h-0.2v-0.2h0.7
	l0,0.2h-0.2v0.7h-0.6l-0.6-0.7v0.5h0.2V13.7 M161.6,13.5v0.2h-0.9v-0.2h0.2l-0.1-0.1h-0.6l-0.1,0.1h0.2v0.2h-0.7v-0.2h0.2l0.4-0.5
	H160v-0.2h0.9l0.5,0.7L161.6,13.5L161.6,13.5z M160.7,13.3l-0.2-0.3l-0.2,0.3H160.7 M156.8,11.6C156.8,11.6,156.8,11.6,156.8,11.6
	c-0.2,0-0.2,0-0.3,0.1c0,0-0.1,0.2-0.1,0.3c-0.1,0-0.2,0-0.2,0c0-0.2-0.1-1.1-0.1-1.5c0,0,0.1,0,0.2,0c0,0.1,0.1,0.7,0.2,0.8
	c0,0.1,0.1,0.1,0.2,0.1c0.1,0,0.2,0,0.3,0c0.1,0,0.2,0,0.2-0.1c0.1-0.2,0.2-0.7,0.2-0.8c0.1,0,0.1,0,0.2,0c0,0.3-0.1,1.2-0.1,1.5
	c-0.1,0-0.2,0-0.2,0c0-0.2-0.1-0.3-0.1-0.3C157.1,11.7,157,11.6,156.8,11.6C156.9,11.6,156.8,11.6,156.8,11.6"/>
<path class="st22" d="M156.8,12.3c-0.2,0-0.8,0-0.9,0c-0.2,0-0.3-0.1-0.4-0.3c-0.1-0.1-0.1-0.3-0.1-0.7c0-0.2,0-0.4,0-0.5
	c0-0.3,0.2-0.4,0.5-0.4c0.2,0,0.7,0,0.9,0s0.7,0,0.9,0c0.3,0,0.5,0.1,0.5,0.4c0,0.2,0,0.3,0,0.5c0,0.3-0.1,0.6-0.1,0.7
	c-0.1,0.1-0.2,0.2-0.4,0.3C157.6,12.3,157,12.3,156.8,12.3L156.8,12.3z M157.7,12.1c0.1,0,0.2-0.1,0.3-0.2c0-0.1,0.1-0.3,0.1-0.6
	c0-0.2,0-0.4,0-0.5c0-0.2-0.1-0.3-0.4-0.3c-0.2,0-0.7,0-0.9,0s-0.7,0-0.9,0c-0.2,0-0.3,0.1-0.4,0.3c0,0.2,0,0.3,0,0.5
	c0,0.4,0.1,0.6,0.1,0.6c0,0.1,0.1,0.2,0.3,0.2c0.1,0,0.6,0,0.9,0S157.6,12.2,157.7,12.1"/>
<path class="st23" d="M177.8,68.5c-0.9,3.2-3.9,4.6-8.8,4.6c-3.3,0-6.2-0.6-7.8-1.8c-1.6-1.3-1.9-3.1-1.9-5.1v-9.6h3.7V66
	c0,2.1,0.2,3.4,1.2,4.3c1.1,1.1,3.1,1.4,4.8,1.4c3.5,0,5.8-0.9,6.5-3.5c0.1-0.6,0.3-1.3,0.3-2.4v-9.2h2.3v8.6
	C178.1,66.8,178,67.7,177.8,68.5"/>
<path class="st24" d="M177.8,68.5c-0.9,3.2-3.9,4.6-8.8,4.6c-3.3,0-6.2-0.6-7.8-1.8c-1.6-1.3-1.9-3.1-1.9-5.1v-9.6h3.7V66
	c0,2.1,0.2,3.4,1.2,4.3c1.1,1.1,3.1,1.4,4.8,1.4c3.5,0,5.8-0.9,6.5-3.5c0.1-0.6,0.3-1.3,0.3-2.4v-9.2h2.3v8.6
	C178.1,66.8,178,67.7,177.8,68.5"/>
<path class="st23" d="M196.6,59.7l-4.3,7.4h8.4L196.6,59.7 M203.8,72.7l-2.5-4.5h-9.7l-2.6,4.5h-2.4l9.7-16.1h2.3l9.5,16.1H203.8z"
	/>
<path class="st24" d="M196.6,59.7l-4.3,7.4h8.4L196.6,59.7 M203.8,72.7l-2.5-4.5h-9.7l-2.6,4.5h-2.4l9.7-16.1h2.3l9.5,16.1H203.8z"
	/>
<path class="st23" d="M108,59.7l-4.3,7.4h8.4L108,59.7 M115.1,72.7l-2.4-4.5H103l-2.6,4.5H98l9.7-16.1h2.3l9.5,16.1H115.1z"/>
<path class="st24" d="M108,59.7l-4.3,7.4h8.4L108,59.7 M115.1,72.7l-2.4-4.5H103l-2.6,4.5H98l9.7-16.1h2.3l9.5,16.1H115.1z"/>
<path class="st23" d="M139.8,73.1c-6.4,0-12.5-1.8-12.5-8c0-2,1.1-4.1,2.7-5.5c2.6-2.3,6.4-3.2,10.1-3.2c2.2,0,4.8,0.4,6.8,1.3v1.9
	c-1.8-1.1-4.2-1.9-6.5-1.9c-5.3,0-8.9,2.7-8.9,7.3c0,4.1,3.2,6.9,8.2,6.9c1.3,0,3-0.2,4.2-0.6v-5.9h3.7v6.6
	C145.3,72.7,142.2,73.1,139.8,73.1"/>
<path class="st24" d="M139.8,73.1c-6.4,0-12.5-1.8-12.5-8c0-2,1.1-4.1,2.7-5.5c2.6-2.3,6.4-3.2,10.1-3.2c2.2,0,4.8,0.4,6.8,1.3v1.9
	c-1.8-1.1-4.2-1.9-6.5-1.9c-5.3,0-8.9,2.7-8.9,7.3c0,4.1,3.2,6.9,8.2,6.9c1.3,0,3-0.2,4.2-0.6v-5.9h3.7v6.6
	C145.3,72.7,142.2,73.1,139.8,73.1"/>
<path class="st23" d="M224.1,57.7h-2.7v7.7h2.4c2,0,3.2-0.3,4.1-0.9c1-0.7,1.6-1.7,1.6-3C229.5,58.8,227.1,57.7,224.1,57.7
	 M230.5,72.7l-5.2-6.2h-3.9v6.2h-3.7V56.6h7c2.9,0,5.7,0.3,7.3,1.8c0.8,0.8,1.3,1.8,1.3,3.2c0,2.5-2.3,4-4.3,4.6l5.7,6.5L230.5,72.7
	L230.5,72.7z"/>
<path class="st24" d="M224.1,57.7h-2.7v7.7h2.4c2,0,3.2-0.3,4.1-0.9c1-0.7,1.6-1.7,1.6-3C229.5,58.8,227.1,57.7,224.1,57.7
	 M230.5,72.7l-5.2-6.2h-3.9v6.2h-3.7V56.6h7c2.9,0,5.7,0.3,7.3,1.8c0.8,0.8,1.3,1.8,1.3,3.2c0,2.5-2.3,4-4.3,4.6l5.7,6.5L230.5,72.7
	L230.5,72.7z"/>
<path class="st23" d="M82.3,76c-1,0.4-2.1,0.6-3.2,0.6c2.6-1.5,3.6-3.1,4-5.6c0.2-1.4,0.2-2.9,0.2-4.3V56.6h3.7v12.2
	C87.1,71.8,85.7,74.6,82.3,76"/>
<path class="st24" d="M82.3,76c-1,0.4-2.1,0.6-3.2,0.6c2.6-1.5,3.6-3.1,4-5.6c0.2-1.4,0.2-2.9,0.2-4.3V56.6h3.7v12.2
	C87.1,71.8,85.7,74.6,82.3,76"/>
<path class="st25" d="M105.7,13.6c1.3,0,2.5-0.4,2.5-0.4c0-0.1-1.5-0.2-1.5-0.2c-1.4,0-1.9,0.5-1.9,0.5
	C104.8,13.6,105.2,13.6,105.7,13.6"/>
<path class="st25" d="M96.6,15.5c0,0,0.1-0.2,0.1-0.3c0-0.1,0.2-0.6,1.2-0.7c0,0,0.5,0,1,0.1c0,0-0.3,0.7-1.6,0.8
	C97.3,15.5,96.8,15.5,96.6,15.5 M222.3,45.7c-0.3,0.7-1.7,1.5-3.3,1.9c-1.7,0.5-5.2,0.5-7,0c0,0-0.4-0.3-1.7-0.7
	c-3-0.7-3.9-1.2-5.4-2.4c-1.1-0.8-2.2-1.8-3.4-2.8c-0.5-0.4-1.7-1.4-3.9-1.8c-2.3-0.3-7.8-0.7-9.8-1.3c-1.4-0.4-3-1.2-5-3.7
	c-1-1.2-1.7-1.6-3.1-2.3c0,0,1.1,0.7,1.6,1.6c0.8,1.2,1.2,2.1,1.7,2.8c0.4,0.7,1,1.3,1.8,1.8c1,0.7,1.7,0.8,2.8,1
	c1.1,0.2,4.8,0.3,8,0.4c3.1,0.1,4.5,0.9,5.4,1.6c0.9,0.6,2.3,2.4,3.3,3.2c1.3,1,1.4,1,2.9,1.8c0.8,0.4,1.5,0.7,2.1,0.9
	c1.4,0.7,0.8,1.9,0.8,1.9c-0.4,1-1.9,1.3-3.6,1.1c-2.6-0.2-4.9-2-6.7-3.3c-1-0.7-1.4-1.1-3.4-2.2c-3.1-1.8-10.3-1.6-10.3-1.6l-5.3,0
	c-10.3,0.1-14-6.7-15-8.1c-0.4-0.5-0.7-0.9-1-1.2c-0.5-0.5-3.1-3.3-5.8-4.3c0,0,2.7,1.9,2.4,2.9c-0.6,0-1.2,0-2,0
	c-10.3,0.3-12.5-0.2-14.1-0.5c-1.6-0.3-4.4-0.9-7-2c0,0,0.3-2.1-0.8-3.9c0,0,8.5,2.5,15.3,1.8c0,0-11-0.4-17.8-4.9
	c0,0,1.7,4.8,0.4,6.8c0,0-1.8,3.6-11,1.2c0,0-4.2-1.4-7.5-1.4c0,0-2.5,0.1-2.8,1.2c0,0-0.2,0.5,0.5,0.8c0,0,0.7,0.2,0.4,0.6
	c-0.6,0.7-1.3,1.3-2.1,1.6c-2.6-0.1-2.4-1.9-2.4-1.9c0-0.6,0.3-1.1,0.5-1.5c1.6-3,7.3-3.4,7.3-3.4c6-0.5,12.4,0.7,12.4,0.7
	c-4.5-0.9-6.1-1.5-7.4-2.4c-1.7-1.2-3.4-5.3-3.4-5.3c-0.7,2,0.2,4,0.7,5c-0.9-1.1-2.1-2.1-3.2-2.8c-2.8-1.8-6.8-2.4-6.8-2.4
	C109.5,20,109,19,109,19c-1.5-2.3-3.2-2.4-3.2-2.4c0.8,0.9,0.7,2.2,0.7,2.2c0,2.4-3.7,3.2-3.7,3.2c-2.8,2.3-3.3,2.2-3.8,2.3
	c-0.5,0-0.9-0.4-0.9-0.4c-0.2-0.2,0.1-0.4,0.1-0.4c0.5-0.2,0.9-0.6,0.9-0.6c2.7-1.8,3.1-2.7,2.9-4c-0.4-2.5-2.9-2.3-2.9-2.3
	c-1.2,0-1.7,0.7-1.7,0.7c-0.4,0.4-1.4,1.8-1.4,1.8c-0.9,1.2-1.6,1-1.6,1c-0.9,0.1-1.6-0.6-1.6-0.6c0,0-0.1-0.1-0.1-0.1
	c-0.7-0.6-0.1-1.4-0.1-1.4c1.2-1.7,3.1-1.8,3.4-1.9c0.3,0,1.2-0.1,1.2-0.1c2.2-0.1,3.7-1.9,3.7-1.9c-0.9-0.4-2.6-0.2-2.6-0.2
	c-1.6,0.1-2.1,1.5-2.1,1.5c-1.4,0.2-1.4-0.7-1-1c0.2-0.2,1.1-1.4,6.5-2c0,0,2.9-0.5,8,0c0.2,0,0.4,0.2,0.1,0.4
	c-0.6,0.6-2.7,2-5.9,1.3c0,0-0.1,1.1,3.5,1.6c0,0,3.2,0.6,8.4,4c0,0-2.5-3.9-6.9-5c0,0-0.3-0.2,0-0.4c0,0,2.1-1.5,5.7-1.4
	c0,0,12,0.5,18.8,6.4c0,0-0.2-1-1.3-2.4c0,0-0.2-0.2-0.1-0.3c0,0,0.1-0.2,1.3,0c0,0,4.3,0.6,14.3,3.6c0,0,7.5,2.2,11.6,3.6
	c6.1,2.1,21.5,7.3,31.2,11.7c1.7,0.8,8.9,3.7,8.9,3.7c5.4,2.8,10.4,4.8,10.4,4.8c4.9,1.9,8.4,1,8.4,1c1.1-0.4,3.3-1.3,4.1-0.6
	C222.5,44.8,222.6,45.2,222.3,45.7L222.3,45.7z M223.5,44.1c-0.6-1.2-2.7-0.9-2.7-0.9c-0.9,0-2.1,0.9-3.8,1.1
	c-3.5,0.6-6.3-0.4-6.3-0.4c-5.2-1.9-8.8-4-11.1-5.1c-2.3-1.1-10.8-4.8-19.3-8.3c0,0-9.8-4.1-24.2-9.1c0,0-27.9-10.5-47.9-10.5
	c0,0-10.4-0.1-13.9,3.2c0,0-0.6,0.4-0.3,0.9c0,0,0,0.1-0.1,0.2c0,0-1.5,0.8-2.8,2c0,0-0.7,0.6-0.1,1.4c0,0,0.7,1,1.1,1.4
	c0.4,0.4,1.3,1.1,2.6,1c0.6,0,0.6-0.2,0.6-0.2c0.6,0.5,1.6,0.5,1.6,0.5c-0.1-0.3-0.5-0.9-0.5-1.3c0-0.4,0.1-0.8,0.1-0.8
	c0.2-0.4,0.6-1,1-1.2c0.4-0.2,1.3-0.5,2-0.1c0.6,0.3,1.1,1.3,0.5,2.7c0,0-0.7,1.1-1.4,1.2l-0.2,0c-0.4,0-1.3-0.4-1.3-0.4
	s0,0.1,0.1,0.5c0.1,0.2,0.1,0.4,0.2,0.6l-0.2,0.1c0,0-0.6,0.4-0.3,0.9c0,0,0.5,1.7,2,1.7c1.3,0,2.4-1,2.4-1c2.8-2.5,6.9-2.9,6.9-2.9
	c4.4-0.3,10.8,3.5,12.5,4.6c-6.6-0.1-9.2,2-9.2,2c-3.7,2.4-2.3,5.3-2.3,5.3c0.3,0.6,1,1.1,1.5,1.3c0.7,0.3,1.3,0.3,1.8,0.2
	c0.4,0,0.8-0.2,1-0.3c0.5-0.2,1.4-0.7,1.8-1.2c0.3-0.3,0.6-0.9,0.4-1.5c0,0-0.1-0.5,0.4-0.6c0,0,1.7-0.4,5.3,0.9
	c0,0,3.8,1.8,8.8,2.2c0,0,5.6,0.5,7-2.1c0,0,3.2,1.1,8,1.5c0,0,4.6,0.4,12.1-0.1c1.5-0.1,3.2,0,3.2,0c2.4,0.2,3.9,1.3,4.5,2.1
	c2.5,3.3,5.4,9.8,17.4,9.5l5.4-0.1c3.3,0,6,0,8.6,1.2c1.2,0.5,4.2,3,6.1,3.9c5.6,3.1,8.8,1.7,8.8,1.7c1.9-0.9,1.7-2.5,1.3-3.4
	c-0.6-0.1,6.9,0.9,10.1-2.5C223.6,45.3,223.8,44.6,223.5,44.1L223.5,44.1z"/>
</svg>
