<?xml version="1.0" encoding="utf-8"?>
<!-- Generator: Adobe Illustrator 25.4.1, SVG Export Plug-In . SVG Version: 6.00 Build 0)  -->
<svg version="1.1" id="Layer_1" xmlns="http://www.w3.org/2000/svg" xmlns:xlink="http://www.w3.org/1999/xlink" x="0px" y="0px"
	 width="308" height="87" viewBox="0 0 308 87" style="enable-background:new 0 0 308 87;" xml:space="preserve">
<style type="text/css">
	.st0{display:none;}
	.st1{display:inline;fill:url(#outer_00000103265401348761726790000000095223175468758718_);}
	.st2{display:inline;fill:url(#SVGID_1_);}
	
		.st3{display:inline;opacity:0.4;fill:url(#SVGID_00000143597564063375236900000014979323161093763251_);enable-background:new    ;}
	.st4{display:inline;fill:#FFFFFF;}
	
		.st5{display:inline;opacity:0.4;fill:url(#SVGID_00000051367637207166247570000017958295036684323998_);enable-background:new    ;}
	.st6{display:inline;fill:#565F64;}
	.st7{display:inline;fill:url(#SVGID_00000034793920572795823800000013829933346856415675_);}
	.st8{display:inline;fill:#A4AAAE;fill-opacity:0.6;}
	.st9{display:inline;fill:#333E46;}
	.st10{display:inline;fill:url(#SVGID_00000175302451972041453760000005329462289150809515_);}
	.st11{display:inline;fill:url(#SVGID_00000085236160402494057520000002406323494621839031_);fill-opacity:0.8;}
	
		.st12{display:inline;opacity:0.8;fill:url(#SVGID_00000090264349203204046160000001682642619808393856_);enable-background:new    ;}
	.st13{display:inline;fill:url(#SVGID_00000151542649076646176200000000465155300715528597_);}
	.st14{display:inline;fill:url(#SVGID_00000049930500763504296860000018289533253655078037_);}
	.st15{display:inline;fill:url(#SVGID_00000139287910038323094770000006613116494905008802_);}
	.st16{display:inline;fill:url(#SVGID_00000132067330078786630800000003345833871619019710_);}
	.st17{display:inline;fill:url(#SVGID_00000173839442659264781790000004030428069800270223_);}
	.st18{display:inline;fill:url(#SVGID_00000034047502091767802140000001959525505379316644_);}
	.st19{display:inline;fill:url(#SVGID_00000160897608333917140580000014452987115387788190_);}
	.st20{display:inline;fill:#FBFBFB;}
	.st21{display:inline;fill:#333F47;}
	.st22{fill-rule:evenodd;clip-rule:evenodd;}
	.st23{fill-rule:evenodd;clip-rule:evenodd;fill:#FFFFFF;}
</style>
<g class="st0">
	
		<linearGradient id="outer_00000031888534919414952910000004655882518280755390_" gradientUnits="userSpaceOnUse" x1="910.9176" y1="-1310.8922" x2="989.9423" y2="-1377.0763" gradientTransform="matrix(-0.8829 0 0 0.8972 993.2137 1249.3899)">
		<stop  offset="0" style="stop-color:#FFFFFF"/>
		<stop  offset="0.1" style="stop-color:#E7E8E6"/>
		<stop  offset="0.1" style="stop-color:#CDD0D0"/>
		<stop  offset="0.2" style="stop-color:#B5BBBD"/>
		<stop  offset="0.2" style="stop-color:#A5ACAF"/>
		<stop  offset="0.3" style="stop-color:#9BA3A7"/>
		<stop  offset="0.3" style="stop-color:#98A0A4"/>
		<stop  offset="0.4" style="stop-color:#828A8F"/>
		<stop  offset="0.5" style="stop-color:#667075"/>
		<stop  offset="0.6" style="stop-color:#535C63"/>
		<stop  offset="0.7" style="stop-color:#475158"/>
		<stop  offset="0.8" style="stop-color:#434D54"/>
		<stop  offset="1" style="stop-color:#475157"/>
	</linearGradient>
	
		<path id="outer_00000097475054197506639810000004203592696774986932_" style="display:inline;fill:url(#outer_00000031888534919414952910000004655882518280755390_);" d="
		M102.8,43.5c0-20.1,22.9-36.4,51.2-36.4s51.2,16.3,51.2,36.4S182.3,79.9,154,79.9S102.8,63.6,102.8,43.5z M154,77.6
		c26.7,0,48.1-15.2,48.1-34.1S180.5,9.4,154,9.4c-26.7,0-48.1,15.3-48.1,34.1C105.9,62.4,127.3,77.6,154,77.6z"/>
	
		<linearGradient id="SVGID_1_" gradientUnits="userSpaceOnUse" x1="913.3682" y1="-1312.8212" x2="987.4727" y2="-1375.069" gradientTransform="matrix(-0.8829 0 0 0.8972 993.2137 1249.3899)">
		<stop  offset="0" style="stop-color:#0B1F2A"/>
		<stop  offset="0.2" style="stop-color:#333F47"/>
		<stop  offset="0.5" style="stop-color:#777F84"/>
		<stop  offset="0.5" style="stop-color:#81898D"/>
		<stop  offset="0.7" style="stop-color:#B3B8B8"/>
		<stop  offset="0.8" style="stop-color:#D2D5D3"/>
		<stop  offset="0.8" style="stop-color:#DEE0DD"/>
		<stop  offset="1" style="stop-color:#FBFBFB"/>
	</linearGradient>
	<path class="st2" d="M154,77.6c26.7,0,48.1-15.2,48.1-34.1S180.5,9.4,154,9.4c-26.7,0-48.1,15.3-48.1,34.1
		C105.9,62.4,127.3,77.6,154,77.6z M154,11.6c24.9,0,45,14.3,45,31.9s-20.1,31.9-45,31.9s-45-14.3-45-31.9S129.1,11.6,154,11.6z"/>
	
		<linearGradient id="SVGID_00000080198467539065622600000010439495440859387824_" gradientUnits="userSpaceOnUse" x1="935.5089" y1="-1302.7981" x2="965.5303" y2="-1385.3204" gradientTransform="matrix(-0.8829 0 0 0.8972 993.2137 1249.3899)">
		<stop  offset="0" style="stop-color:#E1E3E1"/>
		<stop  offset="0.1" style="stop-color:#C1C5C4"/>
		<stop  offset="0.3" style="stop-color:#9BA1A2"/>
		<stop  offset="0.5" style="stop-color:#7D8487"/>
		<stop  offset="0.7" style="stop-color:#687074;stop-opacity:0"/>
		<stop  offset="0.8" style="stop-color:#5B6469;stop-opacity:0"/>
		<stop  offset="1" style="stop-color:#576065;stop-opacity:0"/>
	</linearGradient>
	
		<path style="display:inline;opacity:0.4;fill:url(#SVGID_00000080198467539065622600000010439495440859387824_);enable-background:new    ;" d="
		M154,7.1c-28.3,0-51.2,16.3-51.2,36.4s22.9,36.4,51.2,36.4s51.2-16.3,51.2-36.4S182.3,7.1,154,7.1z M154,80.7
		c-28.8,0-52.4-16.7-52.4-37.2S125.2,6.3,154,6.3s52.4,16.7,52.4,37.2S182.8,80.7,154,80.7z"/>
	<path class="st4" d="M202.8,43.4c0,19-21.8,34.7-48.8,34.7s-48.8-15.6-48.8-34.7c0-19,21.8-34.5,48.8-34.5S202.8,24.3,202.8,43.4z
		 M187.5,67.3c8.7-6.2,14.1-14.6,14.1-23.9s-5.4-17.8-13.9-23.8c-8.7-6-20.6-9.9-33.7-9.9s-25,3.7-33.5,9.9
		c-8.7,6-13.9,14.5-13.9,23.8s5.4,17.8,13.9,23.9c8.5,6.2,20.5,10,33.5,10S179,73.5,187.5,67.3L187.5,67.3z"/>
	
		<linearGradient id="SVGID_00000127741126072946163890000015497683820145014972_" gradientUnits="userSpaceOnUse" x1="930.3525" y1="-1309.2426" x2="970.4726" y2="-1378.7279" gradientTransform="matrix(-0.8829 0 0 0.8972 993.2137 1249.3899)">
		<stop  offset="0" style="stop-color:#E1E3E1"/>
		<stop  offset="0.1" style="stop-color:#C1C5C4"/>
		<stop  offset="0.3" style="stop-color:#9BA1A2"/>
		<stop  offset="0.5" style="stop-color:#7D8487"/>
		<stop  offset="0.7" style="stop-color:#687074;stop-opacity:0"/>
		<stop  offset="0.8" style="stop-color:#5B6469;stop-opacity:0"/>
		<stop  offset="1" style="stop-color:#576065;stop-opacity:0"/>
	</linearGradient>
	
		<path style="display:inline;opacity:0.4;fill:url(#SVGID_00000127741126072946163890000015497683820145014972_);enable-background:new    ;" d="
		M154,11.4c12.1,0,23.4,3.4,31.9,9.4s13.3,14.1,13.3,22.6S194.5,60,185.9,66c-8.5,6-19.8,9.4-31.9,9.4c-12.1,0-23.4-3.4-31.9-9.4
		s-13.3-14.1-13.3-22.6s4.7-16.6,13.3-22.6S141.9,11.4,154,11.4z M154,12.4c-11.6,0-22.7,3.3-30.9,9.1c-8.3,5.9-12.8,13.7-12.8,22
		s4.6,16.1,12.8,22c8.3,5.9,19.3,9.1,30.9,9.1s22.7-3.3,30.9-9.1c8.3-5.7,12.9-13.6,12.9-21.8s-4.6-16.1-12.8-22
		C176.7,15.6,165.6,12.4,154,12.4L154,12.4z"/>
	<path class="st4" d="M114.2,28.4c0.8,0.5,32.4,18.2,32.4,18.2l7.4,29.8c0.5-0.1,1.1-0.5,1.5-0.9l5.2-29l32.6-17.8
		c0,0,0.7-0.6,1-0.9c0.2-0.2,0.2-0.6,0.2-0.9l-40.3,11.7l-40.3-11.7C113.6,27.5,113.9,28.1,114.2,28.4L114.2,28.4z"/>
	<path class="st6" d="M153.7,42.6l0.3-5.3l-37-10.6c-1.3-0.5-2.3-0.2-3.3,0.2l39.4,15.8C153.3,42.8,153.7,42.7,153.7,42.6z"/>
	
		<linearGradient id="SVGID_00000138532501481224415450000003429856746489726593_" gradientUnits="userSpaceOnUse" x1="-752.5934" y1="506.9619" x2="-752.7117" y2="506.7672" gradientTransform="matrix(-34.4891 0 0 35.0483 -25824.0391 -17730.9414)">
		<stop  offset="0" style="stop-color:#27343C"/>
		<stop  offset="1" style="stop-color:#00111E;stop-opacity:0"/>
	</linearGradient>
	<path style="display:inline;fill:url(#SVGID_00000138532501481224415450000003429856746489726593_);" d="M153.7,42.6
		c0,0-2.1-2.7-4.6-4.5c-3.4-2.7-8-4.5-8-4.5L117,26.7c-1.3-0.5-2.3-0.2-3.3,0.2l39.4,15.8C153.3,42.8,153.7,42.7,153.7,42.6z"/>
	<path class="st8" d="M113.9,27.9c0,0.1,0.2,0.2,0.3,0.5l33.7,17.5l4.6-2.1c0,0-0.3-0.1-0.5,0c-0.5,0.1-1.5,0.2-2.5,0
		C148.8,43.6,113.9,27.8,113.9,27.9C113.9,27.8,113.9,27.8,113.9,27.9L113.9,27.9z"/>
	<path class="st9" d="M115,29l31.4,17.7l1.5-0.7l-33.7-17.7C114.4,28.5,114.7,28.7,115,29L115,29z"/>
	<path class="st6" d="M153.2,44.3l0.2-0.1c0,0,0-0.2-0.3-0.1c-0.2,0.1-4.9,1.9-6.5,2.6l5.7,27.9c0.2,1,0.8,1.5,2,1.9l-0.7-32.3
		L153.2,44.3L153.2,44.3z"/>
	<path class="st8" d="M156,74.5V73l3.6-25.7c0-0.3-0.2-0.7-0.7-0.9l-2.1-1.2l-1.5,28.3l-0.2,2.2C155.6,75.6,155.8,75.1,156,74.5
		L156,74.5z M157.9,44.8l2,1.2l33.2-17.1c0,0,1-0.5,1.1-0.9l-1.1,0.5L158.3,44C157.6,44.2,157.4,44.4,157.9,44.8L157.9,44.8z"/>
	<path class="st6" d="M154.5,42.6c0,0.1,0.2,0.2,0.3,0.1l39.6-15.9c-1-0.5-2-0.6-3.3-0.2l-37,10.6L154.5,42.6z"/>
	
		<linearGradient id="SVGID_00000051359210822938637350000005591433189335652489_" gradientUnits="userSpaceOnUse" x1="-752.947" y1="507.2103" x2="-753.0433" y2="507.365" gradientTransform="matrix(-34.4891 0 0 35.0483 -25824.0391 -17730.9414)">
		<stop  offset="0.1" style="stop-color:#02131F"/>
		<stop  offset="0.9" style="stop-color:#02131F;stop-opacity:0"/>
	</linearGradient>
	<path style="display:inline;fill:url(#SVGID_00000051359210822938637350000005591433189335652489_);" d="M153.3,44.2l-0.2,0.1
		L153.3,44.2c0,0,0-0.1-0.2-0.1H153c-0.2,0.1-4.9,1.9-6.5,2.6l0.7,3.4l5.1,24.5c0,0.5,0.2,0.8,0.5,1c0,0-2.5-23.5-2.5-26
		C150.2,46.2,153.3,44.2,153.3,44.2L153.3,44.2z"/>
	
		<linearGradient id="SVGID_00000004508994387906221870000001257737543396009383_" gradientUnits="userSpaceOnUse" x1="-753.2497" y1="507.0368" x2="-753.4407" y2="506.9823" gradientTransform="matrix(-34.4891 0 0 35.0483 -25824.0391 -17730.9414)">
		<stop  offset="0.2" style="stop-color:#02131F"/>
		<stop  offset="0.9" style="stop-color:#02131F;stop-opacity:0"/>
	</linearGradient>
	<path style="display:inline;fill:url(#SVGID_00000004508994387906221870000001257737543396009383_);fill-opacity:0.8;" d="
		M154.5,42.6c0,0.1,0.2,0.2,0.3,0.1l39.6-15.9c-1-0.5-2-0.6-3.3-0.2l-37,10.6L154.5,42.6z"/>
	
		<linearGradient id="SVGID_00000011712881470416709790000012309824432805651082_" gradientUnits="userSpaceOnUse" x1="-753.7462" y1="506.756" x2="-753.766" y2="506.8053" gradientTransform="matrix(-34.4891 0 0 35.0483 -25824.0391 -17730.9414)">
		<stop  offset="0" style="stop-color:#02131F"/>
		<stop  offset="0.1" style="stop-color:#02131F"/>
		<stop  offset="1" style="stop-color:#02131F;stop-opacity:0"/>
	</linearGradient>
	
		<path style="display:inline;opacity:0.8;fill:url(#SVGID_00000011712881470416709790000012309824432805651082_);enable-background:new    ;" d="
		M191.2,26.7l-37,10.6l0.3,5.1c0.7-1.4,1.8-2.9,4.9-4.1c2.3-0.9,24.2-8.6,32.1-11.3c0.5-0.2,1.1-0.3,1.5-0.5
		C192.3,26.3,191.8,26.4,191.2,26.7L191.2,26.7z"/>
	
		<linearGradient id="SVGID_00000029006780588790807040000015145303267838220685_" gradientUnits="userSpaceOnUse" x1="-753.0348" y1="507.6417" x2="-753.1934" y2="507.6231" gradientTransform="matrix(-34.4891 0 0 35.0483 -25824.0391 -17730.9414)">
		<stop  offset="0.3" style="stop-color:#02131F"/>
		<stop  offset="0.3" style="stop-color:#02131F"/>
		<stop  offset="0.8" style="stop-color:#02131F;stop-opacity:0"/>
	</linearGradient>
	<path style="display:inline;fill:url(#SVGID_00000029006780588790807040000015145303267838220685_);" d="M153.2,44.3l0.2-0.1
		c0,0,0-0.2-0.3-0.1c-0.2,0.1-4.9,1.9-6.5,2.6l5.7,27.9c0.2,1,0.8,1.5,2,1.9l-0.7-32.3L153.2,44.3L153.2,44.3z"/>
	
		<linearGradient id="SVGID_00000165214855015172499170000016101804857318291132_" gradientUnits="userSpaceOnUse" x1="-753.028" y1="507.645" x2="-753.1351" y2="507.631" gradientTransform="matrix(-34.4891 0 0 35.0483 -25824.0391 -17730.9414)">
		<stop  offset="0.4" style="stop-color:#27343C"/>
		<stop  offset="1" style="stop-color:#3B474E;stop-opacity:0"/>
	</linearGradient>
	<path style="display:inline;fill:url(#SVGID_00000165214855015172499170000016101804857318291132_);" d="M153.2,44.3l0.2-0.1
		c0,0,0-0.2-0.3-0.1c-0.2,0.1-4.9,1.9-6.5,2.6l5.7,27.9c0.2,1,0.8,1.5,2,1.9l-0.7-32.3L153.2,44.3L153.2,44.3z"/>
	
		<linearGradient id="SVGID_00000104689706305954445320000018320626919483449018_" gradientUnits="userSpaceOnUse" x1="-754.672" y1="507.1353" x2="-753.5633" y2="506.4955" gradientTransform="matrix(-34.4891 0 0 35.0483 -25824.0391 -17730.9414)">
		<stop  offset="0" style="stop-color:#24303A;stop-opacity:0"/>
		<stop  offset="0" style="stop-color:#25323B;stop-opacity:0"/>
		<stop  offset="0.1" style="stop-color:#27343C"/>
	</linearGradient>
	<path style="display:inline;fill:url(#SVGID_00000104689706305954445320000018320626919483449018_);" d="M198,29.1
		c1.1,1.9,7.7,10.9,0.5,28.3h2.8c1.5-3.5,2.6-5.6,3.3-8.7c0,0,0.3-1.2,0.5-2.4c0.2-1.3,0.2-2,0.2-2.8c0-7-2.5-11-2.5-11
		c-2.6-5.8-7.2-11-13.4-15c-5.4-3.4-13.7-5.9-20.6-6.9C169.9,10.7,189.5,16.7,198,29.1L198,29.1z"/>
	
		<linearGradient id="SVGID_00000046298466014399885540000012354844463970300311_" gradientUnits="userSpaceOnUse" x1="-753.226" y1="506.9623" x2="-753.226" y2="507.1214" gradientTransform="matrix(-34.4891 0 0 35.0483 -25824.0391 -17730.9414)">
		<stop  offset="0.3" style="stop-color:#A5ABAF"/>
		<stop  offset="1" style="stop-color:#A5ABAF;stop-opacity:0"/>
	</linearGradient>
	<path style="display:inline;fill:url(#SVGID_00000046298466014399885540000012354844463970300311_);" d="M153.3,42.8h1.5
		c-0.2,0-0.3,0-0.3-0.1l-0.3-5.3H154l-0.3,5.3C153.7,42.8,153.5,42.9,153.3,42.8L153.3,42.8z"/>
	
		<linearGradient id="SVGID_00000124878904196709534850000004711301662511527844_" gradientUnits="userSpaceOnUse" x1="-752.4823" y1="508.1256" x2="-752.4823" y2="506.1027" gradientTransform="matrix(-34.4891 0 0 35.0483 -25824.0391 -17730.9414)">
		<stop  offset="0" style="stop-color:#DEE0DD"/>
		<stop  offset="0" style="stop-color:#C5C9C7"/>
		<stop  offset="0" style="stop-color:#9EA4A5"/>
		<stop  offset="0" style="stop-color:#82898C"/>
		<stop  offset="0" style="stop-color:#71797D"/>
		<stop  offset="0" style="stop-color:#6B7378"/>
		<stop  offset="0.2" style="stop-color:#333F47"/>
		<stop  offset="0.5" style="stop-color:#27343C"/>
		<stop  offset="0.8" style="stop-color:#333F47"/>
		<stop  offset="1" style="stop-color:#434D54"/>
	</linearGradient>
	<path style="display:inline;fill:url(#SVGID_00000124878904196709534850000004711301662511527844_);" d="M137.6,78
		c-17.2-4.6-33.4-17.4-33.4-33.6c0-19.5,22-35.4,49.8-35.4V7.1c-27.8,0-51.2,16.3-51.2,36.4C102.8,59.5,117.2,73,137.6,78L137.6,78z
		"/>
	
		<linearGradient id="SVGID_00000011724437897234471350000010951115798375722393_" gradientUnits="userSpaceOnUse" x1="-753.2245" y1="508.1798" x2="-753.2102" y2="508.1798" gradientTransform="matrix(-34.4891 0 0 35.0483 -25824.0391 -17730.9414)">
		<stop  offset="0" style="stop-color:#DEE0DD"/>
		<stop  offset="0" style="stop-color:#C5C9C7"/>
		<stop  offset="0" style="stop-color:#9EA4A5"/>
		<stop  offset="0" style="stop-color:#82898C"/>
		<stop  offset="0" style="stop-color:#71797D"/>
		<stop  offset="0" style="stop-color:#6B7378"/>
		<stop  offset="0.2" style="stop-color:#333F47"/>
		<stop  offset="0.5" style="stop-color:#27343C"/>
		<stop  offset="0.8" style="stop-color:#333F47"/>
		<stop  offset="1" style="stop-color:#434D54"/>
	</linearGradient>
	<path style="display:inline;fill:url(#SVGID_00000011724437897234471350000010951115798375722393_);" d="M153.5,79.9h0.5H153.5z"/>
	
		<linearGradient id="SVGID_00000175306422390029627590000001258130891668516025_" gradientUnits="userSpaceOnUse" x1="-752.1619" y1="507.9535" x2="-752.5833" y2="507.3356" gradientTransform="matrix(-34.4891 0 0 35.0483 -25824.0391 -17730.9414)">
		<stop  offset="0.7" style="stop-color:#27343C"/>
		<stop  offset="0.7" style="stop-color:#2B373F"/>
		<stop  offset="0.7" style="stop-color:#36424A"/>
		<stop  offset="0.7" style="stop-color:#49545B"/>
		<stop  offset="0.8" style="stop-color:#646D73;stop-opacity:0"/>
		<stop  offset="0.8" style="stop-color:#868D92;stop-opacity:0"/>
		<stop  offset="0.8" style="stop-color:#B0B5B8;stop-opacity:0"/>
		<stop  offset="0.8" style="stop-color:#E1E3E4;stop-opacity:0"/>
		<stop  offset="0.8" style="stop-color:#FFFFFF;stop-opacity:0"/>
	</linearGradient>
	<path style="display:inline;fill:url(#SVGID_00000175306422390029627590000001258130891668516025_);" d="M110.1,57.2
		c11.5,18.7,37.3,19.7,38.8,19.9h0.2c-19.8-2.6-32.4-11.7-36.8-21.4v-0.1c-2-3.7-2.9-7.7-3.1-12c-0.2-4.1,1.1-8.6,3.6-12.8
		c0.2-0.6,0.3-1.3,0.5-1.3h-2.6C102.8,40,106.2,50.6,110.1,57.2z"/>
	<path class="st20" d="M202.8,43.4c0,19-21.8,34.7-48.8,34.7s-48.8-15.6-48.8-34.7c0-19,21.8-34.5,48.8-34.5S202.8,24.3,202.8,43.4z
		 M187.5,67.3c8.7-6.2,14.1-14.6,14.1-23.9s-5.4-17.8-13.9-23.8c-8.7-6-20.6-9.9-33.7-9.9s-25,3.7-33.5,9.9
		c-8.7,6-13.9,14.5-13.9,23.8s5.4,17.8,13.9,23.9c8.5,6.2,20.5,10,33.5,10S179,73.5,187.5,67.3L187.5,67.3z"/>
	<path class="st21" d="M193.4,28.6L160,45.7c-1.8-0.7-4.7-1.6-5.1-1.6c-0.3-0.1-0.3,0.1-0.3,0.1l4.1,2.4c0.5,0.2,0.7,0.6,0.7,0.9
		l-3.9,28c0.2-0.1,0.2-0.3,0.3-0.5c0.2-0.2,0.2-0.3,0.2-0.6l5.7-28L193.1,29C193.3,28.9,193.4,28.7,193.4,28.6L193.4,28.6z"/>
</g>
<g>
	<g>
		<path class="st22" d="M49.9,61.3v3.1l7.1-3.1h7.3l-8.3,4l10.6,4.5h-8.3L50,66.4v3.4h-7.5v-8.5C42.5,61.3,49.9,61.3,49.9,61.3z
			 M68.3,61.3h7v8.5h-7V61.3L68.3,61.3z M86.1,61.3h7.2l8.5,8.5h-6.7l-1.8-1.7h-8.7l-1.8,1.7H77L86.1,61.3z M113.7,69.8l3.7-8.5h7
			l5.4,4.5l4.9-4.5h7.6l3.5,8.5h-6.5l-2.2-4.5l-5.3,4.5h-4.5l-5.7-4.5l-2.2,4.5H113.7z M172.6,62.7v-1.4h21.6v1.4h-7v7.1H180v-7.1
			L172.6,62.7L172.6,62.7z M222.4,61.3h11.1c3.9,0,9.3,0.5,9.3,2.2c0,1-2.2,1.8-4.8,2.3l6.2,3.1c0.6,0.3,1.3,0.5,2.2,0.8v0.2h-6.2
			c-1.2,0-2.5-0.4-3.2-0.7l-6.9-3.3V70h-7.8L222.4,61.3L222.4,61.3z M262.7,62.9c-1.8-0.3-3.6-0.5-5.5-0.5c-1.7,0-4.3,0.3-4.3,1
			c0,0.6,2.1,0.9,3.5,1.2l2.7,0.4c3.2,0.5,5.8,1.3,5.8,2.5c0,1.8-4.3,2.7-9.1,2.7c-3.2,0-5.9-0.3-8.7-0.9l-1-1.3
			c2.5,0.4,5.2,0.9,8,0.9c1.8,0,4.1-0.4,4.1-1s-1.7-0.9-3.1-1.2l-2.6-0.4c-3.2-0.5-6.8-1.2-6.8-2.5c0-1.8,5.6-2.7,10.3-2.7
			c2.5,0,4.7,0.2,6.9,0.6L262.7,62.9L262.7,62.9z M154,16.8c19.4,0,38.9,0.9,57.6,2.6c22.2,2,57.5,7.7,57.5,17
			c0,7.4-22.1,12.2-39.7,14.9c-12.9,1.9-26.8,3-40.7,3.8c-11.4,0.6-23,0.9-34.7,0.9c-19.5,0-38.9-0.9-57.6-2.6
			c-22.2-2-57.6-7.7-57.6-17c0-7.3,22.1-12.2,39.7-14.8c12.9-1.9,26.8-3.1,40.7-3.8C130.7,17.1,142.4,16.8,154,16.8L154,16.8z"/>
		<path class="st22" d="M160.2,60.8c7.6,0,14.5,2,14.5,4.7c0,2.6-6.9,4.7-14.5,4.7s-14.5-2-14.5-4.7
			C145.7,62.9,152.6,60.8,160.2,60.8z M206.9,60.8c7.6,0,14.5,2,14.5,4.7c0,2.6-6.9,4.7-14.5,4.7s-14.5-2-14.5-4.7
			C192.4,62.9,199.3,60.8,206.9,60.8z"/>
		<path class="st23" d="M86.3,66.7h5.5l-2.7-2.5L86.3,66.7L86.3,66.7z M230.2,62.6v2.8c2.6-0.1,5.5-0.6,5.5-1.6s-2.7-1.2-5.1-1.2
			C230.6,62.6,230.2,62.6,230.2,62.6z M153.8,21.2c-17.9,0-35.7,0.7-53.2,2c-17.1,1.3-53.1,5.7-53.1,13.1c0,6,23,9.8,36.8,11.5
			c12,1.5,24.7,2.3,37.4,2.9c10.6,0.5,21.3,0.7,32.1,0.7c17.9,0,35.7-0.7,53.1-2c17.2-1.3,53.2-5.7,53.2-13.1
			c0-6-23.1-9.8-36.9-11.5c-12-1.5-24.7-2.3-37.4-2.9C175.3,21.4,164.5,21.2,153.8,21.2L153.8,21.2z M160.2,62.4
			c-4.8,0-7.3,1.8-7.3,3.2c0,1.4,2.5,3.2,7.3,3.2c4.7,0,7.2-1.8,7.2-3.2C167.4,64.1,164.9,62.4,160.2,62.4L160.2,62.4z M206.8,62.4
			c-4.8,0-7.2,1.8-7.2,3.2c0,1.4,2.5,3.2,7.2,3.2s7.3-1.8,7.3-3.2C214.1,64.1,211.6,62.4,206.8,62.4L206.8,62.4z"/>
		<path class="st22" d="M80.8,27h18.7v6.9l15-6.9h17.2l-17.2,8.6l21.1,10.1h-17.5l-18.6-8.3v8.3H84V28.3l-3.2-0.5V27L80.8,27z
			 M144.8,27.8V27h18.4v18.7h-15.4V28.3L144.8,27.8L144.8,27.8z M195.4,28.3l-2.9-0.5V27h22.2l18.6,18.7h-15.1l-12.5-12.3
			l-12.5,12.3h-14.9L195.4,28.3L195.4,28.3z"/>
	</g>
</g>
</svg>
