<?xml version="1.0" encoding="utf-8"?>
<!-- Generator: Adobe Illustrator 25.4.1, SVG Export Plug-In . SVG Version: 6.00 Build 0)  -->
<svg version="1.1" id="Layer_1" xmlns="http://www.w3.org/2000/svg" xmlns:xlink="http://www.w3.org/1999/xlink" x="0px" y="0px"
	 width="308" height="87" viewBox="0 0 308 87" style="enable-background:new 0 0 308 87;" xml:space="preserve">
<style type="text/css">
	.st0{fill:url(#outer_00000092439893056560532300000015282857605938422973_);}
	.st1{fill:url(#SVGID_1_);}
	.st2{opacity:0.4;fill:url(#SVGID_00000142862501372815341780000010197980919421867950_);enable-background:new    ;}
	.st3{fill:#FFFFFF;}
	.st4{opacity:0.4;fill:url(#SVGID_00000040551307520559914820000007247811289178576775_);enable-background:new    ;}
	.st5{fill:#565F64;}
	.st6{fill:url(#SVGID_00000016760335486331062940000015213105846945012632_);}
	.st7{fill:#A4AAAE;fill-opacity:0.6;}
	.st8{fill:#333E46;}
	.st9{fill:url(#SVGID_00000026133997423393242080000004782123488248177573_);}
	.st10{fill:url(#SVGID_00000078751597414316153000000013135320802154547862_);fill-opacity:0.8;}
	.st11{opacity:0.8;fill:url(#SVGID_00000039128694064664897430000014791620515083638681_);enable-background:new    ;}
	.st12{fill:url(#SVGID_00000005239072258079561540000016873925722816497843_);}
	.st13{fill:url(#SVGID_00000119086796696902183510000008634588737464705722_);}
	.st14{fill:url(#SVGID_00000036245788451052695010000016985302275673883534_);}
	.st15{fill:url(#SVGID_00000020395925236488237530000010778826048837249709_);}
	.st16{fill:url(#SVGID_00000003076477444578694260000001810175224395692440_);}
	.st17{fill:url(#SVGID_00000177449838464260612560000001488161469423874970_);}
	.st18{fill:url(#SVGID_00000158710218286198600490000010066322321375214993_);}
	.st19{fill:#FBFBFB;}
	.st20{fill:#333F47;}
</style>
<g>
	
		<linearGradient id="outer_00000005987336850604948420000017938224388452834453_" gradientUnits="userSpaceOnUse" x1="2627.7104" y1="2447.6936" x2="2706.7439" y2="2513.885" gradientTransform="matrix(-0.8829 0 0 -0.8972 2508.9482 2269.3547)">
		<stop  offset="0" style="stop-color:#FFFFFF"/>
		<stop  offset="0.1" style="stop-color:#E7E8E6"/>
		<stop  offset="0.1" style="stop-color:#CDD0D0"/>
		<stop  offset="0.2" style="stop-color:#B5BBBD"/>
		<stop  offset="0.2" style="stop-color:#A5ACAF"/>
		<stop  offset="0.3" style="stop-color:#9BA3A7"/>
		<stop  offset="0.3" style="stop-color:#98A0A4"/>
		<stop  offset="0.4" style="stop-color:#828A8F"/>
		<stop  offset="0.5" style="stop-color:#667075"/>
		<stop  offset="0.6" style="stop-color:#535C63"/>
		<stop  offset="0.7" style="stop-color:#475158"/>
		<stop  offset="0.8" style="stop-color:#434D54"/>
		<stop  offset="1" style="stop-color:#475157"/>
	</linearGradient>
	
		<path id="outer_00000097475054197506639810000004203592696774986932_" style="fill:url(#outer_00000005987336850604948420000017938224388452834453_);" d="
		M102.8,43.5c0-20.1,22.9-36.4,51.2-36.4s51.2,16.3,51.2,36.4S182.3,79.9,154,79.9S102.8,63.6,102.8,43.5z M154,77.6
		c26.7,0,48.1-15.2,48.1-34.1S180.5,9.4,154,9.4c-26.7,0-48.1,15.3-48.1,34.1C105.9,62.4,127.3,77.6,154,77.6z"/>
	
		<linearGradient id="SVGID_1_" gradientUnits="userSpaceOnUse" x1="2630.1582" y1="2449.626" x2="2704.2043" y2="2511.8247" gradientTransform="matrix(-0.8829 0 0 -0.8972 2508.9482 2269.3547)">
		<stop  offset="0" style="stop-color:#0B1F2A"/>
		<stop  offset="0.2" style="stop-color:#333F47"/>
		<stop  offset="0.5" style="stop-color:#777F84"/>
		<stop  offset="0.5" style="stop-color:#81898D"/>
		<stop  offset="0.7" style="stop-color:#B3B8B8"/>
		<stop  offset="0.8" style="stop-color:#D2D5D3"/>
		<stop  offset="0.8" style="stop-color:#DEE0DD"/>
		<stop  offset="1" style="stop-color:#FBFBFB"/>
	</linearGradient>
	<path class="st1" d="M154,77.6c26.7,0,48.1-15.2,48.1-34.1S180.5,9.4,154,9.4c-26.7,0-48.1,15.3-48.1,34.1
		C105.9,62.4,127.3,77.6,154,77.6z M154,11.6c24.9,0,45,14.3,45,31.9s-20.1,31.9-45,31.9s-45-14.3-45-31.9S129.1,11.6,154,11.6z"/>
	
		<linearGradient id="SVGID_00000059268868399424420730000005482944490595375013_" gradientUnits="userSpaceOnUse" x1="2652.2314" y1="2439.5688" x2="2682.259" y2="2522.1084" gradientTransform="matrix(-0.8829 0 0 -0.8972 2508.9482 2269.3547)">
		<stop  offset="0" style="stop-color:#E1E3E1"/>
		<stop  offset="0.1" style="stop-color:#C1C5C4"/>
		<stop  offset="0.3" style="stop-color:#9BA1A2"/>
		<stop  offset="0.5" style="stop-color:#7D8487"/>
		<stop  offset="0.7" style="stop-color:#687074;stop-opacity:0"/>
		<stop  offset="0.8" style="stop-color:#5B6469;stop-opacity:0"/>
		<stop  offset="1" style="stop-color:#576065;stop-opacity:0"/>
	</linearGradient>
	<path style="opacity:0.4;fill:url(#SVGID_00000059268868399424420730000005482944490595375013_);enable-background:new    ;" d="
		M154,7.1c-28.3,0-51.2,16.3-51.2,36.4s22.9,36.4,51.2,36.4s51.2-16.3,51.2-36.4S182.3,7.1,154,7.1z M154,80.7
		c-28.8,0-52.4-16.7-52.4-37.2S125.2,6.3,154,6.3s52.4,16.7,52.4,37.2S182.8,80.7,154,80.7z"/>
	<path class="st3" d="M202.8,43.4c0,19-21.8,34.7-48.8,34.7s-48.8-15.6-48.8-34.7c0-19,21.8-34.5,48.8-34.5S202.8,24.3,202.8,43.4z
		 M187.5,67.3c8.7-6.2,14.1-14.6,14.1-23.9s-5.4-17.8-13.9-23.8c-8.7-6-20.6-9.9-33.7-9.9s-25,3.7-33.5,9.9
		c-8.7,6-13.9,14.5-13.9,23.8s5.4,17.8,13.9,23.9c8.5,6.2,20.5,10,33.5,10S179,73.5,187.5,67.3L187.5,67.3z"/>
	
		<linearGradient id="SVGID_00000075857716488514540780000017506948662698245524_" gradientUnits="userSpaceOnUse" x1="2647.1672" y1="2446.0466" x2="2687.2874" y2="2515.532" gradientTransform="matrix(-0.8829 0 0 -0.8972 2508.9482 2269.3547)">
		<stop  offset="0" style="stop-color:#E1E3E1"/>
		<stop  offset="0.1" style="stop-color:#C1C5C4"/>
		<stop  offset="0.3" style="stop-color:#9BA1A2"/>
		<stop  offset="0.5" style="stop-color:#7D8487"/>
		<stop  offset="0.7" style="stop-color:#687074;stop-opacity:0"/>
		<stop  offset="0.8" style="stop-color:#5B6469;stop-opacity:0"/>
		<stop  offset="1" style="stop-color:#576065;stop-opacity:0"/>
	</linearGradient>
	<path style="opacity:0.4;fill:url(#SVGID_00000075857716488514540780000017506948662698245524_);enable-background:new    ;" d="
		M154,11.4c12.1,0,23.4,3.4,31.9,9.4c8.5,6,13.3,14.1,13.3,22.6s-4.7,16.6-13.3,22.6c-8.5,6-19.8,9.4-31.9,9.4
		c-12.1,0-23.4-3.4-31.9-9.4s-13.3-14.1-13.3-22.6s4.7-16.6,13.3-22.6S141.9,11.4,154,11.4z M154,12.4c-11.6,0-22.7,3.3-30.9,9.1
		c-8.3,5.9-12.8,13.7-12.8,22s4.6,16.1,12.8,22c8.3,5.9,19.3,9.1,30.9,9.1s22.7-3.3,30.9-9.1c8.3-5.7,12.9-13.6,12.9-21.8
		s-4.6-16.1-12.8-22C176.7,15.6,165.6,12.4,154,12.4L154,12.4z"/>
	<path class="st3" d="M114.2,28.4c0.8,0.5,32.4,18.2,32.4,18.2l7.4,29.8c0.5-0.1,1.1-0.5,1.5-0.9l5.2-29l32.6-17.8
		c0,0,0.7-0.6,1-0.9c0.2-0.2,0.2-0.6,0.2-0.9l-40.3,11.7l-40.3-11.7C113.6,27.5,113.9,28.1,114.2,28.4L114.2,28.4z"/>
	<path class="st5" d="M153.7,42.6l0.3-5.3l-37-10.6c-1.3-0.5-2.3-0.2-3.3,0.2l39.4,15.8C153.3,42.8,153.7,42.7,153.7,42.6z"/>
	
		<linearGradient id="SVGID_00000041288378860995097620000009262671126735868302_" gradientUnits="userSpaceOnUse" x1="75.7474" y1="91.1901" x2="75.6291" y2="91.3848" gradientTransform="matrix(-34.4891 0 0 -35.0483 2744.688 3233.2673)">
		<stop  offset="0" style="stop-color:#27343C"/>
		<stop  offset="1" style="stop-color:#00111E;stop-opacity:0"/>
	</linearGradient>
	<path style="fill:url(#SVGID_00000041288378860995097620000009262671126735868302_);" d="M153.7,42.6c0,0-2.1-2.7-4.6-4.5
		c-3.4-2.7-8-4.5-8-4.5L117,26.7c-1.3-0.5-2.3-0.2-3.3,0.2l39.4,15.8C153.3,42.8,153.7,42.7,153.7,42.6z"/>
	<path class="st7" d="M113.9,27.9c0,0.1,0.2,0.2,0.3,0.5l33.7,17.5l4.6-2.1c0,0-0.3-0.1-0.5,0c-0.5,0.1-1.5,0.2-2.5,0
		C148.8,43.6,113.9,27.8,113.9,27.9C113.9,27.8,113.9,27.8,113.9,27.9L113.9,27.9z"/>
	<path class="st8" d="M115,29l31.4,17.7l1.5-0.7l-33.7-17.7C114.4,28.5,114.7,28.7,115,29L115,29z"/>
	<path class="st5" d="M153.2,44.3l0.2-0.1c0,0,0-0.2-0.3-0.1c-0.2,0.1-4.9,1.9-6.5,2.6l5.7,27.9c0.2,1,0.8,1.5,2,1.9l-0.7-32.3
		L153.2,44.3L153.2,44.3z"/>
	<path class="st7" d="M156,74.5V73l3.6-25.7c0-0.3-0.2-0.7-0.7-0.9l-2.1-1.2l-1.5,28.3l-0.2,2.2C155.6,75.6,155.8,75.1,156,74.5
		L156,74.5z M157.9,44.8l2,1.2l33.2-17.1c0,0,1-0.5,1.1-0.9l-1.1,0.5L158.3,44C157.6,44.2,157.4,44.4,157.9,44.8L157.9,44.8z"/>
	<path class="st5" d="M154.5,42.6c0,0.1,0.2,0.2,0.3,0.1l39.6-15.9c-1-0.5-2-0.6-3.3-0.2l-37,10.6L154.5,42.6z"/>
	
		<linearGradient id="SVGID_00000009583060830408393060000016201553422376600754_" gradientUnits="userSpaceOnUse" x1="75.3938" y1="90.9415" x2="75.2975" y2="90.7868" gradientTransform="matrix(-34.4891 0 0 -35.0483 2744.688 3233.2673)">
		<stop  offset="0.1" style="stop-color:#02131F"/>
		<stop  offset="0.9" style="stop-color:#02131F;stop-opacity:0"/>
	</linearGradient>
	<path style="fill:url(#SVGID_00000009583060830408393060000016201553422376600754_);" d="M153.3,44.2l-0.2,0.1L153.3,44.2
		c0,0,0-0.1-0.2-0.1H153c-0.2,0.1-4.9,1.9-6.5,2.6l0.7,3.4l5.1,24.5c0,0.5,0.2,0.8,0.5,1c0,0-2.5-23.5-2.5-26
		C150.2,46.2,153.3,44.2,153.3,44.2L153.3,44.2z"/>
	
		<linearGradient id="SVGID_00000058566556607668026610000010563489561028285618_" gradientUnits="userSpaceOnUse" x1="75.0913" y1="91.1162" x2="74.9003" y2="91.1707" gradientTransform="matrix(-34.4891 0 0 -35.0483 2744.688 3233.2673)">
		<stop  offset="0.2" style="stop-color:#02131F"/>
		<stop  offset="0.9" style="stop-color:#02131F;stop-opacity:0"/>
	</linearGradient>
	<path style="fill:url(#SVGID_00000058566556607668026610000010563489561028285618_);fill-opacity:0.8;" d="M154.5,42.6
		c0,0.1,0.2,0.2,0.3,0.1l39.6-15.9c-1-0.5-2-0.6-3.3-0.2l-37,10.6L154.5,42.6z"/>
	
		<linearGradient id="SVGID_00000175314921299846297440000015369817190523250593_" gradientUnits="userSpaceOnUse" x1="74.5951" y1="91.3957" x2="74.5753" y2="91.3464" gradientTransform="matrix(-34.4891 0 0 -35.0483 2744.688 3233.2673)">
		<stop  offset="0" style="stop-color:#02131F"/>
		<stop  offset="0.1" style="stop-color:#02131F"/>
		<stop  offset="1" style="stop-color:#02131F;stop-opacity:0"/>
	</linearGradient>
	<path style="opacity:0.8;fill:url(#SVGID_00000175314921299846297440000015369817190523250593_);enable-background:new    ;" d="
		M191.2,26.7l-37,10.6l0.3,5.1c0.7-1.4,1.8-2.9,4.9-4.1c2.3-0.9,24.2-8.6,32.1-11.3c0.5-0.2,1.1-0.3,1.5-0.5
		C192.3,26.3,191.8,26.4,191.2,26.7L191.2,26.7z"/>
	
		<linearGradient id="SVGID_00000109745944015220033900000013848568192742103721_" gradientUnits="userSpaceOnUse" x1="75.3062" y1="90.5127" x2="75.1476" y2="90.5313" gradientTransform="matrix(-34.4891 0 0 -35.0483 2744.688 3233.2673)">
		<stop  offset="0.3" style="stop-color:#02131F"/>
		<stop  offset="0.3" style="stop-color:#02131F"/>
		<stop  offset="0.8" style="stop-color:#02131F;stop-opacity:0"/>
	</linearGradient>
	<path style="fill:url(#SVGID_00000109745944015220033900000013848568192742103721_);" d="M153.2,44.3l0.2-0.1c0,0,0-0.2-0.3-0.1
		c-0.2,0.1-4.9,1.9-6.5,2.6l5.7,27.9c0.2,1,0.8,1.5,2,1.9l-0.7-32.3L153.2,44.3L153.2,44.3z"/>
	
		<linearGradient id="SVGID_00000132808186703060545380000006694538129489431191_" gradientUnits="userSpaceOnUse" x1="75.313" y1="90.5095" x2="75.2059" y2="90.5235" gradientTransform="matrix(-34.4891 0 0 -35.0483 2744.688 3233.2673)">
		<stop  offset="0.4" style="stop-color:#27343C"/>
		<stop  offset="1" style="stop-color:#3B474E;stop-opacity:0"/>
	</linearGradient>
	<path style="fill:url(#SVGID_00000132808186703060545380000006694538129489431191_);" d="M153.2,44.3l0.2-0.1c0,0,0-0.2-0.3-0.1
		c-0.2,0.1-4.9,1.9-6.5,2.6l5.7,27.9c0.2,1,0.8,1.5,2,1.9l-0.7-32.3L153.2,44.3L153.2,44.3z"/>
	
		<linearGradient id="SVGID_00000136410627423401420030000008146159987799888795_" gradientUnits="userSpaceOnUse" x1="73.669" y1="91.0161" x2="74.7777" y2="91.6559" gradientTransform="matrix(-34.4891 0 0 -35.0483 2744.688 3233.2673)">
		<stop  offset="0" style="stop-color:#24303A;stop-opacity:0"/>
		<stop  offset="0" style="stop-color:#25323B;stop-opacity:0"/>
		<stop  offset="0.1" style="stop-color:#27343C"/>
	</linearGradient>
	<path style="fill:url(#SVGID_00000136410627423401420030000008146159987799888795_);" d="M198,29.1c1.1,1.9,7.7,10.9,0.5,28.3h2.8
		c1.5-3.5,2.6-5.6,3.3-8.7c0,0,0.3-1.2,0.5-2.4c0.2-1.3,0.2-2,0.2-2.8c0-7-2.5-11-2.5-11c-2.6-5.8-7.2-11-13.4-15
		c-5.4-3.4-13.7-5.9-20.6-6.9C169.9,10.7,189.5,16.7,198,29.1L198,29.1z"/>
	
		<linearGradient id="SVGID_00000101067265210838167820000008151449712394546363_" gradientUnits="userSpaceOnUse" x1="75.1138" y1="91.1896" x2="75.1138" y2="91.0305" gradientTransform="matrix(-34.4891 0 0 -35.0483 2744.688 3233.2673)">
		<stop  offset="0.3" style="stop-color:#A5ABAF"/>
		<stop  offset="1" style="stop-color:#A5ABAF;stop-opacity:0"/>
	</linearGradient>
	<path style="fill:url(#SVGID_00000101067265210838167820000008151449712394546363_);" d="M153.3,42.8h1.5c-0.2,0-0.3,0-0.3-0.1
		l-0.3-5.3H154l-0.3,5.3C153.7,42.8,153.5,42.9,153.3,42.8L153.3,42.8z"/>
	
		<linearGradient id="SVGID_00000038382740535456591630000010803766028728159163_" gradientUnits="userSpaceOnUse" x1="75.8588" y1="90.0264" x2="75.8588" y2="92.0478" gradientTransform="matrix(-34.4891 0 0 -35.0483 2744.688 3233.2673)">
		<stop  offset="0" style="stop-color:#DEE0DD"/>
		<stop  offset="0" style="stop-color:#C5C9C7"/>
		<stop  offset="0" style="stop-color:#9EA4A5"/>
		<stop  offset="0" style="stop-color:#82898C"/>
		<stop  offset="0" style="stop-color:#71797D"/>
		<stop  offset="0" style="stop-color:#6B7378"/>
		<stop  offset="0.2" style="stop-color:#333F47"/>
		<stop  offset="0.5" style="stop-color:#27343C"/>
		<stop  offset="0.8" style="stop-color:#333F47"/>
		<stop  offset="1" style="stop-color:#434D54"/>
	</linearGradient>
	<path style="fill:url(#SVGID_00000038382740535456591630000010803766028728159163_);" d="M137.6,78c-17.2-4.6-33.4-17.4-33.4-33.6
		C104.2,24.9,126.2,9,154,9V7.1c-27.8,0-51.2,16.3-51.2,36.4C102.8,59.5,117.2,73,137.6,78L137.6,78z"/>
	
		<linearGradient id="SVGID_00000106149591241351078100000006034691366894462889_" gradientUnits="userSpaceOnUse" x1="75.1162" y1="89.9734" x2="75.1305" y2="89.9734" gradientTransform="matrix(-34.4891 0 0 -35.0483 2744.688 3233.2673)">
		<stop  offset="0" style="stop-color:#DEE0DD"/>
		<stop  offset="0" style="stop-color:#C5C9C7"/>
		<stop  offset="0" style="stop-color:#9EA4A5"/>
		<stop  offset="0" style="stop-color:#82898C"/>
		<stop  offset="0" style="stop-color:#71797D"/>
		<stop  offset="0" style="stop-color:#6B7378"/>
		<stop  offset="0.2" style="stop-color:#333F47"/>
		<stop  offset="0.5" style="stop-color:#27343C"/>
		<stop  offset="0.8" style="stop-color:#333F47"/>
		<stop  offset="1" style="stop-color:#434D54"/>
	</linearGradient>
	<path style="fill:url(#SVGID_00000106149591241351078100000006034691366894462889_);" d="M153.5,79.9h0.5H153.5z"/>
	
		<linearGradient id="SVGID_00000057859491899886663870000004481878282033005727_" gradientUnits="userSpaceOnUse" x1="76.1794" y1="90.1988" x2="75.7581" y2="90.8167" gradientTransform="matrix(-34.4891 0 0 -35.0483 2744.688 3233.2673)">
		<stop  offset="0.7" style="stop-color:#27343C"/>
		<stop  offset="0.7" style="stop-color:#2B373F"/>
		<stop  offset="0.7" style="stop-color:#36424A"/>
		<stop  offset="0.7" style="stop-color:#49545B"/>
		<stop  offset="0.8" style="stop-color:#646D73;stop-opacity:0"/>
		<stop  offset="0.8" style="stop-color:#868D92;stop-opacity:0"/>
		<stop  offset="0.8" style="stop-color:#B0B5B8;stop-opacity:0"/>
		<stop  offset="0.8" style="stop-color:#E1E3E4;stop-opacity:0"/>
		<stop  offset="0.8" style="stop-color:#FFFFFF;stop-opacity:0"/>
	</linearGradient>
	<path style="fill:url(#SVGID_00000057859491899886663870000004481878282033005727_);" d="M110.1,57.2
		c11.5,18.7,37.3,19.7,38.8,19.9h0.2c-19.8-2.6-32.4-11.7-36.8-21.4v-0.1c-2-3.7-2.9-7.7-3.1-12c-0.2-4.1,1.1-8.6,3.6-12.8
		c0.2-0.6,0.3-1.3,0.5-1.3h-2.6C102.8,40,106.2,50.6,110.1,57.2z"/>
	<path class="st19" d="M202.8,43.4c0,19-21.8,34.7-48.8,34.7s-48.8-15.6-48.8-34.7c0-19,21.8-34.5,48.8-34.5S202.8,24.3,202.8,43.4z
		 M187.5,67.3c8.7-6.2,14.1-14.6,14.1-23.9s-5.4-17.8-13.9-23.8c-8.7-6-20.6-9.9-33.7-9.9s-25,3.7-33.5,9.9
		c-8.7,6-13.9,14.5-13.9,23.8s5.4,17.8,13.9,23.9c8.5,6.2,20.5,10,33.5,10S179,73.5,187.5,67.3L187.5,67.3z"/>
	<path class="st20" d="M193.4,28.6l-33.4,17.1c-1.8-0.7-4.7-1.6-5.1-1.6c-0.3-0.1-0.3,0.1-0.3,0.1l4.1,2.4c0.5,0.2,0.7,0.6,0.7,0.9
		l-3.9,28c0.2-0.1,0.2-0.3,0.3-0.5c0.2-0.2,0.2-0.3,0.2-0.6l5.7-28L193.1,29C193.3,28.9,193.4,28.7,193.4,28.6L193.4,28.6z"/>
</g>
</svg>
