<?xml version="1.0" encoding="utf-8"?>
<!-- Generator: Adobe Illustrator 25.4.1, SVG Export Plug-In . SVG Version: 6.00 Build 0)  -->
<svg version="1.1" id="Layer_1" xmlns="http://www.w3.org/2000/svg" xmlns:xlink="http://www.w3.org/1999/xlink" x="0px" y="0px"
	 width="308" height="87" viewBox="0 0 308 87" style="enable-background:new 0 0 308 87;" xml:space="preserve">
<style type="text/css">
	.st0{fill:url(#SVGID_1_);}
	.st1{fill:url(#SVGID_00000113314026374459946700000004345550970093371317_);}
	.st2{fill:url(#SVGID_00000046330417813990224340000004860904386253418405_);}
	.st3{fill:url(#SVGID_00000033342076315469904110000002107235454714778523_);}
	.st4{fill:#FFFFFF;}
	.st5{fill:url(#SVGID_00000098194728357501661320000012091329659564343995_);}
	.st6{fill:url(#SVGID_00000088090698661536242340000014772155443851109813_);}
	.st7{fill:#8C8C8C;}
	.st8{fill:#4D4D4D;}
	.st9{fill:#252525;}
	.st10{fill:url(#SVGID_00000065754814186933014650000018006860543150348686_);}
</style>
<g>
	<desc>Für mehr Informationen siehe: http://de.wikipedia.org/wiki/Datei:Nissan_Logo.svg</desc>
	
		<linearGradient id="SVGID_1_" gradientUnits="userSpaceOnUse" x1="-1993.0396" y1="-1041.5199" x2="-1993.0396" y2="-1046.1335" gradientTransform="matrix(12.5 0 0 -12.5 25067.9375 -13010.1309)">
		<stop  offset="0.194" style="stop-color:#FFFFFF"/>
		<stop  offset="0.208" style="stop-color:#F8F8F8"/>
		<stop  offset="0.366" style="stop-color:#AEAEAE"/>
		<stop  offset="0.513" style="stop-color:#707070"/>
		<stop  offset="0.647" style="stop-color:#404040"/>
		<stop  offset="0.764" style="stop-color:#1D1D1D"/>
		<stop  offset="0.86" style="stop-color:#080808"/>
		<stop  offset="0.922" style="stop-color:#000000"/>
	</linearGradient>
	<path class="st0" d="M205.9,34.7c-1-0.2-2.1-0.3-4.5-0.5c-9.8-0.3-34.1-1-46.4-1c-12.4,0-36.6,0.7-46.4,1c-2.4,0.2-3.5,0.3-4.5,0.5
		c-3.1,0.6-3.8,1.4-3.8,3.1v11.5c0,1.7,2.4,2.8,4,3c1.6,0.2,2.7,0.3,4.4,0.4c8.8,0.4,29.2,1.3,46.3,1.3c17.2,0,37.6-0.9,46.3-1.3
		c1.7-0.1,2.8-0.2,4.4-0.4c1.6-0.2,4-1.4,4-3V37.7C209.7,36.1,209,35.2,205.9,34.7L205.9,34.7z"/>
	
		<radialGradient id="SVGID_00000003803485806662203750000007586169873222120861_" cx="-2003.9429" cy="-991.2991" r="89.9154" gradientTransform="matrix(0.8488 0 0 -0.6417 1825.1752 -642.4976)" gradientUnits="userSpaceOnUse">
		<stop  offset="0.202" style="stop-color:#FFFFFF"/>
		<stop  offset="0.382" style="stop-color:#FDFDFD"/>
		<stop  offset="0.487" style="stop-color:#F4F4F4"/>
		<stop  offset="0.573" style="stop-color:#E6E6E6"/>
		<stop  offset="0.648" style="stop-color:#D2D2D2"/>
		<stop  offset="0.689" style="stop-color:#C4C4C4"/>
		<stop  offset="1" style="stop-color:#333333"/>
	</radialGradient>
	<path style="fill:url(#SVGID_00000003803485806662203750000007586169873222120861_);" d="M115.6,35.1c4.8-12.7,20.7-22,39.5-22
		c18.8,0,34.6,9.3,39.5,21.9c0,0,0,0.1,0,0.1c2.8-0.2,5.3-0.6,7.1-1c0-0.1,0-0.1-0.1-0.2c-5.5-15.1-24.3-26.2-46.6-26.2
		c-22.3,0-41.1,11.2-46.6,26.3C111,34.6,112.8,34.9,115.6,35.1L115.6,35.1z"/>
	
		<radialGradient id="SVGID_00000043455785313037846850000016355315823422754457_" cx="-1786.3422" cy="-1135.3204" r="187.2606" gradientTransform="matrix(0.8488 0 0 -0.6417 1825.1752 -642.4976)" gradientUnits="userSpaceOnUse">
		<stop  offset="0.202" style="stop-color:#FFFFFF"/>
		<stop  offset="0.368" style="stop-color:#E4E4E4"/>
		<stop  offset="0.594" style="stop-color:#C4C4C4"/>
		<stop  offset="1" style="stop-color:#333333"/>
	</radialGradient>
	<path style="fill:url(#SVGID_00000043455785313037846850000016355315823422754457_);" d="M194.5,51.8c0,0.1-0.1,0.2-0.1,0.3
		c-5.1,12.3-20.8,21.3-39.3,21.3c-18.6,0-34.4-9.1-39.4-21.6c-3.1,0.4-4.1,0.6-7.1,0.9c5.6,15,24.3,26,46.5,26
		c22.2,0,40.9-11,46.5-26C199,52.4,197.4,52.2,194.5,51.8L194.5,51.8z"/>
	
		<radialGradient id="SVGID_00000147201310842228641140000002756245891777373842_" cx="-1982.3458" cy="-1093.9967" r="57.4895" gradientTransform="matrix(0.8488 0 0 -0.6417 1825.1752 -642.4976)" gradientUnits="userSpaceOnUse">
		<stop  offset="0.202" style="stop-color:#FFFFFF"/>
		<stop  offset="0.368" style="stop-color:#E4E4E4"/>
		<stop  offset="0.594" style="stop-color:#C4C4C4"/>
		<stop  offset="1" style="stop-color:#333333"/>
	</radialGradient>
	<path style="fill:url(#SVGID_00000147201310842228641140000002756245891777373842_);" d="M116.6,35.1c1.2-0.4,2.3-0.9,4-1.3
		c5.2-10.3,18.7-17.6,34.5-17.6c15.8,0,29.2,7.3,34.5,17.5c0,0,0,0.1,0.1,0.1c0.9,0.2,3.6,1.1,4.4,1.3c0.1,0,0.4,0,0.6,0
		c0,0,0-0.1,0-0.1c-4.9-12.6-20.7-21.9-39.5-21.9c-18.8,0-34.7,9.3-39.5,22C115.9,35.1,116.4,35.1,116.6,35.1L116.6,35.1z"/>
	<path class="st4" d="M154.8,14c17.6,0,33.3,7.9,39.2,21l0,0.1c0.1,0,0.4,0,0.6,0c0,0,0-0.1,0-0.1c-4.9-12.6-20.7-21.9-39.5-21.9
		c-18.8,0-34.7,9.3-39.5,22c0.4,0,0.6,0,1,0C121.8,22.7,137.3,14,154.8,14L154.8,14z"/>
	
		<radialGradient id="SVGID_00000152982159441335144900000005712829244862837382_" cx="-1935.9534" cy="-1152.7815" r="109.0837" gradientTransform="matrix(0.8488 0 0 -0.6417 1825.1752 -642.4976)" gradientUnits="userSpaceOnUse">
		<stop  offset="0.202" style="stop-color:#FFFFFF"/>
		<stop  offset="0.368" style="stop-color:#E4E4E4"/>
		<stop  offset="0.594" style="stop-color:#C4C4C4"/>
		<stop  offset="1" style="stop-color:#333333"/>
	</radialGradient>
	<path style="fill:url(#SVGID_00000152982159441335144900000005712829244862837382_);" d="M193.5,51.8c-1.3,0.5-2.8,1-4.1,1.4
		c0,0-0.1,0.2-0.1,0.2c-5.5,9.9-18.7,17-34.2,17c-15.6,0-28.9-7.1-34.3-17.1c-1.4-0.3-3.6-1.1-4.4-1.4c-0.3,0-0.5,0-0.7,0
		c5,12.5,20.7,21.6,39.4,21.6c18.6,0,34.2-9,39.3-21.4c0,0,0.1-0.2,0.1-0.2C194.2,51.8,193.8,51.8,193.5,51.8L193.5,51.8z"/>
	
		<radialGradient id="SVGID_00000072975359926414268210000013157910646999894707_" cx="-1968.61" cy="-1024.8712" r="86.6846" gradientTransform="matrix(0.8488 0 0 -0.6417 1825.1752 -642.4976)" gradientUnits="userSpaceOnUse">
		<stop  offset="0.202" style="stop-color:#FFFFFF"/>
		<stop  offset="0.397" style="stop-color:#FDFDFD"/>
		<stop  offset="0.51" style="stop-color:#F4F4F4"/>
		<stop  offset="0.603" style="stop-color:#E6E6E6"/>
		<stop  offset="0.684" style="stop-color:#D2D2D2"/>
		<stop  offset="0.728" style="stop-color:#C4C4C4"/>
		<stop  offset="1" style="stop-color:#4D4D4D"/>
	</radialGradient>
	<path style="fill:url(#SVGID_00000072975359926414268210000013157910646999894707_);" d="M205,35.5c-2.6-0.2-4.4-0.2-10.7-0.4
		c-0.3,0-0.6,0-0.9,0c-11.5-0.3-28.7-0.7-38.5-0.7c-9.8,0-27,0.4-38.5,0.7c-0.3,0-0.6,0-0.9,0c-6.3,0.2-8.1,0.1-10.7,0.4
		c-2.6,0.2-4.6,1.1-4.6,2.6v10.6c0,1.5,2.5,2.7,4.6,2.7c0,0,27.8,1.3,50.1,1.3c22.3,0,50.1-1.3,50.1-1.3c2.2,0,4.6-1.2,4.6-2.7V38.1
		C209.7,36.6,207.6,35.7,205,35.5L205,35.5z"/>
	<path class="st4" d="M193.5,51.8c-5.5,12.2-20.8,20.7-38.1,20.7c-17.5,0-33-7.8-39-20.7c-0.2,0-0.4,0-0.7,0
		c5,12.5,20.7,21.6,39.4,21.6c18.6,0,34.4-9.1,39.4-21.6C194.2,51.8,193.9,51.8,193.5,51.8L193.5,51.8z"/>
	<path class="st7" d="M193.5,51.8L193.5,51.8c-1.3,0.5-2.9,1.1-4.1,1.4c0,0-0.1,0.2-0.1,0.2c-1.7,3.1-4.2,6-7.3,8.4
		C186.8,59.1,190.8,55.7,193.5,51.8L193.5,51.8z"/>
	<path class="st8" d="M129.3,62.6c-3.7-2.6-6.6-5.8-8.5-9.4c-1.4-0.3-3.6-1.1-4.4-1.4c0.9,1.4,1.9,2.7,3.1,3.9
		c2.4,2.4,5.3,4.5,8.7,6.3C128.5,62.2,128.9,62.4,129.3,62.6L129.3,62.6z"/>
	<path class="st9" d="M115.7,51.8L115.7,51.8L115.7,51.8c-3.1,0.4-4.1,0.6-7.1,0.9c0.2,0.7,0.5,1.3,0.8,1.9L115.7,51.8z"/>
	
		<radialGradient id="SVGID_00000025428488219440367470000012446536167646965660_" cx="485.4099" cy="790.4446" r="729.8374" gradientTransform="matrix(6.790434e-02 0 0 5.133278e-02 122.9535 25.3486)" gradientUnits="userSpaceOnUse">
		<stop  offset="0.111" style="stop-color:#4D4D4D"/>
		<stop  offset="0.248" style="stop-color:#494949"/>
		<stop  offset="0.355" style="stop-color:#404040"/>
		<stop  offset="0.451" style="stop-color:#2F2F2F"/>
		<stop  offset="0.541" style="stop-color:#181818"/>
		<stop  offset="0.611" style="stop-color:#000000"/>
	</radialGradient>
	<path style="fill:url(#SVGID_00000025428488219440367470000012446536167646965660_);" d="M177.2,40.2c-0.9-1.5-0.6-1.4-2.6-1.4
		c-0.2,0-0.6,0-1.2,0c-0.6,0-0.7,0-1.2,0c-1.9,0-1.6-0.1-2.2,0.9c0,0-3.2,5.5-4.6,7.8l-0.1,0.1c-0.3,0.4-0.1,0.4,0.3,0.4h2.9
		c0.2,0,0.3-0.1,0.4-0.2c0,0,0.4-0.7,1-1.7h7.1c0.5,0.9,0.9,1.6,0.9,1.7c0.1,0.1,0.2,0.2,0.4,0.2h3c0.4,0,0.5,0,0.4-0.2
		C181.2,46.7,177.7,41.1,177.2,40.2L177.2,40.2z M171,44.2c0.9-1.6,1.8-3.2,1.8-3.2c0.1-0.1,0.2-0.1,0.3-0.1c0.1,0,0.2,0,0.4,0
		c0.1,0,0.3,0,0.3,0c0.1,0,0.2,0,0.3,0.2c0.2,0.4,1,1.8,1.8,3.2H171z M132.4,38.7c0.3,0,0.3,0.1,0.3,0.2v8.7c0,0.2-0.1,0.3-0.4,0.3
		h-2.8c-0.3,0-0.4,0-0.4-0.3v-8.7c0-0.2,0.1-0.2,0.3-0.2H132.4L132.4,38.7z M126.4,38.7c0.3,0,0.4,0.1,0.4,0.3v8.6
		c0,0.2-0.1,0.3-0.4,0.3h-3.3c-1.9,0-2.1,0-2.7-0.8c-1.3-1.6-5.4-6.2-5.4-6.2v6.8c0,0.2-0.1,0.3-0.4,0.3h-2.4c-0.3,0-0.4,0-0.4-0.3
		V39c0-0.2,0.1-0.3,0.4-0.3h2.8c2.1,0,2.4,0,3.1,0.8c0.6,0.7,5.5,6.4,5.5,6.4V39c0-0.2,0.1-0.3,0.4-0.3L126.4,38.7L126.4,38.7z
		 M198.1,38.7c0.3,0,0.4,0.1,0.4,0.3v8.6c0,0.2-0.1,0.3-0.4,0.3h-3.3c-1.9,0-2.1,0-2.7-0.8c-1.3-1.6-5.4-6.3-5.4-6.3v6.8
		c0,0.2-0.1,0.3-0.4,0.3h-2.4c-0.3,0-0.4,0-0.4-0.3V39c0-0.2,0.1-0.3,0.4-0.3h2.8c2.1,0,2.4,0,3.1,0.8c0.6,0.7,5.5,6.4,5.5,6.4V39
		c0-0.2,0.1-0.3,0.4-0.3L198.1,38.7L198.1,38.7z M144.6,42.3c2.1,0.2,3.7,0.4,4.1,2c0,0.1,0.1,0.5,0.1,1c0,0.3,0,0.6-0.1,1
		c-0.4,1.5-1.8,1.7-4.1,1.7h-9c-0.3,0-0.4,0-0.4-0.3v-1.5c0-0.2,0.1-0.3,0.4-0.3h9.1c0.4,0,0.5-0.1,0.5-0.3v-0.4V45
		c-0.1-0.2-0.1-0.4-0.6-0.4c-1,0-4-0.2-6.1-0.4c-2.6-0.2-3.3-1.1-3.4-1.8c-0.1-0.2-0.1-0.6-0.1-0.9c0-0.2,0-0.6,0.1-0.9
		c0.4-1.3,1.7-1.9,3.9-1.9h8.8c0.3,0,0.4,0,0.4,0.2v1.5c0,0.2-0.1,0.3-0.4,0.2h-8.6c-0.4,0-0.5,0.1-0.6,0.4v0.4
		c0,0.2,0.2,0.4,0.5,0.4C140.3,42,143.5,42.2,144.6,42.3L144.6,42.3z M160.2,42.3c2.1,0.2,3.7,0.4,4.1,2c0,0.1,0.1,0.5,0.1,1
		c0,0.3,0,0.6-0.1,1c-0.4,1.5-1.8,1.7-4.1,1.7h-9c-0.3,0-0.4,0-0.4-0.3v-1.5c0-0.2,0.1-0.3,0.4-0.3h9.1c0.4,0,0.5-0.1,0.5-0.3v-0.4
		V45c-0.1-0.2-0.2-0.4-0.6-0.4c-1,0-4-0.2-6.1-0.4c-2.6-0.2-3.2-1.1-3.4-1.8c-0.1-0.2-0.1-0.6-0.1-0.9c0-0.2,0-0.6,0.1-0.9
		c0.4-1.3,1.7-1.9,3.9-1.9h8.8c0.3,0,0.4,0,0.4,0.2v1.5c0,0.2-0.1,0.3-0.4,0.2h-8.6c-0.4,0-0.5,0.1-0.6,0.4v0.4
		c0,0.2,0.1,0.4,0.5,0.4C155.8,42,159,42.2,160.2,42.3L160.2,42.3z"/>
</g>
</svg>
