<?xml version="1.0" encoding="utf-8"?>
<!-- Generator: Adobe Illustrator 25.4.1, SVG Export Plug-In . SVG Version: 6.00 Build 0)  -->
<svg version="1.1" id="Layer_1" xmlns="http://www.w3.org/2000/svg" xmlns:xlink="http://www.w3.org/1999/xlink" x="0px" y="0px"
	 viewBox="0 0 308 87" style="enable-background:new 0 0 308 87;" xml:space="preserve">
<style type="text/css">
	.st0{display:none;}
	.st1{display:inline;fill:url(#outer_00000151542592972283514840000004016034748249386414_);}
	.st2{display:inline;fill:url(#SVGID_1_);}
	
		.st3{display:inline;opacity:0.4;fill:url(#SVGID_00000018935580159244696050000016842993935966003360_);enable-background:new    ;}
	.st4{display:inline;fill:#FFFFFF;}
	
		.st5{display:inline;opacity:0.4;fill:url(#SVGID_00000132766780547199051610000012268991236772079518_);enable-background:new    ;}
	.st6{display:inline;fill:#565F64;}
	.st7{display:inline;fill:url(#SVGID_00000101821967033021148360000011771999243677893043_);}
	.st8{display:inline;fill:#A4AAAE;fill-opacity:0.6;}
	.st9{display:inline;fill:#333E46;}
	.st10{display:inline;fill:url(#SVGID_00000055698012975964232910000012817265704717204877_);}
	.st11{display:inline;fill:url(#SVGID_00000032621668846309262500000007442121296253919377_);fill-opacity:0.8;}
	
		.st12{display:inline;opacity:0.8;fill:url(#SVGID_00000114059886681238981390000011067648798465338251_);enable-background:new    ;}
	.st13{display:inline;fill:url(#SVGID_00000117660665333037616170000000459030371490360508_);}
	.st14{display:inline;fill:url(#SVGID_00000026157218838378072780000008085545476245403831_);}
	.st15{display:inline;fill:url(#SVGID_00000029024867894177290800000001131196168022670768_);}
	.st16{display:inline;fill:url(#SVGID_00000062174188466622217690000010817329812944626863_);}
	.st17{display:inline;fill:url(#SVGID_00000033356717420824054560000004741585007494456983_);}
	.st18{display:inline;fill:url(#SVGID_00000051361894271339425160000001225417716982582704_);}
	.st19{display:inline;fill:url(#SVGID_00000097483420631997137270000006433112349598524064_);}
	.st20{display:inline;fill:#FBFBFB;}
	.st21{display:inline;fill:#333F47;}
	.st22{display:none;fill-rule:evenodd;clip-rule:evenodd;fill:#FFFFFF;}
	.st23{fill-rule:evenodd;clip-rule:evenodd;fill:#2761AB;}
</style>
<g class="st0">
	
		<linearGradient id="outer_00000117668159274033290350000005652795186303691453_" gradientUnits="userSpaceOnUse" x1="-805.8504" y1="1342.0612" x2="-726.8257" y2="1408.2452" gradientTransform="matrix(-0.8829 0 0 -0.8972 -522.5208 1277.3547)">
		<stop  offset="0" style="stop-color:#FFFFFF"/>
		<stop  offset="0.1" style="stop-color:#E7E8E6"/>
		<stop  offset="0.1" style="stop-color:#CDD0D0"/>
		<stop  offset="0.2" style="stop-color:#B5BBBD"/>
		<stop  offset="0.2" style="stop-color:#A5ACAF"/>
		<stop  offset="0.3" style="stop-color:#9BA3A7"/>
		<stop  offset="0.3" style="stop-color:#98A0A4"/>
		<stop  offset="0.4" style="stop-color:#828A8F"/>
		<stop  offset="0.5" style="stop-color:#667075"/>
		<stop  offset="0.6" style="stop-color:#535C63"/>
		<stop  offset="0.7" style="stop-color:#475158"/>
		<stop  offset="0.8" style="stop-color:#434D54"/>
		<stop  offset="1" style="stop-color:#475157"/>
	</linearGradient>
	
		<path id="outer_00000097475054197506639810000004203592696774986932_" style="display:inline;fill:url(#outer_00000117668159274033290350000005652795186303691453_);" d="
		M102.8,43.5c0-20.1,22.9-36.4,51.2-36.4s51.2,16.3,51.2,36.4S182.3,79.9,154,79.9S102.8,63.6,102.8,43.5z M154,77.6
		c26.7,0,48.1-15.2,48.1-34.1S180.5,9.4,154,9.4c-26.7,0-48.1,15.3-48.1,34.1C105.9,62.4,127.3,77.6,154,77.6z"/>
	
		<linearGradient id="SVGID_1_" gradientUnits="userSpaceOnUse" x1="-803.3998" y1="1343.9901" x2="-729.2953" y2="1406.238" gradientTransform="matrix(-0.8829 0 0 -0.8972 -522.5208 1277.3547)">
		<stop  offset="0" style="stop-color:#0B1F2A"/>
		<stop  offset="0.2" style="stop-color:#333F47"/>
		<stop  offset="0.5" style="stop-color:#777F84"/>
		<stop  offset="0.5" style="stop-color:#81898D"/>
		<stop  offset="0.7" style="stop-color:#B3B8B8"/>
		<stop  offset="0.8" style="stop-color:#D2D5D3"/>
		<stop  offset="0.8" style="stop-color:#DEE0DD"/>
		<stop  offset="1" style="stop-color:#FBFBFB"/>
	</linearGradient>
	<path class="st2" d="M154,77.6c26.7,0,48.1-15.2,48.1-34.1S180.5,9.4,154,9.4c-26.7,0-48.1,15.3-48.1,34.1
		C105.9,62.4,127.3,77.6,154,77.6z M154,11.6c24.9,0,45,14.3,45,31.9s-20.1,31.9-45,31.9s-45-14.3-45-31.9S129.1,11.6,154,11.6z"/>
	
		<linearGradient id="SVGID_00000091013920146356775380000014342392368103416499_" gradientUnits="userSpaceOnUse" x1="-781.2592" y1="1333.967" x2="-751.2379" y2="1416.4893" gradientTransform="matrix(-0.8829 0 0 -0.8972 -522.5208 1277.3547)">
		<stop  offset="0" style="stop-color:#E1E3E1"/>
		<stop  offset="0.1" style="stop-color:#C1C5C4"/>
		<stop  offset="0.3" style="stop-color:#9BA1A2"/>
		<stop  offset="0.5" style="stop-color:#7D8487"/>
		<stop  offset="0.7" style="stop-color:#687074;stop-opacity:0"/>
		<stop  offset="0.8" style="stop-color:#5B6469;stop-opacity:0"/>
		<stop  offset="1" style="stop-color:#576065;stop-opacity:0"/>
	</linearGradient>
	
		<path style="display:inline;opacity:0.4;fill:url(#SVGID_00000091013920146356775380000014342392368103416499_);enable-background:new    ;" d="
		M154,7.1c-28.3,0-51.2,16.3-51.2,36.4s22.9,36.4,51.2,36.4s51.2-16.3,51.2-36.4S182.3,7.1,154,7.1z M154,80.7
		c-28.8,0-52.4-16.7-52.4-37.2S125.2,6.3,154,6.3s52.4,16.7,52.4,37.2S182.8,80.7,154,80.7z"/>
	<path class="st4" d="M202.8,43.4c0,19-21.8,34.7-48.8,34.7s-48.8-15.6-48.8-34.7c0-19,21.8-34.5,48.8-34.5S202.8,24.3,202.8,43.4z
		 M187.5,67.3c8.7-6.2,14.1-14.6,14.1-23.9s-5.4-17.8-13.9-23.8c-8.7-6-20.6-9.9-33.7-9.9s-25,3.7-33.5,9.9
		c-8.7,6-13.9,14.5-13.9,23.8s5.4,17.8,13.9,23.9c8.5,6.2,20.5,10,33.5,10S179,73.5,187.5,67.3L187.5,67.3z"/>
	
		<linearGradient id="SVGID_00000035529970821415357630000010975321196639328403_" gradientUnits="userSpaceOnUse" x1="-786.4156" y1="1340.4115" x2="-746.2955" y2="1409.8969" gradientTransform="matrix(-0.8829 0 0 -0.8972 -522.5208 1277.3547)">
		<stop  offset="0" style="stop-color:#E1E3E1"/>
		<stop  offset="0.1" style="stop-color:#C1C5C4"/>
		<stop  offset="0.3" style="stop-color:#9BA1A2"/>
		<stop  offset="0.5" style="stop-color:#7D8487"/>
		<stop  offset="0.7" style="stop-color:#687074;stop-opacity:0"/>
		<stop  offset="0.8" style="stop-color:#5B6469;stop-opacity:0"/>
		<stop  offset="1" style="stop-color:#576065;stop-opacity:0"/>
	</linearGradient>
	
		<path style="display:inline;opacity:0.4;fill:url(#SVGID_00000035529970821415357630000010975321196639328403_);enable-background:new    ;" d="
		M154,11.4c12.1,0,23.4,3.4,31.9,9.4s13.3,14.1,13.3,22.6S194.5,60,185.9,66c-8.5,6-19.8,9.4-31.9,9.4c-12.1,0-23.4-3.4-31.9-9.4
		s-13.3-14.1-13.3-22.6s4.7-16.6,13.3-22.6S141.9,11.4,154,11.4z M154,12.4c-11.6,0-22.7,3.3-30.9,9.1c-8.3,5.9-12.8,13.7-12.8,22
		s4.6,16.1,12.8,22c8.3,5.9,19.3,9.1,30.9,9.1s22.7-3.3,30.9-9.1c8.3-5.7,12.9-13.6,12.9-21.8s-4.6-16.1-12.8-22
		C176.7,15.6,165.6,12.4,154,12.4L154,12.4z"/>
	<path class="st4" d="M114.2,28.4c0.8,0.5,32.4,18.2,32.4,18.2l7.4,29.8c0.5-0.1,1.1-0.5,1.5-0.9l5.2-29l32.6-17.8
		c0,0,0.7-0.6,1-0.9c0.2-0.2,0.2-0.6,0.2-0.9l-40.3,11.7l-40.3-11.7C113.6,27.5,113.9,28.1,114.2,28.4L114.2,28.4z"/>
	<path class="st6" d="M153.7,42.6l0.3-5.3l-37-10.6c-1.3-0.5-2.3-0.2-3.3,0.2l39.4,15.8C153.3,42.8,153.7,42.7,153.7,42.6z"/>
	
		<linearGradient id="SVGID_00000098941174207331201590000012259046417271729822_" gradientUnits="userSpaceOnUse" x1="-1580.9341" y1="62.8862" x2="-1581.0524" y2="63.0809" gradientTransform="matrix(-34.4891 0 0 -35.0483 -54392.7656 2241.2668)">
		<stop  offset="0" style="stop-color:#27343C"/>
		<stop  offset="1" style="stop-color:#00111E;stop-opacity:0"/>
	</linearGradient>
	<path style="display:inline;fill:url(#SVGID_00000098941174207331201590000012259046417271729822_);" d="M153.7,42.6
		c0,0-2.1-2.7-4.6-4.5c-3.4-2.7-8-4.5-8-4.5L117,26.7c-1.3-0.5-2.3-0.2-3.3,0.2l39.4,15.8C153.3,42.8,153.7,42.7,153.7,42.6z"/>
	<path class="st8" d="M113.9,27.9c0,0.1,0.2,0.2,0.3,0.5l33.7,17.5l4.6-2.1c0,0-0.3-0.1-0.5,0c-0.5,0.1-1.5,0.2-2.5,0
		C148.8,43.6,113.9,27.8,113.9,27.9C113.9,27.8,113.9,27.8,113.9,27.9L113.9,27.9z"/>
	<path class="st9" d="M115,29l31.4,17.7l1.5-0.7l-33.7-17.7C114.4,28.5,114.7,28.7,115,29L115,29z"/>
	<path class="st6" d="M153.2,44.3l0.2-0.1c0,0,0-0.2-0.3-0.1c-0.2,0.1-4.9,1.9-6.5,2.6l5.7,27.9c0.2,1,0.8,1.5,2,1.9l-0.7-32.3
		L153.2,44.3L153.2,44.3z"/>
	<path class="st8" d="M156,74.5V73l3.6-25.7c0-0.3-0.2-0.7-0.7-0.9l-2.1-1.2l-1.5,28.3l-0.2,2.2C155.6,75.6,155.8,75.1,156,74.5
		L156,74.5z M157.9,44.8l2,1.2l33.2-17.1c0,0,1-0.5,1.1-0.9l-1.1,0.5L158.3,44C157.6,44.2,157.4,44.4,157.9,44.8L157.9,44.8z"/>
	<path class="st6" d="M154.5,42.6c0,0.1,0.2,0.2,0.3,0.1l39.6-15.9c-1-0.5-2-0.6-3.3-0.2l-37,10.6L154.5,42.6z"/>
	
		<linearGradient id="SVGID_00000016057401783113106340000011254499783288531863_" gradientUnits="userSpaceOnUse" x1="-1581.2878" y1="62.6378" x2="-1581.384" y2="62.4832" gradientTransform="matrix(-34.4891 0 0 -35.0483 -54392.7656 2241.2668)">
		<stop  offset="0.1" style="stop-color:#02131F"/>
		<stop  offset="0.9" style="stop-color:#02131F;stop-opacity:0"/>
	</linearGradient>
	<path style="display:inline;fill:url(#SVGID_00000016057401783113106340000011254499783288531863_);" d="M153.3,44.2l-0.2,0.1
		L153.3,44.2c0,0,0-0.1-0.2-0.1H153c-0.2,0.1-4.9,1.9-6.5,2.6l0.7,3.4l5.1,24.5c0,0.5,0.2,0.8,0.5,1c0,0-2.5-23.5-2.5-26
		C150.2,46.2,153.3,44.2,153.3,44.2L153.3,44.2z"/>
	
		<linearGradient id="SVGID_00000120546648989751964230000002226972756710768306_" gradientUnits="userSpaceOnUse" x1="-1581.5905" y1="62.8113" x2="-1581.7814" y2="62.8658" gradientTransform="matrix(-34.4891 0 0 -35.0483 -54392.7656 2241.2668)">
		<stop  offset="0.2" style="stop-color:#02131F"/>
		<stop  offset="0.9" style="stop-color:#02131F;stop-opacity:0"/>
	</linearGradient>
	<path style="display:inline;fill:url(#SVGID_00000120546648989751964230000002226972756710768306_);fill-opacity:0.8;" d="
		M154.5,42.6c0,0.1,0.2,0.2,0.3,0.1l39.6-15.9c-1-0.5-2-0.6-3.3-0.2l-37,10.6L154.5,42.6z"/>
	
		<linearGradient id="SVGID_00000118376997588818687110000012069063991244566658_" gradientUnits="userSpaceOnUse" x1="-1582.0869" y1="63.0921" x2="-1582.1067" y2="63.0428" gradientTransform="matrix(-34.4891 0 0 -35.0483 -54392.7656 2241.2668)">
		<stop  offset="0" style="stop-color:#02131F"/>
		<stop  offset="0.1" style="stop-color:#02131F"/>
		<stop  offset="1" style="stop-color:#02131F;stop-opacity:0"/>
	</linearGradient>
	
		<path style="display:inline;opacity:0.8;fill:url(#SVGID_00000118376997588818687110000012069063991244566658_);enable-background:new    ;" d="
		M191.2,26.7l-37,10.6l0.3,5.1c0.7-1.4,1.8-2.9,4.9-4.1c2.3-0.9,24.2-8.6,32.1-11.3c0.5-0.2,1.1-0.3,1.5-0.5
		C192.3,26.3,191.8,26.4,191.2,26.7L191.2,26.7z"/>
	
		<linearGradient id="SVGID_00000119815041626802401110000005292221449868686981_" gradientUnits="userSpaceOnUse" x1="-1581.3755" y1="62.2064" x2="-1581.5342" y2="62.225" gradientTransform="matrix(-34.4891 0 0 -35.0483 -54392.7656 2241.2668)">
		<stop  offset="0.3" style="stop-color:#02131F"/>
		<stop  offset="0.3" style="stop-color:#02131F"/>
		<stop  offset="0.8" style="stop-color:#02131F;stop-opacity:0"/>
	</linearGradient>
	<path style="display:inline;fill:url(#SVGID_00000119815041626802401110000005292221449868686981_);" d="M153.2,44.3l0.2-0.1
		c0,0,0-0.2-0.3-0.1c-0.2,0.1-4.9,1.9-6.5,2.6l5.7,27.9c0.2,1,0.8,1.5,2,1.9l-0.7-32.3L153.2,44.3L153.2,44.3z"/>
	
		<linearGradient id="SVGID_00000169539693879157111980000014193566323911602583_" gradientUnits="userSpaceOnUse" x1="-1581.3688" y1="62.2031" x2="-1581.4758" y2="62.2171" gradientTransform="matrix(-34.4891 0 0 -35.0483 -54392.7656 2241.2668)">
		<stop  offset="0.4" style="stop-color:#27343C"/>
		<stop  offset="1" style="stop-color:#3B474E;stop-opacity:0"/>
	</linearGradient>
	<path style="display:inline;fill:url(#SVGID_00000169539693879157111980000014193566323911602583_);" d="M153.2,44.3l0.2-0.1
		c0,0,0-0.2-0.3-0.1c-0.2,0.1-4.9,1.9-6.5,2.6l5.7,27.9c0.2,1,0.8,1.5,2,1.9l-0.7-32.3L153.2,44.3L153.2,44.3z"/>
	
		<linearGradient id="SVGID_00000173148031904088173900000011409929726778674071_" gradientUnits="userSpaceOnUse" x1="-1583.0127" y1="62.7128" x2="-1581.9041" y2="63.3526" gradientTransform="matrix(-34.4891 0 0 -35.0483 -54392.7656 2241.2668)">
		<stop  offset="0" style="stop-color:#24303A;stop-opacity:0"/>
		<stop  offset="0" style="stop-color:#25323B;stop-opacity:0"/>
		<stop  offset="0.1" style="stop-color:#27343C"/>
	</linearGradient>
	<path style="display:inline;fill:url(#SVGID_00000173148031904088173900000011409929726778674071_);" d="M198,29.1
		c1.1,1.9,7.7,10.9,0.5,28.3h2.8c1.5-3.5,2.6-5.6,3.3-8.7c0,0,0.3-1.2,0.5-2.4c0.2-1.3,0.2-2,0.2-2.8c0-7-2.5-11-2.5-11
		c-2.6-5.8-7.2-11-13.4-15c-5.4-3.4-13.7-5.9-20.6-6.9C169.9,10.7,189.5,16.7,198,29.1L198,29.1z"/>
	
		<linearGradient id="SVGID_00000003097454572966914680000015718361189384000443_" gradientUnits="userSpaceOnUse" x1="-1581.5668" y1="62.8858" x2="-1581.5668" y2="62.7267" gradientTransform="matrix(-34.4891 0 0 -35.0483 -54392.7656 2241.2668)">
		<stop  offset="0.3" style="stop-color:#A5ABAF"/>
		<stop  offset="1" style="stop-color:#A5ABAF;stop-opacity:0"/>
	</linearGradient>
	<path style="display:inline;fill:url(#SVGID_00000003097454572966914680000015718361189384000443_);" d="M153.3,42.8h1.5
		c-0.2,0-0.3,0-0.3-0.1l-0.3-5.3H154l-0.3,5.3C153.7,42.8,153.5,42.9,153.3,42.8L153.3,42.8z"/>
	
		<linearGradient id="SVGID_00000035519140663301775800000012945955048649004459_" gradientUnits="userSpaceOnUse" x1="-1580.823" y1="61.7224" x2="-1580.823" y2="63.7454" gradientTransform="matrix(-34.4891 0 0 -35.0483 -54392.7656 2241.2668)">
		<stop  offset="0" style="stop-color:#DEE0DD"/>
		<stop  offset="0" style="stop-color:#C5C9C7"/>
		<stop  offset="0" style="stop-color:#9EA4A5"/>
		<stop  offset="0" style="stop-color:#82898C"/>
		<stop  offset="0" style="stop-color:#71797D"/>
		<stop  offset="0" style="stop-color:#6B7378"/>
		<stop  offset="0.2" style="stop-color:#333F47"/>
		<stop  offset="0.5" style="stop-color:#27343C"/>
		<stop  offset="0.8" style="stop-color:#333F47"/>
		<stop  offset="1" style="stop-color:#434D54"/>
	</linearGradient>
	<path style="display:inline;fill:url(#SVGID_00000035519140663301775800000012945955048649004459_);" d="M137.6,78
		c-17.2-4.6-33.4-17.4-33.4-33.6c0-19.5,22-35.4,49.8-35.4V7.1c-27.8,0-51.2,16.3-51.2,36.4C102.8,59.5,117.2,73,137.6,78L137.6,78z
		"/>
	
		<linearGradient id="SVGID_00000036944432179667632410000003130959881114058174_" gradientUnits="userSpaceOnUse" x1="-1581.5652" y1="61.6682" x2="-1581.5509" y2="61.6682" gradientTransform="matrix(-34.4891 0 0 -35.0483 -54392.7656 2241.2668)">
		<stop  offset="0" style="stop-color:#DEE0DD"/>
		<stop  offset="0" style="stop-color:#C5C9C7"/>
		<stop  offset="0" style="stop-color:#9EA4A5"/>
		<stop  offset="0" style="stop-color:#82898C"/>
		<stop  offset="0" style="stop-color:#71797D"/>
		<stop  offset="0" style="stop-color:#6B7378"/>
		<stop  offset="0.2" style="stop-color:#333F47"/>
		<stop  offset="0.5" style="stop-color:#27343C"/>
		<stop  offset="0.8" style="stop-color:#333F47"/>
		<stop  offset="1" style="stop-color:#434D54"/>
	</linearGradient>
	<path style="display:inline;fill:url(#SVGID_00000036944432179667632410000003130959881114058174_);" d="M153.5,79.9h0.5H153.5z"/>
	
		<linearGradient id="SVGID_00000148648303905835383590000008010127257900486278_" gradientUnits="userSpaceOnUse" x1="-1580.5026" y1="61.8946" x2="-1580.924" y2="62.5125" gradientTransform="matrix(-34.4891 0 0 -35.0483 -54392.7656 2241.2668)">
		<stop  offset="0.7" style="stop-color:#27343C"/>
		<stop  offset="0.7" style="stop-color:#2B373F"/>
		<stop  offset="0.7" style="stop-color:#36424A"/>
		<stop  offset="0.7" style="stop-color:#49545B"/>
		<stop  offset="0.8" style="stop-color:#646D73;stop-opacity:0"/>
		<stop  offset="0.8" style="stop-color:#868D92;stop-opacity:0"/>
		<stop  offset="0.8" style="stop-color:#B0B5B8;stop-opacity:0"/>
		<stop  offset="0.8" style="stop-color:#E1E3E4;stop-opacity:0"/>
		<stop  offset="0.8" style="stop-color:#FFFFFF;stop-opacity:0"/>
	</linearGradient>
	<path style="display:inline;fill:url(#SVGID_00000148648303905835383590000008010127257900486278_);" d="M110.1,57.2
		c11.5,18.7,37.3,19.7,38.8,19.9h0.2c-19.8-2.6-32.4-11.7-36.8-21.4v-0.1c-2-3.7-2.9-7.7-3.1-12c-0.2-4.1,1.1-8.6,3.6-12.8
		c0.2-0.6,0.3-1.3,0.5-1.3h-2.6C102.8,40,106.2,50.6,110.1,57.2z"/>
	<path class="st20" d="M202.8,43.4c0,19-21.8,34.7-48.8,34.7s-48.8-15.6-48.8-34.7c0-19,21.8-34.5,48.8-34.5S202.8,24.3,202.8,43.4z
		 M187.5,67.3c8.7-6.2,14.1-14.6,14.1-23.9s-5.4-17.8-13.9-23.8c-8.7-6-20.6-9.9-33.7-9.9s-25,3.7-33.5,9.9
		c-8.7,6-13.9,14.5-13.9,23.8s5.4,17.8,13.9,23.9c8.5,6.2,20.5,10,33.5,10S179,73.5,187.5,67.3L187.5,67.3z"/>
	<path class="st21" d="M193.4,28.6L160,45.7c-1.8-0.7-4.7-1.6-5.1-1.6c-0.3-0.1-0.3,0.1-0.3,0.1l4.1,2.4c0.5,0.2,0.7,0.6,0.7,0.9
		l-3.9,28c0.2-0.1,0.2-0.3,0.3-0.5c0.2-0.2,0.2-0.3,0.2-0.6l5.7-28L193.1,29C193.3,28.9,193.4,28.7,193.4,28.6L193.4,28.6z"/>
</g>
<g>
	<g>
		<path class="st22" d="M71.3-39.2h165.3v165.3H71.3V-39.2z"/>
		<path class="st23" d="M73.8,33.4v2.9h4.8L88,54h11.6l9.4-17.7l4.8,0l0-2.9H99.4v2.9h3.8l-6.6,12.5l-7.2-12.5l5.2,0l0-2.9H73.8z
			 M166.5,33.4v2.9h4.8l9.4,17.6h11.6l9.4-17.7l4.8,0l0-2.9h-14.4v2.9h3.8l-6.6,12.5l-7.2-12.5l5.2,0l0-2.9H166.5L166.5,33.4z
			 M142.9,33.4v2.9h4.8l0,14.4h-5.1v3.2l5.1,0h24v-9.6h-3.1c-0.2,5.1-4.6,6.3-6.4,6.3c-1.7,0-5,0-5,0V36.3l4.7,0l0-2.9H142.9z
			 M126.7,32.8c-8.2,0-14.8,4.9-14.8,10.9s6.6,10.9,14.8,10.9s14.8-4.9,14.8-10.9C141.5,37.7,134.9,32.8,126.7,32.8z M126.5,51.3
			c-2.9,0-5.2-3.4-5.2-7.7c0-4.3,2.3-7.7,5.2-7.7c2.9,0,5.2,3.5,5.2,7.7C131.7,47.9,129.4,51.3,126.5,51.3z M219.4,32.5
			c-8.2,0-14.8,4.9-14.8,11c0,6.1,6.6,11,14.8,11c8.2,0,14.8-4.9,14.8-11C234.2,37.4,227.6,32.5,219.4,32.5z M219.2,51.3
			c-2.9,0-5.2-3.5-5.2-7.8s2.3-7.8,5.2-7.8c2.9,0,5.2,3.5,5.2,7.8C224.4,47.8,222.1,51.3,219.2,51.3z"/>
	</g>
</g>
</svg>
