<?xml version="1.0" encoding="utf-8"?>
<!-- Generator: Adobe Illustrator 25.4.1, SVG Export Plug-In . SVG Version: 6.00 Build 0)  -->
<svg version="1.1" id="Layer_1" xmlns="http://www.w3.org/2000/svg" xmlns:xlink="http://www.w3.org/1999/xlink" x="0px" y="0px"
	 viewBox="0 0 308 87" style="enable-background:new 0 0 308 87;" xml:space="preserve">
<style type="text/css">
	.st0{display:none;}
	.st1{display:inline;fill:url(#SVGID_1_);}
	.st2{display:inline;fill:url(#SVGID_00000003085319999871985890000006247679331947112618_);}
	.st3{display:inline;fill:url(#SVGID_00000172411994308585301350000016108571929083932861_);}
	.st4{display:inline;fill:url(#SVGID_00000165944597321698440430000013253103785482102912_);}
	.st5{display:inline;fill:#FFFFFF;}
	.st6{display:inline;fill:url(#SVGID_00000152952269188273012010000005672927777083665048_);}
	.st7{display:inline;fill:url(#SVGID_00000123415921739946663340000017354162161845854625_);}
	.st8{display:inline;fill:#8C8C8C;}
	.st9{display:inline;fill:#4D4D4D;}
	.st10{display:inline;fill:#252525;}
	.st11{display:inline;fill:url(#SVGID_00000002353014590706938630000000243608610693044368_);}
</style>
<g class="st0">
	<desc>Für mehr Informationen siehe: http://de.wikipedia.org/wiki/Datei:Nissan_Logo.svg</desc>
	
		<linearGradient id="SVGID_1_" gradientUnits="userSpaceOnUse" x1="-4214.835" y1="1744.5601" x2="-4214.835" y2="1749.1737" gradientTransform="matrix(12.5 0 0 12.5 52840.4375 -21798.1309)">
		<stop  offset="0.194" style="stop-color:#FFFFFF"/>
		<stop  offset="0.208" style="stop-color:#F8F8F8"/>
		<stop  offset="0.366" style="stop-color:#AEAEAE"/>
		<stop  offset="0.513" style="stop-color:#707070"/>
		<stop  offset="0.647" style="stop-color:#404040"/>
		<stop  offset="0.764" style="stop-color:#1D1D1D"/>
		<stop  offset="0.86" style="stop-color:#080808"/>
		<stop  offset="0.922" style="stop-color:#000000"/>
	</linearGradient>
	<path class="st1" d="M205.9,34.7c-1-0.2-2.1-0.3-4.5-0.5c-9.8-0.3-34.1-1-46.4-1c-12.4,0-36.6,0.7-46.4,1c-2.4,0.2-3.5,0.3-4.5,0.5
		c-3.1,0.6-3.8,1.4-3.8,3.1v11.5c0,1.7,2.4,2.8,4,3s2.7,0.3,4.4,0.4c8.8,0.4,29.2,1.3,46.3,1.3c17.2,0,37.6-0.9,46.3-1.3
		c1.7-0.1,2.8-0.2,4.4-0.4c1.6-0.2,4-1.4,4-3V37.7C209.7,36.1,209,35.2,205.9,34.7L205.9,34.7z"/>
	
		<radialGradient id="SVGID_00000040554544653330302290000013582985790451448492_" cx="-1573.7498" cy="3894.1394" r="89.9154" gradientTransform="matrix(0.8488 0 0 0.6417 1460.0273 -2505.2505)" gradientUnits="userSpaceOnUse">
		<stop  offset="0.202" style="stop-color:#FFFFFF"/>
		<stop  offset="0.382" style="stop-color:#FDFDFD"/>
		<stop  offset="0.487" style="stop-color:#F4F4F4"/>
		<stop  offset="0.573" style="stop-color:#E6E6E6"/>
		<stop  offset="0.648" style="stop-color:#D2D2D2"/>
		<stop  offset="0.689" style="stop-color:#C4C4C4"/>
		<stop  offset="1" style="stop-color:#333333"/>
	</radialGradient>
	<path style="display:inline;fill:url(#SVGID_00000040554544653330302290000013582985790451448492_);" d="M115.6,35.1
		c4.8-12.7,20.7-22,39.5-22s34.6,9.3,39.5,21.9v0.1c2.8-0.2,5.3-0.6,7.1-1c0-0.1,0-0.1-0.1-0.2C196.1,18.8,177.3,7.7,155,7.7
		S113.9,18.9,108.4,34C111,34.6,112.8,34.9,115.6,35.1L115.6,35.1z"/>
	
		<radialGradient id="SVGID_00000133505706438344540750000012518659449360306622_" cx="-1356.149" cy="4038.1609" r="187.2606" gradientTransform="matrix(0.8488 0 0 0.6417 1460.0273 -2505.2505)" gradientUnits="userSpaceOnUse">
		<stop  offset="0.202" style="stop-color:#FFFFFF"/>
		<stop  offset="0.368" style="stop-color:#E4E4E4"/>
		<stop  offset="0.594" style="stop-color:#C4C4C4"/>
		<stop  offset="1" style="stop-color:#333333"/>
	</radialGradient>
	<path style="display:inline;fill:url(#SVGID_00000133505706438344540750000012518659449360306622_);" d="M194.5,51.8
		c0,0.1-0.1,0.2-0.1,0.3c-5.1,12.3-20.8,21.3-39.3,21.3c-18.6,0-34.4-9.1-39.4-21.6c-3.1,0.4-4.1,0.6-7.1,0.9
		c5.6,15,24.3,26,46.5,26s40.9-11,46.5-26C199,52.4,197.4,52.2,194.5,51.8L194.5,51.8z"/>
	
		<radialGradient id="SVGID_00000101103652018124558170000000758054549364163501_" cx="-1552.1527" cy="3996.8372" r="57.4895" gradientTransform="matrix(0.8488 0 0 0.6417 1460.0273 -2505.2505)" gradientUnits="userSpaceOnUse">
		<stop  offset="0.202" style="stop-color:#FFFFFF"/>
		<stop  offset="0.368" style="stop-color:#E4E4E4"/>
		<stop  offset="0.594" style="stop-color:#C4C4C4"/>
		<stop  offset="1" style="stop-color:#333333"/>
	</radialGradient>
	<path style="display:inline;fill:url(#SVGID_00000101103652018124558170000000758054549364163501_);" d="M116.6,35.1
		c1.2-0.4,2.3-0.9,4-1.3c5.2-10.3,18.7-17.6,34.5-17.6s29.2,7.3,34.5,17.5c0,0,0,0.1,0.1,0.1c0.9,0.2,3.6,1.1,4.4,1.3
		c0.1,0,0.4,0,0.6,0V35c-4.9-12.6-20.7-21.9-39.5-21.9s-34.7,9.3-39.5,22C115.9,35.1,116.4,35.1,116.6,35.1L116.6,35.1z"/>
	<path class="st5" d="M154.8,14c17.6,0,33.3,7.9,39.2,21v0.1c0.1,0,0.4,0,0.6,0V35c-4.9-12.6-20.7-21.9-39.5-21.9s-34.7,9.3-39.5,22
		c0.4,0,0.6,0,1,0C121.8,22.7,137.3,14,154.8,14L154.8,14z"/>
	
		<radialGradient id="SVGID_00000145028109303853325000000018345543521169207707_" cx="-1505.7603" cy="4055.6218" r="109.0837" gradientTransform="matrix(0.8488 0 0 0.6417 1460.0273 -2505.2505)" gradientUnits="userSpaceOnUse">
		<stop  offset="0.202" style="stop-color:#FFFFFF"/>
		<stop  offset="0.368" style="stop-color:#E4E4E4"/>
		<stop  offset="0.594" style="stop-color:#C4C4C4"/>
		<stop  offset="1" style="stop-color:#333333"/>
	</radialGradient>
	<path style="display:inline;fill:url(#SVGID_00000145028109303853325000000018345543521169207707_);" d="M193.5,51.8
		c-1.3,0.5-2.8,1-4.1,1.4l-0.1,0.2c-5.5,9.9-18.7,17-34.2,17c-15.6,0-28.9-7.1-34.3-17.1c-1.4-0.3-3.6-1.1-4.4-1.4
		c-0.3,0-0.5,0-0.7,0c5,12.5,20.7,21.6,39.4,21.6c18.6,0,34.2-9,39.3-21.4l0.1-0.2C194.2,51.8,193.8,51.8,193.5,51.8L193.5,51.8z"/>
	
		<radialGradient id="SVGID_00000002361832018398464940000010994408667205963944_" cx="-1538.4169" cy="3927.7117" r="86.6846" gradientTransform="matrix(0.8488 0 0 0.6417 1460.0273 -2505.2505)" gradientUnits="userSpaceOnUse">
		<stop  offset="0.202" style="stop-color:#FFFFFF"/>
		<stop  offset="0.397" style="stop-color:#FDFDFD"/>
		<stop  offset="0.51" style="stop-color:#F4F4F4"/>
		<stop  offset="0.603" style="stop-color:#E6E6E6"/>
		<stop  offset="0.684" style="stop-color:#D2D2D2"/>
		<stop  offset="0.728" style="stop-color:#C4C4C4"/>
		<stop  offset="1" style="stop-color:#4D4D4D"/>
	</radialGradient>
	<path style="display:inline;fill:url(#SVGID_00000002361832018398464940000010994408667205963944_);" d="M205,35.5
		c-2.6-0.2-4.4-0.2-10.7-0.4c-0.3,0-0.6,0-0.9,0c-11.5-0.3-28.7-0.7-38.5-0.7s-27,0.4-38.5,0.7c-0.3,0-0.6,0-0.9,0
		c-6.3,0.2-8.1,0.1-10.7,0.4c-2.6,0.2-4.6,1.1-4.6,2.6v10.6c0,1.5,2.5,2.7,4.6,2.7c0,0,27.8,1.3,50.1,1.3s50.1-1.3,50.1-1.3
		c2.2,0,4.6-1.2,4.6-2.7V38.1C209.7,36.6,207.6,35.7,205,35.5L205,35.5z"/>
	<path class="st5" d="M193.5,51.8C188,64,172.7,72.5,155.4,72.5c-17.5,0-33-7.8-39-20.7c-0.2,0-0.4,0-0.7,0
		c5,12.5,20.7,21.6,39.4,21.6c18.6,0,34.4-9.1,39.4-21.6C194.2,51.8,193.9,51.8,193.5,51.8L193.5,51.8z"/>
	<path class="st8" d="M193.5,51.8L193.5,51.8c-1.3,0.5-2.9,1.1-4.1,1.4l-0.1,0.2c-1.7,3.1-4.2,6-7.3,8.4
		C186.8,59.1,190.8,55.7,193.5,51.8L193.5,51.8z"/>
	<path class="st9" d="M129.3,62.6c-3.7-2.6-6.6-5.8-8.5-9.4c-1.4-0.3-3.6-1.1-4.4-1.4c0.9,1.4,1.9,2.7,3.1,3.9
		c2.4,2.4,5.3,4.5,8.7,6.3C128.5,62.2,128.9,62.4,129.3,62.6L129.3,62.6z"/>
	<path class="st10" d="M115.7,51.8L115.7,51.8L115.7,51.8c-3.1,0.4-4.1,0.6-7.1,0.9c0.2,0.7,0.5,1.3,0.8,1.9L115.7,51.8z"/>
	
		<radialGradient id="SVGID_00000136387469484024999280000000874512932277270691_" cx="33635.1484" cy="-29193.7695" r="729.8374" gradientTransform="matrix(6.790434e-02 0 0 -5.133278e-02 -2128.0574 -1432.6731)" gradientUnits="userSpaceOnUse">
		<stop  offset="0.111" style="stop-color:#4D4D4D"/>
		<stop  offset="0.248" style="stop-color:#494949"/>
		<stop  offset="0.355" style="stop-color:#404040"/>
		<stop  offset="0.451" style="stop-color:#2F2F2F"/>
		<stop  offset="0.541" style="stop-color:#181818"/>
		<stop  offset="0.611" style="stop-color:#000000"/>
	</radialGradient>
	<path style="display:inline;fill:url(#SVGID_00000136387469484024999280000000874512932277270691_);" d="M177.2,40.2
		c-0.9-1.5-0.6-1.4-2.6-1.4c-0.2,0-0.6,0-1.2,0c-0.6,0-0.7,0-1.2,0c-1.9,0-1.6-0.1-2.2,0.9c0,0-3.2,5.5-4.6,7.8l-0.1,0.1
		c-0.3,0.4-0.1,0.4,0.3,0.4h2.9c0.2,0,0.3-0.1,0.4-0.2c0,0,0.4-0.7,1-1.7h7.1c0.5,0.9,0.9,1.6,0.9,1.7c0.1,0.1,0.2,0.2,0.4,0.2h3
		c0.4,0,0.5,0,0.4-0.2C181.2,46.7,177.7,41.1,177.2,40.2L177.2,40.2z M171,44.2c0.9-1.6,1.8-3.2,1.8-3.2c0.1-0.1,0.2-0.1,0.3-0.1
		s0.2,0,0.4,0c0.1,0,0.3,0,0.3,0c0.1,0,0.2,0,0.3,0.2c0.2,0.4,1,1.8,1.8,3.2H171V44.2z M132.4,38.7c0.3,0,0.3,0.1,0.3,0.2v8.7
		c0,0.2-0.1,0.3-0.4,0.3h-2.8c-0.3,0-0.4,0-0.4-0.3v-8.7c0-0.2,0.1-0.2,0.3-0.2H132.4L132.4,38.7z M126.4,38.7
		c0.3,0,0.4,0.1,0.4,0.3v8.6c0,0.2-0.1,0.3-0.4,0.3h-3.3c-1.9,0-2.1,0-2.7-0.8c-1.3-1.6-5.4-6.2-5.4-6.2v6.8c0,0.2-0.1,0.3-0.4,0.3
		h-2.4c-0.3,0-0.4,0-0.4-0.3V39c0-0.2,0.1-0.3,0.4-0.3h2.8c2.1,0,2.4,0,3.1,0.8c0.6,0.7,5.5,6.4,5.5,6.4V39c0-0.2,0.1-0.3,0.4-0.3
		H126.4L126.4,38.7z M198.1,38.7c0.3,0,0.4,0.1,0.4,0.3v8.6c0,0.2-0.1,0.3-0.4,0.3h-3.3c-1.9,0-2.1,0-2.7-0.8
		c-1.3-1.6-5.4-6.3-5.4-6.3v6.8c0,0.2-0.1,0.3-0.4,0.3h-2.4c-0.3,0-0.4,0-0.4-0.3V39c0-0.2,0.1-0.3,0.4-0.3h2.8c2.1,0,2.4,0,3.1,0.8
		c0.6,0.7,5.5,6.4,5.5,6.4V39c0-0.2,0.1-0.3,0.4-0.3H198.1L198.1,38.7z M144.6,42.3c2.1,0.2,3.7,0.4,4.1,2c0,0.1,0.1,0.5,0.1,1
		c0,0.3,0,0.6-0.1,1c-0.4,1.5-1.8,1.7-4.1,1.7h-9c-0.3,0-0.4,0-0.4-0.3v-1.5c0-0.2,0.1-0.3,0.4-0.3h9.1c0.4,0,0.5-0.1,0.5-0.3v-0.4
		V45c-0.1-0.2-0.1-0.4-0.6-0.4c-1,0-4-0.2-6.1-0.4c-2.6-0.2-3.3-1.1-3.4-1.8c-0.1-0.2-0.1-0.6-0.1-0.9c0-0.2,0-0.6,0.1-0.9
		c0.4-1.3,1.7-1.9,3.9-1.9h8.8c0.3,0,0.4,0,0.4,0.2v1.5c0,0.2-0.1,0.3-0.4,0.2h-8.6c-0.4,0-0.5,0.1-0.6,0.4v0.4
		c0,0.2,0.2,0.4,0.5,0.4C140.3,42,143.5,42.2,144.6,42.3L144.6,42.3z M160.2,42.3c2.1,0.2,3.7,0.4,4.1,2c0,0.1,0.1,0.5,0.1,1
		c0,0.3,0,0.6-0.1,1c-0.4,1.5-1.8,1.7-4.1,1.7h-9c-0.3,0-0.4,0-0.4-0.3v-1.5c0-0.2,0.1-0.3,0.4-0.3h9.1c0.4,0,0.5-0.1,0.5-0.3v-0.4
		V45c-0.1-0.2-0.2-0.4-0.6-0.4c-1,0-4-0.2-6.1-0.4c-2.6-0.2-3.2-1.1-3.4-1.8c-0.1-0.2-0.1-0.6-0.1-0.9c0-0.2,0-0.6,0.1-0.9
		c0.4-1.3,1.7-1.9,3.9-1.9h8.8c0.3,0,0.4,0,0.4,0.2v1.5c0,0.2-0.1,0.3-0.4,0.2h-8.6c-0.4,0-0.5,0.1-0.6,0.4v0.4
		c0,0.2,0.1,0.4,0.5,0.4C155.8,42,159,42.2,160.2,42.3L160.2,42.3z"/>
</g>
<g>
	<path d="M75.9,22.5c-0.1,0.1-0.1,3.9-0.1,8.4c0,7.6,0,8.3,0.3,8.5c0.2,0.2,0.9,0.2,2.5,0.2l2.2-0.1l0.1-2.6c0-1.6,0.1-2.7,0.2-2.9
		c0.1-0.2,1.2-0.2,5-0.2c4.8,0,4.8,0,5.2,0.4c0.5,0.5,2.5,2.8,3.5,3.9c1.3,1.5,1.2,1.5,4.1,1.5c2.1,0,2.6-0.1,2.6-0.2
		c0-0.1-0.9-1.3-1.9-2.7c-1.1-1.4-1.9-2.6-1.9-2.7c0-0.1,0.5-0.6,1.1-1.1c0.6-0.5,1.1-1,1.2-1.2c0.1-0.2,0.3-0.5,0.4-0.6
		c0.1-0.1,0.3-0.7,0.5-1.3c0.3-1,0.3-1.1,0-2.3c-0.6-2.3-1.6-3.8-3.1-4.4c-2.1-0.8-1.9-0.8-12.2-0.8C79.7,22.3,76,22.4,75.9,22.5
		L75.9,22.5z M95.3,27.1c0.6,0.7,0.6,1.5-0.1,2.1l-0.5,0.5l-6.8,0l-6.8-0.1l-0.1-1.6l-0.1-1.5h13.8L95.3,27.1z M118,22.7
		c-0.2,0.2-1.1,1.4-1.9,2.6c-2.1,3.1-3,4.3-4.3,6.2c-0.9,1.3-3.6,5.2-5.1,7.3c-0.1,0.2-0.1,0.3,0.1,0.5c0.2,0.2,0.6,0.3,3,0.2
		l2.8-0.1l1.1-1.7l1.1-1.7l6.5,0l6.5,0.1l0.8,1.1c0.5,0.6,1.1,1.4,1.3,1.7l0.5,0.6h2.6c2.1,0,2.6-0.1,2.6-0.2c0-0.1-0.5-0.9-1.1-1.8
		c-1.4-1.9-2.9-4.1-4.5-6.4c-0.7-1-1.3-1.9-1.5-2.1c-0.1-0.2-0.6-0.8-1-1.5c-0.4-0.6-1.3-1.9-2-2.8c-0.7-0.9-1.2-1.7-1.2-1.7
		c0-0.1-0.2-0.3-0.4-0.5c-0.4-0.4-0.5-0.4-3-0.4C118.5,22.3,118.4,22.3,118,22.7L118,22.7z M122.6,28.5c0.5,0.7,1.2,1.8,1.7,2.5
		c0.4,0.6,0.8,1.2,0.7,1.3c-0.1,0.1-7,0.1-7.2,0c-0.1-0.1,0.3-0.6,0.7-1.3c0.5-0.7,1.2-1.8,1.7-2.5c0.5-0.8,1-1.3,1.2-1.3
		S122.1,27.7,122.6,28.5L122.6,28.5z M140.5,22.4c-0.1,0.1-0.1,3.9-0.1,8.5c0,7.4,0,8.4,0.3,8.6c0.2,0.2,0.7,0.3,2.4,0.2l2.1-0.1
		l0.1-6c0.1-5.6,0.1-6.5,0.5-6.5c0.1,0,0.9,0.6,2.2,1.7c0.4,0.3,1.1,0.9,1.5,1.2c0.4,0.3,1.4,1.1,2.2,1.7c0.8,0.6,1.9,1.5,2.5,2
		c2.1,1.7,3.7,3,3.8,3.1c0.1,0.1,0.8,0.7,1.8,1.5l1.7,1.4h2.7c1.9,0,2.8-0.1,3-0.2c0.2-0.2,0.2-2.3,0.2-8.4v-8.2l-0.4-0.4
		c-0.4-0.4-0.6-0.4-2.5-0.4c-1.1,0-2.2,0.1-2.3,0.1c-0.2,0.1-0.3,0.7-0.3,5.5c0,4.6,0,5.4-0.3,5.5c-0.2,0.1-0.8-0.3-1.5-0.9
		c-0.7-0.6-2-1.6-2.9-2.4c-0.9-0.7-2-1.6-2.5-2c-0.5-0.4-1.2-1-1.6-1.3c-0.8-0.7-1.6-1.4-3.6-2.9c-0.7-0.6-1.4-1.2-1.6-1.3
		c-0.2-0.2-0.7-0.3-3.8-0.3C142.2,22.3,140.5,22.3,140.5,22.4L140.5,22.4z M177.2,22.7c-1.1,0.4-1.9,1.1-2.4,2.2
		c-0.4,0.8-0.4,1.1-0.4,5.9v5l0.5,1.1c0.4,0.8,0.7,1.2,1.5,1.7c0.5,0.4,1.1,0.6,1.2,0.6c0.2,0,0.4,0.1,0.4,0.2
		c0.1,0.1,3.2,0.2,8.7,0.2c9.7,0,9.2,0.1,10.5-1.3c1.1-1.1,1.3-1.9,1.3-5.2c0-2.5,0-2.8-0.3-3.1c-0.3-0.3-1-0.3-7-0.2l-6.7,0.1
		l-0.1,1.5c0,1.2,0,1.6,0.2,1.8c0.2,0.2,0.9,0.3,4.7,0.3c3.7,0,4.4,0,4.5,0.2c0.1,0.3-0.2,0.9-0.7,1.5l-0.4,0.4h-6.7
		c-6,0-6.7,0-6.9-0.3c-0.2-0.2-0.2-1.1-0.2-3.7c0-3.3,0-3.4,0.4-3.9c0.9-1.1,0.9-1.1,7.7-1.1c6.7,0,6.5,0,6.8,1.1
		c0.2,0.7,0.6,0.8,2.5,0.8c1.9,0,2.2-0.1,2.2-1c0-1.8-1.6-4.3-3-4.6c-0.2-0.1-0.7-0.2-1.1-0.3c-0.4-0.1-3.9-0.2-8.6-0.2
		C179.1,22.4,178,22.4,177.2,22.7L177.2,22.7z M210.9,22.5l-4.5,0.1l-0.1,8.3c0,7.7,0,8.3,0.3,8.5c0.2,0.2,2.8,0.2,11.3,0.2
		c9.9,0,11,0,11.1-0.3c0.2-0.6,0.1-3-0.2-3.4l-0.3-0.4h-8.4c-8.1,0-8.4,0-8.6-0.3c-0.2-0.5-0.2-1.5,0.1-1.8c0.2-0.3,0.9-0.3,7.5-0.3
		l7.2-0.1l0.1-1.7c0-1.1,0-1.7-0.2-1.9c-0.2-0.2-1.4-0.2-7.4-0.2c-8,0-7.4,0.1-7.4-1.2c0-0.4,0.1-0.8,0.2-1c0.2-0.3,0.5-0.3,8.7-0.3
		c7.6,0,8.6,0,8.7-0.3c0.1-0.2,0.1-0.9,0.1-1.7c0-1.3-0.1-1.5-0.4-1.9l-0.5-0.5l-6.4,0C218.2,22.3,213.3,22.4,210.9,22.5L210.9,22.5
		z M75.8,47.8v8.4c0,7.5,0,8.1,0.3,8.3c0.2,0.2,0.9,0.2,2.5,0.2l2.2-0.1l0.1-2.8c0.1-1.6,0.2-2.9,0.2-3.1c0.1-0.2,1.3-0.2,5-0.2H91
		l1.6,1.9c0.9,1,2.2,2.4,2.8,3.1l1.2,1.2h2.6c1.4,0,2.6-0.1,2.7-0.2c0.1-0.1-0.2-0.5-0.5-0.9c-0.3-0.4-1.2-1.6-1.9-2.5
		c-0.7-0.9-1.4-1.7-1.5-1.8c-0.3-0.2-0.2-0.8,0.2-1c0.2-0.1,0.5-0.3,0.6-0.4c0.1-0.1,0.4-0.3,0.5-0.5c0.6-0.4,1.3-1.5,1.6-2.6
		c0.4-1.1,0.4-1.2,0.1-2.5c-0.5-2-1.2-3.2-2.4-4c-1.4-0.9-1.4-0.9-12.5-0.9H75.8L75.8,47.8z M95.4,51.9c0.5,0.7,0.5,1.4-0.1,2
		l-0.5,0.5l-6.8,0l-6.8-0.1l-0.1-1.5l-0.1-1.4h14L95.4,51.9z M111.1,47.7c-0.8,0.4-1.7,1-2,1.6c-0.6,1.1-0.7,1.6-0.7,6.3
		c0,5.1,0.1,6.1,1,7.3c0.6,0.8,0.8,1,1.7,1.4c0.7,0.4,1,0.4,10.3,0.3c10.3-0.1,10.1,0,11.4-1c0.3-0.2,0.7-0.7,1-1.1
		c0.4-0.7,0.4-0.7,0.4-6.2c0-5.2,0-5.6-0.4-6.2c-0.5-0.8-1.3-1.7-1.9-2.1c-1.4-0.7-1.8-0.8-11.2-0.7
		C112.8,47.4,111.7,47.4,111.1,47.7L111.1,47.7z M129,52c0.4,0.4,0.4,0.5,0.4,3.8c0,3.1,0,3.5-0.3,3.8l-0.3,0.4l-7.2,0.1
		c-4.8,0-7.3,0-7.5-0.1c-0.3-0.2-0.4-0.4-0.4-3.9c0-3.5,0-3.7,0.4-4.1c0.3-0.3,0.6-0.4,7.5-0.4C128.4,51.6,128.6,51.6,129,52L129,52
		z M139.3,47.6c0,0.2,0.6,1.2,2.1,3.3c2.3,3.2,3.5,4.9,4.2,6c0.4,0.6,0.9,1.3,1,1.4c0.1,0.1,0.4,0.6,0.7,1c1.2,1.8,2.8,4,3.4,4.7
		l0.6,0.8h5.4l1.4-2c1.5-2.1,2.2-3.1,4.6-6.4c2.3-3.2,3.8-5.3,4.9-6.8c1.5-2.1,1.5-2.1-2-2.1c-3.1,0-3.1,0-3.8,1.1
		c-0.2,0.4-0.9,1.4-1.5,2.2c-0.6,0.8-2,2.8-3.1,4.4c-2.7,3.8-3.4,4.7-3.6,4.7c-0.2,0-0.8-0.8-3.8-5.1c-0.8-1.2-1.8-2.6-2.2-3.2
		c-0.4-0.6-1.1-1.6-1.6-2.3c-1.4-2-1.1-1.9-4.2-1.9C139.8,47.4,139.3,47.4,139.3,47.6L139.3,47.6z M175.1,47.8
		c-0.2,0.7-0.1,15.5,0.1,15.9c0.4,1,0.2,1,11.9,1l10.7-0.1l0.1-1.9c0-1.7,0-2-0.3-2.2c-0.2-0.2-2.2-0.2-8.4-0.2
		c-6.3,0-8.2-0.1-8.5-0.2c-0.2-0.2-0.3-0.4-0.2-1.2l0.1-1l7.5-0.1l7.5-0.1l0.1-1.5c0.1-2.4,0.8-2.2-7.7-2.3c-5.4,0-7.2-0.1-7.4-0.3
		c-0.1-0.1-0.1-0.6-0.1-1c0-0.7,0.1-0.9,0.3-1c0.2-0.1,3.3-0.2,8.7-0.2h8.4v-1.8c0-1.2-0.1-1.9-0.2-2c-0.2-0.2-2.9-0.2-11.3-0.2
		h-11.1L175.1,47.8z M206.4,47.5c-0.1,0.1-0.1,3.8-0.1,8.4c0,7.8,0,8.3,0.3,8.6c0.3,0.2,0.7,0.3,2.4,0.2l2.1-0.1l0.1-2.7
		c0-1.6,0.1-2.8,0.2-3c0.2-0.2,1.3-0.2,5.1-0.2h4.9l2,2.3c1.1,1.3,2.3,2.6,2.7,3l0.7,0.7h2.6c1.6,0,2.7-0.1,2.7-0.2
		c0.1-0.2-0.7-1.4-1.2-1.9c-0.1-0.1-0.7-0.8-1.3-1.6c-0.6-0.8-1.2-1.5-1.4-1.7c-0.4-0.4-0.3-0.9,0.3-1.2c0.7-0.4,1.6-1.2,2.2-2.2
		c0.5-0.7,0.5-0.9,0.5-2.6c0-2.2-0.4-3.1-1.7-4.5c-1.5-1.5-1.3-1.5-13-1.5C211,47.4,206.4,47.4,206.4,47.5L206.4,47.5z M225.7,51.9
		c0.3,0.4,0.4,0.6,0.3,1.2c-0.2,1.3,0,1.3-7.6,1.3c-5,0-6.8-0.1-6.9-0.2c-0.2-0.2-0.3-2.5-0.1-2.7c0.1-0.1,3.2-0.1,7.1-0.1h6.9
		L225.7,51.9z"/>
</g>
</svg>
