<svg xmlns="http://www.w3.org/2000/svg" height="256px" width="256px" viewBox="0 0 512 512" style="enable-background:new 0 0 512 512" xml:space="preserve">
  <path style="fill:#d1d5cd" d="M80.523 244.13c-2.589 0-5.119-1.299-6.585-3.66l-16.31-26.276H41.29c-4.277 0-7.742-3.465-7.742-7.742s3.465-7.742 7.742-7.742h20.645c2.678 0 5.165 1.384 6.578 3.659l18.581 29.935c2.255 3.634 1.139 8.406-2.495 10.66-1.271.79-2.682 1.166-4.076 1.166z"/>
  <path style="fill:#c8e5fc" d="m325.543 122.839-208.599-1.032c-12.274 0-22.586 9.208-23.969 21.399l-.867 6.565-11.592 87.649v8.44h179.571v-7.407l-.09-.14c.756-33.348 13.156-63.817 33.295-87.509 9.246-10.878 20.121-20.326 32.251-27.965z"/>
  <path style="fill:#b8dcf4" d="m141.275 149.77.867-6.565c1.263-11.134 9.981-19.755 20.832-21.171l-46.029-.228c-12.274 0-22.586 9.208-23.969 21.399l-.867 6.565-11.592 87.649v8.44h49.166v-8.44l11.592-87.649z"/>
  <path style="fill:#acafb7" d="M473.259 190.596h-.01c-65.693-18.065-131.386-18.065-197.079 0h-.01c-7.608 14.988-11.902 31.959-11.902 49.92 0 2.963.114 5.905.351 8.815h11.541c23.959 0 37.946 27.035 24.103 46.586l-10.632 15.019c8.403 10.147 18.591 18.766 30.07 25.373l23.577-33.332c15.35-21.698 47.535-21.698 62.885 0l23.577 33.332c11.479-6.606 21.667-15.226 30.07-25.373l-10.632-15.019c-13.843-19.551.145-46.586 24.103-46.586h11.541c.237-2.911.351-5.853.351-8.815-.002-17.961-4.296-34.931-11.904-49.92z"/>
  <path style="fill:#999da3" d="M459.549 311.225c.082-.098.168-.191.25-.288l-.427-.603c.053.297.114.593.177.891zM291.389 216.922h.01c63.617-17.494 127.234-18.046 190.851-1.658-2.026-8.659-5.062-16.929-8.99-24.667h-.01c-65.693-18.065-131.386-18.065-197.079 0h-.01c-7.609 14.987-11.903 31.958-11.903 49.919 0 2.963.114 5.905.351 8.815h11.541c1.604 0 3.16.13 4.669.362 1.813-11.623 5.432-22.65 10.57-32.771z"/>
  <path style="fill:#d1d5cd" d="M168.258 344.774v30.524c0 5.946-4.821 10.766-10.766 10.766h-30.524v-41.29h41.29z"/>
  <path style="fill:#74767f" d="M136.258 386.065v8.712c0 7.732-6.266 13.997-13.997 13.997H81.094c-7.732 0-13.997-6.266-13.997-13.997v-54.132h69.161v45.42z"/>
  <path style="fill:#656872" d="M101.161 394.777v-54.132H67.097v54.132c0 7.732 6.266 13.997 13.997 13.997h34.065c-7.732 0-13.998-6.266-13.998-13.997z"/>
  <path style="fill:#de4242" d="M45.419 207.484v3.778c0 7.608-6.163 13.77-13.77 13.77H13.77c-7.608 0-13.77-6.163-13.77-13.77v-7.556c0-7.608 6.163-13.77 13.77-13.77h17.879c7.608 0 13.77 6.163 13.77 13.77v3.778z"/>
  <path style="fill:#74767f" d="M116.945 121.806c-12.274 0-22.586 9.208-23.969 21.399l-.867 6.565 201.184 1.032c9.246-10.877 20.121-20.323 32.251-27.964l-208.599-1.032z"/>
  <path style="fill:#636570" d="m141.275 149.77.867-6.565c1.263-11.134 9.981-19.755 20.832-21.171l-46.029-.228c-12.274 0-22.586 9.208-23.969 21.399l-.867 6.565 49.133.252.033-.252z"/>
  <path style="fill:#fc5151" d="M294.248 333.419c-14.558-16.768-25.193-37.028-30.496-59.355-2.478-10.436-3.799-21.321-3.799-32.516 0-1.035.017-2.067.039-3.097l-176.111-1.032c-14.741 0-27.458 10.467-30.142 24.97-3.499 18.911-5.636 37.677-6.266 56.279-.124 3.19-.186 6.359-.206 9.538-.114 17.074 13.605 31.019 30.679 31.019h90.312l123.871 1.032h33.414a140.8427 140.8427 0 0 1-31.295-26.838z"/>
  <path style="fill:#ef3a3a" d="M107.53 328.206c.021-3.179.083-6.348.206-9.538.63-18.601 2.766-37.368 6.266-56.279 2.409-13.02 12.906-22.782 25.694-24.643l-55.815-.327c-14.741 0-27.458 10.467-30.142 24.97-3.499 18.911-5.636 37.677-6.266 56.279-.124 3.19-.186 6.359-.206 9.538-.114 17.074 13.605 31.019 30.679 31.019h60.263c-17.074.001-30.792-13.945-30.679-31.019zM228.521 359.226H168.258l123.871 1.032h33.414c-.117-.073-.229-.153-.346-.227l-96.676-.805z"/>
  <path style="fill:#c8e5fc" d="M96 259.097c10.828 0 19.613 8.785 19.613 19.613S106.828 298.323 96 298.323s-19.613-8.785-19.613-19.613c0-10.829 8.785-19.613 19.613-19.613z"/>
  <path style="fill:#de4242" d="m294.248 333.419-141.453-1.032c-8.867 0-16.196-5.863-18.643-13.719H47.474c-.124 3.19-.186 6.359-.206 9.538-.114 17.074 13.605 31.019 30.679 31.019h90.312l123.871 1.032h33.414a140.8254 140.8254 0 0 1-31.296-26.838z"/>
  <path style="fill:#d12424" d="M107.53 328.206c.021-3.179.083-6.348.206-9.538H47.474c-.124 3.19-.186 6.359-.206 9.538-.114 17.074 13.605 31.019 30.679 31.019h60.263c-17.075.001-30.793-13.945-30.68-31.019z"/>
  <path style="fill:#d1d5cd" d="m263.752 274.065-107.84-1.032c-9.641 0-17.827 7.03-19.293 16.557l-3.117 20.335c-.465 3.045-.206 6.018.65 8.743 2.446 7.855 9.775 13.719 18.643 13.719l141.453 1.032c-14.558-16.768-25.193-37.028-30.496-59.354z"/>
  <path style="fill:#c4c6c2" d="M168.878 321.252c-8.867 0-16.196-5.863-18.643-13.719-.857-2.725-1.115-5.698-.65-8.743l3.117-20.336c.292-1.896.86-3.688 1.643-5.351-8.949.714-16.341 7.48-17.726 16.486l-3.117 20.335c-.465 3.045-.206 6.018.65 8.743 2.446 7.855 9.775 13.719 18.643 13.719l141.453 1.032c-3.136-3.612-6.078-7.395-8.835-11.317l-116.535-.849z"/>
  <path style="fill:#c4c6c1" d="M177.548 309.161h-14.452c-4.277 0-7.742-3.465-7.742-7.742s3.465-7.742 7.742-7.742h14.452c4.277 0 7.742 3.465 7.742 7.742s-3.465 7.742-7.742 7.742zM224 309.161h-21.677c-4.277 0-7.742-3.465-7.742-7.742s3.465-7.742 7.742-7.742H224c4.277 0 7.742 3.465 7.742 7.742s-3.465 7.742-7.742 7.742z"/>
  <path style="fill:#add6f2" d="M111.49 190.452c-2.354 0-4.678-1.068-6.2-3.097-2.565-3.42-1.871-8.274 1.548-10.839l16.516-12.387c3.42-2.565 8.274-1.871 10.839 1.548 2.565 3.42 1.871 8.274-1.548 10.839l-16.516 12.387a7.7035 7.7035 0 0 1-4.639 1.549zM112.006 220.904c-2.389 0-4.746-1.102-6.261-3.181-2.519-3.455-1.761-8.297 1.694-10.817l49.548-36.129c3.452-2.52 8.297-1.763 10.817 1.694 2.519 3.455 1.761 8.297-1.694 10.817l-49.548 36.129c-1.376 1.003-2.973 1.487-4.556 1.487z"/>
  <path style="fill:#70727f" d="M332.387 224.516h-5.161c-4.277 0-7.742-3.465-7.742-7.742s3.465-7.742 7.742-7.742h5.161c4.277 0 7.742 3.465 7.742 7.742s-3.465 7.742-7.742 7.742z"/>
  <path style="fill:#70727f" d="M374.71 103.226c75.819 0 137.29 61.471 137.29 137.29s-61.471 137.29-137.29 137.29-137.29-61.471-137.29-137.29 61.47-137.29 137.29-137.29zm110.1 146.106c.237-2.911.351-5.853.351-8.815 0-17.961-4.294-34.932-11.902-49.92h-.01c-18.219-35.912-55.505-60.532-98.539-60.532s-80.32 24.619-98.539 60.532h-.01c-7.608 14.988-11.902 31.959-11.902 49.92 0 2.963.114 5.905.351 8.815 1.837 23.319 10.932 44.614 25.012 61.605 8.403 10.147 18.591 18.766 30.07 25.373 16.196 9.321 34.994 14.658 55.019 14.658 20.026 0 38.823-5.337 55.019-14.658 11.479-6.606 21.667-15.226 30.07-25.373 14.079-16.991 23.173-38.287 25.01-61.605z"/>
  <path style="fill:#70727f" d="M374.71 209.548c13.11 0 23.742 8.785 23.742 19.613s-10.632 19.613-23.742 19.613c-13.11 0-23.742-8.785-23.742-19.613s10.632-19.613 23.742-19.613zM422.194 224.516h-5.161c-4.277 0-7.742-3.465-7.742-7.742s3.465-7.742 7.742-7.742h5.161c4.277 0 7.742 3.465 7.742 7.742-.001 4.277-3.466 7.742-7.742 7.742z"/>
  <path style="fill:#5b5f72" d="M421.191 361.691c-18.492 0-36.074-3.886-51.986-10.873-17.962-.883-34.813-6.046-49.515-14.508-11.479-6.606-21.667-15.226-30.07-25.373-14.08-16.991-23.174-38.286-25.012-61.605-.237-2.911-.351-5.853-.351-8.815 0-17.961 4.294-34.932 11.902-49.92h.01c11.753-23.168 31.449-41.622 55.496-51.812 17.751-17.005 40.337-28.997 65.487-33.722a138.1183 138.1183 0 0 0-22.444-1.836c-75.819 0-137.29 61.471-137.29 137.29s61.471 137.29 137.29 137.29c24.641 0 47.763-6.498 67.755-17.866-6.92 1.145-14.024 1.75-21.272 1.75z"/>
</svg>
