<svg xmlns="http://www.w3.org/2000/svg" height="256px" width="256px" viewBox="0 0 512 512" style="enable-background:new 0 0 512 512" xml:space="preserve">
  <path style="fill:#ffc35a" d="M104.988 249.533c-2.287 0-4.552-1.01-6.075-2.949-2.638-3.352-2.058-8.209 1.295-10.846l.196-.153L367.002 23.649c3.079-2.545 7.659-2.346 10.483.572 2.966 3.066 2.902 7.94-.164 10.908l-.031.03c-.166.16-.339.313-.518.457L110.033 247.664l-.274.216c-1.415 1.114-3.099 1.653-4.771 1.653zM262.86 411.283c-4.266 0-7.724-3.452-7.724-7.718 0-1.788.621-3.533 1.756-4.914l222.436-258.174c.23-.29.48-.567.743-.817 3.089-2.941 7.979-2.822 10.921.266 2.701 2.837 2.822 7.192.43 10.163-.029.036-.058.072-.088.107v.001L268.931 408.333c-1.415 1.797-3.609 2.95-6.071 2.95z"/>
  <path style="fill:#d1d5cd" d="M422.379 3.031c-22.565.005-43.192 8.362-58.946 22.134l-.031.031c-18.762 16.421-30.609 40.553-30.604 67.454.01 49.486 40.134 89.591 89.62 89.581 26.891-.006 51.018-11.855 67.442-30.623.01-.01.021-.031.031-.041 13.767-15.76 22.114-36.391 22.11-58.956-.013-49.486-40.136-89.591-89.622-89.58zm.024 109.405c-10.937.002-19.807-8.863-19.809-19.801-.002-10.937 8.863-19.807 19.801-19.809 10.937-.002 19.807 8.863 19.809 19.801.001 10.938-8.864 19.807-19.801 19.809z"/>
  <path style="fill:#c0c4bc" d="M389.992 92.651c-.006-26.901 11.843-51.033 30.604-67.454l.031-.031c8.782-7.678 19.081-13.666 30.382-17.469-8.991-3.027-18.618-4.669-28.63-4.666-22.565.005-43.192 8.362-58.946 22.134l-.031.031c-18.762 16.421-30.609 40.553-30.604 67.454.01 49.486 40.134 89.591 89.62 89.581 9.992-.002 19.601-1.643 28.576-4.662-35.456-11.932-60.994-45.439-61.002-84.918z"/>
  <path style="fill:#ffc35a" d="m481.347 84.73.003 15.778c.001 2.935-2.388 5.326-5.334 5.326l-6.056.001c-2.214 0-4.161 1.402-4.963 3.461-.227.566-.463 1.133-.7 1.689-.886 2.008-.504 4.346 1.052 5.901l4.316 4.304c2.08 2.08 2.081 5.458.002 7.539l-11.152 11.156c-2.08 2.08-5.458 2.081-7.539.002l-4.306-4.314c-1.555-1.555-3.893-1.935-5.901-1.049-.556.237-1.123.474-1.689.7-2.06.803-3.459 2.751-3.459 4.965l.001 6.056c.001 2.945-2.388 5.335-5.324 5.336l-15.778.003c-2.935.001-5.326-2.388-5.326-5.334l-.001-6.056c0-2.214-1.402-4.161-3.461-4.963-.566-.227-1.133-.463-1.689-.7-2.008-.886-4.346-.504-5.901 1.052l-4.304 4.316c-2.08 2.08-5.458 2.081-7.539.002l-11.156-11.152c-2.08-2.08-2.081-5.458-.002-7.539l4.314-4.306c1.555-1.555 1.935-3.893 1.049-5.901-.247-.556-.474-1.123-.7-1.689-.803-2.06-2.751-3.459-4.965-3.459l-6.056.001c-2.945.001-5.335-2.388-5.336-5.324l-.003-15.778c-.001-2.935 2.388-5.326 5.334-5.326l6.056-.001c2.214 0 4.161-1.402 4.963-3.461.227-.566.453-1.133.7-1.689.886-2.008.504-4.346-1.052-5.901l-4.316-4.304c-2.08-2.08-2.081-5.458-.002-7.539l11.152-11.156c2.08-2.08 5.458-2.081 7.539-.002l4.306 4.314c1.555 1.555 3.893 1.935 5.901 1.049.556-.247 1.123-.474 1.689-.7 2.06-.803 3.459-2.751 3.459-4.965l-.001-6.056c-.001-2.945 2.388-5.336 5.324-5.336l15.778-.003c2.935-.001 5.326 2.388 5.326 5.334l.001 6.056c0 2.214 1.402 4.161 3.461 4.963.566.227 1.133.453 1.689.7 2.008.886 4.346.504 5.901-1.052l4.304-4.316c2.08-2.08 5.458-2.081 7.539-.002l11.156 11.152c2.08 2.08 2.081 5.458.002 7.539l-4.314 4.306c-1.555 1.555-1.935 3.893-1.049 5.901.237.556.474 1.123.7 1.689.803 2.06 2.751 3.459 4.965 3.459l6.056-.001c2.946-.001 5.335 2.389 5.336 5.324zm-39.144 7.897c-.002-10.937-8.871-19.803-19.809-19.801s-19.803 8.871-19.801 19.809 8.872 19.803 19.809 19.801c10.938-.002 19.803-8.871 19.801-19.809z"/>
  <path style="fill:#a9c0ff" d="M282.802 403.689c-.958-1.246-2.235-2.266-3.781-2.924l-10.465-4.468c-.845-.36-1.308-1.276-1.102-2.172 3.879-17.2 4.226-35.326.586-53.266-.185-.906.288-1.813 1.143-2.152l10.566-4.245c4.851-1.937 7.197-7.447 5.249-12.298l-9.068-22.583c-1.948-4.851-7.448-7.198-12.298-5.249l-10.566 4.235c-.855.34-1.823.021-2.317-.762-9.777-15.477-22.561-28.327-37.259-38.067-.762-.505-1.061-1.483-.701-2.338l4.468-10.465c2.059-4.81-.177-10.361-4.988-12.419l-22.371-9.552c-4.81-2.048-10.371.177-12.419 4.988l-4.468 10.465c-.36.845-1.277 1.308-2.173 1.103-17.2-3.879-35.326-4.226-53.266-.586-.906.185-1.813-.288-2.152-1.143l-4.245-10.566-.093-.216c-2.009-4.707-7.427-6.951-12.205-5.033l-22.583 9.068c-4.851 1.948-7.197 7.447-5.249 12.298l4.235 10.566c.34.855.021 1.823-.762 2.317-15.477 9.777-28.327 22.561-38.067 37.259-.505.762-1.483 1.061-2.338.7l-10.465-4.468c-4.81-2.059-10.361.177-12.419 4.988l-9.552 22.369c-2.048 4.81.177 10.371 4.988 12.419l10.465 4.468c.845.36 1.308 1.277 1.102 2.173-3.879 17.2-4.226 35.326-.586 53.266.185.906-.288 1.813-1.142 2.152l-10.566 4.245c-4.851 1.937-7.197 7.447-5.249 12.298l9.068 22.583c1.948 4.851 7.448 7.198 12.298 5.25l10.566-4.235c.855-.34 1.823-.022 2.317.762 9.777 15.477 22.561 28.327 37.259 38.067.762.505 1.061 1.483.7 2.338l-4.468 10.465c-2.059 4.81.177 10.361 4.988 12.419l22.371 9.552c4.81 2.048 10.371-.177 12.419-4.988l4.468-10.465c.36-.845 1.277-1.309 2.173-1.103 17.2 3.88 35.326 4.226 53.266.586.906-.186 1.813.287 2.152 1.142l4.245 10.566c1.937 4.851 7.448 7.198 12.298 5.25l22.583-9.068c4.851-1.948 7.197-7.447 5.249-12.298l-4.235-10.566c-.34-.855-.021-1.823.762-2.317 15.477-9.777 28.327-22.561 38.067-37.259.505-.762 1.483-1.061 2.338-.7l10.465 4.467c4.81 2.059 10.361-.177 12.419-4.987l9.552-22.371c1.389-3.254.813-6.859-1.207-9.485v-.01zm-139.951 9.815c-25.026.005-45.319-20.279-45.325-45.305-.005-25.026 20.279-45.319 45.305-45.326s45.319 20.279 45.326 45.305c.007 25.026-20.279 45.319-45.306 45.326z"/>
  <path style="fill:#8db0fc" d="M64.453 354.817c0-48.637 14.83-93.808 40.212-131.245-1.86-.459-3.874-.369-5.79.399l-22.583 9.068c-4.851 1.948-7.197 7.447-5.249 12.298l4.235 10.566c.34.855.021 1.823-.762 2.317-15.477 9.777-28.327 22.561-38.067 37.259-.505.762-1.483 1.061-2.338.7l-10.465-4.468c-4.81-2.059-10.361.177-12.419 4.988l-9.552 22.372c-2.048 4.81.177 10.371 4.988 12.419l10.465 4.468c.845.36 1.308 1.277 1.102 2.173-3.879 17.2-4.226 35.326-.586 53.266.185.906-.288 1.813-1.142 2.152l-10.566 4.245c-4.851 1.937-7.197 7.447-5.249 12.298l9.068 22.583c1.948 4.851 7.448 7.198 12.298 5.25l10.566-4.235c.855-.34 1.823-.022 2.317.762 9.777 15.477 22.561 28.327 37.259 38.067.762.505 1.061 1.483.7 2.338l-4.468 10.465c-2.059 4.81.177 10.361 4.988 12.419l22.371 9.552c4.81 2.048 10.371-.177 12.419-4.988l3.015-7.062c-29.365-39.122-46.767-87.742-46.767-140.426z"/>
  <circle style="fill:#87a1ff" cx="226.267" cy="368.167" r="13.389"/>
  <path style="fill:#87a1ff" d="M211.284 299.716c5.223 5.231 5.225 13.707.004 18.94-5.231 5.223-13.707 5.225-18.94.004-5.223-5.231-5.225-13.707-.004-18.94 5.231-5.233 13.707-5.235 18.94-.004zM211.309 417.69c5.223 5.231 5.225 13.707.004 18.94-5.231 5.223-13.707 5.225-18.94.004-5.223-5.231-5.225-13.707-.004-18.94 5.232-5.222 13.708-5.224 18.94-.004z"/>
  <circle style="fill:#87a1ff" cx="142.825" cy="284.766" r="13.389"/>
  <circle style="fill:#87a1ff" cx="142.856" cy="451.609" r="13.389"/>
  <path style="fill:#87a1ff" d="M93.309 299.742c5.223 5.231 5.225 13.707.004 18.94-5.231 5.223-13.707 5.225-18.94.004-5.233-5.231-5.235-13.707-.004-18.94 5.232-5.233 13.708-5.235 18.94-.004zM93.335 417.716c5.223 5.231 5.225 13.707.004 18.94-5.231 5.223-13.707 5.225-18.94.004-5.233-5.231-5.235-13.707-.004-18.94 5.231-5.223 13.707-5.225 18.94-.004z"/>
  <circle style="fill:#87a1ff" cx="59.42" cy="368.208" r="13.389"/>
</svg>
