<?xml version="1.0" encoding="iso-8859-1"?>
<!-- Generator: Adobe Illustrator 19.0.0, SVG Export Plug-In . SVG Version: 6.00 Build 0)  -->
<svg version="1.1" id="Capa_1" xmlns="http://www.w3.org/2000/svg" xmlns:xlink="http://www.w3.org/1999/xlink" x="0px" y="0px"
	 viewBox="0 0 512 512" style="enable-background:new 0 0 512 512;" xml:space="preserve">
<path style="fill:#74767F;" d="M170.323,211.912v36.129H92.903c-6.379,0-12.294-3.375-15.546-8.867l-15.401-26.013H10.095
	C4.521,213.161,0,208.64,0,203.066v-15.938c0-5.574,4.521-10.095,10.095-10.095h62.163c6.379,0,12.294,3.365,15.546,8.867
	l15.401,26.013H170.323z"/>
<path style="fill:#656872;" d="M103.205,211.912l-15.401-26.013c-3.252-5.502-9.166-8.867-15.546-8.867H10.095
	C4.52,177.032,0,181.553,0,187.128v8.702h59.355c6.379,0,12.294,3.365,15.546,8.867l13.436,22.693
	c1.218,2.057,3.432,3.32,5.823,3.32h45.928c9.572,0,17.332,7.759,17.332,17.332l0,0h12.903v-36.129L103.205,211.912L103.205,211.912
	z"/>
<path style="fill:#D1D5CD;" d="M342.71,170.839H203.334c-22.225,0-40.237,16.702-40.237,37.295v3.778v36.129v55.825
	c0,20.594,18.013,37.295,40.237,37.295h106.683h72.93V170.839H342.71z"/>
<path style="fill:#C4C6C2;" d="M192.248,322.963v-55.825v-39.907c0-20.594,18.013-37.296,40.237-37.296h139.375h11.086v-19.097
	H342.71H203.334c-22.225,0-40.237,16.702-40.237,37.295v3.778v36.129v55.825c0,18.625,14.735,34.065,33.993,36.846
	C194.003,335.433,192.248,329.387,192.248,322.963z"/>
<path style="fill:#74767F;" d="M431.504,170.839H406.71h-23.763c-22.224,0-40.237,16.702-40.237,37.295v95.732
	c0,20.594,18.013,37.295,40.237,37.295h23.763h24.795c22.225,0,40.237-16.702,40.237-37.295v-40.64v-0.516v-46.452v-2.364v-5.76
	C471.742,187.541,453.729,170.839,431.504,170.839z"/>
<path style="fill:#6C6E75;" d="M452.666,320.033h-24.795h-23.763c-22.225,0-40.237-16.702-40.237-37.296v-95.732
	c0-4.508,0.863-8.829,2.445-12.83c-13.922,5.867-23.607,18.862-23.607,33.958v95.732c0,20.594,18.013,37.295,40.237,37.295h23.763
	h24.795c17.359,0,32.149-10.19,37.792-24.466C464.227,318.834,458.599,320.033,452.666,320.033z"/>
<g>
	<path style="fill:#606168;" d="M396.883,323.097h-13.935c-12.226,0-22.173-8.627-22.173-19.231V256
		c0-4.276,3.466-7.742,7.742-7.742s7.742,3.466,7.742,7.742v47.866c0,1.287,2.604,3.747,6.689,3.747h13.935
		c4.276,0,7.742,3.466,7.742,7.742C404.625,319.63,401.158,323.097,396.883,323.097z"/>
	<path style="fill:#606168;" d="M431.504,323.097H419.84c-4.276,0-7.742-3.466-7.742-7.742c0-4.276,3.466-7.742,7.742-7.742h11.664
		c4.276,0,7.742,3.466,7.742,7.742C439.246,319.63,435.78,323.097,431.504,323.097z"/>
</g>
<g>
	<path style="fill:#C4C6C1;" d="M206.452,275.097h-15.484c-4.276,0-7.742-3.466-7.742-7.742c0-4.276,3.466-7.742,7.742-7.742h15.484
		c4.276,0,7.742,3.466,7.742,7.742C214.194,271.63,210.727,275.097,206.452,275.097z"/>
	<path style="fill:#C4C6C1;" d="M321.032,275.097h-90.839c-4.276,0-7.742-3.466-7.742-7.742c0-4.276,3.466-7.742,7.742-7.742h90.839
		c4.276,0,7.742,3.466,7.742,7.742C328.774,271.63,325.308,275.097,321.032,275.097z"/>
	<path style="fill:#C4C6C1;" d="M315.871,305.032h-15.484c-4.276,0-7.742-3.466-7.742-7.742c0-4.276,3.466-7.742,7.742-7.742h15.484
		c4.276,0,7.742,3.466,7.742,7.742C323.613,301.566,320.147,305.032,315.871,305.032z"/>
	<path style="fill:#C4C6C1;" d="M266.323,305.032h-70.194c-4.276,0-7.742-3.466-7.742-7.742c0-4.276,3.466-7.742,7.742-7.742h70.194
		c4.276,0,7.742,3.466,7.742,7.742C274.065,301.566,270.598,305.032,266.323,305.032z"/>
</g>
<path style="fill:#D1D5CD;" d="M495.484,216.258h-23.742H438.08c-5.357,0-9.693,3.489-9.693,7.794v30.865
	c0,4.305,4.336,7.794,9.693,7.794h33.662h23.742h1.032v-46.452H495.484z"/>
<path style="fill:#C4C6C2;" d="M443.871,240.344c0-4.305,4.336-7.794,9.693-7.794h33.662h9.29v-16.292h-1.032h-23.742H438.08
	c-5.357,0-9.693,3.489-9.693,7.794v30.865c0,4.305,4.336,7.794,9.693,7.794h5.791V240.344z"/>
<path style="fill:#74767F;" d="M512,231.742v15.484c0,8.547-6.937,15.484-15.484,15.484c-0.351,0-0.692-0.01-1.032-0.041
	c-8.072-0.526-14.452-7.246-14.452-15.443v-15.484c0-8.196,6.379-14.916,14.452-15.443c0.341-0.031,0.681-0.041,1.032-0.041
	c4.274,0,8.145,1.734,10.942,4.542C510.266,223.597,512,227.468,512,231.742z"/>
<path style="fill:#656872;" d="M488.73,258.063V242.58c0-8.196,6.379-14.916,14.452-15.443c0.341-0.031,0.681-0.041,1.032-0.041
	c2.739,0,5.308,0.719,7.54,1.97c-0.559-3.2-2.088-6.067-4.295-8.265c-2.797-2.808-6.668-4.542-10.942-4.542
	c-0.351,0-0.692,0.01-1.032,0.041c-8.072,0.526-14.452,7.246-14.452,15.443v15.484c0,5.803,3.206,10.854,7.939,13.503
	C488.82,259.861,488.73,258.973,488.73,258.063z"/>
<g>
</g>
<g>
</g>
<g>
</g>
<g>
</g>
<g>
</g>
<g>
</g>
<g>
</g>
<g>
</g>
<g>
</g>
<g>
</g>
<g>
</g>
<g>
</g>
<g>
</g>
<g>
</g>
<g>
</g>
</svg>
