<svg xmlns="http://www.w3.org/2000/svg" height="256px" width="256px" viewBox="0 0 512 512" style="enable-background:new 0 0 512 512" xml:space="preserve">
  <path style="fill:#12db84" d="M408.65 221.027 304.041 372.16v.01c16.619 38.524 54.937 65.507 99.572 65.507C463.474 437.677 512 389.151 512 329.29c0-58.178-45.822-105.631-103.35-108.263z"/>
  <path style="fill:#5fed65" d="M437.387 227.097c0-.274-.007-.546-.008-.82-9.105-2.981-18.74-4.793-28.729-5.25L304.041 372.16v.01c3.901 9.043 9.011 17.438 15.104 25.01 7.998-2.966 15.732-6.477 23.148-10.499 49.771-26.963 85.509-76.55 93.427-134.962 1.104-8.052 1.667-16.276 1.667-24.622z"/>
  <path style="fill:#c8e5fc" d="m407.37 247.835-78.689 113.672c12.501 29.017 41.332 49.332 74.932 49.332 45.037 0 81.548-36.511 81.548-81.548 0-43.779-34.498-79.495-77.791-81.456z"/>
  <path style="fill:#b8daf2" d="M435.35 254.175c-8.666-3.666-18.088-5.892-27.979-6.34l-78.689 113.672c3.84 8.915 9.227 17.003 15.815 23.938 47.92-26.832 82.406-74.794 90.853-131.27z"/>
  <path style="fill:#12db84" d="m207.949 372.157-104.6-151.13C45.822 223.659 0 271.112 0 329.29c0 59.861 48.526 108.387 108.387 108.387 44.635 0 82.952-26.983 99.572-65.507v-.01l-.01-.003z"/>
  <path style="fill:#5fed65" d="M103.35 221.027c-9.989.457-19.624 2.269-28.729 5.25-.001.274-.008.546-.008.82 0 8.346.564 16.57 1.667 24.622 7.917 58.411 43.655 107.999 93.427 134.962 7.417 4.022 15.15 7.533 23.148 10.499 6.093-7.572 11.203-15.967 15.104-25.01v-.01l-.009-.003-104.6-151.13z"/>
  <path style="fill:#c8e5fc" d="M104.63 247.835c-43.293 1.961-77.791 37.677-77.791 81.455 0 45.037 36.511 81.548 81.548 81.548 33.6 0 62.431-20.315 74.932-49.332L104.63 247.835z"/>
  <path style="fill:#b8daf2" d="M167.503 385.445c6.588-6.936 11.975-15.023 15.815-23.938L104.63 247.835c-9.891.448-19.313 2.676-27.979 6.34 8.446 56.476 42.932 104.438 90.852 131.27z"/>
  <path style="fill:#5fed65" d="M408.65 221.027C405.471 139.468 338.343 74.323 256 74.323s-149.471 65.146-152.65 146.704c-.083 2.013-.124 4.036-.124 6.07 0 7.03.475 13.956 1.404 20.738 6.668 49.197 36.769 90.963 78.689 113.672 7.825 4.243 16.062 7.824 24.64 10.653v.01c15.102 4.996 31.257 7.701 48.041 7.701s32.939-2.705 48.041-7.701v-.01c8.578-2.828 16.815-6.41 24.64-10.653 41.92-22.71 72.021-64.475 78.689-113.672.929-6.782 1.404-13.708 1.404-20.738 0-2.034-.041-4.057-.124-6.07z"/>
  <path style="fill:#12db84" d="M263.701 372.17v-.01c-8.578-2.828-16.815-6.41-24.64-10.653-41.92-22.71-72.021-64.475-78.689-113.672-.929-6.782-1.404-13.708-1.404-20.738 0-2.034.041-4.057.124-6.07 2.812-72.129 55.644-131.412 124.779-144.157A153.6173 153.6173 0 0 0 256 74.322c-82.343 0-149.471 65.146-152.65 146.704-.083 2.013-.124 4.036-.124 6.07 0 7.03.475 13.956 1.404 20.738 6.668 49.197 36.769 90.963 78.689 113.672 7.825 4.243 16.062 7.824 24.64 10.653v.01c15.102 4.996 31.257 7.701 48.041 7.701 9.518 0 18.835-.872 27.871-2.536-6.898-1.27-13.633-3.001-20.17-5.164z"/>
  <path style="fill:#e0f1fc" d="M348.759 138.89c-22.885-24.052-55.019-39.215-90.694-39.773-.681-.01-1.373-.021-2.065-.021-70.689 0-128 57.311-128 128 0 .341 0 .692.01 1.032.547 70.214 57.641 126.968 127.99 126.968 70.689 0 128-57.311 128-128 0-34.188-13.409-65.248-35.241-88.206z"/>
  <path style="fill:#d3e9f4" d="M142.467 239.484c-.01-.341-.01-.692-.01-1.032 0-70.689 57.311-128 128-128 .692 0 1.383.01 2.065.021 25.73.402 49.617 8.405 69.522 21.857-22.262-20.22-51.668-32.707-83.978-33.212-.681-.01-1.373-.021-2.065-.021-70.689 0-128 57.311-128 128 0 .341 0 .692.01 1.032.341 43.755 22.644 82.28 56.426 105.103-25.55-23.201-41.68-56.588-41.97-93.748z"/>
  <path style="fill:#fc5151" d="M311.742 291.778v8.96c0 6.648-5.388 12.036-12.036 12.036h-87.412c-6.648 0-12.036-5.388-12.036-12.036v-8.96c0-6.648 5.388-12.036 12.036-12.036h87.412c6.648 0 12.036 5.388 12.036 12.036z"/>
  <path style="fill:#acd7ea" d="M269.676 230.175c-3.222 0-6.23-2.026-7.327-5.247-1.38-4.046.783-8.446 4.83-9.826l60.573-20.645c4.047-1.377 8.447.782 9.826 4.831 1.38 4.046-.783 8.446-4.83 9.826l-60.573 20.645c-.827.282-1.67.416-2.499.416z"/>
  <path style="fill:#fc5151" d="M269.677 222.431c2.581 7.556-1.455 15.773-9.012 18.343-7.556 2.581-15.773-1.455-18.343-9.012-2.581-7.556 1.455-15.773 9.012-18.343 7.556-2.58 15.773 1.456 18.343 9.012z"/>
  <path style="fill:#acd7ea" d="M256 99.097c-1.903 0-3.795.05-5.677.132v17.416c0 4.276 3.466 7.742 7.742 7.742 4.277 0 7.742-3.466 7.742-7.742V99.48c-2.561-.194-5.141-.321-7.742-.362-.682-.011-1.373-.021-2.065-.021zM348.759 138.89c-1.78-1.87-3.621-3.68-5.509-5.439l-11.402 11.402c-3.023 3.023-3.023 7.926 0 10.948 1.512 1.511 3.494 2.268 5.475 2.268 1.981 0 3.963-.756 5.475-2.268l11.129-11.129c-1.669-1.977-3.388-3.909-5.168-5.782zM365.419 222.452c-4.277 0-7.742 3.466-7.742 7.742s3.465 7.742 7.742 7.742h17.548c.194 0 .384-.014.574-.029.297-3.564.458-7.168.458-10.81 0-1.535-.036-3.061-.09-4.582-.31-.037-.622-.063-.942-.063h-17.548zM153.29 228.129c0-4.276-3.466-7.742-7.742-7.742h-17.374c-.115 2.222-.174 4.459-.174 6.71 0 .341 0 .692.01 1.032.021 2.6.128 5.18.3 7.742h17.238c4.276 0 7.742-3.466 7.742-7.742zM160.387 142.01l12.337 12.337c1.511 1.511 3.493 2.268 5.474 2.268 1.981 0 3.963-.756 5.474-2.268 3.023-3.023 3.023-7.926 0-10.948l-12.312-12.312a128.6761 128.6761 0 0 0-10.973 10.923zM435.606 354.582c-1.258 0-2.534-.308-3.716-.955l-32-17.548c-3.749-2.056-5.121-6.761-3.066-10.512 2.055-3.748 6.761-5.122 10.512-3.066l32 17.548c3.749 2.056 5.121 6.761 3.066 10.512-1.409 2.568-4.06 4.021-6.796 4.021zM83.618 356.645c-2.284 0-4.547-1.006-6.075-2.937-2.654-3.353-2.087-8.221 1.265-10.876l24.774-19.613c3.352-2.655 8.221-2.088 10.876 1.264 2.654 3.353 2.087 8.221-1.265 10.876l-24.774 19.613c-1.422 1.127-3.118 1.673-4.801 1.673z"/>
</svg>
