<svg xmlns="http://www.w3.org/2000/svg" height="256px" width="256px"  viewBox="0 0 512 512" style="enable-background:new 0 0 512 512" xml:space="preserve">
  <path style="fill:#d1d5cd" d="M393.805 5.362v67.854h-30.937V5.362c0-2.96 2.403-5.362 5.362-5.362h20.212c2.961 0 5.363 2.403 5.363 5.362z"/>
  <path style="fill:#b5b7b2" d="M383.183 0H368.23c-2.96 0-5.362 2.403-5.362 5.362v67.854h14.953V5.362c0-2.959 2.403-5.362 5.362-5.362z"/>
  <path style="fill:#ffc35a" d="M404.623 67.029H352.052c-4.847 0-8.776 3.929-8.776 8.776v129.408h70.123V75.805c0-4.847-3.93-8.776-8.776-8.776z"/>
  <path style="fill:#f7b141" d="M380.176 67.029h-28.124c-4.847 0-8.776 3.929-8.776 8.776v129.408H371.4V75.805c0-4.847 3.929-8.776 8.776-8.776z"/>
  <path style="fill:#c0c4bc" d="M278.525 323.411h60.986c-1.578 4.651-2.423 9.642-2.423 14.829 0 5.105.825 10.013 2.351 14.612h-60.914v-29.441z"/>
  <path style="fill:#b5b7b2" d="M337.09 338.131h-58.565v14.721h60.914c-1.526-4.599-2.351-9.508-2.351-14.612 0-.036.001-.073.002-.109z"/>
  <path style="fill:#fc5151" d="M440.685 98.832c.495 7.074-4.475 13.354-11.117 14.025l-16.169 1.64-70.123 7.084-15.396 1.557c-.938.103-1.867.072-2.764-.052-5.404-.784-9.724-5.476-10.158-11.55-.495-7.074 4.475-13.354 11.117-14.025l17.201-1.743 70.123-7.084 14.365-1.454c6.63-.68 12.415 4.518 12.921 11.602zM440.685 151.424c.495 7.074-4.475 13.354-11.117 14.025l-16.169 1.64-70.123 7.084-15.396 1.557c-.938.103-1.867.072-2.764-.052-5.404-.784-9.724-5.476-10.158-11.55-.495-7.074 4.475-13.354 11.117-14.025l17.201-1.743 70.123-7.084 14.365-1.454c6.63-.68 12.415 4.518 12.921 11.602z"/>
  <path style="fill:#f24141" d="m430.405 103.187-70.123 7.084-15.396 1.557c-.938.103-1.867.072-2.764-.052-5.404-.784-9.724-5.476-10.158-11.55-.079-1.138-.004-2.253.184-3.331l-6.075.616c-6.641.67-11.612 6.95-11.117 14.025.433 6.074 4.754 10.766 10.158 11.55.897.124 1.825.155 2.764.052l15.396-1.557 70.123-7.084 16.169-1.64c5.572-.562 9.953-5.078 10.933-10.694l-10.094 1.024zM430.405 155.779l-70.123 7.084-15.396 1.557c-.938.103-1.867.072-2.764-.052-5.404-.784-9.724-5.476-10.158-11.55-.079-1.138-.004-2.253.184-3.331l-6.075.616c-6.641.67-11.612 6.95-11.117 14.025.433 6.074 4.754 10.766 10.158 11.55.897.124 1.825.155 2.764.052l15.396-1.557 70.123-7.084 16.169-1.64c5.572-.562 9.953-5.078 10.933-10.694l-10.094 1.024z"/>
  <path style="fill:#d1d5cd" d="M334.283 352.336c-1.526-4.599-2.351-9.508-2.351-14.612 0-5.187.846-10.178 2.423-14.829 3.816-11.333 11.9-20.697 22.326-26.214V250.07h43.311v46.611c14.715 7.786 24.749 23.233 24.749 41.042 0 25.626-20.779 46.405-46.405 46.405-20.52.001-37.927-13.322-44.053-31.792zm61.585-14.612c0-9.683-7.848-17.531-17.531-17.531s-17.531 7.848-17.531 17.531 7.848 17.531 17.531 17.531 17.531-7.848 17.531-17.531z"/>
  <path style="fill:#b5b7b2" d="M378.997 281.985V250.07H356.68v46.393h7.837c7.998.001 14.48-6.481 14.48-14.478z"/>
  <path style="fill:#acafb7" d="M413.399 228.931v21.583c0 4.032-3.259 7.291-7.291 7.291H350.567c-4.032 0-7.291-3.259-7.291-7.291v-21.583h70.123z"/>
  <path style="fill:#9b9fa8" d="M365.486 250.514v-21.583h-22.211v21.583c0 4.032 3.259 7.291 7.291 7.291h22.211c-4.032 0-7.291-3.259-7.291-7.291z"/>
  <path style="fill:#74767f" d="M284.713 352.852v14.334c0 2.248-1.825 4.063-4.063 4.063h-43.61v-66.235h43.61c2.238 0 4.063 1.815 4.063 4.053v43.785z"/>
  <path style="fill:#555760" d="M280.65 345.2h-43.61v26.049h43.61c2.238 0 4.063-1.815 4.063-4.063v-26.049c-.001 2.248-1.827 4.063-4.063 4.063z"/>
  <path style="fill:#ffc35a" d="M252.508 371.249v5.734c0 8.518-6.899 15.427-15.427 15.427h-27.08V283.853h27.08c8.528 0 15.427 6.909 15.427 15.427v71.969z"/>
  <path style="fill:#f7b141" d="M237.081 366.361h-27.08v26.049h27.08c8.528 0 15.427-6.909 15.427-15.427v-26.049c0 8.518-6.899 15.427-15.427 15.427z"/>
  <path style="fill:#70727f" d="M145.797 512H94.742c-12.962 0-23.46-10.508-23.46-23.46V185.877c0-12.952 10.498-23.46 23.46-23.46h102.111c12.952 0 23.46 10.508 23.46 23.46V488.54c0 12.952-10.508 23.46-23.46 23.46h-51.056z"/>
  <path style="fill:#555760" d="M127.751 488.54V185.877c0-12.952 10.498-23.46 23.46-23.46h-56.47c-12.962 0-23.46 10.508-23.46 23.46V488.54c0 12.952 10.498 23.46 23.46 23.46h56.47c-12.963 0-23.46-10.508-23.46-23.46z"/>
  <path style="fill:#4c4e56" d="M111.674 398.298c-4.272 0-7.734-3.463-7.734-7.734v-25.76c0-4.271 3.462-7.734 7.734-7.734s7.734 3.463 7.734 7.734v25.76c0 4.271-3.462 7.734-7.734 7.734z"/>
  <path style="fill:#5a5d6b" d="M179.919 398.298c-4.272 0-7.734-3.463-7.734-7.734v-25.76c0-4.271 3.462-7.734 7.734-7.734s7.734 3.463 7.734 7.734v25.76c0 4.271-3.461 7.734-7.734 7.734zM145.797 317.801c-4.272 0-7.734-3.463-7.734-7.734v-25.76c0-4.271 3.462-7.734 7.734-7.734s7.734 3.463 7.734 7.734v25.76c0 4.271-3.462 7.734-7.734 7.734z"/>
  <path style="fill:#4c4e56" d="M103.94 162.417v175.709c0 4.271 3.462 7.734 7.734 7.734s7.734-3.463 7.734-7.734V162.417H103.94zM111.674 415.035c-4.272 0-7.734 3.463-7.734 7.734V512h15.468v-89.231c0-4.272-3.462-7.734-7.734-7.734z"/>
  <path style="fill:#5a5d6b" d="M172.185 162.417v175.709c0 4.271 3.462 7.734 7.734 7.734s7.734-3.463 7.734-7.734V162.417h-15.468zM179.919 415.035c-4.272 0-7.734 3.463-7.734 7.734V512h15.468v-89.231c0-4.272-3.461-7.734-7.734-7.734zM145.797 329.01c-4.272 0-7.734 3.463-7.734 7.734V512h15.468V336.744c0-4.271-3.462-7.734-7.734-7.734zM138.063 162.417v89.695c0 4.271 3.462 7.734 7.734 7.734s7.734-3.463 7.734-7.734v-89.695h-15.468z"/>
  <path style="fill:#74767f" d="M421.648 203.728v22.182c0 5.086-4.123 9.209-9.209 9.209h-68.205c-5.086 0-9.209-4.123-9.209-9.209v-22.182c0-1.458 1.182-2.64 2.64-2.64h81.343c1.457 0 2.64 1.181 2.64 2.64z"/>
  <path style="fill:#555760" d="M362.191 225.909v-22.182c0-1.458 1.182-2.64 2.64-2.64h-27.166c-1.458 0-2.64 1.182-2.64 2.64v22.182c0 5.086 4.123 9.209 9.209 9.209H371.4c-5.086 0-9.209-4.123-9.209-9.209z"/>
</svg>
