<svg xmlns="http://www.w3.org/2000/svg" height="256px" width="256px" viewBox="0 0 512 512" style="enable-background:new 0 0 512 512" xml:space="preserve">
  <path style="fill:#d1d5cd" d="M402.035 385.925c-4.264 0-7.719-3.456-7.719-7.719V339.72l-41.48-41.479c-3.014-3.014-3.014-7.902 0-10.916 3.016-3.014 7.902-3.014 10.917 0l43.74 43.74a7.7196 7.7196 0 0 1 2.26 5.458v41.682c0 4.264-3.456 7.72-7.718 7.72z"/>
  <path style="fill:#e0f1fc" d="M492.644 372.031h-180.19c-4.806 0-8.707 3.901-8.707 8.707v122.556c0 4.806 3.901 8.707 8.707 8.707h180.19c4.806 0 8.707-3.901 8.707-8.707V380.738c0-4.807-3.901-8.707-8.707-8.707z"/>
  <path style="fill:#d1d5cd" d="M343.193 193.539c0-6.596 3.816-12.286 9.352-15.028-11.14-70.156-64.692-126.178-133.56-140.981-2.29 8.596-10.106 14.938-19.423 14.938-10.651 0-19.346-8.281-20.053-18.752-93.544 1.685-168.86 78.03-168.86 171.978 0 95.003 77.015 172.018 172.018 172.018 93.752 0 169.979-75.001 171.971-168.275-6.648-2.23-11.445-8.497-11.445-15.898zm-160-72.846c9.04 0 16.369 7.329 16.369 16.369s-7.329 16.369-16.369 16.369-16.369-7.329-16.369-16.369 7.329-16.369 16.369-16.369zm-68.636 101.37c-9.04 0-16.369-7.329-16.369-16.369s7.329-16.369 16.369-16.369 16.369 7.329 16.369 16.369-7.329 16.369-16.369 16.369zm68.111 68.43c-9.04 0-16.369-7.329-16.369-16.369s7.329-16.369 16.369-16.369 16.369 7.329 16.369 16.369-7.328 16.369-16.369 16.369zm0-37.612c-26.06 0-47.186-21.126-47.186-47.186s21.126-47.186 47.186-47.186 47.186 21.126 47.186 47.186-21.125 47.186-47.186 47.186zm68.951-30.818c-9.04 0-16.369-7.329-16.369-16.369s7.329-16.369 16.369-16.369 16.369 7.329 16.369 16.369-7.329 16.369-16.369 16.369z"/>
  <path style="fill:#b5b7b2" d="M343.193 193.539c0-6.596 3.816-12.286 9.352-15.028-11.14-70.156-64.692-126.178-133.56-140.981-2.29 8.596-10.106 14.938-19.423 14.938-10.651 0-19.346-8.281-20.053-18.752-93.544 1.685-168.86 78.03-168.86 171.978 0 95.003 77.015 172.018 172.018 172.018 93.752 0 169.979-75.001 171.971-168.275-6.648-2.23-11.445-8.497-11.445-15.898zM182.645 344.093c-77.073 0-139.552-62.48-139.552-139.552S105.572 64.989 182.645 64.989s139.552 62.48 139.552 139.552-62.479 139.552-139.552 139.552z"/>
  <path style="fill:#fc5151" d="M352.315 237.176c-8.594-.556-15.397-7.698-15.407-16.436l-.021-15.376-14.28.024c-2.219.004-4.046-1.754-4.113-3.973-2.175-71.646-59.963-129.276-131.624-131.235-2.219-.061-3.982-1.882-3.985-4.101l-.015-13.086-18.371.031c-9.201.01-16.827-6.772-18.114-15.613-.134-.865-.196-1.75-.196-2.645l-.041-26.985c-.01-4.271 3.437-7.729 7.698-7.729L182.787 0c113.55-.165 205.724 91.752 205.889 205.292l.041 25.75c.01 3.386-2.738 6.134-6.113 6.134l-29.177.041c-.371.001-.742-.01-1.112-.041zm7.677-32.635c6.165-.01 11.146-5.012 11.136-11.177-.01-6.155-5.012-11.146-11.167-11.136-6.165.01-11.156 5.012-11.146 11.167.011 6.165 5.012 11.156 11.177 11.146zM199.583 41.415c6.165-.01 11.146-5.012 11.136-11.167 0-6.165-5.002-11.156-11.167-11.146s-11.146 5.012-11.146 11.177c.01 6.154 5.012 11.146 11.177 11.136z"/>
  <path style="fill:#f24141" d="M388.676 205.292C388.511 91.752 296.337-.164 182.787 0l-28.941.051c-4.261 0-7.709 3.458-7.698 7.729l.026 16.527 12.329-.022c10.388-.015 20.594.748 30.57 2.221 1.544-4.307 5.642-7.396 10.48-7.404 6.165-.01 11.167 4.981 11.167 11.146 0 .219-.02.433-.032.649 73.261 19.051 130.645 77.493 148.158 151.389.367-.037.74-.058 1.117-.059 6.155-.01 11.156 4.981 11.167 11.136.008 5.196-3.534 9.554-8.337 10.804 1.038 8.326 1.588 16.804 1.6 25.409l.012 7.624 18.201-.026c3.376 0 6.124-2.748 6.113-6.134l-.043-25.748z"/>
  <path style="fill:#74767f" d="M285.88 205.447c.082 56.77-45.871 102.857-102.641 102.939-56.77.082-102.857-45.871-102.95-102.641-.082-56.77 45.881-102.867 102.651-102.95s102.858 45.882 102.94 102.652zm-34.241 12c6.597-.01 11.939-5.372 11.928-11.969 0-6.607-5.362-11.949-11.969-11.939-6.597.01-11.939 5.372-11.928 11.969.01 6.608 5.362 11.949 11.969 11.939zm-68.492 28.786c22.447-.031 40.612-18.258 40.581-40.694-.031-22.447-18.258-40.622-40.694-40.581-22.447.031-40.612 18.247-40.581 40.694.031 22.447 18.247 40.612 40.694 40.581zm.062 39.84c6.597-.01 11.949-5.362 11.939-11.969-.01-6.597-5.372-11.939-11.98-11.928-6.597.01-11.939 5.362-11.928 11.969.01 6.597 5.361 11.938 11.969 11.928zm-.206-137.057c6.607-.01 11.949-5.372 11.939-11.969-.01-6.597-5.372-11.949-11.969-11.939s-11.949 5.372-11.939 11.969c.01 6.608 5.372 11.95 11.969 11.939zm-68.431 68.626c6.607 0 11.949-5.362 11.939-11.969-.01-6.597-5.362-11.939-11.969-11.928-6.597.01-11.949 5.362-11.939 11.969.01 6.597 5.372 11.939 11.969 11.928z"/>
  <path style="fill:#a4a5a2" d="M57.417 158.507c-1.032 0-2.081-.208-3.088-.648-3.906-1.707-5.689-6.257-3.982-10.163 12.78-29.242 35.243-53.798 63.252-69.145 3.74-2.049 8.43-.678 10.478 3.06 2.049 3.739.678 8.43-3.06 10.478-25.03 13.715-45.104 35.658-56.525 61.788-1.265 2.9-4.1 4.63-7.075 4.63zM140.591 343.658c-.792 0-1.598-.122-2.393-.382-59.651-19.432-99.794-74.677-99.89-137.469-.006-4.263 3.444-7.724 7.708-7.73h.012c4.258 0 7.712 3.448 7.719 7.708.085 56.099 35.946 105.454 89.235 122.813 4.053 1.32 6.269 5.677 4.948 9.731-1.062 3.258-4.087 5.329-7.339 5.329zM204.431 348.721c-3.737 0-7.021-2.719-7.617-6.527-.659-4.211 2.222-8.16 6.433-8.819 38.766-6.063 72.291-29.127 91.979-63.28 2.129-3.695 6.848-4.961 10.543-2.832 3.693 2.129 4.961 6.849 2.832 10.542-22.034 38.221-59.565 64.034-102.969 70.822-.403.064-.804.094-1.201.094z"/>
  <path style="fill:#db0505" d="M349.058 167.554c-3.389 0-6.496-2.249-7.439-5.673-10.951-39.801-36.347-73.823-71.511-95.796-3.616-2.259-4.715-7.021-2.456-10.637 2.259-3.615 7.02-4.715 10.637-2.456 38.457 24.032 66.234 61.247 78.215 104.792 1.131 4.111-1.284 8.359-5.395 9.49-.684.19-1.374.28-2.051.28zM256.964 57.812c-1.113 0-2.243-.242-3.314-.752-6.46-3.077-13.2-5.755-20.034-7.959-4.057-1.308-6.285-5.658-4.977-9.716s5.656-6.284 9.716-4.977c7.481 2.412 14.861 5.345 21.935 8.714 3.848 1.834 5.482 6.44 3.648 10.289-1.322 2.777-4.09 4.401-6.974 4.401z"/>
  <path style="fill:#acd7ea" d="M347.286 449.735c-2.287 0-4.55-1.012-6.073-2.949-2.635-3.351-2.053-8.204 1.298-10.838l34.51-27.129a7.7177 7.7177 0 0 1 4.77-1.651c4.264 0 7.724 3.456 7.724 7.719 0 2.569-1.253 4.844-3.181 6.247l-34.281 26.95c-1.415 1.111-3.097 1.651-4.767 1.651zM455.113 464.872c-1.812 0-3.624-.634-5.074-1.905l-50.22-42.159a7.3332 7.3332 0 0 1-.495-.454c-3.014-3.014-3.02-7.907-.005-10.921 2.893-2.893 7.504-3.014 10.533-.359l50.221 42.159c.172.144.337.295.495.454 3.014 3.014 3.02 7.907.005 10.921-1.508 1.508-3.485 2.264-5.46 2.264z"/>
  <path style="fill:#ffc35a" d="M455.11 457.145c2.254-1.739 5.084-2.779 8.161-2.779 7.39 0 13.379 5.99 13.379 13.379s-5.99 13.379-13.379 13.379-13.379-5.99-13.379-13.379c0-4.312 2.048-8.151 5.218-10.6z"/>
  <path style="fill:#fc5151" d="M381.79 414.886c-1.194-1.997-1.883-4.333-1.883-6.834 0-7.39 5.99-13.379 13.379-13.379s13.379 5.99 13.379 13.379c0 2.501-.69 4.847-1.883 6.844-2.336 3.911-6.607 6.535-11.496 6.535s-9.17-2.624-11.496-6.545z"/>
  <path style="fill:#5fed65" d="M347.282 442.016c2.954 2.449 4.837 6.155 4.837 10.292 0 7.39-5.99 13.379-13.379 13.379s-13.379-5.99-13.379-13.379 5.99-13.379 13.379-13.379c3.252-.001 6.226 1.162 8.542 3.087z"/>
  <path style="fill:#64666d" d="M251.639 217.447c-6.607.01-11.959-5.331-11.969-11.939-.01-6.597 5.331-11.959 11.928-11.969.56-.001 1.106.05 1.647.124-5.08-29.734-28.612-53.16-58.403-58.073.059.479.099.962.1 1.456.01 6.597-5.331 11.959-11.939 11.969-6.597.01-11.959-5.331-11.969-11.939-.001-.479.035-.948.089-1.412-29.65 5.075-53.02 28.497-58.012 58.175.47-.057.946-.095 1.432-.096 6.607-.01 11.959 5.331 11.969 11.928.01 6.607-5.331 11.969-11.939 11.969-.498.001-.987-.039-1.47-.098 4.992 29.781 28.487 53.273 58.268 58.26-.077-.544-.131-1.096-.132-1.661-.01-6.607 5.331-11.959 11.928-11.969 6.607-.01 11.969 5.331 11.98 11.928.001.579-.054 1.144-.133 1.702 29.86-5.001 53.403-28.603 58.311-58.495-.551.084-1.111.139-1.686.14zm-68.492 28.786c-22.447.031-40.663-18.134-40.694-40.581-.031-22.447 18.134-40.663 40.581-40.694 22.436-.041 40.663 18.134 40.694 40.581.031 22.436-18.134 40.663-40.581 40.694z"/>
</svg>
