<svg height="608" width="600" xmlns="http://www.w3.org/2000/svg"><path d="m272 24h112v32h-112z" fill="#b4d7f0"/><path d="m272 24h32v32h-32z" fill="#82c2f0"/><path d="m384 56v40a56.017 56.017 0 0 1 -40 53.67v18.33h-32v-18.33a56.017 56.017 0 0 1 -40-53.67v-40z" fill="#e4ebf0"/><path d="m344 149.67v18.33h-32v-18.33a56.017 56.017 0 0 1 -40-53.67v-40h32v40a56.017 56.017 0 0 0 40 53.67z" fill="#82c2f0"/><path d="m360 216 16 48h-48v-48z" fill="#ffba0d"/><path d="m449.14 296 9.15 32 9.14 32 4.57 16v32h-64l-48-96h32l-16-48-16-48h112v16l-32 32z" fill="#ffd44c"/><path d="m392 232 32 96h-32l40 80h-24l-48-96h32l-32-96h112v16z" fill="#ffba0d"/><path d="m408 168h-176l-24 24 24 24h224z" fill="#ffd44c"/><path d="m456 216h-224l-24-24 16-16 24 24h192z" fill="#ffba0d"/><path d="m184 408v16h-64v-16a16 16 0 0 1 16-16h32a16 16 0 0 1 16 16z" fill="#b82514"/><path d="m232 448h32v40h-32zm-192 0h32v40h-32z" fill="#414042"/><path d="m280 392v32h-64a32 32 0 0 1 32-32zm-192 32h-64v-32h32a32 32 0 0 1 32 32z" fill="#ffd44c"/><path d="m280 424v24h-256v-24h64a32 32 0 0 0 -32-32h-32v-6.94a16 16 0 0 1 7.77-13.72l28.43-17.06a16.021 16.021 0 0 1 8.23-2.28h167.14a16.021 16.021 0 0 1 8.23 2.28l28.43 17.06a16 16 0 0 1 7.77 13.72v6.94h-32a32 32 0 0 0 -32 32zm-96 0v-16a16 16 0 0 0 -16-16h-32a16 16 0 0 0 -16 16v16z" fill="#d94736"/><path d="m80 432v-8h-56v24h256v-16zm-11.57-80a16.021 16.021 0 0 0 -8.23 2.28l-28.43 17.06a16 16 0 0 0 -7.77 13.72v6.94h32a31.931 31.931 0 0 1 24 10.84l48-50.84z" fill="#b82514"/><path d="m223.29 301.88 16.71 50.12h-176l16.71-50.12a31.984 31.984 0 0 1 30.35-21.88h81.88a31.984 31.984 0 0 1 30.35 21.88z" fill="#b4d7f0"/><path d="m240 352h-176l16.71-50.12a31.984 31.984 0 0 1 30.35-21.88h20.29a32.154 32.154 0 0 0 -2.64 5.88l-16.71 50.12h122.67z" fill="#82c2f0"/><path d="m440 272h-24v-16h20.687l27.313-27.313v-4.687h-88v-16h96a8 8 0 0 1 8 8v16a8 8 0 0 1 -2.343 5.657l-32 32a8 8 0 0 1 -5.657 2.343zm-122.343 93.657-11.314-11.314 13.657-13.656v-124.687h16v128a8 8 0 0 1 -2.343 5.657zm178.343 130.343h-24a40.045 40.045 0 0 1 -40-40v-48h16v48a24.027 24.027 0 0 0 24 24h24zm-72-208h25.14v16h-25.14zm8 32h26.29v16h-26.29zm8 32h27.43v16h-27.43zm-360-168h96v16h-96zm-32 0h16v16h-16zm-32 0h16v16h-16zm77.3211-40.4821 5.472-15.04 88.0198 32.0242-5.472 15.04zm-29.3211-15.5179h16v16h-16zm29.3451 112.5011 88.0198-32.0242 5.472 15.04-88.0198 32.0242zm-29.3451-.5011h16v16h-16zm-32-112h16v16h-16zm0 112h16v16h-16z" fill="#062d42"/></svg>