<svg xmlns="http://www.w3.org/2000/svg" height="256px" width="256px" viewBox="0 0 512 512" style="enable-background:new 0 0 512 512" xml:space="preserve">
  <path style="fill:#74767f" d="M170.323 211.912v36.129h-77.42c-6.379 0-12.294-3.375-15.546-8.867l-15.401-26.013H10.095C4.521 213.161 0 208.64 0 203.066v-15.938c0-5.574 4.521-10.095 10.095-10.095h62.163c6.379 0 12.294 3.365 15.546 8.867l15.401 26.013h67.118z"/>
  <path style="fill:#656872" d="m103.205 211.912-15.401-26.013c-3.252-5.502-9.166-8.867-15.546-8.867H10.095C4.52 177.032 0 181.553 0 187.128v8.702h59.355c6.379 0 12.294 3.365 15.546 8.867l13.436 22.693a6.7687 6.7687 0 0 0 5.823 3.32h45.928c9.572 0 17.332 7.759 17.332 17.332h12.903v-36.129l-67.118-.001z"/>
  <path style="fill:#d1d5cd" d="M342.71 170.839H203.334c-22.225 0-40.237 16.702-40.237 37.295v95.732c0 20.594 18.013 37.295 40.237 37.295h179.613V170.839H342.71z"/>
  <path style="fill:#c4c6c2" d="M192.248 322.963v-95.732c0-20.594 18.013-37.296 40.237-37.296h150.461v-19.097H203.334c-22.225 0-40.237 16.702-40.237 37.295v95.732c0 18.625 14.735 34.065 33.993 36.846-3.087-5.278-4.842-11.324-4.842-17.748z"/>
  <path style="fill:#74767f" d="M431.504 170.839h-48.557c-22.224 0-40.237 16.702-40.237 37.295v95.732c0 20.594 18.013 37.295 40.237 37.295H431.505c22.225 0 40.237-16.702 40.237-37.295V208.134c0-20.593-18.013-37.295-40.238-37.295z"/>
  <path style="fill:#6c6e75" d="M452.666 320.033H404.108c-22.225 0-40.237-16.702-40.237-37.296v-95.732c0-4.508.863-8.829 2.445-12.83-13.922 5.867-23.607 18.862-23.607 33.958v95.732c0 20.594 18.013 37.295 40.237 37.295H431.504c17.359 0 32.149-10.19 37.792-24.466-5.069 2.14-10.697 3.339-16.63 3.339z"/>
  <path style="fill:#606168" d="M396.883 323.097h-13.935c-12.226 0-22.173-8.627-22.173-19.231V256c0-4.276 3.466-7.742 7.742-7.742s7.742 3.466 7.742 7.742v47.866c0 1.287 2.604 3.747 6.689 3.747h13.935c4.276 0 7.742 3.466 7.742 7.742 0 4.275-3.467 7.742-7.742 7.742zM431.504 323.097H419.84c-4.276 0-7.742-3.466-7.742-7.742s3.466-7.742 7.742-7.742h11.664c4.276 0 7.742 3.466 7.742 7.742 0 4.275-3.466 7.742-7.742 7.742z"/>
  <path style="fill:#c4c6c1" d="M206.452 275.097h-15.484c-4.276 0-7.742-3.466-7.742-7.742s3.466-7.742 7.742-7.742h15.484c4.276 0 7.742 3.466 7.742 7.742 0 4.275-3.467 7.742-7.742 7.742zM321.032 275.097h-90.839c-4.276 0-7.742-3.466-7.742-7.742s3.466-7.742 7.742-7.742h90.839c4.276 0 7.742 3.466 7.742 7.742 0 4.275-3.466 7.742-7.742 7.742zM315.871 305.032h-15.484c-4.276 0-7.742-3.466-7.742-7.742s3.466-7.742 7.742-7.742h15.484c4.276 0 7.742 3.466 7.742 7.742s-3.466 7.742-7.742 7.742zM266.323 305.032h-70.194c-4.276 0-7.742-3.466-7.742-7.742s3.466-7.742 7.742-7.742h70.194c4.276 0 7.742 3.466 7.742 7.742s-3.467 7.742-7.742 7.742z"/>
  <path style="fill:#d1d5cd" d="M495.484 216.258H438.08c-5.357 0-9.693 3.489-9.693 7.794v30.865c0 4.305 4.336 7.794 9.693 7.794H496.516v-46.452h-1.032z"/>
  <path style="fill:#c4c6c2" d="M443.871 240.344c0-4.305 4.336-7.794 9.693-7.794h42.952v-16.292H438.08c-5.357 0-9.693 3.489-9.693 7.794v30.865c0 4.305 4.336 7.794 9.693 7.794h5.791v-22.367z"/>
  <path style="fill:#74767f" d="M512 231.742v15.484c0 8.547-6.937 15.484-15.484 15.484-.351 0-.692-.01-1.032-.041-8.072-.526-14.452-7.246-14.452-15.443v-15.484c0-8.196 6.379-14.916 14.452-15.443.341-.031.681-.041 1.032-.041 4.274 0 8.145 1.734 10.942 4.542 2.808 2.797 4.542 6.668 4.542 10.942z"/>
  <path style="fill:#656872" d="M488.73 258.063V242.58c0-8.196 6.379-14.916 14.452-15.443.341-.031.681-.041 1.032-.041 2.739 0 5.308.719 7.54 1.97-.559-3.2-2.088-6.067-4.295-8.265-2.797-2.808-6.668-4.542-10.942-4.542-.351 0-.692.01-1.032.041-8.072.526-14.452 7.246-14.452 15.443v15.484c0 5.803 3.206 10.854 7.939 13.503-.152-.869-.242-1.757-.242-2.667z"/>
</svg>
