<?xml version="1.0" encoding="utf-8"?>
<!-- Generator: Adobe Illustrator 25.4.1, SVG Export Plug-In . SVG Version: 6.00 Build 0)  -->
<svg version="1.1" id="Layer_1" xmlns="http://www.w3.org/2000/svg" xmlns:xlink="http://www.w3.org/1999/xlink" x="0px" y="0px"
	 viewBox="0 0 493 142" style="enable-background:new 0 0 493 142;" xml:space="preserve">
<style type="text/css">
	.st0{clip-path:url(#SVGID_00000080181083821917926690000002718336907069403016_);}
	.st1{clip-path:url(#SVGID_00000075869215616372868050000010809584533424535202_);fill:#EA5C3C;}
	.st2{clip-path:url(#SVGID_00000075869215616372868050000010809584533424535202_);fill:#242542;}
	.st3{clip-path:url(#SVGID_00000075869215616372868050000010809584533424535202_);fill:#000543;}
	.st4{clip-path:url(#SVGID_00000075869215616372868050000010809584533424535202_);fill:#3D4D9B;}
	.st5{clip-path:url(#SVGID_00000075869215616372868050000010809584533424535202_);fill:#D3442D;}
	.st6{clip-path:url(#SVGID_00000075869215616372868050000010809584533424535202_);fill:#4D4E6E;}
	.st7{clip-path:url(#SVGID_00000075869215616372868050000010809584533424535202_);fill:#9897B6;}
	.st8{clip-path:url(#SVGID_00000075869215616372868050000010809584533424535202_);fill:#FFFFFF;}
	.st9{clip-path:url(#SVGID_00000075869215616372868050000010809584533424535202_);fill:#BEBED3;}
</style>
<g id="Vector_Smart_Object_00000115476440860570653490000004559336664177085599_">
	<g>
		<defs>
			<rect id="SVGID_1_" x="60.8" y="19.18" width="371.4" height="103.65"/>
		</defs>
		<clipPath id="SVGID_00000158720690155887326530000002591474577496961165_">
			<use xlink:href="#SVGID_1_"  style="overflow:visible;"/>
		</clipPath>
		<g style="clip-path:url(#SVGID_00000158720690155887326530000002591474577496961165_);">
			<defs>
				<rect id="SVGID_00000121276298108661723490000005834870378228267424_" x="60.8" y="19.18" width="371.4" height="103.65"/>
			</defs>
			<clipPath id="SVGID_00000182489977980685288530000006074094725972494218_">
				<use xlink:href="#SVGID_00000121276298108661723490000005834870378228267424_"  style="overflow:visible;"/>
			</clipPath>
			<path style="clip-path:url(#SVGID_00000182489977980685288530000006074094725972494218_);fill:#EA5C3C;" d="M63.13,104.35h20.02
				V87.91H62.95c-1.16,0-2.11,0.96-2.11,2.14v11.98C60.84,103.31,61.86,104.35,63.13,104.35"/>
			<path style="clip-path:url(#SVGID_00000182489977980685288530000006074094725972494218_);fill:#242542;" d="M73.56,97.32h181.62
				v12.63H73.56c-3.43,0-6.23-2.84-6.23-6.32S70.13,97.32,73.56,97.32"/>
			<path style="clip-path:url(#SVGID_00000182489977980685288530000006074094725972494218_);fill:#242542;" d="M252.79,97.32h169.26
				c3.43,0,6.23,2.84,6.23,6.32s-2.8,6.32-6.23,6.32H252.79V97.32z"/>
			<path style="clip-path:url(#SVGID_00000182489977980685288530000006074094725972494218_);fill:#EA5C3C;" d="M62.33,96.03
				l4.35-12.41c3.47-9.9,12.05-17.04,22.3-18.56l61.88-9.19c5.77-0.86,11.33-2.82,16.37-5.78l39.78-20.63
				c11.49-6.74,24.53-10.29,37.81-10.29h46.37c22.26,0,45.22,18.71,59.15,26.79c4.19,2.43,8.84,3.94,13.64,4.46l45.44,4.84
				c6.68,0.55,12.28,5.35,13.92,11.95l7.69,30.98c0.56,2.27-1.13,4.86-3.44,4.87H255.18v0.86H68.13
				C63.89,103.94,60.91,100.08,62.33,96.03"/>
			<path style="clip-path:url(#SVGID_00000182489977980685288530000006074094725972494218_);fill:#000543;" d="M328.78,54.96H176.34
				c-3.09,0-4.07-4.22-1.31-5.62l30.96-15.73c13.58-7.81,24.35-10.96,37.53-10.96h46.02c13.57,0,27.4,7.51,39.25,15.31V54.96z"/>
			<path style="clip-path:url(#SVGID_00000182489977980685288530000006074094725972494218_);fill:#000543;" d="M331.22,39.58
				c3.52,2.37,6.84,4.73,9.91,6.85c1.25,0.87,2,2.31,2,3.85c0,2.58-2.07,4.68-4.61,4.68h-7.29V39.58z"/>
			
				<rect x="259.31" y="22.65" style="clip-path:url(#SVGID_00000182489977980685288530000006074094725972494218_);fill:#3D4D9B;" width="0.81" height="32.31"/>
			
				<rect x="129.66" y="59.44" style="clip-path:url(#SVGID_00000182489977980685288530000006074094725972494218_);fill:#D3442D;" width="289.13" height="0.82"/>
			<path style="clip-path:url(#SVGID_00000182489977980685288530000006074094725972494218_);fill:#EA5C3C;" d="M429.91,102.75
				h-20.02V86.32h20.21c1.16,0,2.11,0.96,2.11,2.14v11.98C432.2,101.72,431.17,102.75,429.91,102.75"/>
			<path style="clip-path:url(#SVGID_00000182489977980685288530000006074094725972494218_);fill:#D3442D;" d="M172.82,49.62h8.53
				c1.93,0,3.5,1.59,3.5,3.54v6.52c0,1.96-1.57,3.54-3.5,3.54h-8.84c-3.92,0-7.08-3.45-6.68-7.5
				C166.18,52.2,169.32,49.62,172.82,49.62"/>
			<path style="clip-path:url(#SVGID_00000182489977980685288530000006074094725972494218_);fill:#D3442D;" d="M303,101.19H175.97
				c-5.33,0-9.66-4.75-9.66-10.6V54.96h0.81v35.63c0,5.39,3.97,9.78,8.85,9.78H303c4.01,0,7.54-2.91,8.79-7.23
				c2.68-9.26,9.49-15.06,13.31-17.69c1.57-1.08,2.51-2.97,2.51-5.06V54.96h0.81v15.43c0,2.36-1.07,4.5-2.86,5.74
				c-3.73,2.57-10.38,8.23-12.99,17.24C311.21,98.04,307.37,101.19,303,101.19"/>
			
				<rect x="259.31" y="54.96" style="clip-path:url(#SVGID_00000182489977980685288530000006074094725972494218_);fill:#D3442D;" width="0.81" height="45.82"/>
			<path style="clip-path:url(#SVGID_00000182489977980685288530000006074094725972494218_);fill:#D3442D;" d="M383.6,73.44h-17.56
				c-0.62,0-1.12-0.51-1.12-1.13v-7.25c0-0.62,0.5-1.13,1.12-1.13h17.56c0.62,0,1.12,0.51,1.12,1.13v7.25
				C384.72,72.93,384.22,73.44,383.6,73.44 M366.04,64.74c-0.17,0-0.31,0.14-0.31,0.31v7.25c0,0.17,0.14,0.31,0.31,0.31h17.56
				c0.17,0,0.31-0.14,0.31-0.31v-7.25c0-0.17-0.14-0.31-0.31-0.31H366.04z"/>
			
				<rect x="374.03" y="85.91" style="clip-path:url(#SVGID_00000182489977980685288530000006074094725972494218_);fill:#D3442D;" width="54.05" height="0.82"/>
			<path style="clip-path:url(#SVGID_00000182489977980685288530000006074094725972494218_);fill:#4D4E6E;" d="M156.06,104.29
				c0.27-1.49,0.42-3.02,0.42-4.59c0-13.83-11.06-25.04-24.7-25.04c-13.64,0-24.7,11.21-24.7,25.04c0,1.57,0.15,3.1,0.42,4.59
				H156.06z"/>
			<path style="clip-path:url(#SVGID_00000182489977980685288530000006074094725972494218_);fill:#242542;" d="M154.13,100.16
				c0,12.51-10.01,22.66-22.35,22.66c-12.34,0-22.35-10.14-22.35-22.66s10.01-22.66,22.35-22.66
				C144.12,77.51,154.13,87.65,154.13,100.16"/>
			<path style="clip-path:url(#SVGID_00000182489977980685288530000006074094725972494218_);fill:#9897B6;" d="M149.03,100.16
				c0,9.66-7.72,17.49-17.25,17.49s-17.25-7.83-17.25-17.49s7.72-17.49,17.25-17.49S149.03,90.51,149.03,100.16"/>
			<path style="clip-path:url(#SVGID_00000182489977980685288530000006074094725972494218_);fill:#242542;" d="M131.43,96.77
				c0,0.28,0.22,0.51,0.49,0.51c0.27,0,0.49-0.23,0.49-0.51c0-0.28-0.22-0.5-0.49-0.5C131.65,96.27,131.43,96.5,131.43,96.77"/>
			<path style="clip-path:url(#SVGID_00000182489977980685288530000006074094725972494218_);fill:#242542;" d="M133.16,97.07
				c-0.13,0.24-0.06,0.55,0.18,0.69c0.24,0.14,0.54,0.06,0.67-0.18c0.13-0.24,0.06-0.56-0.18-0.69
				C133.6,96.75,133.3,96.83,133.16,97.07"/>
			<path style="clip-path:url(#SVGID_00000182489977980685288530000006074094725972494218_);fill:#242542;" d="M134.52,98.22
				c-0.23,0.14-0.31,0.45-0.18,0.69c0.14,0.24,0.44,0.32,0.67,0.19c0.23-0.14,0.31-0.45,0.18-0.69
				C135.06,98.16,134.76,98.08,134.52,98.22"/>
			<path style="clip-path:url(#SVGID_00000182489977980685288530000006074094725972494218_);fill:#242542;" d="M135.14,99.92
				c-0.27,0-0.49,0.23-0.49,0.51c0,0.28,0.22,0.51,0.49,0.51c0.27,0,0.49-0.23,0.49-0.51C135.64,100.15,135.41,99.92,135.14,99.92"
				/>
			<path style="clip-path:url(#SVGID_00000182489977980685288530000006074094725972494218_);fill:#242542;" d="M134.86,101.71
				c-0.24-0.14-0.54-0.06-0.67,0.18c-0.13,0.24-0.06,0.55,0.18,0.69c0.23,0.14,0.54,0.06,0.67-0.19
				C135.17,102.16,135.09,101.85,134.86,101.71"/>
			<path style="clip-path:url(#SVGID_00000182489977980685288530000006074094725972494218_);fill:#242542;" d="M133.74,103.11
				c-0.13-0.24-0.43-0.32-0.67-0.18c-0.23,0.14-0.32,0.45-0.18,0.69c0.13,0.24,0.43,0.32,0.67,0.18
				C133.8,103.66,133.88,103.35,133.74,103.11"/>
			<path style="clip-path:url(#SVGID_00000182489977980685288530000006074094725972494218_);fill:#242542;" d="M132.1,103.75
				c0-0.28-0.22-0.51-0.49-0.51c-0.27,0-0.49,0.22-0.49,0.51c0,0.28,0.22,0.51,0.49,0.51C131.88,104.26,132.1,104.03,132.1,103.75"
				/>
			<path style="clip-path:url(#SVGID_00000182489977980685288530000006074094725972494218_);fill:#242542;" d="M130.36,103.46
				c0.14-0.24,0.06-0.55-0.18-0.69c-0.24-0.14-0.54-0.06-0.67,0.19c-0.13,0.24-0.05,0.55,0.18,0.69
				C129.93,103.78,130.23,103.7,130.36,103.46"/>
			<path style="clip-path:url(#SVGID_00000182489977980685288530000006074094725972494218_);fill:#242542;" d="M129.01,102.3
				c0.23-0.14,0.31-0.45,0.18-0.69c-0.14-0.24-0.44-0.33-0.68-0.18c-0.24,0.14-0.31,0.45-0.18,0.69
				C128.47,102.36,128.77,102.44,129.01,102.3"/>
			<path style="clip-path:url(#SVGID_00000182489977980685288530000006074094725972494218_);fill:#242542;" d="M128.39,100.61
				c0.27,0,0.49-0.23,0.49-0.51c0-0.28-0.22-0.51-0.49-0.51c-0.27,0-0.49,0.23-0.49,0.51C127.9,100.38,128.12,100.61,128.39,100.61"
				/>
			<path style="clip-path:url(#SVGID_00000182489977980685288530000006074094725972494218_);fill:#242542;" d="M128.67,98.82
				c0.24,0.14,0.53,0.05,0.67-0.19c0.13-0.24,0.05-0.55-0.18-0.69c-0.23-0.14-0.54-0.06-0.67,0.19
				C128.36,98.37,128.44,98.68,128.67,98.82"/>
			<path style="clip-path:url(#SVGID_00000182489977980685288530000006074094725972494218_);fill:#242542;" d="M129.78,97.42
				c0.14,0.24,0.44,0.32,0.67,0.18c0.24-0.14,0.31-0.45,0.18-0.69c-0.13-0.24-0.43-0.33-0.66-0.18
				C129.73,96.86,129.65,97.17,129.78,97.42"/>
			<path style="clip-path:url(#SVGID_00000182489977980685288530000006074094725972494218_);fill:#4D4E6E;" d="M384.13,105.54
				c0,1.56-0.15,3.1-0.42,4.58h-48.57c-0.27-1.48-0.42-3.02-0.42-4.58c0-12.59,9.16-23,21.08-24.78c1.18-0.18,2.39-0.27,3.62-0.27
				c1.02,0,2.03,0.07,3.01,0.19C374.66,82.19,384.13,92.74,384.13,105.54"/>
			<path style="clip-path:url(#SVGID_00000182489977980685288530000006074094725972494218_);fill:#FFFFFF;" d="M71.77,74.66
				c5.92,0.93,10.19,3.55,10.19,6.64c0,3.87-6.69,7.01-14.94,7.01c-0.75,0-1.49-0.03-2.21-0.08l1.48-4.21
				C67.52,80.5,69.41,77.35,71.77,74.66"/>
			<path style="clip-path:url(#SVGID_00000182489977980685288530000006074094725972494218_);fill:#FFFFFF;" d="M60.8,92.08
				c0.02,0,0.03,0,0.04,0c2.32,0,4.2,1.9,4.2,4.25c0,2.35-1.88,4.25-4.2,4.25c-0.02,0-0.03,0-0.04,0V92.08z"/>
			<path style="clip-path:url(#SVGID_00000182489977980685288530000006074094725972494218_);fill:#D3442D;" d="M109.74,88.32H62.95
				c-0.22,0-0.4-0.18-0.4-0.41c0-0.23,0.18-0.41,0.4-0.41h46.79c0.22,0,0.4,0.18,0.4,0.41C110.15,88.14,109.96,88.32,109.74,88.32"
				/>
			
				<rect x="357.54" y="95.91" style="clip-path:url(#SVGID_00000182489977980685288530000006074094725972494218_);fill:#242542;" width="2.94" height="9.52"/>
			<path style="clip-path:url(#SVGID_00000182489977980685288530000006074094725972494218_);fill:#9897B6;" d="M362.44,80.68v15.4
				c0,1.27-1.03,2.3-2.3,2.3h-2.03c-1.27,0-2.3-1.03-2.3-2.3V80.76c1.18-0.18,2.39-0.27,3.62-0.27
				C360.45,80.49,361.46,80.56,362.44,80.68"/>
			<path style="clip-path:url(#SVGID_00000182489977980685288530000006074094725972494218_);fill:#BEBED3;" d="M348.97,109.38
				c0,5.54,4.49,10.04,10.04,10.04s10.04-4.49,10.04-10.04s-4.49-10.04-10.04-10.04S348.97,103.83,348.97,109.38"/>
			<path style="clip-path:url(#SVGID_00000182489977980685288530000006074094725972494218_);fill:#9897B6;" d="M354.76,109.38
				c0,2.26,1.84,4.1,4.1,4.1c2.26,0,4.1-1.83,4.1-4.1c0-2.26-1.84-4.1-4.1-4.1C356.6,105.28,354.76,107.11,354.76,109.38"/>
			<path style="clip-path:url(#SVGID_00000182489977980685288530000006074094725972494218_);fill:#9897B6;" d="M364.15,98.94
				c3.92,1.46,6.55,5.23,6.53,9.43c0,0.78-0.73,1.37-1.51,1.23l-2.03-0.35c-0.6-0.1-1.02-0.62-1.05-1.22
				c-0.12-2.03-1.36-3.83-3.21-4.65c-0.54-0.24-0.87-0.81-0.77-1.39l0.36-2.04C362.6,99.16,363.41,98.67,364.15,98.94"/>
			<path style="clip-path:url(#SVGID_00000182489977980685288530000006074094725972494218_);fill:#BEBED3;" d="M367.48,107.27
				c0,0.47,0.38,0.86,0.86,0.86c0.47,0,0.86-0.38,0.86-0.86c0-0.47-0.38-0.86-0.86-0.86C367.87,106.41,367.48,106.8,367.48,107.27"
				/>
			<path style="clip-path:url(#SVGID_00000182489977980685288530000006074094725972494218_);fill:#BEBED3;" d="M363.36,101.53
				c0,0.47,0.38,0.86,0.86,0.86c0.47,0,0.86-0.38,0.86-0.86c0-0.47-0.38-0.86-0.86-0.86C363.74,100.67,363.36,101.06,363.36,101.53"
				/>
		</g>
	</g>
</g>
</svg>
