<?xml version="1.0" encoding="utf-8"?>
<!-- Generator: Adobe Illustrator 25.4.1, SVG Export Plug-In . SVG Version: 6.00 Build 0)  -->
<svg version="1.1" id="Layer_1" xmlns="http://www.w3.org/2000/svg" xmlns:xlink="http://www.w3.org/1999/xlink" x="0px" y="0px"
	 viewBox="0 0 499.6 311.8" style="enable-background:new 0 0 499.6 311.8;" xml:space="preserve">
<style type="text/css">
	.st0{fill:#FFFFFF;}
	.st1{fill:none;}
	.st2{fill:#4487F2;}
	.st3{fill:#70A5F2;}
	.st4{fill:#9DC9FC;}
	.st5{fill:#346EE3;}
	.st6{fill:#EEF5FA;}
	.st7{fill:#F67B55;}
	.st8{fill:#F6AD55;}
	.st9{fill:#F1F2F2;}
	.st10{fill:#2D61B3;}
	.st11{fill:#244F99;}
	.st12{fill:#254799;}
	.st13{fill:#1F3B80;}
	.st14{fill:#F5AC7F;}
	.st15{fill:#F53B4A;}
	.st16{opacity:0.2;fill:#F5AC7F;enable-background:new    ;}
	.st17{fill:#F69255;}
	.st18{fill:none;stroke:#9DC9FC;stroke-width:0.5355;stroke-miterlimit:10;}
	.st19{fill:none;stroke:#9DC9FC;stroke-width:0.4933;stroke-miterlimit:10;}
	.st20{fill:#F39669;}
	.st21{font-family:'MarkerFelt-Wide';}
	.st22{font-size:32.2048px;}
	.st23{fill:#F69555;}
	.st24{fill:none;stroke:#F7941D;stroke-width:3;stroke-miterlimit:10;}
	.st25{font-family:'MarkerFelt-Thin';}
	.st26{font-size:14.0953px;}
	.st27{fill:#00B67A;}
	.st28{fill:#D10028;}
	.st29{fill:#B7022D;}
	.st30{fill:#FFA91A;}
	.st31{fill:#FFC91D;}
	.st32{fill:#F79219;}
	.st33{fill:#EF7816;}
	.st34{fill:#137ED9;}
	.st35{fill:#CFD3DF;}
	.st36{fill:#9EA6BF;}
	.st37{font-size:9.1785px;}
</style>
<path class="st0" d="M449.7,300.9H42.3c-14.4,0-26.1-11.7-26.1-26.1V40.1C16.1,25.6,27.8,14,42.3,14h407.4
	c14.4,0,26.1,11.7,26.1,26.1v234.5C475.8,289.2,464.2,300.9,449.7,300.9z"/>
<rect x="32.3" y="135.7" class="st1" width="1.3" height="93.6"/>
<rect x="32.2" y="205.7" class="st0" width="1.7" height="0.5"/>
<rect x="32.2" y="182.2" class="st0" width="1.7" height="0.5"/>
<rect x="32.2" y="152.8" class="st0" width="1.7" height="0.4"/>
<path class="st0" d="M31.1,265.5h3.2v0.7h-4.1l-0.1-6.6H31L31.1,265.5z"/>
<path class="st0" d="M37.2,266.3c-0.7,0-1.3-0.2-1.7-0.6c-0.4-0.5-0.6-1-0.6-1.7v-0.2c0-0.7,0.2-1.3,0.6-1.7
	c0.4-0.5,0.9-0.7,1.5-0.7c0.6,0,1.2,0.2,1.5,0.6c0.4,0.4,0.5,0.9,0.6,1.7v0.5h-3.1l0,0c0,0.5,0.1,0.9,0.4,1.2c0.2,0.3,0.6,0.5,1,0.5
	c0.3,0,0.6-0.1,0.8-0.1c0.2-0.1,0.5-0.2,0.6-0.4l0.4,0.6c-0.2,0.2-0.4,0.3-0.7,0.5C38,266.2,37.6,266.3,37.2,266.3z M37,261.8
	c-0.3,0-0.6,0.1-0.7,0.4c-0.2,0.3-0.4,0.6-0.4,0.9l0,0h2.2V263c0-0.4-0.1-0.6-0.3-0.9C37.7,262,37.4,261.8,37,261.8z"/>
<path class="st0" d="M43.1,266.2c0-0.2-0.1-0.3-0.1-0.4s0-0.2,0-0.4c-0.2,0.3-0.4,0.5-0.6,0.6c-0.3,0.2-0.6,0.3-0.8,0.3
	c-0.6,0-0.9-0.1-1.2-0.4c-0.3-0.3-0.4-0.6-0.5-1.1c0-0.5,0.2-0.8,0.6-1.1c0.4-0.3,0.9-0.4,1.6-0.4h1v-0.5c0-0.3-0.1-0.6-0.3-0.6
	c-0.2-0.2-0.5-0.3-0.7-0.3s-0.6,0.1-0.7,0.2c-0.2,0.2-0.3,0.4-0.3,0.6h-0.8l0,0c0-0.4,0.2-0.6,0.5-1c0.4-0.3,0.8-0.5,1.4-0.5
	s1,0.1,1.4,0.4c0.4,0.3,0.6,0.6,0.6,1.2v2.4c0,0.2,0,0.4,0,0.6c0,0.2,0.1,0.4,0.1,0.5L43.1,266.2z M41.6,265.5
	c0.4,0,0.6-0.1,0.9-0.3c0.3-0.2,0.5-0.4,0.6-0.6v-0.8h-1c-0.4,0-0.6,0.1-0.8,0.3c-0.2,0.2-0.4,0.4-0.3,0.6c0,0.2,0.1,0.4,0.2,0.6
	C41.2,265.4,41.4,265.5,41.6,265.5z"/>
<path class="st0" d="M47.5,261.9h-0.5c-0.3,0-0.5,0.1-0.6,0.2c-0.2,0.1-0.3,0.3-0.4,0.5v3.5h-0.9v-5H46l0.1,0.7
	c0.1-0.3,0.3-0.5,0.6-0.6c0.2-0.2,0.5-0.2,0.7-0.2c0.1,0,0.1,0,0.2,0c0.1,0,0.1,0,0.2,0L47.5,261.9z"/>
<path class="st0" d="M49.3,261.1l0.1,0.7c0.2-0.3,0.4-0.5,0.6-0.6c0.3-0.2,0.6-0.2,0.8-0.2c0.6,0,0.9,0.2,1.2,0.5
	c0.3,0.3,0.5,0.8,0.5,1.5v3.1h-0.9v-3.1c0-0.5-0.1-0.7-0.3-0.9c-0.2-0.2-0.5-0.3-0.8-0.3c-0.3,0-0.6,0.1-0.7,0.2s-0.4,0.3-0.5,0.5
	v3.7h-0.9v-5H49.3z"/>
<path class="st0" d="M56.9,261.1l0.1,0.6c0.2-0.3,0.4-0.5,0.6-0.6c0.3-0.1,0.6-0.2,0.8-0.2c0.4,0,0.6,0.1,0.8,0.2
	c0.3,0.2,0.5,0.4,0.6,0.6c0.2-0.3,0.4-0.6,0.6-0.6c0.3-0.2,0.6-0.3,0.9-0.3c0.5,0,0.9,0.2,1.2,0.5c0.3,0.4,0.5,0.8,0.5,1.6v2.9h-0.9
	v-2.9c0-0.5-0.1-0.8-0.3-1s-0.5-0.3-0.7-0.3c-0.3,0-0.6,0.1-0.7,0.4c-0.2,0.2-0.3,0.5-0.4,0.8l0,0v3.1h-0.9V263c0-0.5-0.1-0.8-0.3-1
	c-0.2-0.2-0.5-0.3-0.7-0.3c-0.3,0-0.5,0.1-0.6,0.2s-0.3,0.3-0.4,0.5v3.7h-0.9v-5L56.9,261.1z"/>
<path class="st0" d="M64.1,263.4c0-0.7,0.2-1.3,0.6-1.8c0.4-0.5,0.9-0.7,1.6-0.7s1.2,0.2,1.7,0.7c0.4,0.5,0.6,1.1,0.6,1.8v0.1
	c0,0.7-0.2,1.4-0.6,1.8c-0.4,0.5-0.9,0.7-1.6,0.7s-1.2-0.2-1.7-0.6c-0.4-0.5-0.6-1.1-0.6-1.8V263.4z M65,263.5
	c0,0.6,0.1,0.9,0.4,1.3c0.2,0.4,0.6,0.5,1,0.5s0.7-0.2,1-0.6c0.2-0.4,0.4-0.7,0.3-1.3v-0.1c0-0.6-0.1-0.9-0.4-1.3
	c-0.2-0.4-0.6-0.6-1-0.5c-0.5,0-0.7,0.2-1,0.6C65.1,262.5,64.9,262.9,65,263.5L65,263.5z"/>
<path class="st0" d="M71.9,261.8h-0.5c-0.3,0-0.5,0.1-0.6,0.2s-0.3,0.3-0.4,0.5v3.5h-0.9v-5h0.8l0.1,0.7c0.1-0.3,0.3-0.5,0.6-0.6
	c0.2-0.2,0.5-0.2,0.7-0.2c0.1,0,0.1,0,0.2,0c0.1,0,0.1,0,0.2,0L71.9,261.8z"/>
<path class="st0" d="M74.9,265.9c-0.7,0-1.3-0.2-1.7-0.6c-0.4-0.5-0.6-1-0.6-1.7v-0.2c0-0.7,0.2-1.3,0.6-1.7
	c0.4-0.5,0.9-0.7,1.5-0.7c0.6,0,1.2,0.2,1.5,0.6c0.4,0.4,0.5,0.9,0.6,1.7v0.5h-3.1l0,0c0,0.5,0.1,0.9,0.4,1.2c0.2,0.3,0.6,0.5,1,0.5
	c0.3,0,0.6-0.1,0.8-0.1c0.2-0.1,0.5-0.2,0.6-0.4l0.4,0.6c-0.2,0.2-0.4,0.3-0.7,0.5C75.6,265.9,75.2,265.9,74.9,265.9z M74.7,261.6
	c-0.3,0-0.6,0.1-0.7,0.4s-0.4,0.6-0.4,0.9l0,0h2.2v-0.1c0-0.4-0.1-0.6-0.3-0.9C75.3,261.7,75,261.6,74.7,261.6z"/>
<path class="st2" d="M312.2,87.3l-9,4.5l-4.5,10l4.5,5.5l2.7,1.4l8.6-7l0.5-13.2L312.2,87.3z M307.7,100.8c-1.8,0.9-3.4,0.2-3.4-1.7
	c0-1.8,1.6-4.1,3.4-5.2c1.8-0.9,3.4-0.2,3.4,1.7C311.1,97.6,309.7,99.8,307.7,100.8z"/>
<path class="st3" d="M315,88.7l-9,4.5l-4.6,10l4.5,5.5l9-4.5l4.5-10L315,88.7z M310.5,102.1c-1.8,0.9-3.4,0.2-3.4-1.7
	c0-1.8,1.6-4.1,3.4-5.2c1.8-0.9,3.4-0.2,3.4,1.7C313.9,98.9,312.3,101.2,310.5,102.1z"/>
<polygon class="st4" points="303.2,91.8 305.9,93.2 315,88.7 312.2,87.3 "/>
<polygon class="st5" points="298.7,101.9 301.4,103.2 305.9,108.8 303.2,107.4 "/>
<g>
	<path class="st6" d="M235.9,227.2c0,0.2,0.2,0.3,0.4,0.2c0.2-0.1,0.4-0.4,0.4-0.6c0-0.2-0.2-0.3-0.4-0.2S235.9,227,235.9,227.2z"/>
	<path class="st5" d="M236.2,227.3c0.2-0.1,0.4-0.4,0.4-0.6c0-0.1,0-0.1,0-0.1c0.1,0,0.1,0.1,0.1,0.3s-0.2,0.5-0.4,0.6
		c-0.2,0.1-0.3,0.1-0.4-0.1C236,227.3,236.1,227.3,236.2,227.3z"/>
</g>
<g>
	<path class="st6" d="M235.9,228.5c0,0.2,0.2,0.3,0.4,0.2c0.2-0.1,0.4-0.4,0.4-0.6c0-0.2-0.2-0.3-0.4-0.2
		C236.1,228,235.9,228.3,235.9,228.5z"/>
	<path class="st5" d="M236.2,228.6c0.2-0.1,0.4-0.4,0.4-0.6c0-0.1,0-0.1,0-0.1c0.1,0,0.1,0.1,0.1,0.3c0,0.2-0.2,0.5-0.4,0.6
		c-0.2,0.1-0.3,0.1-0.4-0.1C236,228.7,236.1,228.7,236.2,228.6z"/>
</g>
<g>
	<path class="st6" d="M235.9,229.8c0,0.2,0.2,0.3,0.4,0.2c0.2-0.1,0.4-0.4,0.4-0.6c0-0.2-0.2-0.3-0.4-0.2
		C236.1,229.4,235.9,229.6,235.9,229.8z"/>
	<path class="st5" d="M236.2,229.9c0.2-0.1,0.4-0.4,0.4-0.6c0-0.1,0-0.1,0-0.1c0.1,0,0.1,0.1,0.1,0.3s-0.2,0.5-0.4,0.6
		c-0.2,0.1-0.3,0.1-0.4-0.1C236,230,236.1,230,236.2,229.9z"/>
</g>
<g>
	<polygon class="st7" points="236.5,231 217.6,240.5 198.5,231 198.5,229.7 236.5,229.7 	"/>
	<polygon class="st8" points="236.5,229.7 217.6,239.3 198.5,229.7 217.6,220.3 	"/>
</g>
<g>
	<path class="st9" d="M220.1,208.4h-5l-6.6,20.5c0,1.2,0.9,2.3,2.7,3.2c3.6,1.7,9.3,1.7,12.9,0c1.7-0.9,2.7-2,2.7-3.2L220.1,208.4z"
		/>
	<path class="st8" d="M220.1,208.4h-5l-3.6,11.1c0.1,0.7,0.6,1.5,1.7,2c2.4,1.2,6.3,1.2,8.6,0c1.1-0.6,1.7-1.3,1.7-2L220.1,208.4z"
		/>
	<path class="st9" d="M221.5,212.9c-0.1,0.5-0.5,0.8-1.1,1.2c-1.6,0.8-4.1,0.8-5.7,0c-0.6-0.4-1-0.7-1.1-1.2l-2.1,6.6
		c0.1,0.7,0.6,1.5,1.7,2c2.4,1.2,6.3,1.2,8.6,0c1.1-0.6,1.7-1.3,1.7-2L221.5,212.9z"/>
	<path class="st8" d="M222.5,216.1c-0.1,0.6-0.6,1.1-1.4,1.5c-1.9,1-5.2,1-7.2,0c-0.8-0.5-1.3-0.9-1.4-1.5l-1.1,3.4
		c0.1,0.7,0.6,1.5,1.7,2c2.4,1.2,6.3,1.2,8.6,0c1.1-0.6,1.7-1.3,1.7-2L222.5,216.1z"/>
	<path class="st8" d="M224.7,222.6c0,0.9-0.7,1.7-2.1,2.4c-2.8,1.4-7.3,1.4-10,0c-1.4-0.6-2-1.6-2.1-2.4l-2,6.2
		c0,1.2,0.9,2.3,2.7,3.2c3.6,1.7,9.3,1.7,12.9,0c1.7-0.9,2.7-2,2.7-3.2L224.7,222.6z"/>
	<path class="st9" d="M225.8,226.1c-0.1,1-0.8,2-2.4,2.8c-3.2,1.6-8.5,1.6-11.7,0c-1.6-0.7-2.3-1.7-2.4-2.8l-0.9,2.8
		c0,1.2,0.9,2.3,2.7,3.2c3.6,1.7,9.3,1.7,12.9,0c1.7-0.9,2.7-2,2.7-3.2L225.8,226.1z"/>
	<path class="st9" d="M219.3,207.5c1,0.5,1,1.3,0,1.7c-1,0.5-2.6,0.5-3.5,0c-1-0.5-1-1.3,0-1.7C216.7,207,218.3,207,219.3,207.5z"/>
</g>
<g>
	<path class="st10" d="M385.3,202.9v-5.4l-5.1,1c0,0-4.8,0.2-2.3-2.5V193c-3.5,1.5-4.4,3.3-10.5,2.9l-0.3-2c-1.5-0.1-2.9-0.1-4.3,0
		c-0.5,3,0.8,1.5-4.8,2.6l-6-3.5v2.9c2.2,2.3,2.1,1.5,0,2.6s-2.8,0-7.4-1.1v5.8c-0.6-0.1-1.1-0.1-1.9-0.1c-0.1,0.7-0.2,5.2,0,6
		l1.9,0.1v3.5c0.6,0.6,1.3,1.3,2.2,1.8c2.4-0.6,3.1-0.8,3.5-0.8c0.6,0.1,1.7,0.5,1.7,0.5v2.9c1.2,0.5,2.5,0.8,3.8,1.1
		c1.6-1.1,1.8-1.5,2.2-1.6c0.6-0.1,1.2,0.3,4.5,0.6l0.3,2c1.5,0.1,2.9,0.1,4.3,0c0.2-1.3,0.1-1.7,0.4-1.9c0.4-0.2,1.3,0,4.5-0.6
		l2.3,1.7c1.3-0.3,2.6-0.6,3.8-1.1l0.1-2.6c1.1-0.6,1.2-0.8,1.7-0.8c0.5,0,1.2,0.3,3.5,0.8c0.8-0.6,1.6-1.2,2.2-1.8v-3.5
		c0.5,0,1.1,0,1.9-0.1v-6L385.3,202.9z M355.4,207.4c2.2-2.9,9.8-4.9,16-2.2c1.3,0.6,2.2,1.3,2.8,1.9
		C378.3,211.8,354.3,208.9,355.4,207.4z"/>
	<path class="st11" d="M375.1,196.1l-5.1-0.2c-0.7,0-1.6,0-2.6,0v-0.1l-4.8-0.2c-0.2,0.6-0.7,0.1-4.6,0.9l-1.4-0.8l-3.9,5.1l2.7,9.9
		c2.2-2.9,9.8-4.9,16-2.2c1.3,0.6,2.2,1.3,2.8,1.9c0.1,0.1,0.1,0.2,0.2,0.2l3.7-8L375.1,196.1z"/>
	<polygon class="st11" points="346.8,208.6 346.8,214.5 350.3,213.7 350.3,207.7 	"/>
	<polygon class="st11" points="355.7,212.2 355.7,218.2 358,216.6 358,210.6 	"/>
	<polygon class="st11" points="367.1,219.2 367.1,213.2 367.4,211.3 367.5,217.2 	"/>
	<polygon class="st11" points="372,210.6 374.2,212.2 374.2,218.2 372,216.6 	"/>
	<polygon class="st11" points="379.5,207.7 379.5,213.7 383.1,214.5 383.1,208.6 	"/>
	<polygon class="st11" points="383.3,203.3 383.3,206 385.3,206.6 385.3,209.1 387.2,209.1 387.2,203.1 	"/>
	<polygon class="st10" points="378,214.5 377.9,211.1 376.4,209.3 379.5,207.7 379.7,213.7 	"/>
	<polygon class="st11" points="362.8,213.2 362.5,211.1 362.5,217.1 362.8,219.2 	"/>
	<polygon class="st10" points="351.9,211.1 353.7,209.3 350.3,207.7 350.3,213.7 351.9,214.2 	"/>
	<polygon class="st11" points="346.7,203.2 342.7,203.1 342.7,209.1 344.5,209.2 344.5,206.6 346.8,205.9 	"/>
</g>
<path class="st8" d="M346.8,195.5c-0.8,0.6-1.6,1.2-2.2,1.8l3.3,1.1c-2.3,2.9,0.8,2.2-5.2,2.4c-0.1,0.7-0.2,1.5,0,2.2l4,0.2
	c0.8,3,2.9,1.7-2.1,3.4c0.6,0.6,1.3,1.3,2.2,1.8c5.3-1.3,2.1-1.1,6.9,0.8l-1.7,1.8c1.2,0.5,2.5,0.8,3.8,1.1c3.4-2.5,0.7-1.5,6.7-1
	l0.3,2c1.5,0.1,2.9,0.1,4.3,0c0.5-3-0.8-1.5,4.8-2.6l2.3,1.7c1.3-0.3,2.6-0.6,3.8-1.1c-2.2-2.3-2.1-1.5,0-2.6c2.1-1.1,0.6-1.1,5.2,0
	c0.8-0.6,1.6-1.2,2.2-1.8l-3.3-1.1c2.3-2.9-0.8-2.2,5.2-2.4c0.2-0.7,0.2-1.5,0-2.2l-4-0.2c-0.8-3-2.9-1.7,2.1-3.4
	c-0.6-0.6-1.3-1.3-2.2-1.8l-3.6,0.8c-3.7-2.4-4.1-0.8-1.6-3.5c-1.2-0.5-2.5-0.8-3.8-1.1c-3.4,2.5-0.6,1.5-6.7,1l-0.3-2
	c-1.5-0.1-2.9-0.1-4.3,0c-0.5,3,0.8,1.5-4.8,2.6l-2.3-1.7c-1.3,0.3-2.6,0.6-3.8,1.1c2.2,2.3,2.1,1.5,0,2.6
	C349.8,196.6,351.4,196.6,346.8,195.5z M371.4,198c10.3,5.2-3.4,11.8-13,7.8c0.1,0.1-1.5-0.7-1.3-0.6C349.5,200.5,362,194,371.4,198
	z"/>
<g>
	<polygon class="st2" points="323.8,188.4 323.8,229.5 322.1,228.5 322.1,187.6 	"/>
	<polygon class="st12" points="323.8,188.4 323.8,229.5 325.7,228.5 325.7,187.5 	"/>
</g>
<g>
	<polygon class="st2" points="281.4,167.3 281.4,208.4 279.7,207.5 279.7,166.4 	"/>
	<polygon class="st12" points="281.4,167.3 281.4,208.4 283.3,207.5 283.3,166.4 	"/>
</g>
<g>
	<polygon class="st2" points="398.4,156.8 398.4,192.1 396.6,191.2 396.6,155.8 	"/>
	<polygon class="st12" points="398.4,156.8 398.4,192.1 400.2,191.2 400.2,155.8 	"/>
</g>
<g>
	<polygon class="st2" points="356,135.7 356,170.9 354.2,170.1 354.2,134.8 	"/>
	<polygon class="st12" points="356,135.7 356,170.9 357.8,170.1 357.8,134.8 	"/>
</g>
<g>
	<g>
		<path class="st13" d="M222.4,163.8l-5.2-2.4c-2.9-1.3-6.7-1-10.9,1.1c-8.7,4.4-15.9,15.1-15.9,23.8c0,3.9,1.4,6.6,3.7,8.2l5.4,2.8
			l0.9-1.4c1.8-0.2,3.9-0.7,6-1.8c8.7-4.4,15.9-15.1,15.9-23.8c0-1.9-0.4-3.6-1-5L222.4,163.8z"/>
		<path class="st4" d="M222.8,174.8c0,6.5-5.3,14.5-11.9,17.9c-6.5,3.3-11.9,0.6-11.9-5.9c0-6.5,5.3-14.5,11.9-17.9
			C217.6,165.6,222.8,168.3,222.8,174.8z"/>
		<path class="st12" d="M210.9,164.6c-8.7,4.4-15.9,15.1-15.9,23.8c0,8.7,7.1,12.3,15.9,7.9c8.7-4.4,15.9-15.1,15.9-23.8
			S219.7,160.2,210.9,164.6z M210.8,191.7c-6.2,3.1-11.2,0.6-11.2-5.6c0-6.2,5.1-13.7,11.2-16.8c6.2-3.1,11.2-0.6,11.2,5.6
			C222.1,181.1,217.1,188.6,210.8,191.7z"/>
		<g>
			<path class="st13" d="M208.6,182.6c-0.1-0.2-0.2-0.5-0.2-0.8c0,0,0,0,0-0.1l-5.2,1.5c-0.5,0.1-0.9,0.7-0.9,1.2c0,0.2,0,0.5,0,0.6
				c0,2,0.7,3.6,1.9,4.4c0.3,0.2,0.9-0.1,1.2-0.6l3.2-5.4C208.7,183.2,208.8,182.8,208.6,182.6z"/>
			<path class="st13" d="M203.5,182.1l4.9-1.7c0.3-0.1,0.5-0.3,0.6-0.6c0.1-0.2,0.2-0.3,0.3-0.4c0.2-0.3,0.3-0.6,0.3-0.7l0.2-5.1
				c0-0.6-0.5-0.7-0.9-0.4c-2.7,1.9-5,5-6,7.9C202.8,181.8,203,182.3,203.5,182.1z"/>
			<path class="st13" d="M211.1,182.6c-0.2,0.1-0.3,0.2-0.5,0.3c-0.2,0.1-0.4,0.2-0.6,0.2l-4,6.1c-0.4,0.6-0.3,1.1,0.1,1.2
				c1.3,0.2,2.9-0.1,4.6-0.9c1.2-0.6,2.4-1.5,3.4-2.4c0.5-0.5,0.6-1.1,0.3-1.4L211.1,182.6z"/>
			<path class="st13" d="M219.1,174.6c-0.1-0.5-0.6-0.4-1.1,0l-5.1,4.8v0.1c0,0.4-0.1,0.7-0.3,1.1c-0.1,0.3-0.1,0.6,0,0.7l2.6,3.2
				c0.3,0.3,0.8,0.1,1.2-0.4c1.7-2.5,2.9-5.2,2.9-7.7C219.4,175.8,219.3,175.2,219.1,174.6z"/>
			<path class="st13" d="M211.9,178.1L211.9,178.1c0.2,0,0.5-0.1,0.6-0.3l5-4.1c0.5-0.4,0.7-1.1,0.5-1.4c-1.3-1.2-3.3-1.6-5.6-0.8
				c-0.5,0.2-0.9,0.8-0.9,1.3l0.1,4.8C211.4,177.9,211.6,178.1,211.9,178.1z"/>
		</g>
		<path class="st5" d="M215.1,178.7c0,2.4-1.9,5.3-4.3,6.5s-4.3,0.2-4.3-2.2c0-2.4,1.9-5.3,4.3-6.5
			C213.1,175.4,215.1,176.3,215.1,178.7z"/>
		<path class="st0" d="M213,179.7c0,1.2-1,2.8-2.2,3.4c-1.2,0.6-2.2,0.1-2.2-1.1s1-2.8,2.2-3.4C212,178,213,178.5,213,179.7z"/>
		<g>
			<path class="st5" d="M210.8,168.7C204.3,172,199,180,199,186.5s5.3,9.2,11.9,5.9c6.5-3.3,11.9-11.2,11.9-17.8
				C222.7,168.1,217.4,165.4,210.8,168.7z M210.8,191.6c-6.2,3-11,0.6-11-5.5c0-6.2,5-13.5,11-16.7c6.2-3,11.1-0.6,11.1,5.5
				C222,181.1,217,188.6,210.8,191.6z"/>
		</g>
	</g>
</g>
<g>
	<path class="st5" d="M215.6,142.8l4.7,3.2l0.9-1.3c0.6-1,0.4-2.4-0.6-3l-1.2-0.7c-1-0.6-2.4-0.4-3,0.6L215.6,142.8z"/>
	<g>
		<path class="st4" d="M231.6,186.9c-0.1,0.2-0.3,0.6-0.6,0.8c-0.9,0.7-3,1.6-2.4,2c0.8,0.6,3.4,0,4.2-0.6c0.6-0.4,0.3-2.3,0.3-2.3
			L231.6,186.9z"/>
		<path class="st4" d="M247.4,186.3c0,0.2,0.1,0.6-0.1,1c-0.5,1.1-1.7,2.9-0.9,2.9c1,0.1,2.9-1.8,3.3-2.7c0.3-0.6-0.9-2.1-0.9-2.1
			L247.4,186.3z"/>
		<path class="st12" d="M237.2,161.2c1.2,2.9-5.2,14.4-5.1,14.7c0.2,0.4,0.7,1.3,1.1,2.9c0.4,1.6,0.8,7.6,0.3,8.2
			c-0.6,0.5-1.8,0.4-1.8,0.4s-2.6-11.1-2.7-11.7c-0.1-0.6,3-13.7,3.1-14.8C232.2,159.7,237.2,161.2,237.2,161.2z"/>
		<path class="st12" d="M239.5,158.2c2,2.7,3.6,12.6,4,13.3s1.7,1.3,3,4.9c1.4,3.6,2.5,8.8,2.5,8.8s-1.2,1-1.7,1.1
			c0,0-6.3-12.1-6.7-13.2c-0.6-1.1-6.9-12.6-6.9-12.6L239.5,158.2z"/>
		<g>
			<path class="st14" d="M208,161.1c0.9-0.5,2.9-0.5,2.9-0.5l-0.3,0.9c-1.1,0.7-1.8,1-2.2,1.1c-0.5,0,0.6-0.6,0.6-0.6
				s-0.8-0.1-1.5,0.1C206.6,162.4,207.4,161.5,208,161.1z"/>
			<path class="st14" d="M215.2,161.5c1.7,0.3,1.9,0.5,1.9,0.5l0.6,0.8c-0.6,0.3-1.4,0-1.8-0.2c-0.4-0.1-0.7-0.3-1.4-0.3
				C213.5,162.3,214.4,161.4,215.2,161.5z"/>
			<path class="st4" d="M210.3,160.6c2.9-1.7,6.6-3,6.6-3s3.7-7.1,4.7-8.1c1.4-1.4,1.9,2.8,1.7,3.6c-0.3,0.8-3.6,5.8-4.3,6.2
				c-0.6,0.5-4,1.8-8.3,2.2C210.5,161.6,210.3,160.6,210.3,160.6z"/>
			<path class="st3" d="M224.8,148.1c2.4,0,4,3.6,8,5.4c1.3,0.6,5.8,3.2,6.3,4.8c0.6,1.6-4.7,4.3-7.4,4.3c0,0,0-0.5-3.2-2.8
				c-2.1-1.6-5.5-3.2-6.6-6.2c-0.6-1.7-0.9-3-0.8-3.4C221.4,149.2,223.4,148.1,224.8,148.1z"/>
			<path class="st12" d="M221.8,153.6c1.1,2.9,4.5,4.6,6.6,6.2c3.2,2.3,3.2,2.8,3.2,2.8c2.8,0,8.6-2.9,7.8-4.3
				c-1.1-1.7-5.4-4.1-6.7-4.8c-4-1.8-5.7-5.2-8.1-5.2c-0.3,0-0.6,0.2-0.8,0.5c-1.3,1.9,1.1,6.5-0.6,6.6c-1.3,0.1-2.3-5.1-2.3-5.1
				C220.9,150.6,221.2,151.9,221.8,153.6z M225,152.3l1.5-2.6c2.6,2.4,3.4,3.5,2.6,4.1C228.2,154.6,225,152.3,225,152.3z"/>
			<g>
				<path class="st12" d="M213,142.3c2.3-1.4,4.4-0.1,6.1,2.3c0,0-2.5,2.4-3.6,0.7C214.3,144.6,211.9,143.1,213,142.3z"/>
				<path class="st15" d="M218.3,144.3c2.5-0.5,3,1.7,2.6,2.1c-0.6,0.6-1.5,0.8-2.3,0.8c-0.8,0-2-0.1-3.1-1.8
					C213.7,144.9,215.6,141.9,218.3,144.3z"/>
				<path class="st14" d="M219.1,147.8l1.9,2.4c0,0,1,2.9,1.6,2.9c0.4,0,0.6-3.5,0.7-4.4c0-0.1-0.1-0.2-0.2-0.3
					c-0.6-0.3-2.4-1.2-3.7-3C219.1,145,219.1,147.8,219.1,147.8z"/>
				<path class="st14" d="M219,145.7c-0.1-0.6-0.6-1.8-1.7-1.9c-1.3-0.1-2.4,0.9-1.7,2.9c0.6,1.7,2.2,3.9,3.1,3.8
					c0.8-0.1,1.1-2.3,1-3.8C219.9,146.8,219.4,147.5,219,145.7z"/>
				<path class="st14" d="M220.1,146.1c-0.1,0.5-0.2,0.9-0.5,0.9c-0.3,0-0.5-0.4-0.5-0.8s0.2-0.9,0.5-0.9
					C219.9,145.2,220.1,145.6,220.1,146.1z"/>
			</g>
			<path class="st4" d="M217.1,161.9c3-1.4,6.3-2.5,6.3-2.5s0.2-8.4,0.6-9.7c0.6-1.8,3.5-0.1,3.3,2.3c-0.1,0.8-1.2,7.7-1.6,8.5
				c-0.5,0.6-3.8,2.4-8,2.3C217.5,162.7,217.1,161.9,217.1,161.9z"/>
		</g>
	</g>
</g>
<polygon class="st3" points="307.9,192.4 277.7,237.7 292.1,245 322.4,199.6 405.1,158.2 390.6,150.9 "/>
<polygon class="st12" points="322.4,199.6 292.1,245 295.5,243.4 323.7,200.9 405.1,160.2 405.1,158.2 "/>
<polygon class="st3" points="265.7,171.1 235.4,216.5 249.9,223.8 280.1,178.4 362.9,137 348.4,129.7 "/>
<polygon class="st12" points="280.1,178.4 249.9,223.8 253.2,222.1 281.4,179.7 362.9,139 362.9,137 "/>
<g>
	<rect x="243" y="232.1" class="st2" width="8.3" height="10.9"/>
	<ellipse class="st4" cx="247.1" cy="232" rx="4.1" ry="2.1"/>
	<ellipse class="st2" cx="247.1" cy="242.9" rx="4.1" ry="2.1"/>
</g>
<g>
	<path class="st12" d="M244.8,229.7v1.6l0,0c0,0.3,0.2,0.6,0.6,0.8c0.9,0.5,2.4,0.5,3.2,0c0.5-0.2,0.6-0.6,0.6-0.8l0,0v-1.6H244.8z"
		/>
	<path class="st2" d="M248.8,228.9c0.9,0.5,0.9,1.2,0,1.7s-2.4,0.5-3.2,0c-0.9-0.5-0.9-1.2,0-1.7
		C246.4,228.4,247.8,228.4,248.8,228.9z"/>
</g>
<g>
	<path class="st12" d="M274,223.7l-6.8-3.4l0,0c-0.3-0.3-0.8-0.3-1.4,0l-10.1,5.1c-0.6,0.3-1.1,0.8-1.6,1.4l-3.1,4.7
		c-0.4,0.6-0.6,1.3-0.6,1.8v13.5c0,0.5,0.2,0.8,0.5,1l0,0l7,3.5l0.2-6.5l7.7-3.9c1-0.5,1.7-1.7,1.7-2.7v-9.8L274,223.7z"/>
	<path class="st2" d="M259.1,251.2l13.6-6.8c1-0.5,1.7-1.7,1.7-2.7v-17c0-1-0.8-1.4-1.7-0.9l-10.1,5.1c-0.6,0.3-1.1,0.8-1.6,1.4
		l-3.1,4.7c-0.4,0.6-0.6,1.3-0.6,1.8v13.5C257.3,251.3,258.1,251.6,259.1,251.2z"/>
	<path class="st12" d="M271.7,241.7l-2.6-2.5c-0.1-0.1-0.1-0.2-0.1-0.3v-6.1c0-0.1,0-0.3,0.1-0.4l2.6-5.1l-3,4.7
		c-0.1,0.2-0.3,0.3-0.4,0.4l-4.6,2.3c-0.2,0.1-0.3,0.1-0.4,0l-3-1.7l2.6,2.5c0.1,0.1,0.1,0.2,0.1,0.3v6.1c0,0.1,0,0.3-0.1,0.4
		l-2.6,5.1l3-4.7c0.1-0.2,0.3-0.3,0.4-0.4l4.6-2.3c0.2-0.1,0.3-0.1,0.4,0L271.7,241.7z M264.1,235.4l3.4-1.7c0.3-0.2,0.6,0,0.6,0.3
		v4.7c0,0.3-0.3,0.7-0.6,0.8l-3.4,1.7c-0.3,0.2-0.6,0-0.6-0.3v-4.7C263.6,236,263.8,235.6,264.1,235.4z"/>
</g>
<path class="st2" d="M271.7,220.9l0.6,1.9l-5.2-2.5l2.8-0.5l1.6,0.8C271.5,220.7,271.6,220.8,271.7,220.9z"/>
<polygon class="st13" points="270.8,220.3 271.5,222.5 266.2,220 269.1,219.5 "/>
<g>
	<path class="st2" d="M257.3,228.1l-1.7-1l-3.3,5.5l1.7,1c0.6,0.4,1.2,0.4,1.9,0c1.4-0.6,2.5-2.4,2.3-4
		C258.2,228.9,257.9,228.4,257.3,228.1z"/>
	<path class="st4" d="M253.7,227.1c-1.4,0.6-2.5,2.4-2.3,4c0.1,1.6,1.4,2.3,2.8,1.7c1.4-0.6,2.5-2.4,2.3-4
		C256.4,227.2,255.1,226.4,253.7,227.1z"/>
</g>
<path class="st4" d="M262,227l1.4-2c0.3-0.4,0.6-0.7,1-0.9l6.4-3.2c0.3-0.2,0.6-0.2,0.6-0.2l-4.1-2l0,0c-0.2-0.2-0.6-0.2-0.9,0
	l-6.4,3.2c-0.4,0.2-0.7,0.6-1,0.9l-2,2.9l3.8,1.9L262,227z"/>
<path class="st2" d="M270.8,220.3c-0.2,0-0.4,0-0.6,0.1l-6.5,3.2c-0.4,0.2-0.7,0.6-1,0.9l-2,2.9l1.3-0.6l1.4-2
	c0.3-0.4,0.6-0.7,1-0.9l6.4-3.2c0.3-0.2,0.6-0.2,0.6-0.2L270.8,220.3z"/>
<path class="st13" d="M430.9,203v-2.8h31.3v2.9c0.1,2.1-1.4,4.2-4.6,5.8c-6.2,3-16,3-22.2,0C432.1,207.4,430.7,205.2,430.9,203z"/>
<ellipse class="st5" cx="446.5" cy="200.3" rx="15.6" ry="7.8"/>
<path class="st9" d="M432.7,200.5h1.8l0,0c0.4,0,0.6-0.1,0.6-0.3s-0.3-0.3-0.6-0.3h-1.8l0,0l0,0c0.2-1.7,1.6-3.1,3.7-4.3l0,0
	l1.3,0.6c0.1,0.1,0.3,0.1,0.5,0.1s0.3,0,0.5-0.1c0.3-0.1,0.3-0.3,0-0.5l-1.3-0.6l0,0c2.4-1.1,5.5-1.7,8.9-1.7l0,0v0.9
	c0,0.2,0.3,0.3,0.6,0.3l0,0c0.4,0,0.6-0.1,0.6-0.3v-0.9l0,0c3.3,0.1,6.3,0.8,8.6,1.8l0,0l-1.3,0.6c-0.3,0.1-0.3,0.3,0,0.5
	c0.1,0.1,0.3,0.1,0.5,0.1c0.2,0,0.3,0,0.5-0.1l1.3-0.6l0,0c2.1,1.2,3.4,2.8,3.5,4.4l0,0h-1.8l0,0c-0.4,0-0.6,0.1-0.6,0.3
	s0.3,0.3,0.6,0.3h1.8l0,0l0,0c-0.2,1.7-1.6,3.1-3.7,4.3l0,0l-1.3-0.6c-0.3-0.1-0.6-0.1-0.8,0c-0.3,0.1-0.3,0.3,0,0.5l1.3,0.6l0,0
	c-2.4,1.1-5.4,1.7-8.9,1.7l0,0v-0.9c0-0.2-0.3-0.3-0.6-0.3c-0.3,0-0.6,0.1-0.6,0.3v0.9l0,0c-3.3-0.1-6.3-0.8-8.6-1.8l0,0l1.3-0.6
	c0.3-0.1,0.3-0.3,0-0.5c-0.3-0.1-0.6-0.1-0.8,0l-1.3,0.6l0,0C434.1,203.7,432.8,202.1,432.7,200.5L432.7,200.5z"/>
<path class="st15" d="M440.3,197.1c0.2-0.1,0.6-0.1,0.7,0l5.2,2.7c0.7-0.2,1.7-0.1,2.2,0.2c0.7,0.4,0.7,1-0.1,1.4
	c-0.7,0.4-1.9,0.4-2.7,0c-0.6-0.3-0.6-0.7-0.3-1.1l-5.2-2.7C440.1,197.3,440.1,197.3,440.3,197.1z"/>
<polygon class="st0" points="330,254.8 319,249.2 296.1,260.6 307.2,266.3 307.3,266.3 "/>
<polygon class="st12" points="297.2,260.6 319,249.8 328.9,254.8 307.2,265.7 "/>
<polygon class="st4" points="307.4,276.8 296.2,271.2 296.1,260.6 307.2,266.3 307.3,266.3 "/>
<polygon class="st2" points="330.1,265.3 307.4,276.8 307.2,266.3 330,254.8 330,254.8 "/>
<g>
	<polygon class="st8" points="307.2,265.7 310.4,264.1 310.4,252.3 303,252.3 303,263.6 	"/>
	<path class="st9" d="M309.3,250.9c-1.5-0.7-3.8-0.7-5.2,0c-1.5,0.7-1.5,1.8,0,2.6s3.8,0.7,5.2,0
		C310.8,252.8,310.8,251.6,309.3,250.9z"/>
	<g>
		<path class="st4" d="M307.6,251.8v-20H306v20c0,0.1,0.1,0.2,0.3,0.3c0.3,0.2,0.8,0.2,1.1,0C307.5,252.1,307.6,251.9,307.6,251.8z"
			/>
		<path class="st2" d="M308.4,234.3l-0.7-3.1l0.2-0.7l-0.5-0.2l0,0h-0.1l-1.6,0.8c-0.1,0-0.1,0.1-0.1,0.2l-0.9,4.9
			c0,0.1,0,0.2,0,0.3l0.7,1.1c0,0,0,0.1,0.1,0.1l0,0l0.5,0.2l0.1-0.4l1.1-0.6c0.2-0.1,0.3-0.3,0.4-0.5l0.7-1.9
			C308.4,234.5,308.4,234.4,308.4,234.3z"/>
		<path class="st4" d="M307.7,230.5l-1.6,0.8c-0.1,0-0.1,0.1-0.1,0.2l-0.9,4.9c0,0.1,0,0.2,0,0.3l0.7,1.1c0.1,0.1,0.2,0.1,0.4,0
			l1.3-0.6c0.2-0.1,0.3-0.3,0.4-0.5l0.7-1.9c0-0.1,0.1-0.2,0-0.3L307.7,230.5C307.8,230.5,307.8,230.5,307.7,230.5z"/>
	</g>
</g>
<g>
	<polygon class="st8" points="321.5,258.4 321.5,246.7 314.3,246.7 314.3,262.1 	"/>
	<path class="st9" d="M320.5,245.3c-1.5-0.7-3.8-0.7-5.2,0c-1.5,0.7-1.5,1.8,0,2.6s3.8,0.7,5.2,0C321.9,247.2,321.9,246,320.5,245.3
		z"/>
	<g>
		<path class="st4" d="M318.7,246.2v-20h-1.6v20c0,0.1,0.1,0.2,0.3,0.3c0.3,0.2,0.8,0.2,1.1,0C318.7,246.5,318.7,246.3,318.7,246.2z
			"/>
		<path class="st4" d="M319,224.9l-1.6,0.8c-0.1,0-0.1,0.1-0.1,0.2l-0.9,4.9c0,0.1,0,0.2,0,0.3l0.7,1.1c0.1,0.1,0.2,0.1,0.4,0
			l1.3-0.6c0.2-0.1,0.3-0.3,0.4-0.5l0.7-1.9c0-0.1,0.1-0.2,0-0.3L319,224.9C319.1,224.9,319,224.9,319,224.9z"/>
		<path class="st10" d="M316.3,228.7l0.7-3.1l-0.2-0.7l0.5-0.2l0,0h0.1l1.6,0.8c0.1,0,0.1,0.1,0.1,0.2l0.9,4.9c0,0.1,0,0.2,0,0.3
			l-0.7,1.1c0,0,0,0.1-0.1,0.1l0,0l-0.5,0.2l-0.1-0.4l-1.1-0.6c-0.2-0.1-0.3-0.3-0.4-0.5l-0.7-1.9
			C316.3,228.9,316.3,228.8,316.3,228.7z"/>
		<path class="st4" d="M316.9,224.9l1.6,0.8c0.1,0,0.1,0.1,0.1,0.2l0.9,4.9c0,0.1,0,0.2,0,0.3l-0.7,1.1c-0.1,0.1-0.2,0.1-0.4,0h-1.3
			c-0.2-0.1-0.4-0.8-0.5-1l-0.7-1.9c0-0.1-0.1-0.2,0-0.3L316.9,224.9C316.8,224.9,316.8,224.9,316.9,224.9z"/>
		<path class="st2" d="M317.1,232.1l-0.7-1.1c0-0.1-0.1-0.2,0-0.3l0.9-4.9c0-0.1,0.1-0.2,0.1-0.2l1.6-0.8h0.1l0,0l-0.5-0.2l0,0h-0.1
			l-1.6,0.8c-0.1,0-0.1,0.1-0.1,0.2l-0.9,4.9c0,0.1,0,0.2,0,0.3l0.7,1.1c0,0,0,0.1,0.1,0.1l0,0C316.8,232,317.1,232.2,317.1,232.1z"
			/>
		<path class="st2" d="M318.5,225.7l-0.6-0.3v6.8c0,0,0.6,0.1,0.7,0c0,0,0.1,0,0.1-0.1l0.7-1.1c0-0.1,0.1-0.2,0-0.3l-0.9-4.9
			C318.6,225.8,318.6,225.7,318.5,225.7z"/>
	</g>
</g>
<path class="st14" d="M423.2,180.5c0.6-0.5,1.1-2,1.1-2l-0.9-0.3c-0.5,0.1-0.7,0.5-1,0.7c-0.3,0.4-0.6,0.6-0.6,0.7
	c0.1,0.2,0.7-0.3,0.7-0.3s-0.4,0.5-0.4,0.9C422.2,181.1,422.8,180.9,423.2,180.5z"/>
<path class="st4" d="M428.1,174.3c0.3,0.6-3.4,4.5-3.9,4.5c-0.1,0-1.1-0.5-0.8-0.7c0.5-0.7,1.9-3.1,1.9-3.1S427.8,173.7,428.1,174.3
	z"/>
<path class="st4" d="M423.9,209.7c0.4,1,0.2,1.7-0.3,1.7c-2.5,0.2-4.8,0.2-4.8-0.2c0-1,3.2-1.4,3.8-2.3
	C423.8,206.8,423.5,208.8,423.9,209.7z"/>
<path class="st4" d="M414.5,214.1c0.4,1,0.2,1.7-0.3,1.7c-2.5,0.2-4.8,0.2-4.8-0.2c0-1,3.4-1.2,3.9-2.1
	C414.6,211.3,414.2,213.3,414.5,214.1z"/>
<path class="st13" d="M421.9,178.7c-0.9-0.9-3.7,0.5-3.7,0.5s0,4.1,0.1,6.8c0,0.3,0.7,0.6,0.7,0.8c0.8,6.2,2.6,6.9,2.7,10.9
	c0.1,3.5,0.8,8.8,0.8,11.2c0,0.6,1,0.3,1.1,0.1c0,0,0.8-5.7,1.2-7.6c0.4-1.9-0.2-4.5-0.2-4.5c0-1-0.4-9.9-0.4-9.9
	C425.1,185.3,425.3,182.2,421.9,178.7z"/>
<path class="st12" d="M417.6,179.8c-1.2,6.3-0.7,14.9-1.9,20.1c-0.7,3.3-1.9,11.3-2.4,13.6c-0.1,0.6,0.9,0.6,1.1,0.4
	c0,0,2.7-7.6,3.5-9.8c0.7-1.8,0.5-4.4,0.5-4.4l3.7-11.4c0,0,1.7-2.2,1.7-4.4c-0.1-2.2-0.6-2.9-0.8-4.1
	C422.6,177.8,417.8,178.6,417.6,179.8z"/>
<path class="st3" d="M424.4,166.8c-0.6-0.9-1.8-0.7-3.7-0.2c-1.2,0.4-3.7,3.5-4.1,4c-1.7,1.8,1,2.7,1,2.7c0.6,2.9,0.6,5.2,0.4,6.5
	c-0.1,0.6-0.2,0.9,0.8,0.9c1.2,0,4-0.6,3.9-1.4C422.6,177.8,425.4,168.5,424.4,166.8z"/>
<path class="st14" d="M417,159.4c-0.3,2.3-0.1,4.3,0.6,5.2s2.5-0.3,2.5-0.3s0.5,2.6-0.1,3c-0.6,0.5,1.7,0.1,2.5-0.1
	c0.9-0.3,0.3-0.8,0.3-0.8s-0.5-2.1-0.7-3c-0.2-0.7-2.8-3.8-4-5C417.4,158,417,159.4,417,159.4z"/>
<path class="st16" d="M420,164.2c0,0,0.5,2.6-0.1,3c-0.6,0.5,1.7,0.1,2.5-0.1c0.9-0.3,0.3-0.8,0.3-0.8s-0.5-2.1-0.7-3
	c-0.1-0.5-1.7-1.2-1.8-0.6C419.9,163.1,420,164.2,420,164.2z"/>
<path class="st12" d="M424.5,169.6c0,0-0.5,1.7-0.9,2c-0.7,0.6-1.5,1.2-2-1c-0.5-1.7-1.7-3-2.4-2.9c-1.2,0.4-2.1,2.3-2.6,2.8
	c-1.7,1.8,0.9,3.6,0.9,3.6c0.6,2.9,0.2,4.3,0,5.6c-0.1,0.6,0.3,0.9,1.3,0.9c1.2,0,4.1-0.3,4-1C422.6,178.8,424.1,173.4,424.5,169.6z
	 M418.9,175.9c-0.5-0.6-0.5-1.1-0.8-4.2c0,0,0.8-3.5,1.5-3c1.8,1.4,1.5,3.5,1.3,5.2C420.5,175.8,419.3,176.6,418.9,175.9z"/>
<path class="st15" d="M423.6,160.8c-1.2,3.2-1.2,3.6-2.8,3.3c-0.7-0.2-2.2-1-2.1-1.7c0.1-1-0.6-1.7-0.9-1.2c-0.2,0.4,0-2.1-0.8-1.8
	C416.8,155,425.5,155.4,423.6,160.8z"/>
<path class="st12" d="M423.3,156.9c-0.7-0.1-2.2,0.6-2.1,1.8c0.1,1,1,1.7,1.7,1.9c0.9,0.5,2.1-0.6,2.1-1.3
	C424.9,157.8,424,157,423.3,156.9z"/>
<path class="st15" d="M425.4,158c3.9,0.7,2.7,5.1,2.9,6.8c0.5,2.8,4,5.4,3.5,8.4c-0.7,3.4-5.8,4.8-8.4,0.7c-2-3.2-0.6-7.7-0.4-9.6
	c0.3-1.7-1.2-3.1-0.9-4.8C422.5,158.1,424.2,157.7,425.4,158z"/>
<g>
	<path class="st3" d="M416.3,193.4l-0.9-1.3c-0.1-0.1-0.1-0.3,0.1-0.5l0.8-0.6c0.1-0.1,0.3-0.1,0.5,0.1l0.9,1.3
		c0.1,0.1,0.3,0.1,0.4-0.1c0.2-0.7,0.1-1.5-0.6-2c-0.6-0.5-1.4-0.6-2-0.3c-1.2,0.6-1.5,1.9-0.7,2.9c0.4,0.6,0.9,0.7,1.6,0.7
		C416.3,193.8,416.4,193.6,416.3,193.4z"/>
	<path class="st3" d="M407.5,178.3l1.3,1.7c0.1,0.2,0.1,0.5-0.1,0.6l-1.1,0.8c-0.2,0.1-0.5,0.1-0.6-0.1l-1.3-1.7
		c-0.1-0.2-0.5-0.2-0.5,0.1c-0.3,0.9-0.1,2,0.8,2.9c0.7,0.6,1.8,0.8,2.8,0.4c1.6-0.7,2-2.7,1-4c-0.6-0.7-1.3-1.1-2.1-1.1
		C407.5,177.8,407.3,178.1,407.5,178.3z"/>
	
		<rect x="411" y="180.8" transform="matrix(0.8039 -0.5947 0.5947 0.8039 -30.0202 281.6152)" class="st3" width="2.2" height="11.1"/>
</g>
<path class="st14" d="M409.9,184.1L409.9,184.1c0-0.1,1-0.6,1.1-1c0-0.1-0.2-0.5-0.2-0.5c0.4-0.3,1-0.5,1.6-0.6
	c1.4-1,1.7,0.5,0.9,0.8h-0.1c-0.3,0.4-0.9,1.3-1.6,1.7C411.1,184.6,410.1,184.5,409.9,184.1z"/>
<path class="st4" d="M412.3,181.9c0.5-0.6,3.2-3.7,4.1-4.7c0.5-2.5,0.6-7.1,1.1-8.1c0.6-1.2,1.7-1.1,2.2-0.3
	c0.9,1.2-0.8,8.9-1.6,9.8c-0.6,0.6-4.5,4.4-5.1,4.3C412.5,182.9,412,182.3,412.3,181.9z"/>
<path class="st13" d="M270.5,165.1c0.6-0.6,3.9-0.6,8.7-2.6v8c-4.9,2-6.9,3-7.6,2.7C269.5,172.2,270.5,165.1,270.5,165.1z"/>
<g>
	<path class="st8" d="M272.8,164.8c0,0-0.3-5.5,0.6-6.4c4.7-5.3,20.1-16.4,20.1-16.4s10-17.5,31.2-28c16.4-8.1,26.7-6,31.3-4.1l0,0
		c0,0,30.5,9.9,41.1,21.1l-85.5,58.5c0,0-37.9-18.9-38-19C272.2,168.5,272.8,164.8,272.8,164.8z"/>
	<path class="st17" d="M347.1,108.1c3.9,0.1,6.8,0.9,8.6,1.7l0,0c0,0,30.5,9.9,41.1,21.1l-0.1,0.1c0,0-5.8-0.1-6.6-2.1
		C387.9,122.8,347.1,108.1,347.1,108.1z"/>
	<path class="st17" d="M311.3,177.3c4.9-5.2,20-16.4,20-16.4s8.3-17.8,31.2-28c21.5-9.7,32.1-4,33.8-2.9c1.7,1,2.5,10.6,1,14.1
		c-0.8,1.7-2.6,4-6.5,7c-3.7,2.8-10.9,6.9-25.6,14.4c-30.5,15.3-52.3,26-53.6,24c-1.4-2-0.9-4.3-0.9-4.3S310.6,178,311.3,177.3z"/>
	<path class="st12" d="M334,159.7c5.9-8.5,13-16.6,23.9-22.4c11.5-6.1,29.7-9.7,29.7-6.9c0,2.4-8.8,7.2-26.7,15.9
		C342.8,155.2,334,159.7,334,159.7z"/>
	<path class="st4" d="M311,177.5c-0.6,1.1-0.3,5.1-0.3,5.1c2-1,2.6-1,2.6-3.7c0-2.1-1.2-1.7-2-1.4
		C311.1,177.6,311.1,177.4,311,177.5L311,177.5z"/>
	<polygon class="st2" points="358.9,136.9 358.9,147.4 360.6,146.6 360.6,136.1 	"/>
	<g>
		<path class="st4" d="M396.9,130.8c-1.2,2.2-1.9,4.1-1.9,4.9c0,0.9,1.1,0.1,2.8-1.9C397.5,132.5,397.2,131.5,396.9,130.8z"/>
	</g>
	<g>
		<path class="st5" d="M361.5,146.2c0.3-0.1,5.9-2.9,8.6-4.1l5.5-11c-2.8,0.6-5.8,1.6-8.7,2.6L361.5,146.2z"/>
		<path class="st5" d="M345.6,153.8l6.4-12.9c-2.8,1.9-5.3,4-7.6,6.3l-4.9,9.7C341.3,156,343.3,154.9,345.6,153.8z"/>
	</g>
	<path class="st12" d="M270.5,165.1l40.2,19.9v8.1c0,0-39.9-19.7-40-19.8C269.2,171.3,269.7,165.8,270.5,165.1z"/>
</g>
<g>
	<path class="st5" d="M307.3,128.1l32.6,16.7c-7.4,7.4-11.2,14.5-11.2,14.5l-33.3-17C295.3,142.3,301.1,134,307.3,128.1z"/>
	<g>
		<path class="st2" d="M330.5,156.4V140l4.8,2.5v7.5C333.1,152.4,331.6,154.7,330.5,156.4z"/>
		<polygon class="st2" points="316.4,153.1 316.4,132.7 327.9,138.6 327.9,159 		"/>
		<path class="st2" d="M301.9,133.9c1.5-1.7,3.1-3.5,4.8-5.2v19.5l-4.8-2.5V133.9z"/>
	</g>
</g>
<path class="st9" d="M311.2,177.5l-4.4-2.2c-0.8-0.5-1.8,0.2-1.8,1.1v2.4c0,0.5,0.3,0.9,0.7,1.2l5.1,2.6L311.2,177.5z"/>
<path class="st9" d="M278.1,163.5v2.4c0,0.5-0.3,0.6-0.7,0.5l-4.8-2.4c0-1.3-0.1-3.9,0.3-5.2l3.2,1.7
	C277.1,160.9,278.1,162.6,278.1,163.5z"/>
<path class="st5" d="M381.3,156.9c-0.1,0.1-0.2,0.1-0.4,0.2v-27.1c0.1,0,0.2,0,0.4-0.1V156.9z"/>
<g>
	<g>
		<path class="st13" d="M392.9,147l-2.6-1.2c-1.4-0.6-3.3-0.6-5.4,0.6c-4.3,2.2-7.8,7.5-7.8,11.8c0,1.9,0.7,3.3,1.8,4l2.7,1.4
			l0.5-0.6c0.9-0.1,1.9-0.4,2.9-0.9c4.3-2.2,7.8-7.5,7.8-11.8c0-0.9-0.2-1.7-0.6-2.5L392.9,147z"/>
		<path class="st4" d="M393,152.4c0,3.2-2.7,7.2-5.9,8.8c-3.2,1.7-5.9,0.3-5.9-2.9s2.7-7.2,5.9-8.8C390.4,147.8,393,149.2,393,152.4
			z"/>
		<path class="st12" d="M387.1,147.4c-4.3,2.2-7.8,7.5-7.8,11.8c0,4.3,3.5,6.1,7.8,4c4.3-2.2,7.8-7.5,7.8-11.8
			C395,146.9,391.5,145.2,387.1,147.4z M387.1,160.8c-3,1.6-5.5,0.3-5.5-2.8s2.5-6.8,5.5-8.3c3-1.6,5.5-0.3,5.5,2.8
			C392.7,155.6,390.2,159.2,387.1,160.8z"/>
		<g>
			<path class="st13" d="M386,156.2c-0.1-0.1-0.1-0.3-0.1-0.4l0,0l-2.7,0.7c-0.3,0.1-0.5,0.4-0.5,0.6c0,0.1,0,0.2,0,0.4
				c0,1,0.4,1.7,0.9,2.2c0.2,0.1,0.5,0,0.6-0.3l1.6-2.7C386,156.6,386,156.4,386,156.2z"/>
			<path class="st13" d="M383.5,156l2.4-0.8c0.1,0,0.3-0.2,0.4-0.3c0.1-0.1,0.1-0.2,0.2-0.2c0.1-0.1,0.2-0.3,0.2-0.4l0.1-2.5
				c0-0.3-0.2-0.4-0.5-0.2c-1.4,0.9-2.4,2.4-2.9,4C383.1,155.8,383.3,156,383.5,156z"/>
			<path class="st13" d="M387.2,156.3c-0.1,0.1-0.2,0.1-0.2,0.1c-0.1,0.1-0.2,0.1-0.3,0.1l-2,2.9c-0.2,0.3-0.2,0.6,0.1,0.6
				c0.6,0.1,1.4-0.1,2.2-0.5c0.6-0.3,1.2-0.7,1.7-1.2c0.2-0.2,0.3-0.6,0.2-0.6L387.2,156.3z"/>
			<path class="st13" d="M391.2,152.3c-0.1-0.2-0.3-0.2-0.6,0l-2.5,2.4l0,0c0,0.2,0,0.4-0.1,0.6c-0.1,0.2-0.1,0.3,0,0.4l1.3,1.6
				c0.1,0.2,0.5,0.1,0.6-0.2c0.8-1.2,1.4-2.6,1.4-3.9C391.3,152.9,391.3,152.6,391.2,152.3z"/>
			<path class="st13" d="M387.6,154.1L387.6,154.1c0.1,0,0.2,0,0.3-0.1l2.5-2c0.3-0.2,0.4-0.6,0.2-0.7c-0.6-0.6-1.7-0.7-2.8-0.4
				c-0.3,0.1-0.5,0.4-0.5,0.6l0.1,2.4C387.4,154,387.5,154,387.6,154.1z"/>
		</g>
		<path class="st5" d="M389.2,154.4c0,1.2-0.9,2.7-2.1,3.2s-2.1,0.1-2.1-1.1s0.9-2.7,2.1-3.2C388.3,152.6,389.2,153.2,389.2,154.4z"
			/>
		<path class="st13" d="M388.2,154.8c0,0.6-0.5,1.4-1.1,1.7s-1.1,0.1-1.1-0.6c0-0.6,0.5-1.4,1.1-1.7
			C387.6,154,388.2,154.2,388.2,154.8z"/>
		<g>
			<path class="st5" d="M387.1,149.4c-3.2,1.7-5.9,5.5-5.9,8.8c0,3.3,2.7,4.5,5.9,2.9c3.2-1.7,5.9-5.5,5.9-8.8
				C392.9,149.1,390.4,147.7,387.1,149.4z M387.1,160.7c-3,1.5-5.5,0.3-5.5-2.8c0-3,2.5-6.7,5.5-8.2c3-1.5,5.5-0.3,5.5,2.8
				C392.6,155.6,390.1,159.2,387.1,160.7z"/>
		</g>
	</g>
</g>
<path class="st5" d="M359.9,168c-0.1,0.1-0.2,0.1-0.4,0.2v-31.6c0.1-0.1,0.2-0.1,0.4-0.2V168z"/>
<path class="st5" d="M331.3,160.9c0,0,0-0.1,0.1-0.2l3.2,11.3l-0.3,0.1l-3.1-11C331.3,160.9,331.3,160.9,331.3,160.9z"/>
<g>
	<g>
		<path class="st13" d="M342.8,171.2l-2.6-1.2c-1.4-0.6-3.3-0.6-5.4,0.6c-4.3,2.2-7.8,7.5-7.8,11.8c0,1.9,0.7,3.3,1.8,4l2.7,1.4
			l0.5-0.6c0.9-0.1,1.9-0.4,2.9-0.9c4.3-2.2,7.8-7.5,7.8-11.8c0-0.9-0.2-1.7-0.6-2.5L342.8,171.2z"/>
		<path class="st4" d="M343,176.6c0,3.2-2.7,7.2-5.9,8.8s-5.9,0.3-5.9-2.9s2.7-7.2,5.9-8.8C340.3,172.1,343,173.4,343,176.6z"/>
		<path class="st12" d="M337.1,171.6c-4.3,2.2-7.8,7.5-7.8,11.8c0,4.3,3.5,6.1,7.8,4c4.3-2.2,7.8-7.5,7.8-11.8
			C344.9,171.2,341.4,169.5,337.1,171.6z M337,185c-3,1.6-5.5,0.3-5.5-2.8s2.5-6.8,5.5-8.3c3-1.6,5.5-0.3,5.5,2.8
			C342.6,179.8,340.1,183.5,337,185z"/>
		<g>
			<path class="st13" d="M335.9,180.5c-0.1-0.1-0.1-0.3-0.1-0.4l0,0l-2.6,0.7c-0.3,0.1-0.5,0.4-0.5,0.6c0,0.1,0,0.2,0,0.4
				c0,1,0.4,1.7,0.9,2.2c0.2,0.1,0.5,0,0.6-0.3l1.6-2.7C336,180.8,336,180.6,335.9,180.5z"/>
			<path class="st13" d="M333.4,180.2l2.4-0.8c0.1,0,0.3-0.2,0.4-0.3c0.1-0.1,0.1-0.2,0.2-0.2c0.1-0.1,0.2-0.3,0.2-0.4l0.1-2.5
				c0-0.3-0.2-0.4-0.5-0.2c-1.4,0.9-2.4,2.4-2.9,4C333,180.1,333.1,180.3,333.4,180.2z"/>
			<path class="st13" d="M337.2,180.5c-0.1,0.1-0.2,0.1-0.2,0.1c-0.1,0.1-0.2,0.1-0.3,0.1l-2,2.9c-0.2,0.3-0.2,0.6,0.1,0.6
				c0.6,0.1,1.4-0.1,2.2-0.5c0.6-0.3,1.2-0.7,1.7-1.2c0.2-0.2,0.3-0.6,0.2-0.6L337.2,180.5z"/>
			<path class="st13" d="M341.1,176.5c-0.1-0.2-0.3-0.2-0.6,0l-2.5,2.4l0,0c0,0.2,0,0.4-0.1,0.6c-0.1,0.2-0.1,0.3,0,0.4l1.3,1.6
				c0.1,0.2,0.5,0.1,0.6-0.2c0.8-1.2,1.4-2.6,1.4-3.9C341.2,177.2,341.2,176.8,341.1,176.5z"/>
			<path class="st13" d="M337.6,178.3L337.6,178.3c0.1,0,0.2,0,0.3-0.1l2.5-2c0.3-0.2,0.4-0.6,0.2-0.7c-0.6-0.6-1.7-0.7-2.8-0.4
				c-0.3,0.1-0.5,0.4-0.5,0.6l0.1,2.4C337.3,178.2,337.4,178.3,337.6,178.3z"/>
		</g>
		<path class="st5" d="M339.1,178.6c0,1.2-0.9,2.7-2.1,3.2s-2.1,0.1-2.1-1.1s0.9-2.7,2.1-3.2S339.1,177.4,339.1,178.6z"/>
		<path class="st13" d="M338,179.1c0,0.6-0.5,1.4-1.1,1.7c-0.6,0.3-1.1,0.1-1.1-0.6s0.5-1.4,1.1-1.7
			C337.6,178.2,338,178.5,338,179.1z"/>
		<g>
			<path class="st5" d="M337,173.7c-3.2,1.7-5.9,5.5-5.9,8.8c0,3.3,2.7,4.5,5.9,2.9c3.2-1.7,5.9-5.5,5.9-8.8S340.2,172,337,173.7z
				 M337,185c-3,1.5-5.5,0.3-5.5-2.8s2.5-6.7,5.5-8.2s5.5-0.3,5.5,2.8C342.5,179.8,340,183.4,337,185z"/>
		</g>
	</g>
</g>
<g>
	<path class="st12" d="M358.9,152.9L358.9,152.9c0,0.4-0.3,0.8-0.6,1l-2.1,1c-0.4,0.2-0.6,0-0.6-0.4l0,0c0-0.4,0.3-0.8,0.6-1l2.1-1
		C358.6,152.4,358.9,152.5,358.9,152.9z"/>
	<path class="st5" d="M356.1,153.6l2.1-1c0.3-0.1,0.5-0.1,0.6,0.1c-0.1,0.3-0.4,0.5-0.6,0.6l-2.1,1c-0.3,0.1-0.5,0.1-0.6-0.1
		C355.7,154,355.9,153.7,356.1,153.6z"/>
</g>
<g>
	<path class="st12" d="M380.2,142L380.2,142c0,0.4-0.3,0.8-0.6,1l-2.1,1c-0.4,0.2-0.6,0-0.6-0.4l0,0c0-0.4,0.3-0.8,0.6-1l2.1-1
		C380,141.5,380.2,141.6,380.2,142z"/>
	<path class="st5" d="M377.5,142.7l2.1-1c0.3-0.1,0.5-0.1,0.6,0.1c-0.1,0.3-0.4,0.5-0.6,0.6l-2.1,1c-0.3,0.1-0.5,0.1-0.6-0.1
		C377,143.1,377.2,142.8,377.5,142.7z"/>
</g>
<path class="st13" d="M310.6,185c0.7,0.4,3.5-0.5,7.9-2.3c0.5-0.2,0.9,0.1,0.9,0.6v6c0,0.7-0.5,1.3-1.1,1.6
	c-4.3,1.7-7.1,2.6-7.7,2.2C308.5,192.1,310.1,184.8,310.6,185z"/>
<g>
	<path class="st2" d="M302.7,180.7c0.6,0.4,1.2,0.1,1.2-0.6v-3.8c0-0.6-0.6-1.5-1.2-1.7l-22.5-11.2c-0.6-0.4-1.2-0.1-1.2,0.6v3.8
		c0,0.6,0.6,1.5,1.2,1.7L302.7,180.7z"/>
	<path class="st12" d="M302.7,175.2l-22.5-11.3c-0.4-0.2-0.6,0-0.6,0.4v3.8c0,0.4,0.3,0.8,0.6,1l22.5,11.2c0.4,0.2,0.6,0,0.6-0.4
		v-3.8C303.3,175.7,303,175.4,302.7,175.2z"/>
	<polygon class="st2" points="279.6,164.5 303.3,176.5 303.3,176.1 279.6,164.2 	"/>
	<polygon class="st2" points="279.6,165.3 303.3,177.3 303.3,177 279.6,165 	"/>
	<polygon class="st2" points="279.6,166.2 303.3,178.1 303.3,177.8 279.6,165.9 	"/>
	<polygon class="st2" points="279.6,167.1 303.3,178.9 303.3,178.7 279.6,166.8 	"/>
	<polygon class="st2" points="279.6,167.9 303.3,179.8 303.3,179.5 279.6,167.6 	"/>
	<polygon class="st2" points="296.1,176.8 296.2,176.9 296.2,171.9 296.1,171.8 	"/>
	<polygon class="st2" points="287.2,172.4 287.5,172.5 287.5,167.5 287.2,167.3 	"/>
	<path class="st4" d="M297.2,180.8l-16.8-8.5c-0.3-0.1-0.5,0-0.5,0.3v2.8c0,0.3,0.2,0.6,0.5,0.7l16.8,8.5c0.3,0.1,0.5,0,0.5-0.3
		v-2.8C297.7,181.2,297.5,180.9,297.2,180.8z"/>
</g>
<g>
	<path class="st3" d="M270.9,275.6l-1.1,0.6c-0.6,0.3-1.7,0.3-2.3,0L243.2,264c-0.6-0.3-0.6-0.8,0-1.1l1.1-0.6
		c0.6-0.3,1.7-0.3,2.3,0l24.3,12.1C271.6,274.7,271.6,275.3,270.9,275.6z"/>
	<path class="st4" d="M257.1,262.4l-11.6,5.8c-0.6,0.3-1.6,0.3-2.2,0l-3.2-1.6c-0.5-0.3-0.5-0.6,0-0.9l9.9-5
		c0.5-0.3,1.5-0.4,2.1-0.2l4.4,1C257.4,261.7,257.7,262.1,257.1,262.4z"/>
</g>
<path class="st18" d="M284.6,274.5l-16.2,8.1c-0.8,0.5-2.2,0.5-3,0L232.1,266c-0.8-0.5-0.8-1.1,0-1.6l16.2-8.1c0.8-0.5,2.2-0.5,3,0
	l33.3,16.7C285.5,273.4,285.5,274.2,284.6,274.5z"/>
<g>
	<polygon class="st3" points="438,243.9 435.1,245.4 418.8,237.2 421.7,235.7 	"/>
	<path class="st3" d="M413.1,232.9c-2.3,1.2-2.3,3,0,4.1c2.3,1.2,6.1,1.2,8.4,0c2.3-1.2,2.3-3,0-4.1
		C419.1,231.7,415.4,231.7,413.1,232.9z M420.5,235.3l-2.4,1.2l-3.2-0.5l-0.8-1.7l2.4-1.2l3.2,0.5L420.5,235.3z"/>
	<path class="st3" d="M435.7,244.2c-1.8,0.9-1.8,2.5,0,3.4s4.9,0.9,6.8,0c1.8-0.9,1.8-2.5,0-3.4
		C440.6,243.3,437.6,243.3,435.7,244.2z M441.7,246.2l-1.9,0.9l-2.6-0.4l-0.7-1.3l1.9-0.9l2.6,0.4L441.7,246.2z"/>
</g>
<path class="st19" d="M452.6,245l-14.9,7.5c-0.7,0.4-2,0.4-2.9,0l-30.6-15.4c-0.7-0.4-0.7-1,0-1.4l14.9-7.5c0.7-0.4,2-0.4,2.9,0
	l30.6,15.4C453.4,244,453.4,244.6,452.6,245z"/>
<g>
	<path class="st3" d="M335,280.3l2.6-1.3c0.3-0.1,0.3-0.4,0-0.5l-1.7-0.8c-0.3-0.1-0.7-0.1-1,0l-2.6,1.3c-0.3,0.1-0.7,0.1-0.8-0.1
		c-0.3-0.8,0.4-1.7,2-2.3c1.5-0.5,3.4-0.5,4.8,0c2.5,0.8,2.8,2.5,0.7,3.5c-1,0.6-2.5,0.7-3.9,0.6C334.9,280.7,334.7,280.5,335,280.3
		z"/>
	<path class="st3" d="M360.9,264.2l-3.6,1.7c-0.4,0.2-0.4,0.5,0,0.6l2.3,1.1c0.4,0.2,1,0.2,1.4,0l3.6-1.8c0.4-0.2,1-0.1,1.1,0.2
		c0.4,1.2-0.6,2.4-2.9,3.1c-2,0.6-4.6,0.6-6.5,0c-3.4-1.1-3.8-3.4-1-4.8c1.5-0.7,3.4-1,5.3-0.8C361,263.7,361.3,264.1,360.9,264.2z"
		/>
	<polygon class="st3" points="358.4,269.1 354.8,267.3 336.3,276.6 339.9,278.4 	"/>
</g>
<path class="st18" d="M321.1,277.9l16.2,8.1c0.8,0.5,2.2,0.5,3,0l33.3-16.7c0.8-0.5,0.8-1.1,0-1.6l-16.2-8.1c-0.8-0.5-2.2-0.5-3,0
	l-33.3,16.7C320.3,276.8,320.3,277.5,321.1,277.9z"/>
<g>
	<g>
		<path class="st13" d="M399.4,254.5v-4.7h-32.2v4.9c-0.1,2.1,1.4,4.3,4.7,6c6.3,3.1,16.5,3.1,22.8,0
			C398,258.9,399.6,256.7,399.4,254.5z"/>
		<path class="st4" d="M392,245.5c4.7,2.4,4.7,6.2,0,8.5c-4.7,2.4-12.3,2.4-17,0c-4.7-2.4-4.7-6.2,0-8.5
			C379.7,243.1,387.3,243.1,392,245.5z"/>
		<path class="st12" d="M371.9,243.9c-6.3,3.1-6.3,8.3,0,11.4c6.3,3.1,16.5,3.1,22.8,0c6.3-3.1,6.3-8.3,0-11.4
			C388.3,240.8,378.1,240.8,371.9,243.9z M391.3,253.7c-4.4,2.2-11.6,2.2-16.1,0c-4.4-2.2-4.4-5.8,0-8c4.4-2.2,11.6-2.2,16.1,0
			C395.7,247.9,395.7,251.4,391.3,253.7z"/>
		<g>
			<path class="st13" d="M382.3,250.8c-0.3-0.1-0.6-0.2-0.7-0.3l0,0l-4.6,1.5c-0.4,0.1-0.5,0.4-0.2,0.6c0.2,0.1,0.3,0.2,0.5,0.3
				c1.5,0.7,3.3,1.1,5.2,1.3c0.5,0,0.9-0.2,0.9-0.5l-0.4-2.5C382.8,251,382.6,250.8,382.3,250.8z"/>
			<path class="st13" d="M376.4,251.5l4.1-1.5c0.2-0.1,0.4-0.2,0.4-0.4c0-0.1,0-0.1,0-0.2c0-0.1,0-0.3-0.2-0.4l-3.4-1.8
				c-0.4-0.2-1-0.2-1.3,0.1c-1.5,1.2-1.7,2.7-0.7,4C375.4,251.5,376,251.6,376.4,251.5z"/>
			<path class="st13" d="M385,250.3c-0.1,0.1-0.2,0.1-0.3,0.2c-0.2,0.1-0.3,0.1-0.5,0.2v2.9c0,0.3,0.5,0.5,1,0.4
				c1.6-0.2,3-0.6,4.2-1.2c0.8-0.5,1.5-0.9,1.9-1.5c0.2-0.3-0.1-0.5-0.6-0.6L385,250.3z"/>
			<path class="st13" d="M387.9,246c-0.5-0.1-1,0-1.2,0.2l-2,2.7c0,0,0,0,0.1,0c0.3,0.1,0.5,0.3,0.6,0.5c0.1,0.1,0.3,0.3,0.6,0.3
				l5.2,0.6c0.5,0.1,1-0.1,1-0.4c0.1-1.2-0.7-2.4-2.6-3.3C389,246.4,388.4,246.2,387.9,246z"/>
			<path class="st13" d="M382.5,248.6L382.5,248.6c0.2,0,0.4-0.1,0.5-0.2l2.4-2.4c0.3-0.3,0-0.6-0.6-0.6c-2.3-0.2-4.7,0-6.6,0.7
				c-0.4,0.2-0.5,0.5-0.1,0.6l3.6,1.7C382,248.6,382.3,248.7,382.5,248.6z"/>
		</g>
		<path class="st5" d="M386.4,248.2c1.7,0.8,1.7,2.3,0,3.1c-1.7,0.8-4.5,0.8-6.3,0c-1.7-0.8-1.7-2.3,0-3.1
			C381.9,247.4,384.7,247.4,386.4,248.2z"/>
		<path class="st13" d="M384.8,249c0.9,0.5,0.9,1.2,0,1.6c-0.9,0.5-2.3,0.5-3.2,0s-0.9-1.2,0-1.6C382.5,248.5,383.9,248.5,384.8,249
			z"/>
		<g>
			<path class="st5" d="M374.7,245.5c-4.7,2.4-4.7,6.2,0,8.5c4.7,2.4,12.3,2.4,17,0c4.7-2.4,4.7-6.2,0-8.5
				C387.1,243.1,379.4,243.1,374.7,245.5z M391.2,253.7c-4.4,2.2-11.5,2.2-15.9,0c-4.4-2.2-4.4-5.8,0-7.9c4.4-2.2,11.5-2.2,15.9,0
				C395.5,247.9,395.5,251.4,391.2,253.7z"/>
		</g>
	</g>
</g>
<g>
	<g>
		<path class="st13" d="M399.4,248.2v-4.7h-32.2v4.9c-0.1,2.1,1.4,4.3,4.7,6c6.3,3.1,16.5,3.1,22.8,0
			C398,252.6,399.6,250.4,399.4,248.2z"/>
		<path class="st4" d="M392,239.2c4.7,2.4,4.7,6.2,0,8.5c-4.7,2.4-12.3,2.4-17,0c-4.7-2.4-4.7-6.2,0-8.5
			C379.7,236.8,387.3,236.8,392,239.2z"/>
		<path class="st12" d="M371.9,237.6c-6.3,3.1-6.3,8.3,0,11.4c6.3,3.1,16.5,3.1,22.8,0c6.3-3.1,6.3-8.3,0-11.4
			C388.3,234.5,378.1,234.5,371.9,237.6z M391.3,247.4c-4.4,2.2-11.6,2.2-16.1,0c-4.4-2.2-4.4-5.8,0-8c4.4-2.2,11.6-2.2,16.1,0
			C395.7,241.6,395.7,245.2,391.3,247.4z"/>
		<g>
			<path class="st13" d="M382.3,244.5c-0.3-0.1-0.6-0.2-0.7-0.3l0,0l-4.6,1.5c-0.4,0.1-0.5,0.4-0.2,0.6c0.2,0.1,0.3,0.2,0.5,0.3
				c1.5,0.7,3.3,1.1,5.2,1.3c0.5,0,0.9-0.2,0.9-0.5l-0.4-2.5C382.8,244.7,382.6,244.5,382.3,244.5z"/>
			<path class="st13" d="M376.4,245.3l4.1-1.5c0.2-0.1,0.4-0.2,0.4-0.4c0-0.1,0-0.1,0-0.2c0-0.1,0-0.3-0.2-0.4l-3.4-1.8
				c-0.4-0.2-1-0.2-1.3,0.1c-1.5,1.2-1.7,2.7-0.7,4C375.4,245.3,376,245.4,376.4,245.3z"/>
			<path class="st13" d="M385,244.1c-0.1,0.1-0.2,0.1-0.3,0.2c-0.2,0.1-0.3,0.1-0.5,0.2v2.9c0,0.3,0.5,0.5,1,0.4
				c1.6-0.2,3-0.6,4.2-1.2c0.8-0.5,1.5-0.9,1.9-1.5c0.2-0.3-0.1-0.5-0.6-0.6L385,244.1z"/>
			<path class="st13" d="M387.9,239.8c-0.5-0.1-1,0-1.2,0.2l-2,2.7c0,0,0,0,0.1,0c0.3,0.1,0.5,0.3,0.6,0.5c0.1,0.1,0.3,0.3,0.6,0.3
				l5.2,0.6c0.5,0.1,1-0.1,1-0.4c0.1-1.2-0.7-2.4-2.6-3.3C389,240.1,388.4,239.9,387.9,239.8z"/>
			<path class="st13" d="M382.5,242.3L382.5,242.3c0.2,0,0.4-0.1,0.5-0.2l2.4-2.4c0.3-0.3,0-0.6-0.6-0.6c-2.3-0.2-4.7,0-6.6,0.7
				c-0.4,0.2-0.5,0.5-0.1,0.6l3.6,1.7C382,242.3,382.3,242.4,382.5,242.3z"/>
		</g>
		<path class="st5" d="M386.4,242c1.7,0.8,1.7,2.3,0,3.1c-1.7,0.8-4.5,0.8-6.3,0c-1.7-0.8-1.7-2.3,0-3.1
			C381.9,241.1,384.7,241.1,386.4,242z"/>
		<path class="st13" d="M384.8,242.7c0.9,0.5,0.9,1.2,0,1.6c-0.9,0.5-2.3,0.5-3.2,0s-0.9-1.2,0-1.6
			C382.5,242.2,383.9,242.2,384.8,242.7z"/>
		<g>
			<path class="st5" d="M374.7,239.2c-4.7,2.4-4.7,6.2,0,8.5c4.7,2.4,12.3,2.4,17,0c4.7-2.4,4.7-6.2,0-8.5
				C387.1,236.8,379.4,236.8,374.7,239.2z M391.2,247.4c-4.4,2.2-11.5,2.2-15.9,0c-4.4-2.2-4.4-5.8,0-7.9c4.4-2.2,11.5-2.2,15.9,0
				C395.5,241.6,395.5,245.2,391.2,247.4z"/>
		</g>
	</g>
</g>
<g>
	<g>
		<path class="st13" d="M399.4,242.1v-4.7h-32.2v4.9c-0.1,2.1,1.4,4.3,4.7,6c6.3,3.1,16.5,3.1,22.8,0
			C398,246.4,399.6,244.2,399.4,242.1z"/>
		<path class="st4" d="M392,233c4.7,2.4,4.7,6.2,0,8.5c-4.7,2.4-12.3,2.4-17,0c-4.7-2.4-4.7-6.2,0-8.5
			C379.7,230.7,387.3,230.6,392,233z"/>
		<path class="st12" d="M371.9,231.4c-6.3,3.1-6.3,8.3,0,11.4c6.3,3.1,16.5,3.1,22.8,0c6.3-3.1,6.3-8.3,0-11.4
			C388.3,228.3,378.1,228.3,371.9,231.4z M391.3,241.1c-4.4,2.2-11.6,2.2-16.1,0c-4.4-2.2-4.4-5.8,0-8c4.4-2.2,11.6-2.2,16.1,0
			C395.7,235.3,395.7,238.9,391.3,241.1z"/>
		<g>
			<path class="st13" d="M382.3,238.3c-0.3-0.1-0.6-0.2-0.7-0.3l0,0l-4.6,1.5c-0.4,0.1-0.5,0.4-0.2,0.6c0.2,0.1,0.3,0.2,0.5,0.3
				c1.5,0.7,3.3,1.1,5.2,1.3c0.5,0,0.9-0.2,0.9-0.5l-0.4-2.5C382.8,238.5,382.6,238.3,382.3,238.3z"/>
			<path class="st13" d="M376.4,239l4.1-1.5c0.2-0.1,0.4-0.2,0.4-0.4c0-0.1,0-0.1,0-0.2s0-0.3-0.2-0.4l-3.4-1.8
				c-0.4-0.2-1-0.2-1.3,0.1c-1.5,1.2-1.7,2.7-0.7,4C375.4,239,376,239.1,376.4,239z"/>
			<path class="st13" d="M385,237.8c-0.1,0.1-0.2,0.1-0.3,0.2c-0.2,0.1-0.3,0.1-0.5,0.2v2.9c0,0.3,0.5,0.5,1,0.4
				c1.6-0.2,3-0.6,4.2-1.2c0.8-0.5,1.5-0.9,1.9-1.5c0.2-0.3-0.1-0.5-0.6-0.6L385,237.8z"/>
			<path class="st13" d="M387.9,233.5c-0.5-0.1-1,0-1.2,0.2l-2,2.7c0,0,0,0,0.1,0c0.3,0.1,0.5,0.3,0.6,0.5c0.1,0.1,0.3,0.3,0.6,0.3
				l5.2,0.6c0.5,0.1,1-0.1,1-0.4c0.1-1.2-0.7-2.4-2.6-3.3C389,234,388.4,233.7,387.9,233.5z"/>
			<path class="st13" d="M382.5,236.1L382.5,236.1c0.2,0,0.4-0.1,0.5-0.2l2.4-2.4c0.3-0.3,0-0.6-0.6-0.6c-2.3-0.2-4.7,0-6.6,0.7
				c-0.4,0.2-0.5,0.5-0.1,0.6l3.6,1.7C382,236.1,382.3,236.2,382.5,236.1z"/>
		</g>
		<path class="st5" d="M386.4,235.7c1.7,0.8,1.7,2.3,0,3.1c-1.7,0.8-4.5,0.8-6.3,0c-1.7-0.8-1.7-2.3,0-3.1
			C381.9,234.9,384.7,234.9,386.4,235.7z"/>
		<path class="st13" d="M384.8,236.4c0.9,0.5,0.9,1.2,0,1.6c-0.9,0.5-2.3,0.5-3.2,0s-0.9-1.2,0-1.6
			C382.5,236.1,383.9,236.1,384.8,236.4z"/>
		<g>
			<path class="st5" d="M374.7,233c-4.7,2.4-4.7,6.2,0,8.5c4.7,2.4,12.3,2.4,17,0c4.7-2.4,4.7-6.2,0-8.5
				C387.1,230.6,379.4,230.6,374.7,233z M391.2,241.1c-4.4,2.2-11.5,2.2-15.9,0c-4.4-2.2-4.4-5.8,0-7.9c4.4-2.2,11.5-2.2,15.9,0
				C395.5,235.3,395.5,238.9,391.2,241.1z"/>
		</g>
	</g>
</g>
<text transform="matrix(1 0 0 1 32.2051 146.8279)" class="st20 st21 st22">Turbo</text>
<text transform="matrix(1 0 0 1 32.2051 185.4739)" class="st12 st21 st22">r</text>
<text transform="matrix(1 0 0 1 44.0747 185.4739)" class="st12 st21 st22">epairs</text>
<path class="st23" d="M88.3,52.4c0.2,1.3-0.3,2.9-1.4,4.5c-0.2,0.3-1.4,1.7-3.5,4.2c-0.3,0.7-0.6,1.5-0.9,2.1c-0.5,0.6-1,1-1.7,0.9
	c-1.4-0.2-2.6-0.9-3.7-2.1c-0.4-0.5-0.6-0.8-0.6-1.2c0-0.4,0.1-0.8,0.6-1.1c-0.4-1.1-0.9-4.1-2-8.9c-0.9-4-1.5-6.7-1.7-8.2
	c-0.6-0.6-0.9-1.3-1-2c-0.1-0.6,0-0.9,0.3-1.3c0.2-0.3,0.6-0.4,0.9-0.5c1.1-0.2,2.1,0.2,2.9,0.9c1.9-1,3.5-1.6,4.7-1.7
	c1.5-0.2,2.5,0.2,3,1.2c0.4,0.6,0.6,1.3,0.7,2c0.4,2.4-0.4,4.9-2.3,7.4c1,0.3,2,0.6,3,0.8c0.9,0.3,1.6,0.7,1.9,1.3
	C88,51.2,88.2,51.9,88.3,52.4z M80,42.2c-0.6,0-1.4,0.6-2.6,1.6c0,0.2,0.2,0.8,0.4,1.8c0.2,1,0.4,1.7,0.5,2c0.7-0.7,1.3-1.7,1.8-2.7
	c0.6-1,0.7-1.8,0.6-2.3C80.6,42.3,80.4,42.2,80,42.2z M82.8,52.1c-1.2,0-2.2,0.5-3.1,1.4c0.3,1.6,0.6,3,0.8,4.6
	c2.6-2.3,3.8-4,3.6-5.2C84,52.4,83.5,52.1,82.8,52.1z"/>
<path class="st23" d="M101.8,59.6c-0.1,0.8-0.6,1.7-1.4,2.5c-0.1,0.2-0.6,0.6-1.6,0.9c-1.1,0.5-2,0.6-2.9,0.6
	c-1.6-0.1-2.8-1-3.8-2.6c-0.9-1.6-1.6-3.4-1.8-5.7c-0.4-2.5-0.3-4.6,0.4-6.6c0.6-2.1,1.8-3.5,3.5-3.9c0.4-0.1,0.6-0.1,0.9-0.1
	c2.5-0.2,4,1.6,4.8,4.8c0.4,1.5,0,3.1-0.9,4.8c-1.1,1.8-2.6,3.1-4.5,3.9c0.3,0.8,0.6,1.4,0.7,1.6c0.4,0.6,0.7,0.7,1.2,0.7
	s0.9-0.2,1.5-0.6c0.5-0.3,0.7-0.6,0.8-0.9c0.1,0,0.1-0.3,0.2-0.7c0-0.5,0.2-0.7,0.6-0.9c0.1-0.1,0.3-0.1,0.5-0.1
	c0.5,0,1,0.3,1.5,0.7C101.6,58.6,101.8,59.1,101.8,59.6z M95.5,48.4c-0.8,0-1.4,0.6-1.7,1.9c-0.5,1.7-0.5,3.2-0.1,4.8
	c0.9-0.4,1.7-1.1,2.4-2.3c0.6-1.2,0.9-2.3,0.7-3.2C96.7,48.8,96.2,48.4,95.5,48.4z"/>
<path class="st23" d="M112.2,58.7c0.2,1.5-0.3,2.7-1.2,3.7c-0.9,1-2.1,1.5-3.5,1.5c-0.8,0-1.8-0.5-2.8-1.3c-0.7-0.6-1.5-1.5-2.2-2.5
	c-0.6-0.8-0.8-1.4-0.8-1.7c0.2-0.6,0.8-0.8,2-0.8c0.5,0,0.9,0.1,1.2,0.2c0.6,0.3,0.8,0.6,0.9,1c0.1,0.5,0.3,0.7,0.4,0.9
	c0.5,0.6,0.9,1,1.3,1c0.3,0,0.5-0.2,0.7-0.6c0.2-0.4,0.3-0.8,0.3-1.3c0-0.3-0.1-0.6-0.3-0.9c-0.1-0.3-0.7-0.8-1.8-1.5
	c-1.3-0.7-2.2-1.5-2.9-2c-1-1-1.7-2.2-1.8-3.7c-0.2-1.7,0-3.1,0.7-4.5c0.7-1.4,1.7-2.1,3.2-2.2c1.5-0.1,2.7,0.6,3.6,1.7
	c0.7,1,1.1,2,1.2,3c0.3,0.3,0.5,0.7,0.6,1.4s-0.1,1.3-0.5,1.7s-0.8,0.7-1.3,0.7c-0.7,0-1.4-0.5-2-1.5c-0.2-0.3-0.3-0.6-0.4-1.1
	c0-0.2-0.1-0.5-0.1-0.8c0-0.4,0-0.6-0.1-0.8c-0.1-0.6-0.3-0.9-0.7-0.9c-0.6,0-0.8,0.7-0.6,2c0.2,1.3,0.7,2.3,1.6,3.1
	c0.4,0.3,1.1,0.7,2.1,1.3c0.9,0.5,1.7,0.9,2,1.5C111.8,56.4,112.1,57.4,112.2,58.7z"/>
<path class="st23" d="M122.1,47.7c-0.2,0-0.5-0.1-0.8-0.2c-0.4-0.2-0.6-0.2-0.8-0.2c-0.2,0-0.3,0-0.5,0.1c-0.4,0.3-0.7,0.5-1.1,0.7
	c0.5,4.1,0.9,7.9,1.2,11.5c0,0.4,0.3,0.9,0.7,1.6s0.6,1.1,0.6,1.5c-0.1,0.5-0.4,0.8-0.8,1.1c-0.5,0.3-1,0.4-1.6,0.4
	c-1.1,0-1.8-0.5-2.3-1.5c-0.2-0.3-0.3-1.2-0.4-2.8c-0.1-1-0.3-2.7-0.5-5c-0.3-2.7-0.5-4.4-0.6-5.2c-0.1,0.1-0.3,0.2-0.6,0.5
	c-0.3,0.3-0.6,0.4-0.8,0.5c-0.2,0-0.6-0.1-0.9-0.2c-1.5-0.6-2.3-1.1-2.4-1.7c0-0.2,0-0.3,0-0.5c0.1-0.4,0.4-0.6,0.7-0.6
	c0.6-0.1,0.9-0.2,1-0.3c0.5-0.3,1.3-0.7,2.4-1.7c-0.1-1.1-0.3-2.2-0.4-3.3c0-0.3-0.1-0.6-0.3-1c-0.2-0.5-0.3-0.7-0.3-0.9
	c0-0.3,0-0.5,0.1-0.7c0.5-1.1,1.1-1.7,2-1.7c1-0.1,1.8,0.5,2.4,1.6c0.2,0.5,0.4,0.8,0.4,1c0,0.4-0.1,0.6-0.3,1
	c-0.2,0.4-0.3,0.6-0.3,1c0.1,0.6,0.2,1.3,0.2,1.9c0.4-0.2,0.7-0.6,1.1-1.1c0.3-0.4,0.6-0.6,0.8-0.6c0.1,0,0.2,0,0.4,0.1
	c1.4,0.4,2.1,1.4,2.3,2.9c0.1,0.5,0,0.9-0.2,1.4C122.7,47.5,122.4,47.7,122.1,47.7z"/>
<path class="st23" d="M145.9,53.2c-0.3,0.5-0.7,0.6-1.4,0.6c-0.6,0-1.1,0-1.7,0.1c-0.1,2.4-0.5,4.4-1,6.3c-0.6,1.8-1.5,2.9-2.3,3.3
	c-0.2,0.1-0.3,0.1-0.5,0.1c-0.8,0-1.7-0.5-2.9-1.4c-1.2-1-2.2-2.4-3-4c-1-2-1.6-4.1-1.8-6.6c-0.4-4.1-0.3-8.2,0.3-12.1
	c0.7-4.7,2.1-7.7,4.1-7.8c1.5-0.2,2.9,1.4,4,4.2c0.9,2.1,1.7,4.9,2.2,7.8c0.4,0.6,0.6,1.1,0.6,1.7c0.1,0.6-0.1,1.2-0.4,1.7
	c-0.3,0.4-0.6,0.6-1.2,0.6c-0.6,0-1.2-0.2-1.8-0.5c-0.6-0.4-1.1-0.7-1.4-1.1c-0.2-0.3-0.3-0.5-0.3-0.7c0,0.1,0.1-0.4,0.1-1.6
	c-0.6-3.2-1.1-5-1.5-5c-0.4,0-0.6,1.7-0.8,4.8c-0.3,3.1-0.3,5.7-0.1,7.8c0.2,1.5,0.5,3.1,1.1,4.9c0.6,1.7,1,2.6,1.3,2.6
	c0.3,0,0.6-0.5,0.9-1.4c0.3-0.9,0.5-1.9,0.5-2.9c-0.6-0.3-1-0.6-1.6-1.3c-0.6-0.7-0.9-1.4-1-1.9c0-0.4,0.1-0.7,0.4-1
	c0.3-0.3,0.7-0.5,1.4-0.5c1.8-0.1,2.9-0.1,3-0.2c0.3-0.2,0.6-0.4,0.9-0.6c0.4-0.2,0.6-0.3,0.9-0.3c0.6,0,1.3,0.4,1.9,1
	c0.6,0.6,1,1.4,1.1,2.1C146.2,52.4,146.2,52.8,145.9,53.2z"/>
<path class="st23" d="M160,61.5c-0.3,1-1,1.6-2.2,1.6c-0.4,0-0.7-0.1-1-0.2c-0.4-0.2-0.6-0.6-0.7-1.4c-0.3-1.2-0.6-2.1-0.9-2.9
	c0,1.2-0.6,2.4-1.7,3.6S151.1,64,150,64c-1.5,0-2.5-1-3.2-3c-0.3-0.7-0.4-1.5-0.5-2.2c-0.1-2,0.7-3.8,2.5-5.3c1.5-1.1,3-2.2,4.6-3.4
	c0.1-0.5,0.1-0.8,0-1.3c-0.1-0.8-0.3-1.3-0.6-1.4c-0.4-0.2-0.6-0.2-0.9-0.2c-0.5,0-0.7,0.2-1,0.6c-0.3,0.4-0.5,0.7-0.7,1
	c-0.2,0.2-0.6,0.6-0.8,1.4c-0.3,0.6-0.6,0.9-0.9,0.9c-0.6,0.1-1-0.1-1.5-0.6c-0.5-0.6-0.7-1.1-0.8-1.8c0-0.4,0-0.8,0.2-1.1
	c0.4-1,1-1.9,1.9-2.7c1.4-1.2,3.1-1.8,5.2-1.9c1.4,0,2.4,0.9,3,2.7c0.4,1.2,0.8,3.4,1.2,6.3c0.5,3.5,0.8,5.8,1.1,7.2
	c0.1,0.3,0.3,0.6,0.6,1.1c0.4,0.5,0.5,0.8,0.6,1.1C160.1,61.2,160.1,61.3,160,61.5z M154.2,53.3c-0.6,0.4-1.2,0.7-1.7,1.2
	c-0.6,0.4-1.1,0.9-1.6,1.6c-0.6,0.9-1,1.7-0.9,2.3c0,0.6,0.3,1.1,0.6,1.7c0.2,0.3,0.5,0.5,0.7,0.5c0.6,0,1.1-0.6,1.7-1.8
	C153.4,57.3,153.9,55.6,154.2,53.3z"/>
<path class="st23" d="M171.9,44.4c-0.1,0.6-0.5,1-1.1,1.3c-0.8,0.3-1.3,0.6-1.5,1c-1.5,2.6-3,5-4.6,7.3c0.1,1.8,0.2,3.5,0.3,5.2
	c0,0.5,0.2,0.9,0.5,1.5c0.3,0.5,0.5,0.8,0.5,1.1c0,0.3-0.1,0.6-0.2,0.8c-0.3,0.8-1,1.2-2,1.2c-0.7,0-1.3-0.3-1.7-0.7
	c-0.3-0.3-0.5-0.7-0.5-1.2c0-0.2,0-0.5,0-0.8c0-0.4,0-0.7,0-0.9c-0.2-4-0.5-8.4-0.8-13.4c0-0.3-0.1-0.6-0.3-0.9s-0.3-0.6-0.3-0.9
	c0-0.2,0-0.4,0.1-0.6c0.2-0.7,1-1.1,2.4-1.1c1.1,0,1.7,0.4,1.9,1c0.1,0.3,0.1,0.6,0.2,0.7c0,0.3-0.1,0.6-0.2,0.7
	c-0.2,0.2-0.2,0.4-0.2,0.5c0.1,0.5,0.1,1,0.2,1.5c0.8-1.2,1.6-2.5,2.4-3.9c0.3-0.5,0.6-1,0.9-1.6c0.3-0.6,0.6-0.8,1.1-0.9
	c0.7-0.1,1.4,0.1,2,0.6s1,1.2,1.1,2.1C172,44.1,172,44.2,171.9,44.4z"/>
<path class="st23" d="M185.5,61.4c-0.3,1-1,1.6-2.2,1.6c-0.4,0-0.7-0.1-1-0.2c-0.4-0.2-0.6-0.6-0.7-1.4c-0.3-1.2-0.6-2.2-0.8-2.9
	c0,1.2-0.6,2.4-1.7,3.6c-1.1,1.2-2.3,1.7-3.5,1.7c-1.5,0-2.5-1-3.1-3c-0.3-0.7-0.4-1.5-0.4-2.2c-0.1-2,0.7-3.9,2.7-5.5
	c1.6-1.1,3-2.3,4.6-3.5c0.1-0.5,0.1-0.9,0.1-1.3c0-0.8-0.3-1.4-0.6-1.5c-0.4-0.2-0.6-0.2-0.9-0.2c-0.5,0-0.7,0.2-1,0.6
	c-0.3,0.4-0.5,0.7-0.7,1c-0.3,0.2-0.6,0.7-0.8,1.5c-0.3,0.6-0.6,0.9-0.9,1c-0.6,0.1-1-0.2-1.5-0.6c-0.5-0.6-0.7-1.2-0.7-1.9
	c0-0.5,0-0.8,0.2-1.2c0.4-1,1.1-2,1.9-2.9c1.4-1.3,3.1-1.9,5.3-2c1.4,0,2.4,0.9,2.9,2.9c0.4,1.2,0.7,3.5,1,6.5
	c0.4,3.6,0.6,5.9,1,7.4c0.1,0.3,0.3,0.6,0.6,1.1c0.3,0.5,0.5,0.8,0.5,1.1C185.6,61.2,185.6,61.3,185.5,61.4z M179.9,53.2
	c-0.6,0.4-1.2,0.8-1.7,1.2c-0.6,0.4-1.1,0.9-1.6,1.6c-0.6,0.9-1,1.7-1,2.4c0,0.6,0.2,1.1,0.6,1.7c0.2,0.3,0.5,0.5,0.6,0.5
	c0.6,0,1.1-0.6,1.7-1.9S179.6,55.5,179.9,53.2z"/>
<path class="st23" d="M197,43c0.1,2.7,0.4,6.7,0.6,11.4c0.2,3.3,0.3,5.4,0.3,6.7c0.1,2.8-0.2,4.6-0.6,5.6c-0.5,1-1.3,1.5-2.6,1.6
	c-1.7,0.2-3-0.3-4.3-1.3c-0.6-0.2-1-0.4-1.2-0.5c-0.4-0.2-0.6-0.6-0.6-1c-0.2-0.9,0.6-1.5,2.2-1.5c0.5,0,0.8,0.1,1.2,0.2
	c0.3,0.1,0.6,0.3,0.9,0.7c0.4,0.5,0.6,0.6,1,0.6c0.6,0,0.9-0.8,0.8-2.5c0-0.7-0.1-1.9-0.3-3.8c-0.7,1.3-1.2,2.1-1.6,2.6
	c-0.6,0.7-1.5,1.1-2.3,1.1c-1.3,0-2.3-0.9-3.1-2.8c-0.7-1.7-1.2-3.8-1.3-6.5c-0.1-2.8,0.2-5.4,0.8-7.7c0.7-2.6,1.8-4,3.4-4.1
	c0.8,0,1.5,0.2,1.8,0.7c0.4,0.6,0.8,1,1.2,1.6c-0.3-1.1-0.3-1.9,0.1-2.5c0.2-0.4,0.6-0.6,1-0.6s0.8,0.2,1.3,0.5
	C196.5,42.2,196.8,42.6,197,43z M193.6,53.5c0-1.4-0.2-2.9-0.6-4.2c-0.5-1.6-1-2.4-1.7-2.4c-0.6,0-1,0.8-1.3,2.4
	c-0.3,1.4-0.5,2.8-0.5,4.2c0,1.5,0.2,2.8,0.4,3.9c0.4,1.3,0.7,1.9,1.3,1.9c0.5,0,0.9-0.6,1.5-1.9C193.3,56.2,193.6,54.8,193.6,53.5z
	"/>
<path class="st23" d="M210.6,59.4c-0.2,0.8-0.6,1.7-1.6,2.6c-0.2,0.3-0.7,0.6-1.7,0.9c-1.1,0.5-2,0.6-2.9,0.6
	c-1.6-0.1-2.8-1-3.6-2.8c-0.8-1.7-1.3-3.6-1.4-6.3c-0.1-2.9,0.3-5.5,1.1-8.1c0.9-2.9,2.2-4.6,3.9-5c0.4-0.1,0.6-0.1,0.9-0.1
	c2.5-0.1,3.9,2.4,4.2,6.5c0.2,1.8-0.4,3.8-1.5,5.7c-1.3,2.1-2.9,3.5-4.9,4.3c0.3,0.9,0.5,1.5,0.6,1.7c0.3,0.6,0.6,0.8,1.2,0.8
	c0.5,0,0.9-0.2,1.5-0.6c0.5-0.4,0.7-0.6,0.9-0.9c0.1,0,0.2-0.3,0.2-0.7c0.1-0.5,0.3-0.8,0.6-1c0.1-0.1,0.3-0.1,0.5-0.1
	c0.5,0,1,0.3,1.5,0.8C210.5,58.3,210.7,58.9,210.6,59.4z M205.5,46.3c-0.8,0-1.5,0.8-1.9,2.4c-0.6,2.1-0.8,4-0.6,5.8
	c0.9-0.4,1.8-1.2,2.6-2.6s1.2-2.8,1.1-3.9C206.6,46.8,206.2,46.3,205.5,46.3z"/>
<path class="st23" d="M224.5,62.5c-0.2,0.6-0.7,0.8-1.6,0.8c-0.3,0-0.6,0-0.8-0.1c-1.7-0.3-2.7-0.7-2.9-1.6
	c-0.1-0.2-0.1-0.3-0.1-0.5c0-0.5,0.2-0.9,0.6-1.4c-0.1-3.6-0.4-9.1-0.9-25.8c0-0.5-0.1-1-0.3-1.7c-0.2-0.6-0.3-1.2-0.3-1.5
	c0-0.7,0.2-1.5,0.6-2.3c0.4-0.6,0.8-0.8,1.4-0.9c0.6,0,1.4,0.4,2.2,1c0.9,0.8,1.4,1.8,1.4,3c0,0.3-0.2,1.3-0.6,3
	c0.2,11,0.5,18.7,0.6,25.3c0,0.3,0.1,0.6,0.3,1c0.2,0.4,0.3,0.7,0.3,0.9C224.5,62.3,224.5,62.4,224.5,62.5z"/>
<path class="st23" d="M239.8,60.7c0,0.5-0.4,0.8-0.9,1.2c-0.6,0.4-1.2,0.5-1.8,0.5c-1,0-1.7-0.4-2-1c0.2-6.5,0-10.9-0.6-11
	c-0.6-0.2-1.7,3.8-3.7,9.8c0,0.6,0,1.3,0,1.9c0,0.7-0.2,1.3-0.6,1.6c-0.4,0.3-0.7,0.5-1.2,0.5c-0.7,0-1.5-0.4-2.3-1.2
	c-0.3-0.2-0.4-1.7-0.5-5c0,1.7,0-0.8-0.1-12.3c0-0.3,0-0.6-0.1-1.1c0-0.5-0.1-0.8-0.1-1c0-0.6,0.1-1.1,0.3-1.6
	c0.3-0.6,0.6-0.8,1.2-0.8c0.6,0,1.1,0.3,1.7,0.8s1,1,1.1,1.5c0.1,0.3,0.1,0.6,0.1,0.9s-0.1,0.7-0.3,1.3c-0.2,0.6-0.3,0.9-0.3,1.3
	c0,1.9,0,3.8,0,5.5c1.3-3.4,2.2-6,2.9-7.3c1.2-2.2,2.5-3.3,4-3.1c0.9,0.1,1.5,1.4,1.8,3.7c0.3,1.7,0.5,4.1,0.5,7c0,2.3,0,4.3,0,6.3
	c0,0.2,0.2,0.5,0.5,0.8C239.8,60.2,239.8,60.4,239.8,60.7z"/>
<path class="st12" d="M277,28.7c0.2,0.6,0.3,1.3,0.3,1.8c0,0.5-0.2,1.1-0.4,1.8c-0.3,0.9-0.6,1.6-0.6,1.9
	c-1.8,8.8-3.6,15.5-5.2,21.2c-0.2,0.5-0.3,1.1-0.3,1.7c0,0.3,0,0.7,0,1.3s0,0.9,0,1.2c0,1.2-0.4,2-1.2,2.5c-0.7,0.5-1.6,0.7-2.4,0.7
	c-1.1,0-2-0.4-2.9-1.2c-0.5-0.5-0.7-1.1-0.7-1.9c0-0.3,0-0.6,0.1-1.2c0.1-0.6,0.1-1,0.1-1.3c0-0.4,0-0.7-0.1-1.1
	c-0.8-3.5-1.6-7.5-2.4-12.1c-1.2,5.3-2.3,9.8-3.4,13.8c-0.1,0.3,0,0.6,0.3,1c0.3,0.4,0.4,0.6,0.4,0.9c0,1.7-0.5,3.1-1.3,4.1
	c-0.5,0.5-1,0.7-1.7,0.7c-1.1,0-1.9-0.5-2.5-1.3c-0.2-0.3-0.3-0.6-0.3-1.1c0-0.6,0-1-0.1-1.3c-1.4-6.6-2.8-14.4-4.1-25.6
	c0-0.4-0.2-0.9-0.4-1.7c-0.2-0.6-0.3-1.2-0.3-1.6c0-1,0.4-1.9,1-2.7c0.6-0.6,1.1-0.9,1.7-0.9s1.2,0.4,1.7,1c0.4,0.6,0.6,1.4,0.6,2.4
	c0,1.1,0.1,2.1,0.1,3.1c0.6,7,1.3,12.6,1.9,17.5c1.2-5.2,2.5-11.3,3.9-19c0.1-0.3,0-0.7-0.1-1.3c-0.1-0.6-0.1-0.9-0.1-1.2
	c0-0.5,0.1-1,0.4-1.6c0.4-1,1.1-1.5,2.2-1.5c1.3,0,2.2,0.7,2.7,2.2c0.2,0.6,0.3,1.1,0.3,1.7c0,0.3-0.1,0.6-0.1,1.2
	c-0.1,0.6-0.1,0.9-0.1,1.2c0,0.3,0,0.5,0.1,0.7c1,7.1,2,12.8,3,17.7c1.4-5.2,2.8-11.1,4.2-18.6c0.1-0.2,0.1-1.2,0.2-3.1
	c0.1-1.3,0.3-2.2,0.7-2.8c0.7-1,1.6-1.6,2.5-1.6C276,26.8,276.6,27.4,277,28.7z"/>
<path class="st12" d="M288.6,59.4c-0.2,0.8-0.7,1.7-1.7,2.6c-0.2,0.3-0.7,0.6-1.7,0.9c-1.1,0.5-2.1,0.6-2.9,0.6
	c-1.5-0.1-2.7-1-3.5-2.8c-0.7-1.7-1.1-3.6-1-6.3c0.1-2.9,0.6-5.5,1.7-8.1c1.1-2.8,2.5-4.5,4.2-4.9c0.4-0.1,0.6-0.1,0.9-0.1
	c2.5,0,3.7,2.5,3.8,6.4c0,1.8-0.6,3.7-1.8,5.6c-1.4,2.1-3.1,3.5-5.2,4.2c0.2,0.9,0.4,1.5,0.5,1.7c0.3,0.6,0.6,0.8,1.1,0.8
	c0.5,0,1-0.2,1.5-0.6c0.5-0.4,0.7-0.6,0.9-0.9c0.1,0,0.2-0.3,0.3-0.7s0.3-0.8,0.6-1c0.1-0.1,0.3-0.1,0.5-0.1c0.5,0,0.9,0.3,1.4,0.8
	C288.5,58.3,288.7,58.9,288.6,59.4z M284.3,46.4c-0.8,0-1.6,0.8-2.1,2.3c-0.7,2-1.1,4-1,5.7c1-0.4,1.9-1.2,2.8-2.6
	c0.8-1.4,1.4-2.7,1.4-3.9C285.3,47,285,46.4,284.3,46.4z"/>
<path class="st12" d="M299.1,58.5c-0.1,1.6-0.6,2.8-1.7,3.9c-1,1-2.2,1.6-3.6,1.6c-0.8,0-1.7-0.5-2.7-1.3c-0.7-0.6-1.4-1.6-1.9-2.6
	c-0.5-0.9-0.6-1.5-0.6-1.7c0.3-0.6,0.9-0.8,2.1-0.8c0.5,0,0.8,0.1,1.1,0.3c0.5,0.3,0.7,0.6,0.7,1.1c0,0.6,0.1,0.8,0.3,0.9
	c0.4,0.7,0.7,1,1.1,1c0.3,0,0.6-0.2,0.7-0.6c0.3-0.4,0.4-0.8,0.4-1.4c0-0.4,0-0.6-0.1-1c-0.1-0.4-0.6-0.8-1.6-1.6
	c-1.2-0.8-2-1.7-2.5-2.3c-0.8-1.2-1.2-2.6-1.1-4.2c0.1-1.9,0.6-3.8,1.6-5.4c1-1.7,2.2-2.5,3.6-2.5c1.5,0,2.5,0.9,3.2,2.5
	c0.6,1.3,0.7,2.5,0.6,3.7c0.2,0.4,0.3,0.8,0.3,1.6c0,0.8-0.3,1.5-0.7,1.9c-0.5,0.6-0.9,0.7-1.4,0.7c-0.7,0-1.3-0.6-1.7-1.7
	c-0.1-0.3-0.2-0.7-0.2-1.3c0-0.3,0-0.6,0.1-1c0.1-0.5,0.1-0.7,0.1-0.9c0-0.7-0.2-1.1-0.6-1.1c-0.6,0-0.9,0.8-1,2.3
	c-0.1,1.6,0.3,2.8,1,3.6c0.3,0.4,0.9,0.8,1.9,1.5c0.8,0.6,1.5,1.1,1.7,1.6C298.9,56.1,299.2,57.2,299.1,58.5z"/>
<path class="st12" d="M310.8,46.9c-0.2,0-0.5-0.1-0.7-0.3c-0.4-0.2-0.6-0.3-0.8-0.3s-0.3,0-0.5,0.1c-0.4,0.3-0.8,0.6-1.2,0.7
	c-0.3,4.6-0.6,8.6-0.7,12.3c0,0.4,0.2,0.9,0.6,1.6c0.4,0.6,0.6,1.1,0.5,1.5c-0.1,0.5-0.5,0.8-0.9,1.1c-0.5,0.3-1,0.4-1.6,0.4
	c-1.1,0-1.8-0.5-2.2-1.5c-0.1-0.3-0.2-1.2-0.1-2.9c0-1.1,0.1-2.8,0.3-5.2c0.2-2.9,0.4-4.9,0.4-5.7c-0.1,0.1-0.4,0.2-0.6,0.6
	c-0.3,0.3-0.6,0.5-0.9,0.5c-0.2,0-0.6-0.1-0.8-0.3c-1.4-0.6-2.1-1.3-2-1.9c0-0.2,0.1-0.4,0.1-0.6c0.2-0.5,0.5-0.6,0.8-0.7
	c0.6-0.1,1-0.2,1.1-0.3c0.5-0.3,1.4-0.8,2.7-1.7c0.1-1.3,0.2-2.6,0.2-4c0-0.3,0-0.7-0.1-1.3c-0.1-0.6-0.1-0.9-0.1-1.2
	c0-0.3,0.1-0.6,0.2-0.8c0.6-1.3,1.4-2,2.3-1.9c1,0,1.7,0.7,2.1,2.1c0.1,0.6,0.2,0.9,0.2,1.3s-0.2,0.7-0.5,1.2
	c-0.3,0.4-0.5,0.7-0.5,1.1c-0.1,0.7-0.1,1.5-0.1,2.2c0.4-0.2,0.8-0.6,1.3-1.2c0.4-0.4,0.6-0.6,0.9-0.6c0.1,0,0.2,0,0.4,0.1
	c1.3,0.6,1.8,1.7,1.7,3.4c0,0.6-0.2,1-0.5,1.5C311.4,46.7,311.1,46.9,310.8,46.9z"/>
<path class="st23" d="M331.1,57.9c0.1,0.3,0.2,0.6,0.1,0.9c0,0.6-0.2,1-0.6,1.6c-0.4,0.5-0.7,0.8-1.1,0.9c-0.5,0.2-1,0.3-1.7,0.3
	c-0.7,0-1.3,0.1-1.7,0.2s-0.7,0.5-1.2,1c-0.4,0.5-1.1,0.7-2,0.8c-0.6,0.1-1.2-0.1-1.7-0.6c-0.6-0.5-1-1.1-1.2-1.8
	c0-0.2-0.1-0.3,0-0.4c0-0.3,0.2-0.6,0.5-0.9c0.3-0.4,0.5-0.6,0.5-0.9c-0.1-6.5,0.2-14,0.5-24.2c0-0.1-0.1-0.5-0.3-0.9
	c-0.2-0.6-0.3-0.9-0.3-1.3c0-0.5,0.2-0.9,0.6-1.4c0.5-0.6,1.1-0.9,1.9-0.9c0.6,0.1,1.3,0.4,1.9,0.9c0.6,0.6,0.9,1.1,1.1,1.8
	c0.1,0.4,0.1,0.7,0.1,1c0,0.3-0.1,0.6-0.4,0.9c-0.2,0.3-0.3,0.6-0.3,0.8c-0.3,9-0.6,15.9-0.6,22c0.6-0.3,1.3-0.6,1.8-0.8
	c0.4-0.2,0.8-0.4,1.2-0.6c0.4-0.2,0.7-0.3,1-0.3C329.8,55.8,330.5,56.6,331.1,57.9z"/>
<path class="st23" d="M342.3,45.2c1.2,1.8,1.6,4.8,1.2,8.5c-0.3,2.9-0.9,5.2-2,7c-1.2,2.1-2.8,3-4.6,3c-1.8,0-3.3-0.9-4.1-2.8
	c-0.8-1.7-1.1-3.8-0.9-6.5c0.2-2.4,0.7-4.8,1.7-6.9c0.9-2.3,2-3.8,3.2-4.1c0.6-0.2,1.3-0.3,1.9-0.3C340.2,43,341.4,43.8,342.3,45.2z
	 M338.6,46.9c-0.6-0.1-1.3,0.7-1.9,2.3c-0.6,1.5-0.9,2.9-1,4.4c-0.2,2.2-0.2,3.6-0.1,4.4c0.2,1.5,0.7,2.3,1.6,2.5
	c0.6,0.1,1.1-0.7,1.7-2.5c0.6-1.7,1-3.5,1.2-5.6C340.3,49.1,339.9,47.1,338.6,46.9z"/>
<path class="st23" d="M358,60.9c-0.1,0.5-0.4,0.8-0.9,1.2c-0.6,0.3-1.2,0.5-1.8,0.5c-1,0-1.7-0.3-1.9-0.9c0.6-6.3,0.9-10.1,0.4-10.2
	c-0.5-0.1-2.2,3.2-4.6,9c0,0.6-0.1,1.3-0.1,1.8c-0.1,0.7-0.3,1.3-0.6,1.6c-0.4,0.3-0.8,0.5-1.2,0.5c-0.7,0-1.5-0.4-2.3-1.2
	c-0.2-0.2-0.3-1.7-0.1-4.8c-0.1,1.7,0-1.1,1.1-11.2c0-0.2,0-0.6,0-0.9c0-0.4,0-0.6,0-0.8c0.1-0.5,0.2-0.9,0.5-1.3
	c0.3-0.5,0.7-0.7,1.3-0.6c0.6,0,1.1,0.3,1.7,0.7c0.6,0.5,0.9,0.9,0.9,1.3c0.1,0.3,0.1,0.6,0,0.7c0,0.3-0.2,0.6-0.4,1
	c-0.2,0.5-0.4,0.8-0.4,1.1c-0.2,1.7-0.4,3.3-0.6,4.9c1.6-3,2.9-5.2,3.6-6.3c1.4-1.8,2.9-2.7,4.3-2.5c0.9,0.1,1.4,1.2,1.6,3
	c0.1,1.4,0,3.4-0.3,6c-0.2,2-0.5,4-0.6,5.8c0,0.2,0.2,0.4,0.4,0.8C358,60.2,358,60.5,358,60.9z"/>
<path class="st23" d="M370.2,62.6c-0.3,0.6-1,0.8-2.3,0.8c-0.8,0-1.3-0.2-1.6-0.5c-0.1-0.1-0.1-0.3-0.1-0.5c0-0.2,0.1-0.4,0.2-0.6
	c0.1-0.3,0.2-0.6,0.3-0.7c-1,1.4-2.2,2-3.4,2c-1.7,0-2.9-0.9-3.5-2.9c-0.5-1.5-0.6-3.5-0.3-6c0.3-2.3,1-4.5,2.2-6.6
	c1.3-2.2,2.8-3.4,4.2-3.3c0.8,0,1.6,0.9,2.3,2.5c0.2-1.6,0.4-3.1,0.6-4.7c0.1-0.4,0-0.9-0.2-1.6s-0.3-1.2-0.2-1.5
	c0-0.3,0.1-0.6,0.3-0.7c0.6-1.2,1.5-1.7,2.8-1.6c1,0.1,1.7,0.6,1.7,1.6c0,0.3,0.1,0.6,0,0.9c0,0.3-0.2,0.6-0.4,1.1
	c-0.2,0.5-0.3,0.8-0.4,1.2c-0.9,7.1-1.9,13.2-2.4,19c0,0.2,0,0.5,0.2,0.8c0.1,0.3,0.2,0.6,0.2,0.8C370.3,62.3,370.3,62.5,370.2,62.6
	z M366.8,54.4c0.1-1,0.1-2.2-0.1-3.6c-0.3-1.5-0.6-2.3-1-2.3s-0.9,0.7-1.4,2.1c-0.4,1.1-0.6,2.4-0.8,3.8c0,0.3-0.1,0.6-0.2,1.2
	c-0.1,0.6-0.1,0.9-0.1,1.2c-0.3,2.4,0.2,3.6,1.1,3.6c0.5,0,0.9-0.6,1.5-2C366.3,56.9,366.6,55.6,366.8,54.4z"/>
<path class="st23" d="M383.4,46.6c1.1,1.6,1.4,4,0.9,7.5c-0.4,2.6-1.1,4.8-2.3,6.5c-1.3,2-2.8,3-4.7,3c-1.8,0-3.2-0.9-4.1-2.8
	c-0.7-1.6-1-3.7-0.6-6.2c0.3-2.3,0.9-4.3,1.9-6.3c1-2,2.1-3.2,3.4-3.5c0.6-0.2,1.3-0.2,1.9-0.2C381.4,44.8,382.5,45.4,383.4,46.6z
	 M379.6,48.1c-0.6-0.1-1.4,0.6-2,2c-0.6,1.3-1,2.7-1.2,4c-0.3,2-0.4,3.4-0.3,4.2c0.1,1.5,0.6,2.2,1.6,2.4c0.6,0.1,1.2-0.7,1.8-2.4
	c0.6-1.6,1.1-3.3,1.4-5.2C381.3,49.9,380.9,48.3,379.6,48.1z"/>
<path class="st23" d="M398.5,61c-0.1,0.5-0.5,0.8-1,1.1c-0.6,0.3-1.2,0.5-1.8,0.5c-1,0-1.7-0.3-1.9-0.9c0.8-6.2,1.4-9.4,0.8-9.5
	c-0.5-0.1-2.3,2.7-5,8.4c-0.1,0.6-0.1,1.2-0.2,1.8c-0.1,0.7-0.3,1.3-0.7,1.6c-0.4,0.3-0.8,0.5-1.2,0.5c-0.7,0-1.5-0.4-2.3-1.2
	c-0.2-0.2-0.3-1.7,0.1-4.6c-0.2,1.7,0.1-1.4,1.6-10.1c0-0.2,0.1-0.5,0.1-0.8s0-0.6,0.1-0.7c0.1-0.4,0.2-0.7,0.5-1.1
	c0.3-0.4,0.7-0.6,1.3-0.6c0.6,0,1.1,0.3,1.7,0.6c0.6,0.4,0.8,0.7,0.9,1.1c0.1,0.2,0.1,0.5,0,0.6c0,0.2-0.2,0.5-0.4,0.9
	c-0.3,0.4-0.4,0.6-0.4,0.9c-0.3,1.5-0.5,2.9-0.7,4.3c1.7-2.8,3-4.6,3.9-5.4c1.5-1.5,2.9-2.1,4.4-1.9c0.9,0.1,1.4,0.9,1.5,2.5
	c0.1,1.2-0.1,2.9-0.5,5.2c-0.3,1.8-0.6,3.6-0.8,5.4c0,0.2,0.1,0.4,0.4,0.7C398.5,60.4,398.6,60.6,398.5,61z"/>
<path class="st8" d="M48.9,73.1c133.8,5.2,267.9,5.2,401.6,0"/>
<path class="st24" d="M48.9,73.1c133.8,5.2,267.9,5.2,401.6,0"/>
<rect x="40.6" y="201.9" class="st1" width="112.3" height="64.2"/>
<text transform="matrix(0.9402 0 0 1 30.2773 214.8838)" class="st25 st26">We pride ourselves on our good </text>
<text transform="matrix(0.9681 0 0 1 30.2778 228.9336)" class="st25 st26">reputation for client service, </text>
<text transform="matrix(1 0 0 1 30.2778 243.1331)" class="st25 st26">customer satisfaction and </text>
<text transform="matrix(1 0 0 1 30.2778 257.1859)" class="st25 st26">offering a personalised service.</text>
<path class="st27" d="M107.7,266.1h12.1v14.7h-12.1V266.1z M121,266.1h12.1v14.7H121V266.1z M134.1,266.1h12.1v14.7h-12.1V266.1z
	 M147.3,266.1h12.1v14.7h-12.1V266.1z M160.4,266.1h12.1v14.7h-12.1V266.1z"/>
<path class="st0" d="M113.9,276l1.9-0.6l0.7,2.9L113.9,276z M118.1,272.2h-3.2l-1-3.7l-1,3.7h-3.2l2.7,2.3l-1,3.7l2.7-2.3l1.6-1.5
	L118.1,272.2z M127,276l1.9-0.6l0.7,2.9L127,276z M131.3,272.2H128l-1-3.7l-1,3.7h-3.2l2.7,2.3l-1,3.7l2.7-2.3l1.6-1.5L131.3,272.2z
	 M140.2,276l1.9-0.6l0.7,2.9L140.2,276z M144.5,272.2h-3.2l-1-3.7l-1,3.7H136l2.7,2.3l-1,3.7l2.7-2.3l1.6-1.5L144.5,272.2z
	 M153.4,276l1.9-0.6l0.7,2.9L153.4,276z M157.7,272.2h-3.2l-1-3.7l-1,3.7h-3.2l2.7,2.3l-1,3.7l2.7-2.3l1.6-1.5L157.7,272.2z
	 M166.6,276l1.9-0.6l0.7,2.9L166.6,276z M170.8,272.2h-3.2l-1-3.7l-1,3.7h-3.2l2.7,2.3l-1,3.7l2.7-2.3l1.6-1.5L170.8,272.2z"/>
<path d="M49.2,268.4h7.5v1.3h-2.9v7.7h-1.6v-7.7h-2.9C49.2,269.7,49.2,268.4,49.2,268.4z M56.2,270.9h1.4v1.3l0,0
	c0-0.2,0.2-0.3,0.3-0.6c0.2-0.2,0.3-0.3,0.5-0.5c0.2-0.2,0.5-0.3,0.6-0.3c0.2-0.2,0.5-0.2,0.6-0.2c0.2,0,0.3,0,0.3,0h0.2v1.5
	c-0.2,0-0.2,0-0.3,0c-0.2,0-0.2,0-0.3,0c-0.3,0-0.5,0-0.7,0.2c-0.3,0.2-0.5,0.3-0.6,0.5c-0.2,0.2-0.3,0.5-0.5,0.7s-0.2,0.6-0.2,1
	v3.2h-1.5L56.2,270.9z M66.9,277.5h-1.5v-0.9l0,0c-0.2,0.3-0.5,0.6-0.9,0.9c-0.3,0.2-0.7,0.3-1,0.3c-0.9,0-1.5-0.2-1.9-0.6
	c-0.5-0.5-0.6-1-0.6-1.9V271h1.5v4.1c0,0.6,0.2,1,0.3,1.2c0.3,0.3,0.6,0.5,0.9,0.5c0.3,0,0.6,0,0.7-0.2c0.2-0.2,0.5-0.3,0.5-0.5
	c0.2-0.2,0.3-0.3,0.3-0.6s0.2-0.5,0.2-0.7v-3.8h1.4L66.9,277.5L66.9,277.5z M69.4,275.4c0,0.5,0.2,0.7,0.5,0.9
	c0.3,0.2,0.6,0.3,1,0.3c0.2,0,0.3,0,0.5,0s0.3,0,0.5-0.2c0.2,0,0.3-0.2,0.5-0.3c0.2-0.2,0.2-0.3,0.2-0.5c0-0.2-0.2-0.3-0.2-0.5
	c-0.2-0.2-0.3-0.2-0.5-0.3c-0.2-0.2-0.5-0.2-0.7-0.2s-0.6-0.2-0.7-0.2s-0.6-0.2-0.7-0.3c-0.3-0.2-0.5-0.2-0.7-0.3
	c-0.2-0.2-0.5-0.3-0.5-0.6c-0.2-0.3-0.2-0.5-0.2-0.9c0-0.5,0.2-0.7,0.3-0.9c0.2-0.3,0.5-0.5,0.7-0.6c0.3-0.2,0.6-0.3,0.9-0.3
	s0.6-0.2,0.9-0.2c0.3,0,0.7,0,1,0.2c0.3,0.2,0.6,0.2,0.9,0.3c0.3,0.2,0.5,0.5,0.6,0.6c0.2,0.3,0.3,0.6,0.3,0.9h-1.6
	c-0.2-0.3-0.3-0.6-0.5-0.7c-0.3-0.2-0.6-0.2-0.9-0.2c-0.2,0-0.3,0-0.5,0s-0.3,0-0.5,0.2c-0.2,0-0.3,0.2-0.3,0.2s-0.2,0.2-0.2,0.3
	c0,0.2,0,0.3,0.2,0.5c0.2,0.2,0.3,0.2,0.5,0.3c0.2,0.2,0.5,0.2,0.7,0.2s0.6,0.2,0.7,0.2c0.3,0,0.6,0.2,0.7,0.3
	c0.3,0.2,0.5,0.2,0.7,0.3c0.2,0.2,0.5,0.3,0.5,0.6s0.2,0.5,0.2,0.9c0,0.5-0.2,0.7-0.3,1c-0.2,0.3-0.5,0.5-0.7,0.7
	c-0.3,0.2-0.6,0.3-1,0.5c-0.3,0.2-0.7,0.2-1,0.2c-0.5,0-0.9,0-1.2-0.2c-0.3-0.2-0.7-0.3-0.9-0.5c-0.3-0.2-0.5-0.5-0.6-0.7
	c-0.2-0.3-0.3-0.6-0.3-1H69.4L69.4,275.4L69.4,275.4z M74.2,270.9h1.2v-2h1.5v2h1.3v1h-1.3v3.5c0,0.2,0,0.3,0,0.5
	c0,0.2,0,0.2,0.2,0.3c0,0.2,0.2,0.2,0.2,0.2c0.2,0,0.3,0,0.5,0c0.2,0,0.2,0,0.3,0s0.2,0,0.3,0v1.2c-0.2,0-0.3,0-0.5,0
	c-0.2,0-0.3,0-0.5,0c-0.5,0-0.7,0-0.9-0.2c-0.3-0.2-0.5-0.2-0.6-0.3c-0.2-0.2-0.3-0.3-0.3-0.6c0-0.2-0.2-0.5-0.2-0.7v-4h-1.2
	L74.2,270.9L74.2,270.9z M79.2,270.9h1.3v0.9l0,0c0.2-0.5,0.5-0.7,0.9-0.9c0.5-0.2,0.7-0.3,1.2-0.3c0.6,0,1,0.2,1.3,0.3
	c0.5,0.2,0.7,0.5,1,0.7c0.3,0.3,0.5,0.7,0.6,1.2c0.2,0.5,0.2,0.9,0.2,1.3c0,0.5,0,0.9-0.2,1.3c-0.2,0.4-0.3,0.7-0.6,1.2
	c-0.3,0.3-0.6,0.6-0.9,0.7c-0.3,0.2-0.7,0.3-1.3,0.3c-0.2,0-0.5,0-0.6,0c-0.2,0-0.5-0.2-0.6-0.2c-0.2-0.2-0.5-0.2-0.6-0.3
	c-0.2-0.2-0.3-0.3-0.5-0.5l0,0v3.4h-1.5L79.2,270.9L79.2,270.9z M84.3,274.3c0-0.3,0-0.6-0.2-0.9c-0.2-0.3-0.2-0.6-0.3-0.7
	c-0.2-0.3-0.3-0.5-0.6-0.6c-0.3-0.2-0.5-0.2-0.7-0.2c-0.6,0-1,0.2-1.5,0.6c-0.3,0.5-0.5,1-0.5,1.7c0,0.3,0,0.6,0.2,0.9
	c0.2,0.4,0.2,0.6,0.5,0.7c0.2,0.2,0.3,0.5,0.6,0.5c0.3,0.2,0.5,0.2,0.7,0.2c0.3,0,0.6-0.2,0.9-0.2c0.3-0.2,0.5-0.3,0.6-0.6
	c0.2-0.3,0.3-0.5,0.3-0.7C84.1,274.8,84.3,274.5,84.3,274.3z M86.8,268.4h1.5v1.3h-1.5V268.4z M86.8,270.9h1.5v6.6h-1.5V270.9z
	 M89.6,268.4H91v9.2h-1.5V268.4z M95.6,277.8c-0.6,0-1-0.2-1.5-0.3c-0.5-0.2-0.7-0.5-1-0.7c-0.3-0.3-0.5-0.7-0.6-1.2
	c-0.2-0.5-0.3-0.9-0.3-1.5s0.2-1,0.3-1.5c0.2-0.5,0.5-0.7,0.6-1.2c0.3-0.3,0.6-0.6,1-0.7c0.5-0.2,0.9-0.3,1.5-0.3
	c0.6,0,1,0.2,1.5,0.3c0.5,0.2,0.7,0.5,1,0.7c0.3,0.3,0.5,0.7,0.6,1.2c0.1,0.5,0.3,0.9,0.3,1.5s-0.2,1-0.3,1.5
	c-0.1,0.5-0.5,0.7-0.6,1.2c-0.3,0.3-0.6,0.6-1,0.7C96.6,277.6,96,277.8,95.6,277.8z M95.6,276.6c0.3,0,0.6-0.2,0.9-0.2
	c0.3-0.2,0.5-0.3,0.6-0.6c0.2-0.3,0.3-0.5,0.3-0.7c0.2-0.3,0.2-0.6,0.2-0.9c0-0.3,0-0.6-0.2-0.9c-0.2-0.3-0.2-0.6-0.3-0.7
	c-0.2-0.3-0.3-0.5-0.6-0.6c-0.3-0.2-0.6-0.2-0.9-0.2c-0.3,0-0.6,0.2-0.9,0.2c-0.3,0.2-0.5,0.3-0.6,0.6c-0.2,0.3-0.3,0.5-0.3,0.7
	c-0.2,0.3-0.2,0.6-0.2,0.9c0,0.3,0,0.6,0.2,0.9c0.2,0.3,0.2,0.6,0.3,0.7c0.2,0.3,0.3,0.5,0.6,0.6C95,276.5,95.3,276.6,95.6,276.6z
	 M99.4,270.9h1.2v-2h1.5v2h1.3v1h-1.3v3.5c0,0.2,0,0.3,0,0.5c0,0.2,0,0.2,0.2,0.3c0,0.2,0.2,0.2,0.2,0.2c0.2,0,0.3,0,0.5,0
	c0.2,0,0.2,0,0.3,0c0.2,0,0.2,0,0.3,0v1.2c-0.2,0-0.3,0-0.5,0c-0.2,0-0.3,0-0.5,0c-0.5,0-0.7,0-0.9-0.2c-0.3-0.2-0.5-0.2-0.6-0.3
	c-0.2-0.2-0.3-0.3-0.3-0.6c0-0.2-0.2-0.5-0.2-0.7v-4h-1.2V270.9L99.4,270.9z"/>
<path class="st27" d="M47.4,268.4h-6.7l-2-6.4l-2,6.4H30l5.4,4l-2,6.4l5.4-4l5.4,4l-2-6.4L47.4,268.4z"/>
<path class="st28" d="M409.7,269.6c0,0.7,2.8,1.3,6.8,1.5c0.9,0,1.8,0.1,2.8,0.1c5.3,0,9.6-0.7,9.6-0.7s-1.8,0-3.2,0
	c-1.5,0-2.4-0.2-2.4-0.2s2.3,0.1,3.9,0c1.8-0.1,2.6-0.3,4.3-0.4c1.9-0.1,4,0,4,0s-1.2-0.5-4.3-0.8c-3.5-0.4-8.1-0.1-8.1-0.1
	s1.3,0,2.3-0.3c1-0.2,2.6-0.1,2.6-0.1s-3.9-0.5-8.6-0.5c-1.3,0-2.5,0-3.8,0.1C411.9,268.5,409.7,269,409.7,269.6L409.7,269.6z"/>
<path class="st29" d="M428.9,270.5c0,0-1,0-2,0c-1.7,0.2-4,0.3-6.5,0.3c-1,0-1.9,0-2.8-0.1c-4.1-0.2-6.8-0.8-6.8-1.5
	c0-0.2,0.2-0.3,0.6-0.5c-1.1,0.3-1.7,0.5-1.7,0.8c0,0.7,2.8,1.3,6.8,1.5c0.9,0,1.8,0.1,2.8,0.1C424.6,271.1,428.9,270.5,428.9,270.5
	L428.9,270.5z"/>
<path class="st30" d="M416.9,270.4c2.7,0,4.4-0.3,5.5-0.5c2-0.3,4.3-0.3,4.3-0.3s-3.3-0.6-6-0.7c-2.6-0.1-4.1,0.1-4.1,0.1
	s0.3-0.1,0.7-0.2c0.6-0.1,1.3-0.1,1.3-0.1s-0.5,0-2.4,0c-1.3,0-2.3,0.1-3,0.3c-1.8,0.3-1.6,0.8,0.3,1
	C414.4,270.3,415.5,270.4,416.9,270.4z"/>
<path class="st31" d="M416.8,269.2C416.8,269.2,416.9,269.2,416.8,269.2c0.2,0,1-0.2,2.6-0.2c0.4,0,0.8,0,1.1,0c0.5,0,1.2,0,1.8,0.1
	c0.1,0,0.1,0,0.1,0c-0.1,0-0.2,0-0.3,0c-0.6,0-1.2-0.1-1.7-0.1c-0.3,0-0.7,0-1,0c-1.4,0-2.2,0.1-2.3,0.1c-0.1,0-0.2,0-0.3,0
	C416.9,269.2,416.8,269.2,416.8,269.2L416.8,269.2z M422.8,269.3L422.8,269.3c0.1,0,0.3,0,0.3,0h0.1c0.1,0,0.1,0,0,0s-0.2,0-0.3,0
	L422.8,269.3C422.8,269.3,422.8,269.3,422.8,269.3z"/>
<path class="st32" d="M422.4,270c2-0.3,4.3-0.3,4.3-0.3s-1-0.2-2.5-0.4c-1.1,0.2-2.8,0.4-5.1,0.4c-1.4,0-2.5-0.1-3.3-0.2
	c-1-0.1-1.5-0.3-1.5-0.5c-0.4,0-0.7,0.1-1,0.1c-1.8,0.3-1.6,0.8,0.3,1c0.8,0.1,1.9,0.2,3.3,0.2C419.6,270.4,421.3,270.1,422.4,270
	L422.4,270z"/>
<path class="st33" d="M422.4,270c2-0.3,4.3-0.3,4.3-0.3s-0.7-0.1-1.6-0.3c-0.5,0-1,0.1-1.5,0.2c-1.1,0.2-2.8,0.5-5.5,0.5
	c-1.4,0-2.5-0.1-3.3-0.2c-1.3-0.2-1.8-0.5-1.5-0.7c-1.8,0.3-1.5,0.8,0.4,1c0.8,0.1,1.9,0.2,3.3,0.2
	C419.6,270.4,421.3,270.1,422.4,270L422.4,270z"/>
<path class="st28" d="M436,270.2c0,0-0.8-0.2-2.4-0.2c-0.8,0-1.5,0.1-2.2,0.1c-0.7,0-1.6,0-1.6,0s0.8,0.1,2.5,0.2
	c0.7,0,1.5,0,2.1-0.1C435.3,270.2,436,270.2,436,270.2z"/>
<path class="st28" d="M428.5,268.7c0,0,1.1-0.2,2.6-0.1c0.8,0,1.3,0.2,1.9,0.3c0.6,0.1,1.6,0.1,1.6,0.1s-0.7,0.1-2.1,0
	c-0.9,0-1.5-0.2-2.1-0.2C429.6,268.7,428.5,268.7,428.5,268.7z"/>
<path class="st34" d="M402.8,268.5c-2.6,0-4.8,2.2-4.8,4.8c0,2.6,2.2,4.8,4.8,4.8c2.6,0,4.8-2.2,4.8-4.8
	C407.6,270.7,405.4,268.5,402.8,268.5z M402.8,276.3c-1.7,0-3-1.4-3-3c0-1.6,1.4-3,3-3c1.6,0,3,1.4,3,3
	C405.8,274.9,404.5,276.3,402.8,276.3z"/>
<path class="st35" d="M404.6,279.6c3.6-0.6,6.3-2.8,6.3-5.5c0-1.3-0.7-2.5-1.8-3.5h1.9v-2.1h-8.3c-4.5,0-8.2,2.5-8.2,5.6
	c0,2.7,2.7,4.9,6.4,5.5c0.5,0.1,1.1,0.1,1.8,0.1C403.5,279.7,404.1,279.7,404.6,279.6L404.6,279.6z"/>
<ellipse class="st36" cx="402.8" cy="274.1" rx="5.1" ry="3.5"/>
<ellipse class="st32" cx="402.8" cy="274.1" rx="3.5" ry="2.4"/>
<ellipse class="st35" cx="402.8" cy="274.1" rx="1.1" ry="0.8"/>
<rect x="411.1" y="268.2" class="st36" width="1.7" height="2.7"/>
<rect x="405.1" y="267.4" class="st35" width="3.2" height="1.1"/>
<rect x="404.8" y="266.2" class="st36" width="3.9" height="1.1"/>
<path d="M408.3,274.1c0-2.1-2.5-3.8-5.5-3.8s-5.5,1.7-5.5,3.8c0,2.1,2.5,3.8,5.5,3.8S408.3,276.2,408.3,274.1z M398.1,274.1
	c0-1.8,2.1-3.3,4.7-3.3c2.6,0,4.7,1.5,4.7,3.3c0,1.8-2.1,3.3-4.7,3.3C400.2,277.4,398.1,275.9,398.1,274.1z"/>
<path d="M406.7,274.1c0-1.5-1.8-2.7-3.9-2.7s-3.9,1.2-3.9,2.7s1.8,2.7,3.9,2.7S406.7,275.6,406.7,274.1z M401.3,276
	c0.4-0.3,0.7-0.6,0.9-0.9c0.1,0,0.2,0,0.3,0.1c0.2,0.3,0.4,0.6,0.4,1.1h-0.1C402.3,276.3,401.8,276.2,401.3,276z M402.8,273.6
	c0.4,0,0.8,0.2,0.8,0.5s-0.3,0.5-0.8,0.5c-0.4,0-0.8-0.2-0.8-0.5S402.4,273.6,402.8,273.6z M403.7,276.2c0-0.4-0.2-0.8-0.3-1.1
	c0.1,0,0.2-0.1,0.3-0.1c0.4,0.1,0.9,0.3,1.4,0.6C404.7,275.8,404.3,276,403.7,276.2L403.7,276.2z M405.5,275.1
	c-0.5-0.3-0.9-0.5-1.3-0.6c0-0.1,0.1-0.2,0.1-0.3c0.4-0.1,0.9-0.3,1.6-0.3v0.1C405.9,274.5,405.8,274.8,405.5,275.1L405.5,275.1z
	 M405.8,273.5c-0.6,0-1.2,0.1-1.6,0.2c0-0.1-0.1-0.2-0.2-0.2c0.1-0.3,0.4-0.6,0.9-1C405.3,272.8,405.6,273.1,405.8,273.5
	L405.8,273.5z M404.3,272.2c-0.4,0.3-0.7,0.6-0.9,0.9c-0.1,0-0.2,0-0.3-0.1c-0.2-0.3-0.4-0.6-0.4-1.1h0.1
	C403.3,272,403.8,272.1,404.3,272.2z M401.9,272.1c0,0.4,0.2,0.8,0.3,1.1c-0.1,0-0.2,0.1-0.3,0.1c-0.4-0.1-0.9-0.3-1.4-0.6
	C400.9,272.4,401.3,272.2,401.9,272.1L401.9,272.1z M400,273.1c0.5,0.3,0.9,0.5,1.3,0.6c0,0.1-0.1,0.2-0.1,0.3
	c-0.4,0.1-0.9,0.3-1.6,0.3v-0.1C399.7,273.8,399.8,273.4,400,273.1L400,273.1z M399.8,274.8c0.6,0,1.2-0.1,1.6-0.2
	c0,0.1,0.1,0.2,0.2,0.2c-0.1,0.3-0.4,0.6-0.9,1C400.2,275.4,400,275.1,399.8,274.8L399.8,274.8z"/>
<ellipse cx="402.8" cy="279.7" rx="0.4" ry="0.3"/>
<path d="M412.7,267.9h-1.7c-0.2,0-0.4,0.1-0.4,0.3v0c-0.4,0-1.1,0-2,0v-0.6c0.2,0,0.3-0.1,0.3-0.3v-1.1c0-0.2-0.2-0.3-0.4-0.3h-3.9
	c-0.2,0-0.4,0.1-0.4,0.3v1.1c0,0.1,0.2,0.3,0.3,0.3v0.6h-1.8c0,0-0.1,0-0.2,0l0,0c-4.6,0-8.4,2.6-8.4,5.9c0,1.3,0.7,2.7,1.9,3.7
	c1.2,1,2.9,1.8,4.8,2h0.1c0.2,0,0.3-0.1,0.4-0.2c0-0.2-0.1-0.3-0.3-0.3c-3.5-0.6-6-2.8-6-5.2c0-2.9,3.5-5.3,7.8-5.3l0,0
	c0.1,0,3.3,0,5.8,0h2.1v1.5h-0.2c-0.5,0-1.3,0-1.3,0c-0.1,0-0.2,0-0.3,0c-0.2,0.1-0.2,0.3-0.1,0.4l0,0c1.1,1,1.7,2.1,1.7,3.3
	c0,2.5-2.5,4.6-6,5.2c-0.2,0-0.3,0.2-0.3,0.3c0,0.1,0.2,0.2,0.4,0.2h0.1c1.9-0.3,3.5-1,4.8-2c1.2-1,1.9-2.3,1.9-3.7
	c0-1.2-0.5-2.3-1.4-3.3h0.5c0.1,0,0.1,0,0.2,0v0c0,0.2,0.2,0.3,0.4,0.3h1.7c0.2,0,0.4-0.1,0.4-0.3v-2.7
	C413.1,268,412.9,267.9,412.7,267.9z M405.2,266.5h3.1v0.6h-3.1C405.2,267.1,405.2,266.5,405.2,266.5z M405.5,268.2v-0.6h2.4v0.6
	H405.5z M412.3,270.6h-0.9v-2.2h0.9V270.6z"/>
<text transform="matrix(0.9861 0 0 1 411.8487 279.4334)" class="st20 st25 st37">T</text>
<text transform="matrix(0.9861 0 0 1 415.0606 279.4334)" class="st20 st25 st37">u</text>
<text transform="matrix(0.9861 0 0 1 419.1514 279.4334)" class="st20 st25 st37">r</text>
<text transform="matrix(0.9861 0 0 1 423.0313 279.4334)" class="st20 st25 st37">b</text>
<text transform="matrix(0.9861 0 0 1 427.3702 279.4334)" class="st20 st25 st37">o</text>
<text transform="matrix(0.9861 0 0 1 431.0831 279.4334)" class="st12 st25 st37">R</text>
<text transform="matrix(0.9861 0 0 1 436.5069 279.4334)" class="st12 st25 st37">e</text>
<text transform="matrix(0.9861 0 0 1 440.4288 279.4334)" class="st12 st25 st37">p</text>
<text transform="matrix(0.9861 0 0 1 444.7256 279.4334)" class="st12 st25 st37">a</text>
<text transform="matrix(0.9861 0 0 1 449.2315 279.4334)" class="st12 st25 st37">i</text>
<text transform="matrix(0.9861 0 0 1 451.5255 279.4334)" class="st12 st25 st37">rs</text>
</svg>
