<?xml version="1.0" encoding="utf-8"?>
<!-- Generator: Adobe Illustrator 26.0.2, SVG Export Plug-In . SVG Version: 6.00 Build 0)  -->
<svg version="1.0" id="_x2018_ÎÓÈ_x5F_1" xmlns="http://www.w3.org/2000/svg" xmlns:xlink="http://www.w3.org/1999/xlink"
	 x="0px" y="0px" viewBox="0 0 615 320" style="enable-background:new 0 0 615 320;" xml:space="preserve">
<style type="text/css">
	.st0{fill:#90B4DF;}
	.st1{opacity:0.54;fill:#6B72A2;enable-background:new    ;}
	.st2{fill:#BFBFD8;}
	.st3{fill:#262F6D;}
	.st4{opacity:0.51;fill:#6B72A2;enable-background:new    ;}
	.st5{fill:#46547F;}
	.st6{fill:#6672A2;}
	.st7{opacity:0.57;}
	.st8{fill:#6B72A2;}
	.st9{fill:#FFFFFF;}
	.st10{fill:#000544;}
	.st11{opacity:0.51;}
	.st12{clip-path:url(#SVGID_00000012434005911276570440000011329575432151782542_);}
	.st13{filter:url(#Adobe_OpacityMaskFilter);}
	.st14{clip-path:url(#SVGID_00000161622124163969937390000004535669402229299384_);}
	.st15{clip-path:url(#SVGID_00000081626969958003030530000009508158623234781370_);}
	
		.st16{clip-path:url(#SVGID_00000083804731814206687980000004626964445374284450_);fill:url(#SVGID_00000044159811379360692650000008081600118247389613_);}
	
		.st17{clip-path:url(#SVGID_00000161622124163969937390000004535669402229299384_);mask:url(#SVGID_00000109008973778823658500000015457516981958023565_);fill:url(#SVGID_00000032617619674295625640000013506640323917720216_);}
	.st18{opacity:0.45;}
	.st19{fill:url(#SVGID_00000169521634519086813820000004996738358947499678_);}
	.st20{fill:#4D4E6E;}
	.st21{fill:#FFEB9C;}
	.st22{fill:#242542;}
	.st23{fill:#FFC973;}
	.st24{fill:#F21D4B;}
	.st25{fill:#000543;}
	.st26{fill:#A91D4B;}
	.st27{fill:#6C6E8C;}
	.st28{fill:#9897B6;}
	.st29{fill:#FFEB9A;}
	.st30{fill:#FFC974;}
	.st31{fill:#B9C9EE;}
	.st32{opacity:0.76;fill:#6672A2;enable-background:new    ;}
	.st33{fill:#3D4D9B;}
	.st34{fill:#BEBED3;}
</style>
<g>
	<rect x="-0.2" y="5.7" class="st0" width="615" height="314.3"/>
	<path class="st1" d="M543,126.4h-9.4v16.9h-5.2v-18.4H427.6v18.4h-10v-22.6h-26.3v22.6H385v-12.2h-46.3v12.2h-10.5v-25h-55.7v25.1
		h-50.7v181h314.1V320h7.2V126.4H543z M231.1,148.4h302.6v34h-21.9v-23.1h-13.9v23.1H490v-15.7h-50.4v15.7h-6.5v-27.6H332.2v27.6
		h-8.1v-9.5h-60.6v9.5h-32.4V148.4z M231.1,188.1h302.6v33.5h-21.9v-29.4H365.1v29.4h-13.6v-12.8h-23.4v12.8h-6.5v-26.5h-55.9v26.5
		h-34.5v-33.5H231.1z M231.1,227.3h302.6v33.5H231.1V227.3z M231.1,266.5h302.6v34.4H231.1V266.5z"/>
	<rect x="22.7" y="104.1" class="st2" width="52.3" height="7.3"/>
	<path class="st3" d="M75.2,138H22.4c-2.2,0-3.9-1.8-3.9-3.9v-21c0-2.2,1.8-3.9,3.9-3.9h52.9c2.2,0,3.9,1.8,3.9,3.9v21
		C79.2,136.3,77.4,138,75.2,138z"/>
	<path class="st3" d="M75.4,107H22.2c-2.1,0-3.8-1.7-3.8-3.8V82c0-2.1,1.7-3.8,3.8-3.8h53.1c2.1,0,3.8,1.7,3.8,3.8v21.2
		C79.2,105.3,77.5,107,75.4,107z"/>
	<polygon class="st4" points="186.4,143.1 186.4,138 8.9,138 8.9,320.3 186.4,320.3 186.4,296.8 41.2,296.8 41.2,273.1 18.7,273.1 
		18.7,296.8 14,296.8 14,262.1 186.4,262.1 186.4,256.4 178.9,256.4 178.9,236.7 142.8,236.7 142.8,256.4 62.8,256.4 62.8,234.5 
		18.2,234.5 18.2,256.4 14,256.4 14,222.6 186.4,222.6 186.4,216.9 181.3,216.9 181.3,187.8 161.1,187.8 161.1,216.9 153.7,216.9 
		153.7,198.5 139.8,198.5 139.8,216.9 61.5,216.9 61.5,187.8 16.9,187.8 16.9,216.9 14,216.9 14,183.2 186.4,183.2 186.4,177.4 
		172,177.4 172,151.5 89.5,151.5 89.5,177.4 62.1,177.4 62.1,152.2 31.4,152.2 31.4,177.4 14,177.4 14,143.1 	"/>
	<g>
		<path class="st5" d="M117.6,320H54.9c-2.6,0-4.8-2.1-4.8-4.8V133.3c0-2.6,2.1-4.8,4.8-4.8h62.7c2.6,0,4.8,2.1,4.8,4.8v181.9
			C122.3,317.8,120.2,320,117.6,320z"/>
		<rect x="86.8" y="128.5" class="st6" width="1" height="125.1"/>
		<rect x="49.9" y="253.1" class="st6" width="72.4" height="1.2"/>
		<rect x="49.9" y="283.5" class="st6" width="72.4" height="1.2"/>
	</g>
	<g class="st7">
		<path class="st8" d="M254.6,109.2H100.1c-3.8,0-6.9-3.6-6.9-8.1V51.9c0-4.5,3.1-8.1,6.9-8.1h154.5c3.8,0,6.9,3.6,6.9,8.1v49.2
			C261.5,105.6,258.4,109.2,254.6,109.2z M100.1,45c-3.3,0-5.9,3.1-5.9,6.9v49.2c0,3.8,2.6,6.9,5.9,6.9h154.5c3.3,0,5.9-3.1,5.9-6.9
			V51.9c0-3.8-2.6-6.9-5.9-6.9H100.1z"/>
	</g>
	<g>
		<g>
			<path class="st9" d="M420,25.3c0,0.1,0,0.1,0,0.2c0,3.1,2.1,5.7,4.8,5.7h159c2.6,0,4.8-2.5,4.8-5.7c0-0.1,0-0.1,0-0.2H420z"/>
			<path class="st10" d="M589,26.8H419.8c-1.3,0-2.3-1.2-2.3-2.8s1.1-2.8,2.3-2.8H589c1.3,0,2.3,1.2,2.3,2.8S590.3,26.8,589,26.8z"
				/>
			<rect x="423.1" y="5.7" class="st10" width="0.7" height="17.3"/>
			<rect x="585.1" y="5.7" class="st10" width="0.7" height="17.3"/>
		</g>
		<g>
			<path class="st9" d="M34.7,25.3c0,0.1,0,0.1,0,0.2c0,3.1,2.1,5.7,4.8,5.7h159c2.6,0,4.8-2.5,4.8-5.7c0-0.1,0-0.1,0-0.2H34.7z"/>
			<path class="st10" d="M203.7,26.8H34.5c-1.3,0-2.3-1.2-2.3-2.8s1.1-2.8,2.3-2.8h169.2c1.3,0,2.3,1.2,2.3,2.8S205,26.8,203.7,26.8
				z"/>
			<rect x="37.9" y="5.7" class="st10" width="0.7" height="17.3"/>
			<rect x="199.9" y="5.7" class="st10" width="0.7" height="17.3"/>
		</g>
	</g>
	<rect x="-0.2" y="319.8" class="st6" width="615" height="55.6"/>
	<g>
		<g class="st11">
			<g>
				<path class="st5" d="M2.6,349.1c-0.3-0.1-0.8-0.1-1.1,0.1l-1.7,1.1v1.3l2.8-1.9C2.9,349.5,2.9,349.2,2.6,349.1z"/>
				<path class="st5" d="M16.9,354.8c-0.2,0-0.3,0-0.5-0.1c-0.3-0.1-0.4-0.4-0.1-0.6l7.6-5c0.3-0.2,0.7-0.2,1.1-0.1
					c0.3,0.1,0.4,0.4,0.1,0.6l-7.6,5C17.3,354.7,17.1,354.8,16.9,354.8z"/>
				<path class="st5" d="M39.2,354.8c-0.2,0-0.3,0-0.5-0.1c-0.3-0.1-0.4-0.4-0.1-0.6l7.6-5c0.3-0.2,0.7-0.2,1.1-0.1
					c0.3,0.1,0.4,0.4,0.1,0.6l-7.6,5C39.6,354.7,39.4,354.8,39.2,354.8z"/>
				<path class="st5" d="M61.6,354.8c-0.2,0-0.3,0-0.5-0.1c-0.3-0.1-0.4-0.4-0.1-0.6l7.6-5c0.3-0.2,0.7-0.2,1.1-0.1
					c0.3,0.1,0.4,0.4,0.1,0.6l-7.6,5C62,354.7,61.8,354.8,61.6,354.8z"/>
				<path class="st5" d="M83.9,354.8c-0.2,0-0.3,0-0.5-0.1c-0.3-0.1-0.4-0.4-0.1-0.6l7.6-5c0.3-0.2,0.7-0.2,1.1-0.1
					c0.3,0.1,0.4,0.4,0.1,0.6l-7.6,5C84.3,354.7,84.1,354.8,83.9,354.8z"/>
				<path class="st5" d="M106.3,354.8c-0.2,0-0.3,0-0.5-0.1c-0.3-0.1-0.4-0.4-0.1-0.6l7.6-5c0.3-0.2,0.7-0.2,1.1-0.1
					c0.3,0.1,0.4,0.4,0.1,0.6l-7.6,5C106.7,354.7,106.5,354.8,106.3,354.8z"/>
				<path class="st5" d="M128.6,354.8c-0.2,0-0.3,0-0.5-0.1c-0.3-0.1-0.4-0.4-0.1-0.6l7.6-5c0.3-0.2,0.7-0.2,1.1-0.1
					c0.3,0.1,0.4,0.4,0.1,0.6l-7.6,5C129.1,354.7,128.8,354.8,128.6,354.8z"/>
				<path class="st5" d="M151,354.8c-0.2,0-0.3,0-0.5-0.1c-0.3-0.1-0.4-0.4-0.1-0.6l7.6-5c0.3-0.2,0.7-0.2,1.1-0.1
					c0.3,0.1,0.4,0.4,0.1,0.6l-7.6,5C151.4,354.7,151.2,354.8,151,354.8z"/>
				<path class="st5" d="M173.3,354.8c-0.2,0-0.3,0-0.5-0.1c-0.3-0.1-0.4-0.4-0.1-0.6l7.6-5c0.3-0.2,0.7-0.2,1.1-0.1
					c0.3,0.1,0.4,0.4,0.1,0.6l-7.6,5C173.8,354.7,173.5,354.8,173.3,354.8z"/>
				<path class="st5" d="M195.7,354.8c-0.2,0-0.3,0-0.5-0.1c-0.3-0.1-0.4-0.4-0.1-0.6l7.6-5c0.3-0.2,0.7-0.2,1.1-0.1
					c0.3,0.1,0.4,0.4,0.1,0.6l-7.6,5C196.1,354.7,195.9,354.8,195.7,354.8z"/>
				<path class="st5" d="M218,354.8c-0.2,0-0.3,0-0.5-0.1c-0.3-0.1-0.4-0.4-0.1-0.6l7.6-5c0.3-0.2,0.7-0.2,1.1-0.1
					c0.3,0.1,0.4,0.4,0.1,0.6l-7.6,5C218.5,354.7,218.2,354.8,218,354.8z"/>
				<path class="st5" d="M240.4,354.8c-0.2,0-0.3,0-0.5-0.1c-0.3-0.1-0.4-0.4-0.1-0.6l7.6-5c0.3-0.2,0.7-0.2,1.1-0.1
					c0.3,0.1,0.4,0.4,0.1,0.6l-7.6,5C240.8,354.7,240.6,354.8,240.4,354.8z"/>
				<path class="st5" d="M262.7,354.8c-0.2,0-0.3,0-0.5-0.1c-0.3-0.1-0.4-0.4-0.1-0.6l7.6-5c0.3-0.2,0.7-0.2,1.1-0.1
					c0.3,0.1,0.4,0.4,0.1,0.6l-7.6,5C263.2,354.7,262.9,354.8,262.7,354.8z"/>
				<path class="st5" d="M285.1,354.8c-0.2,0-0.3,0-0.5-0.1c-0.3-0.1-0.4-0.4-0.1-0.6l7.6-5c0.3-0.2,0.7-0.2,1.1-0.1
					c0.3,0.1,0.4,0.4,0.1,0.6l-7.6,5C285.5,354.7,285.3,354.8,285.1,354.8z"/>
				<path class="st5" d="M307.4,354.8c-0.2,0-0.3,0-0.5-0.1c-0.3-0.1-0.4-0.4-0.1-0.6l7.6-5c0.3-0.2,0.7-0.2,1.1-0.1
					c0.3,0.1,0.4,0.4,0.1,0.6l-7.6,5C307.9,354.7,307.7,354.8,307.4,354.8z"/>
				<path class="st5" d="M329.8,354.8c-0.2,0-0.3,0-0.5-0.1c-0.3-0.1-0.4-0.4-0.1-0.6l7.6-5c0.3-0.2,0.7-0.2,1.1-0.1
					c0.3,0.1,0.4,0.4,0.1,0.6l-7.6,5C330.2,354.7,330,354.8,329.8,354.8z"/>
				<path class="st5" d="M352.1,354.8c-0.2,0-0.3,0-0.5-0.1c-0.3-0.1-0.4-0.4-0.1-0.6l7.6-5c0.3-0.2,0.7-0.2,1.1-0.1
					c0.3,0.1,0.4,0.4,0.1,0.6l-7.6,5C352.6,354.7,352.4,354.8,352.1,354.8z"/>
				<path class="st5" d="M374.5,354.8c-0.2,0-0.3,0-0.5-0.1c-0.3-0.1-0.4-0.4-0.1-0.6l7.6-5c0.3-0.2,0.7-0.2,1.1-0.1
					c0.3,0.1,0.4,0.4,0.1,0.6l-7.6,5C374.9,354.7,374.7,354.8,374.5,354.8z"/>
				<path class="st5" d="M396.8,354.8c-0.2,0-0.3,0-0.5-0.1c-0.3-0.1-0.4-0.4-0.1-0.6l7.6-5c0.3-0.2,0.7-0.2,1.1-0.1
					c0.3,0.1,0.4,0.4,0.1,0.6l-7.6,5C397.3,354.7,397.1,354.8,396.8,354.8z"/>
				<path class="st5" d="M419.2,354.8c-0.2,0-0.3,0-0.5-0.1c-0.3-0.1-0.4-0.4-0.1-0.6l7.6-5c0.3-0.2,0.7-0.2,1.1-0.1
					c0.3,0.1,0.4,0.4,0.1,0.6l-7.6,5C419.6,354.7,419.4,354.8,419.2,354.8z"/>
				<path class="st5" d="M441.5,354.8c-0.2,0-0.3,0-0.5-0.1c-0.3-0.1-0.4-0.4-0.1-0.6l7.6-5c0.3-0.2,0.7-0.2,1.1-0.1
					c0.3,0.1,0.4,0.4,0.1,0.6l-7.6,5C442,354.7,441.8,354.8,441.5,354.8z"/>
				<path class="st5" d="M463.9,354.8c-0.2,0-0.3,0-0.5-0.1c-0.3-0.1-0.4-0.4-0.1-0.6l7.6-5c0.3-0.2,0.7-0.2,1.1-0.1
					c0.3,0.1,0.4,0.4,0.1,0.6l-7.6,5C464.3,354.7,464.1,354.8,463.9,354.8z"/>
				<path class="st5" d="M486.2,354.8c-0.2,0-0.3,0-0.5-0.1c-0.3-0.1-0.4-0.4-0.1-0.6l7.6-5c0.3-0.2,0.7-0.2,1.1-0.1
					c0.3,0.1,0.4,0.4,0.1,0.6l-7.6,5C486.7,354.7,486.5,354.8,486.2,354.8z"/>
				<path class="st5" d="M508.6,354.8c-0.2,0-0.3,0-0.5-0.1c-0.3-0.1-0.4-0.4-0.1-0.6l7.6-5c0.3-0.2,0.7-0.2,1.1-0.1
					c0.3,0.1,0.4,0.4,0.1,0.6l-7.6,5C509,354.7,508.8,354.8,508.6,354.8z"/>
				<path class="st5" d="M531,354.8c-0.2,0-0.3,0-0.5-0.1c-0.3-0.1-0.4-0.4-0.1-0.6l7.6-5c0.3-0.2,0.7-0.2,1.1-0.1
					c0.3,0.1,0.4,0.4,0.1,0.6l-7.6,5C531.4,354.7,531.2,354.8,531,354.8z"/>
				<path class="st5" d="M553.3,354.8c-0.2,0-0.3,0-0.5-0.1c-0.3-0.1-0.4-0.4-0.1-0.6l7.6-5c0.3-0.2,0.7-0.2,1.1-0.1
					c0.3,0.1,0.4,0.4,0.1,0.6l-7.6,5C553.7,354.7,553.5,354.8,553.3,354.8z"/>
				<path class="st5" d="M575.7,354.8c-0.2,0-0.3,0-0.5-0.1c-0.3-0.1-0.4-0.4-0.1-0.6l7.6-5c0.3-0.2,0.7-0.2,1.1-0.1
					c0.3,0.1,0.4,0.4,0.1,0.6l-7.6,5C576.1,354.7,575.9,354.8,575.7,354.8z"/>
				<path class="st5" d="M598,354.8c-0.2,0-0.3,0-0.5-0.1c-0.3-0.1-0.4-0.4-0.1-0.6l7.6-5c0.3-0.2,0.7-0.2,1.1-0.1
					c0.3,0.1,0.4,0.4,0.1,0.6l-7.6,5C598.4,354.7,598.2,354.8,598,354.8z"/>
			</g>
		</g>
		<g class="st11">
			<g>
				<path class="st5" d="M614.8,359.7l-5.7-3.7c-0.3-0.2-0.7-0.2-1.1-0.1c-0.3,0.1-0.4,0.4-0.1,0.6l6.8,4.5L614.8,359.7L614.8,359.7
					z"/>
				<path class="st5" d="M593.8,361.6c-0.2,0-0.4-0.1-0.6-0.1l-7.6-5c-0.3-0.2-0.2-0.4,0.1-0.6c0.3-0.1,0.8-0.1,1.1,0.1l7.6,5
					c0.3,0.2,0.2,0.4-0.1,0.6C594.1,361.6,594,361.6,593.8,361.6z"/>
				<path class="st5" d="M571.5,361.6c-0.2,0-0.4-0.1-0.6-0.1l-7.6-5c-0.3-0.2-0.2-0.4,0.1-0.6c0.3-0.1,0.8-0.1,1.1,0.1l7.6,5
					c0.3,0.2,0.2,0.4-0.1,0.6C571.8,361.6,571.6,361.6,571.5,361.6z"/>
				<path class="st5" d="M549.1,361.6c-0.2,0-0.4-0.1-0.6-0.1l-7.6-5c-0.3-0.2-0.2-0.4,0.1-0.6c0.3-0.1,0.8-0.1,1.1,0.1l7.6,5
					c0.3,0.2,0.2,0.4-0.1,0.6C549.4,361.6,549.3,361.6,549.1,361.6z"/>
				<path class="st5" d="M526.8,361.6c-0.2,0-0.4-0.1-0.6-0.1l-7.6-5c-0.3-0.2-0.2-0.4,0.1-0.6c0.3-0.1,0.8-0.1,1.1,0.1l7.6,5
					c0.3,0.2,0.2,0.4-0.1,0.6C527.1,361.6,526.9,361.6,526.8,361.6z"/>
				<path class="st5" d="M504.4,361.6c-0.2,0-0.4-0.1-0.6-0.1l-7.6-5c-0.3-0.2-0.2-0.4,0.1-0.6c0.3-0.1,0.8-0.1,1.1,0.1l7.6,5
					c0.3,0.2,0.2,0.4-0.1,0.6C504.7,361.6,504.6,361.6,504.4,361.6z"/>
				<path class="st5" d="M482.1,361.6c-0.2,0-0.4-0.1-0.6-0.1l-7.6-5c-0.3-0.2-0.2-0.4,0.1-0.6c0.3-0.1,0.8-0.1,1.1,0.1l7.6,5
					c0.3,0.2,0.2,0.4-0.1,0.6C482.4,361.6,482.2,361.6,482.1,361.6z"/>
				<path class="st5" d="M459.7,361.6c-0.2,0-0.4-0.1-0.6-0.1l-7.6-5c-0.3-0.2-0.2-0.4,0.1-0.6c0.3-0.1,0.8-0.1,1.1,0.1l7.6,5
					c0.3,0.2,0.2,0.4-0.1,0.6C460,361.6,459.9,361.6,459.7,361.6z"/>
				<path class="st5" d="M437.4,361.6c-0.2,0-0.4-0.1-0.6-0.1l-7.6-5c-0.3-0.2-0.2-0.4,0.1-0.6c0.3-0.1,0.8-0.1,1.1,0.1l7.6,5
					c0.3,0.2,0.2,0.4-0.1,0.6C437.7,361.6,437.5,361.6,437.4,361.6z"/>
				<path class="st5" d="M415,361.6c-0.2,0-0.4-0.1-0.6-0.1l-7.6-5c-0.3-0.2-0.2-0.4,0.1-0.6c0.3-0.1,0.8-0.1,1.1,0.1l7.6,5
					c0.3,0.2,0.2,0.4-0.1,0.6C415.3,361.6,415.2,361.6,415,361.6z"/>
				<path class="st5" d="M392.6,361.6c-0.2,0-0.4-0.1-0.6-0.1l-7.6-5c-0.3-0.2-0.2-0.4,0.1-0.6c0.3-0.1,0.8-0.1,1.1,0.1l7.6,5
					c0.3,0.2,0.2,0.4-0.1,0.6C393,361.6,392.8,361.6,392.6,361.6z"/>
				<path class="st5" d="M370.3,361.6c-0.2,0-0.4-0.1-0.6-0.1l-7.6-5c-0.3-0.2-0.2-0.4,0.1-0.6c0.3-0.1,0.8-0.1,1.1,0.1l7.6,5
					c0.3,0.2,0.2,0.4-0.1,0.6C370.6,361.6,370.5,361.6,370.3,361.6z"/>
				<path class="st5" d="M347.9,361.6c-0.2,0-0.4-0.1-0.6-0.1l-7.6-5c-0.3-0.2-0.2-0.4,0.1-0.6c0.3-0.1,0.8-0.1,1.1,0.1l7.6,5
					c0.3,0.2,0.2,0.4-0.1,0.6C348.3,361.6,348.1,361.6,347.9,361.6z"/>
				<path class="st5" d="M325.6,361.6c-0.2,0-0.4-0.1-0.6-0.1l-7.6-5c-0.3-0.2-0.2-0.4,0.1-0.6c0.3-0.1,0.8-0.1,1.1,0.1l7.6,5
					c0.3,0.2,0.2,0.4-0.1,0.6C325.9,361.6,325.8,361.6,325.6,361.6z"/>
				<path class="st5" d="M303.2,361.6c-0.2,0-0.4-0.1-0.6-0.1l-7.6-5c-0.3-0.2-0.2-0.4,0.1-0.6c0.3-0.1,0.8-0.1,1.1,0.1l7.6,5
					c0.3,0.2,0.2,0.4-0.1,0.6C303.6,361.6,303.4,361.6,303.2,361.6z"/>
				<path class="st5" d="M280.9,361.6c-0.2,0-0.4-0.1-0.6-0.1l-7.6-5c-0.3-0.2-0.2-0.4,0.1-0.6c0.3-0.1,0.8-0.1,1.1,0.1l7.6,5
					c0.3,0.2,0.2,0.4-0.1,0.6C281.2,361.6,281.1,361.6,280.9,361.6z"/>
				<path class="st5" d="M258.5,361.6c-0.2,0-0.4-0.1-0.6-0.1l-7.6-5c-0.3-0.2-0.2-0.4,0.1-0.6c0.3-0.1,0.8-0.1,1.1,0.1l7.6,5
					c0.3,0.2,0.2,0.4-0.1,0.6C258.9,361.6,258.7,361.6,258.5,361.6z"/>
				<path class="st5" d="M236.2,361.6c-0.2,0-0.4-0.1-0.6-0.1l-7.6-5c-0.3-0.2-0.2-0.4,0.1-0.6c0.3-0.1,0.8-0.1,1.1,0.1l7.6,5
					c0.3,0.2,0.2,0.4-0.1,0.6C236.5,361.6,236.4,361.6,236.2,361.6z"/>
				<path class="st5" d="M213.8,361.6c-0.2,0-0.4-0.1-0.6-0.1l-7.6-5c-0.3-0.2-0.2-0.4,0.1-0.6c0.3-0.1,0.8-0.1,1.1,0.1l7.6,5
					c0.3,0.2,0.2,0.4-0.1,0.6C214.2,361.6,214,361.6,213.8,361.6z"/>
				<path class="st5" d="M191.5,361.6c-0.2,0-0.4-0.1-0.6-0.1l-7.6-5c-0.3-0.2-0.2-0.4,0.1-0.6c0.3-0.1,0.8-0.1,1.1,0.1l7.6,5
					c0.3,0.2,0.2,0.4-0.1,0.6C191.8,361.6,191.7,361.6,191.5,361.6z"/>
				<path class="st5" d="M169.1,361.6c-0.2,0-0.4-0.1-0.6-0.1l-7.6-5c-0.3-0.2-0.2-0.4,0.1-0.6c0.3-0.1,0.8-0.1,1.1,0.1l7.6,5
					c0.3,0.2,0.2,0.4-0.1,0.6C169.5,361.6,169.3,361.6,169.1,361.6z"/>
				<path class="st5" d="M146.8,361.6c-0.2,0-0.4-0.1-0.6-0.1l-7.6-5c-0.3-0.2-0.2-0.4,0.1-0.6c0.3-0.1,0.8-0.1,1.1,0.1l7.6,5
					c0.3,0.2,0.2,0.4-0.1,0.6C147.1,361.6,146.9,361.6,146.8,361.6z"/>
				<path class="st5" d="M124.4,361.6c-0.2,0-0.4-0.1-0.6-0.1l-7.6-5c-0.3-0.2-0.2-0.4,0.1-0.6c0.3-0.1,0.8-0.1,1.1,0.1l7.6,5
					c0.3,0.2,0.2,0.4-0.1,0.6C124.8,361.6,124.6,361.6,124.4,361.6z"/>
				<path class="st5" d="M102.1,361.6c-0.2,0-0.4-0.1-0.6-0.1l-7.6-5c-0.3-0.2-0.2-0.4,0.1-0.6c0.3-0.1,0.8-0.1,1.1,0.1l7.6,5
					c0.3,0.2,0.2,0.4-0.1,0.6C102.4,361.6,102.2,361.6,102.1,361.6z"/>
				<path class="st5" d="M79.7,361.6c-0.2,0-0.4-0.1-0.6-0.1l-7.6-5c-0.3-0.2-0.2-0.4,0.1-0.6c0.3-0.1,0.8-0.1,1.1,0.1l7.6,5
					c0.3,0.2,0.2,0.4-0.1,0.6C80.1,361.6,79.9,361.6,79.7,361.6z"/>
				<path class="st5" d="M57.4,361.6c-0.2,0-0.4-0.1-0.6-0.1l-7.6-5c-0.3-0.2-0.2-0.4,0.1-0.6c0.3-0.1,0.8-0.1,1.1,0.1l7.6,5
					c0.3,0.2,0.2,0.4-0.1,0.6C57.7,361.6,57.5,361.6,57.4,361.6z"/>
				<path class="st5" d="M35,361.6c-0.2,0-0.4-0.1-0.6-0.1l-7.6-5c-0.3-0.2-0.2-0.4,0.1-0.6c0.3-0.1,0.8-0.1,1.1,0.1l7.6,5
					c0.3,0.2,0.2,0.4-0.1,0.6C35.4,361.6,35.2,361.6,35,361.6z"/>
				<path class="st5" d="M12.7,361.6c-0.2,0-0.4-0.1-0.6-0.1l-7.6-5c-0.3-0.2-0.2-0.4,0.1-0.6c0.3-0.1,0.8-0.1,1.1,0.1l7.6,5
					c0.3,0.2,0.2,0.4-0.1,0.6C13,361.6,12.8,361.6,12.7,361.6z"/>
			</g>
		</g>
		<g class="st11">
			<g>
				<path class="st5" d="M4.6,361.5c-0.3-0.1-0.8-0.1-1.1,0.1l-3.7,2.4v1.3l4.8-3.2C4.9,361.9,4.9,361.7,4.6,361.5z"/>
				<path class="st5" d="M18.9,367.2c-0.2,0-0.3,0-0.5-0.1c-0.3-0.1-0.4-0.4-0.1-0.6l7.6-5c0.3-0.2,0.7-0.2,1.1-0.1
					c0.3,0.1,0.4,0.4,0.1,0.6l-7.6,5C19.3,367.2,19.1,367.2,18.9,367.2z"/>
				<path class="st5" d="M41.2,367.2c-0.2,0-0.3,0-0.5-0.1c-0.3-0.1-0.4-0.4-0.1-0.6l7.6-5c0.3-0.2,0.7-0.2,1.1-0.1
					c0.3,0.1,0.4,0.4,0.1,0.6l-7.6,5C41.6,367.2,41.4,367.2,41.2,367.2z"/>
				<path class="st5" d="M63.6,367.2c-0.2,0-0.3,0-0.5-0.1c-0.3-0.1-0.4-0.4-0.1-0.6l7.6-5c0.3-0.2,0.7-0.2,1.1-0.1
					c0.3,0.1,0.4,0.4,0.1,0.6l-7.6,5C64,367.2,63.8,367.2,63.6,367.2z"/>
				<path class="st5" d="M85.9,367.2c-0.2,0-0.3,0-0.5-0.1c-0.3-0.1-0.4-0.4-0.1-0.6l7.6-5c0.3-0.2,0.7-0.2,1.1-0.1
					c0.3,0.1,0.4,0.4,0.1,0.6l-7.6,5C86.3,367.2,86.1,367.2,85.9,367.2z"/>
				<path class="st5" d="M108.3,367.2c-0.2,0-0.3,0-0.5-0.1c-0.3-0.1-0.4-0.4-0.1-0.6l7.6-5c0.3-0.2,0.7-0.2,1.1-0.1
					c0.3,0.1,0.4,0.4,0.1,0.6l-7.6,5C108.7,367.2,108.5,367.2,108.3,367.2z"/>
				<path class="st5" d="M130.6,367.2c-0.2,0-0.3,0-0.5-0.1c-0.3-0.1-0.4-0.4-0.1-0.6l7.6-5c0.3-0.2,0.7-0.2,1.1-0.1
					c0.3,0.1,0.4,0.4,0.1,0.6l-7.6,5C131,367.2,130.8,367.2,130.6,367.2z"/>
				<path class="st5" d="M153,367.2c-0.2,0-0.3,0-0.5-0.1c-0.3-0.1-0.4-0.4-0.1-0.6l7.6-5c0.3-0.2,0.7-0.2,1.1-0.1
					c0.3,0.1,0.4,0.4,0.1,0.6l-7.6,5C153.4,367.2,153.2,367.2,153,367.2z"/>
				<path class="st5" d="M175.3,367.2c-0.2,0-0.3,0-0.5-0.1c-0.3-0.1-0.4-0.4-0.1-0.6l7.6-5c0.3-0.2,0.7-0.2,1.1-0.1
					c0.3,0.1,0.4,0.4,0.1,0.6l-7.6,5C175.7,367.2,175.5,367.2,175.3,367.2z"/>
				<path class="st5" d="M197.7,367.2c-0.2,0-0.3,0-0.5-0.1c-0.3-0.1-0.4-0.4-0.1-0.6l7.6-5c0.3-0.2,0.7-0.2,1.1-0.1
					c0.3,0.1,0.4,0.4,0.1,0.6l-7.6,5C198.1,367.2,197.9,367.2,197.7,367.2z"/>
				<path class="st5" d="M220,367.2c-0.2,0-0.3,0-0.5-0.1c-0.3-0.1-0.4-0.4-0.1-0.6l7.6-5c0.3-0.2,0.7-0.2,1.1-0.1
					c0.3,0.1,0.4,0.4,0.1,0.6l-7.6,5C220.4,367.2,220.2,367.2,220,367.2z"/>
				<path class="st5" d="M242.4,367.2c-0.2,0-0.3,0-0.5-0.1c-0.3-0.1-0.4-0.4-0.1-0.6l7.6-5c0.3-0.2,0.7-0.2,1.1-0.1
					c0.3,0.1,0.4,0.4,0.1,0.6l-7.6,5C242.8,367.2,242.6,367.2,242.4,367.2z"/>
				<path class="st5" d="M264.7,367.2c-0.2,0-0.3,0-0.5-0.1c-0.3-0.1-0.4-0.4-0.1-0.6l7.6-5c0.3-0.2,0.7-0.2,1.1-0.1
					c0.3,0.1,0.4,0.4,0.1,0.6l-7.6,5C265.2,367.2,264.9,367.2,264.7,367.2z"/>
				<path class="st5" d="M287.1,367.2c-0.2,0-0.3,0-0.5-0.1c-0.3-0.1-0.4-0.4-0.1-0.6l7.6-5c0.3-0.2,0.7-0.2,1.1-0.1
					c0.3,0.1,0.4,0.4,0.1,0.6l-7.6,5C287.5,367.2,287.3,367.2,287.1,367.2z"/>
				<path class="st5" d="M309.4,367.2c-0.2,0-0.3,0-0.5-0.1c-0.3-0.1-0.4-0.4-0.1-0.6l7.6-5c0.3-0.2,0.7-0.2,1.1-0.1
					c0.3,0.1,0.4,0.4,0.1,0.6l-7.6,5C309.9,367.2,309.6,367.2,309.4,367.2z"/>
				<path class="st5" d="M331.8,367.2c-0.2,0-0.3,0-0.5-0.1c-0.3-0.1-0.4-0.4-0.1-0.6l7.6-5c0.3-0.2,0.7-0.2,1.1-0.1
					c0.3,0.1,0.4,0.4,0.1,0.6l-7.6,5C332.2,367.2,332,367.2,331.8,367.2z"/>
				<path class="st5" d="M354.1,367.2c-0.2,0-0.3,0-0.5-0.1c-0.3-0.1-0.4-0.4-0.1-0.6l7.6-5c0.3-0.2,0.7-0.2,1.1-0.1
					c0.3,0.1,0.4,0.4,0.1,0.6l-7.6,5C354.6,367.2,354.3,367.2,354.1,367.2z"/>
				<path class="st5" d="M376.5,367.2c-0.2,0-0.3,0-0.5-0.1c-0.3-0.1-0.4-0.4-0.1-0.6l7.6-5c0.3-0.2,0.7-0.2,1.1-0.1
					c0.3,0.1,0.4,0.4,0.1,0.6l-7.6,5C376.9,367.2,376.7,367.2,376.5,367.2z"/>
				<path class="st5" d="M398.8,367.2c-0.2,0-0.3,0-0.5-0.1c-0.3-0.1-0.4-0.4-0.1-0.6l7.6-5c0.3-0.2,0.7-0.2,1.1-0.1
					c0.3,0.1,0.4,0.4,0.1,0.6l-7.6,5C399.3,367.2,399,367.2,398.8,367.2z"/>
				<path class="st5" d="M421.2,367.2c-0.2,0-0.3,0-0.5-0.1c-0.3-0.1-0.4-0.4-0.1-0.6l7.6-5c0.3-0.2,0.7-0.2,1.1-0.1
					c0.3,0.1,0.4,0.4,0.1,0.6l-7.6,5C421.6,367.2,421.4,367.2,421.2,367.2z"/>
				<path class="st5" d="M443.5,367.2c-0.2,0-0.3,0-0.5-0.1c-0.3-0.1-0.4-0.4-0.1-0.6l7.6-5c0.3-0.2,0.7-0.2,1.1-0.1
					c0.3,0.1,0.4,0.4,0.1,0.6l-7.6,5C444,367.2,443.7,367.2,443.5,367.2z"/>
				<path class="st5" d="M465.9,367.2c-0.2,0-0.3,0-0.5-0.1c-0.3-0.1-0.4-0.4-0.1-0.6l7.6-5c0.3-0.2,0.7-0.2,1.1-0.1
					c0.3,0.1,0.4,0.4,0.1,0.6l-7.6,5C466.3,367.2,466.1,367.2,465.9,367.2z"/>
				<path class="st5" d="M488.2,367.2c-0.2,0-0.3,0-0.5-0.1c-0.3-0.1-0.4-0.4-0.1-0.6l7.6-5c0.3-0.2,0.7-0.2,1.1-0.1
					c0.3,0.1,0.4,0.4,0.1,0.6l-7.6,5C488.7,367.2,488.5,367.2,488.2,367.2z"/>
				<path class="st5" d="M510.6,367.2c-0.2,0-0.3,0-0.5-0.1c-0.3-0.1-0.4-0.4-0.1-0.6l7.6-5c0.3-0.2,0.7-0.2,1.1-0.1
					c0.3,0.1,0.4,0.4,0.1,0.6l-7.6,5C511,367.2,510.8,367.2,510.6,367.2z"/>
				<path class="st5" d="M532.9,367.2c-0.2,0-0.3,0-0.5-0.1c-0.3-0.1-0.4-0.4-0.1-0.6l7.6-5c0.3-0.2,0.7-0.2,1.1-0.1
					c0.3,0.1,0.4,0.4,0.1,0.6l-7.6,5C533.4,367.2,533.2,367.2,532.9,367.2z"/>
				<path class="st5" d="M555.3,367.2c-0.2,0-0.3,0-0.5-0.1c-0.3-0.1-0.4-0.4-0.1-0.6l7.6-5c0.3-0.2,0.7-0.2,1.1-0.1
					c0.3,0.1,0.4,0.4,0.1,0.6l-7.6,5C555.7,367.2,555.5,367.2,555.3,367.2z"/>
				<path class="st5" d="M577.6,367.2c-0.2,0-0.3,0-0.5-0.1c-0.3-0.1-0.4-0.4-0.1-0.6l7.6-5c0.3-0.2,0.7-0.2,1.1-0.1
					c0.3,0.1,0.4,0.4,0.1,0.6l-7.6,5C578.1,367.2,577.9,367.2,577.6,367.2z"/>
				<path class="st5" d="M600,367.2c-0.2,0-0.3,0-0.5-0.1c-0.3-0.1-0.4-0.4-0.1-0.6l7.6-5c0.3-0.2,0.7-0.2,1.1-0.1
					c0.3,0.1,0.4,0.4,0.1,0.6l-7.6,5C600.4,367.2,600.2,367.2,600,367.2z"/>
			</g>
		</g>
		<g class="st11">
			<g>
				<path class="st5" d="M614.8,369.6l-3.7-2.4c-0.3-0.2-0.7-0.2-1.1-0.1c-0.3,0.1-0.4,0.4-0.1,0.6l4.8,3.2L614.8,369.6L614.8,369.6
					z"/>
				<path class="st5" d="M595.8,372.9c-0.2,0-0.4-0.1-0.6-0.1l-7.6-5c-0.3-0.2-0.2-0.4,0.1-0.6c0.3-0.1,0.8-0.1,1.1,0.1l7.6,5
					c0.3,0.2,0.2,0.4-0.1,0.6C596.1,372.8,596,372.9,595.8,372.9z"/>
				<path class="st5" d="M573.4,372.9c-0.2,0-0.4-0.1-0.6-0.1l-7.6-5c-0.3-0.2-0.2-0.4,0.1-0.6c0.3-0.1,0.8-0.1,1.1,0.1l7.6,5
					c0.3,0.2,0.2,0.4-0.1,0.6C573.8,372.8,573.6,372.9,573.4,372.9z"/>
				<path class="st5" d="M551.1,372.9c-0.2,0-0.4-0.1-0.6-0.1l-7.6-5c-0.3-0.2-0.2-0.4,0.1-0.6c0.3-0.1,0.8-0.1,1.1,0.1l7.6,5
					c0.3,0.2,0.2,0.4-0.1,0.6C551.4,372.8,551.3,372.9,551.1,372.9z"/>
				<path class="st5" d="M528.7,372.9c-0.2,0-0.4-0.1-0.6-0.1l-7.6-5c-0.3-0.2-0.2-0.4,0.1-0.6c0.3-0.1,0.8-0.1,1.1,0.1l7.6,5
					c0.3,0.2,0.2,0.4-0.1,0.6C529.1,372.8,528.9,372.9,528.7,372.9z"/>
				<path class="st5" d="M506.4,372.9c-0.2,0-0.4-0.1-0.6-0.1l-7.6-5c-0.3-0.2-0.2-0.4,0.1-0.6c0.3-0.1,0.8-0.1,1.1,0.1l7.6,5
					c0.3,0.2,0.2,0.4-0.1,0.6C506.7,372.8,506.6,372.9,506.4,372.9z"/>
				<path class="st5" d="M484,372.9c-0.2,0-0.4-0.1-0.6-0.1l-7.6-5c-0.3-0.2-0.2-0.4,0.1-0.6c0.3-0.1,0.8-0.1,1.1,0.1l7.6,5
					c0.3,0.2,0.2,0.4-0.1,0.6C484.4,372.8,484.2,372.9,484,372.9z"/>
				<path class="st5" d="M461.7,372.9c-0.2,0-0.4-0.1-0.6-0.1l-7.6-5c-0.3-0.2-0.2-0.4,0.1-0.6c0.3-0.1,0.8-0.1,1.1,0.1l7.6,5
					c0.3,0.2,0.2,0.4-0.1,0.6C462,372.8,461.9,372.9,461.7,372.9z"/>
				<path class="st5" d="M439.3,372.9c-0.2,0-0.4-0.1-0.6-0.1l-7.6-5c-0.3-0.2-0.2-0.4,0.1-0.6c0.3-0.1,0.8-0.1,1.1,0.1l7.6,5
					c0.3,0.2,0.2,0.4-0.1,0.6C439.7,372.8,439.5,372.9,439.3,372.9z"/>
				<path class="st5" d="M417,372.9c-0.2,0-0.4-0.1-0.6-0.1l-7.6-5c-0.3-0.2-0.2-0.4,0.1-0.6c0.3-0.1,0.8-0.1,1.1,0.1l7.6,5
					c0.3,0.2,0.2,0.4-0.1,0.6C417.3,372.8,417.2,372.9,417,372.9z"/>
				<path class="st5" d="M394.6,372.9c-0.2,0-0.4-0.1-0.6-0.1l-7.6-5c-0.3-0.2-0.2-0.4,0.1-0.6c0.3-0.1,0.8-0.1,1.1,0.1l7.6,5
					c0.3,0.2,0.2,0.4-0.1,0.6C395,372.8,394.8,372.9,394.6,372.9z"/>
				<path class="st5" d="M372.3,372.9c-0.2,0-0.4-0.1-0.6-0.1l-7.6-5c-0.3-0.2-0.2-0.4,0.1-0.6c0.3-0.1,0.8-0.1,1.1,0.1l7.6,5
					c0.3,0.2,0.2,0.4-0.1,0.6C372.6,372.8,372.5,372.9,372.3,372.9z"/>
				<path class="st5" d="M349.9,372.9c-0.2,0-0.4-0.1-0.6-0.1l-7.6-5c-0.3-0.2-0.2-0.4,0.1-0.6c0.3-0.1,0.8-0.1,1.1,0.1l7.6,5
					c0.3,0.2,0.2,0.4-0.1,0.6C350.3,372.8,350.1,372.9,349.9,372.9z"/>
				<path class="st5" d="M327.6,372.9c-0.2,0-0.4-0.1-0.6-0.1l-7.6-5c-0.3-0.2-0.2-0.4,0.1-0.6c0.3-0.1,0.8-0.1,1.1,0.1l7.6,5
					c0.3,0.2,0.2,0.4-0.1,0.6C327.9,372.8,327.8,372.9,327.6,372.9z"/>
				<path class="st5" d="M305.2,372.9c-0.2,0-0.4-0.1-0.6-0.1l-7.6-5c-0.3-0.2-0.2-0.4,0.1-0.6c0.3-0.1,0.8-0.1,1.1,0.1l7.6,5
					c0.3,0.2,0.2,0.4-0.1,0.6C305.6,372.8,305.4,372.9,305.2,372.9z"/>
				<path class="st5" d="M282.9,372.9c-0.2,0-0.4-0.1-0.6-0.1l-7.6-5c-0.3-0.2-0.2-0.4,0.1-0.6c0.3-0.1,0.8-0.1,1.1,0.1l7.6,5
					c0.3,0.2,0.2,0.4-0.1,0.6C283.2,372.8,283,372.9,282.9,372.9z"/>
				<path class="st5" d="M260.5,372.9c-0.2,0-0.4-0.1-0.6-0.1l-7.6-5c-0.3-0.2-0.2-0.4,0.1-0.6c0.3-0.1,0.8-0.1,1.1,0.1l7.6,5
					c0.3,0.2,0.2,0.4-0.1,0.6C260.9,372.8,260.7,372.9,260.5,372.9z"/>
				<path class="st5" d="M238.2,372.9c-0.2,0-0.4-0.1-0.6-0.1l-7.6-5c-0.3-0.2-0.2-0.4,0.1-0.6c0.3-0.1,0.8-0.1,1.1,0.1l7.6,5
					c0.3,0.2,0.2,0.4-0.1,0.6C238.5,372.8,238.3,372.9,238.2,372.9z"/>
				<path class="st5" d="M215.8,372.9c-0.2,0-0.4-0.1-0.6-0.1l-7.6-5c-0.3-0.2-0.2-0.4,0.1-0.6c0.3-0.1,0.8-0.1,1.1,0.1l7.6,5
					c0.3,0.2,0.2,0.4-0.1,0.6C216.2,372.8,216,372.9,215.8,372.9z"/>
				<path class="st5" d="M193.5,372.9c-0.2,0-0.4-0.1-0.6-0.1l-7.6-5c-0.3-0.2-0.2-0.4,0.1-0.6c0.3-0.1,0.8-0.1,1.1,0.1l7.6,5
					c0.3,0.2,0.2,0.4-0.1,0.6C193.8,372.8,193.6,372.9,193.5,372.9z"/>
				<path class="st5" d="M171.1,372.9c-0.2,0-0.4-0.1-0.6-0.1l-7.6-5c-0.3-0.2-0.2-0.4,0.1-0.6c0.3-0.1,0.8-0.1,1.1,0.1l7.6,5
					c0.3,0.2,0.2,0.4-0.1,0.6C171.5,372.8,171.3,372.9,171.1,372.9z"/>
				<path class="st5" d="M148.8,372.9c-0.2,0-0.4-0.1-0.6-0.1l-7.6-5c-0.3-0.2-0.2-0.4,0.1-0.6c0.3-0.1,0.8-0.1,1.1,0.1l7.6,5
					c0.3,0.2,0.2,0.4-0.1,0.6C149.1,372.8,148.9,372.9,148.8,372.9z"/>
				<path class="st5" d="M126.4,372.9c-0.2,0-0.4-0.1-0.6-0.1l-7.6-5c-0.3-0.2-0.2-0.4,0.1-0.6c0.3-0.1,0.8-0.1,1.1,0.1l7.6,5
					c0.3,0.2,0.2,0.4-0.1,0.6C126.8,372.8,126.6,372.9,126.4,372.9z"/>
				<path class="st5" d="M104.1,372.9c-0.2,0-0.4-0.1-0.6-0.1l-7.6-5c-0.3-0.2-0.2-0.4,0.1-0.6c0.3-0.1,0.8-0.1,1.1,0.1l7.6,5
					c0.3,0.2,0.2,0.4-0.1,0.6C104.4,372.8,104.2,372.9,104.1,372.9z"/>
				<path class="st5" d="M81.7,372.9c-0.2,0-0.4-0.1-0.6-0.1l-7.6-5c-0.3-0.2-0.2-0.4,0.1-0.6c0.3-0.1,0.8-0.1,1.1,0.1l7.6,5
					c0.3,0.2,0.2,0.4-0.1,0.6C82.1,372.8,81.9,372.9,81.7,372.9z"/>
				<path class="st5" d="M59.4,372.9c-0.2,0-0.4-0.1-0.6-0.1l-7.6-5c-0.3-0.2-0.2-0.4,0.1-0.6c0.3-0.1,0.8-0.1,1.1,0.1l7.6,5
					c0.3,0.2,0.2,0.4-0.1,0.6C59.7,372.8,59.5,372.9,59.4,372.9z"/>
				<path class="st5" d="M37,372.9c-0.2,0-0.4-0.1-0.6-0.1l-7.6-5c-0.3-0.2-0.2-0.4,0.1-0.6c0.3-0.1,0.8-0.1,1.1,0.1l7.6,5
					c0.3,0.2,0.2,0.4-0.1,0.6C37.4,372.8,37.2,372.9,37,372.9z"/>
				<path class="st5" d="M14.7,372.9c-0.2,0-0.4-0.1-0.6-0.1l-7.6-5c-0.3-0.2-0.2-0.4,0.1-0.6c0.3-0.1,0.8-0.1,1.1,0.1l7.6,5
					c0.3,0.2,0.2,0.4-0.1,0.6C15,372.8,14.8,372.9,14.7,372.9z"/>
			</g>
		</g>
	</g>
	<g>
		<g class="st11">
			<g>
				<path class="st5" d="M4.7,324.7c-0.2,0-0.3,0-0.5-0.1c-0.3-0.1-0.4-0.3-0.1-0.5l7.6-4.2c0.3-0.1,0.7-0.2,1.1,0
					c0.3,0.1,0.4,0.3,0.1,0.5l-7.6,4.2C5.2,324.7,4.9,324.7,4.7,324.7z"/>
				<path class="st5" d="M27.1,324.7c-0.2,0-0.3,0-0.5-0.1c-0.3-0.1-0.4-0.3-0.1-0.5l7.6-4.2c0.3-0.1,0.7-0.2,1.1,0
					c0.3,0.1,0.4,0.3,0.1,0.5l-7.6,4.2C27.5,324.7,27.3,324.7,27.1,324.7z"/>
				<path class="st5" d="M49.4,324.7c-0.2,0-0.3,0-0.5-0.1c-0.3-0.1-0.4-0.3-0.1-0.5l7.6-4.2c0.3-0.1,0.7-0.2,1.1,0
					c0.3,0.1,0.4,0.3,0.1,0.5l-7.6,4.2C49.9,324.7,49.6,324.7,49.4,324.7z"/>
				<path class="st5" d="M71.8,324.7c-0.2,0-0.3,0-0.5-0.1c-0.3-0.1-0.4-0.3-0.1-0.5l7.6-4.2c0.3-0.1,0.7-0.2,1.1,0
					c0.3,0.1,0.4,0.3,0.1,0.5l-7.6,4.2C72.2,324.7,72,324.7,71.8,324.7z"/>
				<path class="st5" d="M94.1,324.7c-0.2,0-0.3,0-0.5-0.1c-0.3-0.1-0.4-0.3-0.1-0.5l7.6-4.2c0.3-0.1,0.7-0.2,1.1,0
					c0.3,0.1,0.4,0.3,0.1,0.5l-7.6,4.2C94.6,324.7,94.3,324.7,94.1,324.7z"/>
				<path class="st5" d="M116.5,324.7c-0.2,0-0.3,0-0.5-0.1c-0.3-0.1-0.4-0.3-0.1-0.5l7.6-4.2c0.3-0.1,0.7-0.2,1.1,0
					c0.3,0.1,0.4,0.3,0.1,0.5l-7.6,4.2C116.9,324.7,116.7,324.7,116.5,324.7z"/>
				<path class="st5" d="M138.8,324.7c-0.2,0-0.3,0-0.5-0.1c-0.3-0.1-0.4-0.3-0.1-0.5l7.6-4.2c0.3-0.1,0.7-0.2,1.1,0
					c0.3,0.1,0.4,0.3,0.1,0.5l-7.6,4.2C139.3,324.7,139,324.7,138.8,324.7z"/>
				<path class="st5" d="M161.2,324.7c-0.2,0-0.3,0-0.5-0.1c-0.3-0.1-0.4-0.3-0.1-0.5l7.6-4.2c0.3-0.1,0.7-0.2,1.1,0
					c0.3,0.1,0.4,0.3,0.1,0.5l-7.6,4.2C161.6,324.7,161.4,324.7,161.2,324.7z"/>
				<path class="st5" d="M183.5,324.7c-0.2,0-0.3,0-0.5-0.1c-0.3-0.1-0.4-0.3-0.1-0.5l7.6-4.2c0.3-0.1,0.7-0.2,1.1,0
					c0.3,0.1,0.4,0.3,0.1,0.5l-7.6,4.2C184,324.7,183.8,324.7,183.5,324.7z"/>
				<path class="st5" d="M205.9,324.7c-0.2,0-0.3,0-0.5-0.1c-0.3-0.1-0.4-0.3-0.1-0.5l7.6-4.2c0.3-0.1,0.7-0.2,1.1,0
					c0.3,0.1,0.4,0.3,0.1,0.5l-7.6,4.2C206.3,324.7,206.1,324.7,205.9,324.7z"/>
				<path class="st5" d="M228.2,324.7c-0.2,0-0.3,0-0.5-0.1c-0.3-0.1-0.4-0.3-0.1-0.5l7.6-4.2c0.3-0.1,0.7-0.2,1.1,0
					c0.3,0.1,0.4,0.3,0.1,0.5l-7.6,4.2C228.7,324.7,228.5,324.7,228.2,324.7z"/>
				<path class="st5" d="M250.6,324.7c-0.2,0-0.3,0-0.5-0.1c-0.3-0.1-0.4-0.3-0.1-0.5l7.6-4.2c0.3-0.1,0.7-0.2,1.1,0
					c0.3,0.1,0.4,0.3,0.1,0.5l-7.6,4.2C251,324.7,250.8,324.7,250.6,324.7z"/>
				<path class="st5" d="M272.9,324.7c-0.2,0-0.3,0-0.5-0.1c-0.3-0.1-0.4-0.3-0.1-0.5l7.6-4.2c0.3-0.1,0.7-0.2,1.1,0
					c0.3,0.1,0.4,0.3,0.1,0.5l-7.6,4.2C273.4,324.7,273.2,324.7,272.9,324.7z"/>
				<path class="st5" d="M295.3,324.7c-0.2,0-0.3,0-0.5-0.1c-0.3-0.1-0.4-0.3-0.1-0.5l7.6-4.2c0.3-0.1,0.7-0.2,1.1,0
					c0.3,0.1,0.4,0.3,0.1,0.5l-7.6,4.2C295.7,324.7,295.5,324.7,295.3,324.7z"/>
				<path class="st5" d="M317.6,324.7c-0.2,0-0.3,0-0.5-0.1c-0.3-0.1-0.4-0.3-0.1-0.5l7.6-4.2c0.3-0.1,0.7-0.2,1.1,0
					c0.3,0.1,0.4,0.3,0.1,0.5l-7.6,4.2C318.1,324.7,317.9,324.7,317.6,324.7z"/>
				<path class="st5" d="M340,324.7c-0.2,0-0.3,0-0.5-0.1c-0.3-0.1-0.4-0.3-0.1-0.5l7.6-4.2c0.3-0.1,0.7-0.2,1.1,0
					c0.3,0.1,0.4,0.3,0.1,0.5l-7.6,4.2C340.4,324.7,340.2,324.7,340,324.7z"/>
				<path class="st5" d="M362.3,324.7c-0.2,0-0.3,0-0.5-0.1c-0.3-0.1-0.4-0.3-0.1-0.5l7.6-4.2c0.3-0.1,0.7-0.2,1.1,0
					c0.3,0.1,0.4,0.3,0.1,0.5l-7.6,4.2C362.8,324.7,362.6,324.7,362.3,324.7z"/>
				<path class="st5" d="M384.7,324.7c-0.2,0-0.3,0-0.5-0.1c-0.3-0.1-0.4-0.3-0.1-0.5l7.6-4.2c0.3-0.1,0.7-0.2,1.1,0
					c0.3,0.1,0.4,0.3,0.1,0.5l-7.6,4.2C385.1,324.7,384.9,324.7,384.7,324.7z"/>
				<path class="st5" d="M407,324.7c-0.2,0-0.3,0-0.5-0.1c-0.3-0.1-0.4-0.3-0.1-0.5l7.6-4.2c0.3-0.1,0.7-0.2,1.1,0
					c0.3,0.1,0.4,0.3,0.1,0.5l-7.6,4.2C407.5,324.7,407.3,324.7,407,324.7z"/>
				<path class="st5" d="M429.4,324.7c-0.2,0-0.3,0-0.5-0.1c-0.3-0.1-0.4-0.3-0.1-0.5l7.6-4.2c0.3-0.1,0.7-0.2,1.1,0
					c0.3,0.1,0.4,0.3,0.1,0.5l-7.6,4.2C429.8,324.7,429.6,324.7,429.4,324.7z"/>
				<path class="st5" d="M451.8,324.7c-0.2,0-0.3,0-0.5-0.1c-0.3-0.1-0.4-0.3-0.1-0.5l7.6-4.2c0.3-0.1,0.7-0.2,1.1,0
					c0.3,0.1,0.4,0.3,0.1,0.5l-7.6,4.2C452.2,324.7,452,324.7,451.8,324.7z"/>
				<path class="st5" d="M474.1,324.7c-0.2,0-0.3,0-0.5-0.1c-0.3-0.1-0.4-0.3-0.1-0.5l7.6-4.2c0.3-0.1,0.7-0.2,1.1,0
					c0.3,0.1,0.4,0.3,0.1,0.5l-7.6,4.2C474.5,324.7,474.3,324.7,474.1,324.7z"/>
				<path class="st5" d="M496.5,324.7c-0.2,0-0.3,0-0.5-0.1c-0.3-0.1-0.4-0.3-0.1-0.5l7.6-4.2c0.3-0.1,0.7-0.2,1.1,0
					c0.3,0.1,0.4,0.3,0.1,0.5l-7.6,4.2C496.9,324.7,496.7,324.7,496.5,324.7z"/>
				<path class="st5" d="M518.8,324.7c-0.2,0-0.3,0-0.5-0.1c-0.3-0.1-0.4-0.3-0.1-0.5l7.6-4.2c0.3-0.1,0.7-0.2,1.1,0
					c0.3,0.1,0.4,0.3,0.1,0.5l-7.6,4.2C519.2,324.7,519,324.7,518.8,324.7z"/>
				<path class="st5" d="M541.2,324.7c-0.2,0-0.3,0-0.5-0.1c-0.3-0.1-0.4-0.3-0.1-0.5l7.6-4.2c0.3-0.1,0.7-0.2,1.1,0
					c0.3,0.1,0.4,0.3,0.1,0.5l-7.6,4.2C541.6,324.7,541.4,324.7,541.2,324.7z"/>
				<path class="st5" d="M563.5,324.7c-0.2,0-0.3,0-0.5-0.1c-0.3-0.1-0.4-0.3-0.1-0.5l7.6-4.2c0.3-0.1,0.7-0.2,1.1,0
					c0.3,0.1,0.4,0.3,0.1,0.5l-7.6,4.2C563.9,324.7,563.7,324.7,563.5,324.7z"/>
				<path class="st5" d="M585.9,324.7c-0.2,0-0.3,0-0.5-0.1c-0.3-0.1-0.4-0.3-0.1-0.5l7.6-4.2c0.3-0.1,0.7-0.2,1.1,0
					c0.3,0.1,0.4,0.3,0.1,0.5l-7.6,4.2C586.3,324.7,586.1,324.7,585.9,324.7z"/>
				<path class="st5" d="M614.8,320.2l-7.2,4c-0.3,0.1-0.2,0.4,0.1,0.5c0.1,0.1,0.3,0.1,0.5,0.1s0.4,0,0.6-0.1l6.1-3.3L614.8,320.2
					L614.8,320.2z"/>
			</g>
		</g>
		<g class="st11">
			<g>
				<path class="st5" d="M604,330.4c-0.2,0-0.4,0-0.6-0.1l-7.6-4.2c-0.3-0.1-0.2-0.4,0.1-0.5s0.8-0.1,1.1,0l7.6,4.2
					c0.3,0.1,0.2,0.4-0.1,0.5C604.4,330.4,604.2,330.4,604,330.4z"/>
				<path class="st5" d="M581.7,330.4c-0.2,0-0.4,0-0.6-0.1l-7.6-4.2c-0.3-0.1-0.2-0.4,0.1-0.5s0.8-0.1,1.1,0l7.6,4.2
					c0.3,0.1,0.2,0.4-0.1,0.5C582,330.4,581.8,330.4,581.7,330.4z"/>
				<path class="st5" d="M559.3,330.4c-0.2,0-0.4,0-0.6-0.1l-7.6-4.2c-0.3-0.1-0.2-0.4,0.1-0.5s0.8-0.1,1.1,0l7.6,4.2
					c0.3,0.1,0.2,0.4-0.1,0.5C559.7,330.4,559.5,330.4,559.3,330.4z"/>
				<path class="st5" d="M537,330.4c-0.2,0-0.4,0-0.6-0.1l-7.6-4.2c-0.3-0.1-0.2-0.4,0.1-0.5s0.8-0.1,1.1,0l7.6,4.2
					c0.3,0.1,0.2,0.4-0.1,0.5C537.3,330.4,537.1,330.4,537,330.4z"/>
				<path class="st5" d="M514.6,330.4c-0.2,0-0.4,0-0.6-0.1l-7.6-4.2c-0.3-0.1-0.2-0.4,0.1-0.5c0.3-0.1,0.8-0.1,1.1,0l7.6,4.2
					c0.3,0.1,0.2,0.4-0.1,0.5C514.9,330.4,514.8,330.4,514.6,330.4z"/>
				<path class="st5" d="M492.3,330.4c-0.2,0-0.4,0-0.6-0.1l-7.6-4.2c-0.3-0.1-0.2-0.4,0.1-0.5c0.3-0.1,0.8-0.1,1.1,0l7.6,4.2
					c0.3,0.1,0.2,0.4-0.1,0.5C492.6,330.4,492.4,330.4,492.3,330.4z"/>
				<path class="st5" d="M469.9,330.4c-0.2,0-0.4,0-0.6-0.1l-7.6-4.2c-0.3-0.1-0.2-0.4,0.1-0.5c0.3-0.1,0.8-0.1,1.1,0l7.6,4.2
					c0.3,0.1,0.2,0.4-0.1,0.5C470.2,330.4,470.1,330.4,469.9,330.4z"/>
				<path class="st5" d="M447.6,330.4c-0.2,0-0.4,0-0.6-0.1l-7.6-4.2c-0.3-0.1-0.2-0.4,0.1-0.5c0.3-0.1,0.8-0.1,1.1,0l7.6,4.2
					c0.3,0.1,0.2,0.4-0.1,0.5C447.9,330.4,447.7,330.4,447.6,330.4z"/>
				<path class="st5" d="M425.2,330.4c-0.2,0-0.4,0-0.6-0.1l-7.6-4.2c-0.3-0.1-0.2-0.4,0.1-0.5c0.3-0.1,0.8-0.1,1.1,0l7.6,4.2
					c0.3,0.1,0.2,0.4-0.1,0.5C425.5,330.4,425.4,330.4,425.2,330.4z"/>
				<path class="st5" d="M402.9,330.4c-0.2,0-0.4,0-0.6-0.1l-7.6-4.2c-0.3-0.1-0.2-0.4,0.1-0.5c0.3-0.1,0.8-0.1,1.1,0l7.6,4.2
					c0.3,0.1,0.2,0.4-0.1,0.5C403.2,330.4,403,330.4,402.9,330.4z"/>
				<path class="st5" d="M380.5,330.4c-0.2,0-0.4,0-0.6-0.1l-7.6-4.2c-0.3-0.1-0.2-0.4,0.1-0.5c0.3-0.1,0.8-0.1,1.1,0l7.6,4.2
					c0.3,0.1,0.2,0.4-0.1,0.5C380.8,330.4,380.7,330.4,380.5,330.4z"/>
				<path class="st5" d="M358.2,330.4c-0.2,0-0.4,0-0.6-0.1l-7.6-4.2c-0.3-0.1-0.2-0.4,0.1-0.5c0.3-0.1,0.8-0.1,1.1,0l7.6,4.2
					c0.3,0.1,0.2,0.4-0.1,0.5C358.5,330.4,358.3,330.4,358.2,330.4z"/>
				<path class="st5" d="M335.8,330.4c-0.2,0-0.4,0-0.6-0.1l-7.6-4.2c-0.3-0.1-0.2-0.4,0.1-0.5c0.3-0.1,0.8-0.1,1.1,0l7.6,4.2
					c0.3,0.1,0.2,0.4-0.1,0.5C336.1,330.4,336,330.4,335.8,330.4z"/>
				<path class="st5" d="M313.4,330.4c-0.2,0-0.4,0-0.6-0.1l-7.6-4.2c-0.3-0.1-0.2-0.4,0.1-0.5c0.3-0.1,0.8-0.1,1.1,0l7.6,4.2
					c0.3,0.1,0.2,0.4-0.1,0.5C313.8,330.4,313.6,330.4,313.4,330.4z"/>
				<path class="st5" d="M291.1,330.4c-0.2,0-0.4,0-0.6-0.1l-7.6-4.2c-0.3-0.1-0.2-0.4,0.1-0.5c0.3-0.1,0.8-0.1,1.1,0l7.6,4.2
					c0.3,0.1,0.2,0.4-0.1,0.5C291.4,330.4,291.3,330.4,291.1,330.4z"/>
				<path class="st5" d="M268.7,330.4c-0.2,0-0.4,0-0.6-0.1l-7.6-4.2c-0.3-0.1-0.2-0.4,0.1-0.5c0.3-0.1,0.8-0.1,1.1,0l7.6,4.2
					c0.3,0.1,0.2,0.4-0.1,0.5C269.1,330.4,268.9,330.4,268.7,330.4z"/>
				<path class="st5" d="M246.4,330.4c-0.2,0-0.4,0-0.6-0.1l-7.6-4.2c-0.3-0.1-0.2-0.4,0.1-0.5s0.8-0.1,1.1,0l7.6,4.2
					c0.3,0.1,0.2,0.4-0.1,0.5C246.7,330.4,246.6,330.4,246.4,330.4z"/>
				<path class="st5" d="M224,330.4c-0.2,0-0.4,0-0.6-0.1l-7.6-4.2c-0.3-0.1-0.2-0.4,0.1-0.5s0.8-0.1,1.1,0l7.6,4.2
					c0.3,0.1,0.2,0.4-0.1,0.5C224.4,330.4,224.2,330.4,224,330.4z"/>
				<path class="st5" d="M201.7,330.4c-0.2,0-0.4,0-0.6-0.1l-7.6-4.2c-0.3-0.1-0.2-0.4,0.1-0.5s0.8-0.1,1.1,0l7.6,4.2
					c0.3,0.1,0.2,0.4-0.1,0.5C202,330.4,201.9,330.4,201.7,330.4z"/>
				<path class="st5" d="M179.3,330.4c-0.2,0-0.4,0-0.6-0.1l-7.6-4.2c-0.3-0.1-0.2-0.4,0.1-0.5s0.8-0.1,1.1,0l7.6,4.2
					c0.3,0.1,0.2,0.4-0.1,0.5C179.7,330.4,179.5,330.4,179.3,330.4z"/>
				<path class="st5" d="M157,330.4c-0.2,0-0.4,0-0.6-0.1l-7.6-4.2c-0.3-0.1-0.2-0.4,0.1-0.5s0.8-0.1,1.1,0l7.6,4.2
					c0.3,0.1,0.2,0.4-0.1,0.5C157.3,330.4,157.2,330.4,157,330.4z"/>
				<path class="st5" d="M134.6,330.4c-0.2,0-0.4,0-0.6-0.1l-7.6-4.2c-0.3-0.1-0.2-0.4,0.1-0.5c0.3-0.1,0.8-0.1,1.1,0l7.6,4.2
					c0.3,0.1,0.2,0.4-0.1,0.5C135,330.4,134.8,330.4,134.6,330.4z"/>
				<path class="st5" d="M112.3,330.4c-0.2,0-0.4,0-0.6-0.1l-7.6-4.2c-0.3-0.1-0.2-0.4,0.1-0.5c0.3-0.1,0.8-0.1,1.1,0l7.6,4.2
					c0.3,0.1,0.2,0.4-0.1,0.5C112.6,330.4,112.5,330.4,112.3,330.4z"/>
				<path class="st5" d="M89.9,330.4c-0.2,0-0.4,0-0.6-0.1l-7.6-4.2c-0.3-0.1-0.2-0.4,0.1-0.5c0.3-0.1,0.8-0.1,1.1,0l7.6,4.2
					c0.3,0.1,0.2,0.4-0.1,0.5C90.3,330.4,90.1,330.4,89.9,330.4z"/>
				<path class="st5" d="M67.6,330.4c-0.2,0-0.4,0-0.6-0.1l-7.6-4.2c-0.3-0.1-0.2-0.4,0.1-0.5s0.8-0.1,1.1,0l7.6,4.2
					c0.3,0.1,0.2,0.4-0.1,0.5C67.9,330.4,67.8,330.4,67.6,330.4z"/>
				<path class="st5" d="M45.2,330.4c-0.2,0-0.4,0-0.6-0.1l-7.6-4.2c-0.3-0.1-0.2-0.4,0.1-0.5s0.8-0.1,1.1,0l7.6,4.2
					c0.3,0.1,0.2,0.4-0.1,0.5C45.6,330.4,45.4,330.4,45.2,330.4z"/>
				<path class="st5" d="M22.9,330.4c-0.2,0-0.4,0-0.6-0.1l-7.6-4.2c-0.3-0.1-0.2-0.4,0.1-0.5s0.8-0.1,1.1,0l7.6,4.2
					c0.3,0.1,0.2,0.4-0.1,0.5C23.2,330.4,23,330.4,22.9,330.4z"/>
			</g>
		</g>
		<g class="st11">
			<g>
				<path class="st5" d="M6.7,335.1c-0.2,0-0.3,0-0.5-0.1c-0.3-0.1-0.4-0.3-0.1-0.5l7.6-4.2c0.3-0.1,0.7-0.2,1.1,0
					c0.3,0.1,0.4,0.3,0.1,0.5L7.3,335C7.1,335.1,6.9,335.1,6.7,335.1z"/>
				<path class="st5" d="M29.1,335.1c-0.2,0-0.3,0-0.5-0.1c-0.3-0.1-0.4-0.3-0.1-0.5l7.6-4.2c0.3-0.1,0.7-0.2,1.1,0
					c0.3,0.1,0.4,0.3,0.1,0.5l-7.6,4.2C29.5,335.1,29.3,335.1,29.1,335.1z"/>
				<path class="st5" d="M51.4,335.1c-0.2,0-0.3,0-0.5-0.1c-0.3-0.1-0.4-0.3-0.1-0.5l7.6-4.2c0.3-0.1,0.7-0.2,1.1,0
					c0.3,0.1,0.4,0.3,0.1,0.5L52,335C51.8,335.1,51.6,335.1,51.4,335.1z"/>
				<path class="st5" d="M73.8,335.1c-0.2,0-0.3,0-0.5-0.1c-0.3-0.1-0.4-0.3-0.1-0.5l7.6-4.2c0.3-0.1,0.7-0.2,1.1,0
					c0.3,0.1,0.4,0.3,0.1,0.5l-7.6,4.2C74.2,335.1,74,335.1,73.8,335.1z"/>
				<path class="st5" d="M96.1,335.1c-0.2,0-0.3,0-0.5-0.1c-0.3-0.1-0.4-0.3-0.1-0.5l7.6-4.2c0.3-0.1,0.7-0.2,1.1,0
					c0.3,0.1,0.4,0.3,0.1,0.5l-7.6,4.2C96.5,335.1,96.3,335.1,96.1,335.1z"/>
				<path class="st5" d="M118.5,335.1c-0.2,0-0.3,0-0.5-0.1c-0.3-0.1-0.4-0.3-0.1-0.5l7.6-4.2c0.3-0.1,0.7-0.2,1.1,0
					c0.3,0.1,0.4,0.3,0.1,0.5L119,335C118.9,335.1,118.7,335.1,118.5,335.1z"/>
				<path class="st5" d="M140.8,335.1c-0.2,0-0.3,0-0.5-0.1c-0.3-0.1-0.4-0.3-0.1-0.5l7.6-4.2c0.3-0.1,0.7-0.2,1.1,0
					c0.3,0.1,0.4,0.3,0.1,0.5l-7.6,4.2C141.2,335.1,141,335.1,140.8,335.1z"/>
				<path class="st5" d="M163.2,335.1c-0.2,0-0.3,0-0.5-0.1c-0.3-0.1-0.4-0.3-0.1-0.5l7.6-4.2c0.3-0.1,0.7-0.2,1.1,0
					c0.3,0.1,0.4,0.3,0.1,0.5l-7.6,4.2C163.6,335.1,163.4,335.1,163.2,335.1z"/>
				<path class="st5" d="M185.5,335.1c-0.2,0-0.3,0-0.5-0.1c-0.3-0.1-0.4-0.3-0.1-0.5l7.6-4.2c0.3-0.1,0.7-0.2,1.1,0
					c0.3,0.1,0.4,0.3,0.1,0.5l-7.6,4.2C186,335.1,185.7,335.1,185.5,335.1z"/>
				<path class="st5" d="M207.9,335.1c-0.2,0-0.3,0-0.5-0.1c-0.3-0.1-0.4-0.3-0.1-0.5l7.6-4.2c0.3-0.1,0.7-0.2,1.1,0
					c0.3,0.1,0.4,0.3,0.1,0.5l-7.6,4.2C208.3,335.1,208.1,335.1,207.9,335.1z"/>
				<path class="st5" d="M230.2,335.1c-0.2,0-0.3,0-0.5-0.1c-0.3-0.1-0.4-0.3-0.1-0.5l7.6-4.2c0.3-0.1,0.7-0.2,1.1,0
					c0.3,0.1,0.4,0.3,0.1,0.5l-7.6,4.2C230.7,335.1,230.4,335.1,230.2,335.1z"/>
				<path class="st5" d="M252.6,335.1c-0.2,0-0.3,0-0.5-0.1c-0.3-0.1-0.4-0.3-0.1-0.5l7.6-4.2c0.3-0.1,0.7-0.2,1.1,0
					c0.3,0.1,0.4,0.3,0.1,0.5l-7.6,4.2C253,335.1,252.8,335.1,252.6,335.1z"/>
				<path class="st5" d="M274.9,335.1c-0.2,0-0.3,0-0.5-0.1c-0.3-0.1-0.4-0.3-0.1-0.5l7.6-4.2c0.3-0.1,0.7-0.2,1.1,0
					c0.3,0.1,0.4,0.3,0.1,0.5l-7.6,4.2C275.4,335.1,275.1,335.1,274.9,335.1z"/>
				<path class="st5" d="M297.3,335.1c-0.2,0-0.3,0-0.5-0.1c-0.3-0.1-0.4-0.3-0.1-0.5l7.6-4.2c0.3-0.1,0.7-0.2,1.1,0
					c0.3,0.1,0.4,0.3,0.1,0.5l-7.6,4.2C297.7,335.1,297.5,335.1,297.3,335.1z"/>
				<path class="st5" d="M319.6,335.1c-0.2,0-0.3,0-0.5-0.1c-0.3-0.1-0.4-0.3-0.1-0.5l7.6-4.2c0.3-0.1,0.7-0.2,1.1,0
					c0.3,0.1,0.4,0.3,0.1,0.5l-7.6,4.2C320.1,335.1,319.8,335.1,319.6,335.1z"/>
				<path class="st5" d="M342,335.1c-0.2,0-0.3,0-0.5-0.1c-0.3-0.1-0.4-0.3-0.1-0.5l7.6-4.2c0.3-0.1,0.7-0.2,1.1,0
					c0.3,0.1,0.4,0.3,0.1,0.5l-7.6,4.2C342.4,335.1,342.2,335.1,342,335.1z"/>
				<path class="st5" d="M364.3,335.1c-0.2,0-0.3,0-0.5-0.1c-0.3-0.1-0.4-0.3-0.1-0.5l7.6-4.2c0.3-0.1,0.7-0.2,1.1,0
					c0.3,0.1,0.4,0.3,0.1,0.5l-7.6,4.2C364.8,335.1,364.6,335.1,364.3,335.1z"/>
				<path class="st5" d="M386.7,335.1c-0.2,0-0.3,0-0.5-0.1c-0.3-0.1-0.4-0.3-0.1-0.5l7.6-4.2c0.3-0.1,0.7-0.2,1.1,0
					c0.3,0.1,0.4,0.3,0.1,0.5l-7.6,4.2C387.1,335.1,386.9,335.1,386.7,335.1z"/>
				<path class="st5" d="M409,335.1c-0.2,0-0.3,0-0.5-0.1c-0.3-0.1-0.4-0.3-0.1-0.5l7.6-4.2c0.3-0.1,0.7-0.2,1.1,0
					c0.3,0.1,0.4,0.3,0.1,0.5l-7.6,4.2C409.5,335.1,409.3,335.1,409,335.1z"/>
				<path class="st5" d="M431.4,335.1c-0.2,0-0.3,0-0.5-0.1c-0.3-0.1-0.4-0.3-0.1-0.5l7.6-4.2c0.3-0.1,0.7-0.2,1.1,0
					c0.3,0.1,0.4,0.3,0.1,0.5L432,335C431.8,335.1,431.6,335.1,431.4,335.1z"/>
				<path class="st5" d="M453.7,335.1c-0.2,0-0.3,0-0.5-0.1c-0.3-0.1-0.4-0.3-0.1-0.5l7.6-4.2c0.3-0.1,0.7-0.2,1.1,0
					c0.3,0.1,0.4,0.3,0.1,0.5l-7.6,4.2C454.2,335.1,454,335.1,453.7,335.1z"/>
				<path class="st5" d="M476.1,335.1c-0.2,0-0.3,0-0.5-0.1c-0.3-0.1-0.4-0.3-0.1-0.5l7.6-4.2c0.3-0.1,0.7-0.2,1.1,0
					c0.3,0.1,0.4,0.3,0.1,0.5l-7.6,4.2C476.5,335.1,476.3,335.1,476.1,335.1z"/>
				<path class="st5" d="M498.4,335.1c-0.2,0-0.3,0-0.5-0.1c-0.3-0.1-0.4-0.3-0.1-0.5l7.6-4.2c0.3-0.1,0.7-0.2,1.1,0
					c0.3,0.1,0.4,0.3,0.1,0.5L499,335C498.9,335.1,498.7,335.1,498.4,335.1z"/>
				<path class="st5" d="M520.8,335.1c-0.2,0-0.3,0-0.5-0.1c-0.3-0.1-0.4-0.3-0.1-0.5l7.6-4.2c0.3-0.1,0.7-0.2,1.1,0
					c0.3,0.1,0.4,0.3,0.1,0.5l-7.6,4.2C521.2,335.1,521,335.1,520.8,335.1z"/>
				<path class="st5" d="M543.1,335.1c-0.2,0-0.3,0-0.5-0.1c-0.3-0.1-0.4-0.3-0.1-0.5l7.6-4.2c0.3-0.1,0.7-0.2,1.1,0
					c0.3,0.1,0.4,0.3,0.1,0.5l-7.6,4.2C543.6,335.1,543.4,335.1,543.1,335.1z"/>
				<path class="st5" d="M565.5,335.1c-0.2,0-0.3,0-0.5-0.1c-0.3-0.1-0.4-0.3-0.1-0.5l7.6-4.2c0.3-0.1,0.7-0.2,1.1,0
					c0.3,0.1,0.4,0.3,0.1,0.5l-7.6,4.2C565.9,335.1,565.7,335.1,565.5,335.1z"/>
				<path class="st5" d="M587.9,335.1c-0.2,0-0.3,0-0.5-0.1c-0.3-0.1-0.4-0.3-0.1-0.5l7.6-4.2c0.3-0.1,0.7-0.2,1.1,0
					c0.3,0.1,0.4,0.3,0.1,0.5l-7.6,4.2C588.3,335.1,588.1,335.1,587.9,335.1z"/>
				<path class="st5" d="M614.8,331.7l-5.2,2.9c-0.3,0.1-0.2,0.4,0.1,0.5c0.1,0.1,0.3,0.1,0.5,0.1s0.4,0,0.6-0.1l4.1-2.2
					L614.8,331.7L614.8,331.7z"/>
			</g>
		</g>
		<g class="st11">
			<g>
				<path class="st5" d="M7,345.5c-0.2,0-0.3,0-0.5-0.1c-0.3-0.1-0.4-0.3-0.1-0.5l7.6-4.2c0.3-0.1,0.7-0.2,1.1,0
					c0.3,0.1,0.4,0.3,0.1,0.5l-7.6,4.2C7.4,345.5,7.2,345.5,7,345.5z"/>
				<path class="st5" d="M29.3,345.5c-0.2,0-0.3,0-0.5-0.1c-0.3-0.1-0.4-0.3-0.1-0.5l7.6-4.2c0.3-0.1,0.7-0.2,1.1,0
					c0.3,0.1,0.4,0.3,0.1,0.5l-7.6,4.2C29.7,345.5,29.5,345.5,29.3,345.5z"/>
				<path class="st5" d="M51.7,345.5c-0.2,0-0.3,0-0.5-0.1c-0.3-0.1-0.4-0.3-0.1-0.5l7.6-4.2c0.3-0.1,0.7-0.2,1.1,0
					c0.3,0.1,0.4,0.3,0.1,0.5l-7.6,4.2C52.1,345.5,51.9,345.5,51.7,345.5z"/>
				<path class="st5" d="M74,345.5c-0.2,0-0.3,0-0.5-0.1c-0.3-0.1-0.4-0.3-0.1-0.5l7.6-4.2c0.3-0.1,0.7-0.2,1.1,0
					c0.3,0.1,0.4,0.3,0.1,0.5l-7.6,4.2C74.4,345.5,74.2,345.5,74,345.5z"/>
				<path class="st5" d="M96.4,345.5c-0.2,0-0.3,0-0.5-0.1c-0.3-0.1-0.4-0.3-0.1-0.5l7.6-4.2c0.3-0.1,0.7-0.2,1.1,0
					c0.3,0.1,0.4,0.3,0.1,0.5l-7.6,4.2C96.8,345.5,96.6,345.5,96.4,345.5z"/>
				<path class="st5" d="M118.7,345.5c-0.2,0-0.3,0-0.5-0.1c-0.3-0.1-0.4-0.3-0.1-0.5l7.6-4.2c0.3-0.1,0.7-0.2,1.1,0
					c0.3,0.1,0.4,0.3,0.1,0.5l-7.6,4.2C119.1,345.5,118.9,345.5,118.7,345.5z"/>
				<path class="st5" d="M141.1,345.5c-0.2,0-0.3,0-0.5-0.1c-0.3-0.1-0.4-0.3-0.1-0.5l7.6-4.2c0.3-0.1,0.7-0.2,1.1,0
					c0.3,0.1,0.4,0.3,0.1,0.5l-7.6,4.2C141.5,345.5,141.3,345.5,141.1,345.5z"/>
				<path class="st5" d="M163.4,345.5c-0.2,0-0.3,0-0.5-0.1c-0.3-0.1-0.4-0.3-0.1-0.5l7.6-4.2c0.3-0.1,0.7-0.2,1.1,0
					c0.3,0.1,0.4,0.3,0.1,0.5l-7.6,4.2C163.8,345.5,163.6,345.5,163.4,345.5z"/>
				<path class="st5" d="M185.8,345.5c-0.2,0-0.3,0-0.5-0.1c-0.3-0.1-0.4-0.3-0.1-0.5l7.6-4.2c0.3-0.1,0.7-0.2,1.1,0
					c0.3,0.1,0.4,0.3,0.1,0.5l-7.6,4.2C186.2,345.5,186,345.5,185.8,345.5z"/>
				<path class="st5" d="M208.1,345.5c-0.2,0-0.3,0-0.5-0.1c-0.3-0.1-0.4-0.3-0.1-0.5l7.6-4.2c0.3-0.1,0.7-0.2,1.1,0
					c0.3,0.1,0.4,0.3,0.1,0.5l-7.6,4.2C208.6,345.5,208.3,345.5,208.1,345.5z"/>
				<path class="st5" d="M230.5,345.5c-0.2,0-0.3,0-0.5-0.1c-0.3-0.1-0.4-0.3-0.1-0.5l7.6-4.2c0.3-0.1,0.7-0.2,1.1,0
					c0.3,0.1,0.4,0.3,0.1,0.5l-7.6,4.2C230.9,345.5,230.7,345.5,230.5,345.5z"/>
				<path class="st5" d="M252.8,345.5c-0.2,0-0.3,0-0.5-0.1c-0.3-0.1-0.4-0.3-0.1-0.5l7.6-4.2c0.3-0.1,0.7-0.2,1.1,0
					c0.3,0.1,0.4,0.3,0.1,0.5l-7.6,4.2C253.3,345.5,253,345.5,252.8,345.5z"/>
				<path class="st5" d="M275.2,345.5c-0.2,0-0.3,0-0.5-0.1c-0.3-0.1-0.4-0.3-0.1-0.5l7.6-4.2c0.3-0.1,0.7-0.2,1.1,0
					c0.3,0.1,0.4,0.3,0.1,0.5l-7.6,4.2C275.6,345.5,275.4,345.5,275.2,345.5z"/>
				<path class="st5" d="M297.5,345.5c-0.2,0-0.3,0-0.5-0.1c-0.3-0.1-0.4-0.3-0.1-0.5l7.6-4.2c0.3-0.1,0.7-0.2,1.1,0
					c0.3,0.1,0.4,0.3,0.1,0.5l-7.6,4.2C298,345.5,297.7,345.5,297.5,345.5z"/>
				<path class="st5" d="M319.9,345.5c-0.2,0-0.3,0-0.5-0.1c-0.3-0.1-0.4-0.3-0.1-0.5l7.6-4.2c0.3-0.1,0.7-0.2,1.1,0
					c0.3,0.1,0.4,0.3,0.1,0.5l-7.6,4.2C320.3,345.5,320.1,345.5,319.9,345.5z"/>
				<path class="st5" d="M342.2,345.5c-0.2,0-0.3,0-0.5-0.1c-0.3-0.1-0.4-0.3-0.1-0.5l7.6-4.2c0.3-0.1,0.7-0.2,1.1,0
					c0.3,0.1,0.4,0.3,0.1,0.5l-7.6,4.2C342.7,345.5,342.4,345.5,342.2,345.5z"/>
				<path class="st5" d="M364.6,345.5c-0.2,0-0.3,0-0.5-0.1c-0.3-0.1-0.4-0.3-0.1-0.5l7.6-4.2c0.3-0.1,0.7-0.2,1.1,0
					c0.3,0.1,0.4,0.3,0.1,0.5l-7.6,4.2C365,345.5,364.8,345.5,364.6,345.5z"/>
				<path class="st5" d="M386.9,345.5c-0.2,0-0.3,0-0.5-0.1c-0.3-0.1-0.4-0.3-0.1-0.5l7.6-4.2c0.3-0.1,0.7-0.2,1.1,0
					c0.3,0.1,0.4,0.3,0.1,0.5l-7.6,4.2C387.4,345.5,387.2,345.5,386.9,345.5z"/>
				<path class="st5" d="M409.3,345.5c-0.2,0-0.3,0-0.5-0.1c-0.3-0.1-0.4-0.3-0.1-0.5l7.6-4.2c0.3-0.1,0.7-0.2,1.1,0
					c0.3,0.1,0.4,0.3,0.1,0.5l-7.6,4.2C409.7,345.5,409.5,345.5,409.3,345.5z"/>
				<path class="st5" d="M431.6,345.5c-0.2,0-0.3,0-0.5-0.1c-0.3-0.1-0.4-0.3-0.1-0.5l7.6-4.2c0.3-0.1,0.7-0.2,1.1,0
					c0.3,0.1,0.4,0.3,0.1,0.5l-7.6,4.2C432.1,345.5,431.9,345.5,431.6,345.5z"/>
				<path class="st5" d="M454,345.5c-0.2,0-0.3,0-0.5-0.1c-0.3-0.1-0.4-0.3-0.1-0.5l7.6-4.2c0.3-0.1,0.7-0.2,1.1,0
					c0.3,0.1,0.4,0.3,0.1,0.5l-7.6,4.2C454.4,345.5,454.2,345.5,454,345.5z"/>
				<path class="st5" d="M476.3,345.5c-0.2,0-0.3,0-0.5-0.1c-0.3-0.1-0.4-0.3-0.1-0.5l7.6-4.2c0.3-0.1,0.7-0.2,1.1,0
					c0.3,0.1,0.4,0.3,0.1,0.5l-7.6,4.2C476.8,345.5,476.6,345.5,476.3,345.5z"/>
				<path class="st5" d="M498.7,345.5c-0.2,0-0.3,0-0.5-0.1c-0.3-0.1-0.4-0.3-0.1-0.5l7.6-4.2c0.3-0.1,0.7-0.2,1.1,0
					c0.3,0.1,0.4,0.3,0.1,0.5l-7.6,4.2C499.1,345.5,498.9,345.5,498.7,345.5z"/>
				<path class="st5" d="M521,345.5c-0.2,0-0.3,0-0.5-0.1c-0.3-0.1-0.4-0.3-0.1-0.5l7.6-4.2c0.3-0.1,0.7-0.2,1.1,0
					c0.3,0.1,0.4,0.3,0.1,0.5l-7.6,4.2C521.5,345.5,521.3,345.5,521,345.5z"/>
				<path class="st5" d="M543.4,345.5c-0.2,0-0.3,0-0.5-0.1c-0.3-0.1-0.4-0.3-0.1-0.5l7.6-4.2c0.3-0.1,0.7-0.2,1.1,0
					c0.3,0.1,0.4,0.3,0.1,0.5l-7.6,4.2C543.8,345.5,543.6,345.5,543.4,345.5z"/>
				<path class="st5" d="M565.7,345.5c-0.2,0-0.3,0-0.5-0.1c-0.3-0.1-0.4-0.3-0.1-0.5l7.6-4.2c0.3-0.1,0.7-0.2,1.1,0
					c0.3,0.1,0.4,0.3,0.1,0.5l-7.6,4.2C566.2,345.5,566,345.5,565.7,345.5z"/>
				<path class="st5" d="M588.1,345.5c-0.2,0-0.3,0-0.5-0.1c-0.3-0.1-0.4-0.3-0.1-0.5l7.6-4.2c0.3-0.1,0.7-0.2,1.1,0
					c0.3,0.1,0.4,0.3,0.1,0.5l-7.6,4.2C588.5,345.5,588.3,345.5,588.1,345.5z"/>
				<path class="st5" d="M614.8,342.2l-5,2.7c-0.3,0.1-0.2,0.4,0.1,0.5c0.1,0.1,0.3,0.1,0.5,0.1s0.4,0,0.6-0.1l3.8-2.1L614.8,342.2
					L614.8,342.2z"/>
			</g>
		</g>
		<g class="st11">
			<g>
				<path class="st5" d="M606,339.8c-0.2,0-0.4,0-0.6-0.1l-7.6-4.2c-0.3-0.1-0.2-0.4,0.1-0.5s0.8-0.1,1.1,0l7.6,4.2
					c0.3,0.1,0.2,0.4-0.1,0.5C606.3,339.8,606.2,339.8,606,339.8z"/>
				<path class="st5" d="M583.7,339.8c-0.2,0-0.4,0-0.6-0.1l-7.6-4.2c-0.3-0.1-0.2-0.4,0.1-0.5s0.8-0.1,1.1,0l7.6,4.2
					c0.3,0.1,0.2,0.4-0.1,0.5C584,339.8,583.8,339.8,583.7,339.8z"/>
				<path class="st5" d="M561.3,339.8c-0.2,0-0.4,0-0.6-0.1l-7.6-4.2c-0.3-0.1-0.2-0.4,0.1-0.5s0.8-0.1,1.1,0l7.6,4.2
					c0.3,0.1,0.2,0.4-0.1,0.5C561.6,339.8,561.5,339.8,561.3,339.8z"/>
				<path class="st5" d="M539,339.8c-0.2,0-0.4,0-0.6-0.1l-7.6-4.2c-0.3-0.1-0.2-0.4,0.1-0.5s0.8-0.1,1.1,0l7.6,4.2
					c0.3,0.1,0.2,0.4-0.1,0.5C539.3,339.8,539.1,339.8,539,339.8z"/>
				<path class="st5" d="M516.6,339.8c-0.2,0-0.4,0-0.6-0.1l-7.6-4.2c-0.3-0.1-0.2-0.4,0.1-0.5c0.3-0.1,0.8-0.1,1.1,0l7.6,4.2
					c0.3,0.1,0.2,0.4-0.1,0.5C516.9,339.8,516.8,339.8,516.6,339.8z"/>
				<path class="st5" d="M494.3,339.8c-0.2,0-0.4,0-0.6-0.1l-7.6-4.2c-0.3-0.1-0.2-0.4,0.1-0.5c0.3-0.1,0.8-0.1,1.1,0l7.6,4.2
					c0.3,0.1,0.2,0.4-0.1,0.5C494.6,339.8,494.4,339.8,494.3,339.8z"/>
				<path class="st5" d="M471.9,339.8c-0.2,0-0.4,0-0.6-0.1l-7.6-4.2c-0.3-0.1-0.2-0.4,0.1-0.5c0.3-0.1,0.8-0.1,1.1,0l7.6,4.2
					c0.3,0.1,0.2,0.4-0.1,0.5C472.2,339.8,472.1,339.8,471.9,339.8z"/>
				<path class="st5" d="M449.5,339.8c-0.2,0-0.4,0-0.6-0.1l-7.6-4.2c-0.3-0.1-0.2-0.4,0.1-0.5c0.3-0.1,0.8-0.1,1.1,0l7.6,4.2
					c0.3,0.1,0.2,0.4-0.1,0.5C449.9,339.8,449.7,339.8,449.5,339.8z"/>
				<path class="st5" d="M427.2,339.8c-0.2,0-0.4,0-0.6-0.1l-7.6-4.2c-0.3-0.1-0.2-0.4,0.1-0.5c0.3-0.1,0.8-0.1,1.1,0l7.6,4.2
					c0.3,0.1,0.2,0.4-0.1,0.5C427.5,339.8,427.4,339.8,427.2,339.8z"/>
				<path class="st5" d="M404.8,339.8c-0.2,0-0.4,0-0.6-0.1l-7.6-4.2c-0.3-0.1-0.2-0.4,0.1-0.5c0.3-0.1,0.8-0.1,1.1,0l7.6,4.2
					c0.3,0.1,0.2,0.4-0.1,0.5C405.2,339.8,405,339.8,404.8,339.8z"/>
				<path class="st5" d="M382.5,339.8c-0.2,0-0.4,0-0.6-0.1l-7.6-4.2c-0.3-0.1-0.2-0.4,0.1-0.5c0.3-0.1,0.8-0.1,1.1,0l7.6,4.2
					c0.3,0.1,0.2,0.4-0.1,0.5C382.8,339.8,382.7,339.8,382.5,339.8z"/>
				<path class="st5" d="M360.1,339.8c-0.2,0-0.4,0-0.6-0.1l-7.6-4.2c-0.3-0.1-0.2-0.4,0.1-0.5c0.3-0.1,0.8-0.1,1.1,0l7.6,4.2
					c0.3,0.1,0.2,0.4-0.1,0.5C360.5,339.8,360.3,339.8,360.1,339.8z"/>
				<path class="st5" d="M337.8,339.8c-0.2,0-0.4,0-0.6-0.1l-7.6-4.2c-0.3-0.1-0.2-0.4,0.1-0.5c0.3-0.1,0.8-0.1,1.1,0l7.6,4.2
					c0.3,0.1,0.2,0.4-0.1,0.5C338.1,339.8,338,339.8,337.8,339.8z"/>
				<path class="st5" d="M315.4,339.8c-0.2,0-0.4,0-0.6-0.1l-7.6-4.2c-0.3-0.1-0.2-0.4,0.1-0.5c0.3-0.1,0.8-0.1,1.1,0l7.6,4.2
					c0.3,0.1,0.2,0.4-0.1,0.5C315.8,339.8,315.6,339.8,315.4,339.8z"/>
				<path class="st5" d="M293.1,339.8c-0.2,0-0.4,0-0.6-0.1l-7.6-4.2c-0.3-0.1-0.2-0.4,0.1-0.5c0.3-0.1,0.8-0.1,1.1,0l7.6,4.2
					c0.3,0.1,0.2,0.4-0.1,0.5C293.4,339.8,293.3,339.8,293.1,339.8z"/>
				<path class="st5" d="M270.7,339.8c-0.2,0-0.4,0-0.6-0.1l-7.6-4.2c-0.3-0.1-0.2-0.4,0.1-0.5c0.3-0.1,0.8-0.1,1.1,0l7.6,4.2
					c0.3,0.1,0.2,0.4-0.1,0.5C271.1,339.8,270.9,339.8,270.7,339.8z"/>
				<path class="st5" d="M248.4,339.8c-0.2,0-0.4,0-0.6-0.1l-7.6-4.2c-0.3-0.1-0.2-0.4,0.1-0.5s0.8-0.1,1.1,0l7.6,4.2
					c0.3,0.1,0.2,0.4-0.1,0.5C248.7,339.8,248.6,339.8,248.4,339.8z"/>
				<path class="st5" d="M226,339.8c-0.2,0-0.4,0-0.6-0.1l-7.6-4.2c-0.3-0.1-0.2-0.4,0.1-0.5s0.8-0.1,1.1,0l7.6,4.2
					c0.3,0.1,0.2,0.4-0.1,0.5C226.4,339.8,226.2,339.8,226,339.8z"/>
				<path class="st5" d="M203.7,339.8c-0.2,0-0.4,0-0.6-0.1l-7.6-4.2c-0.3-0.1-0.2-0.4,0.1-0.5s0.8-0.1,1.1,0l7.6,4.2
					c0.3,0.1,0.2,0.4-0.1,0.5C204,339.8,203.8,339.8,203.7,339.8z"/>
				<path class="st5" d="M181.3,339.8c-0.2,0-0.4,0-0.6-0.1l-7.6-4.2c-0.3-0.1-0.2-0.4,0.1-0.5s0.8-0.1,1.1,0l7.6,4.2
					c0.3,0.1,0.2,0.4-0.1,0.5C181.7,339.8,181.5,339.8,181.3,339.8z"/>
				<path class="st5" d="M159,339.8c-0.2,0-0.4,0-0.6-0.1l-7.6-4.2c-0.3-0.1-0.2-0.4,0.1-0.5s0.8-0.1,1.1,0l7.6,4.2
					c0.3,0.1,0.2,0.4-0.1,0.5C159.3,339.8,159.1,339.8,159,339.8z"/>
				<path class="st5" d="M136.6,339.8c-0.2,0-0.4,0-0.6-0.1l-7.6-4.2c-0.3-0.1-0.2-0.4,0.1-0.5s0.8-0.1,1.1,0l7.6,4.2
					c0.3,0.1,0.2,0.4-0.1,0.5C137,339.8,136.8,339.8,136.6,339.8z"/>
				<path class="st5" d="M114.3,339.8c-0.2,0-0.4,0-0.6-0.1l-7.6-4.2c-0.3-0.1-0.2-0.4,0.1-0.5c0.3-0.1,0.8-0.1,1.1,0l7.6,4.2
					c0.3,0.1,0.2,0.4-0.1,0.5C114.6,339.8,114.4,339.8,114.3,339.8z"/>
				<path class="st5" d="M91.9,339.8c-0.2,0-0.4,0-0.6-0.1l-7.6-4.2c-0.3-0.1-0.2-0.4,0.1-0.5c0.3-0.1,0.8-0.1,1.1,0l7.6,4.2
					c0.3,0.1,0.2,0.4-0.1,0.5C92.3,339.8,92.1,339.8,91.9,339.8z"/>
				<path class="st5" d="M69.6,339.8c-0.2,0-0.4,0-0.6-0.1l-7.6-4.2c-0.3-0.1-0.2-0.4,0.1-0.5s0.8-0.1,1.1,0l7.6,4.2
					c0.3,0.1,0.2,0.4-0.1,0.5C69.9,339.8,69.7,339.8,69.6,339.8z"/>
				<path class="st5" d="M47.2,339.8c-0.2,0-0.4,0-0.6-0.1l-7.6-4.2c-0.3-0.1-0.2-0.4,0.1-0.5s0.8-0.1,1.1,0l7.6,4.2
					c0.3,0.1,0.2,0.4-0.1,0.5C47.6,339.8,47.4,339.8,47.2,339.8z"/>
				<path class="st5" d="M24.9,339.8c-0.2,0-0.4,0-0.6-0.1l-7.6-4.2c-0.3-0.1-0.2-0.4,0.1-0.5c0.3-0.1,0.8-0.1,1.1,0l7.6,4.2
					c0.3,0.1,0.2,0.4-0.1,0.5C25.2,339.8,25,339.8,24.9,339.8z"/>
				<path class="st5" d="M3.1,339.2l-3.3-1.8v1.1l2.1,1.2c0.1,0.1,0.4,0.1,0.6,0.1s0.3,0,0.5-0.1C3.3,339.6,3.4,339.4,3.1,339.2z"/>
			</g>
		</g>
	</g>
	<g>
		<g>
			<defs>
				<polygon id="SVGID_1_" points="1,31 2,31 1,32 				"/>
			</defs>
			<defs>
				<polygon id="SVGID_00000025421013981215084700000016929985382231787954_" points="-1,29 -2,29 -1,28 				"/>
			</defs>
			<clipPath id="SVGID_00000104689873520577837750000010914674128145227184_">
				<use xlink:href="#SVGID_1_"  style="overflow:visible;"/>
			</clipPath>
			
				<clipPath id="SVGID_00000098907292584746758690000000451434362606002856_" style="clip-path:url(#SVGID_00000104689873520577837750000010914674128145227184_);">
				<use xlink:href="#SVGID_00000025421013981215084700000016929985382231787954_"  style="overflow:visible;"/>
			</clipPath>
			<defs>
				<filter id="Adobe_OpacityMaskFilter" filterUnits="userSpaceOnUse" x="-806" y="-180.3" width="2332.3" height="708.2">
					<feColorMatrix  type="matrix" values="1 0 0 0 0  0 1 0 0 0  0 0 1 0 0  0 0 0 1 0"/>
				</filter>
			</defs>
			
				<mask maskUnits="userSpaceOnUse" x="-806" y="-180.3" width="2332.3" height="708.2" id="SVGID_00000162326050812297278140000003655092640871320218_">
				<g class="st13">
					<g>
						<defs>
							<polygon id="SVGID_00000019671658860708662680000000778840534534107027_" points="1,31 2,31 1,32 							"/>
						</defs>
						<defs>
							<polygon id="SVGID_00000038390341041236599570000003157050573794636213_" points="-1,29 -2,29 -1,28 							"/>
						</defs>
						
							<clipPath id="SVGID_00000059280195970099574290000005333437638321209486_" style="clip-path:url(#SVGID_00000098907292584746758690000000451434362606002856_);">
							<use xlink:href="#SVGID_00000019671658860708662680000000778840534534107027_"  style="overflow:visible;"/>
						</clipPath>
						
							<clipPath id="SVGID_00000173849489413236681530000011716132696821437089_" style="clip-path:url(#SVGID_00000059280195970099574290000005333437638321209486_);">
							<use xlink:href="#SVGID_00000038390341041236599570000003157050573794636213_"  style="overflow:visible;"/>
						</clipPath>
						
							<linearGradient id="SVGID_00000005238356634829530190000003097190686267985574_" gradientUnits="userSpaceOnUse" x1="-3831.3879" y1="2972.8884" x2="-3831.3879" y2="2264.6885" gradientTransform="matrix(-1 0 0 -1 -3471.238 2792.5884)">
							<stop  offset="0.3568" style="stop-color:#FFFFFF"/>
							<stop  offset="1" style="stop-color:#000000"/>
						</linearGradient>
						
							<rect x="-806" y="-180.3" style="clip-path:url(#SVGID_00000173849489413236681530000011716132696821437089_);fill:url(#SVGID_00000005238356634829530190000003097190686267985574_);" width="2332.3" height="708.2"/>
					</g>
				</g>
			</mask>
			
				<linearGradient id="SVGID_00000075878821405057149040000009215443324252181910_" gradientUnits="userSpaceOnUse" x1="-3831.3879" y1="2972.8884" x2="-3831.3879" y2="2264.6885" gradientTransform="matrix(-1 0 0 -1 -3471.238 2792.5884)">
				<stop  offset="0.3568" style="stop-color:#FFFFFF"/>
				<stop  offset="1" style="stop-color:#000000"/>
			</linearGradient>
			
				<rect x="-806" y="-180.3" style="clip-path:url(#SVGID_00000098907292584746758690000000451434362606002856_);mask:url(#SVGID_00000162326050812297278140000003655092640871320218_);fill:url(#SVGID_00000075878821405057149040000009215443324252181910_);" width="2332.3" height="708.2"/>
		</g>
	</g>
	<g class="st18">
		
			<linearGradient id="SVGID_00000052810591262267688240000005742580876499640996_" gradientUnits="userSpaceOnUse" x1="-3778.5381" y1="2972.8586" x2="-3778.5381" y2="2264.6489" gradientTransform="matrix(-1 0 0 -1 -3471.238 2792.5884)">
			<stop  offset="0.3568" style="stop-color:#FF000D"/>
			<stop  offset="1" style="stop-color:#5E1823"/>
		</linearGradient>
		
			<rect x="-204.7" y="-132.4" style="fill:url(#SVGID_00000052810591262267688240000005742580876499640996_);" width="1024" height="646"/>
	</g>
	<g>
		<path class="st20" d="M403.7,172.7H394c-0.9,0-1.6-0.8-1.6-1.9c0-1,0.7-1.9,1.6-1.9h9.7c0.9,0,1.6,0.8,1.6,1.9
			C405.3,171.9,404.6,172.7,403.7,172.7z"/>
		<g>
			<path class="st21" d="M400.6,176.5h-61.2c-1.2,0-2.2,1.1-2.2,2.5v2.4c0,1.4,1,2.5,2.2,2.5h61.2c1.2,0,2.2-1.1,2.2-2.5V179
				C402.8,177.6,401.8,176.5,400.6,176.5z"/>
			<rect x="398.3" y="172.7" class="st22" width="2.1" height="3.8"/>
		</g>
	</g>
	<g>
		<path class="st20" d="M221.4,172.8h9.7c0.9,0,1.6-0.8,1.6-1.9c0-1-0.7-1.9-1.6-1.9h-9.7c-0.9,0-1.6,0.8-1.6,1.9
			C219.7,171.9,220.5,172.8,221.4,172.8z"/>
		<g>
			<path class="st21" d="M224.5,176.5h61.2c1.2,0,2.2,1.1,2.2,2.5v2.4c0,1.4-1,2.5-2.2,2.5h-61.2c-1.2,0-2.2-1.1-2.2-2.5V179
				C222.3,177.7,223.3,176.5,224.5,176.5z"/>
			<rect x="224.6" y="172.7" class="st22" width="2.1" height="3.8"/>
		</g>
	</g>
	<rect x="291.8" y="176.4" class="st21" width="41.4" height="171.9"/>
	<path class="st23" d="M275.9,171.3c0.3,7.3,5.5,13.2,11.9,13.2h49.6c6.3,0,11.5-5.9,11.9-13.2H275.9z"/>
	<path class="st24" d="M320.4,333.6h-16.9V205.9c0-2.9,2.4-5.3,5.3-5.3h6.3c2.9,0,5.3,2.4,5.3,5.3L320.4,333.6L320.4,333.6z"/>
	<rect x="308.9" y="200.5" class="st25" width="6.1" height="66"/>
	<path class="st3" d="M318.1,333.6h-12v-71.9c0-1.8,1.5-3.3,3.3-3.3h5.3c1.8,0,3.3,1.5,3.3,3.3v71.9H318.1z"/>
	<g>
		<path class="st26" d="M415.9,333.7h-54.7v-92.9h55.2c1.1,0,2,1.1,2,2.4v87.5C418.5,332.4,417.3,333.7,415.9,333.7z"/>
		<path class="st24" d="M397.3,333.7h-52.8c-1.2,0-2.2-1.2-2.2-2.6v-87.6c0-1.4,1-2.6,2.2-2.6h52.8c1.2,0,2.2,1.2,2.2,2.6v87.6
			C399.5,332.6,398.5,333.7,397.3,333.7z"/>
		<path class="st3" d="M347.2,333.7C347.2,333.8,347.2,333.8,347.2,333.7c0,3.8,2,6.9,4.5,6.9s4.5-3,4.5-6.8c0,0,0,0,0-0.1H347.2z"
			/>
		<path class="st3" d="M366.1,333.7C366.1,333.8,366.1,333.8,366.1,333.7c0,3.8,2,6.9,4.5,6.9s4.5-3,4.5-6.8c0,0,0,0,0-0.1H366.1z"
			/>
		<path class="st3" d="M388.9,333.7C388.9,333.8,388.9,333.8,388.9,333.7c0,3.8,2,6.9,4.5,6.9s4.5-3,4.5-6.8c0,0,0,0,0-0.1H388.9z"
			/>
		<path class="st3" d="M406.7,333.7C406.7,333.8,406.7,333.8,406.7,333.7c0,3.8,2,6.9,4.5,6.9s4.5-3,4.5-6.8c0,0,0,0,0-0.1H406.7z"
			/>
		<g>
			<rect x="342.4" y="250.3" class="st26" width="63.5" height="1.2"/>
			<rect x="342.4" y="260.6" class="st26" width="63.5" height="1.2"/>
			<rect x="342.3" y="270.9" class="st26" width="63.5" height="1.2"/>
			<rect x="342.3" y="281.2" class="st26" width="63.5" height="1.2"/>
			<rect x="342.2" y="291.4" class="st26" width="63.5" height="1.2"/>
			<rect x="342.2" y="301.7" class="st26" width="63.5" height="1.2"/>
			<rect x="342.1" y="312" class="st26" width="63.5" height="1.2"/>
			<rect x="342.1" y="322.3" class="st26" width="63.5" height="1.2"/>
		</g>
	</g>
	<g>
		<g>
			<path class="st21" d="M450.7,319.9h-23.3c-0.7,0-1.3-0.6-1.3-1.3v-37.5c0-0.7,0.6-1.3,1.3-1.3h23.3c0.7,0,1.3,0.6,1.3,1.3v37.5
				C452,319.3,451.4,319.9,450.7,319.9z"/>
			<path class="st23" d="M450.8,318.4c-0.2,0-0.3-0.1-0.4-0.2l-22.7-35.8c-0.2-0.3-0.1-0.6,0.1-0.8s0.5-0.1,0.7,0.1l22.7,35.8
				c0.2,0.3,0.1,0.6-0.1,0.8C451,318.3,450.9,318.4,450.8,318.4z"/>
			<path class="st23" d="M428.1,318.4c-0.1,0-0.2,0-0.3-0.1c-0.2-0.2-0.3-0.6-0.1-0.8l22.7-35.8c0.2-0.3,0.5-0.3,0.7-0.1
				c0.2,0.2,0.3,0.6,0.1,0.8l-22.7,35.8C428.4,318.3,428.2,318.4,428.1,318.4z"/>
		</g>
		<rect x="428.1" y="278.5" class="st27" width="4.1" height="1.3"/>
	</g>
	<g>
		<ellipse class="st22" cx="482.8" cy="289.1" rx="26.5" ry="31.1"/>
		<ellipse class="st28" cx="482.8" cy="289.1" rx="20.5" ry="24"/>
		<g>
			<path class="st22" d="M482.4,284.4c0,0.4,0.3,0.7,0.6,0.7c0.3,0,0.6-0.3,0.6-0.7s-0.3-0.7-0.6-0.7
				C482.7,283.7,482.4,284,482.4,284.4z"/>
			<path class="st22" d="M484.5,284.8c-0.2,0.3-0.1,0.8,0.2,1c0.3,0.2,0.6,0.1,0.8-0.3c0.2-0.3,0.1-0.8-0.2-1
				C485,284.4,484.6,284.5,484.5,284.8z"/>
			<path class="st22" d="M486.1,286.4c-0.3,0.2-0.4,0.6-0.2,1c0.2,0.3,0.5,0.4,0.8,0.3c0.3-0.2,0.4-0.6,0.2-0.9
				C486.7,286.3,486.4,286.2,486.1,286.4z"/>
			<path class="st22" d="M486.8,288.7c-0.3,0-0.6,0.3-0.6,0.7c0,0.4,0.3,0.7,0.6,0.7c0.3,0,0.6-0.3,0.6-0.7S487.1,288.7,486.8,288.7
				z"/>
			<path class="st22" d="M486.5,291.2c-0.3-0.2-0.6-0.1-0.8,0.3c-0.2,0.3-0.1,0.8,0.2,0.9c0.3,0.2,0.6,0.1,0.8-0.3
				C486.9,291.8,486.8,291.4,486.5,291.2z"/>
			<path class="st22" d="M485.2,293.1c-0.2-0.3-0.5-0.4-0.8-0.2c-0.3,0.2-0.4,0.6-0.2,1c0.2,0.3,0.5,0.4,0.8,0.2
				C485.2,293.8,485.3,293.4,485.2,293.1z"/>
			<path class="st22" d="M483.2,294c0-0.4-0.3-0.7-0.6-0.7c-0.3,0-0.6,0.3-0.6,0.7c0,0.4,0.3,0.7,0.6,0.7
				C483,294.7,483.2,294.4,483.2,294z"/>
			<path class="st22" d="M481.2,293.6c0.2-0.3,0.1-0.8-0.2-0.9c-0.3-0.2-0.6-0.1-0.8,0.3c-0.2,0.3-0.1,0.8,0.2,0.9
				C480.6,294,481,293.9,481.2,293.6z"/>
			<path class="st22" d="M479.6,292c0.3-0.2,0.4-0.6,0.2-1c-0.2-0.3-0.5-0.4-0.8-0.3c-0.3,0.2-0.4,0.6-0.2,1
				C478.9,292.1,479.3,292.2,479.6,292z"/>
			<path class="st22" d="M478.8,289.7c0.3,0,0.6-0.3,0.6-0.7c0-0.4-0.3-0.7-0.6-0.7c-0.3,0-0.6,0.3-0.6,0.7
				C478.2,289.4,478.5,289.7,478.8,289.7z"/>
			<path class="st22" d="M479.1,287.2c0.3,0.2,0.6,0.1,0.8-0.3c0.2-0.3,0.1-0.8-0.2-0.9c-0.3-0.2-0.6-0.1-0.8,0.3
				C478.8,286.6,478.9,287,479.1,287.2z"/>
			<path class="st22" d="M480.5,285.3c0.2,0.3,0.5,0.4,0.8,0.2s0.4-0.6,0.2-1c-0.2-0.3-0.5-0.4-0.8-0.3
				C480.4,284.5,480.3,285,480.5,285.3z"/>
		</g>
		<g>
			<path class="st22" d="M481.4,276.6v-5.1c0-1,0.7-1.8,1.6-1.8s1.6,0.8,1.6,1.8v5.2c-0.6-0.1-1.3-0.2-1.9-0.2
				C482.2,276.5,481.8,276.6,481.4,276.6z"/>
			<path class="st22" d="M473.9,274.7c-0.4-0.9-0.2-2,0.6-2.5c0.8-0.5,1.7-0.2,2.2,0.7l2.3,4.5c-1,0.4-1.9,1.1-2.8,1.8L473.9,274.7z
				"/>
			<path class="st22" d="M468.8,281.8c-0.8-0.5-1-1.6-0.6-2.5c0.4-0.9,1.4-1.2,2.2-0.7l4,2.6c-0.6,1-1.2,2-1.6,3.2L468.8,281.8z"/>
			<path class="st22" d="M467.5,287.1h4.7c-0.1,0.6-0.1,1.2-0.1,1.8c0,0.6,0.1,1.3,0.1,1.9h-4.8c-0.9,0-1.6-0.8-1.6-1.8
				C465.9,287.9,466.6,287.1,467.5,287.1z"/>
			<path class="st22" d="M470.3,299.3c-0.8,0.5-1.7,0.2-2.2-0.7c-0.4-0.9-0.2-2,0.6-2.5l4.2-2.8c0.4,1.2,0.9,2.2,1.6,3.2
				L470.3,299.3z"/>
			<path class="st22" d="M476.5,305.1c-0.4,0.9-1.4,1.2-2.2,0.7c-0.8-0.5-1-1.6-0.6-2.5l2.4-4.8c0.8,0.8,1.8,1.4,2.8,1.9
				L476.5,305.1z"/>
			<path class="st22" d="M484.3,301v5.6c0,1-0.7,1.8-1.6,1.8s-1.6-0.8-1.6-1.8V301c0.5,0.1,1,0.1,1.5,0.1
				C483.2,301.1,483.8,301.1,484.3,301z"/>
			<path class="st22" d="M491.8,303.4c0.4,0.9,0.2,2-0.6,2.5c-0.8,0.5-1.7,0.2-2.2-0.7l-2.5-4.9c1-0.5,1.9-1.1,2.7-1.9L491.8,303.4z
				"/>
			<path class="st22" d="M496.8,296.3c0.8,0.5,1,1.6,0.6,2.5s-1.4,1.2-2.2,0.7l-4.5-2.9c0.7-0.9,1.2-2,1.6-3.2L496.8,296.3z"/>
			<path class="st22" d="M493.1,287.4h5.1c0.9,0,1.6,0.8,1.6,1.8s-0.7,1.8-1.6,1.8H493c0.1-0.7,0.2-1.4,0.2-2.2
				C493.1,288.3,493.1,287.8,493.1,287.4z"/>
			<path class="st22" d="M495.4,278.8c0.8-0.5,1.7-0.2,2.2,0.7c0.4,0.9,0.2,2-0.6,2.5l-4.4,2.9c-0.3-1.2-0.8-2.3-1.4-3.3
				L495.4,278.8z"/>
			<path class="st22" d="M489.2,273c0.4-0.9,1.4-1.2,2.2-0.7c0.8,0.5,1,1.6,0.6,2.5l-2.4,4.8c-0.8-0.8-1.7-1.5-2.7-2L489.2,273z"/>
		</g>
	</g>
	<path class="st24" d="M473.7,319.9h-11.6c-1.5,0-2.8-1.5-2.8-3.3v-26.9c0-1.8,1.3-3.3,2.8-3.3h11.6c1.5,0,2.8,1.5,2.8,3.3v26.9
		C476.5,318.5,475.3,319.9,473.7,319.9z"/>
	<g>
		<path class="st23" d="M193.9,325.9c-0.5,0-1-0.5-1-1.2v-69.8h-75.7v69.8c0,0.6-0.4,1.2-1,1.2c-0.5,0-1-0.5-1-1.2v-72.1h79.7v72.1
			C194.9,325.3,194.4,325.9,193.9,325.9z"/>
		<path class="st27" d="M179,263.6h-49.4c-1,0-1.9-0.8-1.9-1.9v-16.3c0-1,0.8-1.9,1.9-1.9H179c1,0,1.9,0.8,1.9,1.9v16.3
			C180.9,262.8,180.1,263.6,179,263.6z"/>
		<rect x="130.3" y="241.2" class="st20" width="47.6" height="2.4"/>
		<path class="st20" d="M138.5,263.7h-6.6c-0.1,0-0.1-0.1-0.1-0.1v-13.3c0-2.2,1.5-4,3.4-4s3.4,1.8,3.4,4v13.3
			C138.6,263.7,138.6,263.7,138.5,263.7z M132,263.4h6.4v-13.1c0-2.1-1.4-3.7-3.2-3.7s-3.2,1.7-3.2,3.7V263.4z"/>
		<path class="st20" d="M177,263.7h-6.6c-0.1,0-0.1-0.1-0.1-0.1v-13.3c0-2.2,1.5-4,3.4-4s3.4,1.8,3.4,4v13.3
			C177.1,263.7,177.1,263.7,177,263.7z M170.5,263.4h6.4v-13.1c0-2.1-1.4-3.7-3.2-3.7s-3.2,1.7-3.2,3.7V263.4z"/>
		<path class="st20" d="M167.6,263.7H161c-0.1,0-0.1-0.1-0.1-0.1v-13.3c0-2.2,1.5-4,3.4-4s3.4,1.8,3.4,4v13.3
			C167.8,263.7,167.7,263.7,167.6,263.7z M161.1,263.4h6.4v-13.1c0-2.1-1.4-3.7-3.2-3.7s-3.2,1.7-3.2,3.7V263.4z"/>
		<path class="st20" d="M158.3,263.7h-6.6c-0.1,0-0.1-0.1-0.1-0.1v-13.3c0-2.2,1.5-4,3.4-4s3.4,1.8,3.4,4v13.3
			C158.5,263.7,158.4,263.7,158.3,263.7z M151.8,263.4h6.4v-13.1c0-2.1-1.4-3.7-3.2-3.7s-3.2,1.7-3.2,3.7V263.4z"/>
		<path class="st20" d="M148.8,263.7h-6.6c-0.1,0-0.1-0.1-0.1-0.1v-13.3c0-2.2,1.5-4,3.4-4s3.4,1.8,3.4,4v13.3
			C149,263.7,148.9,263.7,148.8,263.7z M142.3,263.4h6.4v-13.1c0-2.1-1.4-3.7-3.2-3.7s-3.2,1.7-3.2,3.7V263.4z"/>
		<path class="st23" d="M122.5,326.8h-12c-0.5,0-1-0.5-1-1.2c0-0.6,0.4-1.2,1-1.2h12c0.5,0,1,0.5,1,1.2S123,326.8,122.5,326.8z"/>
		<path class="st23" d="M199.8,326.8h-12c-0.5,0-1-0.5-1-1.2c0-0.6,0.4-1.2,1-1.2h12c0.5,0,1,0.5,1,1.2S200.4,326.8,199.8,326.8z"/>
	</g>
	<g>
		<polygon class="st29" points="277.5,240.7 248.5,224.1 248.8,223.3 277.9,239.9 		"/>
		<path class="st20" d="M224.7,241.4h-6.8c-0.5,0-0.9-0.4-0.9-0.9v-2.7c0-0.5,0.4-0.9,0.9-0.9h6.8c0.5,0,0.9,0.4,0.9,0.9v2.7
			C225.6,241,225.2,241.4,224.7,241.4z"/>
		<path class="st20" d="M266.3,241.4h-6.8c-0.5,0-0.9-0.4-0.9-0.9v-2.7c0-0.5,0.4-0.9,0.9-0.9h6.8c0.5,0,0.9,0.4,0.9,0.9v2.7
			C267.1,241,266.7,241.4,266.3,241.4z"/>
		<path class="st20" d="M276.8,241.4H270c-0.5,0-0.9-0.4-0.9-0.9v-2.7c0-0.5,0.4-0.9,0.9-0.9h6.8c0.5,0,0.9,0.4,0.9,0.9v2.7
			C277.7,241,277.3,241.4,276.8,241.4z"/>
		<path class="st20" d="M235.4,241.4h-6.8c-0.5,0-0.9-0.4-0.9-0.9v-2.7c0-0.5,0.4-0.9,0.9-0.9h6.8c0.5,0,0.9,0.4,0.9,0.9v2.7
			C236.3,241,235.9,241.4,235.4,241.4z"/>
		<path class="st20" d="M245.7,241.4h-6.8c-0.5,0-0.9-0.4-0.9-0.9v-2.7c0-0.5,0.4-0.9,0.9-0.9h6.8c0.5,0,0.9,0.4,0.9,0.9v2.7
			C246.6,241,246.2,241.4,245.7,241.4z"/>
		<path class="st20" d="M256.2,241.4h-6.8c-0.5,0-0.9-0.4-0.9-0.9v-2.7c0-0.5,0.4-0.9,0.9-0.9h6.8c0.5,0,0.9,0.4,0.9,0.9v2.7
			C257.1,241,256.7,241.4,256.2,241.4z"/>
		<path class="st20" d="M287.7,268h-6.1v-17h6.1c0.6,0,1.1,0.5,1.1,1.1v14.8C288.9,267.5,288.4,268,287.7,268z"/>
		<path class="st20" d="M188.4,298c-0.2,0-0.4-0.1-0.4-0.3l-8-17.7c-0.5-1.1-0.6-2.4-0.3-3.6l2.9-12.3c0.3-1.2,1-2.3,2-2.9l10.7-6.7
			c0.2-0.2,0.5,0,0.7,0.2c0.1,0.3,0,0.6-0.2,0.8l-10.7,6.7c-0.7,0.5-1.3,1.2-1.5,2.2l-2.9,12.3c-0.2,0.9-0.1,1.9,0.3,2.7l8,17.7
			c0.1,0.3,0,0.6-0.2,0.8C188.6,298,188.5,298,188.4,298z"/>
		<path class="st20" d="M178.1,353.9c-0.1,0-0.1,0-0.2,0c-0.5-0.1-0.9-0.8-0.8-1.4L201,225c0.1-0.5,0.5-0.9,1-0.9h48.2
			c0.5,0,1,0.5,1,1.2c0,0.6-0.4,1.2-1,1.2h-47.4L179.1,353C179,353.5,178.6,353.9,178.1,353.9z"/>
		<g>
			<rect x="211.5" y="243.8" class="st20" width="72.1" height="3.8"/>
			<path class="st5" d="M232.5,291.8h-26.3c-0.6,0-1.1-0.5-1.1-1.1v-41.9c0-0.6,0.5-1.1,1.1-1.1h26.3c0.6,0,1.1,0.5,1.1,1.1v41.9
				C233.6,291.3,233.1,291.8,232.5,291.8z"/>
			<path class="st27" d="M209.9,246.6v26.7c0,2.1,1.4,3.7,3,3.7h69.3c1.7,0,3-1.7,3-3.7v-26.7H209.9z"/>
			<path class="st27" d="M285.3,245.3v-2.1c0-2.1-1.4-3.7-3-3.7H213c-1.7,0-3,1.7-3,3.7v2.1H285.3z"/>
			<g>
				<path class="st5" d="M214.7,252.1h-5.3c-0.5,0-0.9-0.5-0.9-1.1s0.4-1.1,0.9-1.1h5.3c0.5,0,0.9,0.5,0.9,1.1
					S215.2,252.1,214.7,252.1z"/>
				<path class="st5" d="M214.7,256.4h-5.3c-0.5,0-0.9-0.5-0.9-1.1s0.4-1.1,0.9-1.1h5.3c0.5,0,0.9,0.5,0.9,1.1
					C215.6,255.9,215.2,256.4,214.7,256.4z"/>
				<path class="st5" d="M214.7,260.7h-5.3c-0.5,0-0.9-0.5-0.9-1.1c0-0.6,0.4-1.1,0.9-1.1h5.3c0.5,0,0.9,0.5,0.9,1.1
					C215.6,260.2,215.2,260.7,214.7,260.7z"/>
				<path class="st5" d="M214.7,264.9h-5.3c-0.5,0-0.9-0.5-0.9-1.1s0.4-1.1,0.9-1.1h5.3c0.5,0,0.9,0.5,0.9,1.1
					C215.6,264.4,215.2,264.9,214.7,264.9z"/>
				<path class="st5" d="M214.7,269.2h-5.3c-0.5,0-0.9-0.5-0.9-1.1c0-0.6,0.4-1.1,0.9-1.1h5.3c0.5,0,0.9,0.5,0.9,1.1
					C215.6,268.7,215.2,269.2,214.7,269.2z"/>
				<path class="st5" d="M214.7,273.5h-5.3c-0.5,0-0.9-0.5-0.9-1.1s0.4-1.1,0.9-1.1h5.3c0.5,0,0.9,0.5,0.9,1.1
					C215.6,273,215.2,273.5,214.7,273.5z"/>
			</g>
		</g>
		<path class="st29" d="M221.6,277.4c-0.2,0-0.4-0.2-0.4-0.4v-37.4c0-0.2,0.1-0.3,0.2-0.4l27.1-15.8c0.2-0.1,0.4,0,0.5,0.2
			s0,0.5-0.2,0.6L222,239.8v37.1C222,277.2,221.8,277.4,221.6,277.4z"/>
		<path class="st20" d="M280.8,272.5h-29.1c-0.5,0-1-0.5-1-1.1v-19.5c0-0.6,0.4-1.1,1-1.1h29.1c0.5,0,1,0.5,1,1.1v19.5
			C281.8,272,281.4,272.5,280.8,272.5z M251.8,251c-0.4,0-0.7,0.4-0.7,0.8v19.5c0,0.5,0.3,0.8,0.7,0.8h29.1c0.4,0,0.7-0.4,0.7-0.8
			v-19.5c0-0.5-0.3-0.8-0.7-0.8H251.8z"/>
		<path class="st20" d="M253.9,255.4c-0.7,0-1.2-0.7-1.2-1.5s0.5-1.5,1.2-1.5s1.2,0.7,1.2,1.5C255.1,254.7,254.5,255.4,253.9,255.4z
			 M253.9,252.8c-0.5,0-0.9,0.5-0.9,1.2c0,0.6,0.4,1.2,0.9,1.2s0.9-0.5,0.9-1.2C254.8,253.3,254.4,252.8,253.9,252.8z"/>
		<path class="st20" d="M267.4,271.3c-0.7,0-1.3-0.7-1.3-1.5c0-0.8,0.6-1.5,1.3-1.5c0.7,0,1.3,0.7,1.3,1.5
			C268.7,270.6,268.1,271.3,267.4,271.3z M267.4,268.5c-0.6,0-1,0.6-1,1.3c0,0.7,0.5,1.3,1,1.3s1-0.6,1-1.3
			C268.4,269.1,268,268.5,267.4,268.5z"/>
		<path class="st20" d="M279.1,255.5c-0.6,0-1.1-0.6-1.1-1.4c0-0.8,0.5-1.4,1.1-1.4s1.1,0.6,1.1,1.4
			C280.3,254.9,279.8,255.5,279.1,255.5z M279.1,253c-0.5,0-0.9,0.5-0.9,1.1s0.4,1.1,0.9,1.1s0.9-0.5,0.9-1.1S279.6,253,279.1,253z"
			/>
		<path class="st20" d="M220.2,366.4c-0.5,0-1-0.5-1-1.2v-9.6H142v8.1c0,0.6-0.4,1.2-1,1.2c-0.5,0-1-0.5-1-1.2v-9.2
			c0-0.6,0.4-1.2,1-1.2h79.2c0.5,0,1,0.5,1,1.2v10.8C221.2,365.9,220.7,366.4,220.2,366.4z"/>
		<path class="st20" d="M197.8,355.6c-0.4,0-0.8-0.3-0.9-0.8L185,311c-0.2-0.6,0.1-1.3,0.6-1.5s1.1,0.1,1.2,0.8l11.8,43.8
			c0.2,0.6-0.1,1.3-0.6,1.5C198,355.6,197.9,355.6,197.8,355.6z"/>
		<path class="st22" d="M146.4,361.9c0,3.5-2.4,6.3-5.4,6.3s-5.4-2.8-5.4-6.3s2.4-6.3,5.4-6.3S146.4,358.4,146.4,361.9z"/>
		<path class="st22" d="M225.6,361.9c0,3.5-2.4,6.3-5.4,6.3s-5.4-2.8-5.4-6.3s2.4-6.3,5.4-6.3C223.2,355.6,225.6,358.4,225.6,361.9z
			"/>
	</g>
	<path class="st23" d="M371.1,349h-119v-2.2c0-7.3,5.9-13.2,13.2-13.2h92.6c7.3,0,13.2,5.9,13.2,13.2L371.1,349L371.1,349z"/>
	<g>
		<g>
			<g>
				<path class="st20" d="M606.1,322.4c-1.1,0-2-1-2-2.3v-193c0-2.3-1.6-4.1-3.5-4.1h-91.9v197.1c0,1.3-0.9,2.3-2,2.3s-2-1-2-2.3
					V120.7c0-1.3,0.9-2.3,2-2.3h93.9c4.1,0,7.5,3.9,7.5,8.7v193C608.1,321.4,607.2,322.4,606.1,322.4z"/>
				<path class="st20" d="M606.1,166.7h-97.6c-1.1,0-2-1-2-2.3s0.9-2.3,2-2.3h97.6c1.1,0,2,1,2,2.3S607.2,166.7,606.1,166.7z"/>
				<path class="st20" d="M606.1,264.9h-97.9c-1.1,0-2-1-2-2.3c0-1.3,0.9-2.3,2-2.3h97.9c1.1,0,2,1,2,2.3
					C608.1,263.8,607.2,264.9,606.1,264.9z"/>
				<path class="st20" d="M604.3,215.4h-97.5c-1.1,0-2-1-2-2.3s0.9-2.3,2-2.3h97.5c1.1,0,2,1,2,2.3
					C606.2,214.3,605.4,215.4,604.3,215.4z"/>
			</g>
			<g>
				<g>
					<path class="st8" d="M520.2,225.4h-0.3v2.3c0,0.5-0.4,0.9-0.8,0.9c-0.5,0-0.9-0.4-0.9-0.9v-2.3h-0.4l-0.9,1.6
						c-0.2,0.3-0.2,0.7,0,1.1l0.6,1.1c0.2,0.3,0.5,0.5,0.9,0.5h1.2c0.4,0,0.7-0.2,0.9-0.5l0.6-1.1c0.2-0.3,0.2-0.7,0-1.1
						L520.2,225.4z"/>
					<path class="st8" d="M517.8,247.1h0.3v-2.3c0-0.5,0.4-0.9,0.8-0.9c0.5,0,0.9,0.4,0.9,0.9v2.3h0.4l0.9-1.6
						c0.2-0.3,0.2-0.7,0-1.1l-0.6-1.1c-0.2-0.3-0.5-0.5-0.9-0.5h-1.2c-0.4,0-0.7,0.2-0.9,0.5l-0.6,1.1c-0.2,0.3-0.2,0.7,0,1.1
						L517.8,247.1z"/>
					<path class="st8" d="M518.2,229.1v14c0,0.5,0.4,0.9,0.8,0.9c0.5,0,0.8-0.4,0.8-0.9v-14H518.2z"/>
				</g>
				<g>
					<path class="st8" d="M532.4,225.4H532v2.5c0,0.5-0.4,1-0.9,1s-0.9-0.4-0.9-1v-2.5h-0.5l-1,1.8c-0.2,0.4-0.2,0.8,0,1.2l0.7,1.2
						c0.2,0.4,0.6,0.6,1,0.6h1.3c0.4,0,0.8-0.2,1-0.6l0.7-1.2c0.2-0.4,0.2-0.8,0-1.2L532.4,225.4z"/>
					<path class="st8" d="M529.7,249.1h0.4v-2.5c0-0.5,0.4-1,0.9-1s0.9,0.4,0.9,1v2.5h0.5l1-1.8c0.2-0.4,0.2-0.8,0-1.2l-0.7-1.2
						c-0.2-0.4-0.6-0.6-1-0.6h-1.3c-0.4,0-0.8,0.2-1,0.6l-0.7,1.2c-0.2,0.4-0.2,0.8,0,1.2L529.7,249.1z"/>
					<path class="st8" d="M530.1,229.5v15.2c0,0.5,0.4,0.9,0.9,0.9s0.9-0.4,0.9-0.9v-15.2H530.1z"/>
				</g>
				<g>
					<path class="st8" d="M544.6,225.4h-0.4v2.7c0,0.6-0.4,1-1,1s-1-0.5-1-1v-2.7h-0.5l-1.1,1.9c-0.2,0.4-0.2,0.9,0,1.3l0.7,1.3
						c0.2,0.4,0.6,0.6,1.1,0.6h1.5c0.4,0,0.9-0.2,1.1-0.6l0.7-1.3c0.2-0.4,0.2-0.9,0-1.3L544.6,225.4z"/>
					<path class="st8" d="M541.7,251h0.4v-2.7c0-0.6,0.4-1,1-1s1,0.5,1,1v2.7h0.5l1.1-1.9c0.2-0.4,0.2-0.9,0-1.3l-0.7-1.3
						c-0.2-0.4-0.6-0.6-1.1-0.6h-1.5c-0.4,0-0.9,0.2-1.1,0.6l-0.7,1.3c-0.2,0.4-0.2,0.9,0,1.3L541.7,251z"/>
					<path class="st8" d="M542.1,229.8v16.5c0,0.6,0.4,1,1,1c0.5,0,1-0.5,1-1v-16.5H542.1z"/>
				</g>
				<g>
					<path class="st8" d="M556.7,225.4h-0.4v2.9c0,0.6-0.5,1.1-1.1,1.1s-1.1-0.5-1.1-1.1v-2.9h-0.5l-1.2,2.1c-0.2,0.4-0.2,0.9,0,1.4
						l0.8,1.4c0.2,0.4,0.7,0.7,1.2,0.7h1.6c0.5,0,0.9-0.3,1.2-0.7l0.8-1.4c0.2-0.4,0.2-0.9,0-1.4L556.7,225.4z"/>
					<path class="st8" d="M553.6,253h0.4v-2.9c0-0.6,0.5-1.1,1.1-1.1s1.1,0.5,1.1,1.1v2.9h0.5l1.2-2.1c0.2-0.4,0.2-0.9,0-1.4
						l-0.8-1.4c-0.2-0.4-0.7-0.7-1.2-0.7h-1.6c-0.5,0-0.9,0.3-1.2,0.7l-0.8,1.4c-0.2,0.4-0.2,0.9,0,1.4L553.6,253z"/>
					<path class="st8" d="M554.1,230.1v17.7c0,0.6,0.5,1.1,1.1,1.1s1.1-0.5,1.1-1.1v-17.7H554.1z"/>
				</g>
				<g>
					<path class="st8" d="M568.9,225.4h-0.4v3.1c0,0.7-0.5,1.2-1.1,1.2s-1.2-0.5-1.2-1.2v-3.1h-0.6l-1.2,2.2c-0.3,0.5-0.3,1,0,1.5
						l0.8,1.5c0.3,0.5,0.7,0.7,1.2,0.7h1.7c0.5,0,1-0.3,1.2-0.7l0.8-1.5c0.3-0.5,0.3-1,0-1.5L568.9,225.4z"/>
					<path class="st8" d="M565.6,254.9h0.4v-3.1c0-0.7,0.5-1.2,1.1-1.2s1.2,0.5,1.2,1.2v3.1h0.6l1.2-2.2c0.3-0.5,0.3-1,0-1.5
						l-0.8-1.5c-0.3-0.5-0.7-0.7-1.2-0.7h-1.7c-0.5,0-1,0.3-1.2,0.7l-0.8,1.5c-0.3,0.5-0.3,1,0,1.5L565.6,254.9z"/>
					<path class="st8" d="M566.1,230.5v19c0,0.6,0.5,1.2,1.1,1.2s1.1-0.5,1.1-1.2v-19H566.1z"/>
				</g>
				<g>
					<path class="st8" d="M581,225.4h-0.5v3.3c0,0.7-0.5,1.3-1.2,1.3s-1.2-0.6-1.2-1.3v-3.3h-0.6l-1.3,2.4c-0.3,0.5-0.3,1.1,0,1.6
						l0.9,1.6c0.3,0.5,0.8,0.8,1.3,0.8h1.8c0.5,0,1-0.3,1.3-0.8l0.9-1.6c0.3-0.5,0.3-1.1,0-1.6L581,225.4z"/>
					<path class="st8" d="M577.5,256.8h0.5v-3.3c0-0.7,0.5-1.3,1.2-1.3s1.2,0.6,1.2,1.3v3.3h0.6l1.3-2.4c0.3-0.5,0.3-1.1,0-1.6
						l-0.9-1.6c-0.3-0.5-0.8-0.8-1.3-0.8h-1.8c-0.5,0-1,0.3-1.3,0.8l-0.9,1.6c-0.3,0.5-0.3,1.1,0,1.6L577.5,256.8z"/>
					<path class="st8" d="M578.1,230.8V251c0,0.7,0.5,1.3,1.2,1.3s1.2-0.6,1.2-1.3v-20.2H578.1z"/>
				</g>
				<g>
					<path class="st8" d="M593.2,225.4h-0.5v3.5c0,0.7-0.6,1.3-1.3,1.3s-1.3-0.6-1.3-1.3v-3.5h-0.6l-1.4,2.5c-0.3,0.5-0.3,1.1,0,1.7
						l0.9,1.7c0.3,0.5,0.8,0.8,1.4,0.8h1.9c0.6,0,1.1-0.3,1.4-0.8l0.9-1.7c0.3-0.5,0.3-1.1,0-1.7L593.2,225.4z"/>
					<path class="st8" d="M589.5,258.8h0.5v-3.5c0-0.7,0.6-1.3,1.3-1.3s1.3,0.6,1.3,1.3v3.5h0.6l1.4-2.5c0.3-0.5,0.3-1.1,0-1.7
						l-0.9-1.7c-0.3-0.5-0.8-0.8-1.4-0.8h-1.9c-0.6,0-1.1,0.3-1.4,0.8l-0.9,1.7c-0.3,0.5-0.3,1.1,0,1.7L589.5,258.8z"/>
					<path class="st8" d="M590,231.2v21.4c0,0.7,0.6,1.3,1.3,1.3s1.3-0.6,1.3-1.3v-21.4H590z"/>
				</g>
			</g>
			<polygon class="st21" points="597.9,260.4 596.9,260.4 596.9,237 514.6,237 514.6,260.1 513.7,260.1 513.7,235.8 597.9,235.8 			
				"/>
			<g>
				<path class="st30" d="M556.2,260.3l-30.4-4.1c-0.6-0.1-1-0.7-0.9-1.3c0.1-0.7,0.6-1.1,1.2-1.1l30.4,4.1L556.2,260.3z"/>
				<path class="st8" d="M525.4,259.8l1.2-12.2c0.1-0.5-0.4-0.9-0.9-0.7l-2.9,1.8c-0.2,0.1-0.3,0.3-0.3,0.5l-1,10
					c0,0.4,0.2,0.7,0.5,0.7l2.7,0.4C525.1,260.4,525.4,260.2,525.4,259.8z"/>
			</g>
			<g>
				<g>
					<path class="st8" d="M518,192.7c0-0.2-0.2-0.4-0.4-0.4s-0.3,0.2-0.3,0.4v12.7c0,0.2,0.2,0.4,0.4,0.4s0.3-0.2,0.3-0.4V192.7z"/>
					<path class="st8" d="M516.9,206.6v-2.5c0-0.5,0.4-1,0.8-1c0.5,0,0.8,0.4,0.8,1v2.5H516.9z"/>
					<path class="st30" d="M516.1,193.2V180c0-1,0.6-1.7,1.4-1.7c0.8,0,1.5,0.8,1.5,1.7v13.2H516.1z"/>
				</g>
				<g>
					<path class="st8" d="M525.5,192c0-0.2-0.2-0.4-0.4-0.4s-0.3,0.2-0.3,0.4v12.1c0,0.2,0.2,0.4,0.4,0.4s0.3-0.2,0.3-0.4V192z"/>
					<path class="st8" d="M524.4,205.2v-2.3c0-0.5,0.3-0.9,0.8-0.9c0.4,0,0.8,0.4,0.8,0.9v2.4L524.4,205.2L524.4,205.2z"/>
					<path class="st30" d="M523.7,192.4v-12.6c0-0.9,0.6-1.6,1.3-1.7c0.8,0,1.4,0.7,1.5,1.6v12.6L523.7,192.4L523.7,192.4z"/>
				</g>
				<g>
					<path class="st8" d="M533,191.3c0-0.2-0.2-0.4-0.4-0.4s-0.3,0.2-0.3,0.4v11.5c0,0.2,0.2,0.4,0.4,0.4s0.3-0.2,0.3-0.4V191.3z"/>
					<path class="st8" d="M531.9,203.8v-2.2c0-0.5,0.3-0.9,0.7-0.9s0.8,0.4,0.8,0.9v2.2H531.9z"/>
					<path class="st30" d="M531.3,191.7v-11.9c0-0.9,0.5-1.6,1.3-1.6c0.7,0,1.4,0.7,1.4,1.5v12H531.3z"/>
				</g>
				<g>
					<path class="st8" d="M540.5,190.6c0-0.2-0.2-0.4-0.4-0.4s-0.3,0.2-0.3,0.4v10.8c0,0.2,0.2,0.4,0.4,0.4s0.3-0.2,0.3-0.4V190.6z"
						/>
					<path class="st8" d="M539.5,202.4v-2.1c0-0.5,0.3-0.8,0.7-0.8s0.7,0.4,0.7,0.8v2.1H539.5z"/>
					<path class="st30" d="M538.9,191v-11.3c0-0.8,0.5-1.5,1.2-1.5s1.3,0.7,1.3,1.5V191H538.9z"/>
				</g>
				<g>
					<path class="st8" d="M548,189.9c0-0.2-0.2-0.4-0.3-0.4c-0.2,0-0.3,0.2-0.3,0.4v10.2c0,0.2,0.2,0.4,0.3,0.4
						c0.2,0,0.3-0.2,0.3-0.4V189.9z"/>
					<path class="st8" d="M547,201v-2c0-0.4,0.3-0.8,0.7-0.8s0.7,0.3,0.7,0.8v2H547z"/>
					<path class="st30" d="M546.5,190.2v-10.7c0-0.8,0.5-1.4,1.2-1.4s1.2,0.6,1.2,1.4v10.7H546.5z"/>
				</g>
			</g>
			<polygon class="st21" points="552.8,210.4 551.8,210.4 551.8,185.1 514,185.1 514,210.4 513,210.4 513,184 552.8,184 			"/>
			<g>
				<polygon class="st31" points="586.6,187.8 579.6,187.7 579.6,186.8 586.6,186.9 				"/>
				<polygon class="st31" points="580.9,189 579.8,189 579.8,185.6 581,185.6 				"/>
				<polygon class="st8" points="580,185.2 578.1,185.2 578.1,189.3 580,189.3 				"/>
				<path class="st8" d="M581.9,185.3h-1.2v4.1h1.2c0.3,0,0.5-0.3,0.5-0.6v-2.9C582.5,185.6,582.2,185.3,581.9,185.3z"/>
				<path class="st21" d="M579,183.8l-16.2-0.2c-0.5,0-1,0.5-1,1.1l-0.1,5.5c0,0.1,0.1,0.2,0.2,0.2h2.4l-3.8,12.1
					c-0.4,1.3,0,2.7,1.1,3.3c1.2,0.7,2.6,0,3-1.4c0,0,2.3-7.2,3.6-11.2c0.5-1.6,1.8-2.7,3.3-2.6l7.5,0.1c0.1,0,0.2-0.1,0.2-0.2
					l0.1-6.4C579.1,183.9,579,183.8,579,183.8z"/>
				<path class="st30" d="M567.7,199.8l-8.6-0.1c-0.7,0-1.3,0.7-1.3,1.5l-0.1,7.7c0,0.8,0.6,1.5,1.3,1.5l8.6,0.1
					c0.7,0,1.3-0.7,1.3-1.5l0.1-7.7C569,200.5,568.4,199.8,567.7,199.8z"/>
				<path class="st30" d="M569.8,184.7l-7.9-0.1c-0.3,0-0.6,0.3-0.6,0.7v1.7c0,0.4,0.3,0.7,0.6,0.7l7.9,0.1c0.3,0,0.6-0.3,0.6-0.7
					v-1.7C570.5,185,570.2,184.7,569.8,184.7z"/>
			</g>
			<path class="st21" d="M594,210.4h-12.5c-1.9,0-3.4-1.5-3.4-3.4v-4.6c0-1.9,1.5-3.4,3.4-3.4H594c1.9,0,3.4,1.5,3.4,3.4v4.6
				C597.4,208.9,595.9,210.4,594,210.4z"/>
			<path class="st8" d="M592.8,205.9c-0.3,0-0.6,0-0.7-0.1c-0.5-0.1-0.9-0.7-0.8-1.3c0.1-0.6,0.6-1.1,1.1-1s2.9,0.1,4.6-1.8
				c1.4-1.5,2-3.9,1.7-7.1c-0.1-0.6,0.4-1.2,0.9-1.3s1,0.4,1.1,1.1c0.3,4-0.5,7-2.3,9C596.5,205.5,594.1,205.9,592.8,205.9z"/>
			<path class="st8" d="M591.7,199.1H591v-3.6c0-1.9-1.3-3.5-3-3.5c-1.6,0-3,1.6-3,3.5v3.6h-0.7v-3.6c0-2.4,1.7-4.3,3.7-4.3
				c2.1,0,3.7,1.9,3.7,4.3V199.1z"/>
			<path class="st21" d="M587.4,162.2h-14.7c-1.9,0-3.4-1.5-3.4-3.4v-23.4c0-1.9,1.5-3.4,3.4-3.4h14.7c1.9,0,3.4,1.5,3.4,3.4v23.4
				C590.7,160.7,589.2,162.2,587.4,162.2z"/>
			<rect x="572.4" y="129.6" class="st8" width="4.3" height="2.4"/>
		</g>
		<path class="st30" d="M584.6,159.6h-9.2c-2,0-3.6-1.9-3.6-4.2v-16.7c0-2.3,1.6-4.2,3.6-4.2h9.2c2,0,3.6,1.9,3.6,4.2v16.7
			C588.2,157.7,586.6,159.6,584.6,159.6z M575.5,135.6c-1.5,0-2.6,1.4-2.6,3.1v16.7c0,1.7,1.2,3.1,2.6,3.1h9.2
			c1.5,0,2.6-1.4,2.6-3.1v-16.7c0-1.7-1.2-3.1-2.6-3.1H575.5z"/>
	</g>
	<path class="st32" d="M583.5,319.8h-32.4c-1.4,0-2.4-1.1-2.4-2.4v-38.8c0-1.4,1.1-2.4,2.4-2.4h32.4c1.4,0,2.4,1.1,2.4,2.4v38.8
		C585.9,318.7,584.8,319.8,583.5,319.8z"/>
	<g>
		<path class="st24" d="M85.3,161h24.6v-23.3H85.1c-1.4,0-2.6,1.4-2.6,3v17C82.5,159.5,83.8,161,85.3,161z"/>
		<path class="st22" d="M98.1,151h223.2v17.9H98.1c-4.2,0-7.7-4-7.7-9C90.5,155,93.9,151,98.1,151z"/>
		<path class="st22" d="M318.4,151h208c4.2,0,7.7,4,7.7,9c0,4.9-3.4,9-7.7,9h-208L318.4,151L318.4,151z"/>
		<path class="st24" d="M84.3,149.2l5.3-17.6c4.3-14.1,14.8-24.2,27.4-26.4l76.1-13c7.1-1.2,13.9-4,20.1-8.2l48.9-29.3
			c14.1-9.6,30.1-14.6,46.5-14.6h57c27.4,0,55.6,26.6,72.7,38.1c5.1,3.5,10.9,5.6,16.8,6.3l55.8,6.9c8.2,0.8,15.1,7.6,17.1,17
			l9.5,44c0.7,3.2-1.4,6.9-4.2,6.9h-212v1.2H91.5C86.2,160.4,82.6,154.9,84.3,149.2z"/>
		<path class="st25" d="M411.8,90.8H224.4c-3.8,0-5-6-1.6-8l38-22.3C277.6,49.4,290.8,45,307,45h56.6c16.7,0,33.7,10.7,48.2,21.7
			L411.8,90.8L411.8,90.8z"/>
		<path class="st25" d="M414.8,69c4.3,3.4,8.4,6.7,12.2,9.7c1.5,1.2,2.5,3.3,2.5,5.5c0,3.7-2.5,6.6-5.7,6.6h-9V69z"/>
		<rect x="326.4" y="45" class="st33" width="1" height="45.9"/>
		<rect x="167.1" y="97.2" class="st26" width="355.3" height="1.2"/>
		<path class="st24" d="M536.1,158.7h-24.6v-23.3h24.8c1.4,0,2.6,1.4,2.6,3v17C538.9,157.3,537.6,158.7,536.1,158.7z"/>
		<path class="st24" d="M220.1,83.3h10.5c2.4,0,4.3,2.3,4.3,5v9.3c0,2.8-1.9,5-4.3,5h-10.9c-4.8,0-8.7-4.9-8.2-10.7
			C212,86.9,215.8,83.3,220.1,83.3z"/>
		<path class="st26" d="M380.1,156.5H224c-6.5,0-11.9-6.8-11.9-15V90.8h1v50.6c0,7.7,4.9,13.9,10.9,13.9h156.1
			c4.9,0,9.3-4.1,10.8-10.3c3.3-13.1,11.7-21.4,16.4-25.1c1.9-1.5,3.1-4.2,3.1-7.2V90.8h1v21.9c0,3.3-1.3,6.4-3.5,8.2
			c-4.6,3.7-12.8,11.7-16,24.5C390.2,152,385.5,156.5,380.1,156.5z"/>
		<rect x="326.4" y="90.8" class="st26" width="1" height="65.1"/>
		<path class="st26" d="M479.2,117.1h-21.6c-0.8,0-1.4-0.7-1.4-1.6v-10.3c0-0.9,0.6-1.6,1.4-1.6h21.6c0.8,0,1.4,0.7,1.4,1.6v10.3
			C480.5,116.4,479.9,117.1,479.2,117.1z M457.6,104.7c-0.2,0-0.4,0.2-0.4,0.4v10.3c0,0.2,0.2,0.4,0.4,0.4h21.6
			c0.2,0,0.4-0.2,0.4-0.4v-10.2c0-0.2-0.2-0.4-0.4-0.4L457.6,104.7L457.6,104.7z"/>
		<rect x="467.4" y="134.8" class="st26" width="66.4" height="1.2"/>
		<g>
			<path class="st20" d="M199.5,160.9c0.3-2.1,0.5-4.3,0.5-6.5c0-19.6-13.6-35.6-30.4-35.6s-30.4,15.9-30.4,35.6
				c0,2.2,0.2,4.4,0.5,6.5H199.5z"/>
			<g>
				<ellipse class="st22" cx="169.7" cy="155" rx="27.5" ry="32.2"/>
				<ellipse class="st28" cx="169.7" cy="155" rx="21.2" ry="24.8"/>
				<g>
					<path class="st22" d="M169.2,150.2c0,0.4,0.3,0.7,0.6,0.7s0.6-0.3,0.6-0.7c0-0.4-0.3-0.7-0.6-0.7S169.2,149.8,169.2,150.2z"/>
					<path class="st22" d="M171.4,150.7c-0.2,0.3-0.1,0.8,0.2,1s0.7,0.1,0.8-0.3c0.2-0.3,0.1-0.8-0.2-1S171.5,150.3,171.4,150.7z"/>
					<path class="st22" d="M173,152.3c-0.3,0.2-0.4,0.6-0.2,1c0.2,0.3,0.5,0.5,0.8,0.3s0.4-0.6,0.2-1
						C173.7,152.2,173.3,152.1,173,152.3z"/>
					<path class="st22" d="M173.8,154.7c-0.3,0-0.6,0.3-0.6,0.7s0.3,0.7,0.6,0.7s0.6-0.3,0.6-0.7C174.4,155,174.1,154.7,173.8,154.7
						z"/>
					<path class="st22" d="M173.5,157.2c-0.3-0.2-0.7-0.1-0.8,0.3c-0.2,0.3-0.1,0.8,0.2,1s0.7,0.1,0.8-0.3
						C173.8,157.9,173.7,157.4,173.5,157.2z"/>
					<path class="st22" d="M172.1,159.2c-0.2-0.3-0.5-0.5-0.8-0.3s-0.4,0.6-0.2,1c0.2,0.3,0.5,0.5,0.8,0.3
						C172.2,160,172.3,159.6,172.1,159.2z"/>
					<path class="st22" d="M170.1,160.1c0-0.4-0.3-0.7-0.6-0.7s-0.6,0.3-0.6,0.7s0.3,0.7,0.6,0.7
						C169.8,160.9,170.1,160.5,170.1,160.1z"/>
					<path class="st22" d="M167.9,159.7c0.2-0.3,0.1-0.8-0.2-1s-0.7-0.1-0.8,0.3c-0.2,0.3-0.1,0.8,0.2,1S167.8,160.1,167.9,159.7z"
						/>
					<path class="st22" d="M166.3,158.1c0.3-0.2,0.4-0.6,0.2-1c-0.2-0.3-0.5-0.5-0.8-0.3s-0.4,0.6-0.2,1
						C165.6,158.2,166,158.3,166.3,158.1z"/>
					<path class="st22" d="M165.5,155.7c0.3,0,0.6-0.3,0.6-0.7s-0.3-0.7-0.6-0.7s-0.6,0.3-0.6,0.7S165.2,155.7,165.5,155.7z"/>
					<path class="st22" d="M165.9,153.1c0.3,0.2,0.7,0.1,0.8-0.3c0.2-0.3,0.1-0.8-0.2-1c-0.3-0.2-0.7-0.1-0.8,0.3
						C165.5,152.5,165.6,152.9,165.9,153.1z"/>
					<path class="st22" d="M167.2,151.1c0.2,0.3,0.5,0.5,0.8,0.3c0.3-0.2,0.4-0.6,0.2-1c-0.2-0.3-0.5-0.5-0.8-0.3
						C167.2,150.4,167.1,150.8,167.2,151.1z"/>
				</g>
			</g>
		</g>
		<path class="st20" d="M479.8,162.7c0,2.2-0.2,4.4-0.5,6.5h-59.7c-0.3-2.1-0.5-4.3-0.5-6.5c0-17.9,11.3-32.7,25.9-35.2
			c1.4-0.3,2.9-0.4,4.4-0.4c1.2,0,2.5,0.1,3.7,0.3C468.2,129.5,479.8,144.5,479.8,162.7z"/>
		<path class="st9" d="M95.9,118.8c7.3,1.3,12.5,5,12.5,9.4c0,5.5-8.2,10-18.4,10c-0.9,0-1.8,0-2.7-0.1l1.8-6
			C90.7,127.1,93,122.6,95.9,118.8z"/>
		<path class="st9" d="M82.4,143.6C82.5,143.6,82.5,143.6,82.4,143.6c2.9,0,5.2,2.7,5.2,6c0,3.3-2.3,6-5.2,6c0,0,0,0-0.1,0
			L82.4,143.6L82.4,143.6z"/>
		<path class="st26" d="M142.6,138.2H85.1c-0.3,0-0.5-0.3-0.5-0.6c0-0.3,0.2-0.6,0.5-0.6h57.5c0.3,0,0.5,0.3,0.5,0.6
			C143.1,138,142.9,138.2,142.6,138.2z"/>
		<rect x="447.2" y="149" class="st22" width="3.6" height="13.5"/>
		<path class="st28" d="M453.1,127.4v21.9c0,1.8-1.3,3.3-2.8,3.3h-2.5c-1.6,0-2.8-1.5-2.8-3.3v-21.8c1.4-0.3,2.9-0.4,4.4-0.4
			C450.7,127.1,451.9,127.2,453.1,127.4z"/>
		<ellipse class="st34" cx="448.9" cy="168.1" rx="12.3" ry="14.3"/>
		<path class="st28" d="M443.7,168.1c0,3.2,2.3,5.8,5,5.8c2.8,0,5-2.6,5-5.8s-2.3-5.8-5-5.8S443.7,164.9,443.7,168.1z"/>
		<g>
			<path class="st28" d="M455.3,153.3c4.8,2.1,8,7.4,8,13.4c0,1.1-0.9,1.9-1.9,1.8l-2.5-0.5c-0.7-0.1-1.3-0.9-1.3-1.7
				c-0.1-2.9-1.7-5.4-3.9-6.6c-0.7-0.3-1.1-1.1-0.9-2l0.4-2.9C453.3,153.6,454.3,152.9,455.3,153.3z"/>
			<ellipse class="st34" cx="460.4" cy="165.1" rx="1.1" ry="1.2"/>
			<path class="st34" d="M454.3,157c0,0.7,0.5,1.2,1.1,1.2s1.1-0.5,1.1-1.2s-0.5-1.2-1.1-1.2S454.3,156.3,454.3,157z"/>
		</g>
	</g>
</g>
</svg>
