<?xml version="1.0" encoding="utf-8"?>
<!-- Generator: Adobe Illustrator 25.4.1, SVG Export Plug-In . SVG Version: 6.00 Build 0)  -->
<svg version="1.1" id="_x2018_ÎÓÈ_x5F_1" xmlns="http://www.w3.org/2000/svg" xmlns:xlink="http://www.w3.org/1999/xlink"
	 x="0px" y="0px" viewBox="0 -30 615 320" enable-background="new 0 0 615 320" xml:space="preserve">
<g>
	<rect x="-0.2" y="-24.3" fill="#90B4DF" width="615" height="314.3"/>
	<path opacity="0.54" fill="#6B72A2" d="M543,96.4h-9.4v16.9h-5.2V94.9H427.6v18.4h-10V90.7h-26.3v22.6H385v-12.2h-46.3v12.2h-10.5
		V88.3h-55.7v25.1h-50.7v181h314.1V290h7.2V96.4z M231.1,118.4h302.6v34h-21.9v-23.1h-13.9v23.1H490v-15.7h-50.4v15.7h-6.5v-27.6
		H332.2v27.6h-8.1v-9.5h-60.6v9.5h-32.4V118.4z M231.1,158.1h302.6v33.5h-21.9v-29.4H365.1v29.4h-13.6v-12.8h-23.4v12.8h-6.5v-26.5
		h-55.9v26.5h-34.5V158.1z M231.1,197.3h302.6v33.5H231.1V197.3z M231.1,236.5h302.6v34.4H231.1V236.5z"/>
	<rect x="22.7" y="74.1" fill="#BFBFD8" width="52.3" height="7.3"/>
	<path fill="#262F6D" d="M75.2,108H22.4c-2.2,0-3.9-1.8-3.9-3.9v-21c0-2.2,1.8-3.9,3.9-3.9h52.9c2.2,0,3.9,1.8,3.9,3.9v21
		C79.2,106.3,77.4,108,75.2,108z"/>
	<path fill="#262F6D" d="M75.4,77H22.2c-2.1,0-3.8-1.7-3.8-3.8V52c0-2.1,1.7-3.8,3.8-3.8h53.1c2.1,0,3.8,1.7,3.8,3.8v21.2
		C79.2,75.3,77.5,77,75.4,77z"/>
	<polygon opacity="0.51" fill="#6B72A2" points="186.4,113.1 186.4,108 8.9,108 8.9,290.3 186.4,290.3 186.4,266.8 41.2,266.8 
		41.2,243.1 18.7,243.1 18.7,266.8 14,266.8 14,232.1 186.4,232.1 186.4,226.4 178.9,226.4 178.9,206.7 142.8,206.7 142.8,226.4 
		62.8,226.4 62.8,204.5 18.2,204.5 18.2,226.4 14,226.4 14,192.6 186.4,192.6 186.4,186.9 181.3,186.9 181.3,157.8 161.1,157.8 
		161.1,186.9 153.7,186.9 153.7,168.5 139.8,168.5 139.8,186.9 61.5,186.9 61.5,157.8 16.9,157.8 16.9,186.9 14,186.9 14,153.2 
		186.4,153.2 186.4,147.4 172,147.4 172,121.5 89.5,121.5 89.5,147.4 62.1,147.4 62.1,122.2 31.4,122.2 31.4,147.4 14,147.4 
		14,113.1 	"/>
	<g>
		<path fill="#46547F" d="M117.6,290H54.9c-2.6,0-4.8-2.1-4.8-4.8V103.3c0-2.6,2.1-4.8,4.8-4.8h62.7c2.6,0,4.8,2.1,4.8,4.8v181.9
			C122.3,287.8,120.2,290,117.6,290z"/>
		<rect x="86.8" y="98.5" fill="#6672A2" width="1" height="125.1"/>
		<rect x="49.9" y="223.1" fill="#6672A2" width="72.4" height="1.2"/>
		<rect x="49.9" y="253.5" fill="#6672A2" width="72.4" height="1.2"/>
	</g>
	<g opacity="0.57">
		<path fill="#6B72A2" d="M254.6,79.2H100.1c-3.8,0-6.9-3.6-6.9-8.1V21.9c0-4.5,3.1-8.1,6.9-8.1h154.5c3.8,0,6.9,3.6,6.9,8.1v49.2
			C261.5,75.6,258.4,79.2,254.6,79.2z M100.1,15c-3.3,0-5.9,3.1-5.9,6.9v49.2c0,3.8,2.6,6.9,5.9,6.9h154.5c3.3,0,5.9-3.1,5.9-6.9
			V21.9c0-3.8-2.6-6.9-5.9-6.9H100.1z"/>
	</g>
	<g>
		<g>
			<path fill="#FFFFFF" d="M420-4.7c0,0.1,0,0.1,0,0.2c0,3.1,2.1,5.7,4.8,5.7h159c2.6,0,4.8-2.5,4.8-5.7c0-0.1,0-0.1,0-0.2H420z"/>
			<path fill="#000544" d="M589-3.2H419.8c-1.3,0-2.3-1.2-2.3-2.8s1.1-2.8,2.3-2.8H589c1.3,0,2.3,1.2,2.3,2.8S590.3-3.2,589-3.2z"/>
			<rect x="423.1" y="-24.3" fill="#000544" width="0.7" height="17.3"/>
			<rect x="585.1" y="-24.3" fill="#000544" width="0.7" height="17.3"/>
		</g>
		<g>
			<path fill="#FFFFFF" d="M34.7-4.7c0,0.1,0,0.1,0,0.2c0,3.1,2.1,5.7,4.8,5.7h159c2.6,0,4.8-2.5,4.8-5.7c0-0.1,0-0.1,0-0.2H34.7z"
				/>
			<path fill="#000544" d="M203.7-3.2H34.5c-1.3,0-2.3-1.2-2.3-2.8s1.1-2.8,2.3-2.8h169.2c1.3,0,2.3,1.2,2.3,2.8S205-3.2,203.7-3.2z
				"/>
			<rect x="37.9" y="-24.3" fill="#000544" width="0.7" height="17.3"/>
			<rect x="199.9" y="-24.3" fill="#000544" width="0.7" height="17.3"/>
		</g>
	</g>
	<rect x="-0.2" y="289.8" fill="#6672A2" width="615" height="55.6"/>
	<g>
		<g opacity="0.51">
			<g>
				<path fill="#46547F" d="M2.6,319.1c-0.3-0.1-0.8-0.1-1.1,0.1l-1.7,1.1v1.3l2.8-1.9C2.9,319.5,2.9,319.2,2.6,319.1z"/>
				<path fill="#46547F" d="M16.9,324.8c-0.2,0-0.3,0-0.5-0.1c-0.3-0.1-0.4-0.4-0.1-0.6l7.6-5c0.3-0.2,0.7-0.2,1.1-0.1
					c0.3,0.1,0.4,0.4,0.1,0.6l-7.6,5C17.3,324.7,17.1,324.8,16.9,324.8z"/>
				<path fill="#46547F" d="M39.2,324.8c-0.2,0-0.3,0-0.5-0.1c-0.3-0.1-0.4-0.4-0.1-0.6l7.6-5c0.3-0.2,0.7-0.2,1.1-0.1
					c0.3,0.1,0.4,0.4,0.1,0.6l-7.6,5C39.6,324.7,39.4,324.8,39.2,324.8z"/>
				<path fill="#46547F" d="M61.6,324.8c-0.2,0-0.3,0-0.5-0.1c-0.3-0.1-0.4-0.4-0.1-0.6l7.6-5c0.3-0.2,0.7-0.2,1.1-0.1
					c0.3,0.1,0.4,0.4,0.1,0.6l-7.6,5C62,324.7,61.8,324.8,61.6,324.8z"/>
				<path fill="#46547F" d="M83.9,324.8c-0.2,0-0.3,0-0.5-0.1c-0.3-0.1-0.4-0.4-0.1-0.6l7.6-5c0.3-0.2,0.7-0.2,1.1-0.1
					c0.3,0.1,0.4,0.4,0.1,0.6l-7.6,5C84.3,324.7,84.1,324.8,83.9,324.8z"/>
				<path fill="#46547F" d="M106.3,324.8c-0.2,0-0.3,0-0.5-0.1c-0.3-0.1-0.4-0.4-0.1-0.6l7.6-5c0.3-0.2,0.7-0.2,1.1-0.1
					c0.3,0.1,0.4,0.4,0.1,0.6l-7.6,5C106.7,324.7,106.5,324.8,106.3,324.8z"/>
				<path fill="#46547F" d="M128.6,324.8c-0.2,0-0.3,0-0.5-0.1c-0.3-0.1-0.4-0.4-0.1-0.6l7.6-5c0.3-0.2,0.7-0.2,1.1-0.1
					c0.3,0.1,0.4,0.4,0.1,0.6l-7.6,5C129.1,324.7,128.8,324.8,128.6,324.8z"/>
				<path fill="#46547F" d="M151,324.8c-0.2,0-0.3,0-0.5-0.1c-0.3-0.1-0.4-0.4-0.1-0.6l7.6-5c0.3-0.2,0.7-0.2,1.1-0.1
					c0.3,0.1,0.4,0.4,0.1,0.6l-7.6,5C151.4,324.7,151.2,324.8,151,324.8z"/>
				<path fill="#46547F" d="M173.3,324.8c-0.2,0-0.3,0-0.5-0.1c-0.3-0.1-0.4-0.4-0.1-0.6l7.6-5c0.3-0.2,0.7-0.2,1.1-0.1
					c0.3,0.1,0.4,0.4,0.1,0.6l-7.6,5C173.8,324.7,173.5,324.8,173.3,324.8z"/>
				<path fill="#46547F" d="M195.7,324.8c-0.2,0-0.3,0-0.5-0.1c-0.3-0.1-0.4-0.4-0.1-0.6l7.6-5c0.3-0.2,0.7-0.2,1.1-0.1
					c0.3,0.1,0.4,0.4,0.1,0.6l-7.6,5C196.1,324.7,195.9,324.8,195.7,324.8z"/>
				<path fill="#46547F" d="M218,324.8c-0.2,0-0.3,0-0.5-0.1c-0.3-0.1-0.4-0.4-0.1-0.6l7.6-5c0.3-0.2,0.7-0.2,1.1-0.1
					c0.3,0.1,0.4,0.4,0.1,0.6l-7.6,5C218.5,324.7,218.2,324.8,218,324.8z"/>
				<path fill="#46547F" d="M240.4,324.8c-0.2,0-0.3,0-0.5-0.1c-0.3-0.1-0.4-0.4-0.1-0.6l7.6-5c0.3-0.2,0.7-0.2,1.1-0.1
					c0.3,0.1,0.4,0.4,0.1,0.6l-7.6,5C240.8,324.7,240.6,324.8,240.4,324.8z"/>
				<path fill="#46547F" d="M262.7,324.8c-0.2,0-0.3,0-0.5-0.1c-0.3-0.1-0.4-0.4-0.1-0.6l7.6-5c0.3-0.2,0.7-0.2,1.1-0.1
					c0.3,0.1,0.4,0.4,0.1,0.6l-7.6,5C263.2,324.7,262.9,324.8,262.7,324.8z"/>
				<path fill="#46547F" d="M285.1,324.8c-0.2,0-0.3,0-0.5-0.1c-0.3-0.1-0.4-0.4-0.1-0.6l7.6-5c0.3-0.2,0.7-0.2,1.1-0.1
					c0.3,0.1,0.4,0.4,0.1,0.6l-7.6,5C285.5,324.7,285.3,324.8,285.1,324.8z"/>
				<path fill="#46547F" d="M307.4,324.8c-0.2,0-0.3,0-0.5-0.1c-0.3-0.1-0.4-0.4-0.1-0.6l7.6-5c0.3-0.2,0.7-0.2,1.1-0.1
					c0.3,0.1,0.4,0.4,0.1,0.6l-7.6,5C307.9,324.7,307.7,324.8,307.4,324.8z"/>
				<path fill="#46547F" d="M329.8,324.8c-0.2,0-0.3,0-0.5-0.1c-0.3-0.1-0.4-0.4-0.1-0.6l7.6-5c0.3-0.2,0.7-0.2,1.1-0.1
					c0.3,0.1,0.4,0.4,0.1,0.6l-7.6,5C330.2,324.7,330,324.8,329.8,324.8z"/>
				<path fill="#46547F" d="M352.1,324.8c-0.2,0-0.3,0-0.5-0.1c-0.3-0.1-0.4-0.4-0.1-0.6l7.6-5c0.3-0.2,0.7-0.2,1.1-0.1
					c0.3,0.1,0.4,0.4,0.1,0.6l-7.6,5C352.6,324.7,352.4,324.8,352.1,324.8z"/>
				<path fill="#46547F" d="M374.5,324.8c-0.2,0-0.3,0-0.5-0.1c-0.3-0.1-0.4-0.4-0.1-0.6l7.6-5c0.3-0.2,0.7-0.2,1.1-0.1
					c0.3,0.1,0.4,0.4,0.1,0.6l-7.6,5C374.9,324.7,374.7,324.8,374.5,324.8z"/>
				<path fill="#46547F" d="M396.8,324.8c-0.2,0-0.3,0-0.5-0.1c-0.3-0.1-0.4-0.4-0.1-0.6l7.6-5c0.3-0.2,0.7-0.2,1.1-0.1
					c0.3,0.1,0.4,0.4,0.1,0.6l-7.6,5C397.3,324.7,397.1,324.8,396.8,324.8z"/>
				<path fill="#46547F" d="M419.2,324.8c-0.2,0-0.3,0-0.5-0.1c-0.3-0.1-0.4-0.4-0.1-0.6l7.6-5c0.3-0.2,0.7-0.2,1.1-0.1
					c0.3,0.1,0.4,0.4,0.1,0.6l-7.6,5C419.6,324.7,419.4,324.8,419.2,324.8z"/>
				<path fill="#46547F" d="M441.5,324.8c-0.2,0-0.3,0-0.5-0.1c-0.3-0.1-0.4-0.4-0.1-0.6l7.6-5c0.3-0.2,0.7-0.2,1.1-0.1
					c0.3,0.1,0.4,0.4,0.1,0.6l-7.6,5C442,324.7,441.8,324.8,441.5,324.8z"/>
				<path fill="#46547F" d="M463.9,324.8c-0.2,0-0.3,0-0.5-0.1c-0.3-0.1-0.4-0.4-0.1-0.6l7.6-5c0.3-0.2,0.7-0.2,1.1-0.1
					c0.3,0.1,0.4,0.4,0.1,0.6l-7.6,5C464.3,324.7,464.1,324.8,463.9,324.8z"/>
				<path fill="#46547F" d="M486.2,324.8c-0.2,0-0.3,0-0.5-0.1c-0.3-0.1-0.4-0.4-0.1-0.6l7.6-5c0.3-0.2,0.7-0.2,1.1-0.1
					c0.3,0.1,0.4,0.4,0.1,0.6l-7.6,5C486.7,324.7,486.5,324.8,486.2,324.8z"/>
				<path fill="#46547F" d="M508.6,324.8c-0.2,0-0.3,0-0.5-0.1c-0.3-0.1-0.4-0.4-0.1-0.6l7.6-5c0.3-0.2,0.7-0.2,1.1-0.1
					c0.3,0.1,0.4,0.4,0.1,0.6l-7.6,5C509,324.7,508.8,324.8,508.6,324.8z"/>
				<path fill="#46547F" d="M531,324.8c-0.2,0-0.3,0-0.5-0.1c-0.3-0.1-0.4-0.4-0.1-0.6l7.6-5c0.3-0.2,0.7-0.2,1.1-0.1
					c0.3,0.1,0.4,0.4,0.1,0.6l-7.6,5C531.4,324.7,531.2,324.8,531,324.8z"/>
				<path fill="#46547F" d="M553.3,324.8c-0.2,0-0.3,0-0.5-0.1c-0.3-0.1-0.4-0.4-0.1-0.6l7.6-5c0.3-0.2,0.7-0.2,1.1-0.1
					c0.3,0.1,0.4,0.4,0.1,0.6l-7.6,5C553.7,324.7,553.5,324.8,553.3,324.8z"/>
				<path fill="#46547F" d="M575.7,324.8c-0.2,0-0.3,0-0.5-0.1c-0.3-0.1-0.4-0.4-0.1-0.6l7.6-5c0.3-0.2,0.7-0.2,1.1-0.1
					c0.3,0.1,0.4,0.4,0.1,0.6l-7.6,5C576.1,324.7,575.9,324.8,575.7,324.8z"/>
				<path fill="#46547F" d="M598,324.8c-0.2,0-0.3,0-0.5-0.1c-0.3-0.1-0.4-0.4-0.1-0.6l7.6-5c0.3-0.2,0.7-0.2,1.1-0.1
					c0.3,0.1,0.4,0.4,0.1,0.6l-7.6,5C598.4,324.7,598.2,324.8,598,324.8z"/>
			</g>
		</g>
		<g opacity="0.51">
			<g>
				<path fill="#46547F" d="M614.8,329.7l-5.7-3.7c-0.3-0.2-0.7-0.2-1.1-0.1c-0.3,0.1-0.4,0.4-0.1,0.6l6.8,4.5V329.7z"/>
				<path fill="#46547F" d="M593.8,331.6c-0.2,0-0.4-0.1-0.6-0.1l-7.6-5c-0.3-0.2-0.2-0.4,0.1-0.6c0.3-0.1,0.8-0.1,1.1,0.1l7.6,5
					c0.3,0.2,0.2,0.4-0.1,0.6C594.1,331.6,594,331.6,593.8,331.6z"/>
				<path fill="#46547F" d="M571.5,331.6c-0.2,0-0.4-0.1-0.6-0.1l-7.6-5c-0.3-0.2-0.2-0.4,0.1-0.6c0.3-0.1,0.8-0.1,1.1,0.1l7.6,5
					c0.3,0.2,0.2,0.4-0.1,0.6C571.8,331.6,571.6,331.6,571.5,331.6z"/>
				<path fill="#46547F" d="M549.1,331.6c-0.2,0-0.4-0.1-0.6-0.1l-7.6-5c-0.3-0.2-0.2-0.4,0.1-0.6c0.3-0.1,0.8-0.1,1.1,0.1l7.6,5
					c0.3,0.2,0.2,0.4-0.1,0.6C549.4,331.6,549.3,331.6,549.1,331.6z"/>
				<path fill="#46547F" d="M526.8,331.6c-0.2,0-0.4-0.1-0.6-0.1l-7.6-5c-0.3-0.2-0.2-0.4,0.1-0.6c0.3-0.1,0.8-0.1,1.1,0.1l7.6,5
					c0.3,0.2,0.2,0.4-0.1,0.6C527.1,331.6,526.9,331.6,526.8,331.6z"/>
				<path fill="#46547F" d="M504.4,331.6c-0.2,0-0.4-0.1-0.6-0.1l-7.6-5c-0.3-0.2-0.2-0.4,0.1-0.6c0.3-0.1,0.8-0.1,1.1,0.1l7.6,5
					c0.3,0.2,0.2,0.4-0.1,0.6C504.7,331.6,504.6,331.6,504.4,331.6z"/>
				<path fill="#46547F" d="M482.1,331.6c-0.2,0-0.4-0.1-0.6-0.1l-7.6-5c-0.3-0.2-0.2-0.4,0.1-0.6c0.3-0.1,0.8-0.1,1.1,0.1l7.6,5
					c0.3,0.2,0.2,0.4-0.1,0.6C482.4,331.6,482.2,331.6,482.1,331.6z"/>
				<path fill="#46547F" d="M459.7,331.6c-0.2,0-0.4-0.1-0.6-0.1l-7.6-5c-0.3-0.2-0.2-0.4,0.1-0.6c0.3-0.1,0.8-0.1,1.1,0.1l7.6,5
					c0.3,0.2,0.2,0.4-0.1,0.6C460,331.6,459.9,331.6,459.7,331.6z"/>
				<path fill="#46547F" d="M437.4,331.6c-0.2,0-0.4-0.1-0.6-0.1l-7.6-5c-0.3-0.2-0.2-0.4,0.1-0.6c0.3-0.1,0.8-0.1,1.1,0.1l7.6,5
					c0.3,0.2,0.2,0.4-0.1,0.6C437.7,331.6,437.5,331.6,437.4,331.6z"/>
				<path fill="#46547F" d="M415,331.6c-0.2,0-0.4-0.1-0.6-0.1l-7.6-5c-0.3-0.2-0.2-0.4,0.1-0.6c0.3-0.1,0.8-0.1,1.1,0.1l7.6,5
					c0.3,0.2,0.2,0.4-0.1,0.6C415.3,331.6,415.2,331.6,415,331.6z"/>
				<path fill="#46547F" d="M392.6,331.6c-0.2,0-0.4-0.1-0.6-0.1l-7.6-5c-0.3-0.2-0.2-0.4,0.1-0.6c0.3-0.1,0.8-0.1,1.1,0.1l7.6,5
					c0.3,0.2,0.2,0.4-0.1,0.6C393,331.6,392.8,331.6,392.6,331.6z"/>
				<path fill="#46547F" d="M370.3,331.6c-0.2,0-0.4-0.1-0.6-0.1l-7.6-5c-0.3-0.2-0.2-0.4,0.1-0.6c0.3-0.1,0.8-0.1,1.1,0.1l7.6,5
					c0.3,0.2,0.2,0.4-0.1,0.6C370.6,331.6,370.5,331.6,370.3,331.6z"/>
				<path fill="#46547F" d="M347.9,331.6c-0.2,0-0.4-0.1-0.6-0.1l-7.6-5c-0.3-0.2-0.2-0.4,0.1-0.6c0.3-0.1,0.8-0.1,1.1,0.1l7.6,5
					c0.3,0.2,0.2,0.4-0.1,0.6C348.3,331.6,348.1,331.6,347.9,331.6z"/>
				<path fill="#46547F" d="M325.6,331.6c-0.2,0-0.4-0.1-0.6-0.1l-7.6-5c-0.3-0.2-0.2-0.4,0.1-0.6c0.3-0.1,0.8-0.1,1.1,0.1l7.6,5
					c0.3,0.2,0.2,0.4-0.1,0.6C325.9,331.6,325.8,331.6,325.6,331.6z"/>
				<path fill="#46547F" d="M303.2,331.6c-0.2,0-0.4-0.1-0.6-0.1l-7.6-5c-0.3-0.2-0.2-0.4,0.1-0.6c0.3-0.1,0.8-0.1,1.1,0.1l7.6,5
					c0.3,0.2,0.2,0.4-0.1,0.6C303.6,331.6,303.4,331.6,303.2,331.6z"/>
				<path fill="#46547F" d="M280.9,331.6c-0.2,0-0.4-0.1-0.6-0.1l-7.6-5c-0.3-0.2-0.2-0.4,0.1-0.6c0.3-0.1,0.8-0.1,1.1,0.1l7.6,5
					c0.3,0.2,0.2,0.4-0.1,0.6C281.2,331.6,281.1,331.6,280.9,331.6z"/>
				<path fill="#46547F" d="M258.5,331.6c-0.2,0-0.4-0.1-0.6-0.1l-7.6-5c-0.3-0.2-0.2-0.4,0.1-0.6c0.3-0.1,0.8-0.1,1.1,0.1l7.6,5
					c0.3,0.2,0.2,0.4-0.1,0.6C258.9,331.6,258.7,331.6,258.5,331.6z"/>
				<path fill="#46547F" d="M236.2,331.6c-0.2,0-0.4-0.1-0.6-0.1l-7.6-5c-0.3-0.2-0.2-0.4,0.1-0.6c0.3-0.1,0.8-0.1,1.1,0.1l7.6,5
					c0.3,0.2,0.2,0.4-0.1,0.6C236.5,331.6,236.4,331.6,236.2,331.6z"/>
				<path fill="#46547F" d="M213.8,331.6c-0.2,0-0.4-0.1-0.6-0.1l-7.6-5c-0.3-0.2-0.2-0.4,0.1-0.6c0.3-0.1,0.8-0.1,1.1,0.1l7.6,5
					c0.3,0.2,0.2,0.4-0.1,0.6C214.2,331.6,214,331.6,213.8,331.6z"/>
				<path fill="#46547F" d="M191.5,331.6c-0.2,0-0.4-0.1-0.6-0.1l-7.6-5c-0.3-0.2-0.2-0.4,0.1-0.6c0.3-0.1,0.8-0.1,1.1,0.1l7.6,5
					c0.3,0.2,0.2,0.4-0.1,0.6C191.8,331.6,191.7,331.6,191.5,331.6z"/>
				<path fill="#46547F" d="M169.1,331.6c-0.2,0-0.4-0.1-0.6-0.1l-7.6-5c-0.3-0.2-0.2-0.4,0.1-0.6c0.3-0.1,0.8-0.1,1.1,0.1l7.6,5
					c0.3,0.2,0.2,0.4-0.1,0.6C169.5,331.6,169.3,331.6,169.1,331.6z"/>
				<path fill="#46547F" d="M146.8,331.6c-0.2,0-0.4-0.1-0.6-0.1l-7.6-5c-0.3-0.2-0.2-0.4,0.1-0.6c0.3-0.1,0.8-0.1,1.1,0.1l7.6,5
					c0.3,0.2,0.2,0.4-0.1,0.6C147.1,331.6,146.9,331.6,146.8,331.6z"/>
				<path fill="#46547F" d="M124.4,331.6c-0.2,0-0.4-0.1-0.6-0.1l-7.6-5c-0.3-0.2-0.2-0.4,0.1-0.6c0.3-0.1,0.8-0.1,1.1,0.1l7.6,5
					c0.3,0.2,0.2,0.4-0.1,0.6C124.8,331.6,124.6,331.6,124.4,331.6z"/>
				<path fill="#46547F" d="M102.1,331.6c-0.2,0-0.4-0.1-0.6-0.1l-7.6-5c-0.3-0.2-0.2-0.4,0.1-0.6c0.3-0.1,0.8-0.1,1.1,0.1l7.6,5
					c0.3,0.2,0.2,0.4-0.1,0.6C102.4,331.6,102.2,331.6,102.1,331.6z"/>
				<path fill="#46547F" d="M79.7,331.6c-0.2,0-0.4-0.1-0.6-0.1l-7.6-5c-0.3-0.2-0.2-0.4,0.1-0.6c0.3-0.1,0.8-0.1,1.1,0.1l7.6,5
					c0.3,0.2,0.2,0.4-0.1,0.6C80.1,331.6,79.9,331.6,79.7,331.6z"/>
				<path fill="#46547F" d="M57.4,331.6c-0.2,0-0.4-0.1-0.6-0.1l-7.6-5c-0.3-0.2-0.2-0.4,0.1-0.6c0.3-0.1,0.8-0.1,1.1,0.1l7.6,5
					c0.3,0.2,0.2,0.4-0.1,0.6C57.7,331.6,57.5,331.6,57.4,331.6z"/>
				<path fill="#46547F" d="M35,331.6c-0.2,0-0.4-0.1-0.6-0.1l-7.6-5c-0.3-0.2-0.2-0.4,0.1-0.6c0.3-0.1,0.8-0.1,1.1,0.1l7.6,5
					c0.3,0.2,0.2,0.4-0.1,0.6C35.4,331.6,35.2,331.6,35,331.6z"/>
				<path fill="#46547F" d="M12.7,331.6c-0.2,0-0.4-0.1-0.6-0.1l-7.6-5c-0.3-0.2-0.2-0.4,0.1-0.6c0.3-0.1,0.8-0.1,1.1,0.1l7.6,5
					c0.3,0.2,0.2,0.4-0.1,0.6C13,331.6,12.8,331.6,12.7,331.6z"/>
			</g>
		</g>
		<g opacity="0.51">
			<g>
				<path fill="#46547F" d="M4.6,331.5c-0.3-0.1-0.8-0.1-1.1,0.1l-3.7,2.4v1.3l4.8-3.2C4.9,331.9,4.9,331.7,4.6,331.5z"/>
				<path fill="#46547F" d="M18.9,337.2c-0.2,0-0.3,0-0.5-0.1c-0.3-0.1-0.4-0.4-0.1-0.6l7.6-5c0.3-0.2,0.7-0.2,1.1-0.1
					c0.3,0.1,0.4,0.4,0.1,0.6l-7.6,5C19.3,337.2,19.1,337.2,18.9,337.2z"/>
				<path fill="#46547F" d="M41.2,337.2c-0.2,0-0.3,0-0.5-0.1c-0.3-0.1-0.4-0.4-0.1-0.6l7.6-5c0.3-0.2,0.7-0.2,1.1-0.1
					c0.3,0.1,0.4,0.4,0.1,0.6l-7.6,5C41.6,337.2,41.4,337.2,41.2,337.2z"/>
				<path fill="#46547F" d="M63.6,337.2c-0.2,0-0.3,0-0.5-0.1c-0.3-0.1-0.4-0.4-0.1-0.6l7.6-5c0.3-0.2,0.7-0.2,1.1-0.1
					c0.3,0.1,0.4,0.4,0.1,0.6l-7.6,5C64,337.2,63.8,337.2,63.6,337.2z"/>
				<path fill="#46547F" d="M85.9,337.2c-0.2,0-0.3,0-0.5-0.1c-0.3-0.1-0.4-0.4-0.1-0.6l7.6-5c0.3-0.2,0.7-0.2,1.1-0.1
					c0.3,0.1,0.4,0.4,0.1,0.6l-7.6,5C86.3,337.2,86.1,337.2,85.9,337.2z"/>
				<path fill="#46547F" d="M108.3,337.2c-0.2,0-0.3,0-0.5-0.1c-0.3-0.1-0.4-0.4-0.1-0.6l7.6-5c0.3-0.2,0.7-0.2,1.1-0.1
					c0.3,0.1,0.4,0.4,0.1,0.6l-7.6,5C108.7,337.2,108.5,337.2,108.3,337.2z"/>
				<path fill="#46547F" d="M130.6,337.2c-0.2,0-0.3,0-0.5-0.1c-0.3-0.1-0.4-0.4-0.1-0.6l7.6-5c0.3-0.2,0.7-0.2,1.1-0.1
					c0.3,0.1,0.4,0.4,0.1,0.6l-7.6,5C131,337.2,130.8,337.2,130.6,337.2z"/>
				<path fill="#46547F" d="M153,337.2c-0.2,0-0.3,0-0.5-0.1c-0.3-0.1-0.4-0.4-0.1-0.6l7.6-5c0.3-0.2,0.7-0.2,1.1-0.1
					c0.3,0.1,0.4,0.4,0.1,0.6l-7.6,5C153.4,337.2,153.2,337.2,153,337.2z"/>
				<path fill="#46547F" d="M175.3,337.2c-0.2,0-0.3,0-0.5-0.1c-0.3-0.1-0.4-0.4-0.1-0.6l7.6-5c0.3-0.2,0.7-0.2,1.1-0.1
					c0.3,0.1,0.4,0.4,0.1,0.6l-7.6,5C175.7,337.2,175.5,337.2,175.3,337.2z"/>
				<path fill="#46547F" d="M197.7,337.2c-0.2,0-0.3,0-0.5-0.1c-0.3-0.1-0.4-0.4-0.1-0.6l7.6-5c0.3-0.2,0.7-0.2,1.1-0.1
					c0.3,0.1,0.4,0.4,0.1,0.6l-7.6,5C198.1,337.2,197.9,337.2,197.7,337.2z"/>
				<path fill="#46547F" d="M220,337.2c-0.2,0-0.3,0-0.5-0.1c-0.3-0.1-0.4-0.4-0.1-0.6l7.6-5c0.3-0.2,0.7-0.2,1.1-0.1
					c0.3,0.1,0.4,0.4,0.1,0.6l-7.6,5C220.4,337.2,220.2,337.2,220,337.2z"/>
				<path fill="#46547F" d="M242.4,337.2c-0.2,0-0.3,0-0.5-0.1c-0.3-0.1-0.4-0.4-0.1-0.6l7.6-5c0.3-0.2,0.7-0.2,1.1-0.1
					c0.3,0.1,0.4,0.4,0.1,0.6l-7.6,5C242.8,337.2,242.6,337.2,242.4,337.2z"/>
				<path fill="#46547F" d="M264.7,337.2c-0.2,0-0.3,0-0.5-0.1c-0.3-0.1-0.4-0.4-0.1-0.6l7.6-5c0.3-0.2,0.7-0.2,1.1-0.1
					c0.3,0.1,0.4,0.4,0.1,0.6l-7.6,5C265.2,337.2,264.9,337.2,264.7,337.2z"/>
				<path fill="#46547F" d="M287.1,337.2c-0.2,0-0.3,0-0.5-0.1c-0.3-0.1-0.4-0.4-0.1-0.6l7.6-5c0.3-0.2,0.7-0.2,1.1-0.1
					c0.3,0.1,0.4,0.4,0.1,0.6l-7.6,5C287.5,337.2,287.3,337.2,287.1,337.2z"/>
				<path fill="#46547F" d="M309.4,337.2c-0.2,0-0.3,0-0.5-0.1c-0.3-0.1-0.4-0.4-0.1-0.6l7.6-5c0.3-0.2,0.7-0.2,1.1-0.1
					c0.3,0.1,0.4,0.4,0.1,0.6l-7.6,5C309.9,337.2,309.6,337.2,309.4,337.2z"/>
				<path fill="#46547F" d="M331.8,337.2c-0.2,0-0.3,0-0.5-0.1c-0.3-0.1-0.4-0.4-0.1-0.6l7.6-5c0.3-0.2,0.7-0.2,1.1-0.1
					c0.3,0.1,0.4,0.4,0.1,0.6l-7.6,5C332.2,337.2,332,337.2,331.8,337.2z"/>
				<path fill="#46547F" d="M354.1,337.2c-0.2,0-0.3,0-0.5-0.1c-0.3-0.1-0.4-0.4-0.1-0.6l7.6-5c0.3-0.2,0.7-0.2,1.1-0.1
					c0.3,0.1,0.4,0.4,0.1,0.6l-7.6,5C354.6,337.2,354.3,337.2,354.1,337.2z"/>
				<path fill="#46547F" d="M376.5,337.2c-0.2,0-0.3,0-0.5-0.1c-0.3-0.1-0.4-0.4-0.1-0.6l7.6-5c0.3-0.2,0.7-0.2,1.1-0.1
					c0.3,0.1,0.4,0.4,0.1,0.6l-7.6,5C376.9,337.2,376.7,337.2,376.5,337.2z"/>
				<path fill="#46547F" d="M398.8,337.2c-0.2,0-0.3,0-0.5-0.1c-0.3-0.1-0.4-0.4-0.1-0.6l7.6-5c0.3-0.2,0.7-0.2,1.1-0.1
					c0.3,0.1,0.4,0.4,0.1,0.6l-7.6,5C399.3,337.2,399,337.2,398.8,337.2z"/>
				<path fill="#46547F" d="M421.2,337.2c-0.2,0-0.3,0-0.5-0.1c-0.3-0.1-0.4-0.4-0.1-0.6l7.6-5c0.3-0.2,0.7-0.2,1.1-0.1
					c0.3,0.1,0.4,0.4,0.1,0.6l-7.6,5C421.6,337.2,421.4,337.2,421.2,337.2z"/>
				<path fill="#46547F" d="M443.5,337.2c-0.2,0-0.3,0-0.5-0.1c-0.3-0.1-0.4-0.4-0.1-0.6l7.6-5c0.3-0.2,0.7-0.2,1.1-0.1
					c0.3,0.1,0.4,0.4,0.1,0.6l-7.6,5C444,337.2,443.7,337.2,443.5,337.2z"/>
				<path fill="#46547F" d="M465.9,337.2c-0.2,0-0.3,0-0.5-0.1c-0.3-0.1-0.4-0.4-0.1-0.6l7.6-5c0.3-0.2,0.7-0.2,1.1-0.1
					c0.3,0.1,0.4,0.4,0.1,0.6l-7.6,5C466.3,337.2,466.1,337.2,465.9,337.2z"/>
				<path fill="#46547F" d="M488.2,337.2c-0.2,0-0.3,0-0.5-0.1c-0.3-0.1-0.4-0.4-0.1-0.6l7.6-5c0.3-0.2,0.7-0.2,1.1-0.1
					c0.3,0.1,0.4,0.4,0.1,0.6l-7.6,5C488.7,337.2,488.5,337.2,488.2,337.2z"/>
				<path fill="#46547F" d="M510.6,337.2c-0.2,0-0.3,0-0.5-0.1c-0.3-0.1-0.4-0.4-0.1-0.6l7.6-5c0.3-0.2,0.7-0.2,1.1-0.1
					c0.3,0.1,0.4,0.4,0.1,0.6l-7.6,5C511,337.2,510.8,337.2,510.6,337.2z"/>
				<path fill="#46547F" d="M532.9,337.2c-0.2,0-0.3,0-0.5-0.1c-0.3-0.1-0.4-0.4-0.1-0.6l7.6-5c0.3-0.2,0.7-0.2,1.1-0.1
					c0.3,0.1,0.4,0.4,0.1,0.6l-7.6,5C533.4,337.2,533.2,337.2,532.9,337.2z"/>
				<path fill="#46547F" d="M555.3,337.2c-0.2,0-0.3,0-0.5-0.1c-0.3-0.1-0.4-0.4-0.1-0.6l7.6-5c0.3-0.2,0.7-0.2,1.1-0.1
					c0.3,0.1,0.4,0.4,0.1,0.6l-7.6,5C555.7,337.2,555.5,337.2,555.3,337.2z"/>
				<path fill="#46547F" d="M577.6,337.2c-0.2,0-0.3,0-0.5-0.1c-0.3-0.1-0.4-0.4-0.1-0.6l7.6-5c0.3-0.2,0.7-0.2,1.1-0.1
					c0.3,0.1,0.4,0.4,0.1,0.6l-7.6,5C578.1,337.2,577.9,337.2,577.6,337.2z"/>
				<path fill="#46547F" d="M600,337.2c-0.2,0-0.3,0-0.5-0.1c-0.3-0.1-0.4-0.4-0.1-0.6l7.6-5c0.3-0.2,0.7-0.2,1.1-0.1
					c0.3,0.1,0.4,0.4,0.1,0.6l-7.6,5C600.4,337.2,600.2,337.2,600,337.2z"/>
			</g>
		</g>
		<g opacity="0.51">
			<g>
				<path fill="#46547F" d="M614.8,339.6l-3.7-2.4c-0.3-0.2-0.7-0.2-1.1-0.1c-0.3,0.1-0.4,0.4-0.1,0.6l4.8,3.2V339.6z"/>
				<path fill="#46547F" d="M595.8,342.9c-0.2,0-0.4-0.1-0.6-0.1l-7.6-5c-0.3-0.2-0.2-0.4,0.1-0.6c0.3-0.1,0.8-0.1,1.1,0.1l7.6,5
					c0.3,0.2,0.2,0.4-0.1,0.6C596.1,342.8,596,342.9,595.8,342.9z"/>
				<path fill="#46547F" d="M573.4,342.9c-0.2,0-0.4-0.1-0.6-0.1l-7.6-5c-0.3-0.2-0.2-0.4,0.1-0.6c0.3-0.1,0.8-0.1,1.1,0.1l7.6,5
					c0.3,0.2,0.2,0.4-0.1,0.6C573.8,342.8,573.6,342.9,573.4,342.9z"/>
				<path fill="#46547F" d="M551.1,342.9c-0.2,0-0.4-0.1-0.6-0.1l-7.6-5c-0.3-0.2-0.2-0.4,0.1-0.6c0.3-0.1,0.8-0.1,1.1,0.1l7.6,5
					c0.3,0.2,0.2,0.4-0.1,0.6C551.4,342.8,551.3,342.9,551.1,342.9z"/>
				<path fill="#46547F" d="M528.7,342.9c-0.2,0-0.4-0.1-0.6-0.1l-7.6-5c-0.3-0.2-0.2-0.4,0.1-0.6c0.3-0.1,0.8-0.1,1.1,0.1l7.6,5
					c0.3,0.2,0.2,0.4-0.1,0.6C529.1,342.8,528.9,342.9,528.7,342.9z"/>
				<path fill="#46547F" d="M506.4,342.9c-0.2,0-0.4-0.1-0.6-0.1l-7.6-5c-0.3-0.2-0.2-0.4,0.1-0.6c0.3-0.1,0.8-0.1,1.1,0.1l7.6,5
					c0.3,0.2,0.2,0.4-0.1,0.6C506.7,342.8,506.6,342.9,506.4,342.9z"/>
				<path fill="#46547F" d="M484,342.9c-0.2,0-0.4-0.1-0.6-0.1l-7.6-5c-0.3-0.2-0.2-0.4,0.1-0.6c0.3-0.1,0.8-0.1,1.1,0.1l7.6,5
					c0.3,0.2,0.2,0.4-0.1,0.6C484.4,342.8,484.2,342.9,484,342.9z"/>
				<path fill="#46547F" d="M461.7,342.9c-0.2,0-0.4-0.1-0.6-0.1l-7.6-5c-0.3-0.2-0.2-0.4,0.1-0.6c0.3-0.1,0.8-0.1,1.1,0.1l7.6,5
					c0.3,0.2,0.2,0.4-0.1,0.6C462,342.8,461.9,342.9,461.7,342.9z"/>
				<path fill="#46547F" d="M439.3,342.9c-0.2,0-0.4-0.1-0.6-0.1l-7.6-5c-0.3-0.2-0.2-0.4,0.1-0.6c0.3-0.1,0.8-0.1,1.1,0.1l7.6,5
					c0.3,0.2,0.2,0.4-0.1,0.6C439.7,342.8,439.5,342.9,439.3,342.9z"/>
				<path fill="#46547F" d="M417,342.9c-0.2,0-0.4-0.1-0.6-0.1l-7.6-5c-0.3-0.2-0.2-0.4,0.1-0.6c0.3-0.1,0.8-0.1,1.1,0.1l7.6,5
					c0.3,0.2,0.2,0.4-0.1,0.6C417.3,342.8,417.2,342.9,417,342.9z"/>
				<path fill="#46547F" d="M394.6,342.9c-0.2,0-0.4-0.1-0.6-0.1l-7.6-5c-0.3-0.2-0.2-0.4,0.1-0.6c0.3-0.1,0.8-0.1,1.1,0.1l7.6,5
					c0.3,0.2,0.2,0.4-0.1,0.6C395,342.8,394.8,342.9,394.6,342.9z"/>
				<path fill="#46547F" d="M372.3,342.9c-0.2,0-0.4-0.1-0.6-0.1l-7.6-5c-0.3-0.2-0.2-0.4,0.1-0.6c0.3-0.1,0.8-0.1,1.1,0.1l7.6,5
					c0.3,0.2,0.2,0.4-0.1,0.6C372.6,342.8,372.5,342.9,372.3,342.9z"/>
				<path fill="#46547F" d="M349.9,342.9c-0.2,0-0.4-0.1-0.6-0.1l-7.6-5c-0.3-0.2-0.2-0.4,0.1-0.6c0.3-0.1,0.8-0.1,1.1,0.1l7.6,5
					c0.3,0.2,0.2,0.4-0.1,0.6C350.3,342.8,350.1,342.9,349.9,342.9z"/>
				<path fill="#46547F" d="M327.6,342.9c-0.2,0-0.4-0.1-0.6-0.1l-7.6-5c-0.3-0.2-0.2-0.4,0.1-0.6c0.3-0.1,0.8-0.1,1.1,0.1l7.6,5
					c0.3,0.2,0.2,0.4-0.1,0.6C327.9,342.8,327.8,342.9,327.6,342.9z"/>
				<path fill="#46547F" d="M305.2,342.9c-0.2,0-0.4-0.1-0.6-0.1l-7.6-5c-0.3-0.2-0.2-0.4,0.1-0.6c0.3-0.1,0.8-0.1,1.1,0.1l7.6,5
					c0.3,0.2,0.2,0.4-0.1,0.6C305.6,342.8,305.4,342.9,305.2,342.9z"/>
				<path fill="#46547F" d="M282.9,342.9c-0.2,0-0.4-0.1-0.6-0.1l-7.6-5c-0.3-0.2-0.2-0.4,0.1-0.6c0.3-0.1,0.8-0.1,1.1,0.1l7.6,5
					c0.3,0.2,0.2,0.4-0.1,0.6C283.2,342.8,283,342.9,282.9,342.9z"/>
				<path fill="#46547F" d="M260.5,342.9c-0.2,0-0.4-0.1-0.6-0.1l-7.6-5c-0.3-0.2-0.2-0.4,0.1-0.6c0.3-0.1,0.8-0.1,1.1,0.1l7.6,5
					c0.3,0.2,0.2,0.4-0.1,0.6C260.9,342.8,260.7,342.9,260.5,342.9z"/>
				<path fill="#46547F" d="M238.2,342.9c-0.2,0-0.4-0.1-0.6-0.1l-7.6-5c-0.3-0.2-0.2-0.4,0.1-0.6c0.3-0.1,0.8-0.1,1.1,0.1l7.6,5
					c0.3,0.2,0.2,0.4-0.1,0.6C238.5,342.8,238.3,342.9,238.2,342.9z"/>
				<path fill="#46547F" d="M215.8,342.9c-0.2,0-0.4-0.1-0.6-0.1l-7.6-5c-0.3-0.2-0.2-0.4,0.1-0.6c0.3-0.1,0.8-0.1,1.1,0.1l7.6,5
					c0.3,0.2,0.2,0.4-0.1,0.6C216.2,342.8,216,342.9,215.8,342.9z"/>
				<path fill="#46547F" d="M193.5,342.9c-0.2,0-0.4-0.1-0.6-0.1l-7.6-5c-0.3-0.2-0.2-0.4,0.1-0.6c0.3-0.1,0.8-0.1,1.1,0.1l7.6,5
					c0.3,0.2,0.2,0.4-0.1,0.6C193.8,342.8,193.6,342.9,193.5,342.9z"/>
				<path fill="#46547F" d="M171.1,342.9c-0.2,0-0.4-0.1-0.6-0.1l-7.6-5c-0.3-0.2-0.2-0.4,0.1-0.6c0.3-0.1,0.8-0.1,1.1,0.1l7.6,5
					c0.3,0.2,0.2,0.4-0.1,0.6C171.5,342.8,171.3,342.9,171.1,342.9z"/>
				<path fill="#46547F" d="M148.8,342.9c-0.2,0-0.4-0.1-0.6-0.1l-7.6-5c-0.3-0.2-0.2-0.4,0.1-0.6c0.3-0.1,0.8-0.1,1.1,0.1l7.6,5
					c0.3,0.2,0.2,0.4-0.1,0.6C149.1,342.8,148.9,342.9,148.8,342.9z"/>
				<path fill="#46547F" d="M126.4,342.9c-0.2,0-0.4-0.1-0.6-0.1l-7.6-5c-0.3-0.2-0.2-0.4,0.1-0.6c0.3-0.1,0.8-0.1,1.1,0.1l7.6,5
					c0.3,0.2,0.2,0.4-0.1,0.6C126.8,342.8,126.6,342.9,126.4,342.9z"/>
				<path fill="#46547F" d="M104.1,342.9c-0.2,0-0.4-0.1-0.6-0.1l-7.6-5c-0.3-0.2-0.2-0.4,0.1-0.6c0.3-0.1,0.8-0.1,1.1,0.1l7.6,5
					c0.3,0.2,0.2,0.4-0.1,0.6C104.4,342.8,104.2,342.9,104.1,342.9z"/>
				<path fill="#46547F" d="M81.7,342.9c-0.2,0-0.4-0.1-0.6-0.1l-7.6-5c-0.3-0.2-0.2-0.4,0.1-0.6c0.3-0.1,0.8-0.1,1.1,0.1l7.6,5
					c0.3,0.2,0.2,0.4-0.1,0.6C82.1,342.8,81.9,342.9,81.7,342.9z"/>
				<path fill="#46547F" d="M59.4,342.9c-0.2,0-0.4-0.1-0.6-0.1l-7.6-5c-0.3-0.2-0.2-0.4,0.1-0.6c0.3-0.1,0.8-0.1,1.1,0.1l7.6,5
					c0.3,0.2,0.2,0.4-0.1,0.6C59.7,342.8,59.5,342.9,59.4,342.9z"/>
				<path fill="#46547F" d="M37,342.9c-0.2,0-0.4-0.1-0.6-0.1l-7.6-5c-0.3-0.2-0.2-0.4,0.1-0.6c0.3-0.1,0.8-0.1,1.1,0.1l7.6,5
					c0.3,0.2,0.2,0.4-0.1,0.6C37.4,342.8,37.2,342.9,37,342.9z"/>
				<path fill="#46547F" d="M14.7,342.9c-0.2,0-0.4-0.1-0.6-0.1l-7.6-5c-0.3-0.2-0.2-0.4,0.1-0.6c0.3-0.1,0.8-0.1,1.1,0.1l7.6,5
					c0.3,0.2,0.2,0.4-0.1,0.6C15,342.8,14.8,342.9,14.7,342.9z"/>
			</g>
		</g>
	</g>
	<g>
		<g opacity="0.51">
			<g>
				<path fill="#46547F" d="M4.7,294.7c-0.2,0-0.3,0-0.5-0.1c-0.3-0.1-0.4-0.3-0.1-0.5l7.6-4.2c0.3-0.1,0.7-0.2,1.1,0
					c0.3,0.1,0.4,0.3,0.1,0.5l-7.6,4.2C5.2,294.7,4.9,294.7,4.7,294.7z"/>
				<path fill="#46547F" d="M27.1,294.7c-0.2,0-0.3,0-0.5-0.1c-0.3-0.1-0.4-0.3-0.1-0.5l7.6-4.2c0.3-0.1,0.7-0.2,1.1,0
					c0.3,0.1,0.4,0.3,0.1,0.5l-7.6,4.2C27.5,294.7,27.3,294.7,27.1,294.7z"/>
				<path fill="#46547F" d="M49.4,294.7c-0.2,0-0.3,0-0.5-0.1c-0.3-0.1-0.4-0.3-0.1-0.5l7.6-4.2c0.3-0.1,0.7-0.2,1.1,0
					c0.3,0.1,0.4,0.3,0.1,0.5l-7.6,4.2C49.9,294.7,49.6,294.7,49.4,294.7z"/>
				<path fill="#46547F" d="M71.8,294.7c-0.2,0-0.3,0-0.5-0.1c-0.3-0.1-0.4-0.3-0.1-0.5l7.6-4.2c0.3-0.1,0.7-0.2,1.1,0
					c0.3,0.1,0.4,0.3,0.1,0.5l-7.6,4.2C72.2,294.7,72,294.7,71.8,294.7z"/>
				<path fill="#46547F" d="M94.1,294.7c-0.2,0-0.3,0-0.5-0.1c-0.3-0.1-0.4-0.3-0.1-0.5l7.6-4.2c0.3-0.1,0.7-0.2,1.1,0
					c0.3,0.1,0.4,0.3,0.1,0.5l-7.6,4.2C94.6,294.7,94.3,294.7,94.1,294.7z"/>
				<path fill="#46547F" d="M116.5,294.7c-0.2,0-0.3,0-0.5-0.1c-0.3-0.1-0.4-0.3-0.1-0.5l7.6-4.2c0.3-0.1,0.7-0.2,1.1,0
					c0.3,0.1,0.4,0.3,0.1,0.5l-7.6,4.2C116.9,294.7,116.7,294.7,116.5,294.7z"/>
				<path fill="#46547F" d="M138.8,294.7c-0.2,0-0.3,0-0.5-0.1c-0.3-0.1-0.4-0.3-0.1-0.5l7.6-4.2c0.3-0.1,0.7-0.2,1.1,0
					c0.3,0.1,0.4,0.3,0.1,0.5l-7.6,4.2C139.3,294.7,139,294.7,138.8,294.7z"/>
				<path fill="#46547F" d="M161.2,294.7c-0.2,0-0.3,0-0.5-0.1c-0.3-0.1-0.4-0.3-0.1-0.5l7.6-4.2c0.3-0.1,0.7-0.2,1.1,0
					c0.3,0.1,0.4,0.3,0.1,0.5l-7.6,4.2C161.6,294.7,161.4,294.7,161.2,294.7z"/>
				<path fill="#46547F" d="M183.5,294.7c-0.2,0-0.3,0-0.5-0.1c-0.3-0.1-0.4-0.3-0.1-0.5l7.6-4.2c0.3-0.1,0.7-0.2,1.1,0
					c0.3,0.1,0.4,0.3,0.1,0.5l-7.6,4.2C184,294.7,183.8,294.7,183.5,294.7z"/>
				<path fill="#46547F" d="M205.9,294.7c-0.2,0-0.3,0-0.5-0.1c-0.3-0.1-0.4-0.3-0.1-0.5l7.6-4.2c0.3-0.1,0.7-0.2,1.1,0
					c0.3,0.1,0.4,0.3,0.1,0.5l-7.6,4.2C206.3,294.7,206.1,294.7,205.9,294.7z"/>
				<path fill="#46547F" d="M228.2,294.7c-0.2,0-0.3,0-0.5-0.1c-0.3-0.1-0.4-0.3-0.1-0.5l7.6-4.2c0.3-0.1,0.7-0.2,1.1,0
					c0.3,0.1,0.4,0.3,0.1,0.5l-7.6,4.2C228.7,294.7,228.5,294.7,228.2,294.7z"/>
				<path fill="#46547F" d="M250.6,294.7c-0.2,0-0.3,0-0.5-0.1c-0.3-0.1-0.4-0.3-0.1-0.5l7.6-4.2c0.3-0.1,0.7-0.2,1.1,0
					c0.3,0.1,0.4,0.3,0.1,0.5l-7.6,4.2C251,294.7,250.8,294.7,250.6,294.7z"/>
				<path fill="#46547F" d="M272.9,294.7c-0.2,0-0.3,0-0.5-0.1c-0.3-0.1-0.4-0.3-0.1-0.5l7.6-4.2c0.3-0.1,0.7-0.2,1.1,0
					c0.3,0.1,0.4,0.3,0.1,0.5l-7.6,4.2C273.4,294.7,273.2,294.7,272.9,294.7z"/>
				<path fill="#46547F" d="M295.3,294.7c-0.2,0-0.3,0-0.5-0.1c-0.3-0.1-0.4-0.3-0.1-0.5l7.6-4.2c0.3-0.1,0.7-0.2,1.1,0
					c0.3,0.1,0.4,0.3,0.1,0.5l-7.6,4.2C295.7,294.7,295.5,294.7,295.3,294.7z"/>
				<path fill="#46547F" d="M317.6,294.7c-0.2,0-0.3,0-0.5-0.1c-0.3-0.1-0.4-0.3-0.1-0.5l7.6-4.2c0.3-0.1,0.7-0.2,1.1,0
					c0.3,0.1,0.4,0.3,0.1,0.5l-7.6,4.2C318.1,294.7,317.9,294.7,317.6,294.7z"/>
				<path fill="#46547F" d="M340,294.7c-0.2,0-0.3,0-0.5-0.1c-0.3-0.1-0.4-0.3-0.1-0.5l7.6-4.2c0.3-0.1,0.7-0.2,1.1,0
					c0.3,0.1,0.4,0.3,0.1,0.5l-7.6,4.2C340.4,294.7,340.2,294.7,340,294.7z"/>
				<path fill="#46547F" d="M362.3,294.7c-0.2,0-0.3,0-0.5-0.1c-0.3-0.1-0.4-0.3-0.1-0.5l7.6-4.2c0.3-0.1,0.7-0.2,1.1,0
					c0.3,0.1,0.4,0.3,0.1,0.5l-7.6,4.2C362.8,294.7,362.6,294.7,362.3,294.7z"/>
				<path fill="#46547F" d="M384.7,294.7c-0.2,0-0.3,0-0.5-0.1c-0.3-0.1-0.4-0.3-0.1-0.5l7.6-4.2c0.3-0.1,0.7-0.2,1.1,0
					c0.3,0.1,0.4,0.3,0.1,0.5l-7.6,4.2C385.1,294.7,384.9,294.7,384.7,294.7z"/>
				<path fill="#46547F" d="M407,294.7c-0.2,0-0.3,0-0.5-0.1c-0.3-0.1-0.4-0.3-0.1-0.5l7.6-4.2c0.3-0.1,0.7-0.2,1.1,0
					c0.3,0.1,0.4,0.3,0.1,0.5l-7.6,4.2C407.5,294.7,407.3,294.7,407,294.7z"/>
				<path fill="#46547F" d="M429.4,294.7c-0.2,0-0.3,0-0.5-0.1c-0.3-0.1-0.4-0.3-0.1-0.5l7.6-4.2c0.3-0.1,0.7-0.2,1.1,0
					c0.3,0.1,0.4,0.3,0.1,0.5l-7.6,4.2C429.8,294.7,429.6,294.7,429.4,294.7z"/>
				<path fill="#46547F" d="M451.8,294.7c-0.2,0-0.3,0-0.5-0.1c-0.3-0.1-0.4-0.3-0.1-0.5l7.6-4.2c0.3-0.1,0.7-0.2,1.1,0
					c0.3,0.1,0.4,0.3,0.1,0.5l-7.6,4.2C452.2,294.7,452,294.7,451.8,294.7z"/>
				<path fill="#46547F" d="M474.1,294.7c-0.2,0-0.3,0-0.5-0.1c-0.3-0.1-0.4-0.3-0.1-0.5l7.6-4.2c0.3-0.1,0.7-0.2,1.1,0
					c0.3,0.1,0.4,0.3,0.1,0.5l-7.6,4.2C474.5,294.7,474.3,294.7,474.1,294.7z"/>
				<path fill="#46547F" d="M496.5,294.7c-0.2,0-0.3,0-0.5-0.1c-0.3-0.1-0.4-0.3-0.1-0.5l7.6-4.2c0.3-0.1,0.7-0.2,1.1,0
					c0.3,0.1,0.4,0.3,0.1,0.5l-7.6,4.2C496.9,294.7,496.7,294.7,496.5,294.7z"/>
				<path fill="#46547F" d="M518.8,294.7c-0.2,0-0.3,0-0.5-0.1c-0.3-0.1-0.4-0.3-0.1-0.5l7.6-4.2c0.3-0.1,0.7-0.2,1.1,0
					c0.3,0.1,0.4,0.3,0.1,0.5l-7.6,4.2C519.2,294.7,519,294.7,518.8,294.7z"/>
				<path fill="#46547F" d="M541.2,294.7c-0.2,0-0.3,0-0.5-0.1c-0.3-0.1-0.4-0.3-0.1-0.5l7.6-4.2c0.3-0.1,0.7-0.2,1.1,0
					c0.3,0.1,0.4,0.3,0.1,0.5l-7.6,4.2C541.6,294.7,541.4,294.7,541.2,294.7z"/>
				<path fill="#46547F" d="M563.5,294.7c-0.2,0-0.3,0-0.5-0.1c-0.3-0.1-0.4-0.3-0.1-0.5l7.6-4.2c0.3-0.1,0.7-0.2,1.1,0
					c0.3,0.1,0.4,0.3,0.1,0.5l-7.6,4.2C563.9,294.7,563.7,294.7,563.5,294.7z"/>
				<path fill="#46547F" d="M585.9,294.7c-0.2,0-0.3,0-0.5-0.1c-0.3-0.1-0.4-0.3-0.1-0.5l7.6-4.2c0.3-0.1,0.7-0.2,1.1,0
					c0.3,0.1,0.4,0.3,0.1,0.5l-7.6,4.2C586.3,294.7,586.1,294.7,585.9,294.7z"/>
				<path fill="#46547F" d="M614.8,290.2l-7.2,4c-0.3,0.1-0.2,0.4,0.1,0.5c0.1,0.1,0.3,0.1,0.5,0.1c0.2,0,0.4,0,0.6-0.1l6.1-3.3
					V290.2z"/>
			</g>
		</g>
		<g opacity="0.51">
			<g>
				<path fill="#46547F" d="M604,300.4c-0.2,0-0.4,0-0.6-0.1l-7.6-4.2c-0.3-0.1-0.2-0.4,0.1-0.5c0.3-0.1,0.8-0.1,1.1,0l7.6,4.2
					c0.3,0.1,0.2,0.4-0.1,0.5C604.4,300.4,604.2,300.4,604,300.4z"/>
				<path fill="#46547F" d="M581.7,300.4c-0.2,0-0.4,0-0.6-0.1l-7.6-4.2c-0.3-0.1-0.2-0.4,0.1-0.5c0.3-0.1,0.8-0.1,1.1,0l7.6,4.2
					c0.3,0.1,0.2,0.4-0.1,0.5C582,300.4,581.8,300.4,581.7,300.4z"/>
				<path fill="#46547F" d="M559.3,300.4c-0.2,0-0.4,0-0.6-0.1l-7.6-4.2c-0.3-0.1-0.2-0.4,0.1-0.5c0.3-0.1,0.8-0.1,1.1,0l7.6,4.2
					c0.3,0.1,0.2,0.4-0.1,0.5C559.7,300.4,559.5,300.4,559.3,300.4z"/>
				<path fill="#46547F" d="M537,300.4c-0.2,0-0.4,0-0.6-0.1l-7.6-4.2c-0.3-0.1-0.2-0.4,0.1-0.5c0.3-0.1,0.8-0.1,1.1,0l7.6,4.2
					c0.3,0.1,0.2,0.4-0.1,0.5C537.3,300.4,537.1,300.4,537,300.4z"/>
				<path fill="#46547F" d="M514.6,300.4c-0.2,0-0.4,0-0.6-0.1l-7.6-4.2c-0.3-0.1-0.2-0.4,0.1-0.5c0.3-0.1,0.8-0.1,1.1,0l7.6,4.2
					c0.3,0.1,0.2,0.4-0.1,0.5C514.9,300.4,514.8,300.4,514.6,300.4z"/>
				<path fill="#46547F" d="M492.3,300.4c-0.2,0-0.4,0-0.6-0.1l-7.6-4.2c-0.3-0.1-0.2-0.4,0.1-0.5c0.3-0.1,0.8-0.1,1.1,0l7.6,4.2
					c0.3,0.1,0.2,0.4-0.1,0.5C492.6,300.4,492.4,300.4,492.3,300.4z"/>
				<path fill="#46547F" d="M469.9,300.4c-0.2,0-0.4,0-0.6-0.1l-7.6-4.2c-0.3-0.1-0.2-0.4,0.1-0.5c0.3-0.1,0.8-0.1,1.1,0l7.6,4.2
					c0.3,0.1,0.2,0.4-0.1,0.5C470.2,300.4,470.1,300.4,469.9,300.4z"/>
				<path fill="#46547F" d="M447.6,300.4c-0.2,0-0.4,0-0.6-0.1l-7.6-4.2c-0.3-0.1-0.2-0.4,0.1-0.5c0.3-0.1,0.8-0.1,1.1,0l7.6,4.2
					c0.3,0.1,0.2,0.4-0.1,0.5C447.9,300.4,447.7,300.4,447.6,300.4z"/>
				<path fill="#46547F" d="M425.2,300.4c-0.2,0-0.4,0-0.6-0.1l-7.6-4.2c-0.3-0.1-0.2-0.4,0.1-0.5c0.3-0.1,0.8-0.1,1.1,0l7.6,4.2
					c0.3,0.1,0.2,0.4-0.1,0.5C425.5,300.4,425.4,300.4,425.2,300.4z"/>
				<path fill="#46547F" d="M402.9,300.4c-0.2,0-0.4,0-0.6-0.1l-7.6-4.2c-0.3-0.1-0.2-0.4,0.1-0.5c0.3-0.1,0.8-0.1,1.1,0l7.6,4.2
					c0.3,0.1,0.2,0.4-0.1,0.5C403.2,300.4,403,300.4,402.9,300.4z"/>
				<path fill="#46547F" d="M380.5,300.4c-0.2,0-0.4,0-0.6-0.1l-7.6-4.2c-0.3-0.1-0.2-0.4,0.1-0.5c0.3-0.1,0.8-0.1,1.1,0l7.6,4.2
					c0.3,0.1,0.2,0.4-0.1,0.5C380.8,300.4,380.7,300.4,380.5,300.4z"/>
				<path fill="#46547F" d="M358.2,300.4c-0.2,0-0.4,0-0.6-0.1l-7.6-4.2c-0.3-0.1-0.2-0.4,0.1-0.5c0.3-0.1,0.8-0.1,1.1,0l7.6,4.2
					c0.3,0.1,0.2,0.4-0.1,0.5C358.5,300.4,358.3,300.4,358.2,300.4z"/>
				<path fill="#46547F" d="M335.8,300.4c-0.2,0-0.4,0-0.6-0.1l-7.6-4.2c-0.3-0.1-0.2-0.4,0.1-0.5c0.3-0.1,0.8-0.1,1.1,0l7.6,4.2
					c0.3,0.1,0.2,0.4-0.1,0.5C336.1,300.4,336,300.4,335.8,300.4z"/>
				<path fill="#46547F" d="M313.4,300.4c-0.2,0-0.4,0-0.6-0.1l-7.6-4.2c-0.3-0.1-0.2-0.4,0.1-0.5c0.3-0.1,0.8-0.1,1.1,0l7.6,4.2
					c0.3,0.1,0.2,0.4-0.1,0.5C313.8,300.4,313.6,300.4,313.4,300.4z"/>
				<path fill="#46547F" d="M291.1,300.4c-0.2,0-0.4,0-0.6-0.1l-7.6-4.2c-0.3-0.1-0.2-0.4,0.1-0.5c0.3-0.1,0.8-0.1,1.1,0l7.6,4.2
					c0.3,0.1,0.2,0.4-0.1,0.5C291.4,300.4,291.3,300.4,291.1,300.4z"/>
				<path fill="#46547F" d="M268.7,300.4c-0.2,0-0.4,0-0.6-0.1l-7.6-4.2c-0.3-0.1-0.2-0.4,0.1-0.5c0.3-0.1,0.8-0.1,1.1,0l7.6,4.2
					c0.3,0.1,0.2,0.4-0.1,0.5C269.1,300.4,268.9,300.4,268.7,300.4z"/>
				<path fill="#46547F" d="M246.4,300.4c-0.2,0-0.4,0-0.6-0.1l-7.6-4.2c-0.3-0.1-0.2-0.4,0.1-0.5c0.3-0.1,0.8-0.1,1.1,0l7.6,4.2
					c0.3,0.1,0.2,0.4-0.1,0.5C246.7,300.4,246.6,300.4,246.4,300.4z"/>
				<path fill="#46547F" d="M224,300.4c-0.2,0-0.4,0-0.6-0.1l-7.6-4.2c-0.3-0.1-0.2-0.4,0.1-0.5c0.3-0.1,0.8-0.1,1.1,0l7.6,4.2
					c0.3,0.1,0.2,0.4-0.1,0.5C224.4,300.4,224.2,300.4,224,300.4z"/>
				<path fill="#46547F" d="M201.7,300.4c-0.2,0-0.4,0-0.6-0.1l-7.6-4.2c-0.3-0.1-0.2-0.4,0.1-0.5c0.3-0.1,0.8-0.1,1.1,0l7.6,4.2
					c0.3,0.1,0.2,0.4-0.1,0.5C202,300.4,201.9,300.4,201.7,300.4z"/>
				<path fill="#46547F" d="M179.3,300.4c-0.2,0-0.4,0-0.6-0.1l-7.6-4.2c-0.3-0.1-0.2-0.4,0.1-0.5c0.3-0.1,0.8-0.1,1.1,0l7.6,4.2
					c0.3,0.1,0.2,0.4-0.1,0.5C179.7,300.4,179.5,300.4,179.3,300.4z"/>
				<path fill="#46547F" d="M157,300.4c-0.2,0-0.4,0-0.6-0.1l-7.6-4.2c-0.3-0.1-0.2-0.4,0.1-0.5c0.3-0.1,0.8-0.1,1.1,0l7.6,4.2
					c0.3,0.1,0.2,0.4-0.1,0.5C157.3,300.4,157.2,300.4,157,300.4z"/>
				<path fill="#46547F" d="M134.6,300.4c-0.2,0-0.4,0-0.6-0.1l-7.6-4.2c-0.3-0.1-0.2-0.4,0.1-0.5c0.3-0.1,0.8-0.1,1.1,0l7.6,4.2
					c0.3,0.1,0.2,0.4-0.1,0.5C135,300.4,134.8,300.4,134.6,300.4z"/>
				<path fill="#46547F" d="M112.3,300.4c-0.2,0-0.4,0-0.6-0.1l-7.6-4.2c-0.3-0.1-0.2-0.4,0.1-0.5c0.3-0.1,0.8-0.1,1.1,0l7.6,4.2
					c0.3,0.1,0.2,0.4-0.1,0.5C112.6,300.4,112.5,300.4,112.3,300.4z"/>
				<path fill="#46547F" d="M89.9,300.4c-0.2,0-0.4,0-0.6-0.1l-7.6-4.2c-0.3-0.1-0.2-0.4,0.1-0.5c0.3-0.1,0.8-0.1,1.1,0l7.6,4.2
					c0.3,0.1,0.2,0.4-0.1,0.5C90.3,300.4,90.1,300.4,89.9,300.4z"/>
				<path fill="#46547F" d="M67.6,300.4c-0.2,0-0.4,0-0.6-0.1l-7.6-4.2c-0.3-0.1-0.2-0.4,0.1-0.5c0.3-0.1,0.8-0.1,1.1,0l7.6,4.2
					c0.3,0.1,0.2,0.4-0.1,0.5C67.9,300.4,67.8,300.4,67.6,300.4z"/>
				<path fill="#46547F" d="M45.2,300.4c-0.2,0-0.4,0-0.6-0.1l-7.6-4.2c-0.3-0.1-0.2-0.4,0.1-0.5c0.3-0.1,0.8-0.1,1.1,0l7.6,4.2
					c0.3,0.1,0.2,0.4-0.1,0.5C45.6,300.4,45.4,300.4,45.2,300.4z"/>
				<path fill="#46547F" d="M22.9,300.4c-0.2,0-0.4,0-0.6-0.1l-7.6-4.2c-0.3-0.1-0.2-0.4,0.1-0.5c0.3-0.1,0.8-0.1,1.1,0l7.6,4.2
					c0.3,0.1,0.2,0.4-0.1,0.5C23.2,300.4,23,300.4,22.9,300.4z"/>
			</g>
		</g>
		<g opacity="0.51">
			<g>
				<path fill="#46547F" d="M6.7,305.1c-0.2,0-0.3,0-0.5-0.1c-0.3-0.1-0.4-0.3-0.1-0.5l7.6-4.2c0.3-0.1,0.7-0.2,1.1,0
					c0.3,0.1,0.4,0.3,0.1,0.5L7.3,305C7.1,305.1,6.9,305.1,6.7,305.1z"/>
				<path fill="#46547F" d="M29.1,305.1c-0.2,0-0.3,0-0.5-0.1c-0.3-0.1-0.4-0.3-0.1-0.5l7.6-4.2c0.3-0.1,0.7-0.2,1.1,0
					c0.3,0.1,0.4,0.3,0.1,0.5l-7.6,4.2C29.5,305.1,29.3,305.1,29.1,305.1z"/>
				<path fill="#46547F" d="M51.4,305.1c-0.2,0-0.3,0-0.5-0.1c-0.3-0.1-0.4-0.3-0.1-0.5l7.6-4.2c0.3-0.1,0.7-0.2,1.1,0
					c0.3,0.1,0.4,0.3,0.1,0.5L52,305C51.8,305.1,51.6,305.1,51.4,305.1z"/>
				<path fill="#46547F" d="M73.8,305.1c-0.2,0-0.3,0-0.5-0.1c-0.3-0.1-0.4-0.3-0.1-0.5l7.6-4.2c0.3-0.1,0.7-0.2,1.1,0
					c0.3,0.1,0.4,0.3,0.1,0.5l-7.6,4.2C74.2,305.1,74,305.1,73.8,305.1z"/>
				<path fill="#46547F" d="M96.1,305.1c-0.2,0-0.3,0-0.5-0.1c-0.3-0.1-0.4-0.3-0.1-0.5l7.6-4.2c0.3-0.1,0.7-0.2,1.1,0
					c0.3,0.1,0.4,0.3,0.1,0.5l-7.6,4.2C96.5,305.1,96.3,305.1,96.1,305.1z"/>
				<path fill="#46547F" d="M118.5,305.1c-0.2,0-0.3,0-0.5-0.1c-0.3-0.1-0.4-0.3-0.1-0.5l7.6-4.2c0.3-0.1,0.7-0.2,1.1,0
					c0.3,0.1,0.4,0.3,0.1,0.5L119,305C118.9,305.1,118.7,305.1,118.5,305.1z"/>
				<path fill="#46547F" d="M140.8,305.1c-0.2,0-0.3,0-0.5-0.1c-0.3-0.1-0.4-0.3-0.1-0.5l7.6-4.2c0.3-0.1,0.7-0.2,1.1,0
					c0.3,0.1,0.4,0.3,0.1,0.5l-7.6,4.2C141.2,305.1,141,305.1,140.8,305.1z"/>
				<path fill="#46547F" d="M163.2,305.1c-0.2,0-0.3,0-0.5-0.1c-0.3-0.1-0.4-0.3-0.1-0.5l7.6-4.2c0.3-0.1,0.7-0.2,1.1,0
					c0.3,0.1,0.4,0.3,0.1,0.5l-7.6,4.2C163.6,305.1,163.4,305.1,163.2,305.1z"/>
				<path fill="#46547F" d="M185.5,305.1c-0.2,0-0.3,0-0.5-0.1c-0.3-0.1-0.4-0.3-0.1-0.5l7.6-4.2c0.3-0.1,0.7-0.2,1.1,0
					c0.3,0.1,0.4,0.3,0.1,0.5l-7.6,4.2C186,305.1,185.7,305.1,185.5,305.1z"/>
				<path fill="#46547F" d="M207.9,305.1c-0.2,0-0.3,0-0.5-0.1c-0.3-0.1-0.4-0.3-0.1-0.5l7.6-4.2c0.3-0.1,0.7-0.2,1.1,0
					c0.3,0.1,0.4,0.3,0.1,0.5l-7.6,4.2C208.3,305.1,208.1,305.1,207.9,305.1z"/>
				<path fill="#46547F" d="M230.2,305.1c-0.2,0-0.3,0-0.5-0.1c-0.3-0.1-0.4-0.3-0.1-0.5l7.6-4.2c0.3-0.1,0.7-0.2,1.1,0
					c0.3,0.1,0.4,0.3,0.1,0.5l-7.6,4.2C230.7,305.1,230.4,305.1,230.2,305.1z"/>
				<path fill="#46547F" d="M252.6,305.1c-0.2,0-0.3,0-0.5-0.1c-0.3-0.1-0.4-0.3-0.1-0.5l7.6-4.2c0.3-0.1,0.7-0.2,1.1,0
					c0.3,0.1,0.4,0.3,0.1,0.5l-7.6,4.2C253,305.1,252.8,305.1,252.6,305.1z"/>
				<path fill="#46547F" d="M274.9,305.1c-0.2,0-0.3,0-0.5-0.1c-0.3-0.1-0.4-0.3-0.1-0.5l7.6-4.2c0.3-0.1,0.7-0.2,1.1,0
					c0.3,0.1,0.4,0.3,0.1,0.5l-7.6,4.2C275.4,305.1,275.1,305.1,274.9,305.1z"/>
				<path fill="#46547F" d="M297.3,305.1c-0.2,0-0.3,0-0.5-0.1c-0.3-0.1-0.4-0.3-0.1-0.5l7.6-4.2c0.3-0.1,0.7-0.2,1.1,0
					c0.3,0.1,0.4,0.3,0.1,0.5l-7.6,4.2C297.7,305.1,297.5,305.1,297.3,305.1z"/>
				<path fill="#46547F" d="M319.6,305.1c-0.2,0-0.3,0-0.5-0.1c-0.3-0.1-0.4-0.3-0.1-0.5l7.6-4.2c0.3-0.1,0.7-0.2,1.1,0
					c0.3,0.1,0.4,0.3,0.1,0.5l-7.6,4.2C320.1,305.1,319.8,305.1,319.6,305.1z"/>
				<path fill="#46547F" d="M342,305.1c-0.2,0-0.3,0-0.5-0.1c-0.3-0.1-0.4-0.3-0.1-0.5l7.6-4.2c0.3-0.1,0.7-0.2,1.1,0
					c0.3,0.1,0.4,0.3,0.1,0.5l-7.6,4.2C342.4,305.1,342.2,305.1,342,305.1z"/>
				<path fill="#46547F" d="M364.3,305.1c-0.2,0-0.3,0-0.5-0.1c-0.3-0.1-0.4-0.3-0.1-0.5l7.6-4.2c0.3-0.1,0.7-0.2,1.1,0
					c0.3,0.1,0.4,0.3,0.1,0.5l-7.6,4.2C364.8,305.1,364.6,305.1,364.3,305.1z"/>
				<path fill="#46547F" d="M386.7,305.1c-0.2,0-0.3,0-0.5-0.1c-0.3-0.1-0.4-0.3-0.1-0.5l7.6-4.2c0.3-0.1,0.7-0.2,1.1,0
					c0.3,0.1,0.4,0.3,0.1,0.5l-7.6,4.2C387.1,305.1,386.9,305.1,386.7,305.1z"/>
				<path fill="#46547F" d="M409,305.1c-0.2,0-0.3,0-0.5-0.1c-0.3-0.1-0.4-0.3-0.1-0.5l7.6-4.2c0.3-0.1,0.7-0.2,1.1,0
					c0.3,0.1,0.4,0.3,0.1,0.5l-7.6,4.2C409.5,305.1,409.3,305.1,409,305.1z"/>
				<path fill="#46547F" d="M431.4,305.1c-0.2,0-0.3,0-0.5-0.1c-0.3-0.1-0.4-0.3-0.1-0.5l7.6-4.2c0.3-0.1,0.7-0.2,1.1,0
					c0.3,0.1,0.4,0.3,0.1,0.5L432,305C431.8,305.1,431.6,305.1,431.4,305.1z"/>
				<path fill="#46547F" d="M453.7,305.1c-0.2,0-0.3,0-0.5-0.1c-0.3-0.1-0.4-0.3-0.1-0.5l7.6-4.2c0.3-0.1,0.7-0.2,1.1,0
					c0.3,0.1,0.4,0.3,0.1,0.5l-7.6,4.2C454.2,305.1,454,305.1,453.7,305.1z"/>
				<path fill="#46547F" d="M476.1,305.1c-0.2,0-0.3,0-0.5-0.1c-0.3-0.1-0.4-0.3-0.1-0.5l7.6-4.2c0.3-0.1,0.7-0.2,1.1,0
					c0.3,0.1,0.4,0.3,0.1,0.5l-7.6,4.2C476.5,305.1,476.3,305.1,476.1,305.1z"/>
				<path fill="#46547F" d="M498.4,305.1c-0.2,0-0.3,0-0.5-0.1c-0.3-0.1-0.4-0.3-0.1-0.5l7.6-4.2c0.3-0.1,0.7-0.2,1.1,0
					c0.3,0.1,0.4,0.3,0.1,0.5L499,305C498.9,305.1,498.7,305.1,498.4,305.1z"/>
				<path fill="#46547F" d="M520.8,305.1c-0.2,0-0.3,0-0.5-0.1c-0.3-0.1-0.4-0.3-0.1-0.5l7.6-4.2c0.3-0.1,0.7-0.2,1.1,0
					c0.3,0.1,0.4,0.3,0.1,0.5l-7.6,4.2C521.2,305.1,521,305.1,520.8,305.1z"/>
				<path fill="#46547F" d="M543.1,305.1c-0.2,0-0.3,0-0.5-0.1c-0.3-0.1-0.4-0.3-0.1-0.5l7.6-4.2c0.3-0.1,0.7-0.2,1.1,0
					c0.3,0.1,0.4,0.3,0.1,0.5l-7.6,4.2C543.6,305.1,543.4,305.1,543.1,305.1z"/>
				<path fill="#46547F" d="M565.5,305.1c-0.2,0-0.3,0-0.5-0.1c-0.3-0.1-0.4-0.3-0.1-0.5l7.6-4.2c0.3-0.1,0.7-0.2,1.1,0
					c0.3,0.1,0.4,0.3,0.1,0.5l-7.6,4.2C565.9,305.1,565.7,305.1,565.5,305.1z"/>
				<path fill="#46547F" d="M587.9,305.1c-0.2,0-0.3,0-0.5-0.1c-0.3-0.1-0.4-0.3-0.1-0.5l7.6-4.2c0.3-0.1,0.7-0.2,1.1,0
					c0.3,0.1,0.4,0.3,0.1,0.5l-7.6,4.2C588.3,305.1,588.1,305.1,587.9,305.1z"/>
				<path fill="#46547F" d="M614.8,301.7l-5.2,2.9c-0.3,0.1-0.2,0.4,0.1,0.5c0.1,0.1,0.3,0.1,0.5,0.1c0.2,0,0.4,0,0.6-0.1l4.1-2.2
					V301.7z"/>
			</g>
		</g>
		<g opacity="0.51">
			<g>
				<path fill="#46547F" d="M7,315.5c-0.2,0-0.3,0-0.5-0.1c-0.3-0.1-0.4-0.3-0.1-0.5l7.6-4.2c0.3-0.1,0.7-0.2,1.1,0
					c0.3,0.1,0.4,0.3,0.1,0.5l-7.6,4.2C7.4,315.5,7.2,315.5,7,315.5z"/>
				<path fill="#46547F" d="M29.3,315.5c-0.2,0-0.3,0-0.5-0.1c-0.3-0.1-0.4-0.3-0.1-0.5l7.6-4.2c0.3-0.1,0.7-0.2,1.1,0
					c0.3,0.1,0.4,0.3,0.1,0.5l-7.6,4.2C29.7,315.5,29.5,315.5,29.3,315.5z"/>
				<path fill="#46547F" d="M51.7,315.5c-0.2,0-0.3,0-0.5-0.1c-0.3-0.1-0.4-0.3-0.1-0.5l7.6-4.2c0.3-0.1,0.7-0.2,1.1,0
					c0.3,0.1,0.4,0.3,0.1,0.5l-7.6,4.2C52.1,315.5,51.9,315.5,51.7,315.5z"/>
				<path fill="#46547F" d="M74,315.5c-0.2,0-0.3,0-0.5-0.1c-0.3-0.1-0.4-0.3-0.1-0.5l7.6-4.2c0.3-0.1,0.7-0.2,1.1,0
					c0.3,0.1,0.4,0.3,0.1,0.5l-7.6,4.2C74.4,315.5,74.2,315.5,74,315.5z"/>
				<path fill="#46547F" d="M96.4,315.5c-0.2,0-0.3,0-0.5-0.1c-0.3-0.1-0.4-0.3-0.1-0.5l7.6-4.2c0.3-0.1,0.7-0.2,1.1,0
					c0.3,0.1,0.4,0.3,0.1,0.5l-7.6,4.2C96.8,315.5,96.6,315.5,96.4,315.5z"/>
				<path fill="#46547F" d="M118.7,315.5c-0.2,0-0.3,0-0.5-0.1c-0.3-0.1-0.4-0.3-0.1-0.5l7.6-4.2c0.3-0.1,0.7-0.2,1.1,0
					c0.3,0.1,0.4,0.3,0.1,0.5l-7.6,4.2C119.1,315.5,118.9,315.5,118.7,315.5z"/>
				<path fill="#46547F" d="M141.1,315.5c-0.2,0-0.3,0-0.5-0.1c-0.3-0.1-0.4-0.3-0.1-0.5l7.6-4.2c0.3-0.1,0.7-0.2,1.1,0
					c0.3,0.1,0.4,0.3,0.1,0.5l-7.6,4.2C141.5,315.5,141.3,315.5,141.1,315.5z"/>
				<path fill="#46547F" d="M163.4,315.5c-0.2,0-0.3,0-0.5-0.1c-0.3-0.1-0.4-0.3-0.1-0.5l7.6-4.2c0.3-0.1,0.7-0.2,1.1,0
					c0.3,0.1,0.4,0.3,0.1,0.5l-7.6,4.2C163.8,315.5,163.6,315.5,163.4,315.5z"/>
				<path fill="#46547F" d="M185.8,315.5c-0.2,0-0.3,0-0.5-0.1c-0.3-0.1-0.4-0.3-0.1-0.5l7.6-4.2c0.3-0.1,0.7-0.2,1.1,0
					c0.3,0.1,0.4,0.3,0.1,0.5l-7.6,4.2C186.2,315.5,186,315.5,185.8,315.5z"/>
				<path fill="#46547F" d="M208.1,315.5c-0.2,0-0.3,0-0.5-0.1c-0.3-0.1-0.4-0.3-0.1-0.5l7.6-4.2c0.3-0.1,0.7-0.2,1.1,0
					c0.3,0.1,0.4,0.3,0.1,0.5l-7.6,4.2C208.6,315.5,208.3,315.5,208.1,315.5z"/>
				<path fill="#46547F" d="M230.5,315.5c-0.2,0-0.3,0-0.5-0.1c-0.3-0.1-0.4-0.3-0.1-0.5l7.6-4.2c0.3-0.1,0.7-0.2,1.1,0
					c0.3,0.1,0.4,0.3,0.1,0.5l-7.6,4.2C230.9,315.5,230.7,315.5,230.5,315.5z"/>
				<path fill="#46547F" d="M252.8,315.5c-0.2,0-0.3,0-0.5-0.1c-0.3-0.1-0.4-0.3-0.1-0.5l7.6-4.2c0.3-0.1,0.7-0.2,1.1,0
					c0.3,0.1,0.4,0.3,0.1,0.5l-7.6,4.2C253.3,315.5,253,315.5,252.8,315.5z"/>
				<path fill="#46547F" d="M275.2,315.5c-0.2,0-0.3,0-0.5-0.1c-0.3-0.1-0.4-0.3-0.1-0.5l7.6-4.2c0.3-0.1,0.7-0.2,1.1,0
					c0.3,0.1,0.4,0.3,0.1,0.5l-7.6,4.2C275.6,315.5,275.4,315.5,275.2,315.5z"/>
				<path fill="#46547F" d="M297.5,315.5c-0.2,0-0.3,0-0.5-0.1c-0.3-0.1-0.4-0.3-0.1-0.5l7.6-4.2c0.3-0.1,0.7-0.2,1.1,0
					c0.3,0.1,0.4,0.3,0.1,0.5l-7.6,4.2C298,315.5,297.7,315.5,297.5,315.5z"/>
				<path fill="#46547F" d="M319.9,315.5c-0.2,0-0.3,0-0.5-0.1c-0.3-0.1-0.4-0.3-0.1-0.5l7.6-4.2c0.3-0.1,0.7-0.2,1.1,0
					c0.3,0.1,0.4,0.3,0.1,0.5l-7.6,4.2C320.3,315.5,320.1,315.5,319.9,315.5z"/>
				<path fill="#46547F" d="M342.2,315.5c-0.2,0-0.3,0-0.5-0.1c-0.3-0.1-0.4-0.3-0.1-0.5l7.6-4.2c0.3-0.1,0.7-0.2,1.1,0
					c0.3,0.1,0.4,0.3,0.1,0.5l-7.6,4.2C342.7,315.5,342.4,315.5,342.2,315.5z"/>
				<path fill="#46547F" d="M364.6,315.5c-0.2,0-0.3,0-0.5-0.1c-0.3-0.1-0.4-0.3-0.1-0.5l7.6-4.2c0.3-0.1,0.7-0.2,1.1,0
					c0.3,0.1,0.4,0.3,0.1,0.5l-7.6,4.2C365,315.5,364.8,315.5,364.6,315.5z"/>
				<path fill="#46547F" d="M386.9,315.5c-0.2,0-0.3,0-0.5-0.1c-0.3-0.1-0.4-0.3-0.1-0.5l7.6-4.2c0.3-0.1,0.7-0.2,1.1,0
					c0.3,0.1,0.4,0.3,0.1,0.5l-7.6,4.2C387.4,315.5,387.2,315.5,386.9,315.5z"/>
				<path fill="#46547F" d="M409.3,315.5c-0.2,0-0.3,0-0.5-0.1c-0.3-0.1-0.4-0.3-0.1-0.5l7.6-4.2c0.3-0.1,0.7-0.2,1.1,0
					c0.3,0.1,0.4,0.3,0.1,0.5l-7.6,4.2C409.7,315.5,409.5,315.5,409.3,315.5z"/>
				<path fill="#46547F" d="M431.6,315.5c-0.2,0-0.3,0-0.5-0.1c-0.3-0.1-0.4-0.3-0.1-0.5l7.6-4.2c0.3-0.1,0.7-0.2,1.1,0
					c0.3,0.1,0.4,0.3,0.1,0.5l-7.6,4.2C432.1,315.5,431.9,315.5,431.6,315.5z"/>
				<path fill="#46547F" d="M454,315.5c-0.2,0-0.3,0-0.5-0.1c-0.3-0.1-0.4-0.3-0.1-0.5l7.6-4.2c0.3-0.1,0.7-0.2,1.1,0
					c0.3,0.1,0.4,0.3,0.1,0.5l-7.6,4.2C454.4,315.5,454.2,315.5,454,315.5z"/>
				<path fill="#46547F" d="M476.3,315.5c-0.2,0-0.3,0-0.5-0.1c-0.3-0.1-0.4-0.3-0.1-0.5l7.6-4.2c0.3-0.1,0.7-0.2,1.1,0
					c0.3,0.1,0.4,0.3,0.1,0.5l-7.6,4.2C476.8,315.5,476.6,315.5,476.3,315.5z"/>
				<path fill="#46547F" d="M498.7,315.5c-0.2,0-0.3,0-0.5-0.1c-0.3-0.1-0.4-0.3-0.1-0.5l7.6-4.2c0.3-0.1,0.7-0.2,1.1,0
					c0.3,0.1,0.4,0.3,0.1,0.5l-7.6,4.2C499.1,315.5,498.9,315.5,498.7,315.5z"/>
				<path fill="#46547F" d="M521,315.5c-0.2,0-0.3,0-0.5-0.1c-0.3-0.1-0.4-0.3-0.1-0.5l7.6-4.2c0.3-0.1,0.7-0.2,1.1,0
					c0.3,0.1,0.4,0.3,0.1,0.5l-7.6,4.2C521.5,315.5,521.3,315.5,521,315.5z"/>
				<path fill="#46547F" d="M543.4,315.5c-0.2,0-0.3,0-0.5-0.1c-0.3-0.1-0.4-0.3-0.1-0.5l7.6-4.2c0.3-0.1,0.7-0.2,1.1,0
					c0.3,0.1,0.4,0.3,0.1,0.5l-7.6,4.2C543.8,315.5,543.6,315.5,543.4,315.5z"/>
				<path fill="#46547F" d="M565.7,315.5c-0.2,0-0.3,0-0.5-0.1c-0.3-0.1-0.4-0.3-0.1-0.5l7.6-4.2c0.3-0.1,0.7-0.2,1.1,0
					c0.3,0.1,0.4,0.3,0.1,0.5l-7.6,4.2C566.2,315.5,566,315.5,565.7,315.5z"/>
				<path fill="#46547F" d="M588.1,315.5c-0.2,0-0.3,0-0.5-0.1c-0.3-0.1-0.4-0.3-0.1-0.5l7.6-4.2c0.3-0.1,0.7-0.2,1.1,0
					c0.3,0.1,0.4,0.3,0.1,0.5l-7.6,4.2C588.5,315.5,588.3,315.5,588.1,315.5z"/>
				<path fill="#46547F" d="M614.8,312.2l-5,2.7c-0.3,0.1-0.2,0.4,0.1,0.5c0.1,0.1,0.3,0.1,0.5,0.1c0.2,0,0.4,0,0.6-0.1l3.8-2.1
					V312.2z"/>
			</g>
		</g>
		<g opacity="0.51">
			<g>
				<path fill="#46547F" d="M606,309.8c-0.2,0-0.4,0-0.6-0.1l-7.6-4.2c-0.3-0.1-0.2-0.4,0.1-0.5c0.3-0.1,0.8-0.1,1.1,0l7.6,4.2
					c0.3,0.1,0.2,0.4-0.1,0.5C606.3,309.8,606.2,309.8,606,309.8z"/>
				<path fill="#46547F" d="M583.7,309.8c-0.2,0-0.4,0-0.6-0.1l-7.6-4.2c-0.3-0.1-0.2-0.4,0.1-0.5c0.3-0.1,0.8-0.1,1.1,0l7.6,4.2
					c0.3,0.1,0.2,0.4-0.1,0.5C584,309.8,583.8,309.8,583.7,309.8z"/>
				<path fill="#46547F" d="M561.3,309.8c-0.2,0-0.4,0-0.6-0.1l-7.6-4.2c-0.3-0.1-0.2-0.4,0.1-0.5c0.3-0.1,0.8-0.1,1.1,0l7.6,4.2
					c0.3,0.1,0.2,0.4-0.1,0.5C561.6,309.8,561.5,309.8,561.3,309.8z"/>
				<path fill="#46547F" d="M539,309.8c-0.2,0-0.4,0-0.6-0.1l-7.6-4.2c-0.3-0.1-0.2-0.4,0.1-0.5c0.3-0.1,0.8-0.1,1.1,0l7.6,4.2
					c0.3,0.1,0.2,0.4-0.1,0.5C539.3,309.8,539.1,309.8,539,309.8z"/>
				<path fill="#46547F" d="M516.6,309.8c-0.2,0-0.4,0-0.6-0.1l-7.6-4.2c-0.3-0.1-0.2-0.4,0.1-0.5c0.3-0.1,0.8-0.1,1.1,0l7.6,4.2
					c0.3,0.1,0.2,0.4-0.1,0.5C516.9,309.8,516.8,309.8,516.6,309.8z"/>
				<path fill="#46547F" d="M494.3,309.8c-0.2,0-0.4,0-0.6-0.1l-7.6-4.2c-0.3-0.1-0.2-0.4,0.1-0.5c0.3-0.1,0.8-0.1,1.1,0l7.6,4.2
					c0.3,0.1,0.2,0.4-0.1,0.5C494.6,309.8,494.4,309.8,494.3,309.8z"/>
				<path fill="#46547F" d="M471.9,309.8c-0.2,0-0.4,0-0.6-0.1l-7.6-4.2c-0.3-0.1-0.2-0.4,0.1-0.5c0.3-0.1,0.8-0.1,1.1,0l7.6,4.2
					c0.3,0.1,0.2,0.4-0.1,0.5C472.2,309.8,472.1,309.8,471.9,309.8z"/>
				<path fill="#46547F" d="M449.5,309.8c-0.2,0-0.4,0-0.6-0.1l-7.6-4.2c-0.3-0.1-0.2-0.4,0.1-0.5c0.3-0.1,0.8-0.1,1.1,0l7.6,4.2
					c0.3,0.1,0.2,0.4-0.1,0.5C449.9,309.8,449.7,309.8,449.5,309.8z"/>
				<path fill="#46547F" d="M427.2,309.8c-0.2,0-0.4,0-0.6-0.1l-7.6-4.2c-0.3-0.1-0.2-0.4,0.1-0.5c0.3-0.1,0.8-0.1,1.1,0l7.6,4.2
					c0.3,0.1,0.2,0.4-0.1,0.5C427.5,309.8,427.4,309.8,427.2,309.8z"/>
				<path fill="#46547F" d="M404.8,309.8c-0.2,0-0.4,0-0.6-0.1l-7.6-4.2c-0.3-0.1-0.2-0.4,0.1-0.5c0.3-0.1,0.8-0.1,1.1,0l7.6,4.2
					c0.3,0.1,0.2,0.4-0.1,0.5C405.2,309.8,405,309.8,404.8,309.8z"/>
				<path fill="#46547F" d="M382.5,309.8c-0.2,0-0.4,0-0.6-0.1l-7.6-4.2c-0.3-0.1-0.2-0.4,0.1-0.5c0.3-0.1,0.8-0.1,1.1,0l7.6,4.2
					c0.3,0.1,0.2,0.4-0.1,0.5C382.8,309.8,382.7,309.8,382.5,309.8z"/>
				<path fill="#46547F" d="M360.1,309.8c-0.2,0-0.4,0-0.6-0.1l-7.6-4.2c-0.3-0.1-0.2-0.4,0.1-0.5c0.3-0.1,0.8-0.1,1.1,0l7.6,4.2
					c0.3,0.1,0.2,0.4-0.1,0.5C360.5,309.8,360.3,309.8,360.1,309.8z"/>
				<path fill="#46547F" d="M337.8,309.8c-0.2,0-0.4,0-0.6-0.1l-7.6-4.2c-0.3-0.1-0.2-0.4,0.1-0.5c0.3-0.1,0.8-0.1,1.1,0l7.6,4.2
					c0.3,0.1,0.2,0.4-0.1,0.5C338.1,309.8,338,309.8,337.8,309.8z"/>
				<path fill="#46547F" d="M315.4,309.8c-0.2,0-0.4,0-0.6-0.1l-7.6-4.2c-0.3-0.1-0.2-0.4,0.1-0.5c0.3-0.1,0.8-0.1,1.1,0l7.6,4.2
					c0.3,0.1,0.2,0.4-0.1,0.5C315.8,309.8,315.6,309.8,315.4,309.8z"/>
				<path fill="#46547F" d="M293.1,309.8c-0.2,0-0.4,0-0.6-0.1l-7.6-4.2c-0.3-0.1-0.2-0.4,0.1-0.5c0.3-0.1,0.8-0.1,1.1,0l7.6,4.2
					c0.3,0.1,0.2,0.4-0.1,0.5C293.4,309.8,293.3,309.8,293.1,309.8z"/>
				<path fill="#46547F" d="M270.7,309.8c-0.2,0-0.4,0-0.6-0.1l-7.6-4.2c-0.3-0.1-0.2-0.4,0.1-0.5c0.3-0.1,0.8-0.1,1.1,0l7.6,4.2
					c0.3,0.1,0.2,0.4-0.1,0.5C271.1,309.8,270.9,309.8,270.7,309.8z"/>
				<path fill="#46547F" d="M248.4,309.8c-0.2,0-0.4,0-0.6-0.1l-7.6-4.2c-0.3-0.1-0.2-0.4,0.1-0.5c0.3-0.1,0.8-0.1,1.1,0l7.6,4.2
					c0.3,0.1,0.2,0.4-0.1,0.5C248.7,309.8,248.6,309.8,248.4,309.8z"/>
				<path fill="#46547F" d="M226,309.8c-0.2,0-0.4,0-0.6-0.1l-7.6-4.2c-0.3-0.1-0.2-0.4,0.1-0.5c0.3-0.1,0.8-0.1,1.1,0l7.6,4.2
					c0.3,0.1,0.2,0.4-0.1,0.5C226.4,309.8,226.2,309.8,226,309.8z"/>
				<path fill="#46547F" d="M203.7,309.8c-0.2,0-0.4,0-0.6-0.1l-7.6-4.2c-0.3-0.1-0.2-0.4,0.1-0.5c0.3-0.1,0.8-0.1,1.1,0l7.6,4.2
					c0.3,0.1,0.2,0.4-0.1,0.5C204,309.8,203.8,309.8,203.7,309.8z"/>
				<path fill="#46547F" d="M181.3,309.8c-0.2,0-0.4,0-0.6-0.1l-7.6-4.2c-0.3-0.1-0.2-0.4,0.1-0.5c0.3-0.1,0.8-0.1,1.1,0l7.6,4.2
					c0.3,0.1,0.2,0.4-0.1,0.5C181.7,309.8,181.5,309.8,181.3,309.8z"/>
				<path fill="#46547F" d="M159,309.8c-0.2,0-0.4,0-0.6-0.1l-7.6-4.2c-0.3-0.1-0.2-0.4,0.1-0.5c0.3-0.1,0.8-0.1,1.1,0l7.6,4.2
					c0.3,0.1,0.2,0.4-0.1,0.5C159.3,309.8,159.1,309.8,159,309.8z"/>
				<path fill="#46547F" d="M136.6,309.8c-0.2,0-0.4,0-0.6-0.1l-7.6-4.2c-0.3-0.1-0.2-0.4,0.1-0.5c0.3-0.1,0.8-0.1,1.1,0l7.6,4.2
					c0.3,0.1,0.2,0.4-0.1,0.5C137,309.8,136.8,309.8,136.6,309.8z"/>
				<path fill="#46547F" d="M114.3,309.8c-0.2,0-0.4,0-0.6-0.1l-7.6-4.2c-0.3-0.1-0.2-0.4,0.1-0.5c0.3-0.1,0.8-0.1,1.1,0l7.6,4.2
					c0.3,0.1,0.2,0.4-0.1,0.5C114.6,309.8,114.4,309.8,114.3,309.8z"/>
				<path fill="#46547F" d="M91.9,309.8c-0.2,0-0.4,0-0.6-0.1l-7.6-4.2c-0.3-0.1-0.2-0.4,0.1-0.5c0.3-0.1,0.8-0.1,1.1,0l7.6,4.2
					c0.3,0.1,0.2,0.4-0.1,0.5C92.3,309.8,92.1,309.8,91.9,309.8z"/>
				<path fill="#46547F" d="M69.6,309.8c-0.2,0-0.4,0-0.6-0.1l-7.6-4.2c-0.3-0.1-0.2-0.4,0.1-0.5c0.3-0.1,0.8-0.1,1.1,0l7.6,4.2
					c0.3,0.1,0.2,0.4-0.1,0.5C69.9,309.8,69.7,309.8,69.6,309.8z"/>
				<path fill="#46547F" d="M47.2,309.8c-0.2,0-0.4,0-0.6-0.1l-7.6-4.2c-0.3-0.1-0.2-0.4,0.1-0.5c0.3-0.1,0.8-0.1,1.1,0l7.6,4.2
					c0.3,0.1,0.2,0.4-0.1,0.5C47.6,309.8,47.4,309.8,47.2,309.8z"/>
				<path fill="#46547F" d="M24.9,309.8c-0.2,0-0.4,0-0.6-0.1l-7.6-4.2c-0.3-0.1-0.2-0.4,0.1-0.5c0.3-0.1,0.8-0.1,1.1,0l7.6,4.2
					c0.3,0.1,0.2,0.4-0.1,0.5C25.2,309.8,25,309.8,24.9,309.8z"/>
				<path fill="#46547F" d="M3.1,309.2l-3.3-1.8v1.1l2.1,1.2c0.1,0.1,0.4,0.1,0.6,0.1c0.2,0,0.3,0,0.5-0.1
					C3.3,309.6,3.4,309.4,3.1,309.2z"/>
			</g>
		</g>
	</g>
	<defs>
		<filter id="Adobe_OpacityMaskFilter" filterUnits="userSpaceOnUse" x="-204.7" y="-162.4" width="1024" height="646">
			<feFlood  style="flood-color:white;flood-opacity:1" result="back"/>
			<feBlend  in="SourceGraphic" in2="back" mode="normal"/>
		</filter>
	</defs>
	<mask maskUnits="userSpaceOnUse" x="-204.7" y="-162.4" width="1024" height="646" id="SVGID_1_">
		<g filter="url(#Adobe_OpacityMaskFilter)">
			<defs>
				
					<filter id="Adobe_OpacityMaskFilter_00000143616896544674568860000011391356602384119474_" filterUnits="userSpaceOnUse" x="-806" y="-210.3" width="2332.3" height="708.2">
					<feFlood  style="flood-color:white;flood-opacity:1" result="back"/>
					<feBlend  in="SourceGraphic" in2="back" mode="normal"/>
				</filter>
			</defs>
			<mask maskUnits="userSpaceOnUse" x="-806" y="-210.3" width="2332.3" height="708.2" id="SVGID_1_">
				<g filter="url(#Adobe_OpacityMaskFilter_00000143616896544674568860000011391356602384119474_)">
				</g>
			</mask>
			
				<linearGradient id="SVGID_00000178195058239803483270000016965782789846767033_" gradientUnits="userSpaceOnUse" x1="-3807.3425" y1="-2680.8586" x2="-3807.3425" y2="-1972.6514" gradientTransform="matrix(-1 0 0 1 -3447.238 2470.5884)">
				<stop  offset="0.3568" style="stop-color:#FFFFFF"/>
				<stop  offset="1" style="stop-color:#000000"/>
			</linearGradient>
			
				<rect x="-806" y="-210.3" mask="url(#SVGID_1_)" fill="url(#SVGID_00000178195058239803483270000016965782789846767033_)" width="2332.3" height="708.2"/>
		</g>
	</mask>
	<g opacity="0.45">
		
			<linearGradient id="SVGID_00000097467918080754894200000001558391420897852550_" gradientUnits="userSpaceOnUse" x1="-3754.5764" y1="-2680.8586" x2="-3754.5764" y2="-1972.6489" gradientTransform="matrix(-1 0 0 1 -3447.238 2470.5884)">
			<stop  offset="0.3568" style="stop-color:#FF610D"/>
			<stop  offset="1" style="stop-color:#691823"/>
		</linearGradient>
		<rect x="-204.7" y="-162.4" fill="url(#SVGID_00000097467918080754894200000001558391420897852550_)" width="1024" height="646"/>
	</g>
	<g>
		<path fill="#4D4E6E" d="M403.7,142.7H394c-0.9,0-1.6-0.8-1.6-1.9c0-1,0.7-1.9,1.6-1.9h9.7c0.9,0,1.6,0.8,1.6,1.9
			C405.3,141.9,404.6,142.7,403.7,142.7z"/>
		<g>
			<path fill="#FFEB9C" d="M400.6,146.5h-61.2c-1.2,0-2.2,1.1-2.2,2.5v2.4c0,1.4,1,2.5,2.2,2.5h61.2c1.2,0,2.2-1.1,2.2-2.5V149
				C402.8,147.6,401.8,146.5,400.6,146.5z"/>
			<rect x="398.3" y="142.7" fill="#242542" width="2.1" height="3.8"/>
		</g>
	</g>
	<g>
		<path fill="#4D4E6E" d="M221.4,142.8h9.7c0.9,0,1.6-0.8,1.6-1.9c0-1-0.7-1.9-1.6-1.9h-9.7c-0.9,0-1.6,0.8-1.6,1.9
			C219.7,141.9,220.5,142.8,221.4,142.8z"/>
		<g>
			<path fill="#FFEB9C" d="M224.5,146.5h61.2c1.2,0,2.2,1.1,2.2,2.5v2.4c0,1.4-1,2.5-2.2,2.5h-61.2c-1.2,0-2.2-1.1-2.2-2.5v-2.4
				C222.3,147.7,223.3,146.5,224.5,146.5z"/>
			
				<rect x="224.7" y="142.8" transform="matrix(-1 -1.224647e-16 1.224647e-16 -1 451.4257 289.3144)" fill="#242542" width="2.1" height="3.8"/>
		</g>
	</g>
	<rect x="291.8" y="146.4" fill="#FFEB9C" width="41.4" height="171.9"/>
	<path fill="#FFC973" d="M275.9,141.3c0.3,7.3,5.5,13.2,11.9,13.2h49.6c6.3,0,11.5-5.9,11.9-13.2H275.9z"/>
	<path fill="#F99943" d="M320.4,303.6h-16.9V175.9c0-2.9,2.4-5.3,5.3-5.3h6.3c2.9,0,5.3,2.4,5.3,5.3V303.6z"/>
	<rect x="308.9" y="170.5" fill="#000543" width="6.1" height="66"/>
	<path fill="#262F6D" d="M318.1,303.6h-12v-71.9c0-1.8,1.5-3.3,3.3-3.3h5.3c1.8,0,3.3,1.5,3.3,3.3V303.6z"/>
	<g>
		<path fill="#D3442D" d="M415.9,303.7h-54.7v-92.9h55.2c1.1,0,2,1.1,2,2.4v87.5C418.5,302.4,417.3,303.7,415.9,303.7z"/>
		<path fill="#EA5C3C" d="M397.3,303.7h-52.8c-1.2,0-2.2-1.2-2.2-2.6v-87.6c0-1.4,1-2.6,2.2-2.6h52.8c1.2,0,2.2,1.2,2.2,2.6v87.6
			C399.5,302.6,398.5,303.7,397.3,303.7z"/>
		<path fill="#262F6D" d="M347.2,303.7C347.2,303.8,347.2,303.8,347.2,303.7c0,3.8,2,6.9,4.5,6.9c2.5,0,4.5-3,4.5-6.8c0,0,0,0,0-0.1
			H347.2z"/>
		<path fill="#262F6D" d="M366.1,303.7C366.1,303.8,366.1,303.8,366.1,303.7c0,3.8,2,6.9,4.5,6.9c2.5,0,4.5-3,4.5-6.8c0,0,0,0,0-0.1
			H366.1z"/>
		<path fill="#262F6D" d="M388.9,303.7C388.9,303.8,388.9,303.8,388.9,303.7c0,3.8,2,6.9,4.5,6.9c2.5,0,4.5-3,4.5-6.8c0,0,0,0,0-0.1
			H388.9z"/>
		<path fill="#262F6D" d="M406.7,303.7C406.7,303.8,406.7,303.8,406.7,303.7c0,3.8,2,6.9,4.5,6.9c2.5,0,4.5-3,4.5-6.8c0,0,0,0,0-0.1
			H406.7z"/>
		<g>
			<rect x="342.4" y="220.3" fill="#D3442D" width="63.5" height="1.2"/>
			<rect x="342.4" y="230.6" fill="#D3442D" width="63.5" height="1.2"/>
			<rect x="342.3" y="240.9" fill="#D3442D" width="63.5" height="1.2"/>
			<rect x="342.3" y="251.2" fill="#D3442D" width="63.5" height="1.2"/>
			<rect x="342.2" y="261.4" fill="#D3442D" width="63.5" height="1.2"/>
			<rect x="342.2" y="271.7" fill="#D3442D" width="63.5" height="1.2"/>
			<rect x="342.1" y="282" fill="#D3442D" width="63.5" height="1.2"/>
			<rect x="342.1" y="292.3" fill="#D3442D" width="63.5" height="1.2"/>
		</g>
	</g>
	<g>
		<g>
			<path fill="#FFEB9C" d="M450.7,289.9h-23.3c-0.7,0-1.3-0.6-1.3-1.3v-37.5c0-0.7,0.6-1.3,1.3-1.3h23.3c0.7,0,1.3,0.6,1.3,1.3v37.5
				C452,289.3,451.4,289.9,450.7,289.9z"/>
			<path fill="#FFC973" d="M450.8,288.4c-0.2,0-0.3-0.1-0.4-0.2l-22.7-35.8c-0.2-0.3-0.1-0.6,0.1-0.8c0.2-0.2,0.5-0.1,0.7,0.1
				l22.7,35.8c0.2,0.3,0.1,0.6-0.1,0.8C451,288.3,450.9,288.4,450.8,288.4z"/>
			<path fill="#FFC973" d="M428.1,288.4c-0.1,0-0.2,0-0.3-0.1c-0.2-0.2-0.3-0.6-0.1-0.8l22.7-35.8c0.2-0.3,0.5-0.3,0.7-0.1
				c0.2,0.2,0.3,0.6,0.1,0.8l-22.7,35.8C428.4,288.3,428.2,288.4,428.1,288.4z"/>
		</g>
		<rect x="428.1" y="248.5" fill="#6C6E8C" width="4.1" height="1.3"/>
	</g>
	<g>
		<ellipse fill="#242542" cx="482.8" cy="259.1" rx="26.5" ry="31.1"/>
		<ellipse fill="#9897B6" cx="482.8" cy="259.1" rx="20.5" ry="24"/>
		<g>
			<path fill="#242542" d="M482.4,254.4c0,0.4,0.3,0.7,0.6,0.7c0.3,0,0.6-0.3,0.6-0.7c0-0.4-0.3-0.7-0.6-0.7
				C482.7,253.7,482.4,254,482.4,254.4z"/>
			<path fill="#242542" d="M484.5,254.8c-0.2,0.3-0.1,0.8,0.2,1c0.3,0.2,0.6,0.1,0.8-0.3c0.2-0.3,0.1-0.8-0.2-1
				C485,254.4,484.6,254.5,484.5,254.8z"/>
			<path fill="#242542" d="M486.1,256.4c-0.3,0.2-0.4,0.6-0.2,1c0.2,0.3,0.5,0.4,0.8,0.3c0.3-0.2,0.4-0.6,0.2-0.9
				C486.7,256.3,486.4,256.2,486.1,256.4z"/>
			<path fill="#242542" d="M486.8,258.7c-0.3,0-0.6,0.3-0.6,0.7c0,0.4,0.3,0.7,0.6,0.7c0.3,0,0.6-0.3,0.6-0.7
				C487.4,259,487.1,258.7,486.8,258.7z"/>
			<path fill="#242542" d="M486.5,261.2c-0.3-0.2-0.6-0.1-0.8,0.3c-0.2,0.3-0.1,0.8,0.2,0.9c0.3,0.2,0.6,0.1,0.8-0.3
				C486.9,261.8,486.8,261.4,486.5,261.2z"/>
			<path fill="#242542" d="M485.2,263.1c-0.2-0.3-0.5-0.4-0.8-0.2c-0.3,0.2-0.4,0.6-0.2,1c0.2,0.3,0.5,0.4,0.8,0.2
				C485.2,263.8,485.3,263.4,485.2,263.1z"/>
			<path fill="#242542" d="M483.2,264c0-0.4-0.3-0.7-0.6-0.7c-0.3,0-0.6,0.3-0.6,0.7c0,0.4,0.3,0.7,0.6,0.7
				C483,264.7,483.2,264.4,483.2,264z"/>
			<path fill="#242542" d="M481.2,263.6c0.2-0.3,0.1-0.8-0.2-0.9c-0.3-0.2-0.6-0.1-0.8,0.3c-0.2,0.3-0.1,0.8,0.2,0.9
				C480.6,264,481,263.9,481.2,263.6z"/>
			<path fill="#242542" d="M479.6,262c0.3-0.2,0.4-0.6,0.2-1c-0.2-0.3-0.5-0.4-0.8-0.3c-0.3,0.2-0.4,0.6-0.2,1
				C478.9,262.1,479.3,262.2,479.6,262z"/>
			<path fill="#242542" d="M478.8,259.7c0.3,0,0.6-0.3,0.6-0.7c0-0.4-0.3-0.7-0.6-0.7c-0.3,0-0.6,0.3-0.6,0.7
				C478.2,259.4,478.5,259.7,478.8,259.7z"/>
			<path fill="#242542" d="M479.1,257.2c0.3,0.2,0.6,0.1,0.8-0.3c0.2-0.3,0.1-0.8-0.2-0.9c-0.3-0.2-0.6-0.1-0.8,0.3
				C478.8,256.6,478.9,257,479.1,257.2z"/>
			<path fill="#242542" d="M480.5,255.3c0.2,0.3,0.5,0.4,0.8,0.2c0.3-0.2,0.4-0.6,0.2-1c-0.2-0.3-0.5-0.4-0.8-0.3
				C480.4,254.5,480.3,255,480.5,255.3z"/>
		</g>
		<g>
			<path fill="#242542" d="M481.4,246.6v-5.1c0-1,0.7-1.8,1.6-1.8c0.9,0,1.6,0.8,1.6,1.8v5.2c-0.6-0.1-1.3-0.2-1.9-0.2
				C482.2,246.5,481.8,246.6,481.4,246.6z"/>
			<path fill="#242542" d="M473.9,244.7c-0.4-0.9-0.2-2,0.6-2.5c0.8-0.5,1.7-0.2,2.2,0.7l2.3,4.5c-1,0.4-1.9,1.1-2.8,1.8
				L473.9,244.7z"/>
			<path fill="#242542" d="M468.8,251.8c-0.8-0.5-1-1.6-0.6-2.5c0.4-0.9,1.4-1.2,2.2-0.7l4,2.6c-0.6,1-1.2,2-1.6,3.2L468.8,251.8z"
				/>
			<path fill="#242542" d="M467.5,257.1h4.7c-0.1,0.6-0.1,1.2-0.1,1.8c0,0.6,0.1,1.3,0.1,1.9h-4.8c-0.9,0-1.6-0.8-1.6-1.8
				C465.9,257.9,466.6,257.1,467.5,257.1z"/>
			<path fill="#242542" d="M470.3,269.3c-0.8,0.5-1.7,0.2-2.2-0.7c-0.4-0.9-0.2-2,0.6-2.5l4.2-2.8c0.4,1.2,0.9,2.2,1.6,3.2
				L470.3,269.3z"/>
			<path fill="#242542" d="M476.5,275.1c-0.4,0.9-1.4,1.2-2.2,0.7c-0.8-0.5-1-1.6-0.6-2.5l2.4-4.8c0.8,0.8,1.8,1.4,2.8,1.9
				L476.5,275.1z"/>
			<path fill="#242542" d="M484.3,271v5.6c0,1-0.7,1.8-1.6,1.8c-0.9,0-1.6-0.8-1.6-1.8V271c0.5,0.1,1,0.1,1.5,0.1
				C483.2,271.1,483.8,271.1,484.3,271z"/>
			<path fill="#242542" d="M491.8,273.4c0.4,0.9,0.2,2-0.6,2.5c-0.8,0.5-1.7,0.2-2.2-0.7l-2.5-4.9c1-0.5,1.9-1.1,2.7-1.9
				L491.8,273.4z"/>
			<path fill="#242542" d="M496.8,266.3c0.8,0.5,1,1.6,0.6,2.5c-0.4,0.9-1.4,1.2-2.2,0.7l-4.5-2.9c0.7-0.9,1.2-2,1.6-3.2
				L496.8,266.3z"/>
			<path fill="#242542" d="M493.1,257.4h5.1c0.9,0,1.6,0.8,1.6,1.8c0,1-0.7,1.8-1.6,1.8H493c0.1-0.7,0.2-1.4,0.2-2.2
				C493.1,258.3,493.1,257.8,493.1,257.4z"/>
			<path fill="#242542" d="M495.4,248.8c0.8-0.5,1.7-0.2,2.2,0.7c0.4,0.9,0.2,2-0.6,2.5l-4.4,2.9c-0.3-1.2-0.8-2.3-1.4-3.3
				L495.4,248.8z"/>
			<path fill="#242542" d="M489.2,243c0.4-0.9,1.4-1.2,2.2-0.7c0.8,0.5,1,1.6,0.6,2.5l-2.4,4.8c-0.8-0.8-1.7-1.5-2.7-2L489.2,243z"
				/>
		</g>
	</g>
	<path fill="#EA5C3C" d="M473.7,289.9h-11.6c-1.5,0-2.8-1.5-2.8-3.3v-26.9c0-1.8,1.3-3.3,2.8-3.3h11.6c1.5,0,2.8,1.5,2.8,3.3v26.9
		C476.5,288.5,475.3,289.9,473.7,289.9z"/>
	<g>
		<path fill="#FFC973" d="M193.9,295.9c-0.5,0-1-0.5-1-1.2v-69.8h-75.7v69.8c0,0.6-0.4,1.2-1,1.2c-0.5,0-1-0.5-1-1.2v-72.1h79.7
			v72.1C194.9,295.3,194.4,295.9,193.9,295.9z"/>
		<path fill="#6C6E8C" d="M179,233.6h-49.4c-1,0-1.9-0.8-1.9-1.9v-16.3c0-1,0.8-1.9,1.9-1.9H179c1,0,1.9,0.8,1.9,1.9v16.3
			C180.9,232.8,180.1,233.6,179,233.6z"/>
		<rect x="130.3" y="211.2" fill="#4D4E6E" width="47.6" height="2.4"/>
		<path fill="#4D4E6E" d="M138.5,233.7h-6.6c-0.1,0-0.1-0.1-0.1-0.1v-13.3c0-2.2,1.5-4,3.4-4c1.9,0,3.4,1.8,3.4,4v13.3
			C138.6,233.7,138.6,233.7,138.5,233.7z M132,233.4h6.4v-13.1c0-2.1-1.4-3.7-3.2-3.7c-1.8,0-3.2,1.7-3.2,3.7V233.4z"/>
		<path fill="#4D4E6E" d="M177,233.7h-6.6c-0.1,0-0.1-0.1-0.1-0.1v-13.3c0-2.2,1.5-4,3.4-4c1.9,0,3.4,1.8,3.4,4v13.3
			C177.1,233.7,177.1,233.7,177,233.7z M170.5,233.4h6.4v-13.1c0-2.1-1.4-3.7-3.2-3.7c-1.8,0-3.2,1.7-3.2,3.7V233.4z"/>
		<path fill="#4D4E6E" d="M167.6,233.7H161c-0.1,0-0.1-0.1-0.1-0.1v-13.3c0-2.2,1.5-4,3.4-4s3.4,1.8,3.4,4v13.3
			C167.8,233.7,167.7,233.7,167.6,233.7z M161.1,233.4h6.4v-13.1c0-2.1-1.4-3.7-3.2-3.7c-1.8,0-3.2,1.7-3.2,3.7V233.4z"/>
		<path fill="#4D4E6E" d="M158.3,233.7h-6.6c-0.1,0-0.1-0.1-0.1-0.1v-13.3c0-2.2,1.5-4,3.4-4s3.4,1.8,3.4,4v13.3
			C158.5,233.7,158.4,233.7,158.3,233.7z M151.8,233.4h6.4v-13.1c0-2.1-1.4-3.7-3.2-3.7s-3.2,1.7-3.2,3.7V233.4z"/>
		<path fill="#4D4E6E" d="M148.8,233.7h-6.6c-0.1,0-0.1-0.1-0.1-0.1v-13.3c0-2.2,1.5-4,3.4-4c1.9,0,3.4,1.8,3.4,4v13.3
			C149,233.7,148.9,233.7,148.8,233.7z M142.3,233.4h6.4v-13.1c0-2.1-1.4-3.7-3.2-3.7c-1.8,0-3.2,1.7-3.2,3.7V233.4z"/>
		<path fill="#FFC973" d="M122.5,296.8h-12c-0.5,0-1-0.5-1-1.2c0-0.6,0.4-1.2,1-1.2h12c0.5,0,1,0.5,1,1.2
			C123.5,296.3,123,296.8,122.5,296.8z"/>
		<path fill="#FFC973" d="M199.8,296.8h-12c-0.5,0-1-0.5-1-1.2c0-0.6,0.4-1.2,1-1.2h12c0.5,0,1,0.5,1,1.2
			C200.8,296.3,200.4,296.8,199.8,296.8z"/>
	</g>
	<g>
		<polygon fill="#FFEB9A" points="277.5,210.7 248.5,194.1 248.8,193.3 277.9,209.9 		"/>
		<path fill="#4D4E6E" d="M224.7,211.4h-6.8c-0.5,0-0.9-0.4-0.9-0.9v-2.7c0-0.5,0.4-0.9,0.9-0.9h6.8c0.5,0,0.9,0.4,0.9,0.9v2.7
			C225.6,211,225.2,211.4,224.7,211.4z"/>
		<path fill="#4D4E6E" d="M266.3,211.4h-6.8c-0.5,0-0.9-0.4-0.9-0.9v-2.7c0-0.5,0.4-0.9,0.9-0.9h6.8c0.5,0,0.9,0.4,0.9,0.9v2.7
			C267.1,211,266.7,211.4,266.3,211.4z"/>
		<path fill="#4D4E6E" d="M276.8,211.4H270c-0.5,0-0.9-0.4-0.9-0.9v-2.7c0-0.5,0.4-0.9,0.9-0.9h6.8c0.5,0,0.9,0.4,0.9,0.9v2.7
			C277.7,211,277.3,211.4,276.8,211.4z"/>
		<path fill="#4D4E6E" d="M235.4,211.4h-6.8c-0.5,0-0.9-0.4-0.9-0.9v-2.7c0-0.5,0.4-0.9,0.9-0.9h6.8c0.5,0,0.9,0.4,0.9,0.9v2.7
			C236.3,211,235.9,211.4,235.4,211.4z"/>
		<path fill="#4D4E6E" d="M245.7,211.4h-6.8c-0.5,0-0.9-0.4-0.9-0.9v-2.7c0-0.5,0.4-0.9,0.9-0.9h6.8c0.5,0,0.9,0.4,0.9,0.9v2.7
			C246.6,211,246.2,211.4,245.7,211.4z"/>
		<path fill="#4D4E6E" d="M256.2,211.4h-6.8c-0.5,0-0.9-0.4-0.9-0.9v-2.7c0-0.5,0.4-0.9,0.9-0.9h6.8c0.5,0,0.9,0.4,0.9,0.9v2.7
			C257.1,211,256.7,211.4,256.2,211.4z"/>
		<path fill="#4D4E6E" d="M287.7,238h-6.1V221h6.1c0.6,0,1.1,0.5,1.1,1.1v14.8C288.9,237.5,288.4,238,287.7,238z"/>
		<path fill="#4D4E6E" d="M188.4,268c-0.2,0-0.4-0.1-0.4-0.3l-8-17.7c-0.5-1.1-0.6-2.4-0.3-3.6l2.9-12.3c0.3-1.2,1-2.3,2-2.9
			l10.7-6.7c0.2-0.2,0.5,0,0.7,0.2c0.1,0.3,0,0.6-0.2,0.8l-10.7,6.7c-0.7,0.5-1.3,1.2-1.5,2.2l-2.9,12.3c-0.2,0.9-0.1,1.9,0.3,2.7
			l8,17.7c0.1,0.3,0,0.6-0.2,0.8C188.6,268,188.5,268,188.4,268z"/>
		<path fill="#4D4E6E" d="M178.1,323.9c-0.1,0-0.1,0-0.2,0c-0.5-0.1-0.9-0.8-0.8-1.4L201,195c0.1-0.5,0.5-0.9,1-0.9h48.2
			c0.5,0,1,0.5,1,1.2c0,0.6-0.4,1.2-1,1.2h-47.4l-23.7,126.5C179,323.5,178.6,323.9,178.1,323.9z"/>
		<g>
			<rect x="211.5" y="213.8" fill="#4D4E6E" width="72.1" height="3.8"/>
			<path fill="#46547F" d="M232.5,261.8h-26.3c-0.6,0-1.1-0.5-1.1-1.1v-41.9c0-0.6,0.5-1.1,1.1-1.1h26.3c0.6,0,1.1,0.5,1.1,1.1v41.9
				C233.6,261.3,233.1,261.8,232.5,261.8z"/>
			<path fill="#6C6E8C" d="M209.9,216.6v26.7c0,2.1,1.4,3.7,3,3.7h69.3c1.7,0,3-1.7,3-3.7v-26.7H209.9z"/>
			<path fill="#6C6E8C" d="M285.3,215.3v-2.1c0-2.1-1.4-3.7-3-3.7h-69.3c-1.7,0-3,1.7-3,3.7v2.1H285.3z"/>
			<g>
				<path fill="#46547F" d="M214.7,222.1h-5.3c-0.5,0-0.9-0.5-0.9-1.1s0.4-1.1,0.9-1.1h5.3c0.5,0,0.9,0.5,0.9,1.1
					S215.2,222.1,214.7,222.1z"/>
				<path fill="#46547F" d="M214.7,226.4h-5.3c-0.5,0-0.9-0.5-0.9-1.1c0-0.6,0.4-1.1,0.9-1.1h5.3c0.5,0,0.9,0.5,0.9,1.1
					C215.6,225.9,215.2,226.4,214.7,226.4z"/>
				<path fill="#46547F" d="M214.7,230.7h-5.3c-0.5,0-0.9-0.5-0.9-1.1s0.4-1.1,0.9-1.1h5.3c0.5,0,0.9,0.5,0.9,1.1
					S215.2,230.7,214.7,230.7z"/>
				<path fill="#46547F" d="M214.7,234.9h-5.3c-0.5,0-0.9-0.5-0.9-1.1c0-0.6,0.4-1.1,0.9-1.1h5.3c0.5,0,0.9,0.5,0.9,1.1
					C215.6,234.4,215.2,234.9,214.7,234.9z"/>
				<path fill="#46547F" d="M214.7,239.2h-5.3c-0.5,0-0.9-0.5-0.9-1.1c0-0.6,0.4-1.1,0.9-1.1h5.3c0.5,0,0.9,0.5,0.9,1.1
					C215.6,238.7,215.2,239.2,214.7,239.2z"/>
				<path fill="#46547F" d="M214.7,243.5h-5.3c-0.5,0-0.9-0.5-0.9-1.1c0-0.6,0.4-1.1,0.9-1.1h5.3c0.5,0,0.9,0.5,0.9,1.1
					C215.6,243,215.2,243.5,214.7,243.5z"/>
			</g>
		</g>
		<path fill="#FFEB9A" d="M221.6,247.4c-0.2,0-0.4-0.2-0.4-0.4v-37.4c0-0.2,0.1-0.3,0.2-0.4l27.1-15.8c0.2-0.1,0.4,0,0.5,0.2
			c0.1,0.2,0,0.5-0.2,0.6L222,209.8v37.1C222,247.2,221.8,247.4,221.6,247.4z"/>
		<path fill="#4D4E6E" d="M280.8,242.5h-29.1c-0.5,0-1-0.5-1-1.1v-19.5c0-0.6,0.4-1.1,1-1.1h29.1c0.5,0,1,0.5,1,1.1v19.5
			C281.8,242,281.4,242.5,280.8,242.5z M251.8,221c-0.4,0-0.7,0.4-0.7,0.8v19.5c0,0.5,0.3,0.8,0.7,0.8h29.1c0.4,0,0.7-0.4,0.7-0.8
			v-19.5c0-0.5-0.3-0.8-0.7-0.8H251.8z"/>
		<path fill="#4D4E6E" d="M253.9,225.4c-0.7,0-1.2-0.7-1.2-1.5c0-0.8,0.5-1.5,1.2-1.5c0.7,0,1.2,0.7,1.2,1.5
			C255.1,224.7,254.5,225.4,253.9,225.4z M253.9,222.8c-0.5,0-0.9,0.5-0.9,1.2c0,0.6,0.4,1.2,0.9,1.2c0.5,0,0.9-0.5,0.9-1.2
			C254.8,223.3,254.4,222.8,253.9,222.8z"/>
		<path fill="#4D4E6E" d="M267.4,241.3c-0.7,0-1.3-0.7-1.3-1.5c0-0.8,0.6-1.5,1.3-1.5c0.7,0,1.3,0.7,1.3,1.5
			C268.7,240.6,268.1,241.3,267.4,241.3z M267.4,238.5c-0.6,0-1,0.6-1,1.3c0,0.7,0.5,1.3,1,1.3s1-0.6,1-1.3
			C268.4,239.1,268,238.5,267.4,238.5z"/>
		<path fill="#4D4E6E" d="M279.1,225.5c-0.6,0-1.1-0.6-1.1-1.4c0-0.8,0.5-1.4,1.1-1.4s1.1,0.6,1.1,1.4
			C280.3,224.9,279.8,225.5,279.1,225.5z M279.1,223c-0.5,0-0.9,0.5-0.9,1.1c0,0.6,0.4,1.1,0.9,1.1c0.5,0,0.9-0.5,0.9-1.1
			C280,223.5,279.6,223,279.1,223z"/>
		<path fill="#4D4E6E" d="M220.2,336.4c-0.5,0-1-0.5-1-1.2v-9.6H142v8.1c0,0.6-0.4,1.2-1,1.2c-0.5,0-1-0.5-1-1.2v-9.2
			c0-0.6,0.4-1.2,1-1.2h79.2c0.5,0,1,0.5,1,1.2v10.8C221.2,335.9,220.7,336.4,220.2,336.4z"/>
		<path fill="#4D4E6E" d="M197.8,325.6c-0.4,0-0.8-0.3-0.9-0.8L185,281c-0.2-0.6,0.1-1.3,0.6-1.5c0.5-0.2,1.1,0.1,1.2,0.8l11.8,43.8
			c0.2,0.6-0.1,1.3-0.6,1.5C198,325.6,197.9,325.6,197.8,325.6z"/>
		<path fill="#242542" d="M146.4,331.9c0,3.5-2.4,6.3-5.4,6.3c-3,0-5.4-2.8-5.4-6.3c0-3.5,2.4-6.3,5.4-6.3
			C144,325.6,146.4,328.4,146.4,331.9z"/>
		<path fill="#242542" d="M225.6,331.9c0,3.5-2.4,6.3-5.4,6.3c-3,0-5.4-2.8-5.4-6.3c0-3.5,2.4-6.3,5.4-6.3
			C223.2,325.6,225.6,328.4,225.6,331.9z"/>
	</g>
	<path fill="#FFC973" d="M371.1,319h-119v-2.2c0-7.3,5.9-13.2,13.2-13.2h92.6c7.3,0,13.2,5.9,13.2,13.2V319z"/>
	<g>
		<g>
			<g>
				<path fill="#4D4E6E" d="M606.1,292.4c-1.1,0-2-1-2-2.3v-193c0-2.3-1.6-4.1-3.5-4.1h-91.9v197.1c0,1.3-0.9,2.3-2,2.3
					c-1.1,0-2-1-2-2.3V90.7c0-1.3,0.9-2.3,2-2.3h93.9c4.1,0,7.5,3.9,7.5,8.7v193C608.1,291.4,607.2,292.4,606.1,292.4z"/>
				<path fill="#4D4E6E" d="M606.1,136.7h-97.6c-1.1,0-2-1-2-2.3c0-1.3,0.9-2.3,2-2.3h97.6c1.1,0,2,1,2,2.3
					C608.1,135.7,607.2,136.7,606.1,136.7z"/>
				<path fill="#4D4E6E" d="M606.1,234.9h-97.9c-1.1,0-2-1-2-2.3c0-1.3,0.9-2.3,2-2.3h97.9c1.1,0,2,1,2,2.3
					C608.1,233.8,607.2,234.9,606.1,234.9z"/>
				<path fill="#4D4E6E" d="M604.3,185.4h-97.5c-1.1,0-2-1-2-2.3c0-1.3,0.9-2.3,2-2.3h97.5c1.1,0,2,1,2,2.3
					C606.2,184.3,605.4,185.4,604.3,185.4z"/>
			</g>
			<g>
				<g>
					<path fill="#6B72A2" d="M520.2,195.4h-0.3v2.3c0,0.5-0.4,0.9-0.8,0.9c-0.5,0-0.9-0.4-0.9-0.9v-2.3h-0.4l-0.9,1.6
						c-0.2,0.3-0.2,0.7,0,1.1l0.6,1.1c0.2,0.3,0.5,0.5,0.9,0.5h1.2c0.4,0,0.7-0.2,0.9-0.5l0.6-1.1c0.2-0.3,0.2-0.7,0-1.1
						L520.2,195.4z"/>
					<path fill="#6B72A2" d="M517.8,217.1h0.3v-2.3c0-0.5,0.4-0.9,0.8-0.9c0.5,0,0.9,0.4,0.9,0.9v2.3h0.4l0.9-1.6
						c0.2-0.3,0.2-0.7,0-1.1l-0.6-1.1c-0.2-0.3-0.5-0.5-0.9-0.5h-1.2c-0.4,0-0.7,0.2-0.9,0.5l-0.6,1.1c-0.2,0.3-0.2,0.7,0,1.1
						L517.8,217.1z"/>
					<path fill="#6B72A2" d="M518.2,199.1v14c0,0.5,0.4,0.9,0.8,0.9c0.5,0,0.8-0.4,0.8-0.9v-14H518.2z"/>
				</g>
				<g>
					<path fill="#6B72A2" d="M532.4,195.4H532v2.5c0,0.5-0.4,1-0.9,1c-0.5,0-0.9-0.4-0.9-1v-2.5h-0.5l-1,1.8c-0.2,0.4-0.2,0.8,0,1.2
						l0.7,1.2c0.2,0.4,0.6,0.6,1,0.6h1.3c0.4,0,0.8-0.2,1-0.6l0.7-1.2c0.2-0.4,0.2-0.8,0-1.2L532.4,195.4z"/>
					<path fill="#6B72A2" d="M529.7,219.1h0.4v-2.5c0-0.5,0.4-1,0.9-1c0.5,0,0.9,0.4,0.9,1v2.5h0.5l1-1.8c0.2-0.4,0.2-0.8,0-1.2
						l-0.7-1.2c-0.2-0.4-0.6-0.6-1-0.6h-1.3c-0.4,0-0.8,0.2-1,0.6l-0.7,1.2c-0.2,0.4-0.2,0.8,0,1.2L529.7,219.1z"/>
					<path fill="#6B72A2" d="M530.1,199.5v15.2c0,0.5,0.4,0.9,0.9,0.9c0.5,0,0.9-0.4,0.9-0.9v-15.2H530.1z"/>
				</g>
				<g>
					<path fill="#6B72A2" d="M544.6,195.4h-0.4v2.7c0,0.6-0.4,1-1,1c-0.6,0-1-0.5-1-1v-2.7h-0.5l-1.1,1.9c-0.2,0.4-0.2,0.9,0,1.3
						l0.7,1.3c0.2,0.4,0.6,0.6,1.1,0.6h1.5c0.4,0,0.9-0.2,1.1-0.6l0.7-1.3c0.2-0.4,0.2-0.9,0-1.3L544.6,195.4z"/>
					<path fill="#6B72A2" d="M541.7,221h0.4v-2.7c0-0.6,0.4-1,1-1c0.6,0,1,0.5,1,1v2.7h0.5l1.1-1.9c0.2-0.4,0.2-0.9,0-1.3l-0.7-1.3
						c-0.2-0.4-0.6-0.6-1.1-0.6h-1.5c-0.4,0-0.9,0.2-1.1,0.6l-0.7,1.3c-0.2,0.4-0.2,0.9,0,1.3L541.7,221z"/>
					<path fill="#6B72A2" d="M542.1,199.8v16.5c0,0.6,0.4,1,1,1c0.5,0,1-0.5,1-1v-16.5H542.1z"/>
				</g>
				<g>
					<path fill="#6B72A2" d="M556.7,195.4h-0.4v2.9c0,0.6-0.5,1.1-1.1,1.1c-0.6,0-1.1-0.5-1.1-1.1v-2.9h-0.5l-1.2,2.1
						c-0.2,0.4-0.2,0.9,0,1.4l0.8,1.4c0.2,0.4,0.7,0.7,1.2,0.7h1.6c0.5,0,0.9-0.3,1.2-0.7l0.8-1.4c0.2-0.4,0.2-0.9,0-1.4
						L556.7,195.4z"/>
					<path fill="#6B72A2" d="M553.6,223h0.4v-2.9c0-0.6,0.5-1.1,1.1-1.1c0.6,0,1.1,0.5,1.1,1.1v2.9h0.5l1.2-2.1
						c0.2-0.4,0.2-0.9,0-1.4l-0.8-1.4c-0.2-0.4-0.7-0.7-1.2-0.7h-1.6c-0.5,0-0.9,0.3-1.2,0.7l-0.8,1.4c-0.2,0.4-0.2,0.9,0,1.4
						L553.6,223z"/>
					<path fill="#6B72A2" d="M554.1,200.1v17.7c0,0.6,0.5,1.1,1.1,1.1s1.1-0.5,1.1-1.1v-17.7H554.1z"/>
				</g>
				<g>
					<path fill="#6B72A2" d="M568.9,195.4h-0.4v3.1c0,0.7-0.5,1.2-1.1,1.2c-0.6,0-1.2-0.5-1.2-1.2v-3.1h-0.6l-1.2,2.2
						c-0.3,0.5-0.3,1,0,1.5l0.8,1.5c0.3,0.5,0.7,0.7,1.2,0.7h1.7c0.5,0,1-0.3,1.2-0.7l0.8-1.5c0.3-0.5,0.3-1,0-1.5L568.9,195.4z"/>
					<path fill="#6B72A2" d="M565.6,224.9h0.4v-3.1c0-0.7,0.5-1.2,1.1-1.2c0.6,0,1.2,0.5,1.2,1.2v3.1h0.6l1.2-2.2
						c0.3-0.5,0.3-1,0-1.5l-0.8-1.5c-0.3-0.5-0.7-0.7-1.2-0.7h-1.7c-0.5,0-1,0.3-1.2,0.7l-0.8,1.5c-0.3,0.5-0.3,1,0,1.5L565.6,224.9
						z"/>
					<path fill="#6B72A2" d="M566.1,200.5v19c0,0.6,0.5,1.2,1.1,1.2s1.1-0.5,1.1-1.2v-19H566.1z"/>
				</g>
				<g>
					<path fill="#6B72A2" d="M581,195.4h-0.5v3.3c0,0.7-0.5,1.3-1.2,1.3c-0.7,0-1.2-0.6-1.2-1.3v-3.3h-0.6l-1.3,2.4
						c-0.3,0.5-0.3,1.1,0,1.6l0.9,1.6c0.3,0.5,0.8,0.8,1.3,0.8h1.8c0.5,0,1-0.3,1.3-0.8l0.9-1.6c0.3-0.5,0.3-1.1,0-1.6L581,195.4z"
						/>
					<path fill="#6B72A2" d="M577.5,226.8h0.5v-3.3c0-0.7,0.5-1.3,1.2-1.3c0.7,0,1.2,0.6,1.2,1.3v3.3h0.6l1.3-2.4
						c0.3-0.5,0.3-1.1,0-1.6l-0.9-1.6c-0.3-0.5-0.8-0.8-1.3-0.8h-1.8c-0.5,0-1,0.3-1.3,0.8l-0.9,1.6c-0.3,0.5-0.3,1.1,0,1.6
						L577.5,226.8z"/>
					<path fill="#6B72A2" d="M578.1,200.8V221c0,0.7,0.5,1.3,1.2,1.3s1.2-0.6,1.2-1.3v-20.2H578.1z"/>
				</g>
				<g>
					<path fill="#6B72A2" d="M593.2,195.4h-0.5v3.5c0,0.7-0.6,1.3-1.3,1.3c-0.7,0-1.3-0.6-1.3-1.3v-3.5h-0.6l-1.4,2.5
						c-0.3,0.5-0.3,1.1,0,1.7l0.9,1.7c0.3,0.5,0.8,0.8,1.4,0.8h1.9c0.6,0,1.1-0.3,1.4-0.8l0.9-1.7c0.3-0.5,0.3-1.1,0-1.7
						L593.2,195.4z"/>
					<path fill="#6B72A2" d="M589.5,228.8h0.5v-3.5c0-0.7,0.6-1.3,1.3-1.3c0.7,0,1.3,0.6,1.3,1.3v3.5h0.6l1.4-2.5
						c0.3-0.5,0.3-1.1,0-1.7l-0.9-1.7c-0.3-0.5-0.8-0.8-1.4-0.8h-1.9c-0.6,0-1.1,0.3-1.4,0.8l-0.9,1.7c-0.3,0.5-0.3,1.1,0,1.7
						L589.5,228.8z"/>
					<path fill="#6B72A2" d="M590,201.2v21.4c0,0.7,0.6,1.3,1.3,1.3s1.3-0.6,1.3-1.3v-21.4H590z"/>
				</g>
			</g>
			<polygon fill="#FFEB9C" points="597.9,230.4 596.9,230.4 596.9,207 514.6,207 514.6,230.1 513.7,230.1 513.7,205.8 597.9,205.8 
							"/>
			<g>
				<path fill="#FFC974" d="M556.2,230.3l-30.4-4.1c-0.6-0.1-1-0.7-0.9-1.3c0.1-0.7,0.6-1.1,1.2-1.1l30.4,4.1L556.2,230.3z"/>
				<path fill="#6B72A2" d="M525.4,229.8l1.2-12.2c0.1-0.5-0.4-0.9-0.9-0.7l-2.9,1.8c-0.2,0.1-0.3,0.3-0.3,0.5l-1,10
					c0,0.4,0.2,0.7,0.5,0.7l2.7,0.4C525.1,230.4,525.4,230.2,525.4,229.8z"/>
			</g>
			<g>
				<g>
					<path fill="#6B72A2" d="M518,162.7c0-0.2-0.2-0.4-0.4-0.4c-0.2,0-0.3,0.2-0.3,0.4v12.7c0,0.2,0.2,0.4,0.4,0.4
						c0.2,0,0.3-0.2,0.3-0.4V162.7z"/>
					<path fill="#6B72A2" d="M516.9,176.6v-2.5c0-0.5,0.4-1,0.8-1c0.5,0,0.8,0.4,0.8,1v2.5L516.9,176.6z"/>
					<path fill="#FFC974" d="M516.1,163.2v-13.2c0-1,0.6-1.7,1.4-1.7c0.8,0,1.5,0.8,1.5,1.7v13.2L516.1,163.2z"/>
				</g>
				<g>
					<path fill="#6B72A2" d="M525.5,162c0-0.2-0.2-0.4-0.4-0.4c-0.2,0-0.3,0.2-0.3,0.4v12.1c0,0.2,0.2,0.4,0.4,0.4
						c0.2,0,0.3-0.2,0.3-0.4V162z"/>
					<path fill="#6B72A2" d="M524.4,175.2v-2.3c0-0.5,0.3-0.9,0.8-0.9c0.4,0,0.8,0.4,0.8,0.9v2.4H524.4z"/>
					<path fill="#FFC974" d="M523.7,162.4v-12.6c0-0.9,0.6-1.6,1.3-1.7c0.8,0,1.4,0.7,1.5,1.6v12.6H523.7z"/>
				</g>
				<g>
					<path fill="#6B72A2" d="M533,161.3c0-0.2-0.2-0.4-0.4-0.4c-0.2,0-0.3,0.2-0.3,0.4v11.5c0,0.2,0.2,0.4,0.4,0.4
						c0.2,0,0.3-0.2,0.3-0.4V161.3z"/>
					<path fill="#6B72A2" d="M531.9,173.8v-2.2c0-0.5,0.3-0.9,0.7-0.9c0.4,0,0.8,0.4,0.8,0.9v2.2H531.9z"/>
					<path fill="#FFC974" d="M531.3,161.7v-11.9c0-0.9,0.5-1.6,1.3-1.6c0.7,0,1.4,0.7,1.4,1.5v12H531.3z"/>
				</g>
				<g>
					<path fill="#6B72A2" d="M540.5,160.6c0-0.2-0.2-0.4-0.4-0.4c-0.2,0-0.3,0.2-0.3,0.4v10.8c0,0.2,0.2,0.4,0.4,0.4
						c0.2,0,0.3-0.2,0.3-0.4V160.6z"/>
					<path fill="#6B72A2" d="M539.5,172.4v-2.1c0-0.5,0.3-0.8,0.7-0.8c0.4,0,0.7,0.4,0.7,0.8v2.1H539.5z"/>
					<path fill="#FFC974" d="M538.9,161v-11.3c0-0.8,0.5-1.5,1.2-1.5c0.7,0,1.3,0.7,1.3,1.5V161H538.9z"/>
				</g>
				<g>
					<path fill="#6B72A2" d="M548,159.9c0-0.2-0.2-0.4-0.3-0.4c-0.2,0-0.3,0.2-0.3,0.4v10.2c0,0.2,0.2,0.4,0.3,0.4
						c0.2,0,0.3-0.2,0.3-0.4V159.9z"/>
					<path fill="#6B72A2" d="M547,171v-2c0-0.4,0.3-0.8,0.7-0.8c0.4,0,0.7,0.3,0.7,0.8v2H547z"/>
					<path fill="#FFC974" d="M546.5,160.2v-10.7c0-0.8,0.5-1.4,1.2-1.4c0.7,0,1.2,0.6,1.2,1.4v10.7H546.5z"/>
				</g>
			</g>
			<polygon fill="#FFEB9C" points="552.8,180.4 551.8,180.4 551.8,155.1 514,155.1 514,180.4 513,180.4 513,154 552.8,154 			"/>
			<g>
				<polygon fill="#B9C9EE" points="586.6,157.8 579.6,157.7 579.6,156.8 586.6,156.9 				"/>
				<polygon fill="#B9C9EE" points="580.9,159 579.8,159 579.8,155.6 581,155.6 				"/>
				<polygon fill="#6B72A2" points="580,155.2 578.1,155.2 578.1,159.3 580,159.3 				"/>
				<path fill="#6B72A2" d="M581.9,155.3l-1.2,0l0,4.1l1.2,0c0.3,0,0.5-0.3,0.5-0.6l0-2.9C582.5,155.6,582.2,155.3,581.9,155.3z"/>
				<path fill="#FFEB9C" d="M579,153.8l-16.2-0.2c-0.5,0-1,0.5-1,1.1l-0.1,5.5c0,0.1,0.1,0.2,0.2,0.2l2.4,0l-3.8,12.1
					c-0.4,1.3,0,2.7,1.1,3.3c1.2,0.7,2.6,0,3-1.4c0,0,2.3-7.2,3.6-11.2c0.5-1.6,1.8-2.7,3.3-2.6l7.5,0.1c0.1,0,0.2-0.1,0.2-0.2
					l0.1-6.4C579.1,153.9,579,153.8,579,153.8z"/>
				<path fill="#FFC974" d="M567.7,169.8l-8.6-0.1c-0.7,0-1.3,0.7-1.3,1.5l-0.1,7.7c0,0.8,0.6,1.5,1.3,1.5l8.6,0.1
					c0.7,0,1.3-0.7,1.3-1.5l0.1-7.7C569,170.5,568.4,169.8,567.7,169.8z"/>
				<path fill="#FFC974" d="M569.8,154.7l-7.9-0.1c-0.3,0-0.6,0.3-0.6,0.7l0,1.7c0,0.4,0.3,0.7,0.6,0.7l7.9,0.1
					c0.3,0,0.6-0.3,0.6-0.7l0-1.7C570.5,155,570.2,154.7,569.8,154.7z"/>
			</g>
			<path fill="#FFEB9C" d="M594,180.4h-12.5c-1.9,0-3.4-1.5-3.4-3.4v-4.6c0-1.9,1.5-3.4,3.4-3.4H594c1.9,0,3.4,1.5,3.4,3.4v4.6
				C597.4,178.9,595.9,180.4,594,180.4z"/>
			<path fill="#6B72A2" d="M592.8,175.9c-0.3,0-0.6,0-0.7-0.1c-0.5-0.1-0.9-0.7-0.8-1.3c0.1-0.6,0.6-1.1,1.1-1
				c0.5,0.1,2.9,0.1,4.6-1.8c1.4-1.5,2-3.9,1.7-7.1c-0.1-0.6,0.4-1.2,0.9-1.3c0.5-0.1,1,0.4,1.1,1.1c0.3,4-0.5,7-2.3,9
				C596.5,175.5,594.1,175.9,592.8,175.9z"/>
			<path fill="#6B72A2" d="M591.7,169.1H591v-3.6c0-1.9-1.3-3.5-3-3.5c-1.6,0-3,1.6-3,3.5v3.6h-0.7v-3.6c0-2.4,1.7-4.3,3.7-4.3
				c2.1,0,3.7,1.9,3.7,4.3V169.1z"/>
			<path fill="#FFEB9C" d="M587.4,132.2h-14.7c-1.9,0-3.4-1.5-3.4-3.4v-23.4c0-1.9,1.5-3.4,3.4-3.4h14.7c1.9,0,3.4,1.5,3.4,3.4v23.4
				C590.7,130.7,589.2,132.2,587.4,132.2z"/>
			<rect x="572.4" y="99.6" fill="#6B72A2" width="4.3" height="2.4"/>
		</g>
		<path fill="#FFC974" d="M584.6,129.6h-9.2c-2,0-3.6-1.9-3.6-4.2v-16.7c0-2.3,1.6-4.2,3.6-4.2h9.2c2,0,3.6,1.9,3.6,4.2v16.7
			C588.2,127.7,586.6,129.6,584.6,129.6z M575.5,105.6c-1.5,0-2.6,1.4-2.6,3.1v16.7c0,1.7,1.2,3.1,2.6,3.1h9.2
			c1.5,0,2.6-1.4,2.6-3.1v-16.7c0-1.7-1.2-3.1-2.6-3.1H575.5z"/>
	</g>
	<path opacity="0.76" fill="#6672A2" d="M583.5,289.8h-32.4c-1.4,0-2.4-1.1-2.4-2.4v-38.8c0-1.4,1.1-2.4,2.4-2.4h32.4
		c1.4,0,2.4,1.1,2.4,2.4v38.8C585.9,288.7,584.8,289.8,583.5,289.8z"/>
	<g>
		<path fill="#EA5C3C" d="M85.3,131h24.6v-23.3H85.1c-1.4,0-2.6,1.4-2.6,3v17C82.5,129.5,83.8,131,85.3,131z"/>
		<path fill="#242542" d="M98.1,121h223.2v17.9H98.1c-4.2,0-7.7-4-7.7-9C90.5,125,93.9,121,98.1,121z"/>
		<path fill="#242542" d="M318.4,121h208c4.2,0,7.7,4,7.7,9c0,4.9-3.4,9-7.7,9h-208V121z"/>
		<path fill="#EA5C3C" d="M84.3,119.2l5.3-17.6c4.3-14.1,14.8-24.2,27.4-26.4l76.1-13c7.1-1.2,13.9-4,20.1-8.2l48.9-29.3
			c14.1-9.6,30.1-14.6,46.5-14.6h57c27.4,0,55.6,26.6,72.7,38.1c5.1,3.5,10.9,5.6,16.8,6.3l55.8,6.9c8.2,0.8,15.1,7.6,17.1,17
			l9.5,44c0.7,3.2-1.4,6.9-4.2,6.9H321.3v1.2H91.5C86.2,130.4,82.6,124.9,84.3,119.2z"/>
		<path fill="#000543" d="M411.8,60.8H224.4c-3.8,0-5-6-1.6-8l38-22.3C277.6,19.4,290.8,15,307,15h56.6c16.7,0,33.7,10.7,48.2,21.7
			V60.8z"/>
		<path fill="#000543" d="M414.8,39c4.3,3.4,8.4,6.7,12.2,9.7c1.5,1.2,2.5,3.3,2.5,5.5c0,3.7-2.5,6.6-5.7,6.6h-9V39z"/>
		<rect x="326.4" y="15" fill="#3D4D9B" width="1" height="45.9"/>
		<rect x="167.1" y="67.2" fill="#D3442D" width="355.3" height="1.2"/>
		<path fill="#EA5C3C" d="M536.1,128.7h-24.6v-23.3h24.8c1.4,0,2.6,1.4,2.6,3v17C538.9,127.3,537.6,128.7,536.1,128.7z"/>
		<path fill="#D3442D" d="M220.1,53.3h10.5c2.4,0,4.3,2.3,4.3,5v9.3c0,2.8-1.9,5-4.3,5h-10.9c-4.8,0-8.7-4.9-8.2-10.7
			C212,56.9,215.8,53.3,220.1,53.3z"/>
		<path fill="#D3442D" d="M380.1,126.5H224c-6.5,0-11.9-6.8-11.9-15V60.8h1v50.6c0,7.7,4.9,13.9,10.9,13.9h156.1
			c4.9,0,9.3-4.1,10.8-10.3c3.3-13.1,11.7-21.4,16.4-25.1c1.9-1.5,3.1-4.2,3.1-7.2V60.8h1v21.9c0,3.3-1.3,6.4-3.5,8.2
			c-4.6,3.7-12.8,11.7-16,24.5C390.2,122,385.5,126.5,380.1,126.5z"/>
		<rect x="326.4" y="60.8" fill="#D3442D" width="1" height="65.1"/>
		<path fill="#D3442D" d="M479.2,87.1h-21.6c-0.8,0-1.4-0.7-1.4-1.6V75.2c0-0.9,0.6-1.6,1.4-1.6h21.6c0.8,0,1.4,0.7,1.4,1.6v10.3
			C480.5,86.4,479.9,87.1,479.2,87.1z M457.6,74.7c-0.2,0-0.4,0.2-0.4,0.4v10.3c0,0.2,0.2,0.4,0.4,0.4h21.6c0.2,0,0.4-0.2,0.4-0.4
			V75.2c0-0.2-0.2-0.4-0.4-0.4H457.6z"/>
		<rect x="467.4" y="104.8" fill="#D3442D" width="66.4" height="1.2"/>
		<g>
			<path fill="#4D4E6E" d="M199.5,130.9c0.3-2.1,0.5-4.3,0.5-6.5c0-19.6-13.6-35.6-30.4-35.6c-16.8,0-30.4,15.9-30.4,35.6
				c0,2.2,0.2,4.4,0.5,6.5H199.5z"/>
			<g>
				<ellipse fill="#242542" cx="169.7" cy="125" rx="27.5" ry="32.2"/>
				<ellipse fill="#9897B6" cx="169.7" cy="125" rx="21.2" ry="24.8"/>
				<g>
					<path fill="#242542" d="M169.2,120.2c0,0.4,0.3,0.7,0.6,0.7c0.3,0,0.6-0.3,0.6-0.7c0-0.4-0.3-0.7-0.6-0.7
						C169.5,119.5,169.2,119.8,169.2,120.2z"/>
					<path fill="#242542" d="M171.4,120.7c-0.2,0.3-0.1,0.8,0.2,1c0.3,0.2,0.7,0.1,0.8-0.3c0.2-0.3,0.1-0.8-0.2-1
						C171.9,120.2,171.5,120.3,171.4,120.7z"/>
					<path fill="#242542" d="M173,122.3c-0.3,0.2-0.4,0.6-0.2,1c0.2,0.3,0.5,0.5,0.8,0.3c0.3-0.2,0.4-0.6,0.2-1
						C173.7,122.2,173.3,122.1,173,122.3z"/>
					<path fill="#242542" d="M173.8,124.7c-0.3,0-0.6,0.3-0.6,0.7c0,0.4,0.3,0.7,0.6,0.7c0.3,0,0.6-0.3,0.6-0.7
						C174.4,125,174.1,124.7,173.8,124.7z"/>
					<path fill="#242542" d="M173.5,127.2c-0.3-0.2-0.7-0.1-0.8,0.3c-0.2,0.3-0.1,0.8,0.2,1c0.3,0.2,0.7,0.1,0.8-0.3
						C173.8,127.9,173.7,127.4,173.5,127.2z"/>
					<path fill="#242542" d="M172.1,129.2c-0.2-0.3-0.5-0.5-0.8-0.3c-0.3,0.2-0.4,0.6-0.2,1c0.2,0.3,0.5,0.5,0.8,0.3
						C172.2,130,172.3,129.6,172.1,129.2z"/>
					<path fill="#242542" d="M170.1,130.1c0-0.4-0.3-0.7-0.6-0.7c-0.3,0-0.6,0.3-0.6,0.7c0,0.4,0.3,0.7,0.6,0.7
						C169.8,130.9,170.1,130.5,170.1,130.1z"/>
					<path fill="#242542" d="M167.9,129.7c0.2-0.3,0.1-0.8-0.2-1c-0.3-0.2-0.7-0.1-0.8,0.3c-0.2,0.3-0.1,0.8,0.2,1
						C167.4,130.2,167.8,130.1,167.9,129.7z"/>
					<path fill="#242542" d="M166.3,128.1c0.3-0.2,0.4-0.6,0.2-1c-0.2-0.3-0.5-0.5-0.8-0.3c-0.3,0.2-0.4,0.6-0.2,1
						C165.6,128.2,166,128.3,166.3,128.1z"/>
					<path fill="#242542" d="M165.5,125.7c0.3,0,0.6-0.3,0.6-0.7c0-0.4-0.3-0.7-0.6-0.7c-0.3,0-0.6,0.3-0.6,0.7
						C164.9,125.4,165.2,125.7,165.5,125.7z"/>
					<path fill="#242542" d="M165.9,123.1c0.3,0.2,0.7,0.1,0.8-0.3c0.2-0.3,0.1-0.8-0.2-1c-0.3-0.2-0.7-0.1-0.8,0.3
						C165.5,122.5,165.6,122.9,165.9,123.1z"/>
					<path fill="#242542" d="M167.2,121.1c0.2,0.3,0.5,0.5,0.8,0.3c0.3-0.2,0.4-0.6,0.2-1c-0.2-0.3-0.5-0.5-0.8-0.3
						C167.2,120.4,167.1,120.8,167.2,121.1z"/>
				</g>
			</g>
		</g>
		<path fill="#4D4E6E" d="M479.8,132.7c0,2.2-0.2,4.4-0.5,6.5h-59.7c-0.3-2.1-0.5-4.3-0.5-6.5c0-17.9,11.3-32.7,25.9-35.2
			c1.4-0.3,2.9-0.4,4.4-0.4c1.2,0,2.5,0.1,3.7,0.3C468.2,99.5,479.8,114.5,479.8,132.7z"/>
		<path fill="#FFFFFF" d="M95.9,88.8c7.3,1.3,12.5,5,12.5,9.4c0,5.5-8.2,10-18.4,10c-0.9,0-1.8,0-2.7-0.1l1.8-6
			C90.7,97.1,93,92.6,95.9,88.8z"/>
		<path fill="#FFFFFF" d="M82.4,113.6C82.5,113.6,82.5,113.6,82.4,113.6c2.9,0,5.2,2.7,5.2,6c0,3.3-2.3,6-5.2,6c0,0,0,0-0.1,0V113.6
			z"/>
		<path fill="#D3442D" d="M142.6,108.2H85.1c-0.3,0-0.5-0.3-0.5-0.6c0-0.3,0.2-0.6,0.5-0.6h57.5c0.3,0,0.5,0.3,0.5,0.6
			C143.1,108,142.9,108.2,142.6,108.2z"/>
		
			<rect x="447.1" y="119" transform="matrix(-1 -1.224647e-16 1.224647e-16 -1 897.8664 251.5417)" fill="#242542" width="3.6" height="13.5"/>
		<path fill="#9897B6" d="M453.1,97.4v21.9c0,1.8-1.3,3.3-2.8,3.3h-2.5c-1.6,0-2.8-1.5-2.8-3.3V97.5c1.4-0.3,2.9-0.4,4.4-0.4
			C450.7,97.1,451.9,97.2,453.1,97.4z"/>
		<ellipse fill="#BEBED3" cx="448.9" cy="138.1" rx="12.3" ry="14.3"/>
		<path fill="#9897B6" d="M443.7,138.1c0,3.2,2.3,5.8,5,5.8c2.8,0,5-2.6,5-5.8c0-3.2-2.3-5.8-5-5.8
			C446,132.3,443.7,134.9,443.7,138.1z"/>
		<g>
			<path fill="#9897B6" d="M455.3,123.3c4.8,2.1,8,7.4,8,13.4c0,1.1-0.9,1.9-1.9,1.8l-2.5-0.5c-0.7-0.1-1.3-0.9-1.3-1.7
				c-0.1-2.9-1.7-5.4-3.9-6.6c-0.7-0.3-1.1-1.1-0.9-2l0.4-2.9C453.3,123.6,454.3,122.9,455.3,123.3z"/>
			<ellipse fill="#BEBED3" cx="460.4" cy="135.1" rx="1.1" ry="1.2"/>
			<path fill="#BEBED3" d="M454.3,127c0,0.7,0.5,1.2,1.1,1.2s1.1-0.5,1.1-1.2s-0.5-1.2-1.1-1.2S454.3,126.3,454.3,127z"/>
		</g>
	</g>
</g>
</svg>
