<?xml version="1.0" encoding="utf-8"?>
<!-- Generator: Adobe Illustrator 25.4.1, SVG Export Plug-In . SVG Version: 6.00 Build 0)  -->
<svg version="1.1" id="Layer_1" xmlns="http://www.w3.org/2000/svg" xmlns:xlink="http://www.w3.org/1999/xlink" x="0px" y="0px"
	 width="220" height="100" viewBox="0 0 170 50" style="enable-background:new 0 0 170 50;" xml:space="preserve">
<style type="text/css">
	.st0{fill:#D10028;}
	.st1{fill:#B7022D;}
	.st2{fill:#FFA91A;}
	.st3{fill:#FFC91D;}
	.st4{fill:#F79219;}
	.st5{fill:#EF7816;}
	.st6{fill:#137ED9;}
	.st7{fill:#CFD3DF;}
	.st8{fill:#9EA6BF;}
	.st9{fill:#2D3748;}
	.st10{font-family:'MarkerFelt-Thin';}
	.st11{font-size:21.6936px;}
	.st12{letter-spacing:-2;}
	.st13{letter-spacing:1;}
</style>
<g>
	<path class="st0" d="M41.5,16.3c0,1.6,6.6,3,16.3,3.5c2.1,0.1,4.3,0.2,6.6,0.2c12.8,0,23.1-1.6,23.1-1.6s-4.2,0.1-7.7,0
		C76.2,18.3,74,18,74,18s5.6,0.2,9.3-0.1c4.3-0.3,6.3-0.8,10.2-1c4.5-0.2,9.6,0.1,9.6,0.1s-2.9-1.2-10.4-2
		c-8.5-0.9-19.4-0.3-19.4-0.3s3-0.1,5.5-0.6c2.4-0.5,6.2-0.3,6.2-0.3s-9.4-1.3-20.7-1.3c-3.1,0-6.1,0.1-9,0.3
		C46.9,13.5,41.5,14.9,41.5,16.3L41.5,16.3z"/>
	<path class="st1" d="M87.5,18.3c0,0-2.3,0.1-4.9,0.1c-4.1,0.4-9.6,0.7-15.5,0.7c-2.3,0-4.5-0.1-6.6-0.2c-9.8-0.5-16.3-1.9-16.3-3.5
		c0-0.4,0.5-0.8,1.4-1.2c-2.6,0.6-4,1.3-4,2c0,1.6,6.6,3,16.3,3.5c2.1,0.1,4.3,0.2,6.6,0.2C77.2,19.9,87.5,18.3,87.5,18.3L87.5,18.3
		z"/>
	<path class="st2" d="M58.8,18.1c6.4,0,10.6-0.7,13.3-1.1c4.8-0.7,10.2-0.6,10.2-0.6s-7.9-1.4-14.5-1.6c-6.3-0.2-9.8,0.3-9.8,0.3
		s0.6-0.2,1.7-0.4c1.4-0.2,3.2-0.3,3.2-0.3s-1.3-0.1-5.7,0c-3.2,0.1-5.5,0.3-7.2,0.6c-4.2,0.7-3.8,1.8,0.8,2.5
		C52.8,17.9,55.4,18.1,58.8,18.1z"/>
	<path class="st3" d="M58.6,15.3c0,0,0.1,0,0.2-0.1c0.2,0,2.3-0.3,6.1-0.3c0.9,0,1.8,0,2.7,0c1.3,0,2.8,0.1,4.4,0.3
		c0.2,0,0.3,0.1,0.2,0.1c-0.2,0-0.5,0-0.7,0c-1.5-0.1-2.9-0.2-4.1-0.3c-0.8,0-1.7,0-2.4,0c-3.4,0-5.3,0.3-5.4,0.3
		c-0.2,0-0.5,0-0.7,0C58.7,15.4,58.6,15.3,58.6,15.3L58.6,15.3z M72.9,15.5l0.1,0c0.2,0,0.5,0,0.7,0l0.2,0c0.2,0,0.3,0.1,0.1,0.1
		c-0.2,0-0.5,0-0.7,0l-0.2,0C73,15.6,72.9,15.6,72.9,15.5z"/>
	<path class="st4" d="M72.1,17.1c4.8-0.7,10.2-0.6,10.2-0.6s-2.5-0.5-5.9-0.9c-2.7,0.4-6.6,0.9-12.3,0.9c-3.4,0-6-0.2-8-0.5
		c-2.3-0.3-3.5-0.8-3.7-1.2c-0.9,0.1-1.7,0.2-2.4,0.3c-4.2,0.7-3.8,1.8,0.8,2.5c2,0.3,4.6,0.5,8,0.5C65.2,18.1,69.4,17.5,72.1,17.1
		L72.1,17.1z"/>
	<path class="st5" d="M72.1,17.1c4.8-0.7,10.2-0.6,10.2-0.6s-1.6-0.3-3.9-0.6c-1.2,0.1-2.4,0.2-3.6,0.4c-2.7,0.4-6.8,1.1-13.3,1.1
		c-3.4,0-6-0.2-8-0.5c-3.1-0.4-4.3-1.1-3.5-1.7c-4.2,0.7-3.7,1.8,0.9,2.5c2,0.3,4.6,0.5,8,0.5C65.2,18.1,69.4,17.5,72.1,17.1
		L72.1,17.1z"/>
	<path class="st0" d="M104.7,17.8c0,0-2-0.5-5.7-0.5c-2,0-3.5,0.2-5.3,0.3c-1.6,0.1-3.9,0.1-3.9,0.1s1.9,0.3,6,0.4
		c1.6,0,3.6-0.1,5-0.2C102.9,17.8,104.7,17.8,104.7,17.8z"/>
	<path class="st0" d="M86.7,14.2c0,0,2.6-0.4,6.3-0.3c1.9,0.1,3.2,0.4,4.5,0.6c1.4,0.2,3.9,0.3,3.9,0.3s-1.7,0.2-5.1,0.1
		c-2.2-0.1-3.7-0.4-5-0.5C89.3,14.2,86.7,14.2,86.7,14.2z"/>
	<path class="st6" d="M25,13.5c-6.2,0-11.5,5.2-11.5,11.5S18.8,36.5,25,36.5S36.5,31.2,36.5,25S31.2,13.5,25,13.5z M25,32.3
		c-4,0-7.3-3.4-7.3-7.3c0-3.9,3.4-7.3,7.3-7.3c3.9,0,7.3,3.4,7.3,7.3C32.3,28.9,29,32.3,25,32.3z"/>
	<path class="st7" d="M29.3,40.2c8.7-1.4,15.2-6.7,15.2-13.1c0-3.2-1.6-6.1-4.3-8.4l4.6,0v-5l-19.8,0c-10.8,0-19.6,6-19.6,13.4
		c0,6.4,6.5,11.8,15.3,13.1c1.1,0.2,2.6,0.3,4.3,0.3C26.7,40.5,28.2,40.4,29.3,40.2L29.3,40.2z"/>
	<ellipse class="st8" cx="25" cy="27.1" rx="12.3" ry="8.4"/>
	<ellipse class="st4" cx="25" cy="27.1" rx="8.5" ry="5.8"/>
	<ellipse class="st7" cx="25" cy="27.1" rx="2.7" ry="1.9"/>
	<rect x="44.8" y="12.9" class="st8" width="4" height="6.5"/>
	<rect x="30.6" y="10.9" class="st7" width="7.6" height="2.7"/>
	<rect x="29.7" y="8.2" class="st8" width="9.3" height="2.7"/>
	<path d="M38.2,27.1c0-5-5.9-9.1-13.2-9.1s-13.2,4.1-13.2,9.1s5.9,9.1,13.2,9.1S38.2,32.1,38.2,27.1z M13.7,27.1
		c0-4.3,5.1-7.8,11.3-7.8s11.3,3.5,11.3,7.8c0,4.3-5.1,7.8-11.3,7.8S13.7,31.4,13.7,27.1z"/>
	<path d="M34.4,27.1c0-3.6-4.2-6.5-9.4-6.5c-5.2,0-9.4,2.9-9.4,6.5c0,3.6,4.2,6.5,9.4,6.5S34.4,30.6,34.4,27.1z M21.5,31.6
		c1-0.7,1.7-1.5,2.1-2.2c0.3,0.1,0.5,0.1,0.8,0.2c0.4,0.6,0.9,1.5,0.9,2.6l-0.3,0C23.7,32.2,22.5,32,21.5,31.6z M25,25.9
		c1,0,1.8,0.5,1.8,1.2S26,28.3,25,28.3c-1,0-1.8-0.5-1.8-1.2C23.2,26.4,24,25.9,25,25.9z M27.2,32c0-1-0.4-1.9-0.8-2.6
		c0.3-0.1,0.5-0.2,0.8-0.3c1,0.2,2.2,0.7,3.3,1.4C29.6,31.2,28.5,31.7,27.2,32L27.2,32z M31.6,29.5c-1.1-0.7-2.2-1.2-3.2-1.4
		c0.1-0.2,0.2-0.4,0.2-0.6c0.9-0.3,2.2-0.6,3.9-0.6l0,0.2C32.5,28,32.2,28.8,31.6,29.5L31.6,29.5z M32.2,25.6
		c-1.5,0-2.8,0.3-3.8,0.5c-0.1-0.2-0.2-0.4-0.4-0.5c0.3-0.7,1-1.5,2.1-2.3C31.1,23.9,31.8,24.7,32.2,25.6L32.2,25.6z M28.5,22.5
		c-1,0.7-1.7,1.5-2.1,2.2c-0.3-0.1-0.5-0.1-0.8-0.2c-0.4-0.6-0.9-1.5-0.9-2.6l0.3,0C26.3,21.9,27.5,22.2,28.5,22.5z M22.8,22.2
		c0,1,0.4,1.9,0.8,2.6c-0.3,0.1-0.5,0.2-0.8,0.3c-1-0.2-2.2-0.7-3.3-1.4C20.4,22.9,21.5,22.4,22.8,22.2L22.8,22.2z M18.4,24.7
		c1.1,0.7,2.2,1.2,3.2,1.4c-0.1,0.2-0.2,0.4-0.2,0.6c-0.9,0.3-2.2,0.6-3.9,0.6l0-0.2C17.5,26.2,17.8,25.4,18.4,24.7L18.4,24.7z
		 M17.8,28.6c1.5,0,2.8-0.3,3.8-0.5c0.1,0.2,0.2,0.4,0.4,0.5c-0.3,0.7-1,1.5-2.1,2.3C18.9,30.2,18.2,29.5,17.8,28.6L17.8,28.6z"/>
	<ellipse cx="25" cy="40.5" rx="1" ry="0.7"/>
	<path d="M48.8,12.2h-4c-0.5,0-1,0.3-1,0.7V13c-1,0-2.7,0-4.7,0v-1.4c0.5,0,0.8-0.3,0.8-0.7V8.2c0-0.4-0.4-0.7-1-0.7h-9.3
		c-0.5,0-1,0.3-1,0.7v2.7c0,0.3,0.4,0.6,0.8,0.7V13l-4.3,0c-0.1,0-0.2,0-0.4,0v0C13.7,13,4.5,19.3,4.5,27.1c0,3.2,1.6,6.4,4.6,8.9
		c2.9,2.5,7,4.2,11.4,4.9l0.2,0c0.4,0,0.8-0.2,0.9-0.5c0.1-0.4-0.2-0.7-0.7-0.8C12.5,38.2,6.4,33,6.4,27.1c0-7,8.3-12.8,18.6-12.8h0
		c0.2,0,8,0,13.8,0h5.1V18h-0.5c-1.2,0-3,0-3.1,0c-0.2,0-0.4,0-0.6,0.1c-0.4,0.2-0.5,0.6-0.2,0.9l0,0c2.6,2.3,4.1,5.1,4.1,8
		c0,6-6,11.1-14.5,12.5c-0.5,0.1-0.8,0.4-0.7,0.8c0.1,0.3,0.5,0.5,0.9,0.5l0.2,0c4.5-0.7,8.5-2.4,11.4-4.9c2.9-2.5,4.6-5.6,4.6-8.8
		c0-2.8-1.2-5.5-3.4-7.8l1.2,0c0.2,0,0.3,0,0.5,0v0.1c0,0.4,0.4,0.7,1,0.7h4c0.5,0,1-0.3,1-0.7v-6.5C49.7,12.5,49.3,12.2,48.8,12.2z
		 M30.7,8.9h7.4v1.4h-7.4V8.9z M31.5,13v-1.4h5.7V13H31.5z M47.8,18.7h-2.1v-5.2h2.1V18.7z"/>
	<text transform="matrix(1 0 0 1.0141 46.7031 39.8213)"><tspan x="0" y="0" class="st9 st10 st11 st12">T</tspan><tspan x="7.7" y="0" class="st9 st10 st11">u</tspan><tspan x="17.5" y="0" class="st9 st10 st11 st13">r</tspan><tspan x="26.8" y="0" class="st9 st10 st11 st13">b</tspan><tspan x="37.2" y="0" class="st9 st10 st11">o</tspan><tspan x="46.1" y="0" class="st9 st10 st11">R</tspan><tspan x="59.1" y="0" class="st9 st10 st11 st13">e</tspan><tspan x="68.5" y="0" class="st9 st10 st11">p</tspan><tspan x="78.8" y="0" class="st9 st10 st11">a</tspan><tspan x="89.6" y="0" class="st9 st10 st11 st13">i</tspan><tspan x="95.1" y="0" class="st9 st10 st11">rs</tspan></text>
</g>
</svg>
