<?xml version="1.0" encoding="utf-8"?>
<!-- Generator: Adobe Illustrator 26.0.2, SVG Export Plug-In . SVG Version: 6.00 Build 0)  -->
<svg version="1.1" id="Layer_1" xmlns="http://www.w3.org/2000/svg" xmlns:xlink="http://www.w3.org/1999/xlink" x="0px" y="0px"
	 width="220" height="100" viewBox="0 0 220 100" style="enable-background:new 0 0 220 100;" xml:space="preserve">
<style type="text/css">
	.st0{clip-path:url(#SVGID_00000111884213864877194220000008678020522331516812_);}
	.st1{fill-rule:evenodd;clip-rule:evenodd;fill:#FFFFFF;}
	.st2{fill:#FFFFFF;}
</style>
<g>
	<g>
		<ellipse cx="29" cy="50" rx="1.3" ry="0.9"/>
	</g>
	<g>
		<defs>
			<rect id="SVGID_1_" x="7.7" y="21.9" width="57.9" height="56.3"/>
		</defs>
		<clipPath id="SVGID_00000023262631621677938830000016071351618203870373_">
			<use xlink:href="#SVGID_1_"  style="overflow:visible;"/>
		</clipPath>
		<g style="clip-path:url(#SVGID_00000023262631621677938830000016071351618203870373_);">
			<path class="st1" d="M36.6,78.1V50l28.9-28.1l-28.9,0H7.7v28.5l28.9-28.5V50L7.7,78.1h57.8V49.6L36.6,78.1z"/>
		</g>
	</g>
	<g>
		<path class="st2" d="M71.7,58.8V41.2h3.6l2.9,6.4c0.8,1.8,1.6,4,2.3,6l0.1,0c-0.2-2.3-0.3-4.7-0.3-7.3v-5.1h2.9v17.5h-3.3l-3-6.7
			c-0.8-1.9-1.7-4.1-2.4-6.2l-0.1,0c0.1,2.3,0.1,4.8,0.1,7.7v5.3H71.7z"/>
		<path class="st2" d="M88.9,41.2v17.5h-3.1V41.2H88.9z"/>
		<path class="st2" d="M91.7,54.7c0.8,0.6,2.1,1.1,3.5,1.1c1.4,0,2.2-0.8,2.2-1.9c0-1.1-0.7-1.7-2.3-2.4c-2.3-1-3.8-2.6-3.8-5.2
			c0-3,2-5.3,5.2-5.3c1.6,0,2.7,0.4,3.5,0.9L99.3,45c-0.5-0.3-1.5-0.8-2.9-0.8c-1.4,0-2,0.8-2,1.7c0,1.1,0.8,1.6,2.6,2.5
			c2.4,1.2,3.6,2.8,3.6,5.2c0,2.9-1.8,5.4-5.6,5.4c-1.6,0-3.1-0.5-3.9-1.1L91.7,54.7z"/>
		<path class="st2" d="M114.3,52.1c-0.1-2.1-0.1-4.6-0.1-7.2h-0.1c-0.4,2.2-1,4.7-1.5,6.8l-1.7,6.8h-2.4l-1.5-6.8
			c-0.4-2.1-0.9-4.5-1.2-6.9h0c-0.1,2.4-0.1,5.1-0.2,7.3l-0.3,6.6h-2.9l0.9-17.5h4.2l1.3,5.8c0.4,2,0.9,4.2,1.2,6.3h0.1
			c0.4-2,0.8-4.3,1.3-6.3l1.5-5.8h4.1l0.7,17.5h-3L114.3,52.1z"/>
		<path class="st2" d="M132.5,49.8c0,5.7-2.7,9.2-6.8,9.2c-4.1,0-6.5-3.9-6.5-8.9c0-5.2,2.7-9.2,6.7-9.2
			C130.2,41,132.5,45,132.5,49.8z M122.6,50c0,3.4,1.3,5.8,3.4,5.8c2.1,0,3.3-2.5,3.3-5.9c0-3.2-1.2-5.8-3.3-5.8
			C123.8,44.1,122.6,46.6,122.6,50z"/>
		<path class="st2" d="M146.2,52.1c-0.1-2.1-0.1-4.6-0.1-7.2h-0.1c-0.4,2.2-1,4.7-1.5,6.8l-1.7,6.8h-2.4l-1.5-6.8
			c-0.4-2.1-0.9-4.5-1.2-6.9h0c-0.1,2.4-0.1,5.1-0.2,7.3l-0.3,6.6h-2.9l0.9-17.5h4.2l1.3,5.8c0.4,2,0.9,4.2,1.2,6.3h0.1
			c0.4-2,0.8-4.3,1.3-6.3l1.5-5.8h4.1l0.7,17.5h-3L146.2,52.1z"/>
		<path class="st2" d="M164.5,49.8c0,5.7-2.7,9.2-6.8,9.2c-4.1,0-6.5-3.9-6.5-8.9c0-5.2,2.7-9.2,6.7-9.2
			C162.2,41,164.5,45,164.5,49.8z M154.6,50c0,3.4,1.3,5.8,3.4,5.8c2.1,0,3.3-2.5,3.3-5.9c0-3.2-1.2-5.8-3.3-5.8
			C155.8,44.1,154.6,46.6,154.6,50z"/>
		<path class="st2" d="M168.7,44.6h-3.7v-3.3h10.6v3.3h-3.8v14.2h-3.1V44.6z"/>
		<path class="st2" d="M189.2,49.8c0,5.7-2.7,9.2-6.8,9.2c-4.1,0-6.5-3.9-6.5-8.9c0-5.2,2.7-9.2,6.7-9.2
			C186.9,41,189.2,45,189.2,49.8z M179.3,50c0,3.4,1.3,5.8,3.4,5.8c2.1,0,3.3-2.5,3.3-5.9c0-3.2-1.2-5.8-3.3-5.8
			C180.5,44.1,179.3,46.6,179.3,50z"/>
		<path class="st2" d="M191.3,41.5c1-0.2,2.5-0.4,4.1-0.4c2,0,3.5,0.4,4.5,1.4c0.8,0.8,1.3,2.1,1.3,3.7c0,2.2-1.2,3.8-2.4,4.3v0.1
			c1,0.5,1.5,1.7,1.8,3.3c0.4,2,0.8,4.3,1.1,4.9h-3.2c-0.2-0.5-0.6-1.9-0.9-4.1c-0.4-2.2-1-2.8-2.2-2.8h-0.9v6.9h-3.1V41.5z
			 M194.4,49h1.2c1.5,0,2.5-1,2.5-2.5c0-1.6-0.9-2.4-2.3-2.4c-0.7,0-1.2,0.1-1.4,0.1V49z"/>
		<path class="st2" d="M203.5,54.7c0.8,0.6,2.1,1.1,3.5,1.1c1.4,0,2.2-0.8,2.2-1.9c0-1.1-0.7-1.7-2.3-2.4c-2.3-1-3.8-2.6-3.8-5.2
			c0-3,2-5.3,5.2-5.3c1.6,0,2.7,0.4,3.5,0.9l-0.7,3.2c-0.5-0.3-1.5-0.8-2.9-0.8c-1.4,0-2,0.8-2,1.7c0,1.1,0.8,1.6,2.6,2.5
			c2.4,1.2,3.6,2.8,3.6,5.2c0,2.9-1.8,5.4-5.6,5.4c-1.6,0-3.1-0.5-3.9-1.1L203.5,54.7z"/>
	</g>
</g>
</svg>
