<?xml version="1.0" encoding="utf-8"?>
<!-- Generator: Adobe Illustrator 25.4.1, SVG Export Plug-In . SVG Version: 6.00 Build 0)  -->
<svg version="1.1" id="Layer_1" xmlns="http://www.w3.org/2000/svg" xmlns:xlink="http://www.w3.org/1999/xlink" x="0px" y="0px"
	 viewBox="0 0 1024 768" style="enable-background:new 0 0 1024 768;" xml:space="preserve">
<style type="text/css">
	.st0{fill:#1F3B80;}
	.st1{fill:#9DC9FC;}
	.st2{fill:#254799;}
	.st3{fill:#346EE3;}
	.st4{fill:#FFFFFF;}
	.st5{fill:#F5AC7F;}
	.st6{fill:#70A5F2;}
	.st7{fill:#F53B4A;}
</style>
<g>
	<path class="st0" d="M541.1,314.6l-63.3-29.4c-35-15.8-82.5-12.4-134.5,13.6C236,353.1,147.8,484.2,147.8,591.6
		c0,47.5,17,81.4,45.2,100.6l66.7,33.9l11.3-17c22.6-2.3,47.5-9,73.5-22.6C451.8,632.2,540,501.1,540,393.7c0-23.7-4.5-44.1-12.4-61
		L541.1,314.6z"/>
	<path class="st1" d="M545.7,450.3c0,80.3-65.6,178.6-145.8,219.3c-80.3,40.7-145.8,7.9-145.8-72.3c0-80.3,65.6-178.6,145.8-219.3
		C481.2,337.2,545.7,370,545.7,450.3z"/>
	<path class="st2" d="M399.8,324.8c-107.4,54.3-195.5,185.4-195.5,292.7s87,151.5,195.5,97.2C507.2,660.5,595.4,529.4,595.4,422
		S507.2,270.5,399.8,324.8z M398.7,658.2c-75.7,38.4-137.9,6.8-137.9-68.9c0-75.7,62.2-168.4,137.9-206.8
		c75.7-38.4,137.9-6.8,137.9,68.9C536.6,528.3,475.6,619.8,398.7,658.2z"/>
	<g>
		<path class="st0" d="M371.6,546.3c-1.1-2.3-2.3-5.7-2.3-10.2c0,0,0,0,0-1.1l-64.4,18.1c-5.7,1.1-11.3,9-11.3,14.7
			c0,2.3,0,5.7,0,7.9c0,24.9,9,44.1,23.7,54.3c3.4,2.3,11.3-1.1,14.7-7.9l39.6-66.7C372.7,553.1,373.8,548.6,371.6,546.3z"/>
		<path class="st0" d="M308.3,539.6l59.9-20.3c3.4-1.1,5.7-3.4,7.9-6.8c1.1-2.3,2.3-3.4,3.4-4.5c2.3-3.4,3.4-6.8,3.4-9l2.3-62.2
			c0-6.8-5.7-9-11.3-4.5c-32.8,23.7-61,61-73.5,97.2C299.2,536.2,302.6,541.8,308.3,539.6z"/>
		<path class="st0" d="M402.1,546.3c-2.3,1.1-3.4,2.3-5.7,3.4s-4.5,2.3-6.8,2.3l-49.7,74.6c-4.5,6.8-3.4,13.6,1.1,14.7
			c15.8,2.3,35-1.1,56.5-11.3c14.7-7.9,29.4-18.1,41.8-29.4c5.7-5.7,7.9-13.6,3.4-17L402.1,546.3z"/>
		<path class="st0" d="M500.4,448c-1.1-5.7-7.9-4.5-13.6,0l-62.2,58.8v1.1c0,4.5-1.1,9-3.4,13.6c-1.1,3.4-1.1,7.9,0,9l31.6,39.6
			c3.4,3.4,10.2,1.1,14.7-4.5c21.5-30.5,35-64.4,35-94.9C503.8,462.7,502.7,454.8,500.4,448z"/>
		<path class="st0" d="M411.1,491L411.1,491c2.3,0,5.7-1.1,7.9-3.4l61-50.9c5.7-4.5,9-13.6,5.7-17c-15.8-14.7-40.7-19.2-68.9-10.2
			c-5.7,2.3-11.3,10.2-11.3,15.8l1.1,58.8C405.5,488.7,407.8,491,411.1,491z"/>
	</g>
	<path class="st3" d="M450.7,497.7c0,29.4-23.7,65.6-53.1,80.3c-29.4,14.7-53.1,2.3-53.1-27.1c0-29.4,23.7-65.6,53.1-80.3
		C427,457,450.7,468.3,450.7,497.7z"/>
	<path class="st4" d="M424.7,510.2c0,14.7-12.4,33.9-27.1,41.8c-14.7,7.9-27.1,1.1-27.1-13.6s12.4-33.9,27.1-41.8
		C412.3,489.8,424.7,495.5,424.7,510.2z"/>
	<g>
		<path class="st3" d="M398.7,375.7c-80.3,40.7-145.8,137.9-145.8,218.1s65.6,113,145.8,72.3C479,625.5,544.5,528.3,544.5,448
			C544.5,367.8,479,335,398.7,375.7z M398.7,657.1c-75.7,37.3-135.6,6.8-135.6-67.8c0-75.7,61-166.2,135.6-204.6
			c75.7-37.3,136.8-6.8,136.8,67.8C535.5,528.3,474.4,619.8,398.7,657.1z"/>
	</g>
	<path class="st3" d="M457.5,56.9l57.6,39.6l11.3-15.8c7.9-12.4,4.5-29.4-6.8-37.3l-14.7-9c-12.4-7.9-29.4-4.5-37.3,6.8L457.5,56.9z
		"/>
	<path class="st1" d="M654.2,598.3c-1.1,2.3-3.4,6.8-6.8,10.2c-11.3,9-37.3,19.2-29.4,24.9c10.2,6.8,41.8,0,52-6.8
		c6.8-4.5,3.4-28.3,3.4-28.3L654.2,598.3z"/>
	<path class="st1" d="M847.4,591.6c0,2.3,1.1,7.9-1.1,12.4c-5.7,13.6-21.5,36.2-11.3,36.2c12.4,1.1,35-22.6,40.7-32.8
		c3.4-6.8-11.3-26-11.3-26L847.4,591.6z"/>
	<path class="st2" d="M722,283c14.7,36.2-64.4,176.3-62.2,180.8c2.3,4.5,9,15.8,13.6,35c4.5,19.2,10.2,93.8,3.4,100.6
		c-6.8,5.7-22.6,4.5-22.6,4.5s-31.6-136.8-32.8-143.5c-1.1-7.9,37.3-168.4,38.4-182C660.9,264.9,722,283,722,283z"/>
	<path class="st2" d="M750.2,246.8c24.9,32.8,44.1,154.9,49.7,163.9s20.3,15.8,37.3,59.9c17,44.1,30.5,108.5,30.5,108.5
		s-14.7,12.4-20.3,13.6c0,0-76.9-149.2-82.5-162.8c-6.8-13.6-84.8-154.9-84.8-154.9L750.2,246.8z"/>
	<g>
		<path class="st5" d="M363.7,281.8c11.3-5.7,36.2-5.7,36.2-5.7l-3.4,11.3c-13.6,9-22.6,12.4-27.1,13.6c-5.7,0,6.8-7.9,6.8-7.9
			s-10.2-1.1-18.1,1.1C346.7,297.7,355.8,286.4,363.7,281.8z"/>
		<path class="st5" d="M451.8,286.4c21.5,3.4,23.7,5.7,23.7,5.7l6.8,10.2c-7.9,3.4-17,0-22.6-2.3c-4.5-1.1-9-3.4-17-3.4
			C431.5,296.5,442.8,285.2,451.8,286.4z"/>
		<path class="st1" d="M391.9,276.2c35-21.5,81.4-37.3,81.4-37.3s45.2-87,57.6-99.5c17-17,23.7,33.9,20.3,44.1s-44.1,71.2-53.1,75.7
			c-7.9,5.7-49.7,22.6-101.7,27.1C394.2,287.5,391.9,276.2,391.9,276.2z"/>
		<path class="st6" d="M570.5,122.5c29.4,0,48.6,44.1,98.3,66.7c15.8,6.8,71.2,39.6,78,58.8c6.8,19.2-57.6,53.1-90.4,53.1
			c0,0,0-5.7-39.6-33.9c-26-19.2-67.8-39.6-81.4-75.7c-7.9-21.5-11.3-37.3-10.2-41.8C528.7,136,552.4,122.5,570.5,122.5z"/>
		<path class="st2" d="M533.2,190.3c13.6,36.2,55.4,56.5,81.4,75.7c39.6,28.3,39.6,33.9,39.6,33.9c33.9,0,106.2-36.2,96.1-53.1
			c-13.6-21.5-66.7-50.9-82.5-58.8c-49.7-22.6-70.1-64.4-99.5-64.4c-3.4,0-7.9,2.3-10.2,5.7c-15.8,23.7,13.6,80.3-6.8,81.4
			c-15.8,1.1-28.3-62.2-28.3-62.2C521.9,153,525.3,168.8,533.2,190.3z M572.8,174.5l18.1-31.6c31.6,29.4,41.8,43,31.6,50.9
			C612.3,201.6,572.8,174.5,572.8,174.5z"/>
		<g>
			<path class="st2" d="M424.7,51.3c28.3-17,54.3-1.1,74.6,28.3c0,0-30.5,29.4-44.1,9C440.5,79.5,411.1,60.3,424.7,51.3z"/>
			<path class="st7" d="M490.3,76.1c30.5-5.7,37.3,20.3,31.6,26c-6.8,6.8-18.1,10.2-28.3,10.2c-10.2,0-24.9-1.1-38.4-22.6
				C433.8,82.9,457.5,45.6,490.3,76.1z"/>
			<path class="st5" d="M500.4,119.1l23.7,29.4c0,0,12.4,36.2,19.2,36.2c4.5,0,7.9-43,9-54.3c0-1.1-1.1-2.3-2.3-3.4
				c-6.8-3.4-29.4-14.7-45.2-37.3C500.4,84,500.4,119.1,500.4,119.1z"/>
			<path class="st5" d="M499.3,93.1c-1.1-6.8-7.9-22.6-21.5-23.7c-15.8-1.1-29.4,11.3-20.3,36.2c7.9,21.5,27.1,47.5,38.4,46.3
				c10.2-1.1,13.6-28.3,12.4-46.3C509.5,106.7,503.8,114.6,499.3,93.1z"/>
			<path class="st5" d="M511.7,97.6c-1.1,5.7-2.3,11.3-5.7,11.3c-3.4,0-5.7-4.5-5.7-10.2s2.3-11.3,5.7-11.3
				C509.5,86.3,512.9,92,511.7,97.6z"/>
		</g>
		<path class="st1" d="M475.6,292c37.3-17,76.9-30.5,76.9-30.5s2.3-102.9,7.9-118.7c7.9-22.6,43-1.1,40.7,28.3
			c-1.1,10.2-14.7,94.9-19.2,104c-5.7,7.9-46.3,29.4-98.3,28.3C480.1,302.2,475.6,292,475.6,292z"/>
	</g>
</g>
</svg>
