<?xml version="1.0" standalone="no"?>
<!DOCTYPE svg PUBLIC "-//W3C//DTD SVG 20010904//EN"
 "http://www.w3.org/TR/2001/REC-SVG-20010904/DTD/svg10.dtd">
<svg version="1.0" xmlns="http://www.w3.org/2000/svg"
 width="700.000000pt" height="700.000000pt" viewBox="0 0 700.000000 700.000000"
 preserveAspectRatio="xMidYMid meet">
<metadata>
Created by potrace 1.14, written by Peter Selinger 2001-2017
</metadata>
<g transform="translate(0.000000,700.000000) scale(0.100000,-0.100000)"
fill="#000000" stroke="none">
<path d="M6210 6636 c-46 -12 -121 -58 -152 -93 -10 -10 -31 -46 -47 -78 l-30
-60 -913 0 c-1010 -1 -944 4 -975 -66 l-16 -37 -126 1 -127 0 -15 37 c-29 67
-24 66 -509 65 -239 -1 -469 -5 -510 -9 -41 -4 -93 -10 -114 -12 -58 -5 -115
-14 -171 -24 -27 -5 -64 -12 -80 -15 -55 -9 -227 -54 -324 -86 -709 -230
-1296 -701 -1685 -1352 -101 -168 -246 -493 -271 -607 -2 -8 -12 -42 -23 -75
-25 -75 -56 -211 -77 -335 -9 -52 -18 -106 -20 -119 -13 -74 -20 -210 -20
-386 0 -244 11 -380 45 -555 6 -30 13 -71 16 -90 3 -19 26 -105 50 -190 100
-349 256 -666 473 -965 36 -49 68 -92 71 -95 3 -3 29 -34 59 -70 55 -65 250
-264 327 -331 109 -97 328 -253 474 -338 93 -54 311 -158 405 -194 169 -64
392 -130 515 -151 19 -3 46 -8 60 -11 25 -5 53 -10 120 -19 116 -16 210 -21
415 -21 236 0 351 7 490 32 17 2 39 6 50 8 73 11 110 19 185 36 115 28 106 25
185 49 39 11 77 22 85 24 8 2 58 20 110 39 415 152 759 373 1065 681 142 143
152 155 260 297 94 125 104 154 75 214 l-21 42 56 99 c31 55 59 105 63 113 4
8 27 14 56 15 41 2 53 7 69 29 36 48 122 269 162 417 9 36 21 76 26 90 12 34
48 206 54 255 3 22 9 63 15 90 29 157 41 458 27 685 -9 140 -13 174 -38 315
-11 61 -22 124 -25 140 -6 30 -48 182 -79 282 -25 82 -98 259 -149 361 -25 52
-46 95 -46 98 0 2 62 4 138 4 l137 0 24 -49 c43 -92 131 -160 231 -180 75 -15
592 -13 636 3 18 6 46 23 63 38 65 58 62 8 59 1023 l-3 921 -27 41 c-16 24
-44 49 -70 62 -42 20 -58 21 -344 20 -201 0 -314 -4 -344 -13z"/>
</g>
</svg>
