<svg id="color" enable-background="new 0 0 24 24" height="512" viewBox="0 0 24 24" width="512" xmlns="http://www.w3.org/2000/svg"><path d="m23.491 1.826-5.25-1.786c-.156-.054-.326-.054-.482 0l-5.25 1.786c-.305.103-.509.388-.509.71v4.018c0 4.904 5.474 7.288 5.707 7.387.094.039.193.059.293.059s.199-.02.293-.06c.233-.099 5.707-2.482 5.707-7.386v-4.018c0-.322-.204-.607-.509-.71z" fill="#4caf50"/><path d="m21.286 5.618-2.75 3.5c-.168.214-.417.351-.688.377l-.098.005c-.237 0-.469-.084-.65-.241l-1.75-1.5c-.42-.359-.469-.991-.108-1.41.359-.419.991-.467 1.409-.108l.958.821 2.105-2.679c.341-.434.969-.511 1.404-.168.434.34.51.969.168 1.403z" fill="#fff"/><path d="m18 0h-.019c-.075.002-.15.015-.222.04l-5.25 1.786c-.305.103-.509.388-.509.71v4.018c0 4.904 5.474 7.288 5.707 7.387.094.039.193.059.293.059v-4.532c-.05.013-.101.022-.152.027l-.098.005c-.237 0-.469-.084-.65-.241l-1.75-1.5c-.42-.359-.469-.991-.108-1.41.197-.23.477-.349.759-.349.23 0 .462.079.649.24l.958.821.392-.498z" fill="#429846"/><path d="m16.001 6c-.282 0-.562.118-.76.349-.36.419-.312 1.051.108 1.41l1.75 1.5c.182.157.414.241.651.241l.098-.005c.051-.005.102-.014.152-.027v-2.905l-.392.498-.958-.82c-.188-.162-.419-.241-.649-.241z" fill="#dedede"/><path d="m22 17.5c-2 0-6 2.531-8 2.531s-4.25-1.531-4.25-1.531 2.693.5 4.25.5 2-.531 2-1.25c0-1.75-2.973-2.022-4.476-2.25-1.477-.822-3.037-1.333-5.481-1.54-.015.142-.037.284-.077.425l-2.009 7.08c2.275 1.036 6.986 2.535 9.043 2.535 3 0 11-4 11-5s-1-1.5-2-1.5z" fill="#ffcc80"/><path d="m3.5 22h-2.75c-.414 0-.75-.336-.75-.75v-8.5c0-.414.336-.75.75-.75 3.505 0 5.138 1.216 5.205 1.268.242.185.349.498.27.792l-2 7.386c-.089.327-.386.554-.725.554z" fill="#2196f3"/><path d="m22 17.5c-2 0-6 2.531-8 2.531s-4.25-1.531-4.25-1.531l-4.472-.944-1.053 3.89c-.011.042-.026.081-.044.12 2.348 1.028 6.828 2.434 8.819 2.434 3 0 11-4 11-5s-1-1.5-2-1.5z" fill="#deb26f"/><path d="m0 16.442v4.808c0 .414.336.75.75.75h2.75c.296 0 .56-.173.681-.435.018-.038.032-.078.044-.12l1.053-3.89z" fill="#1d83d4"/></svg>